<?xml version="1.0" encoding="utf-8" standalone="no"?>
<!DOCTYPE svg PUBLIC "-//W3C//DTD SVG 1.1//EN"
  "http://www.w3.org/Graphics/SVG/1.1/DTD/svg11.dtd">
<svg height="318.489892pt" version="1.1" viewBox="0 0 415.553592 318.489892" width="415.553592pt" xmlns="http://www.w3.org/2000/svg" xmlns:xlink="http://www.w3.org/1999/xlink">
 <metadata>
  <rdf:RDF xmlns:cc="http://creativecommons.org/ns#" xmlns:dc="http://purl.org/dc/elements/1.1/" xmlns:rdf="http://www.w3.org/1999/02/22-rdf-syntax-ns#">
   <cc:Work>
    <dc:type rdf:resource="http://purl.org/dc/dcmitype/StillImage"/>
    <dc:date>2023-05-01T10:26:26.436114</dc:date>
    <dc:format>image/svg+xml</dc:format>
    <dc:creator>
     <cc:Agent>
      <dc:title>Matplotlib v3.4.3, https://matplotlib.org/</dc:title>
     </cc:Agent>
    </dc:creator>
   </cc:Work>
  </rdf:RDF>
 </metadata>
 <defs>
  <style type="text/css">*{stroke-linecap:butt;stroke-linejoin:round;}</style>
 </defs>
 <g id="figure_1">
  <g id="patch_1">
   <path d="M 0 318.489892 
L 415.553592 318.489892 
L 415.553592 0 
L 0 0 
z
" style="fill:#ffffff;"/>
  </g>
  <g id="axes_1">
   <g id="patch_2">
    <path d="M 50.836875 277.062392 
L 407.956875 277.062392 
L 407.956875 10.950392 
L 50.836875 10.950392 
z
" style="fill:#ffffff;"/>
   </g>
   <g id="PathCollection_1">
    <defs>
     <path d="M -2.236068 2.236068 
L 2.236068 -2.236068 
M -2.236068 -2.236068 
L 2.236068 2.236068 
" id="ma64da325b8" style="stroke:#000000;stroke-width:1.5;"/>
    </defs>
    <g clip-path="url(#p40bcd8e857)">
     <use style="stroke:#000000;stroke-width:1.5;" x="353.211124" xlink:href="#ma64da325b8" y="219.144512"/>
     <use style="stroke:#000000;stroke-width:1.5;" x="262.809637" xlink:href="#ma64da325b8" y="259.440543"/>
     <use style="stroke:#000000;stroke-width:1.5;" x="301.159039" xlink:href="#ma64da325b8" y="257.703129"/>
     <use style="stroke:#000000;stroke-width:1.5;" x="384.817015" xlink:href="#ma64da325b8" y="188.773132"/>
     <use style="stroke:#000000;stroke-width:1.5;" x="360.071669" xlink:href="#ma64da325b8" y="213.671032"/>
     <use style="stroke:#000000;stroke-width:1.5;" x="171.510697" xlink:href="#ma64da325b8" y="204.051903"/>
     <use style="stroke:#000000;stroke-width:1.5;" x="299.260092" xlink:href="#ma64da325b8" y="251.829152"/>
     <use style="stroke:#000000;stroke-width:1.5;" x="226.254244" xlink:href="#ma64da325b8" y="246.193206"/>
     <use style="stroke:#000000;stroke-width:1.5;" x="229.444943" xlink:href="#ma64da325b8" y="252.676353"/>
     <use style="stroke:#000000;stroke-width:1.5;" x="263.501705" xlink:href="#ma64da325b8" y="261.599332"/>
     <use style="stroke:#000000;stroke-width:1.5;" x="245.833952" xlink:href="#ma64da325b8" y="260.846564"/>
     <use style="stroke:#000000;stroke-width:1.5;" x="332.678411" xlink:href="#ma64da325b8" y="241.761524"/>
     <use style="stroke:#000000;stroke-width:1.5;" x="286.729464" xlink:href="#ma64da325b8" y="264.395606"/>
     <use style="stroke:#000000;stroke-width:1.5;" x="244.351323" xlink:href="#ma64da325b8" y="251.131984"/>
     <use style="stroke:#000000;stroke-width:1.5;" x="265.706553" xlink:href="#ma64da325b8" y="262.366578"/>
     <use style="stroke:#000000;stroke-width:1.5;" x="258.403029" xlink:href="#ma64da325b8" y="261.51211"/>
     <use style="stroke:#000000;stroke-width:1.5;" x="335.316797" xlink:href="#ma64da325b8" y="239.241606"/>
     <use style="stroke:#000000;stroke-width:1.5;" x="222.68821" xlink:href="#ma64da325b8" y="245.625443"/>
     <use style="stroke:#000000;stroke-width:1.5;" x="257.037184" xlink:href="#ma64da325b8" y="264.966392"/>
     <use style="stroke:#000000;stroke-width:1.5;" x="179.675437" xlink:href="#ma64da325b8" y="214.198107"/>
     <use style="stroke:#000000;stroke-width:1.5;" x="67.069602" xlink:href="#ma64da325b8" y="23.046392"/>
     <use style="stroke:#000000;stroke-width:1.5;" x="279.609525" xlink:href="#ma64da325b8" y="259.061637"/>
     <use style="stroke:#000000;stroke-width:1.5;" x="293.582905" xlink:href="#ma64da325b8" y="259.023171"/>
     <use style="stroke:#000000;stroke-width:1.5;" x="187.094412" xlink:href="#ma64da325b8" y="224.69751"/>
     <use style="stroke:#000000;stroke-width:1.5;" x="386.730004" xlink:href="#ma64da325b8" y="180.109353"/>
     <use style="stroke:#000000;stroke-width:1.5;" x="139.888438" xlink:href="#ma64da325b8" y="160.948467"/>
     <use style="stroke:#000000;stroke-width:1.5;" x="239.319438" xlink:href="#ma64da325b8" y="255.337065"/>
     <use style="stroke:#000000;stroke-width:1.5;" x="223.879588" xlink:href="#ma64da325b8" y="247.742853"/>
     <use style="stroke:#000000;stroke-width:1.5;" x="337.881914" xlink:href="#ma64da325b8" y="235.301081"/>
     <use style="stroke:#000000;stroke-width:1.5;" x="333.67829" xlink:href="#ma64da325b8" y="237.737488"/>
    </g>
   </g>
   <g id="PathCollection_2">
    <path clip-path="url(#p40bcd8e857)" d="M 353.211124 222.306789 
C 354.04977 222.306789 354.854179 221.973592 355.447192 221.38058 
C 356.040204 220.787568 356.373401 219.983158 356.373401 219.144512 
C 356.373401 218.305866 356.040204 217.501456 355.447192 216.908444 
C 354.854179 216.315432 354.04977 215.982234 353.211124 215.982234 
C 352.372478 215.982234 351.568068 216.315432 350.975056 216.908444 
C 350.382044 217.501456 350.048846 218.305866 350.048846 219.144512 
C 350.048846 219.983158 350.382044 220.787568 350.975056 221.38058 
C 351.568068 221.973592 352.372478 222.306789 353.211124 222.306789 
z
" style="fill:#00ffff;fill-opacity:0.5;stroke:#00ffff;stroke-opacity:0.5;"/>
    <path clip-path="url(#p40bcd8e857)" d="M 262.809637 259.441884 
C 262.809992 259.441884 262.810333 259.441742 262.810585 259.441491 
C 262.810836 259.44124 262.810977 259.440899 262.810977 259.440543 
C 262.810977 259.440188 262.810836 259.439847 262.810585 259.439595 
C 262.810333 259.439344 262.809992 259.439203 262.809637 259.439203 
C 262.809281 259.439203 262.808941 259.439344 262.808689 259.439595 
C 262.808438 259.439847 262.808297 259.440188 262.808297 259.440543 
C 262.808297 259.440899 262.808438 259.44124 262.808689 259.441491 
C 262.808941 259.441742 262.809281 259.441884 262.809637 259.441884 
z
" style="fill:#00ffff;fill-opacity:0.5;stroke:#00ffff;stroke-opacity:0.5;"/>
    <path clip-path="url(#p40bcd8e857)" d="M 301.159039 260.865406 
C 301.997684 260.865406 302.802094 260.532209 303.395106 259.939197 
C 303.988119 259.346185 304.321316 258.541775 304.321316 257.703129 
C 304.321316 256.864483 303.988119 256.060073 303.395106 255.467061 
C 302.802094 254.874049 301.997684 254.540851 301.159039 254.540851 
C 300.320393 254.540851 299.515983 254.874049 298.922971 255.467061 
C 298.329958 256.060073 297.996761 256.864483 297.996761 257.703129 
C 297.996761 258.541775 298.329958 259.346185 298.922971 259.939197 
C 299.515983 260.532209 300.320393 260.865406 301.159039 260.865406 
z
" style="fill:#00ffff;fill-opacity:0.5;stroke:#00ffff;stroke-opacity:0.5;"/>
    <path clip-path="url(#p40bcd8e857)" d="M 384.817015 191.784331 
C 385.615595 191.784331 386.381574 191.467052 386.946254 190.902371 
C 387.510935 190.33769 387.828214 189.571711 387.828214 188.773132 
C 387.828214 187.974553 387.510935 187.208574 386.946254 186.643893 
C 386.381574 186.079212 385.615595 185.761933 384.817015 185.761933 
C 384.018436 185.761933 383.252457 186.079212 382.687776 186.643893 
C 382.123096 187.208574 381.805817 187.974553 381.805817 188.773132 
C 381.805817 189.571711 382.123096 190.33769 382.687776 190.902371 
C 383.252457 191.467052 384.018436 191.784331 384.817015 191.784331 
z
" style="fill:#00ffff;fill-opacity:0.5;stroke:#00ffff;stroke-opacity:0.5;"/>
    <path clip-path="url(#p40bcd8e857)" d="M 360.071669 215.484813 
C 360.552689 215.484813 361.014073 215.293702 361.354206 214.953569 
C 361.694339 214.613436 361.88545 214.152052 361.88545 213.671032 
C 361.88545 213.190012 361.694339 212.728628 361.354206 212.388495 
C 361.014073 212.048362 360.552689 211.857251 360.071669 211.857251 
C 359.590648 211.857251 359.129265 212.048362 358.789132 212.388495 
C 358.448999 212.728628 358.257888 213.190012 358.257888 213.671032 
C 358.257888 214.152052 358.448999 214.613436 358.789132 214.953569 
C 359.129265 215.293702 359.590648 215.484813 360.071669 215.484813 
z
" style="fill:#00ffff;fill-opacity:0.5;stroke:#00ffff;stroke-opacity:0.5;"/>
    <path clip-path="url(#p40bcd8e857)" d="M 171.510697 204.066928 
C 171.514682 204.066928 171.518504 204.065345 171.521322 204.062527 
C 171.524139 204.05971 171.525723 204.055888 171.525723 204.051903 
C 171.525723 204.047918 171.524139 204.044096 171.521322 204.041279 
C 171.518504 204.038461 171.514682 204.036878 171.510697 204.036878 
C 171.506713 204.036878 171.502891 204.038461 171.500073 204.041279 
C 171.497255 204.044096 171.495672 204.047918 171.495672 204.051903 
C 171.495672 204.055888 171.497255 204.05971 171.500073 204.062527 
C 171.502891 204.065345 171.506713 204.066928 171.510697 204.066928 
z
" style="fill:#00ffff;fill-opacity:0.5;stroke:#00ffff;stroke-opacity:0.5;"/>
    <path clip-path="url(#p40bcd8e857)" d="M 299.260092 254.991429 
C 300.098738 254.991429 300.903148 254.658232 301.49616 254.06522 
C 302.089172 253.472208 302.42237 252.667798 302.42237 251.829152 
C 302.42237 250.990506 302.089172 250.186096 301.49616 249.593084 
C 300.903148 249.000072 300.098738 248.666874 299.260092 248.666874 
C 298.421447 248.666874 297.617037 249.000072 297.024024 249.593084 
C 296.431012 250.186096 296.097815 250.990506 296.097815 251.829152 
C 296.097815 252.667798 296.431012 253.472208 297.024024 254.06522 
C 297.617037 254.658232 298.421447 254.991429 299.260092 254.991429 
z
" style="fill:#00ffff;fill-opacity:0.5;stroke:#00ffff;stroke-opacity:0.5;"/>
    <path clip-path="url(#p40bcd8e857)" d="M 226.254244 246.260855 
C 226.272184 246.260855 226.289393 246.253727 226.302079 246.241041 
C 226.314765 246.228355 226.321893 246.211147 226.321893 246.193206 
C 226.321893 246.175265 226.314765 246.158057 226.302079 246.145371 
C 226.289393 246.132685 226.272184 246.125557 226.254244 246.125557 
C 226.236303 246.125557 226.219095 246.132685 226.206409 246.145371 
C 226.193723 246.158057 226.186595 246.175265 226.186595 246.193206 
C 226.186595 246.211147 226.193723 246.228355 226.206409 246.241041 
C 226.219095 246.253727 226.236303 246.260855 226.254244 246.260855 
z
" style="fill:#00ffff;fill-opacity:0.5;stroke:#00ffff;stroke-opacity:0.5;"/>
    <path clip-path="url(#p40bcd8e857)" d="M 229.444943 252.695988 
C 229.45015 252.695988 229.455145 252.693919 229.458827 252.690237 
C 229.462509 252.686555 229.464578 252.68156 229.464578 252.676353 
C 229.464578 252.671146 229.462509 252.666151 229.458827 252.662469 
C 229.455145 252.658787 229.45015 252.656718 229.444943 252.656718 
C 229.439735 252.656718 229.434741 252.658787 229.431059 252.662469 
C 229.427377 252.666151 229.425308 252.671146 229.425308 252.676353 
C 229.425308 252.68156 229.427377 252.686555 229.431059 252.690237 
C 229.434741 252.693919 229.439735 252.695988 229.444943 252.695988 
z
" style="fill:#00ffff;fill-opacity:0.5;stroke:#00ffff;stroke-opacity:0.5;"/>
    <path clip-path="url(#p40bcd8e857)" d="M 263.501705 261.600493 
C 263.502013 261.600493 263.502308 261.600371 263.502526 261.600153 
C 263.502744 261.599935 263.502866 261.59964 263.502866 261.599332 
C 263.502866 261.599024 263.502744 261.598729 263.502526 261.598511 
C 263.502308 261.598293 263.502013 261.598171 263.501705 261.598171 
C 263.501397 261.598171 263.501102 261.598293 263.500884 261.598511 
C 263.500666 261.598729 263.500544 261.599024 263.500544 261.599332 
C 263.500544 261.59964 263.500666 261.599935 263.500884 261.600153 
C 263.501102 261.600371 263.501397 261.600493 263.501705 261.600493 
z
" style="fill:#00ffff;fill-opacity:0.5;stroke:#00ffff;stroke-opacity:0.5;"/>
    <path clip-path="url(#p40bcd8e857)" d="M 245.833952 263.514893 
C 246.541601 263.514893 247.220362 263.233741 247.720746 262.733358 
C 248.221129 262.232974 248.502281 261.554214 248.502281 260.846564 
C 248.502281 260.138915 248.221129 259.460155 247.720746 258.959771 
C 247.220362 258.459388 246.541601 258.178236 245.833952 258.178236 
C 245.126303 258.178236 244.447543 258.459388 243.947159 258.959771 
C 243.446776 259.460155 243.165624 260.138915 243.165624 260.846564 
C 243.165624 261.554214 243.446776 262.232974 243.947159 262.733358 
C 244.447543 263.233741 245.126303 263.514893 245.833952 263.514893 
z
" style="fill:#00ffff;fill-opacity:0.5;stroke:#00ffff;stroke-opacity:0.5;"/>
    <path clip-path="url(#p40bcd8e857)" d="M 332.678411 241.762697 
C 332.678722 241.762697 332.67902 241.762573 332.67924 241.762353 
C 332.67946 241.762133 332.679583 241.761835 332.679583 241.761524 
C 332.679583 241.761213 332.67946 241.760915 332.67924 241.760695 
C 332.67902 241.760475 332.678722 241.760352 332.678411 241.760352 
C 332.6781 241.760352 332.677801 241.760475 332.677581 241.760695 
C 332.677362 241.760915 332.677238 241.761213 332.677238 241.761524 
C 332.677238 241.761835 332.677362 241.762133 332.677581 241.762353 
C 332.677801 241.762573 332.6781 241.762697 332.678411 241.762697 
z
" style="fill:#00ffff;fill-opacity:0.5;stroke:#00ffff;stroke-opacity:0.5;"/>
    <path clip-path="url(#p40bcd8e857)" d="M 286.729464 267.557883 
C 287.568109 267.557883 288.372519 267.224686 288.965532 266.631674 
C 289.558544 266.038661 289.891741 265.234251 289.891741 264.395606 
C 289.891741 263.55696 289.558544 262.75255 288.965532 262.159538 
C 288.372519 261.566525 287.568109 261.233328 286.729464 261.233328 
C 285.890818 261.233328 285.086408 261.566525 284.493396 262.159538 
C 283.900383 262.75255 283.567186 263.55696 283.567186 264.395606 
C 283.567186 265.234251 283.900383 266.038661 284.493396 266.631674 
C 285.086408 267.224686 285.890818 267.557883 286.729464 267.557883 
z
" style="fill:#00ffff;fill-opacity:0.5;stroke:#00ffff;stroke-opacity:0.5;"/>
    <path clip-path="url(#p40bcd8e857)" d="M 244.351323 251.133147 
C 244.351632 251.133147 244.351928 251.133024 244.352146 251.132806 
C 244.352364 251.132588 244.352486 251.132292 244.352486 251.131984 
C 244.352486 251.131676 244.352364 251.13138 244.352146 251.131162 
C 244.351928 251.130944 244.351632 251.130821 244.351323 251.130821 
C 244.351015 251.130821 244.350719 251.130944 244.350501 251.131162 
C 244.350283 251.13138 244.35016 251.131676 244.35016 251.131984 
C 244.35016 251.132292 244.350283 251.132588 244.350501 251.132806 
C 244.350719 251.133024 244.351015 251.133147 244.351323 251.133147 
z
" style="fill:#00ffff;fill-opacity:0.5;stroke:#00ffff;stroke-opacity:0.5;"/>
    <path clip-path="url(#p40bcd8e857)" d="M 265.706553 262.367595 
C 265.706823 262.367595 265.707081 262.367488 265.707272 262.367297 
C 265.707462 262.367107 265.70757 262.366848 265.70757 262.366578 
C 265.70757 262.366309 265.707462 262.36605 265.707272 262.365859 
C 265.707081 262.365669 265.706823 262.365562 265.706553 262.365562 
C 265.706283 262.365562 265.706025 262.365669 265.705834 262.365859 
C 265.705643 262.36605 265.705536 262.366309 265.705536 262.366578 
C 265.705536 262.366848 265.705643 262.367107 265.705834 262.367297 
C 265.706025 262.367488 265.706283 262.367595 265.706553 262.367595 
z
" style="fill:#00ffff;fill-opacity:0.5;stroke:#00ffff;stroke-opacity:0.5;"/>
    <path clip-path="url(#p40bcd8e857)" d="M 258.403029 264.674387 
C 259.241675 264.674387 260.046085 264.34119 260.639097 263.748177 
C 261.232109 263.155165 261.565306 262.350755 261.565306 261.51211 
C 261.565306 260.673464 261.232109 259.869054 260.639097 259.276042 
C 260.046085 258.68303 259.241675 258.349832 258.403029 258.349832 
C 257.564383 258.349832 256.759973 258.68303 256.166961 259.276042 
C 255.573949 259.869054 255.240751 260.673464 255.240751 261.51211 
C 255.240751 262.350755 255.573949 263.155165 256.166961 263.748177 
C 256.759973 264.34119 257.564383 264.674387 258.403029 264.674387 
z
" style="fill:#00ffff;fill-opacity:0.5;stroke:#00ffff;stroke-opacity:0.5;"/>
    <path clip-path="url(#p40bcd8e857)" d="M 335.316797 241.602863 
C 335.94301 241.602863 336.543659 241.354066 336.986458 240.911267 
C 337.429257 240.468468 337.678054 239.867819 337.678054 239.241606 
C 337.678054 238.615393 337.429257 238.014744 336.986458 237.571945 
C 336.543659 237.129146 335.94301 236.880349 335.316797 236.880349 
C 334.690584 236.880349 334.089935 237.129146 333.647136 237.571945 
C 333.204337 238.014744 332.95554 238.615393 332.95554 239.241606 
C 332.95554 239.867819 333.204337 240.468468 333.647136 240.911267 
C 334.089935 241.354066 334.690584 241.602863 335.316797 241.602863 
z
" style="fill:#00ffff;fill-opacity:0.5;stroke:#00ffff;stroke-opacity:0.5;"/>
    <path clip-path="url(#p40bcd8e857)" d="M 222.68821 245.787648 
C 222.731228 245.787648 222.772489 245.770557 222.802907 245.740139 
C 222.833324 245.709721 222.850415 245.66846 222.850415 245.625443 
C 222.850415 245.582426 222.833324 245.541164 222.802907 245.510747 
C 222.772489 245.480329 222.731228 245.463238 222.68821 245.463238 
C 222.645193 245.463238 222.603932 245.480329 222.573514 245.510747 
C 222.543096 245.541164 222.526005 245.582426 222.526005 245.625443 
C 222.526005 245.66846 222.543096 245.709721 222.573514 245.740139 
C 222.603932 245.770557 222.645193 245.787648 222.68821 245.787648 
z
" style="fill:#00ffff;fill-opacity:0.5;stroke:#00ffff;stroke-opacity:0.5;"/>
    <path clip-path="url(#p40bcd8e857)" d="M 257.037184 268.128669 
C 257.87583 268.128669 258.68024 267.795472 259.273252 267.202459 
C 259.866264 266.609447 260.199461 265.805037 260.199461 264.966392 
C 260.199461 264.127746 259.866264 263.323336 259.273252 262.730324 
C 258.68024 262.137311 257.87583 261.804114 257.037184 261.804114 
C 256.198538 261.804114 255.394128 262.137311 254.801116 262.730324 
C 254.208104 263.323336 253.874906 264.127746 253.874906 264.966392 
C 253.874906 265.805037 254.208104 266.609447 254.801116 267.202459 
C 255.394128 267.795472 256.198538 268.128669 257.037184 268.128669 
z
" style="fill:#00ffff;fill-opacity:0.5;stroke:#00ffff;stroke-opacity:0.5;"/>
    <path clip-path="url(#p40bcd8e857)" d="M 179.675437 214.199438 
C 179.67579 214.199438 179.676129 214.199298 179.676378 214.199048 
C 179.676628 214.198799 179.676768 214.19846 179.676768 214.198107 
C 179.676768 214.197754 179.676628 214.197415 179.676378 214.197166 
C 179.676129 214.196916 179.67579 214.196776 179.675437 214.196776 
C 179.675084 214.196776 179.674745 214.196916 179.674495 214.197166 
C 179.674246 214.197415 179.674106 214.197754 179.674106 214.198107 
C 179.674106 214.19846 179.674246 214.198799 179.674495 214.199048 
C 179.674745 214.199298 179.675084 214.199438 179.675437 214.199438 
z
" style="fill:#00ffff;fill-opacity:0.5;stroke:#00ffff;stroke-opacity:0.5;"/>
    <path clip-path="url(#p40bcd8e857)" d="M 67.069602 23.187011 
C 67.106895 23.187011 67.142665 23.172195 67.169035 23.145825 
C 67.195405 23.119455 67.210222 23.083684 67.210222 23.046392 
C 67.210222 23.009099 67.195405 22.973328 67.169035 22.946959 
C 67.142665 22.920589 67.106895 22.905772 67.069602 22.905772 
C 67.03231 22.905772 66.996539 22.920589 66.970169 22.946959 
C 66.943799 22.973328 66.928983 23.009099 66.928983 23.046392 
C 66.928983 23.083684 66.943799 23.119455 66.970169 23.145825 
C 66.996539 23.172195 67.03231 23.187011 67.069602 23.187011 
z
" style="fill:#00ffff;fill-opacity:0.5;stroke:#00ffff;stroke-opacity:0.5;"/>
    <path clip-path="url(#p40bcd8e857)" d="M 279.609525 259.063825 
C 279.610106 259.063825 279.610662 259.063594 279.611073 259.063184 
C 279.611483 259.062774 279.611713 259.062217 279.611713 259.061637 
C 279.611713 259.061057 279.611483 259.0605 279.611073 259.06009 
C 279.610662 259.059679 279.610106 259.059449 279.609525 259.059449 
C 279.608945 259.059449 279.608389 259.059679 279.607978 259.06009 
C 279.607568 259.0605 279.607338 259.061057 279.607338 259.061637 
C 279.607338 259.062217 279.607568 259.062774 279.607978 259.063184 
C 279.608389 259.063594 279.608945 259.063825 279.609525 259.063825 
z
" style="fill:#00ffff;fill-opacity:0.5;stroke:#00ffff;stroke-opacity:0.5;"/>
    <path clip-path="url(#p40bcd8e857)" d="M 293.582905 262.185449 
C 294.421551 262.185449 295.225961 261.852252 295.818973 261.259239 
C 296.411985 260.666227 296.745183 259.861817 296.745183 259.023171 
C 296.745183 258.184526 296.411985 257.380116 295.818973 256.787103 
C 295.225961 256.194091 294.421551 255.860894 293.582905 255.860894 
C 292.744259 255.860894 291.939849 256.194091 291.346837 256.787103 
C 290.753825 257.380116 290.420628 258.184526 290.420628 259.023171 
C 290.420628 259.861817 290.753825 260.666227 291.346837 261.259239 
C 291.939849 261.852252 292.744259 262.185449 293.582905 262.185449 
z
" style="fill:#00ffff;fill-opacity:0.5;stroke:#00ffff;stroke-opacity:0.5;"/>
    <path clip-path="url(#p40bcd8e857)" d="M 187.094412 226.474593 
C 187.565699 226.474593 188.017748 226.287348 188.350998 225.954097 
C 188.684249 225.620846 188.871494 225.168798 188.871494 224.69751 
C 188.871494 224.226223 188.684249 223.774174 188.350998 223.440923 
C 188.017748 223.107673 187.565699 222.920428 187.094412 222.920428 
C 186.623124 222.920428 186.171075 223.107673 185.837825 223.440923 
C 185.504574 223.774174 185.317329 224.226223 185.317329 224.69751 
C 185.317329 225.168798 185.504574 225.620846 185.837825 225.954097 
C 186.171075 226.287348 186.623124 226.474593 187.094412 226.474593 
z
" style="fill:#00ffff;fill-opacity:0.5;stroke:#00ffff;stroke-opacity:0.5;"/>
    <path clip-path="url(#p40bcd8e857)" d="M 386.730004 183.271631 
C 387.56865 183.271631 388.37306 182.938433 388.966072 182.345421 
C 389.559084 181.752409 389.892282 180.947999 389.892282 180.109353 
C 389.892282 179.270707 389.559084 178.466297 388.966072 177.873285 
C 388.37306 177.280273 387.56865 176.947076 386.730004 176.947076 
C 385.891358 176.947076 385.086948 177.280273 384.493936 177.873285 
C 383.900924 178.466297 383.567726 179.270707 383.567726 180.109353 
C 383.567726 180.947999 383.900924 181.752409 384.493936 182.345421 
C 385.086948 182.938433 385.891358 183.271631 386.730004 183.271631 
z
" style="fill:#00ffff;fill-opacity:0.5;stroke:#00ffff;stroke-opacity:0.5;"/>
    <path clip-path="url(#p40bcd8e857)" d="M 139.888438 161.089086 
C 139.925731 161.089086 139.961501 161.074269 139.987871 161.0479 
C 140.014241 161.02153 140.029057 160.985759 140.029057 160.948467 
C 140.029057 160.911174 140.014241 160.875403 139.987871 160.849033 
C 139.961501 160.822664 139.925731 160.807847 139.888438 160.807847 
C 139.851145 160.807847 139.815375 160.822664 139.789005 160.849033 
C 139.762635 160.875403 139.747818 160.911174 139.747818 160.948467 
C 139.747818 160.985759 139.762635 161.02153 139.789005 161.0479 
C 139.815375 161.074269 139.851145 161.089086 139.888438 161.089086 
z
" style="fill:#00ffff;fill-opacity:0.5;stroke:#00ffff;stroke-opacity:0.5;"/>
    <path clip-path="url(#p40bcd8e857)" d="M 239.319438 255.337968 
C 239.319677 255.337968 239.319907 255.337873 239.320076 255.337704 
C 239.320245 255.337534 239.32034 255.337305 239.32034 255.337065 
C 239.32034 255.336826 239.320245 255.336597 239.320076 255.336427 
C 239.319907 255.336258 239.319677 255.336163 239.319438 255.336163 
C 239.319198 255.336163 239.318969 255.336258 239.318799 255.336427 
C 239.31863 255.336597 239.318535 255.336826 239.318535 255.337065 
C 239.318535 255.337305 239.31863 255.337534 239.318799 255.337704 
C 239.318969 255.337873 239.319198 255.337968 239.319438 255.337968 
z
" style="fill:#00ffff;fill-opacity:0.5;stroke:#00ffff;stroke-opacity:0.5;"/>
    <path clip-path="url(#p40bcd8e857)" d="M 223.879588 247.852777 
C 223.90874 247.852777 223.936702 247.841194 223.957316 247.820581 
C 223.97793 247.799967 223.989512 247.772005 223.989512 247.742853 
C 223.989512 247.7137 223.97793 247.685738 223.957316 247.665124 
C 223.936702 247.644511 223.90874 247.632928 223.879588 247.632928 
C 223.850435 247.632928 223.822473 247.644511 223.80186 247.665124 
C 223.781246 247.685738 223.769664 247.7137 223.769664 247.742853 
C 223.769664 247.772005 223.781246 247.799967 223.80186 247.820581 
C 223.822473 247.841194 223.850435 247.852777 223.879588 247.852777 
z
" style="fill:#00ffff;fill-opacity:0.5;stroke:#00ffff;stroke-opacity:0.5;"/>
    <path clip-path="url(#p40bcd8e857)" d="M 337.881914 238.463359 
C 338.72056 238.463359 339.52497 238.130161 340.117982 237.537149 
C 340.710994 236.944137 341.044191 236.139727 341.044191 235.301081 
C 341.044191 234.462435 340.710994 233.658025 340.117982 233.065013 
C 339.52497 232.472001 338.72056 232.138803 337.881914 232.138803 
C 337.043268 232.138803 336.238858 232.472001 335.645846 233.065013 
C 335.052834 233.658025 334.719636 234.462435 334.719636 235.301081 
C 334.719636 236.139727 335.052834 236.944137 335.645846 237.537149 
C 336.238858 238.130161 337.043268 238.463359 337.881914 238.463359 
z
" style="fill:#00ffff;fill-opacity:0.5;stroke:#00ffff;stroke-opacity:0.5;"/>
    <path clip-path="url(#p40bcd8e857)" d="M 333.67829 237.738621 
C 333.67859 237.738621 333.678878 237.738501 333.67909 237.738289 
C 333.679302 237.738077 333.679422 237.737789 333.679422 237.737488 
C 333.679422 237.737188 333.679302 237.7369 333.67909 237.736688 
C 333.678878 237.736476 333.67859 237.736356 333.67829 237.736356 
C 333.677989 237.736356 333.677701 237.736476 333.677489 237.736688 
C 333.677277 237.7369 333.677158 237.737188 333.677158 237.737488 
C 333.677158 237.737789 333.677277 237.738077 333.677489 237.738289 
C 333.677701 237.738501 333.677989 237.738621 333.67829 237.738621 
z
" style="fill:#00ffff;fill-opacity:0.5;stroke:#00ffff;stroke-opacity:0.5;"/>
   </g>
   <g id="PathCollection_3">
    <defs>
     <path d="M -2.236068 2.236068 
L 2.236068 -2.236068 
M -2.236068 -2.236068 
L 2.236068 2.236068 
" id="mf67cc7afa5" style="stroke:#ff0000;stroke-width:1.5;"/>
    </defs>
    <g clip-path="url(#p40bcd8e857)">
     <use style="fill:#ff0000;stroke:#ff0000;stroke-width:1.5;" x="390.828335" xlink:href="#mf67cc7afa5" y="172.932748"/>
     <use style="fill:#ff0000;stroke:#ff0000;stroke-width:1.5;" x="349.978335" xlink:href="#mf67cc7afa5" y="219.019436"/>
     <use style="fill:#ff0000;stroke:#ff0000;stroke-width:1.5;" x="200.136341" xlink:href="#mf67cc7afa5" y="235.648534"/>
     <use style="fill:#ff0000;stroke:#ff0000;stroke-width:1.5;" x="302.012627" xlink:href="#mf67cc7afa5" y="251.445445"/>
     <use style="fill:#ff0000;stroke:#ff0000;stroke-width:1.5;" x="343.751619" xlink:href="#mf67cc7afa5" y="227.703903"/>
     <use style="fill:#ff0000;stroke:#ff0000;stroke-width:1.5;" x="254.839724" xlink:href="#mf67cc7afa5" y="258.240081"/>
     <use style="fill:#ff0000;stroke:#ff0000;stroke-width:1.5;" x="320.166922" xlink:href="#mf67cc7afa5" y="249.263305"/>
     <use style="fill:#ff0000;stroke:#ff0000;stroke-width:1.5;" x="309.763121" xlink:href="#mf67cc7afa5" y="250.89128"/>
     <use style="fill:#ff0000;stroke:#ff0000;stroke-width:1.5;" x="302.852768" xlink:href="#mf67cc7afa5" y="249.706294"/>
     <use style="fill:#ff0000;stroke:#ff0000;stroke-width:1.5;" x="290.9955" xlink:href="#mf67cc7afa5" y="261.480795"/>
    </g>
   </g>
   <g id="PathCollection_4">
    <defs>
     <path d="M 0 2.236068 
C 0.593012 2.236068 1.161816 2.000462 1.581139 1.581139 
C 2.000462 1.161816 2.236068 0.593012 2.236068 0 
C 2.236068 -0.593012 2.000462 -1.161816 1.581139 -1.581139 
C 1.161816 -2.000462 0.593012 -2.236068 0 -2.236068 
C -0.593012 -2.236068 -1.161816 -2.000462 -1.581139 -1.581139 
C -2.000462 -1.161816 -2.236068 -0.593012 -2.236068 0 
C -2.236068 0.593012 -2.000462 1.161816 -1.581139 1.581139 
C -1.161816 2.000462 -0.593012 2.236068 0 2.236068 
z
" id="m8ad43ea1c8" style="stroke:#bfbf00;"/>
    </defs>
    <g clip-path="url(#p40bcd8e857)">
     <use style="fill:#bfbf00;stroke:#bfbf00;" x="255.349756" xlink:href="#m8ad43ea1c8" y="258.055875"/>
     <use style="fill:#bfbf00;stroke:#bfbf00;" x="352.529351" xlink:href="#m8ad43ea1c8" y="216.110691"/>
     <use style="fill:#bfbf00;stroke:#bfbf00;" x="299.618578" xlink:href="#m8ad43ea1c8" y="252.845969"/>
     <use style="fill:#bfbf00;stroke:#bfbf00;" x="332.51528" xlink:href="#m8ad43ea1c8" y="232.903703"/>
     <use style="fill:#bfbf00;stroke:#bfbf00;" x="391.724148" xlink:href="#m8ad43ea1c8" y="176.229515"/>
    </g>
   </g>
   <g id="matplotlib.axis_1">
    <g id="xtick_1">
     <g id="line2d_1">
      <defs>
       <path d="M 0 0 
L 0 3.5 
" id="m0269003994" style="stroke:#000000;stroke-width:0.8;"/>
      </defs>
      <g>
       <use style="stroke:#000000;stroke-width:0.8;" x="70.581865" xlink:href="#m0269003994" y="277.062392"/>
      </g>
     </g>
     <g id="text_1">
      <!-- −15 -->
      <g transform="translate(60.029521 291.660829)scale(0.1 -0.1)">
       <defs>
        <path d="M 678 2272 
L 4684 2272 
L 4684 1741 
L 678 1741 
L 678 2272 
z
" id="DejaVuSans-2212" transform="scale(0.015625)"/>
        <path d="M 794 531 
L 1825 531 
L 1825 4091 
L 703 3866 
L 703 4441 
L 1819 4666 
L 2450 4666 
L 2450 531 
L 3481 531 
L 3481 0 
L 794 0 
L 794 531 
z
" id="DejaVuSans-31" transform="scale(0.015625)"/>
        <path d="M 691 4666 
L 3169 4666 
L 3169 4134 
L 1269 4134 
L 1269 2991 
Q 1406 3038 1543 3061 
Q 1681 3084 1819 3084 
Q 2600 3084 3056 2656 
Q 3513 2228 3513 1497 
Q 3513 744 3044 326 
Q 2575 -91 1722 -91 
Q 1428 -91 1123 -41 
Q 819 9 494 109 
L 494 744 
Q 775 591 1075 516 
Q 1375 441 1709 441 
Q 2250 441 2565 725 
Q 2881 1009 2881 1497 
Q 2881 1984 2565 2268 
Q 2250 2553 1709 2553 
Q 1456 2553 1204 2497 
Q 953 2441 691 2322 
L 691 4666 
z
" id="DejaVuSans-35" transform="scale(0.015625)"/>
       </defs>
       <use xlink:href="#DejaVuSans-2212"/>
       <use x="83.789062" xlink:href="#DejaVuSans-31"/>
       <use x="147.412109" xlink:href="#DejaVuSans-35"/>
      </g>
     </g>
    </g>
    <g id="xtick_2">
     <g id="line2d_2">
      <g>
       <use style="stroke:#000000;stroke-width:0.8;" x="136.863711" xlink:href="#m0269003994" y="277.062392"/>
      </g>
     </g>
     <g id="text_2">
      <!-- −10 -->
      <g transform="translate(126.311367 291.660829)scale(0.1 -0.1)">
       <defs>
        <path d="M 2034 4250 
Q 1547 4250 1301 3770 
Q 1056 3291 1056 2328 
Q 1056 1369 1301 889 
Q 1547 409 2034 409 
Q 2525 409 2770 889 
Q 3016 1369 3016 2328 
Q 3016 3291 2770 3770 
Q 2525 4250 2034 4250 
z
M 2034 4750 
Q 2819 4750 3233 4129 
Q 3647 3509 3647 2328 
Q 3647 1150 3233 529 
Q 2819 -91 2034 -91 
Q 1250 -91 836 529 
Q 422 1150 422 2328 
Q 422 3509 836 4129 
Q 1250 4750 2034 4750 
z
" id="DejaVuSans-30" transform="scale(0.015625)"/>
       </defs>
       <use xlink:href="#DejaVuSans-2212"/>
       <use x="83.789062" xlink:href="#DejaVuSans-31"/>
       <use x="147.412109" xlink:href="#DejaVuSans-30"/>
      </g>
     </g>
    </g>
    <g id="xtick_3">
     <g id="line2d_3">
      <g>
       <use style="stroke:#000000;stroke-width:0.8;" x="203.145556" xlink:href="#m0269003994" y="277.062392"/>
      </g>
     </g>
     <g id="text_3">
      <!-- −5 -->
      <g transform="translate(195.774462 291.660829)scale(0.1 -0.1)">
       <use xlink:href="#DejaVuSans-2212"/>
       <use x="83.789062" xlink:href="#DejaVuSans-35"/>
      </g>
     </g>
    </g>
    <g id="xtick_4">
     <g id="line2d_4">
      <g>
       <use style="stroke:#000000;stroke-width:0.8;" x="269.427401" xlink:href="#m0269003994" y="277.062392"/>
      </g>
     </g>
     <g id="text_4">
      <!-- 0 -->
      <g transform="translate(266.246151 291.660829)scale(0.1 -0.1)">
       <use xlink:href="#DejaVuSans-30"/>
      </g>
     </g>
    </g>
    <g id="xtick_5">
     <g id="line2d_5">
      <g>
       <use style="stroke:#000000;stroke-width:0.8;" x="335.709247" xlink:href="#m0269003994" y="277.062392"/>
      </g>
     </g>
     <g id="text_5">
      <!-- 5 -->
      <g transform="translate(332.527997 291.660829)scale(0.1 -0.1)">
       <use xlink:href="#DejaVuSans-35"/>
      </g>
     </g>
    </g>
    <g id="xtick_6">
     <g id="line2d_6">
      <g>
       <use style="stroke:#000000;stroke-width:0.8;" x="401.991092" xlink:href="#m0269003994" y="277.062392"/>
      </g>
     </g>
     <g id="text_6">
      <!-- 10 -->
      <g transform="translate(395.628592 291.660829)scale(0.1 -0.1)">
       <use xlink:href="#DejaVuSans-31"/>
       <use x="63.623047" xlink:href="#DejaVuSans-30"/>
      </g>
     </g>
    </g>
    <g id="text_7">
     <!-- x -->
     <g transform="translate(225.25375 308.378329)scale(0.14 -0.14)">
      <defs>
       <path d="M 3513 3500 
L 2247 1797 
L 3578 0 
L 2900 0 
L 1881 1375 
L 863 0 
L 184 0 
L 1544 1831 
L 300 3500 
L 978 3500 
L 1906 2253 
L 2834 3500 
L 3513 3500 
z
" id="DejaVuSans-78" transform="scale(0.015625)"/>
      </defs>
      <use xlink:href="#DejaVuSans-78"/>
     </g>
    </g>
   </g>
   <g id="matplotlib.axis_2">
    <g id="ytick_1">
     <g id="line2d_7">
      <defs>
       <path d="M 0 0 
L -3.5 0 
" id="m9c589578b3" style="stroke:#000000;stroke-width:0.8;"/>
      </defs>
      <g>
       <use style="stroke:#000000;stroke-width:0.8;" x="50.836875" xlink:href="#m9c589578b3" y="269.129411"/>
      </g>
     </g>
     <g id="text_8">
      <!-- 0 -->
      <g transform="translate(37.474375 272.928629)scale(0.1 -0.1)">
       <use xlink:href="#DejaVuSans-30"/>
      </g>
     </g>
    </g>
    <g id="ytick_2">
     <g id="line2d_8">
      <g>
       <use style="stroke:#000000;stroke-width:0.8;" x="50.836875" xlink:href="#m9c589578b3" y="217.503372"/>
      </g>
     </g>
     <g id="text_9">
      <!-- 50 -->
      <g transform="translate(31.111875 221.302591)scale(0.1 -0.1)">
       <use xlink:href="#DejaVuSans-35"/>
       <use x="63.623047" xlink:href="#DejaVuSans-30"/>
      </g>
     </g>
    </g>
    <g id="ytick_3">
     <g id="line2d_9">
      <g>
       <use style="stroke:#000000;stroke-width:0.8;" x="50.836875" xlink:href="#m9c589578b3" y="165.877334"/>
      </g>
     </g>
     <g id="text_10">
      <!-- 100 -->
      <g transform="translate(24.749375 169.676553)scale(0.1 -0.1)">
       <use xlink:href="#DejaVuSans-31"/>
       <use x="63.623047" xlink:href="#DejaVuSans-30"/>
       <use x="127.246094" xlink:href="#DejaVuSans-30"/>
      </g>
     </g>
    </g>
    <g id="ytick_4">
     <g id="line2d_10">
      <g>
       <use style="stroke:#000000;stroke-width:0.8;" x="50.836875" xlink:href="#m9c589578b3" y="114.251295"/>
      </g>
     </g>
     <g id="text_11">
      <!-- 150 -->
      <g transform="translate(24.749375 118.050514)scale(0.1 -0.1)">
       <use xlink:href="#DejaVuSans-31"/>
       <use x="63.623047" xlink:href="#DejaVuSans-35"/>
       <use x="127.246094" xlink:href="#DejaVuSans-30"/>
      </g>
     </g>
    </g>
    <g id="ytick_5">
     <g id="line2d_11">
      <g>
       <use style="stroke:#000000;stroke-width:0.8;" x="50.836875" xlink:href="#m9c589578b3" y="62.625257"/>
      </g>
     </g>
     <g id="text_12">
      <!-- 200 -->
      <g transform="translate(24.749375 66.424476)scale(0.1 -0.1)">
       <defs>
        <path d="M 1228 531 
L 3431 531 
L 3431 0 
L 469 0 
L 469 531 
Q 828 903 1448 1529 
Q 2069 2156 2228 2338 
Q 2531 2678 2651 2914 
Q 2772 3150 2772 3378 
Q 2772 3750 2511 3984 
Q 2250 4219 1831 4219 
Q 1534 4219 1204 4116 
Q 875 4013 500 3803 
L 500 4441 
Q 881 4594 1212 4672 
Q 1544 4750 1819 4750 
Q 2544 4750 2975 4387 
Q 3406 4025 3406 3419 
Q 3406 3131 3298 2873 
Q 3191 2616 2906 2266 
Q 2828 2175 2409 1742 
Q 1991 1309 1228 531 
z
" id="DejaVuSans-32" transform="scale(0.015625)"/>
       </defs>
       <use xlink:href="#DejaVuSans-32"/>
       <use x="63.623047" xlink:href="#DejaVuSans-30"/>
       <use x="127.246094" xlink:href="#DejaVuSans-30"/>
      </g>
     </g>
    </g>
    <g id="ytick_6">
     <g id="line2d_12">
      <g>
       <use style="stroke:#000000;stroke-width:0.8;" x="50.836875" xlink:href="#m9c589578b3" y="10.999219"/>
      </g>
     </g>
     <g id="text_13">
      <!-- 250 -->
      <g transform="translate(24.749375 14.798438)scale(0.1 -0.1)">
       <use xlink:href="#DejaVuSans-32"/>
       <use x="63.623047" xlink:href="#DejaVuSans-35"/>
       <use x="127.246094" xlink:href="#DejaVuSans-30"/>
      </g>
     </g>
    </g>
    <g id="text_14">
     <!-- y -->
     <g transform="translate(17.837813 148.149517)rotate(-90)scale(0.14 -0.14)">
      <defs>
       <path d="M 2059 -325 
Q 1816 -950 1584 -1140 
Q 1353 -1331 966 -1331 
L 506 -1331 
L 506 -850 
L 844 -850 
Q 1081 -850 1212 -737 
Q 1344 -625 1503 -206 
L 1606 56 
L 191 3500 
L 800 3500 
L 1894 763 
L 2988 3500 
L 3597 3500 
L 2059 -325 
z
" id="DejaVuSans-79" transform="scale(0.015625)"/>
      </defs>
      <use xlink:href="#DejaVuSans-79"/>
     </g>
    </g>
   </g>
   <g id="patch_3">
    <path d="M 50.836875 277.062392 
L 50.836875 10.950392 
" style="fill:none;stroke:#000000;stroke-linecap:square;stroke-linejoin:miter;stroke-width:0.8;"/>
   </g>
   <g id="patch_4">
    <path d="M 407.956875 277.062392 
L 407.956875 10.950392 
" style="fill:none;stroke:#000000;stroke-linecap:square;stroke-linejoin:miter;stroke-width:0.8;"/>
   </g>
   <g id="patch_5">
    <path d="M 50.836875 277.062392 
L 407.956875 277.062392 
" style="fill:none;stroke:#000000;stroke-linecap:square;stroke-linejoin:miter;stroke-width:0.8;"/>
   </g>
   <g id="patch_6">
    <path d="M 50.836875 10.950392 
L 407.956875 10.950392 
" style="fill:none;stroke:#000000;stroke-linecap:square;stroke-linejoin:miter;stroke-width:0.8;"/>
   </g>
   <g id="legend_1">
    <g id="patch_7">
     <path d="M 269.56875 73.391642 
L 399.556875 73.391642 
Q 401.956875 73.391642 401.956875 70.991642 
L 401.956875 19.350392 
Q 401.956875 16.950392 399.556875 16.950392 
L 269.56875 16.950392 
Q 267.16875 16.950392 267.16875 19.350392 
L 267.16875 70.991642 
Q 267.16875 73.391642 269.56875 73.391642 
z
" style="fill:#ffffff;opacity:0.8;stroke:#cccccc;stroke-linejoin:miter;"/>
    </g>
    <g id="PathCollection_5">
     <g>
      <use style="stroke:#000000;stroke-width:1.5;" x="283.96875" xlink:href="#ma64da325b8" y="27.718517"/>
     </g>
    </g>
    <g id="text_15">
     <!-- Source Domain -->
     <g transform="translate(305.56875 30.868517)scale(0.12 -0.12)">
      <defs>
       <path d="M 3425 4513 
L 3425 3897 
Q 3066 4069 2747 4153 
Q 2428 4238 2131 4238 
Q 1616 4238 1336 4038 
Q 1056 3838 1056 3469 
Q 1056 3159 1242 3001 
Q 1428 2844 1947 2747 
L 2328 2669 
Q 3034 2534 3370 2195 
Q 3706 1856 3706 1288 
Q 3706 609 3251 259 
Q 2797 -91 1919 -91 
Q 1588 -91 1214 -16 
Q 841 59 441 206 
L 441 856 
Q 825 641 1194 531 
Q 1563 422 1919 422 
Q 2459 422 2753 634 
Q 3047 847 3047 1241 
Q 3047 1584 2836 1778 
Q 2625 1972 2144 2069 
L 1759 2144 
Q 1053 2284 737 2584 
Q 422 2884 422 3419 
Q 422 4038 858 4394 
Q 1294 4750 2059 4750 
Q 2388 4750 2728 4690 
Q 3069 4631 3425 4513 
z
" id="DejaVuSans-53" transform="scale(0.015625)"/>
       <path d="M 1959 3097 
Q 1497 3097 1228 2736 
Q 959 2375 959 1747 
Q 959 1119 1226 758 
Q 1494 397 1959 397 
Q 2419 397 2687 759 
Q 2956 1122 2956 1747 
Q 2956 2369 2687 2733 
Q 2419 3097 1959 3097 
z
M 1959 3584 
Q 2709 3584 3137 3096 
Q 3566 2609 3566 1747 
Q 3566 888 3137 398 
Q 2709 -91 1959 -91 
Q 1206 -91 779 398 
Q 353 888 353 1747 
Q 353 2609 779 3096 
Q 1206 3584 1959 3584 
z
" id="DejaVuSans-6f" transform="scale(0.015625)"/>
       <path d="M 544 1381 
L 544 3500 
L 1119 3500 
L 1119 1403 
Q 1119 906 1312 657 
Q 1506 409 1894 409 
Q 2359 409 2629 706 
Q 2900 1003 2900 1516 
L 2900 3500 
L 3475 3500 
L 3475 0 
L 2900 0 
L 2900 538 
Q 2691 219 2414 64 
Q 2138 -91 1772 -91 
Q 1169 -91 856 284 
Q 544 659 544 1381 
z
M 1991 3584 
L 1991 3584 
z
" id="DejaVuSans-75" transform="scale(0.015625)"/>
       <path d="M 2631 2963 
Q 2534 3019 2420 3045 
Q 2306 3072 2169 3072 
Q 1681 3072 1420 2755 
Q 1159 2438 1159 1844 
L 1159 0 
L 581 0 
L 581 3500 
L 1159 3500 
L 1159 2956 
Q 1341 3275 1631 3429 
Q 1922 3584 2338 3584 
Q 2397 3584 2469 3576 
Q 2541 3569 2628 3553 
L 2631 2963 
z
" id="DejaVuSans-72" transform="scale(0.015625)"/>
       <path d="M 3122 3366 
L 3122 2828 
Q 2878 2963 2633 3030 
Q 2388 3097 2138 3097 
Q 1578 3097 1268 2742 
Q 959 2388 959 1747 
Q 959 1106 1268 751 
Q 1578 397 2138 397 
Q 2388 397 2633 464 
Q 2878 531 3122 666 
L 3122 134 
Q 2881 22 2623 -34 
Q 2366 -91 2075 -91 
Q 1284 -91 818 406 
Q 353 903 353 1747 
Q 353 2603 823 3093 
Q 1294 3584 2113 3584 
Q 2378 3584 2631 3529 
Q 2884 3475 3122 3366 
z
" id="DejaVuSans-63" transform="scale(0.015625)"/>
       <path d="M 3597 1894 
L 3597 1613 
L 953 1613 
Q 991 1019 1311 708 
Q 1631 397 2203 397 
Q 2534 397 2845 478 
Q 3156 559 3463 722 
L 3463 178 
Q 3153 47 2828 -22 
Q 2503 -91 2169 -91 
Q 1331 -91 842 396 
Q 353 884 353 1716 
Q 353 2575 817 3079 
Q 1281 3584 2069 3584 
Q 2775 3584 3186 3129 
Q 3597 2675 3597 1894 
z
M 3022 2063 
Q 3016 2534 2758 2815 
Q 2500 3097 2075 3097 
Q 1594 3097 1305 2825 
Q 1016 2553 972 2059 
L 3022 2063 
z
" id="DejaVuSans-65" transform="scale(0.015625)"/>
       <path id="DejaVuSans-20" transform="scale(0.015625)"/>
       <path d="M 1259 4147 
L 1259 519 
L 2022 519 
Q 2988 519 3436 956 
Q 3884 1394 3884 2338 
Q 3884 3275 3436 3711 
Q 2988 4147 2022 4147 
L 1259 4147 
z
M 628 4666 
L 1925 4666 
Q 3281 4666 3915 4102 
Q 4550 3538 4550 2338 
Q 4550 1131 3912 565 
Q 3275 0 1925 0 
L 628 0 
L 628 4666 
z
" id="DejaVuSans-44" transform="scale(0.015625)"/>
       <path d="M 3328 2828 
Q 3544 3216 3844 3400 
Q 4144 3584 4550 3584 
Q 5097 3584 5394 3201 
Q 5691 2819 5691 2113 
L 5691 0 
L 5113 0 
L 5113 2094 
Q 5113 2597 4934 2840 
Q 4756 3084 4391 3084 
Q 3944 3084 3684 2787 
Q 3425 2491 3425 1978 
L 3425 0 
L 2847 0 
L 2847 2094 
Q 2847 2600 2669 2842 
Q 2491 3084 2119 3084 
Q 1678 3084 1418 2786 
Q 1159 2488 1159 1978 
L 1159 0 
L 581 0 
L 581 3500 
L 1159 3500 
L 1159 2956 
Q 1356 3278 1631 3431 
Q 1906 3584 2284 3584 
Q 2666 3584 2933 3390 
Q 3200 3197 3328 2828 
z
" id="DejaVuSans-6d" transform="scale(0.015625)"/>
       <path d="M 2194 1759 
Q 1497 1759 1228 1600 
Q 959 1441 959 1056 
Q 959 750 1161 570 
Q 1363 391 1709 391 
Q 2188 391 2477 730 
Q 2766 1069 2766 1631 
L 2766 1759 
L 2194 1759 
z
M 3341 1997 
L 3341 0 
L 2766 0 
L 2766 531 
Q 2569 213 2275 61 
Q 1981 -91 1556 -91 
Q 1019 -91 701 211 
Q 384 513 384 1019 
Q 384 1609 779 1909 
Q 1175 2209 1959 2209 
L 2766 2209 
L 2766 2266 
Q 2766 2663 2505 2880 
Q 2244 3097 1772 3097 
Q 1472 3097 1187 3025 
Q 903 2953 641 2809 
L 641 3341 
Q 956 3463 1253 3523 
Q 1550 3584 1831 3584 
Q 2591 3584 2966 3190 
Q 3341 2797 3341 1997 
z
" id="DejaVuSans-61" transform="scale(0.015625)"/>
       <path d="M 603 3500 
L 1178 3500 
L 1178 0 
L 603 0 
L 603 3500 
z
M 603 4863 
L 1178 4863 
L 1178 4134 
L 603 4134 
L 603 4863 
z
" id="DejaVuSans-69" transform="scale(0.015625)"/>
       <path d="M 3513 2113 
L 3513 0 
L 2938 0 
L 2938 2094 
Q 2938 2591 2744 2837 
Q 2550 3084 2163 3084 
Q 1697 3084 1428 2787 
Q 1159 2491 1159 1978 
L 1159 0 
L 581 0 
L 581 3500 
L 1159 3500 
L 1159 2956 
Q 1366 3272 1645 3428 
Q 1925 3584 2291 3584 
Q 2894 3584 3203 3211 
Q 3513 2838 3513 2113 
z
" id="DejaVuSans-6e" transform="scale(0.015625)"/>
      </defs>
      <use xlink:href="#DejaVuSans-53"/>
      <use x="63.476562" xlink:href="#DejaVuSans-6f"/>
      <use x="124.658203" xlink:href="#DejaVuSans-75"/>
      <use x="188.037109" xlink:href="#DejaVuSans-72"/>
      <use x="226.900391" xlink:href="#DejaVuSans-63"/>
      <use x="281.880859" xlink:href="#DejaVuSans-65"/>
      <use x="343.404297" xlink:href="#DejaVuSans-20"/>
      <use x="375.191406" xlink:href="#DejaVuSans-44"/>
      <use x="452.193359" xlink:href="#DejaVuSans-6f"/>
      <use x="513.375" xlink:href="#DejaVuSans-6d"/>
      <use x="610.787109" xlink:href="#DejaVuSans-61"/>
      <use x="672.066406" xlink:href="#DejaVuSans-69"/>
      <use x="699.849609" xlink:href="#DejaVuSans-6e"/>
     </g>
    </g>
    <g id="PathCollection_6">
     <g>
      <use style="fill:#ff0000;stroke:#ff0000;stroke-width:1.5;" x="283.96875" xlink:href="#mf67cc7afa5" y="45.332267"/>
     </g>
    </g>
    <g id="text_16">
     <!-- Target Domain -->
     <g transform="translate(305.56875 48.482267)scale(0.12 -0.12)">
      <defs>
       <path d="M -19 4666 
L 3928 4666 
L 3928 4134 
L 2272 4134 
L 2272 0 
L 1638 0 
L 1638 4134 
L -19 4134 
L -19 4666 
z
" id="DejaVuSans-54" transform="scale(0.015625)"/>
       <path d="M 2906 1791 
Q 2906 2416 2648 2759 
Q 2391 3103 1925 3103 
Q 1463 3103 1205 2759 
Q 947 2416 947 1791 
Q 947 1169 1205 825 
Q 1463 481 1925 481 
Q 2391 481 2648 825 
Q 2906 1169 2906 1791 
z
M 3481 434 
Q 3481 -459 3084 -895 
Q 2688 -1331 1869 -1331 
Q 1566 -1331 1297 -1286 
Q 1028 -1241 775 -1147 
L 775 -588 
Q 1028 -725 1275 -790 
Q 1522 -856 1778 -856 
Q 2344 -856 2625 -561 
Q 2906 -266 2906 331 
L 2906 616 
Q 2728 306 2450 153 
Q 2172 0 1784 0 
Q 1141 0 747 490 
Q 353 981 353 1791 
Q 353 2603 747 3093 
Q 1141 3584 1784 3584 
Q 2172 3584 2450 3431 
Q 2728 3278 2906 2969 
L 2906 3500 
L 3481 3500 
L 3481 434 
z
" id="DejaVuSans-67" transform="scale(0.015625)"/>
       <path d="M 1172 4494 
L 1172 3500 
L 2356 3500 
L 2356 3053 
L 1172 3053 
L 1172 1153 
Q 1172 725 1289 603 
Q 1406 481 1766 481 
L 2356 481 
L 2356 0 
L 1766 0 
Q 1100 0 847 248 
Q 594 497 594 1153 
L 594 3053 
L 172 3053 
L 172 3500 
L 594 3500 
L 594 4494 
L 1172 4494 
z
" id="DejaVuSans-74" transform="scale(0.015625)"/>
      </defs>
      <use xlink:href="#DejaVuSans-54"/>
      <use x="44.583984" xlink:href="#DejaVuSans-61"/>
      <use x="105.863281" xlink:href="#DejaVuSans-72"/>
      <use x="145.226562" xlink:href="#DejaVuSans-67"/>
      <use x="208.703125" xlink:href="#DejaVuSans-65"/>
      <use x="270.226562" xlink:href="#DejaVuSans-74"/>
      <use x="309.435547" xlink:href="#DejaVuSans-20"/>
      <use x="341.222656" xlink:href="#DejaVuSans-44"/>
      <use x="418.224609" xlink:href="#DejaVuSans-6f"/>
      <use x="479.40625" xlink:href="#DejaVuSans-6d"/>
      <use x="576.818359" xlink:href="#DejaVuSans-61"/>
      <use x="638.097656" xlink:href="#DejaVuSans-69"/>
      <use x="665.880859" xlink:href="#DejaVuSans-6e"/>
     </g>
    </g>
    <g id="PathCollection_7">
     <g>
      <use style="fill:#bfbf00;stroke:#bfbf00;" x="283.96875" xlink:href="#m8ad43ea1c8" y="62.946017"/>
     </g>
    </g>
    <g id="text_17">
     <!-- Test Data -->
     <g transform="translate(305.56875 66.096017)scale(0.12 -0.12)">
      <defs>
       <path d="M 2834 3397 
L 2834 2853 
Q 2591 2978 2328 3040 
Q 2066 3103 1784 3103 
Q 1356 3103 1142 2972 
Q 928 2841 928 2578 
Q 928 2378 1081 2264 
Q 1234 2150 1697 2047 
L 1894 2003 
Q 2506 1872 2764 1633 
Q 3022 1394 3022 966 
Q 3022 478 2636 193 
Q 2250 -91 1575 -91 
Q 1294 -91 989 -36 
Q 684 19 347 128 
L 347 722 
Q 666 556 975 473 
Q 1284 391 1588 391 
Q 1994 391 2212 530 
Q 2431 669 2431 922 
Q 2431 1156 2273 1281 
Q 2116 1406 1581 1522 
L 1381 1569 
Q 847 1681 609 1914 
Q 372 2147 372 2553 
Q 372 3047 722 3315 
Q 1072 3584 1716 3584 
Q 2034 3584 2315 3537 
Q 2597 3491 2834 3397 
z
" id="DejaVuSans-73" transform="scale(0.015625)"/>
      </defs>
      <use xlink:href="#DejaVuSans-54"/>
      <use x="44.083984" xlink:href="#DejaVuSans-65"/>
      <use x="105.607422" xlink:href="#DejaVuSans-73"/>
      <use x="157.707031" xlink:href="#DejaVuSans-74"/>
      <use x="196.916016" xlink:href="#DejaVuSans-20"/>
      <use x="228.703125" xlink:href="#DejaVuSans-44"/>
      <use x="305.705078" xlink:href="#DejaVuSans-61"/>
      <use x="366.984375" xlink:href="#DejaVuSans-74"/>
      <use x="406.193359" xlink:href="#DejaVuSans-61"/>
     </g>
    </g>
   </g>
  </g>
 </g>
 <defs>
  <clipPath id="p40bcd8e857">
   <rect height="266.112" width="357.12" x="50.836875" y="10.950392"/>
  </clipPath>
 </defs>
</svg>
