<?xml version="1.0" encoding="utf-8" standalone="no"?>
<!DOCTYPE svg PUBLIC "-//W3C//DTD SVG 1.1//EN"
  "http://www.w3.org/Graphics/SVG/1.1/DTD/svg11.dtd">
<svg height="314.7395pt" version="1.1" viewBox="0 0 410.811562 314.7395" width="410.811562pt" xmlns="http://www.w3.org/2000/svg" xmlns:xlink="http://www.w3.org/1999/xlink">
 <metadata>
  <rdf:RDF xmlns:cc="http://creativecommons.org/ns#" xmlns:dc="http://purl.org/dc/elements/1.1/" xmlns:rdf="http://www.w3.org/1999/02/22-rdf-syntax-ns#">
   <cc:Work>
    <dc:type rdf:resource="http://purl.org/dc/dcmitype/StillImage"/>
    <dc:date>2023-04-20T17:11:01.956277</dc:date>
    <dc:format>image/svg+xml</dc:format>
    <dc:creator>
     <cc:Agent>
      <dc:title>Matplotlib v3.4.3, https://matplotlib.org/</dc:title>
     </cc:Agent>
    </dc:creator>
   </cc:Work>
  </rdf:RDF>
 </metadata>
 <defs>
  <style type="text/css">*{stroke-linecap:butt;stroke-linejoin:round;}</style>
 </defs>
 <g id="figure_1">
  <g id="patch_1">
   <path d="M 0 314.7395 
L 410.811562 314.7395 
L 410.811562 0 
L 0 0 
z
" style="fill:#ffffff;"/>
  </g>
  <g id="axes_1">
   <g id="patch_2">
    <path d="M 46.491563 273.312 
L 403.611563 273.312 
L 403.611563 7.2 
L 46.491563 7.2 
z
" style="fill:#ffffff;"/>
   </g>
   <g id="PathCollection_1">
    <defs>
     <path d="M -2.236068 2.236068 
L 2.236068 -2.236068 
M -2.236068 -2.236068 
L 2.236068 2.236068 
" id="m2194495b2c" style="stroke:#000000;stroke-width:1.5;"/>
    </defs>
    <g clip-path="url(#pce5178adcb)">
     <use style="stroke:#000000;stroke-width:1.5;" x="209.973844" xlink:href="#m2194495b2c" y="139.704382"/>
     <use style="stroke:#000000;stroke-width:1.5;" x="256.320795" xlink:href="#m2194495b2c" y="138.642039"/>
     <use style="stroke:#000000;stroke-width:1.5;" x="225.002539" xlink:href="#m2194495b2c" y="103.557515"/>
     <use style="stroke:#000000;stroke-width:1.5;" x="208.878983" xlink:href="#m2194495b2c" y="183.532723"/>
     <use style="stroke:#000000;stroke-width:1.5;" x="175.108664" xlink:href="#m2194495b2c" y="178.182849"/>
     <use style="stroke:#000000;stroke-width:1.5;" x="237.017372" xlink:href="#m2194495b2c" y="141.20641"/>
     <use style="stroke:#000000;stroke-width:1.5;" x="178.989785" xlink:href="#m2194495b2c" y="147.95519"/>
     <use style="stroke:#000000;stroke-width:1.5;" x="305.511303" xlink:href="#m2194495b2c" y="64.717811"/>
     <use style="stroke:#000000;stroke-width:1.5;" x="325.537472" xlink:href="#m2194495b2c" y="75.786181"/>
     <use style="stroke:#000000;stroke-width:1.5;" x="163.906541" xlink:href="#m2194495b2c" y="179.478846"/>
     <use style="stroke:#000000;stroke-width:1.5;" x="277.641166" xlink:href="#m2194495b2c" y="127.123469"/>
     <use style="stroke:#000000;stroke-width:1.5;" x="204.425169" xlink:href="#m2194495b2c" y="196.288719"/>
     <use style="stroke:#000000;stroke-width:1.5;" x="215.330997" xlink:href="#m2194495b2c" y="158.663063"/>
     <use style="stroke:#000000;stroke-width:1.5;" x="314.933478" xlink:href="#m2194495b2c" y="82.835198"/>
     <use style="stroke:#000000;stroke-width:1.5;" x="76.880452" xlink:href="#m2194495b2c" y="221.70545"/>
     <use style="stroke:#000000;stroke-width:1.5;" x="81.36351" xlink:href="#m2194495b2c" y="219.233076"/>
     <use style="stroke:#000000;stroke-width:1.5;" x="62.72429" xlink:href="#m2194495b2c" y="261.216"/>
     <use style="stroke:#000000;stroke-width:1.5;" x="289.033141" xlink:href="#m2194495b2c" y="108.640719"/>
     <use style="stroke:#000000;stroke-width:1.5;" x="273.861479" xlink:href="#m2194495b2c" y="132.633365"/>
     <use style="stroke:#000000;stroke-width:1.5;" x="299.449431" xlink:href="#m2194495b2c" y="122.46503"/>
     <use style="stroke:#000000;stroke-width:1.5;" x="329.703615" xlink:href="#m2194495b2c" y="107.599563"/>
     <use style="stroke:#000000;stroke-width:1.5;" x="279.711907" xlink:href="#m2194495b2c" y="72.983634"/>
     <use style="stroke:#000000;stroke-width:1.5;" x="185.645368" xlink:href="#m2194495b2c" y="181.475684"/>
     <use style="stroke:#000000;stroke-width:1.5;" x="274.52236" xlink:href="#m2194495b2c" y="120.845908"/>
     <use style="stroke:#000000;stroke-width:1.5;" x="90.039538" xlink:href="#m2194495b2c" y="259.076876"/>
     <use style="stroke:#000000;stroke-width:1.5;" x="235.353461" xlink:href="#m2194495b2c" y="124.386904"/>
     <use style="stroke:#000000;stroke-width:1.5;" x="97.0257" xlink:href="#m2194495b2c" y="261.127197"/>
     <use style="stroke:#000000;stroke-width:1.5;" x="320.2464" xlink:href="#m2194495b2c" y="86.150363"/>
     <use style="stroke:#000000;stroke-width:1.5;" x="202.462214" xlink:href="#m2194495b2c" y="177.4262"/>
     <use style="stroke:#000000;stroke-width:1.5;" x="172.603544" xlink:href="#m2194495b2c" y="173.513696"/>
    </g>
   </g>
   <g id="PathCollection_2">
    <path clip-path="url(#pce5178adcb)" d="M 209.973844 139.876443 
C 210.019476 139.876443 210.063244 139.858314 210.09551 139.826048 
C 210.127777 139.793781 210.145906 139.750013 210.145906 139.704382 
C 210.145906 139.65875 210.127777 139.614982 210.09551 139.582715 
C 210.063244 139.550449 210.019476 139.53232 209.973844 139.53232 
C 209.928213 139.53232 209.884444 139.550449 209.852178 139.582715 
C 209.819912 139.614982 209.801782 139.65875 209.801782 139.704382 
C 209.801782 139.750013 209.819912 139.793781 209.852178 139.826048 
C 209.884444 139.858314 209.928213 139.876443 209.973844 139.876443 
z
" style="fill:#00ffff;fill-opacity:0.5;stroke:#00ffff;stroke-opacity:0.5;"/>
    <path clip-path="url(#pce5178adcb)" d="M 256.320795 140.748128 
C 256.879336 140.748128 257.415076 140.526217 257.810025 140.131269 
C 258.204973 139.73632 258.426884 139.200581 258.426884 138.642039 
C 258.426884 138.083498 258.204973 137.547758 257.810025 137.15281 
C 257.415076 136.757862 256.879336 136.535951 256.320795 136.535951 
C 255.762254 136.535951 255.226514 136.757862 254.831566 137.15281 
C 254.436618 137.547758 254.214707 138.083498 254.214707 138.642039 
C 254.214707 139.200581 254.436618 139.73632 254.831566 140.131269 
C 255.226514 140.526217 255.762254 140.748128 256.320795 140.748128 
z
" style="fill:#00ffff;fill-opacity:0.5;stroke:#00ffff;stroke-opacity:0.5;"/>
    <path clip-path="url(#pce5178adcb)" d="M 225.002539 105.629681 
C 225.552084 105.629681 226.079195 105.411344 226.467782 105.022757 
C 226.856369 104.634171 227.074705 104.10706 227.074705 103.557515 
C 227.074705 103.00797 226.856369 102.480859 226.467782 102.092272 
C 226.079195 101.703685 225.552084 101.485349 225.002539 101.485349 
C 224.452994 101.485349 223.925883 101.703685 223.537297 102.092272 
C 223.14871 102.480859 222.930373 103.00797 222.930373 103.557515 
C 222.930373 104.10706 223.14871 104.634171 223.537297 105.022757 
C 223.925883 105.411344 224.452994 105.629681 225.002539 105.629681 
z
" style="fill:#00ffff;fill-opacity:0.5;stroke:#00ffff;stroke-opacity:0.5;"/>
    <path clip-path="url(#pce5178adcb)" d="M 208.878983 185.230996 
C 209.329371 185.230996 209.761372 185.052055 210.079844 184.733583 
C 210.398316 184.415111 210.577256 183.98311 210.577256 183.532723 
C 210.577256 183.082336 210.398316 182.650335 210.079844 182.331863 
C 209.761372 182.013391 209.329371 181.83445 208.878983 181.83445 
C 208.428596 181.83445 207.996595 182.013391 207.678123 182.331863 
C 207.359651 182.650335 207.180711 183.082336 207.180711 183.532723 
C 207.180711 183.98311 207.359651 184.415111 207.678123 184.733583 
C 207.996595 185.052055 208.428596 185.230996 208.878983 185.230996 
z
" style="fill:#00ffff;fill-opacity:0.5;stroke:#00ffff;stroke-opacity:0.5;"/>
    <path clip-path="url(#pce5178adcb)" d="M 175.108664 178.190727 
C 175.110754 178.190727 175.112758 178.189897 175.114235 178.18842 
C 175.115713 178.186942 175.116543 178.184938 175.116543 178.182849 
C 175.116543 178.180759 175.115713 178.178755 175.114235 178.177278 
C 175.112758 178.1758 175.110754 178.17497 175.108664 178.17497 
C 175.106575 178.17497 175.104571 178.1758 175.103093 178.177278 
C 175.101616 178.178755 175.100786 178.180759 175.100786 178.182849 
C 175.100786 178.184938 175.101616 178.186942 175.103093 178.18842 
C 175.104571 178.189897 175.106575 178.190727 175.108664 178.190727 
z
" style="fill:#00ffff;fill-opacity:0.5;stroke:#00ffff;stroke-opacity:0.5;"/>
    <path clip-path="url(#pce5178adcb)" d="M 237.017372 142.809086 
C 237.442407 142.809086 237.85009 142.640218 238.150635 142.339673 
C 238.45118 142.039128 238.620048 141.631445 238.620048 141.20641 
C 238.620048 140.781376 238.45118 140.373692 238.150635 140.073147 
C 237.85009 139.772602 237.442407 139.603734 237.017372 139.603734 
C 236.592337 139.603734 236.184654 139.772602 235.884109 140.073147 
C 235.583564 140.373692 235.414696 140.781376 235.414696 141.20641 
C 235.414696 141.631445 235.583564 142.039128 235.884109 142.339673 
C 236.184654 142.640218 236.592337 142.809086 237.017372 142.809086 
z
" style="fill:#00ffff;fill-opacity:0.5;stroke:#00ffff;stroke-opacity:0.5;"/>
    <path clip-path="url(#pce5178adcb)" d="M 178.989785 149.686194 
C 179.448853 149.686194 179.88918 149.503804 180.21379 149.179195 
C 180.538399 148.854585 180.720789 148.414258 180.720789 147.95519 
C 180.720789 147.496122 180.538399 147.055795 180.21379 146.731185 
C 179.88918 146.406576 179.448853 146.224186 178.989785 146.224186 
C 178.530717 146.224186 178.09039 146.406576 177.765781 146.731185 
C 177.441171 147.055795 177.258781 147.496122 177.258781 147.95519 
C 177.258781 148.414258 177.441171 148.854585 177.765781 149.179195 
C 178.09039 149.503804 178.530717 149.686194 178.989785 149.686194 
z
" style="fill:#00ffff;fill-opacity:0.5;stroke:#00ffff;stroke-opacity:0.5;"/>
    <path clip-path="url(#pce5178adcb)" d="M 305.511303 67.880089 
C 306.349949 67.880089 307.154359 67.546891 307.747371 66.953879 
C 308.340383 66.360867 308.67358 65.556457 308.67358 64.717811 
C 308.67358 63.879165 308.340383 63.074755 307.747371 62.481743 
C 307.154359 61.888731 306.349949 61.555534 305.511303 61.555534 
C 304.672657 61.555534 303.868247 61.888731 303.275235 62.481743 
C 302.682223 63.074755 302.349025 63.879165 302.349025 64.717811 
C 302.349025 65.556457 302.682223 66.360867 303.275235 66.953879 
C 303.868247 67.546891 304.672657 67.880089 305.511303 67.880089 
z
" style="fill:#00ffff;fill-opacity:0.5;stroke:#00ffff;stroke-opacity:0.5;"/>
    <path clip-path="url(#pce5178adcb)" d="M 325.537472 77.22157 
C 325.918142 77.22157 326.283271 77.070329 326.552445 76.801155 
C 326.821619 76.531981 326.972861 76.166851 326.972861 75.786181 
C 326.972861 75.405512 326.821619 75.040382 326.552445 74.771208 
C 326.283271 74.502034 325.918142 74.350793 325.537472 74.350793 
C 325.156802 74.350793 324.791673 74.502034 324.522499 74.771208 
C 324.253325 75.040382 324.102083 75.405512 324.102083 75.786181 
C 324.102083 76.166851 324.253325 76.531981 324.522499 76.801155 
C 324.791673 77.070329 325.156802 77.22157 325.537472 77.22157 
z
" style="fill:#00ffff;fill-opacity:0.5;stroke:#00ffff;stroke-opacity:0.5;"/>
    <path clip-path="url(#pce5178adcb)" d="M 163.906541 181.53886 
C 164.452863 181.53886 164.976882 181.321804 165.36319 180.935496 
C 165.749498 180.549188 165.966554 180.025168 165.966554 179.478846 
C 165.966554 178.932524 165.749498 178.408505 165.36319 178.022197 
C 164.976882 177.635889 164.452863 177.418833 163.906541 177.418833 
C 163.360219 177.418833 162.836199 177.635889 162.449891 178.022197 
C 162.063583 178.408505 161.846527 178.932524 161.846527 179.478846 
C 161.846527 180.025168 162.063583 180.549188 162.449891 180.935496 
C 162.836199 181.321804 163.360219 181.53886 163.906541 181.53886 
z
" style="fill:#00ffff;fill-opacity:0.5;stroke:#00ffff;stroke-opacity:0.5;"/>
    <path clip-path="url(#pce5178adcb)" d="M 277.641166 129.663559 
C 278.314806 129.663559 278.960946 129.395919 279.437281 128.919583 
C 279.913616 128.443248 280.181256 127.797108 280.181256 127.123469 
C 280.181256 126.449829 279.913616 125.803689 279.437281 125.327354 
C 278.960946 124.851018 278.314806 124.583378 277.641166 124.583378 
C 276.967526 124.583378 276.321386 124.851018 275.845051 125.327354 
C 275.368716 125.803689 275.101076 126.449829 275.101076 127.123469 
C 275.101076 127.797108 275.368716 128.443248 275.845051 128.919583 
C 276.321386 129.395919 276.967526 129.663559 277.641166 129.663559 
z
" style="fill:#00ffff;fill-opacity:0.5;stroke:#00ffff;stroke-opacity:0.5;"/>
    <path clip-path="url(#pce5178adcb)" d="M 204.425169 196.289611 
C 204.425405 196.289611 204.425632 196.289517 204.4258 196.28935 
C 204.425967 196.289183 204.426061 196.288956 204.426061 196.288719 
C 204.426061 196.288482 204.425967 196.288255 204.4258 196.288088 
C 204.425632 196.287921 204.425405 196.287827 204.425169 196.287827 
C 204.424932 196.287827 204.424705 196.287921 204.424538 196.288088 
C 204.424371 196.288255 204.424277 196.288482 204.424277 196.288719 
C 204.424277 196.288956 204.424371 196.289183 204.424538 196.28935 
C 204.424705 196.289517 204.424932 196.289611 204.425169 196.289611 
z
" style="fill:#00ffff;fill-opacity:0.5;stroke:#00ffff;stroke-opacity:0.5;"/>
    <path clip-path="url(#pce5178adcb)" d="M 215.330997 160.594367 
C 215.843184 160.594367 216.334463 160.390872 216.696634 160.028701 
C 217.058806 159.66653 217.2623 159.175251 217.2623 158.663063 
C 217.2623 158.150876 217.058806 157.659597 216.696634 157.297426 
C 216.334463 156.935254 215.843184 156.73176 215.330997 156.73176 
C 214.818809 156.73176 214.32753 156.935254 213.965359 157.297426 
C 213.603188 157.659597 213.399693 158.150876 213.399693 158.663063 
C 213.399693 159.175251 213.603188 159.66653 213.965359 160.028701 
C 214.32753 160.390872 214.818809 160.594367 215.330997 160.594367 
z
" style="fill:#00ffff;fill-opacity:0.5;stroke:#00ffff;stroke-opacity:0.5;"/>
    <path clip-path="url(#pce5178adcb)" d="M 314.933478 85.997476 
C 315.772124 85.997476 316.576533 85.664279 317.169546 85.071266 
C 317.762558 84.478254 318.095755 83.673844 318.095755 82.835198 
C 318.095755 81.996553 317.762558 81.192143 317.169546 80.59913 
C 316.576533 80.006118 315.772124 79.672921 314.933478 79.672921 
C 314.094832 79.672921 313.290422 80.006118 312.69741 80.59913 
C 312.104398 81.192143 311.7712 81.996553 311.7712 82.835198 
C 311.7712 83.673844 312.104398 84.478254 312.69741 85.071266 
C 313.290422 85.664279 314.094832 85.997476 314.933478 85.997476 
z
" style="fill:#00ffff;fill-opacity:0.5;stroke:#00ffff;stroke-opacity:0.5;"/>
    <path clip-path="url(#pce5178adcb)" d="M 76.880452 223.479842 
C 77.351026 223.479842 77.80239 223.292881 78.135137 222.960134 
C 78.467883 222.627388 78.654844 222.176024 78.654844 221.70545 
C 78.654844 221.234875 78.467883 220.783511 78.135137 220.450765 
C 77.80239 220.118018 77.351026 219.931057 76.880452 219.931057 
C 76.409877 219.931057 75.958513 220.118018 75.625767 220.450765 
C 75.29302 220.783511 75.106059 221.234875 75.106059 221.70545 
C 75.106059 222.176024 75.29302 222.627388 75.625767 222.960134 
C 75.958513 223.292881 76.409877 223.479842 76.880452 223.479842 
z
" style="fill:#00ffff;fill-opacity:0.5;stroke:#00ffff;stroke-opacity:0.5;"/>
    <path clip-path="url(#pce5178adcb)" d="M 81.36351 220.903338 
C 81.806468 220.903338 82.231344 220.727348 82.544563 220.41413 
C 82.857782 220.100911 83.033771 219.676035 83.033771 219.233076 
C 83.033771 218.790118 82.857782 218.365242 82.544563 218.052023 
C 82.231344 217.738805 81.806468 217.562815 81.36351 217.562815 
C 80.920551 217.562815 80.495676 217.738805 80.182457 218.052023 
C 79.869238 218.365242 79.693249 218.790118 79.693249 219.233076 
C 79.693249 219.676035 79.869238 220.100911 80.182457 220.41413 
C 80.495676 220.727348 80.920551 220.903338 81.36351 220.903338 
z
" style="fill:#00ffff;fill-opacity:0.5;stroke:#00ffff;stroke-opacity:0.5;"/>
    <path clip-path="url(#pce5178adcb)" d="M 62.72429 263.32177 
C 63.282746 263.32177 63.818405 263.099892 64.213294 262.705004 
C 64.608182 262.310116 64.830059 261.774457 64.830059 261.216 
C 64.830059 260.657543 64.608182 260.121884 64.213294 259.726996 
C 63.818405 259.332108 63.282746 259.11023 62.72429 259.11023 
C 62.165833 259.11023 61.630174 259.332108 61.235286 259.726996 
C 60.840397 260.121884 60.61852 260.657543 60.61852 261.216 
C 60.61852 261.774457 60.840397 262.310116 61.235286 262.705004 
C 61.630174 263.099892 62.165833 263.32177 62.72429 263.32177 
z
" style="fill:#00ffff;fill-opacity:0.5;stroke:#00ffff;stroke-opacity:0.5;"/>
    <path clip-path="url(#pce5178adcb)" d="M 289.033141 111.802997 
C 289.871787 111.802997 290.676197 111.4698 291.269209 110.876787 
C 291.862221 110.283775 292.195419 109.479365 292.195419 108.640719 
C 292.195419 107.802074 291.862221 106.997664 291.269209 106.404651 
C 290.676197 105.811639 289.871787 105.478442 289.033141 105.478442 
C 288.194495 105.478442 287.390085 105.811639 286.797073 106.404651 
C 286.204061 106.997664 285.870863 107.802074 285.870863 108.640719 
C 285.870863 109.479365 286.204061 110.283775 286.797073 110.876787 
C 287.390085 111.4698 288.194495 111.802997 289.033141 111.802997 
z
" style="fill:#00ffff;fill-opacity:0.5;stroke:#00ffff;stroke-opacity:0.5;"/>
    <path clip-path="url(#pce5178adcb)" d="M 273.861479 132.63543 
C 273.862026 132.63543 273.862552 132.635213 273.862939 132.634826 
C 273.863326 132.634438 273.863544 132.633913 273.863544 132.633365 
C 273.863544 132.632818 273.863326 132.632292 273.862939 132.631905 
C 273.862552 132.631518 273.862026 132.6313 273.861479 132.6313 
C 273.860931 132.6313 273.860406 132.631518 273.860018 132.631905 
C 273.859631 132.632292 273.859414 132.632818 273.859414 132.633365 
C 273.859414 132.633913 273.859631 132.634438 273.860018 132.634826 
C 273.860406 132.635213 273.860931 132.63543 273.861479 132.63543 
z
" style="fill:#00ffff;fill-opacity:0.5;stroke:#00ffff;stroke-opacity:0.5;"/>
    <path clip-path="url(#pce5178adcb)" d="M 299.449431 125.627308 
C 300.288077 125.627308 301.092487 125.29411 301.685499 124.701098 
C 302.278511 124.108086 302.611708 123.303676 302.611708 122.46503 
C 302.611708 121.626384 302.278511 120.821974 301.685499 120.228962 
C 301.092487 119.63595 300.288077 119.302752 299.449431 119.302752 
C 298.610785 119.302752 297.806375 119.63595 297.213363 120.228962 
C 296.620351 120.821974 296.287153 121.626384 296.287153 122.46503 
C 296.287153 123.303676 296.620351 124.108086 297.213363 124.701098 
C 297.806375 125.29411 298.610785 125.627308 299.449431 125.627308 
z
" style="fill:#00ffff;fill-opacity:0.5;stroke:#00ffff;stroke-opacity:0.5;"/>
    <path clip-path="url(#pce5178adcb)" d="M 329.703615 109.424409 
C 330.18757 109.424409 330.651768 109.232131 330.993975 108.889924 
C 331.336183 108.547716 331.52846 108.083518 331.52846 107.599563 
C 331.52846 107.115609 331.336183 106.651411 330.993975 106.309203 
C 330.651768 105.966995 330.18757 105.774718 329.703615 105.774718 
C 329.21966 105.774718 328.755462 105.966995 328.413255 106.309203 
C 328.071047 106.651411 327.87877 107.115609 327.87877 107.599563 
C 327.87877 108.083518 328.071047 108.547716 328.413255 108.889924 
C 328.755462 109.232131 329.21966 109.424409 329.703615 109.424409 
z
" style="fill:#00ffff;fill-opacity:0.5;stroke:#00ffff;stroke-opacity:0.5;"/>
    <path clip-path="url(#pce5178adcb)" d="M 279.711907 76.145912 
C 280.550553 76.145912 281.354962 75.812714 281.947975 75.219702 
C 282.540987 74.62669 282.874184 73.82228 282.874184 72.983634 
C 282.874184 72.144988 282.540987 71.340579 281.947975 70.747566 
C 281.354962 70.154554 280.550553 69.821357 279.711907 69.821357 
C 278.873261 69.821357 278.068851 70.154554 277.475839 70.747566 
C 276.882827 71.340579 276.549629 72.144988 276.549629 72.983634 
C 276.549629 73.82228 276.882827 74.62669 277.475839 75.219702 
C 278.068851 75.812714 278.873261 76.145912 279.711907 76.145912 
z
" style="fill:#00ffff;fill-opacity:0.5;stroke:#00ffff;stroke-opacity:0.5;"/>
    <path clip-path="url(#pce5178adcb)" d="M 185.645368 183.448463 
C 186.168555 183.448463 186.670384 183.240599 187.040334 182.87065 
C 187.410283 182.5007 187.618147 181.998871 187.618147 181.475684 
C 187.618147 180.952497 187.410283 180.450668 187.040334 180.080718 
C 186.670384 179.710769 186.168555 179.502905 185.645368 179.502905 
C 185.122181 179.502905 184.620352 179.710769 184.250402 180.080718 
C 183.880453 180.450668 183.672589 180.952497 183.672589 181.475684 
C 183.672589 181.998871 183.880453 182.5007 184.250402 182.87065 
C 184.620352 183.240599 185.122181 183.448463 185.645368 183.448463 
z
" style="fill:#00ffff;fill-opacity:0.5;stroke:#00ffff;stroke-opacity:0.5;"/>
    <path clip-path="url(#pce5178adcb)" d="M 274.52236 120.846869 
C 274.522615 120.846869 274.522859 120.846768 274.523039 120.846588 
C 274.523219 120.846408 274.523321 120.846163 274.523321 120.845908 
C 274.523321 120.845654 274.523219 120.845409 274.523039 120.845229 
C 274.522859 120.845049 274.522615 120.844948 274.52236 120.844948 
C 274.522105 120.844948 274.521861 120.845049 274.52168 120.845229 
C 274.5215 120.845409 274.521399 120.845654 274.521399 120.845908 
C 274.521399 120.846163 274.5215 120.846408 274.52168 120.846588 
C 274.521861 120.846768 274.522105 120.846869 274.52236 120.846869 
z
" style="fill:#00ffff;fill-opacity:0.5;stroke:#00ffff;stroke-opacity:0.5;"/>
    <path clip-path="url(#pce5178adcb)" d="M 90.039538 260.999178 
C 90.549338 260.999178 91.038327 260.796632 91.398811 260.436148 
C 91.759294 260.075665 91.96184 259.586676 91.96184 259.076876 
C 91.96184 258.567075 91.759294 258.078086 91.398811 257.717603 
C 91.038327 257.357119 90.549338 257.154574 90.039538 257.154574 
C 89.529737 257.154574 89.040748 257.357119 88.680265 257.717603 
C 88.319782 258.078086 88.117236 258.567075 88.117236 259.076876 
C 88.117236 259.586676 88.319782 260.075665 88.680265 260.436148 
C 89.040748 260.796632 89.529737 260.999178 90.039538 260.999178 
z
" style="fill:#00ffff;fill-opacity:0.5;stroke:#00ffff;stroke-opacity:0.5;"/>
    <path clip-path="url(#pce5178adcb)" d="M 235.353461 125.822376 
C 235.734153 125.822376 236.099304 125.671126 236.368493 125.401936 
C 236.637683 125.132746 236.788933 124.767596 236.788933 124.386904 
C 236.788933 124.006212 236.637683 123.641061 236.368493 123.371872 
C 236.099304 123.102682 235.734153 122.951432 235.353461 122.951432 
C 234.972769 122.951432 234.607619 123.102682 234.338429 123.371872 
C 234.069239 123.641061 233.917989 124.006212 233.917989 124.386904 
C 233.917989 124.767596 234.069239 125.132746 234.338429 125.401936 
C 234.607619 125.671126 234.972769 125.822376 235.353461 125.822376 
z
" style="fill:#00ffff;fill-opacity:0.5;stroke:#00ffff;stroke-opacity:0.5;"/>
    <path clip-path="url(#pce5178adcb)" d="M 97.0257 263.096331 
C 97.54792 263.096331 98.048822 262.88885 98.418088 262.519585 
C 98.787353 262.150319 98.994834 261.649418 98.994834 261.127197 
C 98.994834 260.604977 98.787353 260.104075 98.418088 259.73481 
C 98.048822 259.365544 97.54792 259.158064 97.0257 259.158064 
C 96.50348 259.158064 96.002578 259.365544 95.633312 259.73481 
C 95.264047 260.104075 95.056567 260.604977 95.056567 261.127197 
C 95.056567 261.649418 95.264047 262.150319 95.633312 262.519585 
C 96.002578 262.88885 96.50348 263.096331 97.0257 263.096331 
z
" style="fill:#00ffff;fill-opacity:0.5;stroke:#00ffff;stroke-opacity:0.5;"/>
    <path clip-path="url(#pce5178adcb)" d="M 320.2464 87.435217 
C 320.587147 87.435217 320.913984 87.299837 321.154929 87.058892 
C 321.395873 86.817947 321.531254 86.49111 321.531254 86.150363 
C 321.531254 85.809616 321.395873 85.482779 321.154929 85.241834 
C 320.913984 85.000889 320.587147 84.865509 320.2464 84.865509 
C 319.905652 84.865509 319.578815 85.000889 319.337871 85.241834 
C 319.096926 85.482779 318.961546 85.809616 318.961546 86.150363 
C 318.961546 86.49111 319.096926 86.817947 319.337871 87.058892 
C 319.578815 87.299837 319.905652 87.435217 320.2464 87.435217 
z
" style="fill:#00ffff;fill-opacity:0.5;stroke:#00ffff;stroke-opacity:0.5;"/>
    <path clip-path="url(#pce5178adcb)" d="M 202.462214 179.386016 
C 202.981963 179.386016 203.480495 179.179518 203.848013 178.811999 
C 204.215532 178.444481 204.42203 177.945949 204.42203 177.4262 
C 204.42203 176.90645 204.215532 176.407919 203.848013 176.0404 
C 203.480495 175.672882 202.981963 175.466383 202.462214 175.466383 
C 201.942464 175.466383 201.443933 175.672882 201.076414 176.0404 
C 200.708896 176.407919 200.502397 176.90645 200.502397 177.4262 
C 200.502397 177.945949 200.708896 178.444481 201.076414 178.811999 
C 201.443933 179.179518 201.942464 179.386016 202.462214 179.386016 
z
" style="fill:#00ffff;fill-opacity:0.5;stroke:#00ffff;stroke-opacity:0.5;"/>
    <path clip-path="url(#pce5178adcb)" d="M 172.603544 175.407454 
C 173.105774 175.407454 173.587502 175.207915 173.942633 174.852785 
C 174.297763 174.497654 174.497302 174.015926 174.497302 173.513696 
C 174.497302 173.011465 174.297763 172.529737 173.942633 172.174607 
C 173.587502 171.819476 173.105774 171.619938 172.603544 171.619938 
C 172.101313 171.619938 171.619585 171.819476 171.264455 172.174607 
C 170.909324 172.529737 170.709786 173.011465 170.709786 173.513696 
C 170.709786 174.015926 170.909324 174.497654 171.264455 174.852785 
C 171.619585 175.207915 172.101313 175.407454 172.603544 175.407454 
z
" style="fill:#00ffff;fill-opacity:0.5;stroke:#00ffff;stroke-opacity:0.5;"/>
   </g>
   <g id="PathCollection_3">
    <defs>
     <path d="M -2.236068 2.236068 
L 2.236068 -2.236068 
M -2.236068 -2.236068 
L 2.236068 2.236068 
" id="ma8d2b0afef" style="stroke:#ff0000;stroke-width:1.5;"/>
    </defs>
    <g clip-path="url(#pce5178adcb)">
     <use style="fill:#ff0000;stroke:#ff0000;stroke-width:1.5;" x="387.378835" xlink:href="#ma8d2b0afef" y="32.470176"/>
     <use style="fill:#ff0000;stroke:#ff0000;stroke-width:1.5;" x="282.836716" xlink:href="#ma8d2b0afef" y="105.138835"/>
     <use style="fill:#ff0000;stroke:#ff0000;stroke-width:1.5;" x="368.203288" xlink:href="#ma8d2b0afef" y="50.119352"/>
     <use style="fill:#ff0000;stroke:#ff0000;stroke-width:1.5;" x="384.242613" xlink:href="#ma8d2b0afef" y="42.742717"/>
     <use style="fill:#ff0000;stroke:#ff0000;stroke-width:1.5;" x="349.380294" xlink:href="#ma8d2b0afef" y="54.709625"/>
     <use style="fill:#ff0000;stroke:#ff0000;stroke-width:1.5;" x="311.256852" xlink:href="#ma8d2b0afef" y="65.834254"/>
     <use style="fill:#ff0000;stroke:#ff0000;stroke-width:1.5;" x="307.533268" xlink:href="#ma8d2b0afef" y="108.615573"/>
     <use style="fill:#ff0000;stroke:#ff0000;stroke-width:1.5;" x="385.875972" xlink:href="#ma8d2b0afef" y="19.296"/>
     <use style="fill:#ff0000;stroke:#ff0000;stroke-width:1.5;" x="303.500717" xlink:href="#ma8d2b0afef" y="89.119788"/>
     <use style="fill:#ff0000;stroke:#ff0000;stroke-width:1.5;" x="292.250616" xlink:href="#ma8d2b0afef" y="92.601879"/>
    </g>
   </g>
   <g id="matplotlib.axis_1">
    <g id="xtick_1">
     <g id="line2d_1">
      <defs>
       <path d="M 0 0 
L 0 3.5 
" id="m43f8e26e99" style="stroke:#000000;stroke-width:0.8;"/>
      </defs>
      <g>
       <use style="stroke:#000000;stroke-width:0.8;" x="84.948872" xlink:href="#m43f8e26e99" y="273.312"/>
      </g>
     </g>
     <g id="text_1">
      <!-- −4 -->
      <g transform="translate(77.577778 287.910437)scale(0.1 -0.1)">
       <defs>
        <path d="M 678 2272 
L 4684 2272 
L 4684 1741 
L 678 1741 
L 678 2272 
z
" id="DejaVuSans-2212" transform="scale(0.015625)"/>
        <path d="M 2419 4116 
L 825 1625 
L 2419 1625 
L 2419 4116 
z
M 2253 4666 
L 3047 4666 
L 3047 1625 
L 3713 1625 
L 3713 1100 
L 3047 1100 
L 3047 0 
L 2419 0 
L 2419 1100 
L 313 1100 
L 313 1709 
L 2253 4666 
z
" id="DejaVuSans-34" transform="scale(0.015625)"/>
       </defs>
       <use xlink:href="#DejaVuSans-2212"/>
       <use x="83.789062" xlink:href="#DejaVuSans-34"/>
      </g>
     </g>
    </g>
    <g id="xtick_2">
     <g id="line2d_2">
      <g>
       <use style="stroke:#000000;stroke-width:0.8;" x="140.662424" xlink:href="#m43f8e26e99" y="273.312"/>
      </g>
     </g>
     <g id="text_2">
      <!-- −2 -->
      <g transform="translate(133.29133 287.910437)scale(0.1 -0.1)">
       <defs>
        <path d="M 1228 531 
L 3431 531 
L 3431 0 
L 469 0 
L 469 531 
Q 828 903 1448 1529 
Q 2069 2156 2228 2338 
Q 2531 2678 2651 2914 
Q 2772 3150 2772 3378 
Q 2772 3750 2511 3984 
Q 2250 4219 1831 4219 
Q 1534 4219 1204 4116 
Q 875 4013 500 3803 
L 500 4441 
Q 881 4594 1212 4672 
Q 1544 4750 1819 4750 
Q 2544 4750 2975 4387 
Q 3406 4025 3406 3419 
Q 3406 3131 3298 2873 
Q 3191 2616 2906 2266 
Q 2828 2175 2409 1742 
Q 1991 1309 1228 531 
z
" id="DejaVuSans-32" transform="scale(0.015625)"/>
       </defs>
       <use xlink:href="#DejaVuSans-2212"/>
       <use x="83.789062" xlink:href="#DejaVuSans-32"/>
      </g>
     </g>
    </g>
    <g id="xtick_3">
     <g id="line2d_3">
      <g>
       <use style="stroke:#000000;stroke-width:0.8;" x="196.375976" xlink:href="#m43f8e26e99" y="273.312"/>
      </g>
     </g>
     <g id="text_3">
      <!-- 0 -->
      <g transform="translate(193.194726 287.910437)scale(0.1 -0.1)">
       <defs>
        <path d="M 2034 4250 
Q 1547 4250 1301 3770 
Q 1056 3291 1056 2328 
Q 1056 1369 1301 889 
Q 1547 409 2034 409 
Q 2525 409 2770 889 
Q 3016 1369 3016 2328 
Q 3016 3291 2770 3770 
Q 2525 4250 2034 4250 
z
M 2034 4750 
Q 2819 4750 3233 4129 
Q 3647 3509 3647 2328 
Q 3647 1150 3233 529 
Q 2819 -91 2034 -91 
Q 1250 -91 836 529 
Q 422 1150 422 2328 
Q 422 3509 836 4129 
Q 1250 4750 2034 4750 
z
" id="DejaVuSans-30" transform="scale(0.015625)"/>
       </defs>
       <use xlink:href="#DejaVuSans-30"/>
      </g>
     </g>
    </g>
    <g id="xtick_4">
     <g id="line2d_4">
      <g>
       <use style="stroke:#000000;stroke-width:0.8;" x="252.089528" xlink:href="#m43f8e26e99" y="273.312"/>
      </g>
     </g>
     <g id="text_4">
      <!-- 2 -->
      <g transform="translate(248.908278 287.910437)scale(0.1 -0.1)">
       <use xlink:href="#DejaVuSans-32"/>
      </g>
     </g>
    </g>
    <g id="xtick_5">
     <g id="line2d_5">
      <g>
       <use style="stroke:#000000;stroke-width:0.8;" x="307.803079" xlink:href="#m43f8e26e99" y="273.312"/>
      </g>
     </g>
     <g id="text_5">
      <!-- 4 -->
      <g transform="translate(304.621829 287.910437)scale(0.1 -0.1)">
       <use xlink:href="#DejaVuSans-34"/>
      </g>
     </g>
    </g>
    <g id="xtick_6">
     <g id="line2d_6">
      <g>
       <use style="stroke:#000000;stroke-width:0.8;" x="363.516631" xlink:href="#m43f8e26e99" y="273.312"/>
      </g>
     </g>
     <g id="text_6">
      <!-- 6 -->
      <g transform="translate(360.335381 287.910437)scale(0.1 -0.1)">
       <defs>
        <path d="M 2113 2584 
Q 1688 2584 1439 2293 
Q 1191 2003 1191 1497 
Q 1191 994 1439 701 
Q 1688 409 2113 409 
Q 2538 409 2786 701 
Q 3034 994 3034 1497 
Q 3034 2003 2786 2293 
Q 2538 2584 2113 2584 
z
M 3366 4563 
L 3366 3988 
Q 3128 4100 2886 4159 
Q 2644 4219 2406 4219 
Q 1781 4219 1451 3797 
Q 1122 3375 1075 2522 
Q 1259 2794 1537 2939 
Q 1816 3084 2150 3084 
Q 2853 3084 3261 2657 
Q 3669 2231 3669 1497 
Q 3669 778 3244 343 
Q 2819 -91 2113 -91 
Q 1303 -91 875 529 
Q 447 1150 447 2328 
Q 447 3434 972 4092 
Q 1497 4750 2381 4750 
Q 2619 4750 2861 4703 
Q 3103 4656 3366 4563 
z
" id="DejaVuSans-36" transform="scale(0.015625)"/>
       </defs>
       <use xlink:href="#DejaVuSans-36"/>
      </g>
     </g>
    </g>
    <g id="text_7">
     <!-- x -->
     <g transform="translate(220.908438 304.627937)scale(0.14 -0.14)">
      <defs>
       <path d="M 3513 3500 
L 2247 1797 
L 3578 0 
L 2900 0 
L 1881 1375 
L 863 0 
L 184 0 
L 1544 1831 
L 300 3500 
L 978 3500 
L 1906 2253 
L 2834 3500 
L 3513 3500 
z
" id="DejaVuSans-78" transform="scale(0.015625)"/>
      </defs>
      <use xlink:href="#DejaVuSans-78"/>
     </g>
    </g>
   </g>
   <g id="matplotlib.axis_2">
    <g id="ytick_1">
     <g id="line2d_7">
      <defs>
       <path d="M 0 0 
L -3.5 0 
" id="m66fa605a4e" style="stroke:#000000;stroke-width:0.8;"/>
      </defs>
      <g>
       <use style="stroke:#000000;stroke-width:0.8;" x="46.491563" xlink:href="#m66fa605a4e" y="265.20939"/>
      </g>
     </g>
     <g id="text_8">
      <!-- −5 -->
      <g transform="translate(24.749375 269.008609)scale(0.1 -0.1)">
       <defs>
        <path d="M 691 4666 
L 3169 4666 
L 3169 4134 
L 1269 4134 
L 1269 2991 
Q 1406 3038 1543 3061 
Q 1681 3084 1819 3084 
Q 2600 3084 3056 2656 
Q 3513 2228 3513 1497 
Q 3513 744 3044 326 
Q 2575 -91 1722 -91 
Q 1428 -91 1123 -41 
Q 819 9 494 109 
L 494 744 
Q 775 591 1075 516 
Q 1375 441 1709 441 
Q 2250 441 2565 725 
Q 2881 1009 2881 1497 
Q 2881 1984 2565 2268 
Q 2250 2553 1709 2553 
Q 1456 2553 1204 2497 
Q 953 2441 691 2322 
L 691 4666 
z
" id="DejaVuSans-35" transform="scale(0.015625)"/>
       </defs>
       <use xlink:href="#DejaVuSans-2212"/>
       <use x="83.789062" xlink:href="#DejaVuSans-35"/>
      </g>
     </g>
    </g>
    <g id="ytick_2">
     <g id="line2d_8">
      <g>
       <use style="stroke:#000000;stroke-width:0.8;" x="46.491563" xlink:href="#m66fa605a4e" y="218.743753"/>
      </g>
     </g>
     <g id="text_9">
      <!-- 0 -->
      <g transform="translate(33.129063 222.542972)scale(0.1 -0.1)">
       <use xlink:href="#DejaVuSans-30"/>
      </g>
     </g>
    </g>
    <g id="ytick_3">
     <g id="line2d_9">
      <g>
       <use style="stroke:#000000;stroke-width:0.8;" x="46.491563" xlink:href="#m66fa605a4e" y="172.278117"/>
      </g>
     </g>
     <g id="text_10">
      <!-- 5 -->
      <g transform="translate(33.129063 176.077336)scale(0.1 -0.1)">
       <use xlink:href="#DejaVuSans-35"/>
      </g>
     </g>
    </g>
    <g id="ytick_4">
     <g id="line2d_10">
      <g>
       <use style="stroke:#000000;stroke-width:0.8;" x="46.491563" xlink:href="#m66fa605a4e" y="125.81248"/>
      </g>
     </g>
     <g id="text_11">
      <!-- 10 -->
      <g transform="translate(26.766562 129.611699)scale(0.1 -0.1)">
       <defs>
        <path d="M 794 531 
L 1825 531 
L 1825 4091 
L 703 3866 
L 703 4441 
L 1819 4666 
L 2450 4666 
L 2450 531 
L 3481 531 
L 3481 0 
L 794 0 
L 794 531 
z
" id="DejaVuSans-31" transform="scale(0.015625)"/>
       </defs>
       <use xlink:href="#DejaVuSans-31"/>
       <use x="63.623047" xlink:href="#DejaVuSans-30"/>
      </g>
     </g>
    </g>
    <g id="ytick_5">
     <g id="line2d_11">
      <g>
       <use style="stroke:#000000;stroke-width:0.8;" x="46.491563" xlink:href="#m66fa605a4e" y="79.346844"/>
      </g>
     </g>
     <g id="text_12">
      <!-- 15 -->
      <g transform="translate(26.766562 83.146062)scale(0.1 -0.1)">
       <use xlink:href="#DejaVuSans-31"/>
       <use x="63.623047" xlink:href="#DejaVuSans-35"/>
      </g>
     </g>
    </g>
    <g id="ytick_6">
     <g id="line2d_12">
      <g>
       <use style="stroke:#000000;stroke-width:0.8;" x="46.491563" xlink:href="#m66fa605a4e" y="32.881207"/>
      </g>
     </g>
     <g id="text_13">
      <!-- 20 -->
      <g transform="translate(26.766562 36.680426)scale(0.1 -0.1)">
       <use xlink:href="#DejaVuSans-32"/>
       <use x="63.623047" xlink:href="#DejaVuSans-30"/>
      </g>
     </g>
    </g>
    <g id="text_14">
     <!-- y -->
     <g transform="translate(17.837812 144.399125)rotate(-90)scale(0.14 -0.14)">
      <defs>
       <path d="M 2059 -325 
Q 1816 -950 1584 -1140 
Q 1353 -1331 966 -1331 
L 506 -1331 
L 506 -850 
L 844 -850 
Q 1081 -850 1212 -737 
Q 1344 -625 1503 -206 
L 1606 56 
L 191 3500 
L 800 3500 
L 1894 763 
L 2988 3500 
L 3597 3500 
L 2059 -325 
z
" id="DejaVuSans-79" transform="scale(0.015625)"/>
      </defs>
      <use xlink:href="#DejaVuSans-79"/>
     </g>
    </g>
   </g>
   <g id="patch_3">
    <path d="M 46.491563 273.312 
L 46.491563 7.2 
" style="fill:none;stroke:#000000;stroke-linecap:square;stroke-linejoin:miter;stroke-width:0.8;"/>
   </g>
   <g id="patch_4">
    <path d="M 403.611563 273.312 
L 403.611563 7.2 
" style="fill:none;stroke:#000000;stroke-linecap:square;stroke-linejoin:miter;stroke-width:0.8;"/>
   </g>
   <g id="patch_5">
    <path d="M 46.491563 273.312 
L 403.611563 273.312 
" style="fill:none;stroke:#000000;stroke-linecap:square;stroke-linejoin:miter;stroke-width:0.8;"/>
   </g>
   <g id="patch_6">
    <path d="M 46.491563 7.2 
L 403.611563 7.2 
" style="fill:none;stroke:#000000;stroke-linecap:square;stroke-linejoin:miter;stroke-width:0.8;"/>
   </g>
   <g id="legend_1">
    <g id="patch_7">
     <path d="M 56.291562 59.49875 
L 207.944375 59.49875 
Q 210.744375 59.49875 210.744375 56.69875 
L 210.744375 17 
Q 210.744375 14.2 207.944375 14.2 
L 56.291562 14.2 
Q 53.491563 14.2 53.491563 17 
L 53.491563 56.69875 
Q 53.491563 59.49875 56.291562 59.49875 
z
" style="fill:#ffffff;opacity:0.8;stroke:#cccccc;stroke-linejoin:miter;"/>
    </g>
    <g id="PathCollection_4">
     <g>
      <use style="stroke:#000000;stroke-width:1.5;" x="73.091563" xlink:href="#m2194495b2c" y="26.762813"/>
     </g>
    </g>
    <g id="text_15">
     <!-- Source Domain -->
     <g transform="translate(98.291562 30.437813)scale(0.14 -0.14)">
      <defs>
       <path d="M 3425 4513 
L 3425 3897 
Q 3066 4069 2747 4153 
Q 2428 4238 2131 4238 
Q 1616 4238 1336 4038 
Q 1056 3838 1056 3469 
Q 1056 3159 1242 3001 
Q 1428 2844 1947 2747 
L 2328 2669 
Q 3034 2534 3370 2195 
Q 3706 1856 3706 1288 
Q 3706 609 3251 259 
Q 2797 -91 1919 -91 
Q 1588 -91 1214 -16 
Q 841 59 441 206 
L 441 856 
Q 825 641 1194 531 
Q 1563 422 1919 422 
Q 2459 422 2753 634 
Q 3047 847 3047 1241 
Q 3047 1584 2836 1778 
Q 2625 1972 2144 2069 
L 1759 2144 
Q 1053 2284 737 2584 
Q 422 2884 422 3419 
Q 422 4038 858 4394 
Q 1294 4750 2059 4750 
Q 2388 4750 2728 4690 
Q 3069 4631 3425 4513 
z
" id="DejaVuSans-53" transform="scale(0.015625)"/>
       <path d="M 1959 3097 
Q 1497 3097 1228 2736 
Q 959 2375 959 1747 
Q 959 1119 1226 758 
Q 1494 397 1959 397 
Q 2419 397 2687 759 
Q 2956 1122 2956 1747 
Q 2956 2369 2687 2733 
Q 2419 3097 1959 3097 
z
M 1959 3584 
Q 2709 3584 3137 3096 
Q 3566 2609 3566 1747 
Q 3566 888 3137 398 
Q 2709 -91 1959 -91 
Q 1206 -91 779 398 
Q 353 888 353 1747 
Q 353 2609 779 3096 
Q 1206 3584 1959 3584 
z
" id="DejaVuSans-6f" transform="scale(0.015625)"/>
       <path d="M 544 1381 
L 544 3500 
L 1119 3500 
L 1119 1403 
Q 1119 906 1312 657 
Q 1506 409 1894 409 
Q 2359 409 2629 706 
Q 2900 1003 2900 1516 
L 2900 3500 
L 3475 3500 
L 3475 0 
L 2900 0 
L 2900 538 
Q 2691 219 2414 64 
Q 2138 -91 1772 -91 
Q 1169 -91 856 284 
Q 544 659 544 1381 
z
M 1991 3584 
L 1991 3584 
z
" id="DejaVuSans-75" transform="scale(0.015625)"/>
       <path d="M 2631 2963 
Q 2534 3019 2420 3045 
Q 2306 3072 2169 3072 
Q 1681 3072 1420 2755 
Q 1159 2438 1159 1844 
L 1159 0 
L 581 0 
L 581 3500 
L 1159 3500 
L 1159 2956 
Q 1341 3275 1631 3429 
Q 1922 3584 2338 3584 
Q 2397 3584 2469 3576 
Q 2541 3569 2628 3553 
L 2631 2963 
z
" id="DejaVuSans-72" transform="scale(0.015625)"/>
       <path d="M 3122 3366 
L 3122 2828 
Q 2878 2963 2633 3030 
Q 2388 3097 2138 3097 
Q 1578 3097 1268 2742 
Q 959 2388 959 1747 
Q 959 1106 1268 751 
Q 1578 397 2138 397 
Q 2388 397 2633 464 
Q 2878 531 3122 666 
L 3122 134 
Q 2881 22 2623 -34 
Q 2366 -91 2075 -91 
Q 1284 -91 818 406 
Q 353 903 353 1747 
Q 353 2603 823 3093 
Q 1294 3584 2113 3584 
Q 2378 3584 2631 3529 
Q 2884 3475 3122 3366 
z
" id="DejaVuSans-63" transform="scale(0.015625)"/>
       <path d="M 3597 1894 
L 3597 1613 
L 953 1613 
Q 991 1019 1311 708 
Q 1631 397 2203 397 
Q 2534 397 2845 478 
Q 3156 559 3463 722 
L 3463 178 
Q 3153 47 2828 -22 
Q 2503 -91 2169 -91 
Q 1331 -91 842 396 
Q 353 884 353 1716 
Q 353 2575 817 3079 
Q 1281 3584 2069 3584 
Q 2775 3584 3186 3129 
Q 3597 2675 3597 1894 
z
M 3022 2063 
Q 3016 2534 2758 2815 
Q 2500 3097 2075 3097 
Q 1594 3097 1305 2825 
Q 1016 2553 972 2059 
L 3022 2063 
z
" id="DejaVuSans-65" transform="scale(0.015625)"/>
       <path id="DejaVuSans-20" transform="scale(0.015625)"/>
       <path d="M 1259 4147 
L 1259 519 
L 2022 519 
Q 2988 519 3436 956 
Q 3884 1394 3884 2338 
Q 3884 3275 3436 3711 
Q 2988 4147 2022 4147 
L 1259 4147 
z
M 628 4666 
L 1925 4666 
Q 3281 4666 3915 4102 
Q 4550 3538 4550 2338 
Q 4550 1131 3912 565 
Q 3275 0 1925 0 
L 628 0 
L 628 4666 
z
" id="DejaVuSans-44" transform="scale(0.015625)"/>
       <path d="M 3328 2828 
Q 3544 3216 3844 3400 
Q 4144 3584 4550 3584 
Q 5097 3584 5394 3201 
Q 5691 2819 5691 2113 
L 5691 0 
L 5113 0 
L 5113 2094 
Q 5113 2597 4934 2840 
Q 4756 3084 4391 3084 
Q 3944 3084 3684 2787 
Q 3425 2491 3425 1978 
L 3425 0 
L 2847 0 
L 2847 2094 
Q 2847 2600 2669 2842 
Q 2491 3084 2119 3084 
Q 1678 3084 1418 2786 
Q 1159 2488 1159 1978 
L 1159 0 
L 581 0 
L 581 3500 
L 1159 3500 
L 1159 2956 
Q 1356 3278 1631 3431 
Q 1906 3584 2284 3584 
Q 2666 3584 2933 3390 
Q 3200 3197 3328 2828 
z
" id="DejaVuSans-6d" transform="scale(0.015625)"/>
       <path d="M 2194 1759 
Q 1497 1759 1228 1600 
Q 959 1441 959 1056 
Q 959 750 1161 570 
Q 1363 391 1709 391 
Q 2188 391 2477 730 
Q 2766 1069 2766 1631 
L 2766 1759 
L 2194 1759 
z
M 3341 1997 
L 3341 0 
L 2766 0 
L 2766 531 
Q 2569 213 2275 61 
Q 1981 -91 1556 -91 
Q 1019 -91 701 211 
Q 384 513 384 1019 
Q 384 1609 779 1909 
Q 1175 2209 1959 2209 
L 2766 2209 
L 2766 2266 
Q 2766 2663 2505 2880 
Q 2244 3097 1772 3097 
Q 1472 3097 1187 3025 
Q 903 2953 641 2809 
L 641 3341 
Q 956 3463 1253 3523 
Q 1550 3584 1831 3584 
Q 2591 3584 2966 3190 
Q 3341 2797 3341 1997 
z
" id="DejaVuSans-61" transform="scale(0.015625)"/>
       <path d="M 603 3500 
L 1178 3500 
L 1178 0 
L 603 0 
L 603 3500 
z
M 603 4863 
L 1178 4863 
L 1178 4134 
L 603 4134 
L 603 4863 
z
" id="DejaVuSans-69" transform="scale(0.015625)"/>
       <path d="M 3513 2113 
L 3513 0 
L 2938 0 
L 2938 2094 
Q 2938 2591 2744 2837 
Q 2550 3084 2163 3084 
Q 1697 3084 1428 2787 
Q 1159 2491 1159 1978 
L 1159 0 
L 581 0 
L 581 3500 
L 1159 3500 
L 1159 2956 
Q 1366 3272 1645 3428 
Q 1925 3584 2291 3584 
Q 2894 3584 3203 3211 
Q 3513 2838 3513 2113 
z
" id="DejaVuSans-6e" transform="scale(0.015625)"/>
      </defs>
      <use xlink:href="#DejaVuSans-53"/>
      <use x="63.476562" xlink:href="#DejaVuSans-6f"/>
      <use x="124.658203" xlink:href="#DejaVuSans-75"/>
      <use x="188.037109" xlink:href="#DejaVuSans-72"/>
      <use x="226.900391" xlink:href="#DejaVuSans-63"/>
      <use x="281.880859" xlink:href="#DejaVuSans-65"/>
      <use x="343.404297" xlink:href="#DejaVuSans-20"/>
      <use x="375.191406" xlink:href="#DejaVuSans-44"/>
      <use x="452.193359" xlink:href="#DejaVuSans-6f"/>
      <use x="513.375" xlink:href="#DejaVuSans-6d"/>
      <use x="610.787109" xlink:href="#DejaVuSans-61"/>
      <use x="672.066406" xlink:href="#DejaVuSans-69"/>
      <use x="699.849609" xlink:href="#DejaVuSans-6e"/>
     </g>
    </g>
    <g id="PathCollection_5">
     <g>
      <use style="fill:#ff0000;stroke:#ff0000;stroke-width:1.5;" x="73.091563" xlink:href="#ma8d2b0afef" y="47.312188"/>
     </g>
    </g>
    <g id="text_16">
     <!-- Target Domain -->
     <g transform="translate(98.291562 50.987188)scale(0.14 -0.14)">
      <defs>
       <path d="M -19 4666 
L 3928 4666 
L 3928 4134 
L 2272 4134 
L 2272 0 
L 1638 0 
L 1638 4134 
L -19 4134 
L -19 4666 
z
" id="DejaVuSans-54" transform="scale(0.015625)"/>
       <path d="M 2906 1791 
Q 2906 2416 2648 2759 
Q 2391 3103 1925 3103 
Q 1463 3103 1205 2759 
Q 947 2416 947 1791 
Q 947 1169 1205 825 
Q 1463 481 1925 481 
Q 2391 481 2648 825 
Q 2906 1169 2906 1791 
z
M 3481 434 
Q 3481 -459 3084 -895 
Q 2688 -1331 1869 -1331 
Q 1566 -1331 1297 -1286 
Q 1028 -1241 775 -1147 
L 775 -588 
Q 1028 -725 1275 -790 
Q 1522 -856 1778 -856 
Q 2344 -856 2625 -561 
Q 2906 -266 2906 331 
L 2906 616 
Q 2728 306 2450 153 
Q 2172 0 1784 0 
Q 1141 0 747 490 
Q 353 981 353 1791 
Q 353 2603 747 3093 
Q 1141 3584 1784 3584 
Q 2172 3584 2450 3431 
Q 2728 3278 2906 2969 
L 2906 3500 
L 3481 3500 
L 3481 434 
z
" id="DejaVuSans-67" transform="scale(0.015625)"/>
       <path d="M 1172 4494 
L 1172 3500 
L 2356 3500 
L 2356 3053 
L 1172 3053 
L 1172 1153 
Q 1172 725 1289 603 
Q 1406 481 1766 481 
L 2356 481 
L 2356 0 
L 1766 0 
Q 1100 0 847 248 
Q 594 497 594 1153 
L 594 3053 
L 172 3053 
L 172 3500 
L 594 3500 
L 594 4494 
L 1172 4494 
z
" id="DejaVuSans-74" transform="scale(0.015625)"/>
      </defs>
      <use xlink:href="#DejaVuSans-54"/>
      <use x="44.583984" xlink:href="#DejaVuSans-61"/>
      <use x="105.863281" xlink:href="#DejaVuSans-72"/>
      <use x="145.226562" xlink:href="#DejaVuSans-67"/>
      <use x="208.703125" xlink:href="#DejaVuSans-65"/>
      <use x="270.226562" xlink:href="#DejaVuSans-74"/>
      <use x="309.435547" xlink:href="#DejaVuSans-20"/>
      <use x="341.222656" xlink:href="#DejaVuSans-44"/>
      <use x="418.224609" xlink:href="#DejaVuSans-6f"/>
      <use x="479.40625" xlink:href="#DejaVuSans-6d"/>
      <use x="576.818359" xlink:href="#DejaVuSans-61"/>
      <use x="638.097656" xlink:href="#DejaVuSans-69"/>
      <use x="665.880859" xlink:href="#DejaVuSans-6e"/>
     </g>
    </g>
   </g>
  </g>
 </g>
 <defs>
  <clipPath id="pce5178adcb">
   <rect height="266.112" width="357.12" x="46.491563" y="7.2"/>
  </clipPath>
 </defs>
</svg>
