<?xml version="1.0" encoding="utf-8" standalone="no"?>
<!DOCTYPE svg PUBLIC "-//W3C//DTD SVG 1.1//EN"
  "http://www.w3.org/Graphics/SVG/1.1/DTD/svg11.dtd">
<svg height="314.7395pt" version="1.1" viewBox="0 0 410.811562 314.7395" width="410.811562pt" xmlns="http://www.w3.org/2000/svg" xmlns:xlink="http://www.w3.org/1999/xlink">
 <metadata>
  <rdf:RDF xmlns:cc="http://creativecommons.org/ns#" xmlns:dc="http://purl.org/dc/elements/1.1/" xmlns:rdf="http://www.w3.org/1999/02/22-rdf-syntax-ns#">
   <cc:Work>
    <dc:type rdf:resource="http://purl.org/dc/dcmitype/StillImage"/>
    <dc:date>2023-04-21T11:26:57.726966</dc:date>
    <dc:format>image/svg+xml</dc:format>
    <dc:creator>
     <cc:Agent>
      <dc:title>Matplotlib v3.4.3, https://matplotlib.org/</dc:title>
     </cc:Agent>
    </dc:creator>
   </cc:Work>
  </rdf:RDF>
 </metadata>
 <defs>
  <style type="text/css">*{stroke-linecap:butt;stroke-linejoin:round;}</style>
 </defs>
 <g id="figure_1">
  <g id="patch_1">
   <path d="M 0 314.7395 
L 410.811562 314.7395 
L 410.811562 0 
L 0 0 
z
" style="fill:#ffffff;"/>
  </g>
  <g id="axes_1">
   <g id="patch_2">
    <path d="M 46.491563 273.312 
L 403.611563 273.312 
L 403.611563 7.2 
L 46.491563 7.2 
z
" style="fill:#ffffff;"/>
   </g>
   <g id="PathCollection_1">
    <defs>
     <path d="M -2.236068 2.236068 
L 2.236068 -2.236068 
M -2.236068 -2.236068 
L 2.236068 2.236068 
" id="m2947dc9d45" style="stroke:#000000;stroke-width:1.5;"/>
    </defs>
    <g clip-path="url(#pbc8c283394)">
     <use style="stroke:#000000;stroke-width:1.5;" x="209.973844" xlink:href="#m2947dc9d45" y="141.653326"/>
     <use style="stroke:#000000;stroke-width:1.5;" x="256.320795" xlink:href="#m2947dc9d45" y="180.715243"/>
     <use style="stroke:#000000;stroke-width:1.5;" x="225.002539" xlink:href="#m2947dc9d45" y="89.617511"/>
     <use style="stroke:#000000;stroke-width:1.5;" x="208.878983" xlink:href="#m2947dc9d45" y="219.891976"/>
     <use style="stroke:#000000;stroke-width:1.5;" x="175.108664" xlink:href="#m2947dc9d45" y="180.362624"/>
     <use style="stroke:#000000;stroke-width:1.5;" x="237.017372" xlink:href="#m2947dc9d45" y="168.280744"/>
     <use style="stroke:#000000;stroke-width:1.5;" x="178.989785" xlink:href="#m2947dc9d45" y="129.166906"/>
     <use style="stroke:#000000;stroke-width:1.5;" x="305.511303" xlink:href="#m2947dc9d45" y="90.615227"/>
     <use style="stroke:#000000;stroke-width:1.5;" x="325.537472" xlink:href="#m2947dc9d45" y="128.325956"/>
     <use style="stroke:#000000;stroke-width:1.5;" x="163.906541" xlink:href="#m2947dc9d45" y="172.7994"/>
     <use style="stroke:#000000;stroke-width:1.5;" x="277.641166" xlink:href="#m2947dc9d45" y="178.751138"/>
     <use style="stroke:#000000;stroke-width:1.5;" x="204.425169" xlink:href="#m2947dc9d45" y="239.006431"/>
     <use style="stroke:#000000;stroke-width:1.5;" x="215.330997" xlink:href="#m2947dc9d45" y="180.652542"/>
     <use style="stroke:#000000;stroke-width:1.5;" x="314.933478" xlink:href="#m2947dc9d45" y="131.688504"/>
     <use style="stroke:#000000;stroke-width:1.5;" x="76.880452" xlink:href="#m2947dc9d45" y="172.159629"/>
     <use style="stroke:#000000;stroke-width:1.5;" x="81.36351" xlink:href="#m2947dc9d45" y="171.655642"/>
     <use style="stroke:#000000;stroke-width:1.5;" x="62.72429" xlink:href="#m2947dc9d45" y="231.045836"/>
     <use style="stroke:#000000;stroke-width:1.5;" x="289.033141" xlink:href="#m2947dc9d45" y="155.422263"/>
     <use style="stroke:#000000;stroke-width:1.5;" x="273.861479" xlink:href="#m2947dc9d45" y="185.3665"/>
     <use style="stroke:#000000;stroke-width:1.5;" x="299.449431" xlink:href="#m2947dc9d45" y="189.616108"/>
     <use style="stroke:#000000;stroke-width:1.5;" x="329.703615" xlink:href="#m2947dc9d45" y="189.503105"/>
     <use style="stroke:#000000;stroke-width:1.5;" x="279.711907" xlink:href="#m2947dc9d45" y="82.740424"/>
     <use style="stroke:#000000;stroke-width:1.5;" x="185.645368" xlink:href="#m2947dc9d45" y="195.630415"/>
     <use style="stroke:#000000;stroke-width:1.5;" x="274.52236" xlink:href="#m2947dc9d45" y="164.648533"/>
     <use style="stroke:#000000;stroke-width:1.5;" x="90.039538" xlink:href="#m2947dc9d45" y="251.333212"/>
     <use style="stroke:#000000;stroke-width:1.5;" x="235.353461" xlink:href="#m2947dc9d45" y="136.413164"/>
     <use style="stroke:#000000;stroke-width:1.5;" x="97.0257" xlink:href="#m2947dc9d45" y="261.216"/>
     <use style="stroke:#000000;stroke-width:1.5;" x="320.2464" xlink:href="#m2947dc9d45" y="142.377577"/>
     <use style="stroke:#000000;stroke-width:1.5;" x="202.462214" xlink:href="#m2947dc9d45" y="203.182282"/>
     <use style="stroke:#000000;stroke-width:1.5;" x="172.603544" xlink:href="#m2947dc9d45" y="169.709384"/>
    </g>
   </g>
   <g id="PathCollection_2">
    <path clip-path="url(#pbc8c283394)" d="M 209.973844 142.344713 
C 210.157202 142.344713 210.333075 142.271864 210.462729 142.14221 
C 210.592383 142.012557 210.665232 141.836684 210.665232 141.653326 
C 210.665232 141.469968 210.592383 141.294095 210.462729 141.164441 
C 210.333075 141.034787 210.157202 140.961938 209.973844 140.961938 
C 209.790486 140.961938 209.614613 141.034787 209.484959 141.164441 
C 209.355306 141.294095 209.282457 141.469968 209.282457 141.653326 
C 209.282457 141.836684 209.355306 142.012557 209.484959 142.14221 
C 209.614613 142.271864 209.790486 142.344713 209.973844 142.344713 
z
" style="fill:#00ffff;fill-opacity:0.5;stroke:#00ffff;stroke-opacity:0.5;"/>
    <path clip-path="url(#pbc8c283394)" d="M 256.320795 182.769738 
C 256.865654 182.769738 257.38827 182.553264 257.773543 182.167991 
C 258.158816 181.782718 258.37529 181.260102 258.37529 180.715243 
C 258.37529 180.170385 258.158816 179.647769 257.773543 179.262496 
C 257.38827 178.877223 256.865654 178.660749 256.320795 178.660749 
C 255.775937 178.660749 255.253321 178.877223 254.868048 179.262496 
C 254.482775 179.647769 254.2663 180.170385 254.2663 180.715243 
C 254.2663 181.260102 254.482775 181.782718 254.868048 182.167991 
C 255.253321 182.553264 255.775937 182.769738 256.320795 182.769738 
z
" style="fill:#00ffff;fill-opacity:0.5;stroke:#00ffff;stroke-opacity:0.5;"/>
    <path clip-path="url(#pbc8c283394)" d="M 225.002539 91.665834 
C 225.545761 91.665834 226.066807 91.45001 226.450922 91.065894 
C 226.835038 90.681779 227.050862 90.160733 227.050862 89.617511 
C 227.050862 89.074289 226.835038 88.553244 226.450922 88.169128 
C 226.066807 87.785012 225.545761 87.569188 225.002539 87.569188 
C 224.459317 87.569188 223.938272 87.785012 223.554156 88.169128 
C 223.17004 88.553244 222.954216 89.074289 222.954216 89.617511 
C 222.954216 90.160733 223.17004 90.681779 223.554156 91.065894 
C 223.938272 91.45001 224.459317 91.665834 225.002539 91.665834 
z
" style="fill:#00ffff;fill-opacity:0.5;stroke:#00ffff;stroke-opacity:0.5;"/>
    <path clip-path="url(#pbc8c283394)" d="M 208.878983 221.629415 
C 209.339758 221.629415 209.781722 221.446348 210.107538 221.120531 
C 210.433355 220.794715 210.616422 220.352751 210.616422 219.891976 
C 210.616422 219.431202 210.433355 218.989238 210.107538 218.663422 
C 209.781722 218.337605 209.339758 218.154538 208.878983 218.154538 
C 208.418209 218.154538 207.976245 218.337605 207.650429 218.663422 
C 207.324612 218.989238 207.141545 219.431202 207.141545 219.891976 
C 207.141545 220.352751 207.324612 220.794715 207.650429 221.120531 
C 207.976245 221.446348 208.418209 221.629415 208.878983 221.629415 
z
" style="fill:#00ffff;fill-opacity:0.5;stroke:#00ffff;stroke-opacity:0.5;"/>
    <path clip-path="url(#pbc8c283394)" d="M 175.108664 180.672566 
C 175.190862 180.672566 175.269704 180.639908 175.327827 180.581786 
C 175.385949 180.523663 175.418607 180.444821 175.418607 180.362624 
C 175.418607 180.280426 175.385949 180.201584 175.327827 180.143461 
C 175.269704 180.085339 175.190862 180.052681 175.108664 180.052681 
C 175.026467 180.052681 174.947624 180.085339 174.889502 180.143461 
C 174.831379 180.201584 174.798722 180.280426 174.798722 180.362624 
C 174.798722 180.444821 174.831379 180.523663 174.889502 180.581786 
C 174.947624 180.639908 175.026467 180.672566 175.108664 180.672566 
z
" style="fill:#00ffff;fill-opacity:0.5;stroke:#00ffff;stroke-opacity:0.5;"/>
    <path clip-path="url(#pbc8c283394)" d="M 237.017372 169.798015 
C 237.419757 169.798015 237.805715 169.638146 238.090245 169.353616 
C 238.374774 169.069087 238.534643 168.683129 238.534643 168.280744 
C 238.534643 167.878359 238.374774 167.4924 238.090245 167.207871 
C 237.805715 166.923342 237.419757 166.763473 237.017372 166.763473 
C 236.614987 166.763473 236.229028 166.923342 235.944499 167.207871 
C 235.65997 167.4924 235.500101 167.878359 235.500101 168.280744 
C 235.500101 168.683129 235.65997 169.069087 235.944499 169.353616 
C 236.229028 169.638146 236.614987 169.798015 237.017372 169.798015 
z
" style="fill:#00ffff;fill-opacity:0.5;stroke:#00ffff;stroke-opacity:0.5;"/>
    <path clip-path="url(#pbc8c283394)" d="M 178.989785 131.033229 
C 179.48474 131.033229 179.959489 130.836581 180.309475 130.486595 
C 180.65946 130.13661 180.856108 129.66186 180.856108 129.166906 
C 180.856108 128.671951 180.65946 128.197202 180.309475 127.847216 
C 179.959489 127.497231 179.48474 127.300583 178.989785 127.300583 
C 178.49483 127.300583 178.020081 127.497231 177.670096 127.847216 
C 177.32011 128.197202 177.123462 128.671951 177.123462 129.166906 
C 177.123462 129.66186 177.32011 130.13661 177.670096 130.486595 
C 178.020081 130.836581 178.49483 131.033229 178.989785 131.033229 
z
" style="fill:#00ffff;fill-opacity:0.5;stroke:#00ffff;stroke-opacity:0.5;"/>
    <path clip-path="url(#pbc8c283394)" d="M 305.511303 93.777505 
C 306.349949 93.777505 307.154359 93.444308 307.747371 92.851295 
C 308.340383 92.258283 308.67358 91.453873 308.67358 90.615227 
C 308.67358 89.776582 308.340383 88.972172 307.747371 88.379159 
C 307.154359 87.786147 306.349949 87.45295 305.511303 87.45295 
C 304.672657 87.45295 303.868247 87.786147 303.275235 88.379159 
C 302.682223 88.972172 302.349025 89.776582 302.349025 90.615227 
C 302.349025 91.453873 302.682223 92.258283 303.275235 92.851295 
C 303.868247 93.444308 304.672657 93.777505 305.511303 93.777505 
z
" style="fill:#00ffff;fill-opacity:0.5;stroke:#00ffff;stroke-opacity:0.5;"/>
    <path clip-path="url(#pbc8c283394)" d="M 325.537472 129.934444 
C 325.964048 129.934444 326.37321 129.764964 326.674845 129.463329 
C 326.97648 129.161694 327.14596 128.752532 327.14596 128.325956 
C 327.14596 127.89938 326.97648 127.490218 326.674845 127.188583 
C 326.37321 126.886949 325.964048 126.717468 325.537472 126.717468 
C 325.110896 126.717468 324.701734 126.886949 324.400099 127.188583 
C 324.098465 127.490218 323.928984 127.89938 323.928984 128.325956 
C 323.928984 128.752532 324.098465 129.161694 324.400099 129.463329 
C 324.701734 129.764964 325.110896 129.934444 325.537472 129.934444 
z
" style="fill:#00ffff;fill-opacity:0.5;stroke:#00ffff;stroke-opacity:0.5;"/>
    <path clip-path="url(#pbc8c283394)" d="M 163.906541 174.84111 
C 164.448009 174.84111 164.967372 174.625982 165.350248 174.243107 
C 165.733123 173.860231 165.948251 173.340868 165.948251 172.7994 
C 165.948251 172.257932 165.733123 171.738568 165.350248 171.355693 
C 164.967372 170.972817 164.448009 170.75769 163.906541 170.75769 
C 163.365073 170.75769 162.845709 170.972817 162.462834 171.355693 
C 162.079958 171.738568 161.864831 172.257932 161.864831 172.7994 
C 161.864831 173.340868 162.079958 173.860231 162.462834 174.243107 
C 162.845709 174.625982 163.365073 174.84111 163.906541 174.84111 
z
" style="fill:#00ffff;fill-opacity:0.5;stroke:#00ffff;stroke-opacity:0.5;"/>
    <path clip-path="url(#pbc8c283394)" d="M 277.641166 180.127468 
C 278.006173 180.127468 278.356279 179.982449 278.614378 179.72435 
C 278.872477 179.466251 279.017496 179.116145 279.017496 178.751138 
C 279.017496 178.38613 278.872477 178.036024 278.614378 177.777925 
C 278.356279 177.519826 278.006173 177.374807 277.641166 177.374807 
C 277.276159 177.374807 276.926052 177.519826 276.667953 177.777925 
C 276.409854 178.036024 276.264836 178.38613 276.264836 178.751138 
C 276.264836 179.116145 276.409854 179.466251 276.667953 179.72435 
C 276.926052 179.982449 277.276159 180.127468 277.641166 180.127468 
z
" style="fill:#00ffff;fill-opacity:0.5;stroke:#00ffff;stroke-opacity:0.5;"/>
    <path clip-path="url(#pbc8c283394)" d="M 204.425169 239.209773 
C 204.479096 239.209773 204.530821 239.188348 204.568954 239.150216 
C 204.607086 239.112083 204.628511 239.060358 204.628511 239.006431 
C 204.628511 238.952504 204.607086 238.900778 204.568954 238.862646 
C 204.530821 238.824514 204.479096 238.803088 204.425169 238.803088 
C 204.371242 238.803088 204.319516 238.824514 204.281384 238.862646 
C 204.243252 238.900778 204.221826 238.952504 204.221826 239.006431 
C 204.221826 239.060358 204.243252 239.112083 204.281384 239.150216 
C 204.319516 239.188348 204.371242 239.209773 204.425169 239.209773 
z
" style="fill:#00ffff;fill-opacity:0.5;stroke:#00ffff;stroke-opacity:0.5;"/>
    <path clip-path="url(#pbc8c283394)" d="M 215.330997 182.606313 
C 215.849143 182.606313 216.346137 182.400451 216.712521 182.034066 
C 217.078906 181.667682 217.284768 181.170688 217.284768 180.652542 
C 217.284768 180.134396 217.078906 179.637402 216.712521 179.271017 
C 216.346137 178.904633 215.849143 178.698771 215.330997 178.698771 
C 214.812851 178.698771 214.315857 178.904633 213.949472 179.271017 
C 213.583087 179.637402 213.377226 180.134396 213.377226 180.652542 
C 213.377226 181.170688 213.583087 181.667682 213.949472 182.034066 
C 214.315857 182.400451 214.812851 182.606313 215.330997 182.606313 
z
" style="fill:#00ffff;fill-opacity:0.5;stroke:#00ffff;stroke-opacity:0.5;"/>
    <path clip-path="url(#pbc8c283394)" d="M 314.933478 134.850781 
C 315.772124 134.850781 316.576533 134.517584 317.169546 133.924572 
C 317.762558 133.33156 318.095755 132.52715 318.095755 131.688504 
C 318.095755 130.849858 317.762558 130.045448 317.169546 129.452436 
C 316.576533 128.859424 315.772124 128.526226 314.933478 128.526226 
C 314.094832 128.526226 313.290422 128.859424 312.69741 129.452436 
C 312.104398 130.045448 311.7712 130.849858 311.7712 131.688504 
C 311.7712 132.52715 312.104398 133.33156 312.69741 133.924572 
C 313.290422 134.517584 314.094832 134.850781 314.933478 134.850781 
z
" style="fill:#00ffff;fill-opacity:0.5;stroke:#00ffff;stroke-opacity:0.5;"/>
    <path clip-path="url(#pbc8c283394)" d="M 76.880452 173.952417 
C 77.355905 173.952417 77.811948 173.763518 78.148144 173.427322 
C 78.48434 173.091126 78.67324 172.635082 78.67324 172.159629 
C 78.67324 171.684176 78.48434 171.228133 78.148144 170.891937 
C 77.811948 170.555741 77.355905 170.366841 76.880452 170.366841 
C 76.404999 170.366841 75.948955 170.555741 75.612759 170.891937 
C 75.276563 171.228133 75.087664 171.684176 75.087664 172.159629 
C 75.087664 172.635082 75.276563 173.091126 75.612759 173.427322 
C 75.948955 173.763518 76.404999 173.952417 76.880452 173.952417 
z
" style="fill:#00ffff;fill-opacity:0.5;stroke:#00ffff;stroke-opacity:0.5;"/>
    <path clip-path="url(#pbc8c283394)" d="M 81.36351 173.425425 
C 81.832862 173.425425 82.283054 173.23895 82.614936 172.907068 
C 82.946818 172.575186 83.133294 172.124994 83.133294 171.655642 
C 83.133294 171.186289 82.946818 170.736098 82.614936 170.404215 
C 82.283054 170.072333 81.832862 169.885858 81.36351 169.885858 
C 80.894158 169.885858 80.443966 170.072333 80.112084 170.404215 
C 79.780202 170.736098 79.593726 171.186289 79.593726 171.655642 
C 79.593726 172.124994 79.780202 172.575186 80.112084 172.907068 
C 80.443966 173.23895 80.894158 173.425425 81.36351 173.425425 
z
" style="fill:#00ffff;fill-opacity:0.5;stroke:#00ffff;stroke-opacity:0.5;"/>
    <path clip-path="url(#pbc8c283394)" d="M 62.72429 233.100321 
C 63.269146 233.100321 63.791759 232.883848 64.17703 232.498577 
C 64.562302 232.113305 64.778775 231.590692 64.778775 231.045836 
C 64.778775 230.50098 64.562302 229.978367 64.17703 229.593095 
C 63.791759 229.207824 63.269146 228.991351 62.72429 228.991351 
C 62.179434 228.991351 61.65682 229.207824 61.271549 229.593095 
C 60.886278 229.978367 60.669804 230.50098 60.669804 231.045836 
C 60.669804 231.590692 60.886278 232.113305 61.271549 232.498577 
C 61.65682 232.883848 62.179434 233.100321 62.72429 233.100321 
z
" style="fill:#00ffff;fill-opacity:0.5;stroke:#00ffff;stroke-opacity:0.5;"/>
    <path clip-path="url(#pbc8c283394)" d="M 289.033141 158.58454 
C 289.871787 158.58454 290.676197 158.251343 291.269209 157.658331 
C 291.862221 157.065319 292.195419 156.260909 292.195419 155.422263 
C 292.195419 154.583617 291.862221 153.779207 291.269209 153.186195 
C 290.676197 152.593183 289.871787 152.259985 289.033141 152.259985 
C 288.194495 152.259985 287.390085 152.593183 286.797073 153.186195 
C 286.204061 153.779207 285.870863 154.583617 285.870863 155.422263 
C 285.870863 156.260909 286.204061 157.065319 286.797073 157.658331 
C 287.390085 158.251343 288.194495 158.58454 289.033141 158.58454 
z
" style="fill:#00ffff;fill-opacity:0.5;stroke:#00ffff;stroke-opacity:0.5;"/>
    <path clip-path="url(#pbc8c283394)" d="M 273.861479 186.865117 
C 274.258917 186.865117 274.64013 186.707214 274.921161 186.426182 
C 275.202193 186.145151 275.360096 185.763938 275.360096 185.3665 
C 275.360096 184.969062 275.202193 184.587848 274.921161 184.306817 
C 274.64013 184.025786 274.258917 183.867882 273.861479 183.867882 
C 273.464041 183.867882 273.082827 184.025786 272.801796 184.306817 
C 272.520765 184.587848 272.362861 184.969062 272.362861 185.3665 
C 272.362861 185.763938 272.520765 186.145151 272.801796 186.426182 
C 273.082827 186.707214 273.464041 186.865117 273.861479 186.865117 
z
" style="fill:#00ffff;fill-opacity:0.5;stroke:#00ffff;stroke-opacity:0.5;"/>
    <path clip-path="url(#pbc8c283394)" d="M 299.449431 192.778385 
C 300.288077 192.778385 301.092487 192.445188 301.685499 191.852176 
C 302.278511 191.259164 302.611708 190.454754 302.611708 189.616108 
C 302.611708 188.777462 302.278511 187.973052 301.685499 187.38004 
C 301.092487 186.787028 300.288077 186.45383 299.449431 186.45383 
C 298.610785 186.45383 297.806375 186.787028 297.213363 187.38004 
C 296.620351 187.973052 296.287153 188.777462 296.287153 189.616108 
C 296.287153 190.454754 296.620351 191.259164 297.213363 191.852176 
C 297.806375 192.445188 298.610785 192.778385 299.449431 192.778385 
z
" style="fill:#00ffff;fill-opacity:0.5;stroke:#00ffff;stroke-opacity:0.5;"/>
    <path clip-path="url(#pbc8c283394)" d="M 329.703615 191.302469 
C 330.180812 191.302469 330.638528 191.112876 330.975957 190.775447 
C 331.313386 190.438018 331.502979 189.980302 331.502979 189.503105 
C 331.502979 189.025908 331.313386 188.568192 330.975957 188.230763 
C 330.638528 187.893333 330.180812 187.703741 329.703615 187.703741 
C 329.226418 187.703741 328.768702 187.893333 328.431273 188.230763 
C 328.093843 188.568192 327.904251 189.025908 327.904251 189.503105 
C 327.904251 189.980302 328.093843 190.438018 328.431273 190.775447 
C 328.768702 191.112876 329.226418 191.302469 329.703615 191.302469 
z
" style="fill:#00ffff;fill-opacity:0.5;stroke:#00ffff;stroke-opacity:0.5;"/>
    <path clip-path="url(#pbc8c283394)" d="M 279.711907 85.902701 
C 280.550553 85.902701 281.354962 85.569504 281.947975 84.976492 
C 282.540987 84.383479 282.874184 83.57907 282.874184 82.740424 
C 282.874184 81.901778 282.540987 81.097368 281.947975 80.504356 
C 281.354962 79.911344 280.550553 79.578146 279.711907 79.578146 
C 278.873261 79.578146 278.068851 79.911344 277.475839 80.504356 
C 276.882827 81.097368 276.549629 81.901778 276.549629 82.740424 
C 276.549629 83.57907 276.882827 84.383479 277.475839 84.976492 
C 278.068851 85.569504 278.873261 85.902701 279.711907 85.902701 
z
" style="fill:#00ffff;fill-opacity:0.5;stroke:#00ffff;stroke-opacity:0.5;"/>
    <path clip-path="url(#pbc8c283394)" d="M 185.645368 197.614137 
C 186.171457 197.614137 186.67607 197.40512 187.048071 197.033118 
C 187.420073 196.661117 187.62909 196.156504 187.62909 195.630415 
C 187.62909 195.104326 187.420073 194.599713 187.048071 194.227712 
C 186.67607 193.85571 186.171457 193.646693 185.645368 193.646693 
C 185.119279 193.646693 184.614666 193.85571 184.242665 194.227712 
C 183.870663 194.599713 183.661646 195.104326 183.661646 195.630415 
C 183.661646 196.156504 183.870663 196.661117 184.242665 197.033118 
C 184.614666 197.40512 185.119279 197.614137 185.645368 197.614137 
z
" style="fill:#00ffff;fill-opacity:0.5;stroke:#00ffff;stroke-opacity:0.5;"/>
    <path clip-path="url(#pbc8c283394)" d="M 274.52236 164.649648 
C 274.522655 164.649648 274.522939 164.64953 274.523148 164.649321 
C 274.523357 164.649112 274.523474 164.648829 274.523474 164.648533 
C 274.523474 164.648238 274.523357 164.647954 274.523148 164.647745 
C 274.522939 164.647537 274.522655 164.647419 274.52236 164.647419 
C 274.522064 164.647419 274.521781 164.647537 274.521572 164.647745 
C 274.521363 164.647954 274.521246 164.648238 274.521246 164.648533 
C 274.521246 164.648829 274.521363 164.649112 274.521572 164.649321 
C 274.521781 164.64953 274.522064 164.649648 274.52236 164.649648 
z
" style="fill:#00ffff;fill-opacity:0.5;stroke:#00ffff;stroke-opacity:0.5;"/>
    <path clip-path="url(#pbc8c283394)" d="M 90.039538 253.314104 
C 90.564877 253.314104 91.06877 253.105385 91.44024 252.733914 
C 91.811711 252.362444 92.02043 251.858551 92.02043 251.333212 
C 92.02043 250.807873 91.811711 250.30398 91.44024 249.932509 
C 91.06877 249.561039 90.564877 249.352319 90.039538 249.352319 
C 89.514199 249.352319 89.010306 249.561039 88.638835 249.932509 
C 88.267365 250.30398 88.058645 250.807873 88.058645 251.333212 
C 88.058645 251.858551 88.267365 252.362444 88.638835 252.733914 
C 89.010306 253.105385 89.514199 253.314104 90.039538 253.314104 
z
" style="fill:#00ffff;fill-opacity:0.5;stroke:#00ffff;stroke-opacity:0.5;"/>
    <path clip-path="url(#pbc8c283394)" d="M 235.353461 137.910566 
C 235.750577 137.910566 236.131481 137.752791 236.412285 137.471987 
C 236.693088 137.191184 236.850864 136.810279 236.850864 136.413164 
C 236.850864 136.016048 236.693088 135.635143 236.412285 135.35434 
C 236.131481 135.073537 235.750577 134.915761 235.353461 134.915761 
C 234.956345 134.915761 234.575441 135.073537 234.294638 135.35434 
C 234.013834 135.635143 233.856058 136.016048 233.856058 136.413164 
C 233.856058 136.810279 234.013834 137.191184 234.294638 137.471987 
C 234.575441 137.752791 234.956345 137.910566 235.353461 137.910566 
z
" style="fill:#00ffff;fill-opacity:0.5;stroke:#00ffff;stroke-opacity:0.5;"/>
    <path clip-path="url(#pbc8c283394)" d="M 97.0257 263.208928 
C 97.554231 263.208928 98.061185 262.99894 98.434913 262.625213 
C 98.80864 262.251485 99.018628 261.744531 99.018628 261.216 
C 99.018628 260.687469 98.80864 260.180515 98.434913 259.806787 
C 98.061185 259.43306 97.554231 259.223072 97.0257 259.223072 
C 96.49717 259.223072 95.990215 259.43306 95.616488 259.806787 
C 95.24276 260.180515 95.032773 260.687469 95.032773 261.216 
C 95.032773 261.744531 95.24276 262.251485 95.616488 262.625213 
C 95.990215 262.99894 96.49717 263.208928 97.0257 263.208928 
z
" style="fill:#00ffff;fill-opacity:0.5;stroke:#00ffff;stroke-opacity:0.5;"/>
    <path clip-path="url(#pbc8c283394)" d="M 320.2464 143.77514 
C 320.617038 143.77514 320.972546 143.627884 321.234626 143.365803 
C 321.496707 143.103723 321.643963 142.748215 321.643963 142.377577 
C 321.643963 142.006939 321.496707 141.651431 321.234626 141.38935 
C 320.972546 141.127269 320.617038 140.980013 320.2464 140.980013 
C 319.875761 140.980013 319.520254 141.127269 319.258173 141.38935 
C 318.996092 141.651431 318.848836 142.006939 318.848836 142.377577 
C 318.848836 142.748215 318.996092 143.103723 319.258173 143.365803 
C 319.520254 143.627884 319.875761 143.77514 320.2464 143.77514 
z
" style="fill:#00ffff;fill-opacity:0.5;stroke:#00ffff;stroke-opacity:0.5;"/>
    <path clip-path="url(#pbc8c283394)" d="M 202.462214 205.150179 
C 202.984106 205.150179 203.484693 204.942829 203.853727 204.573795 
C 204.222761 204.204762 204.430111 203.704175 204.430111 203.182282 
C 204.430111 202.66039 204.222761 202.159803 203.853727 201.790769 
C 203.484693 201.421736 202.984106 201.214386 202.462214 201.214386 
C 201.940321 201.214386 201.439734 201.421736 201.070701 201.790769 
C 200.701667 202.159803 200.494317 202.66039 200.494317 203.182282 
C 200.494317 203.704175 200.701667 204.204762 201.070701 204.573795 
C 201.439734 204.942829 201.940321 205.150179 202.462214 205.150179 
z
" style="fill:#00ffff;fill-opacity:0.5;stroke:#00ffff;stroke-opacity:0.5;"/>
    <path clip-path="url(#pbc8c283394)" d="M 172.603544 171.645138 
C 173.116912 171.645138 173.609323 171.441175 173.972329 171.078169 
C 174.335335 170.715163 174.539298 170.222752 174.539298 169.709384 
C 174.539298 169.196016 174.335335 168.703605 173.972329 168.340599 
C 173.609323 167.977593 173.116912 167.77363 172.603544 167.77363 
C 172.090176 167.77363 171.597765 167.977593 171.234759 168.340599 
C 170.871753 168.703605 170.667789 169.196016 170.667789 169.709384 
C 170.667789 170.222752 170.871753 170.715163 171.234759 171.078169 
C 171.597765 171.441175 172.090176 171.645138 172.603544 171.645138 
z
" style="fill:#00ffff;fill-opacity:0.5;stroke:#00ffff;stroke-opacity:0.5;"/>
   </g>
   <g id="PathCollection_3">
    <defs>
     <path d="M -2.236068 2.236068 
L 2.236068 -2.236068 
M -2.236068 -2.236068 
L 2.236068 2.236068 
" id="mf2e5736b30" style="stroke:#ff0000;stroke-width:1.5;"/>
    </defs>
    <g clip-path="url(#pbc8c283394)">
     <use style="fill:#ff0000;stroke:#ff0000;stroke-width:1.5;" x="387.378835" xlink:href="#mf2e5736b30" y="38.825975"/>
     <use style="fill:#ff0000;stroke:#ff0000;stroke-width:1.5;" x="282.836716" xlink:href="#mf2e5736b30" y="110.27304"/>
     <use style="fill:#ff0000;stroke:#ff0000;stroke-width:1.5;" x="368.203288" xlink:href="#mf2e5736b30" y="58.176776"/>
     <use style="fill:#ff0000;stroke:#ff0000;stroke-width:1.5;" x="384.242613" xlink:href="#mf2e5736b30" y="52.669215"/>
     <use style="fill:#ff0000;stroke:#ff0000;stroke-width:1.5;" x="349.380294" xlink:href="#mf2e5736b30" y="58.760851"/>
     <use style="fill:#ff0000;stroke:#ff0000;stroke-width:1.5;" x="311.256852" xlink:href="#mf2e5736b30" y="62.586164"/>
     <use style="fill:#ff0000;stroke:#ff0000;stroke-width:1.5;" x="307.533268" xlink:href="#mf2e5736b30" y="123.240547"/>
     <use style="fill:#ff0000;stroke:#ff0000;stroke-width:1.5;" x="385.875972" xlink:href="#mf2e5736b30" y="19.296"/>
     <use style="fill:#ff0000;stroke:#ff0000;stroke-width:1.5;" x="303.500717" xlink:href="#mf2e5736b30" y="93.75762"/>
     <use style="fill:#ff0000;stroke:#ff0000;stroke-width:1.5;" x="292.250616" xlink:href="#mf2e5736b30" y="95.174525"/>
    </g>
   </g>
   <g id="matplotlib.axis_1">
    <g id="xtick_1">
     <g id="line2d_1">
      <defs>
       <path d="M 0 0 
L 0 3.5 
" id="m7dc681166b" style="stroke:#000000;stroke-width:0.8;"/>
      </defs>
      <g>
       <use style="stroke:#000000;stroke-width:0.8;" x="84.948872" xlink:href="#m7dc681166b" y="273.312"/>
      </g>
     </g>
     <g id="text_1">
      <!-- −4 -->
      <g transform="translate(77.577778 287.910437)scale(0.1 -0.1)">
       <defs>
        <path d="M 678 2272 
L 4684 2272 
L 4684 1741 
L 678 1741 
L 678 2272 
z
" id="DejaVuSans-2212" transform="scale(0.015625)"/>
        <path d="M 2419 4116 
L 825 1625 
L 2419 1625 
L 2419 4116 
z
M 2253 4666 
L 3047 4666 
L 3047 1625 
L 3713 1625 
L 3713 1100 
L 3047 1100 
L 3047 0 
L 2419 0 
L 2419 1100 
L 313 1100 
L 313 1709 
L 2253 4666 
z
" id="DejaVuSans-34" transform="scale(0.015625)"/>
       </defs>
       <use xlink:href="#DejaVuSans-2212"/>
       <use x="83.789062" xlink:href="#DejaVuSans-34"/>
      </g>
     </g>
    </g>
    <g id="xtick_2">
     <g id="line2d_2">
      <g>
       <use style="stroke:#000000;stroke-width:0.8;" x="140.662424" xlink:href="#m7dc681166b" y="273.312"/>
      </g>
     </g>
     <g id="text_2">
      <!-- −2 -->
      <g transform="translate(133.29133 287.910437)scale(0.1 -0.1)">
       <defs>
        <path d="M 1228 531 
L 3431 531 
L 3431 0 
L 469 0 
L 469 531 
Q 828 903 1448 1529 
Q 2069 2156 2228 2338 
Q 2531 2678 2651 2914 
Q 2772 3150 2772 3378 
Q 2772 3750 2511 3984 
Q 2250 4219 1831 4219 
Q 1534 4219 1204 4116 
Q 875 4013 500 3803 
L 500 4441 
Q 881 4594 1212 4672 
Q 1544 4750 1819 4750 
Q 2544 4750 2975 4387 
Q 3406 4025 3406 3419 
Q 3406 3131 3298 2873 
Q 3191 2616 2906 2266 
Q 2828 2175 2409 1742 
Q 1991 1309 1228 531 
z
" id="DejaVuSans-32" transform="scale(0.015625)"/>
       </defs>
       <use xlink:href="#DejaVuSans-2212"/>
       <use x="83.789062" xlink:href="#DejaVuSans-32"/>
      </g>
     </g>
    </g>
    <g id="xtick_3">
     <g id="line2d_3">
      <g>
       <use style="stroke:#000000;stroke-width:0.8;" x="196.375976" xlink:href="#m7dc681166b" y="273.312"/>
      </g>
     </g>
     <g id="text_3">
      <!-- 0 -->
      <g transform="translate(193.194726 287.910437)scale(0.1 -0.1)">
       <defs>
        <path d="M 2034 4250 
Q 1547 4250 1301 3770 
Q 1056 3291 1056 2328 
Q 1056 1369 1301 889 
Q 1547 409 2034 409 
Q 2525 409 2770 889 
Q 3016 1369 3016 2328 
Q 3016 3291 2770 3770 
Q 2525 4250 2034 4250 
z
M 2034 4750 
Q 2819 4750 3233 4129 
Q 3647 3509 3647 2328 
Q 3647 1150 3233 529 
Q 2819 -91 2034 -91 
Q 1250 -91 836 529 
Q 422 1150 422 2328 
Q 422 3509 836 4129 
Q 1250 4750 2034 4750 
z
" id="DejaVuSans-30" transform="scale(0.015625)"/>
       </defs>
       <use xlink:href="#DejaVuSans-30"/>
      </g>
     </g>
    </g>
    <g id="xtick_4">
     <g id="line2d_4">
      <g>
       <use style="stroke:#000000;stroke-width:0.8;" x="252.089528" xlink:href="#m7dc681166b" y="273.312"/>
      </g>
     </g>
     <g id="text_4">
      <!-- 2 -->
      <g transform="translate(248.908278 287.910437)scale(0.1 -0.1)">
       <use xlink:href="#DejaVuSans-32"/>
      </g>
     </g>
    </g>
    <g id="xtick_5">
     <g id="line2d_5">
      <g>
       <use style="stroke:#000000;stroke-width:0.8;" x="307.803079" xlink:href="#m7dc681166b" y="273.312"/>
      </g>
     </g>
     <g id="text_5">
      <!-- 4 -->
      <g transform="translate(304.621829 287.910437)scale(0.1 -0.1)">
       <use xlink:href="#DejaVuSans-34"/>
      </g>
     </g>
    </g>
    <g id="xtick_6">
     <g id="line2d_6">
      <g>
       <use style="stroke:#000000;stroke-width:0.8;" x="363.516631" xlink:href="#m7dc681166b" y="273.312"/>
      </g>
     </g>
     <g id="text_6">
      <!-- 6 -->
      <g transform="translate(360.335381 287.910437)scale(0.1 -0.1)">
       <defs>
        <path d="M 2113 2584 
Q 1688 2584 1439 2293 
Q 1191 2003 1191 1497 
Q 1191 994 1439 701 
Q 1688 409 2113 409 
Q 2538 409 2786 701 
Q 3034 994 3034 1497 
Q 3034 2003 2786 2293 
Q 2538 2584 2113 2584 
z
M 3366 4563 
L 3366 3988 
Q 3128 4100 2886 4159 
Q 2644 4219 2406 4219 
Q 1781 4219 1451 3797 
Q 1122 3375 1075 2522 
Q 1259 2794 1537 2939 
Q 1816 3084 2150 3084 
Q 2853 3084 3261 2657 
Q 3669 2231 3669 1497 
Q 3669 778 3244 343 
Q 2819 -91 2113 -91 
Q 1303 -91 875 529 
Q 447 1150 447 2328 
Q 447 3434 972 4092 
Q 1497 4750 2381 4750 
Q 2619 4750 2861 4703 
Q 3103 4656 3366 4563 
z
" id="DejaVuSans-36" transform="scale(0.015625)"/>
       </defs>
       <use xlink:href="#DejaVuSans-36"/>
      </g>
     </g>
    </g>
    <g id="text_7">
     <!-- x -->
     <g transform="translate(220.908438 304.627937)scale(0.14 -0.14)">
      <defs>
       <path d="M 3513 3500 
L 2247 1797 
L 3578 0 
L 2900 0 
L 1881 1375 
L 863 0 
L 184 0 
L 1544 1831 
L 300 3500 
L 978 3500 
L 1906 2253 
L 2834 3500 
L 3513 3500 
z
" id="DejaVuSans-78" transform="scale(0.015625)"/>
      </defs>
      <use xlink:href="#DejaVuSans-78"/>
     </g>
    </g>
   </g>
   <g id="matplotlib.axis_2">
    <g id="ytick_1">
     <g id="line2d_7">
      <defs>
       <path d="M 0 0 
L -3.5 0 
" id="m73dd977cdc" style="stroke:#000000;stroke-width:0.8;"/>
      </defs>
      <g>
       <use style="stroke:#000000;stroke-width:0.8;" x="46.491563" xlink:href="#m73dd977cdc" y="269.110939"/>
      </g>
     </g>
     <g id="text_8">
      <!-- −5 -->
      <g transform="translate(24.749375 272.910158)scale(0.1 -0.1)">
       <defs>
        <path d="M 691 4666 
L 3169 4666 
L 3169 4134 
L 1269 4134 
L 1269 2991 
Q 1406 3038 1543 3061 
Q 1681 3084 1819 3084 
Q 2600 3084 3056 2656 
Q 3513 2228 3513 1497 
Q 3513 744 3044 326 
Q 2575 -91 1722 -91 
Q 1428 -91 1123 -41 
Q 819 9 494 109 
L 494 744 
Q 775 591 1075 516 
Q 1375 441 1709 441 
Q 2250 441 2565 725 
Q 2881 1009 2881 1497 
Q 2881 1984 2565 2268 
Q 2250 2553 1709 2553 
Q 1456 2553 1204 2497 
Q 953 2441 691 2322 
L 691 4666 
z
" id="DejaVuSans-35" transform="scale(0.015625)"/>
       </defs>
       <use xlink:href="#DejaVuSans-2212"/>
       <use x="83.789062" xlink:href="#DejaVuSans-35"/>
      </g>
     </g>
    </g>
    <g id="ytick_2">
     <g id="line2d_8">
      <g>
       <use style="stroke:#000000;stroke-width:0.8;" x="46.491563" xlink:href="#m73dd977cdc" y="224.325392"/>
      </g>
     </g>
     <g id="text_9">
      <!-- 0 -->
      <g transform="translate(33.129063 228.124611)scale(0.1 -0.1)">
       <use xlink:href="#DejaVuSans-30"/>
      </g>
     </g>
    </g>
    <g id="ytick_3">
     <g id="line2d_9">
      <g>
       <use style="stroke:#000000;stroke-width:0.8;" x="46.491563" xlink:href="#m73dd977cdc" y="179.539845"/>
      </g>
     </g>
     <g id="text_10">
      <!-- 5 -->
      <g transform="translate(33.129063 183.339064)scale(0.1 -0.1)">
       <use xlink:href="#DejaVuSans-35"/>
      </g>
     </g>
    </g>
    <g id="ytick_4">
     <g id="line2d_10">
      <g>
       <use style="stroke:#000000;stroke-width:0.8;" x="46.491563" xlink:href="#m73dd977cdc" y="134.754298"/>
      </g>
     </g>
     <g id="text_11">
      <!-- 10 -->
      <g transform="translate(26.766562 138.553517)scale(0.1 -0.1)">
       <defs>
        <path d="M 794 531 
L 1825 531 
L 1825 4091 
L 703 3866 
L 703 4441 
L 1819 4666 
L 2450 4666 
L 2450 531 
L 3481 531 
L 3481 0 
L 794 0 
L 794 531 
z
" id="DejaVuSans-31" transform="scale(0.015625)"/>
       </defs>
       <use xlink:href="#DejaVuSans-31"/>
       <use x="63.623047" xlink:href="#DejaVuSans-30"/>
      </g>
     </g>
    </g>
    <g id="ytick_5">
     <g id="line2d_11">
      <g>
       <use style="stroke:#000000;stroke-width:0.8;" x="46.491563" xlink:href="#m73dd977cdc" y="89.968752"/>
      </g>
     </g>
     <g id="text_12">
      <!-- 15 -->
      <g transform="translate(26.766562 93.76797)scale(0.1 -0.1)">
       <use xlink:href="#DejaVuSans-31"/>
       <use x="63.623047" xlink:href="#DejaVuSans-35"/>
      </g>
     </g>
    </g>
    <g id="ytick_6">
     <g id="line2d_12">
      <g>
       <use style="stroke:#000000;stroke-width:0.8;" x="46.491563" xlink:href="#m73dd977cdc" y="45.183205"/>
      </g>
     </g>
     <g id="text_13">
      <!-- 20 -->
      <g transform="translate(26.766562 48.982423)scale(0.1 -0.1)">
       <use xlink:href="#DejaVuSans-32"/>
       <use x="63.623047" xlink:href="#DejaVuSans-30"/>
      </g>
     </g>
    </g>
    <g id="text_14">
     <!-- y -->
     <g transform="translate(17.837812 144.399125)rotate(-90)scale(0.14 -0.14)">
      <defs>
       <path d="M 2059 -325 
Q 1816 -950 1584 -1140 
Q 1353 -1331 966 -1331 
L 506 -1331 
L 506 -850 
L 844 -850 
Q 1081 -850 1212 -737 
Q 1344 -625 1503 -206 
L 1606 56 
L 191 3500 
L 800 3500 
L 1894 763 
L 2988 3500 
L 3597 3500 
L 2059 -325 
z
" id="DejaVuSans-79" transform="scale(0.015625)"/>
      </defs>
      <use xlink:href="#DejaVuSans-79"/>
     </g>
    </g>
   </g>
   <g id="patch_3">
    <path d="M 46.491563 273.312 
L 46.491563 7.2 
" style="fill:none;stroke:#000000;stroke-linecap:square;stroke-linejoin:miter;stroke-width:0.8;"/>
   </g>
   <g id="patch_4">
    <path d="M 403.611563 273.312 
L 403.611563 7.2 
" style="fill:none;stroke:#000000;stroke-linecap:square;stroke-linejoin:miter;stroke-width:0.8;"/>
   </g>
   <g id="patch_5">
    <path d="M 46.491563 273.312 
L 403.611563 273.312 
" style="fill:none;stroke:#000000;stroke-linecap:square;stroke-linejoin:miter;stroke-width:0.8;"/>
   </g>
   <g id="patch_6">
    <path d="M 46.491563 7.2 
L 403.611563 7.2 
" style="fill:none;stroke:#000000;stroke-linecap:square;stroke-linejoin:miter;stroke-width:0.8;"/>
   </g>
   <g id="legend_1">
    <g id="patch_7">
     <path d="M 56.291562 59.49875 
L 207.944375 59.49875 
Q 210.744375 59.49875 210.744375 56.69875 
L 210.744375 17 
Q 210.744375 14.2 207.944375 14.2 
L 56.291562 14.2 
Q 53.491563 14.2 53.491563 17 
L 53.491563 56.69875 
Q 53.491563 59.49875 56.291562 59.49875 
z
" style="fill:#ffffff;opacity:0.8;stroke:#cccccc;stroke-linejoin:miter;"/>
    </g>
    <g id="PathCollection_4">
     <g>
      <use style="stroke:#000000;stroke-width:1.5;" x="73.091563" xlink:href="#m2947dc9d45" y="26.762813"/>
     </g>
    </g>
    <g id="text_15">
     <!-- Source Domain -->
     <g transform="translate(98.291562 30.437813)scale(0.14 -0.14)">
      <defs>
       <path d="M 3425 4513 
L 3425 3897 
Q 3066 4069 2747 4153 
Q 2428 4238 2131 4238 
Q 1616 4238 1336 4038 
Q 1056 3838 1056 3469 
Q 1056 3159 1242 3001 
Q 1428 2844 1947 2747 
L 2328 2669 
Q 3034 2534 3370 2195 
Q 3706 1856 3706 1288 
Q 3706 609 3251 259 
Q 2797 -91 1919 -91 
Q 1588 -91 1214 -16 
Q 841 59 441 206 
L 441 856 
Q 825 641 1194 531 
Q 1563 422 1919 422 
Q 2459 422 2753 634 
Q 3047 847 3047 1241 
Q 3047 1584 2836 1778 
Q 2625 1972 2144 2069 
L 1759 2144 
Q 1053 2284 737 2584 
Q 422 2884 422 3419 
Q 422 4038 858 4394 
Q 1294 4750 2059 4750 
Q 2388 4750 2728 4690 
Q 3069 4631 3425 4513 
z
" id="DejaVuSans-53" transform="scale(0.015625)"/>
       <path d="M 1959 3097 
Q 1497 3097 1228 2736 
Q 959 2375 959 1747 
Q 959 1119 1226 758 
Q 1494 397 1959 397 
Q 2419 397 2687 759 
Q 2956 1122 2956 1747 
Q 2956 2369 2687 2733 
Q 2419 3097 1959 3097 
z
M 1959 3584 
Q 2709 3584 3137 3096 
Q 3566 2609 3566 1747 
Q 3566 888 3137 398 
Q 2709 -91 1959 -91 
Q 1206 -91 779 398 
Q 353 888 353 1747 
Q 353 2609 779 3096 
Q 1206 3584 1959 3584 
z
" id="DejaVuSans-6f" transform="scale(0.015625)"/>
       <path d="M 544 1381 
L 544 3500 
L 1119 3500 
L 1119 1403 
Q 1119 906 1312 657 
Q 1506 409 1894 409 
Q 2359 409 2629 706 
Q 2900 1003 2900 1516 
L 2900 3500 
L 3475 3500 
L 3475 0 
L 2900 0 
L 2900 538 
Q 2691 219 2414 64 
Q 2138 -91 1772 -91 
Q 1169 -91 856 284 
Q 544 659 544 1381 
z
M 1991 3584 
L 1991 3584 
z
" id="DejaVuSans-75" transform="scale(0.015625)"/>
       <path d="M 2631 2963 
Q 2534 3019 2420 3045 
Q 2306 3072 2169 3072 
Q 1681 3072 1420 2755 
Q 1159 2438 1159 1844 
L 1159 0 
L 581 0 
L 581 3500 
L 1159 3500 
L 1159 2956 
Q 1341 3275 1631 3429 
Q 1922 3584 2338 3584 
Q 2397 3584 2469 3576 
Q 2541 3569 2628 3553 
L 2631 2963 
z
" id="DejaVuSans-72" transform="scale(0.015625)"/>
       <path d="M 3122 3366 
L 3122 2828 
Q 2878 2963 2633 3030 
Q 2388 3097 2138 3097 
Q 1578 3097 1268 2742 
Q 959 2388 959 1747 
Q 959 1106 1268 751 
Q 1578 397 2138 397 
Q 2388 397 2633 464 
Q 2878 531 3122 666 
L 3122 134 
Q 2881 22 2623 -34 
Q 2366 -91 2075 -91 
Q 1284 -91 818 406 
Q 353 903 353 1747 
Q 353 2603 823 3093 
Q 1294 3584 2113 3584 
Q 2378 3584 2631 3529 
Q 2884 3475 3122 3366 
z
" id="DejaVuSans-63" transform="scale(0.015625)"/>
       <path d="M 3597 1894 
L 3597 1613 
L 953 1613 
Q 991 1019 1311 708 
Q 1631 397 2203 397 
Q 2534 397 2845 478 
Q 3156 559 3463 722 
L 3463 178 
Q 3153 47 2828 -22 
Q 2503 -91 2169 -91 
Q 1331 -91 842 396 
Q 353 884 353 1716 
Q 353 2575 817 3079 
Q 1281 3584 2069 3584 
Q 2775 3584 3186 3129 
Q 3597 2675 3597 1894 
z
M 3022 2063 
Q 3016 2534 2758 2815 
Q 2500 3097 2075 3097 
Q 1594 3097 1305 2825 
Q 1016 2553 972 2059 
L 3022 2063 
z
" id="DejaVuSans-65" transform="scale(0.015625)"/>
       <path id="DejaVuSans-20" transform="scale(0.015625)"/>
       <path d="M 1259 4147 
L 1259 519 
L 2022 519 
Q 2988 519 3436 956 
Q 3884 1394 3884 2338 
Q 3884 3275 3436 3711 
Q 2988 4147 2022 4147 
L 1259 4147 
z
M 628 4666 
L 1925 4666 
Q 3281 4666 3915 4102 
Q 4550 3538 4550 2338 
Q 4550 1131 3912 565 
Q 3275 0 1925 0 
L 628 0 
L 628 4666 
z
" id="DejaVuSans-44" transform="scale(0.015625)"/>
       <path d="M 3328 2828 
Q 3544 3216 3844 3400 
Q 4144 3584 4550 3584 
Q 5097 3584 5394 3201 
Q 5691 2819 5691 2113 
L 5691 0 
L 5113 0 
L 5113 2094 
Q 5113 2597 4934 2840 
Q 4756 3084 4391 3084 
Q 3944 3084 3684 2787 
Q 3425 2491 3425 1978 
L 3425 0 
L 2847 0 
L 2847 2094 
Q 2847 2600 2669 2842 
Q 2491 3084 2119 3084 
Q 1678 3084 1418 2786 
Q 1159 2488 1159 1978 
L 1159 0 
L 581 0 
L 581 3500 
L 1159 3500 
L 1159 2956 
Q 1356 3278 1631 3431 
Q 1906 3584 2284 3584 
Q 2666 3584 2933 3390 
Q 3200 3197 3328 2828 
z
" id="DejaVuSans-6d" transform="scale(0.015625)"/>
       <path d="M 2194 1759 
Q 1497 1759 1228 1600 
Q 959 1441 959 1056 
Q 959 750 1161 570 
Q 1363 391 1709 391 
Q 2188 391 2477 730 
Q 2766 1069 2766 1631 
L 2766 1759 
L 2194 1759 
z
M 3341 1997 
L 3341 0 
L 2766 0 
L 2766 531 
Q 2569 213 2275 61 
Q 1981 -91 1556 -91 
Q 1019 -91 701 211 
Q 384 513 384 1019 
Q 384 1609 779 1909 
Q 1175 2209 1959 2209 
L 2766 2209 
L 2766 2266 
Q 2766 2663 2505 2880 
Q 2244 3097 1772 3097 
Q 1472 3097 1187 3025 
Q 903 2953 641 2809 
L 641 3341 
Q 956 3463 1253 3523 
Q 1550 3584 1831 3584 
Q 2591 3584 2966 3190 
Q 3341 2797 3341 1997 
z
" id="DejaVuSans-61" transform="scale(0.015625)"/>
       <path d="M 603 3500 
L 1178 3500 
L 1178 0 
L 603 0 
L 603 3500 
z
M 603 4863 
L 1178 4863 
L 1178 4134 
L 603 4134 
L 603 4863 
z
" id="DejaVuSans-69" transform="scale(0.015625)"/>
       <path d="M 3513 2113 
L 3513 0 
L 2938 0 
L 2938 2094 
Q 2938 2591 2744 2837 
Q 2550 3084 2163 3084 
Q 1697 3084 1428 2787 
Q 1159 2491 1159 1978 
L 1159 0 
L 581 0 
L 581 3500 
L 1159 3500 
L 1159 2956 
Q 1366 3272 1645 3428 
Q 1925 3584 2291 3584 
Q 2894 3584 3203 3211 
Q 3513 2838 3513 2113 
z
" id="DejaVuSans-6e" transform="scale(0.015625)"/>
      </defs>
      <use xlink:href="#DejaVuSans-53"/>
      <use x="63.476562" xlink:href="#DejaVuSans-6f"/>
      <use x="124.658203" xlink:href="#DejaVuSans-75"/>
      <use x="188.037109" xlink:href="#DejaVuSans-72"/>
      <use x="226.900391" xlink:href="#DejaVuSans-63"/>
      <use x="281.880859" xlink:href="#DejaVuSans-65"/>
      <use x="343.404297" xlink:href="#DejaVuSans-20"/>
      <use x="375.191406" xlink:href="#DejaVuSans-44"/>
      <use x="452.193359" xlink:href="#DejaVuSans-6f"/>
      <use x="513.375" xlink:href="#DejaVuSans-6d"/>
      <use x="610.787109" xlink:href="#DejaVuSans-61"/>
      <use x="672.066406" xlink:href="#DejaVuSans-69"/>
      <use x="699.849609" xlink:href="#DejaVuSans-6e"/>
     </g>
    </g>
    <g id="PathCollection_5">
     <g>
      <use style="fill:#ff0000;stroke:#ff0000;stroke-width:1.5;" x="73.091563" xlink:href="#mf2e5736b30" y="47.312188"/>
     </g>
    </g>
    <g id="text_16">
     <!-- Target Domain -->
     <g transform="translate(98.291562 50.987188)scale(0.14 -0.14)">
      <defs>
       <path d="M -19 4666 
L 3928 4666 
L 3928 4134 
L 2272 4134 
L 2272 0 
L 1638 0 
L 1638 4134 
L -19 4134 
L -19 4666 
z
" id="DejaVuSans-54" transform="scale(0.015625)"/>
       <path d="M 2906 1791 
Q 2906 2416 2648 2759 
Q 2391 3103 1925 3103 
Q 1463 3103 1205 2759 
Q 947 2416 947 1791 
Q 947 1169 1205 825 
Q 1463 481 1925 481 
Q 2391 481 2648 825 
Q 2906 1169 2906 1791 
z
M 3481 434 
Q 3481 -459 3084 -895 
Q 2688 -1331 1869 -1331 
Q 1566 -1331 1297 -1286 
Q 1028 -1241 775 -1147 
L 775 -588 
Q 1028 -725 1275 -790 
Q 1522 -856 1778 -856 
Q 2344 -856 2625 -561 
Q 2906 -266 2906 331 
L 2906 616 
Q 2728 306 2450 153 
Q 2172 0 1784 0 
Q 1141 0 747 490 
Q 353 981 353 1791 
Q 353 2603 747 3093 
Q 1141 3584 1784 3584 
Q 2172 3584 2450 3431 
Q 2728 3278 2906 2969 
L 2906 3500 
L 3481 3500 
L 3481 434 
z
" id="DejaVuSans-67" transform="scale(0.015625)"/>
       <path d="M 1172 4494 
L 1172 3500 
L 2356 3500 
L 2356 3053 
L 1172 3053 
L 1172 1153 
Q 1172 725 1289 603 
Q 1406 481 1766 481 
L 2356 481 
L 2356 0 
L 1766 0 
Q 1100 0 847 248 
Q 594 497 594 1153 
L 594 3053 
L 172 3053 
L 172 3500 
L 594 3500 
L 594 4494 
L 1172 4494 
z
" id="DejaVuSans-74" transform="scale(0.015625)"/>
      </defs>
      <use xlink:href="#DejaVuSans-54"/>
      <use x="44.583984" xlink:href="#DejaVuSans-61"/>
      <use x="105.863281" xlink:href="#DejaVuSans-72"/>
      <use x="145.226562" xlink:href="#DejaVuSans-67"/>
      <use x="208.703125" xlink:href="#DejaVuSans-65"/>
      <use x="270.226562" xlink:href="#DejaVuSans-74"/>
      <use x="309.435547" xlink:href="#DejaVuSans-20"/>
      <use x="341.222656" xlink:href="#DejaVuSans-44"/>
      <use x="418.224609" xlink:href="#DejaVuSans-6f"/>
      <use x="479.40625" xlink:href="#DejaVuSans-6d"/>
      <use x="576.818359" xlink:href="#DejaVuSans-61"/>
      <use x="638.097656" xlink:href="#DejaVuSans-69"/>
      <use x="665.880859" xlink:href="#DejaVuSans-6e"/>
     </g>
    </g>
   </g>
  </g>
 </g>
 <defs>
  <clipPath id="pbc8c283394">
   <rect height="266.112" width="357.12" x="46.491563" y="7.2"/>
  </clipPath>
 </defs>
</svg>
