<?xml version="1.0" encoding="utf-8" standalone="no"?>
<!DOCTYPE svg PUBLIC "-//W3C//DTD SVG 1.1//EN"
  "http://www.w3.org/Graphics/SVG/1.1/DTD/svg11.dtd">
<svg height="318.489892pt" version="1.1" viewBox="0 0 415.156875 318.489892" width="415.156875pt" xmlns="http://www.w3.org/2000/svg" xmlns:xlink="http://www.w3.org/1999/xlink">
 <metadata>
  <rdf:RDF xmlns:cc="http://creativecommons.org/ns#" xmlns:dc="http://purl.org/dc/elements/1.1/" xmlns:rdf="http://www.w3.org/1999/02/22-rdf-syntax-ns#">
   <cc:Work>
    <dc:type rdf:resource="http://purl.org/dc/dcmitype/StillImage"/>
    <dc:date>2023-05-01T10:26:27.459084</dc:date>
    <dc:format>image/svg+xml</dc:format>
    <dc:creator>
     <cc:Agent>
      <dc:title>Matplotlib v3.4.3, https://matplotlib.org/</dc:title>
     </cc:Agent>
    </dc:creator>
   </cc:Work>
  </rdf:RDF>
 </metadata>
 <defs>
  <style type="text/css">*{stroke-linecap:butt;stroke-linejoin:round;}</style>
 </defs>
 <g id="figure_1">
  <g id="patch_1">
   <path d="M 0 318.489892 
L 415.156875 318.489892 
L 415.156875 0 
L 0 0 
z
" style="fill:#ffffff;"/>
  </g>
  <g id="axes_1">
   <g id="patch_2">
    <path d="M 50.836875 277.062392 
L 407.956875 277.062392 
L 407.956875 10.950392 
L 50.836875 10.950392 
z
" style="fill:#ffffff;"/>
   </g>
   <g id="PathCollection_1">
    <defs>
     <path d="M -2.236068 2.236068 
L 2.236068 -2.236068 
M -2.236068 -2.236068 
L 2.236068 2.236068 
" id="md432e1f00c" style="stroke:#000000;stroke-width:1.5;"/>
    </defs>
    <g clip-path="url(#pb27afad121)">
     <use style="stroke:#000000;stroke-width:1.5;" x="307.103841" xlink:href="#md432e1f00c" y="219.144512"/>
     <use style="stroke:#000000;stroke-width:1.5;" x="70.371866" xlink:href="#md432e1f00c" y="259.440543"/>
     <use style="stroke:#000000;stroke-width:1.5;" x="170.796427" xlink:href="#md432e1f00c" y="257.703129"/>
     <use style="stroke:#000000;stroke-width:1.5;" x="389.869351" xlink:href="#md432e1f00c" y="188.773132"/>
     <use style="stroke:#000000;stroke-width:1.5;" x="325.069368" xlink:href="#md432e1f00c" y="213.671032"/>
     <use style="stroke:#000000;stroke-width:1.5;" x="-1" xlink:href="#md432e1f00c" y="207.319001"/>
     <use style="stroke:#000000;stroke-width:1.5;" x="-1" xlink:href="#md432e1f00c" y="228.003834"/>
     <use style="stroke:#000000;stroke-width:1.5;" x="165.823707" xlink:href="#md432e1f00c" y="251.829152"/>
     <use style="stroke:#000000;stroke-width:1.5;" x="-1" xlink:href="#md432e1f00c" y="246.911185"/>
     <use style="stroke:#000000;stroke-width:1.5;" x="-1" xlink:href="#md432e1f00c" y="254.27712"/>
     <use style="stroke:#000000;stroke-width:1.5;" x="72.184167" xlink:href="#md432e1f00c" y="261.599332"/>
     <use style="stroke:#000000;stroke-width:1.5;" x="25.918092" xlink:href="#md432e1f00c" y="260.846564"/>
     <use style="stroke:#000000;stroke-width:1.5;" x="253.33537" xlink:href="#md432e1f00c" y="241.761524"/>
     <use style="stroke:#000000;stroke-width:1.5;" x="133.010082" xlink:href="#md432e1f00c" y="264.395606"/>
     <use style="stroke:#000000;stroke-width:1.5;" x="22.03557" xlink:href="#md432e1f00c" y="251.131984"/>
     <use style="stroke:#000000;stroke-width:1.5;" x="77.957943" xlink:href="#md432e1f00c" y="262.366578"/>
     <use style="stroke:#000000;stroke-width:1.5;" x="58.832399" xlink:href="#md432e1f00c" y="261.51211"/>
     <use style="stroke:#000000;stroke-width:1.5;" x="260.244442" xlink:href="#md432e1f00c" y="239.241606"/>
     <use style="stroke:#000000;stroke-width:1.5;" x="-1" xlink:href="#md432e1f00c" y="244.896167"/>
     <use style="stroke:#000000;stroke-width:1.5;" x="-1" xlink:href="#md432e1f00c" y="252.870186"/>
     <use style="stroke:#000000;stroke-width:1.5;" x="55.255696" xlink:href="#md432e1f00c" y="264.966392"/>
     <use style="stroke:#000000;stroke-width:1.5;" x="-1" xlink:href="#md432e1f00c" y="250.868591"/>
     <use style="stroke:#000000;stroke-width:1.5;" x="-1" xlink:href="#md432e1f00c" y="210.14086"/>
     <use style="stroke:#000000;stroke-width:1.5;" x="114.365288" xlink:href="#md432e1f00c" y="259.061637"/>
     <use style="stroke:#000000;stroke-width:1.5;" x="150.957007" xlink:href="#md432e1f00c" y="259.023171"/>
     <use style="stroke:#000000;stroke-width:1.5;" x="-1" xlink:href="#md432e1f00c" y="240.318262"/>
     <use style="stroke:#000000;stroke-width:1.5;" x="-1" xlink:href="#md432e1f00c" y="213.874022"/>
     <use style="stroke:#000000;stroke-width:1.5;" x="394.878843" xlink:href="#md432e1f00c" y="180.109353"/>
     <use style="stroke:#000000;stroke-width:1.5;" x="-1" xlink:href="#md432e1f00c" y="168.374484"/>
     <use style="stroke:#000000;stroke-width:1.5;" x="-1" xlink:href="#md432e1f00c" y="251.763216"/>
     <use style="stroke:#000000;stroke-width:1.5;" x="8.858705" xlink:href="#md432e1f00c" y="255.337065"/>
     <use style="stroke:#000000;stroke-width:1.5;" x="-1" xlink:href="#md432e1f00c" y="253.485333"/>
     <use style="stroke:#000000;stroke-width:1.5;" x="-1" xlink:href="#md432e1f00c" y="246.46868"/>
     <use style="stroke:#000000;stroke-width:1.5;" x="266.961645" xlink:href="#md432e1f00c" y="235.301081"/>
     <use style="stroke:#000000;stroke-width:1.5;" x="255.953727" xlink:href="#md432e1f00c" y="237.737488"/>
    </g>
   </g>
   <g id="PathCollection_2">
    <path clip-path="url(#pb27afad121)" d="M 307.103841 222.306789 
C 307.942487 222.306789 308.746897 221.973592 309.339909 221.38058 
C 309.932921 220.787568 310.266118 219.983158 310.266118 219.144512 
C 310.266118 218.305866 309.932921 217.501456 309.339909 216.908444 
C 308.746897 216.315432 307.942487 215.982234 307.103841 215.982234 
C 306.265195 215.982234 305.460785 216.315432 304.867773 216.908444 
C 304.274761 217.501456 303.941563 218.305866 303.941563 219.144512 
C 303.941563 219.983158 304.274761 220.787568 304.867773 221.38058 
C 305.460785 221.973592 306.265195 222.306789 307.103841 222.306789 
z
" style="fill:#00ffff;fill-opacity:0.5;stroke:#00ffff;stroke-opacity:0.5;"/>
    <path clip-path="url(#pb27afad121)" d="M 70.371866 259.441884 
C 70.372222 259.441884 70.372563 259.441742 70.372814 259.441491 
C 70.373065 259.44124 70.373207 259.440899 70.373207 259.440543 
C 70.373207 259.440188 70.373065 259.439847 70.372814 259.439595 
C 70.372563 259.439344 70.372222 259.439203 70.371866 259.439203 
C 70.371511 259.439203 70.37117 259.439344 70.370919 259.439595 
C 70.370667 259.439847 70.370526 259.440188 70.370526 259.440543 
C 70.370526 259.440899 70.370667 259.44124 70.370919 259.441491 
C 70.37117 259.441742 70.371511 259.441884 70.371866 259.441884 
z
" style="fill:#00ffff;fill-opacity:0.5;stroke:#00ffff;stroke-opacity:0.5;"/>
    <path clip-path="url(#pb27afad121)" d="M 170.796427 260.865406 
C 171.635072 260.865406 172.439482 260.532209 173.032495 259.939197 
C 173.625507 259.346185 173.958704 258.541775 173.958704 257.703129 
C 173.958704 256.864483 173.625507 256.060073 173.032495 255.467061 
C 172.439482 254.874049 171.635072 254.540851 170.796427 254.540851 
C 169.957781 254.540851 169.153371 254.874049 168.560359 255.467061 
C 167.967346 256.060073 167.634149 256.864483 167.634149 257.703129 
C 167.634149 258.541775 167.967346 259.346185 168.560359 259.939197 
C 169.153371 260.532209 169.957781 260.865406 170.796427 260.865406 
z
" style="fill:#00ffff;fill-opacity:0.5;stroke:#00ffff;stroke-opacity:0.5;"/>
    <path clip-path="url(#pb27afad121)" d="M 389.869351 191.784331 
C 390.66793 191.784331 391.433909 191.467052 391.99859 190.902371 
C 392.563271 190.33769 392.88055 189.571711 392.88055 188.773132 
C 392.88055 187.974553 392.563271 187.208574 391.99859 186.643893 
C 391.433909 186.079212 390.66793 185.761933 389.869351 185.761933 
C 389.070772 185.761933 388.304793 186.079212 387.740112 186.643893 
C 387.175431 187.208574 386.858152 187.974553 386.858152 188.773132 
C 386.858152 189.571711 387.175431 190.33769 387.740112 190.902371 
C 388.304793 191.467052 389.070772 191.784331 389.869351 191.784331 
z
" style="fill:#00ffff;fill-opacity:0.5;stroke:#00ffff;stroke-opacity:0.5;"/>
    <path clip-path="url(#pb27afad121)" d="M 325.069368 215.484813 
C 325.550389 215.484813 326.011772 215.293702 326.351905 214.953569 
C 326.692038 214.613436 326.88315 214.152052 326.88315 213.671032 
C 326.88315 213.190012 326.692038 212.728628 326.351905 212.388495 
C 326.011772 212.048362 325.550389 211.857251 325.069368 211.857251 
C 324.588348 211.857251 324.126964 212.048362 323.786831 212.388495 
C 323.446698 212.728628 323.255587 213.190012 323.255587 213.671032 
C 323.255587 214.152052 323.446698 214.613436 323.786831 214.953569 
C 324.126964 215.293702 324.588348 215.484813 325.069368 215.484813 
z
" style="fill:#00ffff;fill-opacity:0.5;stroke:#00ffff;stroke-opacity:0.5;"/>
    <path clip-path="url(#pb27afad121)" d="M -168.710244 204.066928 
C -168.70626 204.066928 -168.702438 204.065345 -168.69962 204.062527 
C -168.696802 204.05971 -168.695219 204.055888 -168.695219 204.051903 
C -168.695219 204.047918 -168.696802 204.044096 -168.69962 204.041279 
C -168.702438 204.038461 -168.70626 204.036878 -168.710244 204.036878 
C -168.714229 204.036878 -168.718051 204.038461 -168.720869 204.041279 
C -168.723687 204.044096 -168.72527 204.047918 -168.72527 204.051903 
C -168.72527 204.055888 -168.723687 204.05971 -168.720869 204.062527 
C -168.718051 204.065345 -168.714229 204.066928 -168.710244 204.066928 
z
" style="fill:#00ffff;fill-opacity:0.5;stroke:#00ffff;stroke-opacity:0.5;"/>
    <path clip-path="url(#pb27afad121)" d="M 165.823707 254.991429 
C 166.662353 254.991429 167.466762 254.658232 168.059775 254.06522 
C 168.652787 253.472208 168.985984 252.667798 168.985984 251.829152 
C 168.985984 250.990506 168.652787 250.186096 168.059775 249.593084 
C 167.466762 249.000072 166.662353 248.666874 165.823707 248.666874 
C 164.985061 248.666874 164.180651 249.000072 163.587639 249.593084 
C 162.994627 250.186096 162.661429 250.990506 162.661429 251.829152 
C 162.661429 252.667798 162.994627 253.472208 163.587639 254.06522 
C 164.180651 254.658232 164.985061 254.991429 165.823707 254.991429 
z
" style="fill:#00ffff;fill-opacity:0.5;stroke:#00ffff;stroke-opacity:0.5;"/>
    <path clip-path="url(#pb27afad121)" d="M -25.354772 246.260855 
C -25.336832 246.260855 -25.319623 246.253727 -25.306937 246.241041 
C -25.294251 246.228355 -25.287123 246.211147 -25.287123 246.193206 
C -25.287123 246.175265 -25.294251 246.158057 -25.306937 246.145371 
C -25.319623 246.132685 -25.336832 246.125557 -25.354772 246.125557 
C -25.372713 246.125557 -25.389921 246.132685 -25.402607 246.145371 
C -25.415293 246.158057 -25.422421 246.175265 -25.422421 246.193206 
C -25.422421 246.211147 -25.415293 246.228355 -25.402607 246.241041 
C -25.389921 246.253727 -25.372713 246.260855 -25.354772 246.260855 
z
" style="fill:#00ffff;fill-opacity:0.5;stroke:#00ffff;stroke-opacity:0.5;"/>
    <path clip-path="url(#pb27afad121)" d="M -16.999373 252.695988 
C -16.994166 252.695988 -16.989171 252.693919 -16.985489 252.690237 
C -16.981807 252.686555 -16.979738 252.68156 -16.979738 252.676353 
C -16.979738 252.671146 -16.981807 252.666151 -16.985489 252.662469 
C -16.989171 252.658787 -16.994166 252.656718 -16.999373 252.656718 
C -17.00458 252.656718 -17.009575 252.658787 -17.013257 252.662469 
C -17.016939 252.666151 -17.019008 252.671146 -17.019008 252.676353 
C -17.019008 252.68156 -17.016939 252.686555 -17.013257 252.690237 
C -17.009575 252.693919 -17.00458 252.695988 -16.999373 252.695988 
z
" style="fill:#00ffff;fill-opacity:0.5;stroke:#00ffff;stroke-opacity:0.5;"/>
    <path clip-path="url(#pb27afad121)" d="M 72.184167 261.600493 
C 72.184475 261.600493 72.18477 261.600371 72.184988 261.600153 
C 72.185206 261.599935 72.185328 261.59964 72.185328 261.599332 
C 72.185328 261.599024 72.185206 261.598729 72.184988 261.598511 
C 72.18477 261.598293 72.184475 261.598171 72.184167 261.598171 
C 72.183859 261.598171 72.183564 261.598293 72.183346 261.598511 
C 72.183128 261.598729 72.183006 261.599024 72.183006 261.599332 
C 72.183006 261.59964 72.183128 261.599935 72.183346 261.600153 
C 72.183564 261.600371 72.183859 261.600493 72.184167 261.600493 
z
" style="fill:#00ffff;fill-opacity:0.5;stroke:#00ffff;stroke-opacity:0.5;"/>
    <path clip-path="url(#pb27afad121)" d="M 25.918092 263.514893 
C 26.625741 263.514893 27.304502 263.233741 27.804885 262.733358 
C 28.305268 262.232974 28.58642 261.554214 28.58642 260.846564 
C 28.58642 260.138915 28.305268 259.460155 27.804885 258.959771 
C 27.304502 258.459388 26.625741 258.178236 25.918092 258.178236 
C 25.210443 258.178236 24.531682 258.459388 24.031298 258.959771 
C 23.530915 259.460155 23.249763 260.138915 23.249763 260.846564 
C 23.249763 261.554214 23.530915 262.232974 24.031298 262.733358 
C 24.531682 263.233741 25.210443 263.514893 25.918092 263.514893 
z
" style="fill:#00ffff;fill-opacity:0.5;stroke:#00ffff;stroke-opacity:0.5;"/>
    <path clip-path="url(#pb27afad121)" d="M 253.33537 241.762697 
C 253.335681 241.762697 253.335979 241.762573 253.336199 241.762353 
C 253.336419 241.762133 253.336542 241.761835 253.336542 241.761524 
C 253.336542 241.761213 253.336419 241.760915 253.336199 241.760695 
C 253.335979 241.760475 253.335681 241.760352 253.33537 241.760352 
C 253.335059 241.760352 253.334761 241.760475 253.334541 241.760695 
C 253.334321 241.760915 253.334197 241.761213 253.334197 241.761524 
C 253.334197 241.761835 253.334321 241.762133 253.334541 241.762353 
C 253.334761 241.762573 253.335059 241.762697 253.33537 241.762697 
z
" style="fill:#00ffff;fill-opacity:0.5;stroke:#00ffff;stroke-opacity:0.5;"/>
    <path clip-path="url(#pb27afad121)" d="M 133.010082 267.557883 
C 133.848727 267.557883 134.653137 267.224686 135.24615 266.631674 
C 135.839162 266.038661 136.172359 265.234251 136.172359 264.395606 
C 136.172359 263.55696 135.839162 262.75255 135.24615 262.159538 
C 134.653137 261.566525 133.848727 261.233328 133.010082 261.233328 
C 132.171436 261.233328 131.367026 261.566525 130.774014 262.159538 
C 130.181002 262.75255 129.847804 263.55696 129.847804 264.395606 
C 129.847804 265.234251 130.181002 266.038661 130.774014 266.631674 
C 131.367026 267.224686 132.171436 267.557883 133.010082 267.557883 
z
" style="fill:#00ffff;fill-opacity:0.5;stroke:#00ffff;stroke-opacity:0.5;"/>
    <path clip-path="url(#pb27afad121)" d="M 22.03557 251.133147 
C 22.035879 251.133147 22.036174 251.133024 22.036393 251.132806 
C 22.036611 251.132588 22.036733 251.132292 22.036733 251.131984 
C 22.036733 251.131676 22.036611 251.13138 22.036393 251.131162 
C 22.036174 251.130944 22.035879 251.130821 22.03557 251.130821 
C 22.035262 251.130821 22.034966 251.130944 22.034748 251.131162 
C 22.03453 251.13138 22.034407 251.131676 22.034407 251.131984 
C 22.034407 251.132292 22.03453 251.132588 22.034748 251.132806 
C 22.034966 251.133024 22.035262 251.133147 22.03557 251.133147 
z
" style="fill:#00ffff;fill-opacity:0.5;stroke:#00ffff;stroke-opacity:0.5;"/>
    <path clip-path="url(#pb27afad121)" d="M 77.957943 262.367595 
C 77.958213 262.367595 77.958471 262.367488 77.958662 262.367297 
C 77.958853 262.367107 77.95896 262.366848 77.95896 262.366578 
C 77.95896 262.366309 77.958853 262.36605 77.958662 262.365859 
C 77.958471 262.365669 77.958213 262.365562 77.957943 262.365562 
C 77.957674 262.365562 77.957415 262.365669 77.957224 262.365859 
C 77.957034 262.36605 77.956926 262.366309 77.956926 262.366578 
C 77.956926 262.366848 77.957034 262.367107 77.957224 262.367297 
C 77.957415 262.367488 77.957674 262.367595 77.957943 262.367595 
z
" style="fill:#00ffff;fill-opacity:0.5;stroke:#00ffff;stroke-opacity:0.5;"/>
    <path clip-path="url(#pb27afad121)" d="M 58.832399 264.674387 
C 59.671045 264.674387 60.475454 264.34119 61.068467 263.748177 
C 61.661479 263.155165 61.994676 262.350755 61.994676 261.51211 
C 61.994676 260.673464 61.661479 259.869054 61.068467 259.276042 
C 60.475454 258.68303 59.671045 258.349832 58.832399 258.349832 
C 57.993753 258.349832 57.189343 258.68303 56.596331 259.276042 
C 56.003319 259.869054 55.670121 260.673464 55.670121 261.51211 
C 55.670121 262.350755 56.003319 263.155165 56.596331 263.748177 
C 57.189343 264.34119 57.993753 264.674387 58.832399 264.674387 
z
" style="fill:#00ffff;fill-opacity:0.5;stroke:#00ffff;stroke-opacity:0.5;"/>
    <path clip-path="url(#pb27afad121)" d="M 260.244442 241.602863 
C 260.870655 241.602863 261.471304 241.354066 261.914103 240.911267 
C 262.356902 240.468468 262.605699 239.867819 262.605699 239.241606 
C 262.605699 238.615393 262.356902 238.014744 261.914103 237.571945 
C 261.471304 237.129146 260.870655 236.880349 260.244442 236.880349 
C 259.61823 236.880349 259.017581 237.129146 258.574781 237.571945 
C 258.131982 238.014744 257.883185 238.615393 257.883185 239.241606 
C 257.883185 239.867819 258.131982 240.468468 258.574781 240.911267 
C 259.017581 241.354066 259.61823 241.602863 260.244442 241.602863 
z
" style="fill:#00ffff;fill-opacity:0.5;stroke:#00ffff;stroke-opacity:0.5;"/>
    <path clip-path="url(#pb27afad121)" d="M -34.693049 245.787648 
C -34.650032 245.787648 -34.608771 245.770557 -34.578353 245.740139 
C -34.547935 245.709721 -34.530844 245.66846 -34.530844 245.625443 
C -34.530844 245.582426 -34.547935 245.541164 -34.578353 245.510747 
C -34.608771 245.480329 -34.650032 245.463238 -34.693049 245.463238 
C -34.736066 245.463238 -34.777327 245.480329 -34.807745 245.510747 
C -34.838163 245.541164 -34.855254 245.582426 -34.855254 245.625443 
C -34.855254 245.66846 -34.838163 245.709721 -34.807745 245.740139 
C -34.777327 245.770557 -34.736066 245.787648 -34.693049 245.787648 
z
" style="fill:#00ffff;fill-opacity:0.5;stroke:#00ffff;stroke-opacity:0.5;"/>
    <path clip-path="url(#pb27afad121)" d="M 55.255696 268.128669 
C 56.094342 268.128669 56.898752 267.795472 57.491764 267.202459 
C 58.084776 266.609447 58.417974 265.805037 58.417974 264.966392 
C 58.417974 264.127746 58.084776 263.323336 57.491764 262.730324 
C 56.898752 262.137311 56.094342 261.804114 55.255696 261.804114 
C 54.41705 261.804114 53.61264 262.137311 53.019628 262.730324 
C 52.426616 263.323336 52.093419 264.127746 52.093419 264.966392 
C 52.093419 265.805037 52.426616 266.609447 53.019628 267.202459 
C 53.61264 267.795472 54.41705 268.128669 55.255696 268.128669 
z
" style="fill:#00ffff;fill-opacity:0.5;stroke:#00ffff;stroke-opacity:0.5;"/>
    <path clip-path="url(#pb27afad121)" d="M -147.329457 214.199438 
C -147.329104 214.199438 -147.328766 214.199298 -147.328516 214.199048 
C -147.328266 214.198799 -147.328126 214.19846 -147.328126 214.198107 
C -147.328126 214.197754 -147.328266 214.197415 -147.328516 214.197166 
C -147.328766 214.196916 -147.329104 214.196776 -147.329457 214.196776 
C -147.329811 214.196776 -147.330149 214.196916 -147.330399 214.197166 
C -147.330649 214.197415 -147.330789 214.197754 -147.330789 214.198107 
C -147.330789 214.19846 -147.330649 214.198799 -147.330399 214.199048 
C -147.330149 214.199298 -147.329811 214.199438 -147.329457 214.199438 
z
" style="fill:#00ffff;fill-opacity:0.5;stroke:#00ffff;stroke-opacity:0.5;"/>
    <path clip-path="url(#pb27afad121)" d="M -442.207369 23.187011 
C -442.170076 23.187011 -442.134306 23.172195 -442.107936 23.145825 
C -442.081566 23.119455 -442.066749 23.083684 -442.066749 23.046392 
C -442.066749 23.009099 -442.081566 22.973328 -442.107936 22.946959 
C -442.134306 22.920589 -442.170076 22.905772 -442.207369 22.905772 
C -442.244661 22.905772 -442.280432 22.920589 -442.306802 22.946959 
C -442.333172 22.973328 -442.347988 23.009099 -442.347988 23.046392 
C -442.347988 23.083684 -442.333172 23.119455 -442.306802 23.145825 
C -442.280432 23.172195 -442.244661 23.187011 -442.207369 23.187011 
z
" style="fill:#00ffff;fill-opacity:0.5;stroke:#00ffff;stroke-opacity:0.5;"/>
    <path clip-path="url(#pb27afad121)" d="M 114.365288 259.063825 
C 114.365869 259.063825 114.366425 259.063594 114.366836 259.063184 
C 114.367246 259.062774 114.367476 259.062217 114.367476 259.061637 
C 114.367476 259.061057 114.367246 259.0605 114.366836 259.06009 
C 114.366425 259.059679 114.365869 259.059449 114.365288 259.059449 
C 114.364708 259.059449 114.364152 259.059679 114.363741 259.06009 
C 114.363331 259.0605 114.363101 259.061057 114.363101 259.061637 
C 114.363101 259.062217 114.363331 259.062774 114.363741 259.063184 
C 114.364152 259.063594 114.364708 259.063825 114.365288 259.063825 
z
" style="fill:#00ffff;fill-opacity:0.5;stroke:#00ffff;stroke-opacity:0.5;"/>
    <path clip-path="url(#pb27afad121)" d="M 150.957007 262.185449 
C 151.795653 262.185449 152.600063 261.852252 153.193075 261.259239 
C 153.786088 260.666227 154.119285 259.861817 154.119285 259.023171 
C 154.119285 258.184526 153.786088 257.380116 153.193075 256.787103 
C 152.600063 256.194091 151.795653 255.860894 150.957007 255.860894 
C 150.118362 255.860894 149.313952 256.194091 148.720939 256.787103 
C 148.127927 257.380116 147.79473 258.184526 147.79473 259.023171 
C 147.79473 259.861817 148.127927 260.666227 148.720939 261.259239 
C 149.313952 261.852252 150.118362 262.185449 150.957007 262.185449 
z
" style="fill:#00ffff;fill-opacity:0.5;stroke:#00ffff;stroke-opacity:0.5;"/>
    <path clip-path="url(#pb27afad121)" d="M -127.901586 226.474593 
C -127.430298 226.474593 -126.978249 226.287348 -126.644999 225.954097 
C -126.311748 225.620846 -126.124503 225.168798 -126.124503 224.69751 
C -126.124503 224.226223 -126.311748 223.774174 -126.644999 223.440923 
C -126.978249 223.107673 -127.430298 222.920428 -127.901586 222.920428 
C -128.372873 222.920428 -128.824922 223.107673 -129.158172 223.440923 
C -129.491423 223.774174 -129.678668 224.226223 -129.678668 224.69751 
C -129.678668 225.168798 -129.491423 225.620846 -129.158172 225.954097 
C -128.824922 226.287348 -128.372873 226.474593 -127.901586 226.474593 
z
" style="fill:#00ffff;fill-opacity:0.5;stroke:#00ffff;stroke-opacity:0.5;"/>
    <path clip-path="url(#pb27afad121)" d="M 394.878843 183.271631 
C 395.717489 183.271631 396.521899 182.938433 397.114911 182.345421 
C 397.707923 181.752409 398.041121 180.947999 398.041121 180.109353 
C 398.041121 179.270707 397.707923 178.466297 397.114911 177.873285 
C 396.521899 177.280273 395.717489 176.947076 394.878843 176.947076 
C 394.040197 176.947076 393.235787 177.280273 392.642775 177.873285 
C 392.049763 178.466297 391.716566 179.270707 391.716566 180.109353 
C 391.716566 180.947999 392.049763 181.752409 392.642775 182.345421 
C 393.235787 182.938433 394.040197 183.271631 394.878843 183.271631 
z
" style="fill:#00ffff;fill-opacity:0.5;stroke:#00ffff;stroke-opacity:0.5;"/>
    <path clip-path="url(#pb27afad121)" d="M -251.518616 161.089086 
C -251.481324 161.089086 -251.445553 161.074269 -251.419183 161.0479 
C -251.392813 161.02153 -251.377997 160.985759 -251.377997 160.948467 
C -251.377997 160.911174 -251.392813 160.875403 -251.419183 160.849033 
C -251.445553 160.822664 -251.481324 160.807847 -251.518616 160.807847 
C -251.555909 160.807847 -251.591679 160.822664 -251.618049 160.849033 
C -251.644419 160.875403 -251.659236 160.911174 -251.659236 160.948467 
C -251.659236 160.985759 -251.644419 161.02153 -251.618049 161.0479 
C -251.591679 161.074269 -251.555909 161.089086 -251.518616 161.089086 
z
" style="fill:#00ffff;fill-opacity:0.5;stroke:#00ffff;stroke-opacity:0.5;"/>
    <path clip-path="url(#pb27afad121)" d="M 8.858705 255.337968 
C 8.858944 255.337968 8.859174 255.337873 8.859343 255.337704 
C 8.859512 255.337534 8.859607 255.337305 8.859607 255.337065 
C 8.859607 255.336826 8.859512 255.336597 8.859343 255.336427 
C 8.859174 255.336258 8.858944 255.336163 8.858705 255.336163 
C 8.858465 255.336163 8.858236 255.336258 8.858067 255.336427 
C 8.857897 255.336597 8.857802 255.336826 8.857802 255.337065 
C 8.857802 255.337305 8.857897 255.337534 8.858067 255.337704 
C 8.858236 255.337873 8.858465 255.337968 8.858705 255.337968 
z
" style="fill:#00ffff;fill-opacity:0.5;stroke:#00ffff;stroke-opacity:0.5;"/>
    <path clip-path="url(#pb27afad121)" d="M -31.573221 247.852777 
C -31.544069 247.852777 -31.516106 247.841194 -31.495493 247.820581 
C -31.474879 247.799967 -31.463297 247.772005 -31.463297 247.742853 
C -31.463297 247.7137 -31.474879 247.685738 -31.495493 247.665124 
C -31.516106 247.644511 -31.544069 247.632928 -31.573221 247.632928 
C -31.602373 247.632928 -31.630335 247.644511 -31.650949 247.665124 
C -31.671563 247.685738 -31.683145 247.7137 -31.683145 247.742853 
C -31.683145 247.772005 -31.671563 247.799967 -31.650949 247.820581 
C -31.630335 247.841194 -31.602373 247.852777 -31.573221 247.852777 
z
" style="fill:#00ffff;fill-opacity:0.5;stroke:#00ffff;stroke-opacity:0.5;"/>
    <path clip-path="url(#pb27afad121)" d="M 266.961645 238.463359 
C 267.800291 238.463359 268.604701 238.130161 269.197713 237.537149 
C 269.790726 236.944137 270.123923 236.139727 270.123923 235.301081 
C 270.123923 234.462435 269.790726 233.658025 269.197713 233.065013 
C 268.604701 232.472001 267.800291 232.138803 266.961645 232.138803 
C 266.123 232.138803 265.31859 232.472001 264.725577 233.065013 
C 264.132565 233.658025 263.799368 234.462435 263.799368 235.301081 
C 263.799368 236.139727 264.132565 236.944137 264.725577 237.537149 
C 265.31859 238.130161 266.123 238.463359 266.961645 238.463359 
z
" style="fill:#00ffff;fill-opacity:0.5;stroke:#00ffff;stroke-opacity:0.5;"/>
    <path clip-path="url(#pb27afad121)" d="M 255.953727 237.738621 
C 255.954027 237.738621 255.954315 237.738501 255.954527 237.738289 
C 255.954739 237.738077 255.954859 237.737789 255.954859 237.737488 
C 255.954859 237.737188 255.954739 237.7369 255.954527 237.736688 
C 255.954315 237.736476 255.954027 237.736356 255.953727 237.736356 
C 255.953426 237.736356 255.953138 237.736476 255.952926 237.736688 
C 255.952714 237.7369 255.952595 237.737188 255.952595 237.737488 
C 255.952595 237.737789 255.952714 237.738077 255.952926 237.738289 
C 255.953138 237.738501 255.953426 237.738621 255.953727 237.738621 
z
" style="fill:#00ffff;fill-opacity:0.5;stroke:#00ffff;stroke-opacity:0.5;"/>
   </g>
   <g id="PathCollection_3">
    <defs>
     <path d="M -2.236068 2.236068 
L 2.236068 -2.236068 
M -2.236068 -2.236068 
L 2.236068 2.236068 
" id="m95597b2080" style="stroke:#ff0000;stroke-width:1.5;"/>
    </defs>
    <g clip-path="url(#pb27afad121)">
     <use style="fill:#ff0000;stroke:#ff0000;stroke-width:1.5;" x="405.611034" xlink:href="#m95597b2080" y="172.932748"/>
     <use style="fill:#ff0000;stroke:#ff0000;stroke-width:1.5;" x="298.638222" xlink:href="#m95597b2080" y="219.019436"/>
     <use style="fill:#ff0000;stroke:#ff0000;stroke-width:1.5;" x="-1" xlink:href="#m95597b2080" y="231.717894"/>
     <use style="fill:#ff0000;stroke:#ff0000;stroke-width:1.5;" x="-1" xlink:href="#m95597b2080" y="241.14049"/>
     <use style="fill:#ff0000;stroke:#ff0000;stroke-width:1.5;" x="173.031696" xlink:href="#m95597b2080" y="251.445445"/>
     <use style="fill:#ff0000;stroke:#ff0000;stroke-width:1.5;" x="282.332487" xlink:href="#m95597b2080" y="227.703903"/>
     <use style="fill:#ff0000;stroke:#ff0000;stroke-width:1.5;" x="49.501268" xlink:href="#m95597b2080" y="258.240081"/>
     <use style="fill:#ff0000;stroke:#ff0000;stroke-width:1.5;" x="220.571867" xlink:href="#m95597b2080" y="249.263305"/>
     <use style="fill:#ff0000;stroke:#ff0000;stroke-width:1.5;" x="193.327708" xlink:href="#m95597b2080" y="250.89128"/>
     <use style="fill:#ff0000;stroke:#ff0000;stroke-width:1.5;" x="175.231751" xlink:href="#m95597b2080" y="249.706294"/>
     <use style="fill:#ff0000;stroke:#ff0000;stroke-width:1.5;" x="144.181438" xlink:href="#m95597b2080" y="261.480795"/>
    </g>
   </g>
   <g id="PathCollection_4">
    <defs>
     <path d="M 0 2.236068 
C 0.593012 2.236068 1.161816 2.000462 1.581139 1.581139 
C 2.000462 1.161816 2.236068 0.593012 2.236068 0 
C 2.236068 -0.593012 2.000462 -1.161816 1.581139 -1.581139 
C 1.161816 -2.000462 0.593012 -2.236068 0 -2.236068 
C -0.593012 -2.236068 -1.161816 -2.000462 -1.581139 -1.581139 
C -2.000462 -1.161816 -2.236068 -0.593012 -2.236068 0 
C -2.236068 0.593012 -2.000462 1.161816 -1.581139 1.581139 
C -1.161816 2.000462 -0.593012 2.236068 0 2.236068 
z
" id="m8276e7e3e6" style="stroke:#bfbf00;"/>
    </defs>
    <g clip-path="url(#pb27afad121)">
     <use style="fill:#bfbf00;stroke:#bfbf00;" x="50.836875" xlink:href="#m8276e7e3e6" y="258.055875"/>
     <use style="fill:#bfbf00;stroke:#bfbf00;" x="305.3185" xlink:href="#m8276e7e3e6" y="216.110691"/>
     <use style="fill:#bfbf00;stroke:#bfbf00;" x="166.762464" xlink:href="#m8276e7e3e6" y="252.845969"/>
     <use style="fill:#bfbf00;stroke:#bfbf00;" x="252.908184" xlink:href="#m8276e7e3e6" y="232.903703"/>
     <use style="fill:#bfbf00;stroke:#bfbf00;" x="407.956875" xlink:href="#m8276e7e3e6" y="176.229515"/>
    </g>
   </g>
   <g id="matplotlib.axis_1">
    <g id="xtick_1">
     <g id="line2d_1">
      <defs>
       <path d="M 0 0 
L 0 3.5 
" id="m5b56fa0d9a" style="stroke:#000000;stroke-width:0.8;"/>
      </defs>
      <g>
       <use style="stroke:#000000;stroke-width:0.8;" x="87.701631" xlink:href="#m5b56fa0d9a" y="277.062392"/>
      </g>
     </g>
     <g id="text_1">
      <!-- 0 -->
      <g transform="translate(84.520381 291.660829)scale(0.1 -0.1)">
       <defs>
        <path d="M 2034 4250 
Q 1547 4250 1301 3770 
Q 1056 3291 1056 2328 
Q 1056 1369 1301 889 
Q 1547 409 2034 409 
Q 2525 409 2770 889 
Q 3016 1369 3016 2328 
Q 3016 3291 2770 3770 
Q 2525 4250 2034 4250 
z
M 2034 4750 
Q 2819 4750 3233 4129 
Q 3647 3509 3647 2328 
Q 3647 1150 3233 529 
Q 2819 -91 2034 -91 
Q 1250 -91 836 529 
Q 422 1150 422 2328 
Q 422 3509 836 4129 
Q 1250 4750 2034 4750 
z
" id="DejaVuSans-30" transform="scale(0.015625)"/>
       </defs>
       <use xlink:href="#DejaVuSans-30"/>
      </g>
     </g>
    </g>
    <g id="xtick_2">
     <g id="line2d_2">
      <g>
       <use style="stroke:#000000;stroke-width:0.8;" x="157.129835" xlink:href="#m5b56fa0d9a" y="277.062392"/>
      </g>
     </g>
     <g id="text_2">
      <!-- 2 -->
      <g transform="translate(153.948585 291.660829)scale(0.1 -0.1)">
       <defs>
        <path d="M 1228 531 
L 3431 531 
L 3431 0 
L 469 0 
L 469 531 
Q 828 903 1448 1529 
Q 2069 2156 2228 2338 
Q 2531 2678 2651 2914 
Q 2772 3150 2772 3378 
Q 2772 3750 2511 3984 
Q 2250 4219 1831 4219 
Q 1534 4219 1204 4116 
Q 875 4013 500 3803 
L 500 4441 
Q 881 4594 1212 4672 
Q 1544 4750 1819 4750 
Q 2544 4750 2975 4387 
Q 3406 4025 3406 3419 
Q 3406 3131 3298 2873 
Q 3191 2616 2906 2266 
Q 2828 2175 2409 1742 
Q 1991 1309 1228 531 
z
" id="DejaVuSans-32" transform="scale(0.015625)"/>
       </defs>
       <use xlink:href="#DejaVuSans-32"/>
      </g>
     </g>
    </g>
    <g id="xtick_3">
     <g id="line2d_3">
      <g>
       <use style="stroke:#000000;stroke-width:0.8;" x="226.558038" xlink:href="#m5b56fa0d9a" y="277.062392"/>
      </g>
     </g>
     <g id="text_3">
      <!-- 4 -->
      <g transform="translate(223.376788 291.660829)scale(0.1 -0.1)">
       <defs>
        <path d="M 2419 4116 
L 825 1625 
L 2419 1625 
L 2419 4116 
z
M 2253 4666 
L 3047 4666 
L 3047 1625 
L 3713 1625 
L 3713 1100 
L 3047 1100 
L 3047 0 
L 2419 0 
L 2419 1100 
L 313 1100 
L 313 1709 
L 2253 4666 
z
" id="DejaVuSans-34" transform="scale(0.015625)"/>
       </defs>
       <use xlink:href="#DejaVuSans-34"/>
      </g>
     </g>
    </g>
    <g id="xtick_4">
     <g id="line2d_4">
      <g>
       <use style="stroke:#000000;stroke-width:0.8;" x="295.986242" xlink:href="#m5b56fa0d9a" y="277.062392"/>
      </g>
     </g>
     <g id="text_4">
      <!-- 6 -->
      <g transform="translate(292.804992 291.660829)scale(0.1 -0.1)">
       <defs>
        <path d="M 2113 2584 
Q 1688 2584 1439 2293 
Q 1191 2003 1191 1497 
Q 1191 994 1439 701 
Q 1688 409 2113 409 
Q 2538 409 2786 701 
Q 3034 994 3034 1497 
Q 3034 2003 2786 2293 
Q 2538 2584 2113 2584 
z
M 3366 4563 
L 3366 3988 
Q 3128 4100 2886 4159 
Q 2644 4219 2406 4219 
Q 1781 4219 1451 3797 
Q 1122 3375 1075 2522 
Q 1259 2794 1537 2939 
Q 1816 3084 2150 3084 
Q 2853 3084 3261 2657 
Q 3669 2231 3669 1497 
Q 3669 778 3244 343 
Q 2819 -91 2113 -91 
Q 1303 -91 875 529 
Q 447 1150 447 2328 
Q 447 3434 972 4092 
Q 1497 4750 2381 4750 
Q 2619 4750 2861 4703 
Q 3103 4656 3366 4563 
z
" id="DejaVuSans-36" transform="scale(0.015625)"/>
       </defs>
       <use xlink:href="#DejaVuSans-36"/>
      </g>
     </g>
    </g>
    <g id="xtick_5">
     <g id="line2d_5">
      <g>
       <use style="stroke:#000000;stroke-width:0.8;" x="365.414446" xlink:href="#m5b56fa0d9a" y="277.062392"/>
      </g>
     </g>
     <g id="text_5">
      <!-- 8 -->
      <g transform="translate(362.233196 291.660829)scale(0.1 -0.1)">
       <defs>
        <path d="M 2034 2216 
Q 1584 2216 1326 1975 
Q 1069 1734 1069 1313 
Q 1069 891 1326 650 
Q 1584 409 2034 409 
Q 2484 409 2743 651 
Q 3003 894 3003 1313 
Q 3003 1734 2745 1975 
Q 2488 2216 2034 2216 
z
M 1403 2484 
Q 997 2584 770 2862 
Q 544 3141 544 3541 
Q 544 4100 942 4425 
Q 1341 4750 2034 4750 
Q 2731 4750 3128 4425 
Q 3525 4100 3525 3541 
Q 3525 3141 3298 2862 
Q 3072 2584 2669 2484 
Q 3125 2378 3379 2068 
Q 3634 1759 3634 1313 
Q 3634 634 3220 271 
Q 2806 -91 2034 -91 
Q 1263 -91 848 271 
Q 434 634 434 1313 
Q 434 1759 690 2068 
Q 947 2378 1403 2484 
z
M 1172 3481 
Q 1172 3119 1398 2916 
Q 1625 2713 2034 2713 
Q 2441 2713 2670 2916 
Q 2900 3119 2900 3481 
Q 2900 3844 2670 4047 
Q 2441 4250 2034 4250 
Q 1625 4250 1398 4047 
Q 1172 3844 1172 3481 
z
" id="DejaVuSans-38" transform="scale(0.015625)"/>
       </defs>
       <use xlink:href="#DejaVuSans-38"/>
      </g>
     </g>
    </g>
    <g id="text_6">
     <!-- x -->
     <g transform="translate(225.25375 308.378329)scale(0.14 -0.14)">
      <defs>
       <path d="M 3513 3500 
L 2247 1797 
L 3578 0 
L 2900 0 
L 1881 1375 
L 863 0 
L 184 0 
L 1544 1831 
L 300 3500 
L 978 3500 
L 1906 2253 
L 2834 3500 
L 3513 3500 
z
" id="DejaVuSans-78" transform="scale(0.015625)"/>
      </defs>
      <use xlink:href="#DejaVuSans-78"/>
     </g>
    </g>
   </g>
   <g id="matplotlib.axis_2">
    <g id="ytick_1">
     <g id="line2d_6">
      <defs>
       <path d="M 0 0 
L -3.5 0 
" id="m13a1e30b1b" style="stroke:#000000;stroke-width:0.8;"/>
      </defs>
      <g>
       <use style="stroke:#000000;stroke-width:0.8;" x="50.836875" xlink:href="#m13a1e30b1b" y="269.129411"/>
      </g>
     </g>
     <g id="text_7">
      <!-- 0 -->
      <g transform="translate(37.474375 272.928629)scale(0.1 -0.1)">
       <use xlink:href="#DejaVuSans-30"/>
      </g>
     </g>
    </g>
    <g id="ytick_2">
     <g id="line2d_7">
      <g>
       <use style="stroke:#000000;stroke-width:0.8;" x="50.836875" xlink:href="#m13a1e30b1b" y="217.503372"/>
      </g>
     </g>
     <g id="text_8">
      <!-- 50 -->
      <g transform="translate(31.111875 221.302591)scale(0.1 -0.1)">
       <defs>
        <path d="M 691 4666 
L 3169 4666 
L 3169 4134 
L 1269 4134 
L 1269 2991 
Q 1406 3038 1543 3061 
Q 1681 3084 1819 3084 
Q 2600 3084 3056 2656 
Q 3513 2228 3513 1497 
Q 3513 744 3044 326 
Q 2575 -91 1722 -91 
Q 1428 -91 1123 -41 
Q 819 9 494 109 
L 494 744 
Q 775 591 1075 516 
Q 1375 441 1709 441 
Q 2250 441 2565 725 
Q 2881 1009 2881 1497 
Q 2881 1984 2565 2268 
Q 2250 2553 1709 2553 
Q 1456 2553 1204 2497 
Q 953 2441 691 2322 
L 691 4666 
z
" id="DejaVuSans-35" transform="scale(0.015625)"/>
       </defs>
       <use xlink:href="#DejaVuSans-35"/>
       <use x="63.623047" xlink:href="#DejaVuSans-30"/>
      </g>
     </g>
    </g>
    <g id="ytick_3">
     <g id="line2d_8">
      <g>
       <use style="stroke:#000000;stroke-width:0.8;" x="50.836875" xlink:href="#m13a1e30b1b" y="165.877334"/>
      </g>
     </g>
     <g id="text_9">
      <!-- 100 -->
      <g transform="translate(24.749375 169.676553)scale(0.1 -0.1)">
       <defs>
        <path d="M 794 531 
L 1825 531 
L 1825 4091 
L 703 3866 
L 703 4441 
L 1819 4666 
L 2450 4666 
L 2450 531 
L 3481 531 
L 3481 0 
L 794 0 
L 794 531 
z
" id="DejaVuSans-31" transform="scale(0.015625)"/>
       </defs>
       <use xlink:href="#DejaVuSans-31"/>
       <use x="63.623047" xlink:href="#DejaVuSans-30"/>
       <use x="127.246094" xlink:href="#DejaVuSans-30"/>
      </g>
     </g>
    </g>
    <g id="ytick_4">
     <g id="line2d_9">
      <g>
       <use style="stroke:#000000;stroke-width:0.8;" x="50.836875" xlink:href="#m13a1e30b1b" y="114.251295"/>
      </g>
     </g>
     <g id="text_10">
      <!-- 150 -->
      <g transform="translate(24.749375 118.050514)scale(0.1 -0.1)">
       <use xlink:href="#DejaVuSans-31"/>
       <use x="63.623047" xlink:href="#DejaVuSans-35"/>
       <use x="127.246094" xlink:href="#DejaVuSans-30"/>
      </g>
     </g>
    </g>
    <g id="ytick_5">
     <g id="line2d_10">
      <g>
       <use style="stroke:#000000;stroke-width:0.8;" x="50.836875" xlink:href="#m13a1e30b1b" y="62.625257"/>
      </g>
     </g>
     <g id="text_11">
      <!-- 200 -->
      <g transform="translate(24.749375 66.424476)scale(0.1 -0.1)">
       <use xlink:href="#DejaVuSans-32"/>
       <use x="63.623047" xlink:href="#DejaVuSans-30"/>
       <use x="127.246094" xlink:href="#DejaVuSans-30"/>
      </g>
     </g>
    </g>
    <g id="ytick_6">
     <g id="line2d_11">
      <g>
       <use style="stroke:#000000;stroke-width:0.8;" x="50.836875" xlink:href="#m13a1e30b1b" y="10.999219"/>
      </g>
     </g>
     <g id="text_12">
      <!-- 250 -->
      <g transform="translate(24.749375 14.798438)scale(0.1 -0.1)">
       <use xlink:href="#DejaVuSans-32"/>
       <use x="63.623047" xlink:href="#DejaVuSans-35"/>
       <use x="127.246094" xlink:href="#DejaVuSans-30"/>
      </g>
     </g>
    </g>
    <g id="text_13">
     <!-- y -->
     <g transform="translate(17.837813 148.149517)rotate(-90)scale(0.14 -0.14)">
      <defs>
       <path d="M 2059 -325 
Q 1816 -950 1584 -1140 
Q 1353 -1331 966 -1331 
L 506 -1331 
L 506 -850 
L 844 -850 
Q 1081 -850 1212 -737 
Q 1344 -625 1503 -206 
L 1606 56 
L 191 3500 
L 800 3500 
L 1894 763 
L 2988 3500 
L 3597 3500 
L 2059 -325 
z
" id="DejaVuSans-79" transform="scale(0.015625)"/>
      </defs>
      <use xlink:href="#DejaVuSans-79"/>
     </g>
    </g>
   </g>
   <g id="line2d_12">
    <path clip-path="url(#pb27afad121)" d="M 50.836875 253.625661 
L 407.956875 211.014359 
" style="fill:none;stroke:#000000;stroke-dasharray:5.55,2.4;stroke-dashoffset:0;stroke-width:1.5;"/>
   </g>
   <g id="line2d_13">
    <path clip-path="url(#pb27afad121)" d="M 50.836875 259.025647 
L 407.956875 205.766316 
" style="fill:none;stroke:#000000;stroke-linecap:square;stroke-width:1.5;"/>
   </g>
   <g id="patch_3">
    <path d="M 50.836875 277.062392 
L 50.836875 10.950392 
" style="fill:none;stroke:#000000;stroke-linecap:square;stroke-linejoin:miter;stroke-width:0.8;"/>
   </g>
   <g id="patch_4">
    <path d="M 407.956875 277.062392 
L 407.956875 10.950392 
" style="fill:none;stroke:#000000;stroke-linecap:square;stroke-linejoin:miter;stroke-width:0.8;"/>
   </g>
   <g id="patch_5">
    <path d="M 50.836875 277.062392 
L 407.956875 277.062392 
" style="fill:none;stroke:#000000;stroke-linecap:square;stroke-linejoin:miter;stroke-width:0.8;"/>
   </g>
   <g id="patch_6">
    <path d="M 50.836875 10.950392 
L 407.956875 10.950392 
" style="fill:none;stroke:#000000;stroke-linecap:square;stroke-linejoin:miter;stroke-width:0.8;"/>
   </g>
   <g id="legend_1">
    <g id="patch_7">
     <path d="M 250.325625 108.619142 
L 399.556875 108.619142 
Q 401.956875 108.619142 401.956875 106.219142 
L 401.956875 19.350392 
Q 401.956875 16.950392 399.556875 16.950392 
L 250.325625 16.950392 
Q 247.925625 16.950392 247.925625 19.350392 
L 247.925625 106.219142 
Q 247.925625 108.619142 250.325625 108.619142 
z
" style="fill:#ffffff;opacity:0.8;stroke:#cccccc;stroke-linejoin:miter;"/>
    </g>
    <g id="line2d_14">
     <path d="M 252.725625 26.668517 
L 276.725625 26.668517 
" style="fill:none;stroke:#000000;stroke-dasharray:5.55,2.4;stroke-dashoffset:0;stroke-width:1.5;"/>
    </g>
    <g id="line2d_15"/>
    <g id="text_14">
     <!-- Without transfer -->
     <g transform="translate(286.325625 30.868517)scale(0.12 -0.12)">
      <defs>
       <path d="M 213 4666 
L 850 4666 
L 1831 722 
L 2809 4666 
L 3519 4666 
L 4500 722 
L 5478 4666 
L 6119 4666 
L 4947 0 
L 4153 0 
L 3169 4050 
L 2175 0 
L 1381 0 
L 213 4666 
z
" id="DejaVuSans-57" transform="scale(0.015625)"/>
       <path d="M 603 3500 
L 1178 3500 
L 1178 0 
L 603 0 
L 603 3500 
z
M 603 4863 
L 1178 4863 
L 1178 4134 
L 603 4134 
L 603 4863 
z
" id="DejaVuSans-69" transform="scale(0.015625)"/>
       <path d="M 1172 4494 
L 1172 3500 
L 2356 3500 
L 2356 3053 
L 1172 3053 
L 1172 1153 
Q 1172 725 1289 603 
Q 1406 481 1766 481 
L 2356 481 
L 2356 0 
L 1766 0 
Q 1100 0 847 248 
Q 594 497 594 1153 
L 594 3053 
L 172 3053 
L 172 3500 
L 594 3500 
L 594 4494 
L 1172 4494 
z
" id="DejaVuSans-74" transform="scale(0.015625)"/>
       <path d="M 3513 2113 
L 3513 0 
L 2938 0 
L 2938 2094 
Q 2938 2591 2744 2837 
Q 2550 3084 2163 3084 
Q 1697 3084 1428 2787 
Q 1159 2491 1159 1978 
L 1159 0 
L 581 0 
L 581 4863 
L 1159 4863 
L 1159 2956 
Q 1366 3272 1645 3428 
Q 1925 3584 2291 3584 
Q 2894 3584 3203 3211 
Q 3513 2838 3513 2113 
z
" id="DejaVuSans-68" transform="scale(0.015625)"/>
       <path d="M 1959 3097 
Q 1497 3097 1228 2736 
Q 959 2375 959 1747 
Q 959 1119 1226 758 
Q 1494 397 1959 397 
Q 2419 397 2687 759 
Q 2956 1122 2956 1747 
Q 2956 2369 2687 2733 
Q 2419 3097 1959 3097 
z
M 1959 3584 
Q 2709 3584 3137 3096 
Q 3566 2609 3566 1747 
Q 3566 888 3137 398 
Q 2709 -91 1959 -91 
Q 1206 -91 779 398 
Q 353 888 353 1747 
Q 353 2609 779 3096 
Q 1206 3584 1959 3584 
z
" id="DejaVuSans-6f" transform="scale(0.015625)"/>
       <path d="M 544 1381 
L 544 3500 
L 1119 3500 
L 1119 1403 
Q 1119 906 1312 657 
Q 1506 409 1894 409 
Q 2359 409 2629 706 
Q 2900 1003 2900 1516 
L 2900 3500 
L 3475 3500 
L 3475 0 
L 2900 0 
L 2900 538 
Q 2691 219 2414 64 
Q 2138 -91 1772 -91 
Q 1169 -91 856 284 
Q 544 659 544 1381 
z
M 1991 3584 
L 1991 3584 
z
" id="DejaVuSans-75" transform="scale(0.015625)"/>
       <path id="DejaVuSans-20" transform="scale(0.015625)"/>
       <path d="M 2631 2963 
Q 2534 3019 2420 3045 
Q 2306 3072 2169 3072 
Q 1681 3072 1420 2755 
Q 1159 2438 1159 1844 
L 1159 0 
L 581 0 
L 581 3500 
L 1159 3500 
L 1159 2956 
Q 1341 3275 1631 3429 
Q 1922 3584 2338 3584 
Q 2397 3584 2469 3576 
Q 2541 3569 2628 3553 
L 2631 2963 
z
" id="DejaVuSans-72" transform="scale(0.015625)"/>
       <path d="M 2194 1759 
Q 1497 1759 1228 1600 
Q 959 1441 959 1056 
Q 959 750 1161 570 
Q 1363 391 1709 391 
Q 2188 391 2477 730 
Q 2766 1069 2766 1631 
L 2766 1759 
L 2194 1759 
z
M 3341 1997 
L 3341 0 
L 2766 0 
L 2766 531 
Q 2569 213 2275 61 
Q 1981 -91 1556 -91 
Q 1019 -91 701 211 
Q 384 513 384 1019 
Q 384 1609 779 1909 
Q 1175 2209 1959 2209 
L 2766 2209 
L 2766 2266 
Q 2766 2663 2505 2880 
Q 2244 3097 1772 3097 
Q 1472 3097 1187 3025 
Q 903 2953 641 2809 
L 641 3341 
Q 956 3463 1253 3523 
Q 1550 3584 1831 3584 
Q 2591 3584 2966 3190 
Q 3341 2797 3341 1997 
z
" id="DejaVuSans-61" transform="scale(0.015625)"/>
       <path d="M 3513 2113 
L 3513 0 
L 2938 0 
L 2938 2094 
Q 2938 2591 2744 2837 
Q 2550 3084 2163 3084 
Q 1697 3084 1428 2787 
Q 1159 2491 1159 1978 
L 1159 0 
L 581 0 
L 581 3500 
L 1159 3500 
L 1159 2956 
Q 1366 3272 1645 3428 
Q 1925 3584 2291 3584 
Q 2894 3584 3203 3211 
Q 3513 2838 3513 2113 
z
" id="DejaVuSans-6e" transform="scale(0.015625)"/>
       <path d="M 2834 3397 
L 2834 2853 
Q 2591 2978 2328 3040 
Q 2066 3103 1784 3103 
Q 1356 3103 1142 2972 
Q 928 2841 928 2578 
Q 928 2378 1081 2264 
Q 1234 2150 1697 2047 
L 1894 2003 
Q 2506 1872 2764 1633 
Q 3022 1394 3022 966 
Q 3022 478 2636 193 
Q 2250 -91 1575 -91 
Q 1294 -91 989 -36 
Q 684 19 347 128 
L 347 722 
Q 666 556 975 473 
Q 1284 391 1588 391 
Q 1994 391 2212 530 
Q 2431 669 2431 922 
Q 2431 1156 2273 1281 
Q 2116 1406 1581 1522 
L 1381 1569 
Q 847 1681 609 1914 
Q 372 2147 372 2553 
Q 372 3047 722 3315 
Q 1072 3584 1716 3584 
Q 2034 3584 2315 3537 
Q 2597 3491 2834 3397 
z
" id="DejaVuSans-73" transform="scale(0.015625)"/>
       <path d="M 2375 4863 
L 2375 4384 
L 1825 4384 
Q 1516 4384 1395 4259 
Q 1275 4134 1275 3809 
L 1275 3500 
L 2222 3500 
L 2222 3053 
L 1275 3053 
L 1275 0 
L 697 0 
L 697 3053 
L 147 3053 
L 147 3500 
L 697 3500 
L 697 3744 
Q 697 4328 969 4595 
Q 1241 4863 1831 4863 
L 2375 4863 
z
" id="DejaVuSans-66" transform="scale(0.015625)"/>
       <path d="M 3597 1894 
L 3597 1613 
L 953 1613 
Q 991 1019 1311 708 
Q 1631 397 2203 397 
Q 2534 397 2845 478 
Q 3156 559 3463 722 
L 3463 178 
Q 3153 47 2828 -22 
Q 2503 -91 2169 -91 
Q 1331 -91 842 396 
Q 353 884 353 1716 
Q 353 2575 817 3079 
Q 1281 3584 2069 3584 
Q 2775 3584 3186 3129 
Q 3597 2675 3597 1894 
z
M 3022 2063 
Q 3016 2534 2758 2815 
Q 2500 3097 2075 3097 
Q 1594 3097 1305 2825 
Q 1016 2553 972 2059 
L 3022 2063 
z
" id="DejaVuSans-65" transform="scale(0.015625)"/>
      </defs>
      <use xlink:href="#DejaVuSans-57"/>
      <use x="96.626953" xlink:href="#DejaVuSans-69"/>
      <use x="124.410156" xlink:href="#DejaVuSans-74"/>
      <use x="163.619141" xlink:href="#DejaVuSans-68"/>
      <use x="226.998047" xlink:href="#DejaVuSans-6f"/>
      <use x="288.179688" xlink:href="#DejaVuSans-75"/>
      <use x="351.558594" xlink:href="#DejaVuSans-74"/>
      <use x="390.767578" xlink:href="#DejaVuSans-20"/>
      <use x="422.554688" xlink:href="#DejaVuSans-74"/>
      <use x="461.763672" xlink:href="#DejaVuSans-72"/>
      <use x="502.876953" xlink:href="#DejaVuSans-61"/>
      <use x="564.15625" xlink:href="#DejaVuSans-6e"/>
      <use x="627.535156" xlink:href="#DejaVuSans-73"/>
      <use x="679.634766" xlink:href="#DejaVuSans-66"/>
      <use x="714.839844" xlink:href="#DejaVuSans-65"/>
      <use x="776.363281" xlink:href="#DejaVuSans-72"/>
     </g>
    </g>
    <g id="line2d_16">
     <path d="M 252.725625 44.282267 
L 276.725625 44.282267 
" style="fill:none;stroke:#000000;stroke-linecap:square;stroke-width:1.5;"/>
    </g>
    <g id="line2d_17"/>
    <g id="text_15">
     <!-- With KMM transfer -->
     <g transform="translate(286.325625 48.482267)scale(0.12 -0.12)">
      <defs>
       <path d="M 628 4666 
L 1259 4666 
L 1259 2694 
L 3353 4666 
L 4166 4666 
L 1850 2491 
L 4331 0 
L 3500 0 
L 1259 2247 
L 1259 0 
L 628 0 
L 628 4666 
z
" id="DejaVuSans-4b" transform="scale(0.015625)"/>
       <path d="M 628 4666 
L 1569 4666 
L 2759 1491 
L 3956 4666 
L 4897 4666 
L 4897 0 
L 4281 0 
L 4281 4097 
L 3078 897 
L 2444 897 
L 1241 4097 
L 1241 0 
L 628 0 
L 628 4666 
z
" id="DejaVuSans-4d" transform="scale(0.015625)"/>
      </defs>
      <use xlink:href="#DejaVuSans-57"/>
      <use x="96.626953" xlink:href="#DejaVuSans-69"/>
      <use x="124.410156" xlink:href="#DejaVuSans-74"/>
      <use x="163.619141" xlink:href="#DejaVuSans-68"/>
      <use x="226.998047" xlink:href="#DejaVuSans-20"/>
      <use x="258.785156" xlink:href="#DejaVuSans-4b"/>
      <use x="324.361328" xlink:href="#DejaVuSans-4d"/>
      <use x="410.640625" xlink:href="#DejaVuSans-4d"/>
      <use x="496.919922" xlink:href="#DejaVuSans-20"/>
      <use x="528.707031" xlink:href="#DejaVuSans-74"/>
      <use x="567.916016" xlink:href="#DejaVuSans-72"/>
      <use x="609.029297" xlink:href="#DejaVuSans-61"/>
      <use x="670.308594" xlink:href="#DejaVuSans-6e"/>
      <use x="733.6875" xlink:href="#DejaVuSans-73"/>
      <use x="785.787109" xlink:href="#DejaVuSans-66"/>
      <use x="820.992188" xlink:href="#DejaVuSans-65"/>
      <use x="882.515625" xlink:href="#DejaVuSans-72"/>
     </g>
    </g>
    <g id="PathCollection_5">
     <g>
      <use style="stroke:#000000;stroke-width:1.5;" x="264.725625" xlink:href="#md432e1f00c" y="62.946017"/>
     </g>
    </g>
    <g id="text_16">
     <!-- Source Domain -->
     <g transform="translate(286.325625 66.096017)scale(0.12 -0.12)">
      <defs>
       <path d="M 3425 4513 
L 3425 3897 
Q 3066 4069 2747 4153 
Q 2428 4238 2131 4238 
Q 1616 4238 1336 4038 
Q 1056 3838 1056 3469 
Q 1056 3159 1242 3001 
Q 1428 2844 1947 2747 
L 2328 2669 
Q 3034 2534 3370 2195 
Q 3706 1856 3706 1288 
Q 3706 609 3251 259 
Q 2797 -91 1919 -91 
Q 1588 -91 1214 -16 
Q 841 59 441 206 
L 441 856 
Q 825 641 1194 531 
Q 1563 422 1919 422 
Q 2459 422 2753 634 
Q 3047 847 3047 1241 
Q 3047 1584 2836 1778 
Q 2625 1972 2144 2069 
L 1759 2144 
Q 1053 2284 737 2584 
Q 422 2884 422 3419 
Q 422 4038 858 4394 
Q 1294 4750 2059 4750 
Q 2388 4750 2728 4690 
Q 3069 4631 3425 4513 
z
" id="DejaVuSans-53" transform="scale(0.015625)"/>
       <path d="M 3122 3366 
L 3122 2828 
Q 2878 2963 2633 3030 
Q 2388 3097 2138 3097 
Q 1578 3097 1268 2742 
Q 959 2388 959 1747 
Q 959 1106 1268 751 
Q 1578 397 2138 397 
Q 2388 397 2633 464 
Q 2878 531 3122 666 
L 3122 134 
Q 2881 22 2623 -34 
Q 2366 -91 2075 -91 
Q 1284 -91 818 406 
Q 353 903 353 1747 
Q 353 2603 823 3093 
Q 1294 3584 2113 3584 
Q 2378 3584 2631 3529 
Q 2884 3475 3122 3366 
z
" id="DejaVuSans-63" transform="scale(0.015625)"/>
       <path d="M 1259 4147 
L 1259 519 
L 2022 519 
Q 2988 519 3436 956 
Q 3884 1394 3884 2338 
Q 3884 3275 3436 3711 
Q 2988 4147 2022 4147 
L 1259 4147 
z
M 628 4666 
L 1925 4666 
Q 3281 4666 3915 4102 
Q 4550 3538 4550 2338 
Q 4550 1131 3912 565 
Q 3275 0 1925 0 
L 628 0 
L 628 4666 
z
" id="DejaVuSans-44" transform="scale(0.015625)"/>
       <path d="M 3328 2828 
Q 3544 3216 3844 3400 
Q 4144 3584 4550 3584 
Q 5097 3584 5394 3201 
Q 5691 2819 5691 2113 
L 5691 0 
L 5113 0 
L 5113 2094 
Q 5113 2597 4934 2840 
Q 4756 3084 4391 3084 
Q 3944 3084 3684 2787 
Q 3425 2491 3425 1978 
L 3425 0 
L 2847 0 
L 2847 2094 
Q 2847 2600 2669 2842 
Q 2491 3084 2119 3084 
Q 1678 3084 1418 2786 
Q 1159 2488 1159 1978 
L 1159 0 
L 581 0 
L 581 3500 
L 1159 3500 
L 1159 2956 
Q 1356 3278 1631 3431 
Q 1906 3584 2284 3584 
Q 2666 3584 2933 3390 
Q 3200 3197 3328 2828 
z
" id="DejaVuSans-6d" transform="scale(0.015625)"/>
      </defs>
      <use xlink:href="#DejaVuSans-53"/>
      <use x="63.476562" xlink:href="#DejaVuSans-6f"/>
      <use x="124.658203" xlink:href="#DejaVuSans-75"/>
      <use x="188.037109" xlink:href="#DejaVuSans-72"/>
      <use x="226.900391" xlink:href="#DejaVuSans-63"/>
      <use x="281.880859" xlink:href="#DejaVuSans-65"/>
      <use x="343.404297" xlink:href="#DejaVuSans-20"/>
      <use x="375.191406" xlink:href="#DejaVuSans-44"/>
      <use x="452.193359" xlink:href="#DejaVuSans-6f"/>
      <use x="513.375" xlink:href="#DejaVuSans-6d"/>
      <use x="610.787109" xlink:href="#DejaVuSans-61"/>
      <use x="672.066406" xlink:href="#DejaVuSans-69"/>
      <use x="699.849609" xlink:href="#DejaVuSans-6e"/>
     </g>
    </g>
    <g id="PathCollection_6">
     <g>
      <use style="fill:#ff0000;stroke:#ff0000;stroke-width:1.5;" x="264.725625" xlink:href="#m95597b2080" y="80.559767"/>
     </g>
    </g>
    <g id="text_17">
     <!-- Target Domain -->
     <g transform="translate(286.325625 83.709767)scale(0.12 -0.12)">
      <defs>
       <path d="M -19 4666 
L 3928 4666 
L 3928 4134 
L 2272 4134 
L 2272 0 
L 1638 0 
L 1638 4134 
L -19 4134 
L -19 4666 
z
" id="DejaVuSans-54" transform="scale(0.015625)"/>
       <path d="M 2906 1791 
Q 2906 2416 2648 2759 
Q 2391 3103 1925 3103 
Q 1463 3103 1205 2759 
Q 947 2416 947 1791 
Q 947 1169 1205 825 
Q 1463 481 1925 481 
Q 2391 481 2648 825 
Q 2906 1169 2906 1791 
z
M 3481 434 
Q 3481 -459 3084 -895 
Q 2688 -1331 1869 -1331 
Q 1566 -1331 1297 -1286 
Q 1028 -1241 775 -1147 
L 775 -588 
Q 1028 -725 1275 -790 
Q 1522 -856 1778 -856 
Q 2344 -856 2625 -561 
Q 2906 -266 2906 331 
L 2906 616 
Q 2728 306 2450 153 
Q 2172 0 1784 0 
Q 1141 0 747 490 
Q 353 981 353 1791 
Q 353 2603 747 3093 
Q 1141 3584 1784 3584 
Q 2172 3584 2450 3431 
Q 2728 3278 2906 2969 
L 2906 3500 
L 3481 3500 
L 3481 434 
z
" id="DejaVuSans-67" transform="scale(0.015625)"/>
      </defs>
      <use xlink:href="#DejaVuSans-54"/>
      <use x="44.583984" xlink:href="#DejaVuSans-61"/>
      <use x="105.863281" xlink:href="#DejaVuSans-72"/>
      <use x="145.226562" xlink:href="#DejaVuSans-67"/>
      <use x="208.703125" xlink:href="#DejaVuSans-65"/>
      <use x="270.226562" xlink:href="#DejaVuSans-74"/>
      <use x="309.435547" xlink:href="#DejaVuSans-20"/>
      <use x="341.222656" xlink:href="#DejaVuSans-44"/>
      <use x="418.224609" xlink:href="#DejaVuSans-6f"/>
      <use x="479.40625" xlink:href="#DejaVuSans-6d"/>
      <use x="576.818359" xlink:href="#DejaVuSans-61"/>
      <use x="638.097656" xlink:href="#DejaVuSans-69"/>
      <use x="665.880859" xlink:href="#DejaVuSans-6e"/>
     </g>
    </g>
    <g id="PathCollection_7">
     <g>
      <use style="fill:#bfbf00;stroke:#bfbf00;" x="264.725625" xlink:href="#m8276e7e3e6" y="98.173517"/>
     </g>
    </g>
    <g id="text_18">
     <!-- Test Data -->
     <g transform="translate(286.325625 101.323517)scale(0.12 -0.12)">
      <use xlink:href="#DejaVuSans-54"/>
      <use x="44.083984" xlink:href="#DejaVuSans-65"/>
      <use x="105.607422" xlink:href="#DejaVuSans-73"/>
      <use x="157.707031" xlink:href="#DejaVuSans-74"/>
      <use x="196.916016" xlink:href="#DejaVuSans-20"/>
      <use x="228.703125" xlink:href="#DejaVuSans-44"/>
      <use x="305.705078" xlink:href="#DejaVuSans-61"/>
      <use x="366.984375" xlink:href="#DejaVuSans-74"/>
      <use x="406.193359" xlink:href="#DejaVuSans-61"/>
     </g>
    </g>
   </g>
  </g>
 </g>
 <defs>
  <clipPath id="pb27afad121">
   <rect height="266.112" width="357.12" x="50.836875" y="10.950392"/>
  </clipPath>
 </defs>
</svg>
