<?xml version="1.0" encoding="utf-8" standalone="no"?>
<!DOCTYPE svg PUBLIC "-//W3C//DTD SVG 1.1//EN"
  "http://www.w3.org/Graphics/SVG/1.1/DTD/svg11.dtd">
<svg xmlns:xlink="http://www.w3.org/1999/xlink" width="408.794375pt" height="314.7395pt" viewBox="0 0 408.794375 314.7395" xmlns="http://www.w3.org/2000/svg" version="1.1">
 <metadata>
  <rdf:RDF xmlns:dc="http://purl.org/dc/elements/1.1/" xmlns:cc="http://creativecommons.org/ns#" xmlns:rdf="http://www.w3.org/1999/02/22-rdf-syntax-ns#">
   <cc:Work>
    <dc:type rdf:resource="http://purl.org/dc/dcmitype/StillImage"/>
    <dc:date>2023-05-24T11:53:30.807170</dc:date>
    <dc:format>image/svg+xml</dc:format>
    <dc:creator>
     <cc:Agent>
      <dc:title>Matplotlib v3.7.1, https://matplotlib.org/</dc:title>
     </cc:Agent>
    </dc:creator>
   </cc:Work>
  </rdf:RDF>
 </metadata>
 <defs>
  <style type="text/css">*{stroke-linejoin: round; stroke-linecap: butt}</style>
 </defs>
 <g id="figure_1">
  <g id="patch_1">
   <path d="M 0 314.7395 
L 408.794375 314.7395 
L 408.794375 0 
L 0 0 
z
" style="fill: #ffffff"/>
  </g>
  <g id="axes_1">
   <g id="patch_2">
    <path d="M 44.474375 273.312 
L 401.594375 273.312 
L 401.594375 7.2 
L 44.474375 7.2 
z
" style="fill: #ffffff"/>
   </g>
   <g id="PathCollection_1">
    <defs>
     <path id="m217135dc5f" d="M -2.236068 2.236068 
L 2.236068 -2.236068 
M -2.236068 -2.236068 
L 2.236068 2.236068 
" style="stroke: #000000; stroke-width: 1.5"/>
    </defs>
    <g clip-path="url(#p726734304c)">
     <use xlink:href="#m217135dc5f" x="255.520915" y="243.401469" style="stroke: #000000; stroke-width: 1.5"/>
     <use xlink:href="#m217135dc5f" x="144.559026" y="194.000231" style="stroke: #000000; stroke-width: 1.5"/>
     <use xlink:href="#m217135dc5f" x="148.70674" y="203.767361" style="stroke: #000000; stroke-width: 1.5"/>
     <use xlink:href="#m217135dc5f" x="121.672331" y="166.278856" style="stroke: #000000; stroke-width: 1.5"/>
     <use xlink:href="#m217135dc5f" x="217.860212" y="250.649188" style="stroke: #000000; stroke-width: 1.5"/>
     <use xlink:href="#m217135dc5f" x="60.707102" y="19.296" style="stroke: #000000; stroke-width: 1.5"/>
     <use xlink:href="#m217135dc5f" x="261.498809" y="246.539462" style="stroke: #000000; stroke-width: 1.5"/>
     <use xlink:href="#m217135dc5f" x="137.142857" y="174.121474" style="stroke: #000000; stroke-width: 1.5"/>
     <use xlink:href="#m217135dc5f" x="190.747813" y="206.032291" style="stroke: #000000; stroke-width: 1.5"/>
     <use xlink:href="#m217135dc5f" x="162.541678" y="197.716494" style="stroke: #000000; stroke-width: 1.5"/>
     <use xlink:href="#m217135dc5f" x="247.470221" y="239.362431" style="stroke: #000000; stroke-width: 1.5"/>
     <use xlink:href="#m217135dc5f" x="72.685974" y="63.873057" style="stroke: #000000; stroke-width: 1.5"/>
     <use xlink:href="#m217135dc5f" x="158.916881" y="216.610391" style="stroke: #000000; stroke-width: 1.5"/>
     <use xlink:href="#m217135dc5f" x="155.858266" y="176.007" style="stroke: #000000; stroke-width: 1.5"/>
     <use xlink:href="#m217135dc5f" x="231.177108" y="239.640376" style="stroke: #000000; stroke-width: 1.5"/>
     <use xlink:href="#m217135dc5f" x="120.336351" y="160.818334" style="stroke: #000000; stroke-width: 1.5"/>
     <use xlink:href="#m217135dc5f" x="166.359772" y="209.912282" style="stroke: #000000; stroke-width: 1.5"/>
     <use xlink:href="#m217135dc5f" x="131.354269" y="137.029199" style="stroke: #000000; stroke-width: 1.5"/>
     <use xlink:href="#m217135dc5f" x="177.010932" y="220.290265" style="stroke: #000000; stroke-width: 1.5"/>
     <use xlink:href="#m217135dc5f" x="203.837153" y="227.825695" style="stroke: #000000; stroke-width: 1.5"/>
     <use xlink:href="#m217135dc5f" x="120.30023" y="146.4618" style="stroke: #000000; stroke-width: 1.5"/>
     <use xlink:href="#m217135dc5f" x="231.720691" y="245.726069" style="stroke: #000000; stroke-width: 1.5"/>
     <use xlink:href="#m217135dc5f" x="219.655723" y="258.008836" style="stroke: #000000; stroke-width: 1.5"/>
     <use xlink:href="#m217135dc5f" x="199.851397" y="241.074037" style="stroke: #000000; stroke-width: 1.5"/>
     <use xlink:href="#m217135dc5f" x="219.619261" y="243.765556" style="stroke: #000000; stroke-width: 1.5"/>
     <use xlink:href="#m217135dc5f" x="140.987593" y="174.177495" style="stroke: #000000; stroke-width: 1.5"/>
     <use xlink:href="#m217135dc5f" x="168.817991" y="202.339894" style="stroke: #000000; stroke-width: 1.5"/>
     <use xlink:href="#m217135dc5f" x="128.480555" y="150.370545" style="stroke: #000000; stroke-width: 1.5"/>
     <use xlink:href="#m217135dc5f" x="161.622775" y="203.730728" style="stroke: #000000; stroke-width: 1.5"/>
     <use xlink:href="#m217135dc5f" x="201.233947" y="222.792769" style="stroke: #000000; stroke-width: 1.5"/>
    </g>
   </g>
   <g id="PathCollection_2">
    <path d="M 255.520915 246.563747 
C 256.359561 246.563747 257.163971 246.230549 257.756983 245.637537 
C 258.349996 245.044525 258.683193 244.240115 258.683193 243.401469 
C 258.683193 242.562824 258.349996 241.758414 257.756983 241.165401 
C 257.163971 240.572389 256.359561 240.239192 255.520915 240.239192 
C 254.68227 240.239192 253.87786 240.572389 253.284847 241.165401 
C 252.691835 241.758414 252.358638 242.562824 252.358638 243.401469 
C 252.358638 244.240115 252.691835 245.044525 253.284847 245.637537 
C 253.87786 246.230549 254.68227 246.563747 255.520915 246.563747 
z
" clip-path="url(#p726734304c)" style="fill: #00ffff; fill-opacity: 0.5; stroke: #00ffff; stroke-opacity: 0.5"/>
    <path d="M 144.559026 194.001265 
C 144.5593 194.001265 144.559563 194.001156 144.559757 194.000962 
C 144.559951 194.000768 144.56006 194.000505 144.56006 194.000231 
C 144.56006 193.999957 144.559951 193.999694 144.559757 193.9995 
C 144.559563 193.999306 144.5593 193.999197 144.559026 193.999197 
C 144.558752 193.999197 144.558489 193.999306 144.558295 193.9995 
C 144.558101 193.999694 144.557992 193.999957 144.557992 194.000231 
C 144.557992 194.000505 144.558101 194.000768 144.558295 194.000962 
C 144.558489 194.001156 144.558752 194.001265 144.559026 194.001265 
z
" clip-path="url(#p726734304c)" style="fill: #00ffff; fill-opacity: 0.5; stroke: #00ffff; stroke-opacity: 0.5"/>
    <path d="M 148.70674 203.768321 
C 148.706995 203.768321 148.707239 203.76822 148.707419 203.76804 
C 148.707599 203.76786 148.707701 203.767615 148.707701 203.767361 
C 148.707701 203.767106 148.707599 203.766862 148.707419 203.766682 
C 148.707239 203.766502 148.706995 203.7664 148.70674 203.7664 
C 148.706486 203.7664 148.706241 203.766502 148.706061 203.766682 
C 148.705881 203.766862 148.70578 203.767106 148.70578 203.767361 
C 148.70578 203.767615 148.705881 203.76786 148.706061 203.76804 
C 148.706241 203.76822 148.706486 203.768321 148.70674 203.768321 
z
" clip-path="url(#p726734304c)" style="fill: #00ffff; fill-opacity: 0.5; stroke: #00ffff; stroke-opacity: 0.5"/>
    <path d="M 121.672331 166.284005 
C 121.673697 166.284005 121.675007 166.283463 121.675973 166.282497 
C 121.676938 166.281531 121.677481 166.280221 121.677481 166.278856 
C 121.677481 166.27749 121.676938 166.27618 121.675973 166.275214 
C 121.675007 166.274249 121.673697 166.273706 121.672331 166.273706 
C 121.670966 166.273706 121.669656 166.274249 121.66869 166.275214 
C 121.667724 166.27618 121.667182 166.27749 121.667182 166.278856 
C 121.667182 166.280221 121.667724 166.281531 121.66869 166.282497 
C 121.669656 166.283463 121.670966 166.284005 121.672331 166.284005 
z
" clip-path="url(#p726734304c)" style="fill: #00ffff; fill-opacity: 0.5; stroke: #00ffff; stroke-opacity: 0.5"/>
    <path d="M 217.860212 253.811466 
C 218.698858 253.811466 219.503268 253.478268 220.09628 252.885256 
C 220.689292 252.292244 221.02249 251.487834 221.02249 250.649188 
C 221.02249 249.810542 220.689292 249.006132 220.09628 248.41312 
C 219.503268 247.820108 218.698858 247.48691 217.860212 247.48691 
C 217.021567 247.48691 216.217157 247.820108 215.624144 248.41312 
C 215.031132 249.006132 214.697935 249.810542 214.697935 250.649188 
C 214.697935 251.487834 215.031132 252.292244 215.624144 252.885256 
C 216.217157 253.478268 217.021567 253.811466 217.860212 253.811466 
z
" clip-path="url(#p726734304c)" style="fill: #00ffff; fill-opacity: 0.5; stroke: #00ffff; stroke-opacity: 0.5"/>
    <path d="M 60.707102 22.458278 
C 61.545748 22.458278 62.350158 22.12508 62.94317 21.532068 
C 63.536182 20.939056 63.86938 20.134646 63.86938 19.296 
C 63.86938 18.457354 63.536182 17.652944 62.94317 17.059932 
C 62.350158 16.46692 61.545748 16.133722 60.707102 16.133722 
C 59.868456 16.133722 59.064046 16.46692 58.471034 17.059932 
C 57.878022 17.652944 57.544825 18.457354 57.544825 19.296 
C 57.544825 20.134646 57.878022 20.939056 58.471034 21.532068 
C 59.064046 22.12508 59.868456 22.458278 60.707102 22.458278 
z
" clip-path="url(#p726734304c)" style="fill: #00ffff; fill-opacity: 0.5; stroke: #00ffff; stroke-opacity: 0.5"/>
    <path d="M 261.498809 249.70174 
C 262.337455 249.70174 263.141865 249.368543 263.734877 248.77553 
C 264.32789 248.182518 264.661087 247.378108 264.661087 246.539462 
C 264.661087 245.700817 264.32789 244.896407 263.734877 244.303394 
C 263.141865 243.710382 262.337455 243.377185 261.498809 243.377185 
C 260.660164 243.377185 259.855754 243.710382 259.262742 244.303394 
C 258.669729 244.896407 258.336532 245.700817 258.336532 246.539462 
C 258.336532 247.378108 258.669729 248.182518 259.262742 248.77553 
C 259.855754 249.368543 260.660164 249.70174 261.498809 249.70174 
z
" clip-path="url(#p726734304c)" style="fill: #00ffff; fill-opacity: 0.5; stroke: #00ffff; stroke-opacity: 0.5"/>
    <path d="M 137.142857 174.122723 
C 137.143188 174.122723 137.143506 174.122591 137.14374 174.122357 
C 137.143974 174.122123 137.144106 174.121805 137.144106 174.121474 
C 137.144106 174.121143 137.143974 174.120825 137.14374 174.120591 
C 137.143506 174.120357 137.143188 174.120225 137.142857 174.120225 
C 137.142526 174.120225 137.142208 174.120357 137.141974 174.120591 
C 137.14174 174.120825 137.141608 174.121143 137.141608 174.121474 
C 137.141608 174.121805 137.14174 174.122123 137.141974 174.122357 
C 137.142208 174.122591 137.142526 174.122723 137.142857 174.122723 
z
" clip-path="url(#p726734304c)" style="fill: #00ffff; fill-opacity: 0.5; stroke: #00ffff; stroke-opacity: 0.5"/>
    <path d="M 190.747813 206.033352 
C 190.748094 206.033352 190.748364 206.03324 190.748563 206.033041 
C 190.748761 206.032842 190.748873 206.032573 190.748873 206.032291 
C 190.748873 206.03201 190.748761 206.03174 190.748563 206.031541 
C 190.748364 206.031343 190.748094 206.031231 190.747813 206.031231 
C 190.747532 206.031231 190.747262 206.031343 190.747063 206.031541 
C 190.746864 206.03174 190.746752 206.03201 190.746752 206.032291 
C 190.746752 206.032573 190.746864 206.032842 190.747063 206.033041 
C 190.747262 206.03324 190.747532 206.033352 190.747813 206.033352 
z
" clip-path="url(#p726734304c)" style="fill: #00ffff; fill-opacity: 0.5; stroke: #00ffff; stroke-opacity: 0.5"/>
    <path d="M 162.541678 197.717327 
C 162.541899 197.717327 162.542111 197.717239 162.542267 197.717083 
C 162.542423 197.716927 162.542511 197.716715 162.542511 197.716494 
C 162.542511 197.716273 162.542423 197.716061 162.542267 197.715905 
C 162.542111 197.715748 162.541899 197.715661 162.541678 197.715661 
C 162.541457 197.715661 162.541245 197.715748 162.541088 197.715905 
C 162.540932 197.716061 162.540844 197.716273 162.540844 197.716494 
C 162.540844 197.716715 162.540932 197.716927 162.541088 197.717083 
C 162.541245 197.717239 162.541457 197.717327 162.541678 197.717327 
z
" clip-path="url(#p726734304c)" style="fill: #00ffff; fill-opacity: 0.5; stroke: #00ffff; stroke-opacity: 0.5"/>
    <path d="M 247.470221 242.524708 
C 248.308867 242.524708 249.113277 242.191511 249.706289 241.598499 
C 250.299301 241.005486 250.632499 240.201077 250.632499 239.362431 
C 250.632499 238.523785 250.299301 237.719375 249.706289 237.126363 
C 249.113277 236.533351 248.308867 236.200153 247.470221 236.200153 
C 246.631576 236.200153 245.827166 236.533351 245.234153 237.126363 
C 244.641141 237.719375 244.307944 238.523785 244.307944 239.362431 
C 244.307944 240.201077 244.641141 241.005486 245.234153 241.598499 
C 245.827166 242.191511 246.631576 242.524708 247.470221 242.524708 
z
" clip-path="url(#p726734304c)" style="fill: #00ffff; fill-opacity: 0.5; stroke: #00ffff; stroke-opacity: 0.5"/>
    <path d="M 72.685974 67.035334 
C 73.52462 67.035334 74.32903 66.702137 74.922042 66.109125 
C 75.515054 65.516112 75.848252 64.711702 75.848252 63.873057 
C 75.848252 63.034411 75.515054 62.230001 74.922042 61.636989 
C 74.32903 61.043977 73.52462 60.710779 72.685974 60.710779 
C 71.847328 60.710779 71.042918 61.043977 70.449906 61.636989 
C 69.856894 62.230001 69.523697 63.034411 69.523697 63.873057 
C 69.523697 64.711702 69.856894 65.516112 70.449906 66.109125 
C 71.042918 66.702137 71.847328 67.035334 72.685974 67.035334 
z
" clip-path="url(#p726734304c)" style="fill: #00ffff; fill-opacity: 0.5; stroke: #00ffff; stroke-opacity: 0.5"/>
    <path d="M 158.916881 216.611245 
C 158.917107 216.611245 158.917324 216.611155 158.917484 216.610995 
C 158.917644 216.610835 158.917734 216.610618 158.917734 216.610391 
C 158.917734 216.610165 158.917644 216.609948 158.917484 216.609788 
C 158.917324 216.609628 158.917107 216.609538 158.916881 216.609538 
C 158.916655 216.609538 158.916438 216.609628 158.916278 216.609788 
C 158.916118 216.609948 158.916028 216.610165 158.916028 216.610391 
C 158.916028 216.610618 158.916118 216.610835 158.916278 216.610995 
C 158.916438 216.611155 158.916655 216.611245 158.916881 216.611245 
z
" clip-path="url(#p726734304c)" style="fill: #00ffff; fill-opacity: 0.5; stroke: #00ffff; stroke-opacity: 0.5"/>
    <path d="M 155.858266 176.007877 
C 155.858498 176.007877 155.858721 176.007784 155.858886 176.00762 
C 155.85905 176.007456 155.859142 176.007233 155.859142 176.007 
C 155.859142 176.006768 155.85905 176.006545 155.858886 176.00638 
C 155.858721 176.006216 155.858498 176.006123 155.858266 176.006123 
C 155.858033 176.006123 155.85781 176.006216 155.857646 176.00638 
C 155.857482 176.006545 155.857389 176.006768 155.857389 176.007 
C 155.857389 176.007233 155.857482 176.007456 155.857646 176.00762 
C 155.85781 176.007784 155.858033 176.007877 155.858266 176.007877 
z
" clip-path="url(#p726734304c)" style="fill: #00ffff; fill-opacity: 0.5; stroke: #00ffff; stroke-opacity: 0.5"/>
    <path d="M 231.177108 242.802654 
C 232.015754 242.802654 232.820164 242.469456 233.413176 241.876444 
C 234.006188 241.283432 234.339386 240.479022 234.339386 239.640376 
C 234.339386 238.801731 234.006188 237.997321 233.413176 237.404308 
C 232.820164 236.811296 232.015754 236.478099 231.177108 236.478099 
C 230.338462 236.478099 229.534052 236.811296 228.94104 237.404308 
C 228.348028 237.997321 228.01483 238.801731 228.01483 239.640376 
C 228.01483 240.479022 228.348028 241.283432 228.94104 241.876444 
C 229.534052 242.469456 230.338462 242.802654 231.177108 242.802654 
z
" clip-path="url(#p726734304c)" style="fill: #00ffff; fill-opacity: 0.5; stroke: #00ffff; stroke-opacity: 0.5"/>
    <path d="M 120.336351 160.828793 
C 120.339125 160.828793 120.341785 160.827691 120.343747 160.82573 
C 120.345708 160.823768 120.34681 160.821108 120.34681 160.818334 
C 120.34681 160.815561 120.345708 160.8129 120.343747 160.810939 
C 120.341785 160.808978 120.339125 160.807876 120.336351 160.807876 
C 120.333578 160.807876 120.330917 160.808978 120.328956 160.810939 
C 120.326995 160.8129 120.325893 160.815561 120.325893 160.818334 
C 120.325893 160.821108 120.326995 160.823768 120.328956 160.82573 
C 120.330917 160.827691 120.333578 160.828793 120.336351 160.828793 
z
" clip-path="url(#p726734304c)" style="fill: #00ffff; fill-opacity: 0.5; stroke: #00ffff; stroke-opacity: 0.5"/>
    <path d="M 166.359772 209.913102 
C 166.35999 209.913102 166.360199 209.913016 166.360353 209.912862 
C 166.360507 209.912708 166.360593 209.912499 166.360593 209.912282 
C 166.360593 209.912064 166.360507 209.911855 166.360353 209.911701 
C 166.360199 209.911547 166.35999 209.911461 166.359772 209.911461 
C 166.359555 209.911461 166.359346 209.911547 166.359192 209.911701 
C 166.359038 209.911855 166.358952 209.912064 166.358952 209.912282 
C 166.358952 209.912499 166.359038 209.912708 166.359192 209.912862 
C 166.359346 209.913016 166.359555 209.913102 166.359772 209.913102 
z
" clip-path="url(#p726734304c)" style="fill: #00ffff; fill-opacity: 0.5; stroke: #00ffff; stroke-opacity: 0.5"/>
    <path d="M 131.354269 137.030781 
C 131.354688 137.030781 131.355091 137.030615 131.355387 137.030318 
C 131.355684 137.030021 131.355851 137.029619 131.355851 137.029199 
C 131.355851 137.02878 131.355684 137.028377 131.355387 137.028081 
C 131.355091 137.027784 131.354688 137.027617 131.354269 137.027617 
C 131.353849 137.027617 131.353447 137.027784 131.35315 137.028081 
C 131.352853 137.028377 131.352686 137.02878 131.352686 137.029199 
C 131.352686 137.029619 131.352853 137.030021 131.35315 137.030318 
C 131.353447 137.030615 131.353849 137.030781 131.354269 137.030781 
z
" clip-path="url(#p726734304c)" style="fill: #00ffff; fill-opacity: 0.5; stroke: #00ffff; stroke-opacity: 0.5"/>
    <path d="M 177.010932 220.291099 
C 177.011153 220.291099 177.011366 220.291011 177.011522 220.290855 
C 177.011679 220.290698 177.011767 220.290486 177.011767 220.290265 
C 177.011767 220.290043 177.011679 220.289831 177.011522 220.289674 
C 177.011366 220.289518 177.011153 220.28943 177.010932 220.28943 
C 177.01071 220.28943 177.010498 220.289518 177.010342 220.289674 
C 177.010185 220.289831 177.010097 220.290043 177.010097 220.290265 
C 177.010097 220.290486 177.010185 220.290698 177.010342 220.290855 
C 177.010498 220.291011 177.01071 220.291099 177.010932 220.291099 
z
" clip-path="url(#p726734304c)" style="fill: #00ffff; fill-opacity: 0.5; stroke: #00ffff; stroke-opacity: 0.5"/>
    <path d="M 203.837153 230.987972 
C 204.675798 230.987972 205.480208 230.654774 206.07322 230.061762 
C 206.666232 229.46875 206.99943 228.66434 206.99943 227.825695 
C 206.99943 226.987049 206.666232 226.182639 206.07322 225.589627 
C 205.480208 224.996615 204.675798 224.663417 203.837153 224.663417 
C 202.998507 224.663417 202.194097 224.996615 201.601085 225.589627 
C 201.008073 226.182639 200.674876 226.987049 200.674876 227.825695 
C 200.674876 228.66434 201.008073 229.46875 201.601085 230.061762 
C 202.194097 230.654774 202.998507 230.987972 203.837153 230.987972 
z
" clip-path="url(#p726734304c)" style="fill: #00ffff; fill-opacity: 0.5; stroke: #00ffff; stroke-opacity: 0.5"/>
    <path d="M 120.30023 147.540152 
C 120.586213 147.540152 120.86052 147.42653 121.06274 147.22431 
C 121.26496 147.02209 121.378582 146.747782 121.378582 146.4618 
C 121.378582 146.175817 121.26496 145.901509 121.06274 145.699289 
C 120.86052 145.497069 120.586213 145.383447 120.30023 145.383447 
C 120.014248 145.383447 119.73994 145.497069 119.53772 145.699289 
C 119.3355 145.901509 119.221878 146.175817 119.221878 146.4618 
C 119.221878 146.747782 119.3355 147.02209 119.53772 147.22431 
C 119.73994 147.42653 120.014248 147.540152 120.30023 147.540152 
z
" clip-path="url(#p726734304c)" style="fill: #00ffff; fill-opacity: 0.5; stroke: #00ffff; stroke-opacity: 0.5"/>
    <path d="M 231.720691 248.888347 
C 232.559336 248.888347 233.363746 248.555149 233.956759 247.962137 
C 234.549771 247.369125 234.882968 246.564715 234.882968 245.726069 
C 234.882968 244.887423 234.549771 244.083013 233.956759 243.490001 
C 233.363746 242.896989 232.559336 242.563791 231.720691 242.563791 
C 230.882045 242.563791 230.077635 242.896989 229.484623 243.490001 
C 228.891611 244.083013 228.558413 244.887423 228.558413 245.726069 
C 228.558413 246.564715 228.891611 247.369125 229.484623 247.962137 
C 230.077635 248.555149 230.882045 248.888347 231.720691 248.888347 
z
" clip-path="url(#p726734304c)" style="fill: #00ffff; fill-opacity: 0.5; stroke: #00ffff; stroke-opacity: 0.5"/>
    <path d="M 219.655723 261.171113 
C 220.494369 261.171113 221.298779 260.837916 221.891791 260.244904 
C 222.484803 259.651891 222.818 258.847482 222.818 258.008836 
C 222.818 257.17019 222.484803 256.36578 221.891791 255.772768 
C 221.298779 255.179756 220.494369 254.846558 219.655723 254.846558 
C 218.817077 254.846558 218.012667 255.179756 217.419655 255.772768 
C 216.826643 256.36578 216.493445 257.17019 216.493445 258.008836 
C 216.493445 258.847482 216.826643 259.651891 217.419655 260.244904 
C 218.012667 260.837916 218.817077 261.171113 219.655723 261.171113 
z
" clip-path="url(#p726734304c)" style="fill: #00ffff; fill-opacity: 0.5; stroke: #00ffff; stroke-opacity: 0.5"/>
    <path d="M 199.851397 241.076454 
C 199.852038 241.076454 199.852653 241.0762 199.853106 241.075746 
C 199.853559 241.075293 199.853814 241.074678 199.853814 241.074037 
C 199.853814 241.073397 199.853559 241.072782 199.853106 241.072328 
C 199.852653 241.071875 199.852038 241.071621 199.851397 241.071621 
C 199.850756 241.071621 199.850141 241.071875 199.849688 241.072328 
C 199.849235 241.072782 199.84898 241.073397 199.84898 241.074037 
C 199.84898 241.074678 199.849235 241.075293 199.849688 241.075746 
C 199.850141 241.0762 199.850756 241.076454 199.851397 241.076454 
z
" clip-path="url(#p726734304c)" style="fill: #00ffff; fill-opacity: 0.5; stroke: #00ffff; stroke-opacity: 0.5"/>
    <path d="M 219.619261 246.927834 
C 220.457907 246.927834 221.262317 246.594637 221.855329 246.001624 
C 222.448341 245.408612 222.781539 244.604202 222.781539 243.765556 
C 222.781539 242.926911 222.448341 242.122501 221.855329 241.529488 
C 221.262317 240.936476 220.457907 240.603279 219.619261 240.603279 
C 218.780616 240.603279 217.976206 240.936476 217.383193 241.529488 
C 216.790181 242.122501 216.456984 242.926911 216.456984 243.765556 
C 216.456984 244.604202 216.790181 245.408612 217.383193 246.001624 
C 217.976206 246.594637 218.780616 246.927834 219.619261 246.927834 
z
" clip-path="url(#p726734304c)" style="fill: #00ffff; fill-opacity: 0.5; stroke: #00ffff; stroke-opacity: 0.5"/>
    <path d="M 140.987593 174.178615 
C 140.98789 174.178615 140.988175 174.178497 140.988385 174.178287 
C 140.988595 174.178077 140.988713 174.177792 140.988713 174.177495 
C 140.988713 174.177198 140.988595 174.176913 140.988385 174.176703 
C 140.988175 174.176493 140.98789 174.176375 140.987593 174.176375 
C 140.987296 174.176375 140.987011 174.176493 140.986801 174.176703 
C 140.986591 174.176913 140.986473 174.177198 140.986473 174.177495 
C 140.986473 174.177792 140.986591 174.178077 140.986801 174.178287 
C 140.987011 174.178497 140.987296 174.178615 140.987593 174.178615 
z
" clip-path="url(#p726734304c)" style="fill: #00ffff; fill-opacity: 0.5; stroke: #00ffff; stroke-opacity: 0.5"/>
    <path d="M 168.817991 202.340711 
C 168.818208 202.340711 168.818416 202.340625 168.818569 202.340472 
C 168.818722 202.340319 168.818809 202.340111 168.818809 202.339894 
C 168.818809 202.339677 168.818722 202.33947 168.818569 202.339316 
C 168.818416 202.339163 168.818208 202.339077 168.817991 202.339077 
C 168.817775 202.339077 168.817567 202.339163 168.817414 202.339316 
C 168.81726 202.33947 168.817174 202.339677 168.817174 202.339894 
C 168.817174 202.340111 168.81726 202.340319 168.817414 202.340472 
C 168.817567 202.340625 168.817775 202.340711 168.817991 202.340711 
z
" clip-path="url(#p726734304c)" style="fill: #00ffff; fill-opacity: 0.5; stroke: #00ffff; stroke-opacity: 0.5"/>
    <path d="M 128.480555 150.372433 
C 128.481056 150.372433 128.481536 150.372234 128.48189 150.37188 
C 128.482244 150.371526 128.482443 150.371046 128.482443 150.370545 
C 128.482443 150.370044 128.482244 150.369564 128.48189 150.36921 
C 128.481536 150.368856 128.481056 150.368657 128.480555 150.368657 
C 128.480054 150.368657 128.479574 150.368856 128.47922 150.36921 
C 128.478866 150.369564 128.478667 150.370044 128.478667 150.370545 
C 128.478667 150.371046 128.478866 150.371526 128.47922 150.37188 
C 128.479574 150.372234 128.480054 150.372433 128.480555 150.372433 
z
" clip-path="url(#p726734304c)" style="fill: #00ffff; fill-opacity: 0.5; stroke: #00ffff; stroke-opacity: 0.5"/>
    <path d="M 161.622775 203.731565 
C 161.622997 203.731565 161.62321 203.731477 161.623367 203.73132 
C 161.623524 203.731163 161.623613 203.73095 161.623613 203.730728 
C 161.623613 203.730506 161.623524 203.730292 161.623367 203.730135 
C 161.62321 203.729978 161.622997 203.72989 161.622775 203.72989 
C 161.622553 203.72989 161.62234 203.729978 161.622183 203.730135 
C 161.622026 203.730292 161.621938 203.730506 161.621938 203.730728 
C 161.621938 203.73095 161.622026 203.731163 161.622183 203.73132 
C 161.62234 203.731477 161.622553 203.731565 161.622775 203.731565 
z
" clip-path="url(#p726734304c)" style="fill: #00ffff; fill-opacity: 0.5; stroke: #00ffff; stroke-opacity: 0.5"/>
    <path d="M 201.233947 225.765479 
C 202.022319 225.765479 202.778507 225.452256 203.335971 224.894793 
C 203.893434 224.33733 204.206657 223.581141 204.206657 222.792769 
C 204.206657 222.004397 203.893434 221.248209 203.335971 220.690746 
C 202.778507 220.133283 202.022319 219.820059 201.233947 219.820059 
C 200.445575 219.820059 199.689387 220.133283 199.131924 220.690746 
C 198.574461 221.248209 198.261237 222.004397 198.261237 222.792769 
C 198.261237 223.581141 198.574461 224.33733 199.131924 224.894793 
C 199.689387 225.452256 200.445575 225.765479 201.233947 225.765479 
z
" clip-path="url(#p726734304c)" style="fill: #00ffff; fill-opacity: 0.5; stroke: #00ffff; stroke-opacity: 0.5"/>
   </g>
   <g id="PathCollection_3">
    <defs>
     <path id="md93e1a6387" d="M -2.236068 2.236068 
L 2.236068 -2.236068 
M -2.236068 -2.236068 
L 2.236068 2.236068 
" style="stroke: #ff0000; stroke-width: 1.5"/>
    </defs>
    <g clip-path="url(#p726734304c)">
     <use xlink:href="#md93e1a6387" x="361.699414" y="56.919546" style="fill: #ff0000; stroke: #ff0000; stroke-width: 1.5"/>
     <use xlink:href="#md93e1a6387" x="294.018961" y="215.815962" style="fill: #ff0000; stroke: #ff0000; stroke-width: 1.5"/>
     <use xlink:href="#md93e1a6387" x="322.729826" y="146.660255" style="fill: #ff0000; stroke: #ff0000; stroke-width: 1.5"/>
     <use xlink:href="#md93e1a6387" x="385.361648" y="29.480532" style="fill: #ff0000; stroke: #ff0000; stroke-width: 1.5"/>
    </g>
   </g>
   <g id="PathCollection_4">
    <defs>
     <path id="m9ab7e3a38b" d="M 0 2.236068 
C 0.593012 2.236068 1.161816 2.000462 1.581139 1.581139 
C 2.000462 1.161816 2.236068 0.593012 2.236068 0 
C 2.236068 -0.593012 2.000462 -1.161816 1.581139 -1.581139 
C 1.161816 -2.000462 0.593012 -2.236068 0 -2.236068 
C -0.593012 -2.236068 -1.161816 -2.000462 -1.581139 -1.581139 
C -2.000462 -1.161816 -2.236068 -0.593012 -2.236068 0 
C -2.236068 0.593012 -2.000462 1.161816 -1.581139 1.581139 
C -1.161816 2.000462 -0.593012 2.236068 0 2.236068 
z
" style="stroke: #bfbf00"/>
    </defs>
    <g clip-path="url(#p726734304c)">
     <use xlink:href="#m9ab7e3a38b" x="253.481254" y="261.216" style="fill: #bfbf00; stroke: #bfbf00"/>
     <use xlink:href="#m9ab7e3a38b" x="271.36987" y="235.505425" style="fill: #bfbf00; stroke: #bfbf00"/>
     <use xlink:href="#m9ab7e3a38b" x="168.157715" y="206.85506" style="fill: #bfbf00; stroke: #bfbf00"/>
     <use xlink:href="#m9ab7e3a38b" x="355.557014" y="118.003531" style="fill: #bfbf00; stroke: #bfbf00"/>
    </g>
   </g>
   <g id="matplotlib.axis_1">
    <g id="xtick_1">
     <g id="line2d_1">
      <defs>
       <path id="m6cb6defde1" d="M 0 0 
L 0 3.5 
" style="stroke: #000000; stroke-width: 0.8"/>
      </defs>
      <g>
       <use xlink:href="#m6cb6defde1" x="75.670332" y="273.312" style="stroke: #000000; stroke-width: 0.8"/>
      </g>
     </g>
     <g id="text_1">
      <!-- −6 -->
      <g transform="translate(68.299238 287.910437) scale(0.1 -0.1)">
       <defs>
        <path id="DejaVuSans-2212" d="M 678 2272 
L 4684 2272 
L 4684 1741 
L 678 1741 
L 678 2272 
z
" transform="scale(0.015625)"/>
        <path id="DejaVuSans-36" d="M 2113 2584 
Q 1688 2584 1439 2293 
Q 1191 2003 1191 1497 
Q 1191 994 1439 701 
Q 1688 409 2113 409 
Q 2538 409 2786 701 
Q 3034 994 3034 1497 
Q 3034 2003 2786 2293 
Q 2538 2584 2113 2584 
z
M 3366 4563 
L 3366 3988 
Q 3128 4100 2886 4159 
Q 2644 4219 2406 4219 
Q 1781 4219 1451 3797 
Q 1122 3375 1075 2522 
Q 1259 2794 1537 2939 
Q 1816 3084 2150 3084 
Q 2853 3084 3261 2657 
Q 3669 2231 3669 1497 
Q 3669 778 3244 343 
Q 2819 -91 2113 -91 
Q 1303 -91 875 529 
Q 447 1150 447 2328 
Q 447 3434 972 4092 
Q 1497 4750 2381 4750 
Q 2619 4750 2861 4703 
Q 3103 4656 3366 4563 
z
" transform="scale(0.015625)"/>
       </defs>
       <use xlink:href="#DejaVuSans-2212"/>
       <use xlink:href="#DejaVuSans-36" x="83.789062"/>
      </g>
     </g>
    </g>
    <g id="xtick_2">
     <g id="line2d_2">
      <g>
       <use xlink:href="#m6cb6defde1" x="125.293247" y="273.312" style="stroke: #000000; stroke-width: 0.8"/>
      </g>
     </g>
     <g id="text_2">
      <!-- −4 -->
      <g transform="translate(117.922153 287.910437) scale(0.1 -0.1)">
       <defs>
        <path id="DejaVuSans-34" d="M 2419 4116 
L 825 1625 
L 2419 1625 
L 2419 4116 
z
M 2253 4666 
L 3047 4666 
L 3047 1625 
L 3713 1625 
L 3713 1100 
L 3047 1100 
L 3047 0 
L 2419 0 
L 2419 1100 
L 313 1100 
L 313 1709 
L 2253 4666 
z
" transform="scale(0.015625)"/>
       </defs>
       <use xlink:href="#DejaVuSans-2212"/>
       <use xlink:href="#DejaVuSans-34" x="83.789062"/>
      </g>
     </g>
    </g>
    <g id="xtick_3">
     <g id="line2d_3">
      <g>
       <use xlink:href="#m6cb6defde1" x="174.916163" y="273.312" style="stroke: #000000; stroke-width: 0.8"/>
      </g>
     </g>
     <g id="text_3">
      <!-- −2 -->
      <g transform="translate(167.545069 287.910437) scale(0.1 -0.1)">
       <defs>
        <path id="DejaVuSans-32" d="M 1228 531 
L 3431 531 
L 3431 0 
L 469 0 
L 469 531 
Q 828 903 1448 1529 
Q 2069 2156 2228 2338 
Q 2531 2678 2651 2914 
Q 2772 3150 2772 3378 
Q 2772 3750 2511 3984 
Q 2250 4219 1831 4219 
Q 1534 4219 1204 4116 
Q 875 4013 500 3803 
L 500 4441 
Q 881 4594 1212 4672 
Q 1544 4750 1819 4750 
Q 2544 4750 2975 4387 
Q 3406 4025 3406 3419 
Q 3406 3131 3298 2873 
Q 3191 2616 2906 2266 
Q 2828 2175 2409 1742 
Q 1991 1309 1228 531 
z
" transform="scale(0.015625)"/>
       </defs>
       <use xlink:href="#DejaVuSans-2212"/>
       <use xlink:href="#DejaVuSans-32" x="83.789062"/>
      </g>
     </g>
    </g>
    <g id="xtick_4">
     <g id="line2d_4">
      <g>
       <use xlink:href="#m6cb6defde1" x="224.539078" y="273.312" style="stroke: #000000; stroke-width: 0.8"/>
      </g>
     </g>
     <g id="text_4">
      <!-- 0 -->
      <g transform="translate(221.357828 287.910437) scale(0.1 -0.1)">
       <defs>
        <path id="DejaVuSans-30" d="M 2034 4250 
Q 1547 4250 1301 3770 
Q 1056 3291 1056 2328 
Q 1056 1369 1301 889 
Q 1547 409 2034 409 
Q 2525 409 2770 889 
Q 3016 1369 3016 2328 
Q 3016 3291 2770 3770 
Q 2525 4250 2034 4250 
z
M 2034 4750 
Q 2819 4750 3233 4129 
Q 3647 3509 3647 2328 
Q 3647 1150 3233 529 
Q 2819 -91 2034 -91 
Q 1250 -91 836 529 
Q 422 1150 422 2328 
Q 422 3509 836 4129 
Q 1250 4750 2034 4750 
z
" transform="scale(0.015625)"/>
       </defs>
       <use xlink:href="#DejaVuSans-30"/>
      </g>
     </g>
    </g>
    <g id="xtick_5">
     <g id="line2d_5">
      <g>
       <use xlink:href="#m6cb6defde1" x="274.161994" y="273.312" style="stroke: #000000; stroke-width: 0.8"/>
      </g>
     </g>
     <g id="text_5">
      <!-- 2 -->
      <g transform="translate(270.980744 287.910437) scale(0.1 -0.1)">
       <use xlink:href="#DejaVuSans-32"/>
      </g>
     </g>
    </g>
    <g id="xtick_6">
     <g id="line2d_6">
      <g>
       <use xlink:href="#m6cb6defde1" x="323.784909" y="273.312" style="stroke: #000000; stroke-width: 0.8"/>
      </g>
     </g>
     <g id="text_6">
      <!-- 4 -->
      <g transform="translate(320.603659 287.910437) scale(0.1 -0.1)">
       <use xlink:href="#DejaVuSans-34"/>
      </g>
     </g>
    </g>
    <g id="xtick_7">
     <g id="line2d_7">
      <g>
       <use xlink:href="#m6cb6defde1" x="373.407825" y="273.312" style="stroke: #000000; stroke-width: 0.8"/>
      </g>
     </g>
     <g id="text_7">
      <!-- 6 -->
      <g transform="translate(370.226575 287.910437) scale(0.1 -0.1)">
       <use xlink:href="#DejaVuSans-36"/>
      </g>
     </g>
    </g>
    <g id="text_8">
     <!-- x -->
     <g transform="translate(218.89125 304.627937) scale(0.14 -0.14)">
      <defs>
       <path id="DejaVuSans-78" d="M 3513 3500 
L 2247 1797 
L 3578 0 
L 2900 0 
L 1881 1375 
L 863 0 
L 184 0 
L 1544 1831 
L 300 3500 
L 978 3500 
L 1906 2253 
L 2834 3500 
L 3513 3500 
z
" transform="scale(0.015625)"/>
      </defs>
      <use xlink:href="#DejaVuSans-78"/>
     </g>
    </g>
   </g>
   <g id="matplotlib.axis_2">
    <g id="ytick_1">
     <g id="line2d_8">
      <defs>
       <path id="mf5c040964f" d="M 0 0 
L -3.5 0 
" style="stroke: #000000; stroke-width: 0.8"/>
      </defs>
      <g>
       <use xlink:href="#mf5c040964f" x="44.474375" y="266.200489" style="stroke: #000000; stroke-width: 0.8"/>
      </g>
     </g>
     <g id="text_9">
      <!-- 0 -->
      <g transform="translate(31.111875 269.999708) scale(0.1 -0.1)">
       <use xlink:href="#DejaVuSans-30"/>
      </g>
     </g>
    </g>
    <g id="ytick_2">
     <g id="line2d_9">
      <g>
       <use xlink:href="#mf5c040964f" x="44.474375" y="215.35801" style="stroke: #000000; stroke-width: 0.8"/>
      </g>
     </g>
     <g id="text_10">
      <!-- 10 -->
      <g transform="translate(24.749375 219.157228) scale(0.1 -0.1)">
       <defs>
        <path id="DejaVuSans-31" d="M 794 531 
L 1825 531 
L 1825 4091 
L 703 3866 
L 703 4441 
L 1819 4666 
L 2450 4666 
L 2450 531 
L 3481 531 
L 3481 0 
L 794 0 
L 794 531 
z
" transform="scale(0.015625)"/>
       </defs>
       <use xlink:href="#DejaVuSans-31"/>
       <use xlink:href="#DejaVuSans-30" x="63.623047"/>
      </g>
     </g>
    </g>
    <g id="ytick_3">
     <g id="line2d_10">
      <g>
       <use xlink:href="#mf5c040964f" x="44.474375" y="164.51553" style="stroke: #000000; stroke-width: 0.8"/>
      </g>
     </g>
     <g id="text_11">
      <!-- 20 -->
      <g transform="translate(24.749375 168.314749) scale(0.1 -0.1)">
       <use xlink:href="#DejaVuSans-32"/>
       <use xlink:href="#DejaVuSans-30" x="63.623047"/>
      </g>
     </g>
    </g>
    <g id="ytick_4">
     <g id="line2d_11">
      <g>
       <use xlink:href="#mf5c040964f" x="44.474375" y="113.673051" style="stroke: #000000; stroke-width: 0.8"/>
      </g>
     </g>
     <g id="text_12">
      <!-- 30 -->
      <g transform="translate(24.749375 117.472269) scale(0.1 -0.1)">
       <defs>
        <path id="DejaVuSans-33" d="M 2597 2516 
Q 3050 2419 3304 2112 
Q 3559 1806 3559 1356 
Q 3559 666 3084 287 
Q 2609 -91 1734 -91 
Q 1441 -91 1130 -33 
Q 819 25 488 141 
L 488 750 
Q 750 597 1062 519 
Q 1375 441 1716 441 
Q 2309 441 2620 675 
Q 2931 909 2931 1356 
Q 2931 1769 2642 2001 
Q 2353 2234 1838 2234 
L 1294 2234 
L 1294 2753 
L 1863 2753 
Q 2328 2753 2575 2939 
Q 2822 3125 2822 3475 
Q 2822 3834 2567 4026 
Q 2313 4219 1838 4219 
Q 1578 4219 1281 4162 
Q 984 4106 628 3988 
L 628 4550 
Q 988 4650 1302 4700 
Q 1616 4750 1894 4750 
Q 2613 4750 3031 4423 
Q 3450 4097 3450 3541 
Q 3450 3153 3228 2886 
Q 3006 2619 2597 2516 
z
" transform="scale(0.015625)"/>
       </defs>
       <use xlink:href="#DejaVuSans-33"/>
       <use xlink:href="#DejaVuSans-30" x="63.623047"/>
      </g>
     </g>
    </g>
    <g id="ytick_5">
     <g id="line2d_12">
      <g>
       <use xlink:href="#mf5c040964f" x="44.474375" y="62.830571" style="stroke: #000000; stroke-width: 0.8"/>
      </g>
     </g>
     <g id="text_13">
      <!-- 40 -->
      <g transform="translate(24.749375 66.62979) scale(0.1 -0.1)">
       <use xlink:href="#DejaVuSans-34"/>
       <use xlink:href="#DejaVuSans-30" x="63.623047"/>
      </g>
     </g>
    </g>
    <g id="ytick_6">
     <g id="line2d_13">
      <g>
       <use xlink:href="#mf5c040964f" x="44.474375" y="11.988091" style="stroke: #000000; stroke-width: 0.8"/>
      </g>
     </g>
     <g id="text_14">
      <!-- 50 -->
      <g transform="translate(24.749375 15.78731) scale(0.1 -0.1)">
       <defs>
        <path id="DejaVuSans-35" d="M 691 4666 
L 3169 4666 
L 3169 4134 
L 1269 4134 
L 1269 2991 
Q 1406 3038 1543 3061 
Q 1681 3084 1819 3084 
Q 2600 3084 3056 2656 
Q 3513 2228 3513 1497 
Q 3513 744 3044 326 
Q 2575 -91 1722 -91 
Q 1428 -91 1123 -41 
Q 819 9 494 109 
L 494 744 
Q 775 591 1075 516 
Q 1375 441 1709 441 
Q 2250 441 2565 725 
Q 2881 1009 2881 1497 
Q 2881 1984 2565 2268 
Q 2250 2553 1709 2553 
Q 1456 2553 1204 2497 
Q 953 2441 691 2322 
L 691 4666 
z
" transform="scale(0.015625)"/>
       </defs>
       <use xlink:href="#DejaVuSans-35"/>
       <use xlink:href="#DejaVuSans-30" x="63.623047"/>
      </g>
     </g>
    </g>
    <g id="text_15">
     <!-- y -->
     <g transform="translate(17.837812 144.399125) rotate(-90) scale(0.14 -0.14)">
      <defs>
       <path id="DejaVuSans-79" d="M 2059 -325 
Q 1816 -950 1584 -1140 
Q 1353 -1331 966 -1331 
L 506 -1331 
L 506 -850 
L 844 -850 
Q 1081 -850 1212 -737 
Q 1344 -625 1503 -206 
L 1606 56 
L 191 3500 
L 800 3500 
L 1894 763 
L 2988 3500 
L 3597 3500 
L 2059 -325 
z
" transform="scale(0.015625)"/>
      </defs>
      <use xlink:href="#DejaVuSans-79"/>
     </g>
    </g>
   </g>
   <g id="patch_3">
    <path d="M 44.474375 273.312 
L 44.474375 7.2 
" style="fill: none; stroke: #000000; stroke-width: 0.8; stroke-linejoin: miter; stroke-linecap: square"/>
   </g>
   <g id="patch_4">
    <path d="M 401.594375 273.312 
L 401.594375 7.2 
" style="fill: none; stroke: #000000; stroke-width: 0.8; stroke-linejoin: miter; stroke-linecap: square"/>
   </g>
   <g id="patch_5">
    <path d="M 44.474375 273.312 
L 401.594375 273.312 
" style="fill: none; stroke: #000000; stroke-width: 0.8; stroke-linejoin: miter; stroke-linecap: square"/>
   </g>
   <g id="patch_6">
    <path d="M 44.474375 7.2 
L 401.594375 7.2 
" style="fill: none; stroke: #000000; stroke-width: 0.8; stroke-linejoin: miter; stroke-linecap: square"/>
   </g>
   <g id="legend_1">
    <g id="patch_7">
     <path d="M 158.040312 69.64125 
L 288.028437 69.64125 
Q 290.428437 69.64125 290.428437 67.24125 
L 290.428437 15.6 
Q 290.428437 13.2 288.028437 13.2 
L 158.040312 13.2 
Q 155.640312 13.2 155.640312 15.6 
L 155.640312 67.24125 
Q 155.640312 69.64125 158.040312 69.64125 
z
" style="fill: #ffffff; opacity: 0.8; stroke: #cccccc; stroke-linejoin: miter"/>
    </g>
    <g id="PathCollection_5">
     <g>
      <use xlink:href="#m217135dc5f" x="172.440313" y="23.968125" style="stroke: #000000; stroke-width: 1.5"/>
     </g>
    </g>
    <g id="text_16">
     <!-- Source Domain -->
     <g transform="translate(194.040312 27.118125) scale(0.12 -0.12)">
      <defs>
       <path id="DejaVuSans-53" d="M 3425 4513 
L 3425 3897 
Q 3066 4069 2747 4153 
Q 2428 4238 2131 4238 
Q 1616 4238 1336 4038 
Q 1056 3838 1056 3469 
Q 1056 3159 1242 3001 
Q 1428 2844 1947 2747 
L 2328 2669 
Q 3034 2534 3370 2195 
Q 3706 1856 3706 1288 
Q 3706 609 3251 259 
Q 2797 -91 1919 -91 
Q 1588 -91 1214 -16 
Q 841 59 441 206 
L 441 856 
Q 825 641 1194 531 
Q 1563 422 1919 422 
Q 2459 422 2753 634 
Q 3047 847 3047 1241 
Q 3047 1584 2836 1778 
Q 2625 1972 2144 2069 
L 1759 2144 
Q 1053 2284 737 2584 
Q 422 2884 422 3419 
Q 422 4038 858 4394 
Q 1294 4750 2059 4750 
Q 2388 4750 2728 4690 
Q 3069 4631 3425 4513 
z
" transform="scale(0.015625)"/>
       <path id="DejaVuSans-6f" d="M 1959 3097 
Q 1497 3097 1228 2736 
Q 959 2375 959 1747 
Q 959 1119 1226 758 
Q 1494 397 1959 397 
Q 2419 397 2687 759 
Q 2956 1122 2956 1747 
Q 2956 2369 2687 2733 
Q 2419 3097 1959 3097 
z
M 1959 3584 
Q 2709 3584 3137 3096 
Q 3566 2609 3566 1747 
Q 3566 888 3137 398 
Q 2709 -91 1959 -91 
Q 1206 -91 779 398 
Q 353 888 353 1747 
Q 353 2609 779 3096 
Q 1206 3584 1959 3584 
z
" transform="scale(0.015625)"/>
       <path id="DejaVuSans-75" d="M 544 1381 
L 544 3500 
L 1119 3500 
L 1119 1403 
Q 1119 906 1312 657 
Q 1506 409 1894 409 
Q 2359 409 2629 706 
Q 2900 1003 2900 1516 
L 2900 3500 
L 3475 3500 
L 3475 0 
L 2900 0 
L 2900 538 
Q 2691 219 2414 64 
Q 2138 -91 1772 -91 
Q 1169 -91 856 284 
Q 544 659 544 1381 
z
M 1991 3584 
L 1991 3584 
z
" transform="scale(0.015625)"/>
       <path id="DejaVuSans-72" d="M 2631 2963 
Q 2534 3019 2420 3045 
Q 2306 3072 2169 3072 
Q 1681 3072 1420 2755 
Q 1159 2438 1159 1844 
L 1159 0 
L 581 0 
L 581 3500 
L 1159 3500 
L 1159 2956 
Q 1341 3275 1631 3429 
Q 1922 3584 2338 3584 
Q 2397 3584 2469 3576 
Q 2541 3569 2628 3553 
L 2631 2963 
z
" transform="scale(0.015625)"/>
       <path id="DejaVuSans-63" d="M 3122 3366 
L 3122 2828 
Q 2878 2963 2633 3030 
Q 2388 3097 2138 3097 
Q 1578 3097 1268 2742 
Q 959 2388 959 1747 
Q 959 1106 1268 751 
Q 1578 397 2138 397 
Q 2388 397 2633 464 
Q 2878 531 3122 666 
L 3122 134 
Q 2881 22 2623 -34 
Q 2366 -91 2075 -91 
Q 1284 -91 818 406 
Q 353 903 353 1747 
Q 353 2603 823 3093 
Q 1294 3584 2113 3584 
Q 2378 3584 2631 3529 
Q 2884 3475 3122 3366 
z
" transform="scale(0.015625)"/>
       <path id="DejaVuSans-65" d="M 3597 1894 
L 3597 1613 
L 953 1613 
Q 991 1019 1311 708 
Q 1631 397 2203 397 
Q 2534 397 2845 478 
Q 3156 559 3463 722 
L 3463 178 
Q 3153 47 2828 -22 
Q 2503 -91 2169 -91 
Q 1331 -91 842 396 
Q 353 884 353 1716 
Q 353 2575 817 3079 
Q 1281 3584 2069 3584 
Q 2775 3584 3186 3129 
Q 3597 2675 3597 1894 
z
M 3022 2063 
Q 3016 2534 2758 2815 
Q 2500 3097 2075 3097 
Q 1594 3097 1305 2825 
Q 1016 2553 972 2059 
L 3022 2063 
z
" transform="scale(0.015625)"/>
       <path id="DejaVuSans-20" transform="scale(0.015625)"/>
       <path id="DejaVuSans-44" d="M 1259 4147 
L 1259 519 
L 2022 519 
Q 2988 519 3436 956 
Q 3884 1394 3884 2338 
Q 3884 3275 3436 3711 
Q 2988 4147 2022 4147 
L 1259 4147 
z
M 628 4666 
L 1925 4666 
Q 3281 4666 3915 4102 
Q 4550 3538 4550 2338 
Q 4550 1131 3912 565 
Q 3275 0 1925 0 
L 628 0 
L 628 4666 
z
" transform="scale(0.015625)"/>
       <path id="DejaVuSans-6d" d="M 3328 2828 
Q 3544 3216 3844 3400 
Q 4144 3584 4550 3584 
Q 5097 3584 5394 3201 
Q 5691 2819 5691 2113 
L 5691 0 
L 5113 0 
L 5113 2094 
Q 5113 2597 4934 2840 
Q 4756 3084 4391 3084 
Q 3944 3084 3684 2787 
Q 3425 2491 3425 1978 
L 3425 0 
L 2847 0 
L 2847 2094 
Q 2847 2600 2669 2842 
Q 2491 3084 2119 3084 
Q 1678 3084 1418 2786 
Q 1159 2488 1159 1978 
L 1159 0 
L 581 0 
L 581 3500 
L 1159 3500 
L 1159 2956 
Q 1356 3278 1631 3431 
Q 1906 3584 2284 3584 
Q 2666 3584 2933 3390 
Q 3200 3197 3328 2828 
z
" transform="scale(0.015625)"/>
       <path id="DejaVuSans-61" d="M 2194 1759 
Q 1497 1759 1228 1600 
Q 959 1441 959 1056 
Q 959 750 1161 570 
Q 1363 391 1709 391 
Q 2188 391 2477 730 
Q 2766 1069 2766 1631 
L 2766 1759 
L 2194 1759 
z
M 3341 1997 
L 3341 0 
L 2766 0 
L 2766 531 
Q 2569 213 2275 61 
Q 1981 -91 1556 -91 
Q 1019 -91 701 211 
Q 384 513 384 1019 
Q 384 1609 779 1909 
Q 1175 2209 1959 2209 
L 2766 2209 
L 2766 2266 
Q 2766 2663 2505 2880 
Q 2244 3097 1772 3097 
Q 1472 3097 1187 3025 
Q 903 2953 641 2809 
L 641 3341 
Q 956 3463 1253 3523 
Q 1550 3584 1831 3584 
Q 2591 3584 2966 3190 
Q 3341 2797 3341 1997 
z
" transform="scale(0.015625)"/>
       <path id="DejaVuSans-69" d="M 603 3500 
L 1178 3500 
L 1178 0 
L 603 0 
L 603 3500 
z
M 603 4863 
L 1178 4863 
L 1178 4134 
L 603 4134 
L 603 4863 
z
" transform="scale(0.015625)"/>
       <path id="DejaVuSans-6e" d="M 3513 2113 
L 3513 0 
L 2938 0 
L 2938 2094 
Q 2938 2591 2744 2837 
Q 2550 3084 2163 3084 
Q 1697 3084 1428 2787 
Q 1159 2491 1159 1978 
L 1159 0 
L 581 0 
L 581 3500 
L 1159 3500 
L 1159 2956 
Q 1366 3272 1645 3428 
Q 1925 3584 2291 3584 
Q 2894 3584 3203 3211 
Q 3513 2838 3513 2113 
z
" transform="scale(0.015625)"/>
      </defs>
      <use xlink:href="#DejaVuSans-53"/>
      <use xlink:href="#DejaVuSans-6f" x="63.476562"/>
      <use xlink:href="#DejaVuSans-75" x="124.658203"/>
      <use xlink:href="#DejaVuSans-72" x="188.037109"/>
      <use xlink:href="#DejaVuSans-63" x="226.900391"/>
      <use xlink:href="#DejaVuSans-65" x="281.880859"/>
      <use xlink:href="#DejaVuSans-20" x="343.404297"/>
      <use xlink:href="#DejaVuSans-44" x="375.191406"/>
      <use xlink:href="#DejaVuSans-6f" x="452.193359"/>
      <use xlink:href="#DejaVuSans-6d" x="513.375"/>
      <use xlink:href="#DejaVuSans-61" x="610.787109"/>
      <use xlink:href="#DejaVuSans-69" x="672.066406"/>
      <use xlink:href="#DejaVuSans-6e" x="699.849609"/>
     </g>
    </g>
    <g id="PathCollection_6">
     <g>
      <use xlink:href="#md93e1a6387" x="172.440313" y="41.581875" style="fill: #ff0000; stroke: #ff0000; stroke-width: 1.5"/>
     </g>
    </g>
    <g id="text_17">
     <!-- Target Domain -->
     <g transform="translate(194.040312 44.731875) scale(0.12 -0.12)">
      <defs>
       <path id="DejaVuSans-54" d="M -19 4666 
L 3928 4666 
L 3928 4134 
L 2272 4134 
L 2272 0 
L 1638 0 
L 1638 4134 
L -19 4134 
L -19 4666 
z
" transform="scale(0.015625)"/>
       <path id="DejaVuSans-67" d="M 2906 1791 
Q 2906 2416 2648 2759 
Q 2391 3103 1925 3103 
Q 1463 3103 1205 2759 
Q 947 2416 947 1791 
Q 947 1169 1205 825 
Q 1463 481 1925 481 
Q 2391 481 2648 825 
Q 2906 1169 2906 1791 
z
M 3481 434 
Q 3481 -459 3084 -895 
Q 2688 -1331 1869 -1331 
Q 1566 -1331 1297 -1286 
Q 1028 -1241 775 -1147 
L 775 -588 
Q 1028 -725 1275 -790 
Q 1522 -856 1778 -856 
Q 2344 -856 2625 -561 
Q 2906 -266 2906 331 
L 2906 616 
Q 2728 306 2450 153 
Q 2172 0 1784 0 
Q 1141 0 747 490 
Q 353 981 353 1791 
Q 353 2603 747 3093 
Q 1141 3584 1784 3584 
Q 2172 3584 2450 3431 
Q 2728 3278 2906 2969 
L 2906 3500 
L 3481 3500 
L 3481 434 
z
" transform="scale(0.015625)"/>
       <path id="DejaVuSans-74" d="M 1172 4494 
L 1172 3500 
L 2356 3500 
L 2356 3053 
L 1172 3053 
L 1172 1153 
Q 1172 725 1289 603 
Q 1406 481 1766 481 
L 2356 481 
L 2356 0 
L 1766 0 
Q 1100 0 847 248 
Q 594 497 594 1153 
L 594 3053 
L 172 3053 
L 172 3500 
L 594 3500 
L 594 4494 
L 1172 4494 
z
" transform="scale(0.015625)"/>
      </defs>
      <use xlink:href="#DejaVuSans-54"/>
      <use xlink:href="#DejaVuSans-61" x="44.583984"/>
      <use xlink:href="#DejaVuSans-72" x="105.863281"/>
      <use xlink:href="#DejaVuSans-67" x="145.226562"/>
      <use xlink:href="#DejaVuSans-65" x="208.703125"/>
      <use xlink:href="#DejaVuSans-74" x="270.226562"/>
      <use xlink:href="#DejaVuSans-20" x="309.435547"/>
      <use xlink:href="#DejaVuSans-44" x="341.222656"/>
      <use xlink:href="#DejaVuSans-6f" x="418.224609"/>
      <use xlink:href="#DejaVuSans-6d" x="479.40625"/>
      <use xlink:href="#DejaVuSans-61" x="576.818359"/>
      <use xlink:href="#DejaVuSans-69" x="638.097656"/>
      <use xlink:href="#DejaVuSans-6e" x="665.880859"/>
     </g>
    </g>
    <g id="PathCollection_7">
     <g>
      <use xlink:href="#m9ab7e3a38b" x="172.440313" y="59.195625" style="fill: #bfbf00; stroke: #bfbf00"/>
     </g>
    </g>
    <g id="text_18">
     <!-- Test Data -->
     <g transform="translate(194.040312 62.345625) scale(0.12 -0.12)">
      <defs>
       <path id="DejaVuSans-73" d="M 2834 3397 
L 2834 2853 
Q 2591 2978 2328 3040 
Q 2066 3103 1784 3103 
Q 1356 3103 1142 2972 
Q 928 2841 928 2578 
Q 928 2378 1081 2264 
Q 1234 2150 1697 2047 
L 1894 2003 
Q 2506 1872 2764 1633 
Q 3022 1394 3022 966 
Q 3022 478 2636 193 
Q 2250 -91 1575 -91 
Q 1294 -91 989 -36 
Q 684 19 347 128 
L 347 722 
Q 666 556 975 473 
Q 1284 391 1588 391 
Q 1994 391 2212 530 
Q 2431 669 2431 922 
Q 2431 1156 2273 1281 
Q 2116 1406 1581 1522 
L 1381 1569 
Q 847 1681 609 1914 
Q 372 2147 372 2553 
Q 372 3047 722 3315 
Q 1072 3584 1716 3584 
Q 2034 3584 2315 3537 
Q 2597 3491 2834 3397 
z
" transform="scale(0.015625)"/>
      </defs>
      <use xlink:href="#DejaVuSans-54"/>
      <use xlink:href="#DejaVuSans-65" x="44.083984"/>
      <use xlink:href="#DejaVuSans-73" x="105.607422"/>
      <use xlink:href="#DejaVuSans-74" x="157.707031"/>
      <use xlink:href="#DejaVuSans-20" x="196.916016"/>
      <use xlink:href="#DejaVuSans-44" x="228.703125"/>
      <use xlink:href="#DejaVuSans-61" x="305.705078"/>
      <use xlink:href="#DejaVuSans-74" x="366.984375"/>
      <use xlink:href="#DejaVuSans-61" x="406.193359"/>
     </g>
    </g>
   </g>
  </g>
 </g>
 <defs>
  <clipPath id="p726734304c">
   <rect x="44.474375" y="7.2" width="357.12" height="266.112"/>
  </clipPath>
 </defs>
</svg>
