<?xml version="1.0" encoding="utf-8" standalone="no"?>
<!DOCTYPE svg PUBLIC "-//W3C//DTD SVG 1.1//EN"
  "http://www.w3.org/Graphics/SVG/1.1/DTD/svg11.dtd">
<svg xmlns:xlink="http://www.w3.org/1999/xlink" width="408.794375pt" height="314.7395pt" viewBox="0 0 408.794375 314.7395" xmlns="http://www.w3.org/2000/svg" version="1.1">
 <metadata>
  <rdf:RDF xmlns:dc="http://purl.org/dc/elements/1.1/" xmlns:cc="http://creativecommons.org/ns#" xmlns:rdf="http://www.w3.org/1999/02/22-rdf-syntax-ns#">
   <cc:Work>
    <dc:type rdf:resource="http://purl.org/dc/dcmitype/StillImage"/>
    <dc:date>2023-05-26T11:02:42.880614</dc:date>
    <dc:format>image/svg+xml</dc:format>
    <dc:creator>
     <cc:Agent>
      <dc:title>Matplotlib v3.7.1, https://matplotlib.org/</dc:title>
     </cc:Agent>
    </dc:creator>
   </cc:Work>
  </rdf:RDF>
 </metadata>
 <defs>
  <style type="text/css">*{stroke-linejoin: round; stroke-linecap: butt}</style>
 </defs>
 <g id="figure_1">
  <g id="patch_1">
   <path d="M 0 314.7395 
L 408.794375 314.7395 
L 408.794375 0 
L 0 0 
z
" style="fill: #ffffff"/>
  </g>
  <g id="axes_1">
   <g id="patch_2">
    <path d="M 44.474375 273.312 
L 401.594375 273.312 
L 401.594375 7.2 
L 44.474375 7.2 
z
" style="fill: #ffffff"/>
   </g>
   <g id="PathCollection_1">
    <path d="M 255.520915 246.563747 
C 256.359561 246.563747 257.163971 246.230549 257.756983 245.637537 
C 258.349996 245.044525 258.683193 244.240115 258.683193 243.401469 
C 258.683193 242.562824 258.349996 241.758414 257.756983 241.165401 
C 257.163971 240.572389 256.359561 240.239192 255.520915 240.239192 
C 254.68227 240.239192 253.87786 240.572389 253.284847 241.165401 
C 252.691835 241.758414 252.358638 242.562824 252.358638 243.401469 
C 252.358638 244.240115 252.691835 245.044525 253.284847 245.637537 
C 253.87786 246.230549 254.68227 246.563747 255.520915 246.563747 
z
" clip-path="url(#pfbbb79d2f5)" style="fill: #00ffff; fill-opacity: 0.6; stroke: #00ffff; stroke-opacity: 0.6"/>
    <path d="M 144.559026 195.91825 
C 145.06769 195.91825 145.55559 195.716155 145.91527 195.356475 
C 146.27495 194.996795 146.477044 194.508896 146.477044 194.000231 
C 146.477044 193.491567 146.27495 193.003667 145.91527 192.643987 
C 145.55559 192.284307 145.06769 192.082213 144.559026 192.082213 
C 144.050361 192.082213 143.562462 192.284307 143.202782 192.643987 
C 142.843102 193.003667 142.641007 193.491567 142.641007 194.000231 
C 142.641007 194.508896 142.843102 194.996795 143.202782 195.356475 
C 143.562462 195.716155 144.050361 195.91825 144.559026 195.91825 
z
" clip-path="url(#pfbbb79d2f5)" style="fill: #00ffff; fill-opacity: 0.6; stroke: #00ffff; stroke-opacity: 0.6"/>
    <path d="M 148.70674 205.685379 
C 149.215405 205.685379 149.703304 205.483285 150.062984 205.123604 
C 150.422664 204.763924 150.624759 204.276025 150.624759 203.767361 
C 150.624759 203.258696 150.422664 202.770797 150.062984 202.411117 
C 149.703304 202.051437 149.215405 201.849342 148.70674 201.849342 
C 148.198076 201.849342 147.710177 202.051437 147.350497 202.411117 
C 146.990816 202.770797 146.788722 203.258696 146.788722 203.767361 
C 146.788722 204.276025 146.990816 204.763924 147.350497 205.123604 
C 147.710177 205.483285 148.198076 205.685379 148.70674 205.685379 
z
" clip-path="url(#pfbbb79d2f5)" style="fill: #00ffff; fill-opacity: 0.6; stroke: #00ffff; stroke-opacity: 0.6"/>
    <path d="M 121.672331 168.196877 
C 122.180996 168.196877 122.668896 167.994782 123.028577 167.635101 
C 123.388257 167.275421 123.590352 166.787521 123.590352 166.278856 
C 123.590352 165.770191 123.388257 165.282291 123.028577 164.92261 
C 122.668896 164.56293 122.180996 164.360835 121.672331 164.360835 
C 121.163666 164.360835 120.675766 164.56293 120.316086 164.92261 
C 119.956405 165.282291 119.75431 165.770191 119.75431 166.278856 
C 119.75431 166.787521 119.956405 167.275421 120.316086 167.635101 
C 120.675766 167.994782 121.163666 168.196877 121.672331 168.196877 
z
" clip-path="url(#pfbbb79d2f5)" style="fill: #00ffff; fill-opacity: 0.6; stroke: #00ffff; stroke-opacity: 0.6"/>
    <path d="M 217.860212 253.811466 
C 218.698858 253.811466 219.503268 253.478268 220.09628 252.885256 
C 220.689292 252.292244 221.02249 251.487834 221.02249 250.649188 
C 221.02249 249.810542 220.689292 249.006132 220.09628 248.41312 
C 219.503268 247.820108 218.698858 247.48691 217.860212 247.48691 
C 217.021567 247.48691 216.217157 247.820108 215.624144 248.41312 
C 215.031132 249.006132 214.697935 249.810542 214.697935 250.649188 
C 214.697935 251.487834 215.031132 252.292244 215.624144 252.885256 
C 216.217157 253.478268 217.021567 253.811466 217.860212 253.811466 
z
" clip-path="url(#pfbbb79d2f5)" style="fill: #00ffff; fill-opacity: 0.6; stroke: #00ffff; stroke-opacity: 0.6"/>
    <path d="M 60.707102 22.458278 
C 61.545748 22.458278 62.350158 22.12508 62.94317 21.532068 
C 63.536182 20.939056 63.86938 20.134646 63.86938 19.296 
C 63.86938 18.457354 63.536182 17.652944 62.94317 17.059932 
C 62.350158 16.46692 61.545748 16.133722 60.707102 16.133722 
C 59.868456 16.133722 59.064046 16.46692 58.471034 17.059932 
C 57.878022 17.652944 57.544825 18.457354 57.544825 19.296 
C 57.544825 20.134646 57.878022 20.939056 58.471034 21.532068 
C 59.064046 22.12508 59.868456 22.458278 60.707102 22.458278 
z
" clip-path="url(#pfbbb79d2f5)" style="fill: #00ffff; fill-opacity: 0.6; stroke: #00ffff; stroke-opacity: 0.6"/>
    <path d="M 261.498809 249.70174 
C 262.337455 249.70174 263.141865 249.368543 263.734877 248.77553 
C 264.32789 248.182518 264.661087 247.378108 264.661087 246.539462 
C 264.661087 245.700817 264.32789 244.896407 263.734877 244.303394 
C 263.141865 243.710382 262.337455 243.377185 261.498809 243.377185 
C 260.660164 243.377185 259.855754 243.710382 259.262742 244.303394 
C 258.669729 244.896407 258.336532 245.700817 258.336532 246.539462 
C 258.336532 247.378108 258.669729 248.182518 259.262742 248.77553 
C 259.855754 249.368543 260.660164 249.70174 261.498809 249.70174 
z
" clip-path="url(#pfbbb79d2f5)" style="fill: #00ffff; fill-opacity: 0.6; stroke: #00ffff; stroke-opacity: 0.6"/>
    <path d="M 137.142857 176.039492 
C 137.651521 176.039492 138.139421 175.837398 138.499101 175.477718 
C 138.858781 175.118038 139.060875 174.630138 139.060875 174.121474 
C 139.060875 173.61281 138.858781 173.12491 138.499101 172.76523 
C 138.139421 172.40555 137.651521 172.203455 137.142857 172.203455 
C 136.634192 172.203455 136.146293 172.40555 135.786613 172.76523 
C 135.426933 173.12491 135.224838 173.61281 135.224838 174.121474 
C 135.224838 174.630138 135.426933 175.118038 135.786613 175.477718 
C 136.146293 175.837398 136.634192 176.039492 137.142857 176.039492 
z
" clip-path="url(#pfbbb79d2f5)" style="fill: #00ffff; fill-opacity: 0.6; stroke: #00ffff; stroke-opacity: 0.6"/>
    <path d="M 190.747813 207.95031 
C 191.256477 207.95031 191.744377 207.748215 192.104057 207.388535 
C 192.463737 207.028855 192.665831 206.540956 192.665831 206.032291 
C 192.665831 205.523627 192.463737 205.035727 192.104057 204.676047 
C 191.744377 204.316367 191.256477 204.114273 190.747813 204.114273 
C 190.239148 204.114273 189.751249 204.316367 189.391569 204.676047 
C 189.031889 205.035727 188.829794 205.523627 188.829794 206.032291 
C 188.829794 206.540956 189.031889 207.028855 189.391569 207.388535 
C 189.751249 207.748215 190.239148 207.95031 190.747813 207.95031 
z
" clip-path="url(#pfbbb79d2f5)" style="fill: #00ffff; fill-opacity: 0.6; stroke: #00ffff; stroke-opacity: 0.6"/>
    <path d="M 162.541678 199.634512 
C 163.050342 199.634512 163.538241 199.432418 163.897921 199.072738 
C 164.257601 198.713058 164.459696 198.225158 164.459696 197.716494 
C 164.459696 197.207829 164.257601 196.71993 163.897921 196.36025 
C 163.538241 196.00057 163.050342 195.798475 162.541678 195.798475 
C 162.033013 195.798475 161.545114 196.00057 161.185434 196.36025 
C 160.825754 196.71993 160.623659 197.207829 160.623659 197.716494 
C 160.623659 198.225158 160.825754 198.713058 161.185434 199.072738 
C 161.545114 199.432418 162.033013 199.634512 162.541678 199.634512 
z
" clip-path="url(#pfbbb79d2f5)" style="fill: #00ffff; fill-opacity: 0.6; stroke: #00ffff; stroke-opacity: 0.6"/>
    <path d="M 247.470221 242.524708 
C 248.308867 242.524708 249.113277 242.191511 249.706289 241.598499 
C 250.299301 241.005486 250.632499 240.201077 250.632499 239.362431 
C 250.632499 238.523785 250.299301 237.719375 249.706289 237.126363 
C 249.113277 236.533351 248.308867 236.200153 247.470221 236.200153 
C 246.631576 236.200153 245.827166 236.533351 245.234153 237.126363 
C 244.641141 237.719375 244.307944 238.523785 244.307944 239.362431 
C 244.307944 240.201077 244.641141 241.005486 245.234153 241.598499 
C 245.827166 242.191511 246.631576 242.524708 247.470221 242.524708 
z
" clip-path="url(#pfbbb79d2f5)" style="fill: #00ffff; fill-opacity: 0.6; stroke: #00ffff; stroke-opacity: 0.6"/>
    <path d="M 72.685974 67.035334 
C 73.52462 67.035334 74.32903 66.702137 74.922042 66.109125 
C 75.515054 65.516112 75.848252 64.711702 75.848252 63.873057 
C 75.848252 63.034411 75.515054 62.230001 74.922042 61.636989 
C 74.32903 61.043977 73.52462 60.710779 72.685974 60.710779 
C 71.847328 60.710779 71.042918 61.043977 70.449906 61.636989 
C 69.856894 62.230001 69.523697 63.034411 69.523697 63.873057 
C 69.523697 64.711702 69.856894 65.516112 70.449906 66.109125 
C 71.042918 66.702137 71.847328 67.035334 72.685974 67.035334 
z
" clip-path="url(#pfbbb79d2f5)" style="fill: #00ffff; fill-opacity: 0.6; stroke: #00ffff; stroke-opacity: 0.6"/>
    <path d="M 158.916881 218.52841 
C 159.425545 218.52841 159.913445 218.326315 160.273125 217.966635 
C 160.632805 217.606955 160.834899 217.119056 160.834899 216.610391 
C 160.834899 216.101727 160.632805 215.613828 160.273125 215.254148 
C 159.913445 214.894467 159.425545 214.692373 158.916881 214.692373 
C 158.408217 214.692373 157.920317 214.894467 157.560637 215.254148 
C 157.200957 215.613828 156.998863 216.101727 156.998863 216.610391 
C 156.998863 217.119056 157.200957 217.606955 157.560637 217.966635 
C 157.920317 218.326315 158.408217 218.52841 158.916881 218.52841 
z
" clip-path="url(#pfbbb79d2f5)" style="fill: #00ffff; fill-opacity: 0.6; stroke: #00ffff; stroke-opacity: 0.6"/>
    <path d="M 155.858266 177.925019 
C 156.36693 177.925019 156.85483 177.722924 157.21451 177.363244 
C 157.57419 177.003564 157.776284 176.515665 157.776284 176.007 
C 157.776284 175.498336 157.57419 175.010436 157.21451 174.650756 
C 156.85483 174.291076 156.36693 174.088982 155.858266 174.088982 
C 155.349601 174.088982 154.861702 174.291076 154.502022 174.650756 
C 154.142342 175.010436 153.940247 175.498336 153.940247 176.007 
C 153.940247 176.515665 154.142342 177.003564 154.502022 177.363244 
C 154.861702 177.722924 155.349601 177.925019 155.858266 177.925019 
z
" clip-path="url(#pfbbb79d2f5)" style="fill: #00ffff; fill-opacity: 0.6; stroke: #00ffff; stroke-opacity: 0.6"/>
    <path d="M 231.177108 242.802654 
C 232.015754 242.802654 232.820164 242.469456 233.413176 241.876444 
C 234.006188 241.283432 234.339386 240.479022 234.339386 239.640376 
C 234.339386 238.801731 234.006188 237.997321 233.413176 237.404308 
C 232.820164 236.811296 232.015754 236.478099 231.177108 236.478099 
C 230.338462 236.478099 229.534052 236.811296 228.94104 237.404308 
C 228.348028 237.997321 228.01483 238.801731 228.01483 239.640376 
C 228.01483 240.479022 228.348028 241.283432 228.94104 241.876444 
C 229.534052 242.469456 230.338462 242.802654 231.177108 242.802654 
z
" clip-path="url(#pfbbb79d2f5)" style="fill: #00ffff; fill-opacity: 0.6; stroke: #00ffff; stroke-opacity: 0.6"/>
    <path d="M 120.336351 162.736363 
C 120.845018 162.736363 121.33292 162.534267 121.692602 162.174585 
C 122.052284 161.814903 122.25438 161.327001 122.25438 160.818334 
C 122.25438 160.309667 122.052284 159.821765 121.692602 159.462083 
C 121.33292 159.102401 120.845018 158.900305 120.336351 158.900305 
C 119.827684 158.900305 119.339782 159.102401 118.9801 159.462083 
C 118.620418 159.821765 118.418322 160.309667 118.418322 160.818334 
C 118.418322 161.327001 118.620418 161.814903 118.9801 162.174585 
C 119.339782 162.534267 119.827684 162.736363 120.336351 162.736363 
z
" clip-path="url(#pfbbb79d2f5)" style="fill: #00ffff; fill-opacity: 0.6; stroke: #00ffff; stroke-opacity: 0.6"/>
    <path d="M 166.359772 211.8303 
C 166.868437 211.8303 167.356336 211.628206 167.716016 211.268525 
C 168.075696 210.908845 168.277791 210.420946 168.277791 209.912282 
C 168.277791 209.403617 168.075696 208.915718 167.716016 208.556038 
C 167.356336 208.196358 166.868437 207.994263 166.359772 207.994263 
C 165.851108 207.994263 165.363209 208.196358 165.003528 208.556038 
C 164.643848 208.915718 164.441754 209.403617 164.441754 209.912282 
C 164.441754 210.420946 164.643848 210.908845 165.003528 211.268525 
C 165.363209 211.628206 165.851108 211.8303 166.359772 211.8303 
z
" clip-path="url(#pfbbb79d2f5)" style="fill: #00ffff; fill-opacity: 0.6; stroke: #00ffff; stroke-opacity: 0.6"/>
    <path d="M 131.354269 138.947218 
C 131.862933 138.947218 132.350832 138.745123 132.710512 138.385443 
C 133.070193 138.025763 133.272287 137.537864 133.272287 137.029199 
C 133.272287 136.520535 133.070193 136.032635 132.710512 135.672955 
C 132.350832 135.313275 131.862933 135.111181 131.354269 135.111181 
C 130.845604 135.111181 130.357705 135.313275 129.998025 135.672955 
C 129.638344 136.032635 129.43625 136.520535 129.43625 137.029199 
C 129.43625 137.537864 129.638344 138.025763 129.998025 138.385443 
C 130.357705 138.745123 130.845604 138.947218 131.354269 138.947218 
z
" clip-path="url(#pfbbb79d2f5)" style="fill: #00ffff; fill-opacity: 0.6; stroke: #00ffff; stroke-opacity: 0.6"/>
    <path d="M 177.010932 222.208283 
C 177.519596 222.208283 178.007496 222.006189 178.367176 221.646509 
C 178.726856 221.286828 178.92895 220.798929 178.92895 220.290265 
C 178.92895 219.7816 178.726856 219.293701 178.367176 218.934021 
C 178.007496 218.574341 177.519596 218.372246 177.010932 218.372246 
C 176.502267 218.372246 176.014368 218.574341 175.654688 218.934021 
C 175.295008 219.293701 175.092913 219.7816 175.092913 220.290265 
C 175.092913 220.798929 175.295008 221.286828 175.654688 221.646509 
C 176.014368 222.006189 176.502267 222.208283 177.010932 222.208283 
z
" clip-path="url(#pfbbb79d2f5)" style="fill: #00ffff; fill-opacity: 0.6; stroke: #00ffff; stroke-opacity: 0.6"/>
    <path d="M 203.837153 230.987972 
C 204.675798 230.987972 205.480208 230.654774 206.07322 230.061762 
C 206.666232 229.46875 206.99943 228.66434 206.99943 227.825695 
C 206.99943 226.987049 206.666232 226.182639 206.07322 225.589627 
C 205.480208 224.996615 204.675798 224.663417 203.837153 224.663417 
C 202.998507 224.663417 202.194097 224.996615 201.601085 225.589627 
C 201.008073 226.182639 200.674876 226.987049 200.674876 227.825695 
C 200.674876 228.66434 201.008073 229.46875 201.601085 230.061762 
C 202.194097 230.654774 202.998507 230.987972 203.837153 230.987972 
z
" clip-path="url(#pfbbb79d2f5)" style="fill: #00ffff; fill-opacity: 0.6; stroke: #00ffff; stroke-opacity: 0.6"/>
    <path d="M 120.30023 148.494641 
C 120.839346 148.494641 121.356454 148.280448 121.737666 147.899236 
C 122.118879 147.518023 122.333072 147.000915 122.333072 146.4618 
C 122.333072 145.922684 122.118879 145.405576 121.737666 145.024363 
C 121.356454 144.643151 120.839346 144.428958 120.30023 144.428958 
C 119.761114 144.428958 119.244006 144.643151 118.862794 145.024363 
C 118.481581 145.405576 118.267388 145.922684 118.267388 146.4618 
C 118.267388 147.000915 118.481581 147.518023 118.862794 147.899236 
C 119.244006 148.280448 119.761114 148.494641 120.30023 148.494641 
z
" clip-path="url(#pfbbb79d2f5)" style="fill: #00ffff; fill-opacity: 0.6; stroke: #00ffff; stroke-opacity: 0.6"/>
    <path d="M 231.720691 248.888347 
C 232.559336 248.888347 233.363746 248.555149 233.956759 247.962137 
C 234.549771 247.369125 234.882968 246.564715 234.882968 245.726069 
C 234.882968 244.887423 234.549771 244.083013 233.956759 243.490001 
C 233.363746 242.896989 232.559336 242.563791 231.720691 242.563791 
C 230.882045 242.563791 230.077635 242.896989 229.484623 243.490001 
C 228.891611 244.083013 228.558413 244.887423 228.558413 245.726069 
C 228.558413 246.564715 228.891611 247.369125 229.484623 247.962137 
C 230.077635 248.555149 230.882045 248.888347 231.720691 248.888347 
z
" clip-path="url(#pfbbb79d2f5)" style="fill: #00ffff; fill-opacity: 0.6; stroke: #00ffff; stroke-opacity: 0.6"/>
    <path d="M 219.655723 261.171113 
C 220.494369 261.171113 221.298779 260.837916 221.891791 260.244904 
C 222.484803 259.651891 222.818 258.847482 222.818 258.008836 
C 222.818 257.17019 222.484803 256.36578 221.891791 255.772768 
C 221.298779 255.179756 220.494369 254.846558 219.655723 254.846558 
C 218.817077 254.846558 218.012667 255.179756 217.419655 255.772768 
C 216.826643 256.36578 216.493445 257.17019 216.493445 258.008836 
C 216.493445 258.847482 216.826643 259.651891 217.419655 260.244904 
C 218.012667 260.837916 218.817077 261.171113 219.655723 261.171113 
z
" clip-path="url(#pfbbb79d2f5)" style="fill: #00ffff; fill-opacity: 0.6; stroke: #00ffff; stroke-opacity: 0.6"/>
    <path d="M 199.851397 242.992056 
C 200.360061 242.992056 200.847961 242.789962 201.207641 242.430282 
C 201.567321 242.070601 201.769416 241.582702 201.769416 241.074037 
C 201.769416 240.565373 201.567321 240.077473 201.207641 239.717793 
C 200.847961 239.358113 200.360061 239.156019 199.851397 239.156019 
C 199.342732 239.156019 198.854833 239.358113 198.495153 239.717793 
C 198.135472 240.077473 197.933378 240.565373 197.933378 241.074037 
C 197.933378 241.582702 198.135472 242.070601 198.495153 242.430282 
C 198.854833 242.789962 199.342732 242.992056 199.851397 242.992056 
z
" clip-path="url(#pfbbb79d2f5)" style="fill: #00ffff; fill-opacity: 0.6; stroke: #00ffff; stroke-opacity: 0.6"/>
    <path d="M 219.619261 246.927834 
C 220.457907 246.927834 221.262317 246.594637 221.855329 246.001624 
C 222.448341 245.408612 222.781539 244.604202 222.781539 243.765556 
C 222.781539 242.926911 222.448341 242.122501 221.855329 241.529488 
C 221.262317 240.936476 220.457907 240.603279 219.619261 240.603279 
C 218.780616 240.603279 217.976206 240.936476 217.383193 241.529488 
C 216.790181 242.122501 216.456984 242.926911 216.456984 243.765556 
C 216.456984 244.604202 216.790181 245.408612 217.383193 246.001624 
C 217.976206 246.594637 218.780616 246.927834 219.619261 246.927834 
z
" clip-path="url(#pfbbb79d2f5)" style="fill: #00ffff; fill-opacity: 0.6; stroke: #00ffff; stroke-opacity: 0.6"/>
    <path d="M 140.987593 176.095513 
C 141.496257 176.095513 141.984157 175.893419 142.343837 175.533739 
C 142.703517 175.174059 142.905611 174.686159 142.905611 174.177495 
C 142.905611 173.66883 142.703517 173.180931 142.343837 172.821251 
C 141.984157 172.461571 141.496257 172.259476 140.987593 172.259476 
C 140.478928 172.259476 139.991029 172.461571 139.631349 172.821251 
C 139.271669 173.180931 139.069574 173.66883 139.069574 174.177495 
C 139.069574 174.686159 139.271669 175.174059 139.631349 175.533739 
C 139.991029 175.893419 140.478928 176.095513 140.987593 176.095513 
z
" clip-path="url(#pfbbb79d2f5)" style="fill: #00ffff; fill-opacity: 0.6; stroke: #00ffff; stroke-opacity: 0.6"/>
    <path d="M 168.817991 204.257913 
C 169.326656 204.257913 169.814555 204.055818 170.174235 203.696138 
C 170.533915 203.336458 170.73601 202.848559 170.73601 202.339894 
C 170.73601 201.83123 170.533915 201.34333 170.174235 200.98365 
C 169.814555 200.62397 169.326656 200.421876 168.817991 200.421876 
C 168.309327 200.421876 167.821428 200.62397 167.461748 200.98365 
C 167.102067 201.34333 166.899973 201.83123 166.899973 202.339894 
C 166.899973 202.848559 167.102067 203.336458 167.461748 203.696138 
C 167.821428 204.055818 168.309327 204.257913 168.817991 204.257913 
z
" clip-path="url(#pfbbb79d2f5)" style="fill: #00ffff; fill-opacity: 0.6; stroke: #00ffff; stroke-opacity: 0.6"/>
    <path d="M 128.480555 152.288564 
C 128.98922 152.288564 129.477119 152.086469 129.836799 151.726789 
C 130.196479 151.367109 130.398574 150.87921 130.398574 150.370545 
C 130.398574 149.861881 130.196479 149.373981 129.836799 149.014301 
C 129.477119 148.654621 128.98922 148.452526 128.480555 148.452526 
C 127.971891 148.452526 127.483991 148.654621 127.124311 149.014301 
C 126.764631 149.373981 126.562536 149.861881 126.562536 150.370545 
C 126.562536 150.87921 126.764631 151.367109 127.124311 151.726789 
C 127.483991 152.086469 127.971891 152.288564 128.480555 152.288564 
z
" clip-path="url(#pfbbb79d2f5)" style="fill: #00ffff; fill-opacity: 0.6; stroke: #00ffff; stroke-opacity: 0.6"/>
    <path d="M 161.622775 205.648746 
C 162.13144 205.648746 162.619339 205.446652 162.979019 205.086971 
C 163.338699 204.727291 163.540794 204.239392 163.540794 203.730728 
C 163.540794 203.222063 163.338699 202.734164 162.979019 202.374484 
C 162.619339 202.014804 162.13144 201.812709 161.622775 201.812709 
C 161.114111 201.812709 160.626211 202.014804 160.266531 202.374484 
C 159.906851 202.734164 159.704757 203.222063 159.704757 203.730728 
C 159.704757 204.239392 159.906851 204.727291 160.266531 205.086971 
C 160.626211 205.446652 161.114111 205.648746 161.622775 205.648746 
z
" clip-path="url(#pfbbb79d2f5)" style="fill: #00ffff; fill-opacity: 0.6; stroke: #00ffff; stroke-opacity: 0.6"/>
    <path d="M 201.233947 225.776406 
C 202.025217 225.776406 202.784185 225.462031 203.343697 224.902519 
C 203.903209 224.343007 204.217583 223.584039 204.217583 222.792769 
C 204.217583 222.0015 203.903209 221.242532 203.343697 220.68302 
C 202.784185 220.123508 202.025217 219.809133 201.233947 219.809133 
C 200.442678 219.809133 199.68371 220.123508 199.124198 220.68302 
C 198.564686 221.242532 198.250311 222.0015 198.250311 222.792769 
C 198.250311 223.584039 198.564686 224.343007 199.124198 224.902519 
C 199.68371 225.462031 200.442678 225.776406 201.233947 225.776406 
z
" clip-path="url(#pfbbb79d2f5)" style="fill: #00ffff; fill-opacity: 0.6; stroke: #00ffff; stroke-opacity: 0.6"/>
   </g>
   <g id="PathCollection_2">
    <defs>
     <path id="me6672ce188" d="M 0 3.162278 
C 0.838646 3.162278 1.643056 2.82908 2.236068 2.236068 
C 2.82908 1.643056 3.162278 0.838646 3.162278 0 
C 3.162278 -0.838646 2.82908 -1.643056 2.236068 -2.236068 
C 1.643056 -2.82908 0.838646 -3.162278 0 -3.162278 
C -0.838646 -3.162278 -1.643056 -2.82908 -2.236068 -2.236068 
C -2.82908 -1.643056 -3.162278 -0.838646 -3.162278 0 
C -3.162278 0.838646 -2.82908 1.643056 -2.236068 2.236068 
C -1.643056 2.82908 -0.838646 3.162278 0 3.162278 
z
" style="stroke: #00ffff; stroke-opacity: 0.6"/>
    </defs>
    <g clip-path="url(#pfbbb79d2f5)">
     <use xlink:href="#me6672ce188" x="361.699414" y="56.919546" style="fill: #00ffff; fill-opacity: 0.6; stroke: #00ffff; stroke-opacity: 0.6"/>
     <use xlink:href="#me6672ce188" x="294.018961" y="215.815962" style="fill: #00ffff; fill-opacity: 0.6; stroke: #00ffff; stroke-opacity: 0.6"/>
     <use xlink:href="#me6672ce188" x="322.729826" y="146.660255" style="fill: #00ffff; fill-opacity: 0.6; stroke: #00ffff; stroke-opacity: 0.6"/>
     <use xlink:href="#me6672ce188" x="385.361648" y="29.480532" style="fill: #00ffff; fill-opacity: 0.6; stroke: #00ffff; stroke-opacity: 0.6"/>
    </g>
   </g>
   <g id="PathCollection_3">
    <defs>
     <path id="m195f404c97" d="M -2.236068 2.236068 
L 2.236068 -2.236068 
M -2.236068 -2.236068 
L 2.236068 2.236068 
" style="stroke: #000000; stroke-opacity: 0.5; stroke-width: 1.5"/>
    </defs>
    <g clip-path="url(#pfbbb79d2f5)">
     <use xlink:href="#m195f404c97" x="255.520915" y="243.401469" style="fill-opacity: 0.5; stroke: #000000; stroke-opacity: 0.5; stroke-width: 1.5"/>
     <use xlink:href="#m195f404c97" x="144.559026" y="194.000231" style="fill-opacity: 0.5; stroke: #000000; stroke-opacity: 0.5; stroke-width: 1.5"/>
     <use xlink:href="#m195f404c97" x="148.70674" y="203.767361" style="fill-opacity: 0.5; stroke: #000000; stroke-opacity: 0.5; stroke-width: 1.5"/>
     <use xlink:href="#m195f404c97" x="121.672331" y="166.278856" style="fill-opacity: 0.5; stroke: #000000; stroke-opacity: 0.5; stroke-width: 1.5"/>
     <use xlink:href="#m195f404c97" x="217.860212" y="250.649188" style="fill-opacity: 0.5; stroke: #000000; stroke-opacity: 0.5; stroke-width: 1.5"/>
     <use xlink:href="#m195f404c97" x="60.707102" y="19.296" style="fill-opacity: 0.5; stroke: #000000; stroke-opacity: 0.5; stroke-width: 1.5"/>
     <use xlink:href="#m195f404c97" x="261.498809" y="246.539462" style="fill-opacity: 0.5; stroke: #000000; stroke-opacity: 0.5; stroke-width: 1.5"/>
     <use xlink:href="#m195f404c97" x="137.142857" y="174.121474" style="fill-opacity: 0.5; stroke: #000000; stroke-opacity: 0.5; stroke-width: 1.5"/>
     <use xlink:href="#m195f404c97" x="190.747813" y="206.032291" style="fill-opacity: 0.5; stroke: #000000; stroke-opacity: 0.5; stroke-width: 1.5"/>
     <use xlink:href="#m195f404c97" x="162.541678" y="197.716494" style="fill-opacity: 0.5; stroke: #000000; stroke-opacity: 0.5; stroke-width: 1.5"/>
     <use xlink:href="#m195f404c97" x="247.470221" y="239.362431" style="fill-opacity: 0.5; stroke: #000000; stroke-opacity: 0.5; stroke-width: 1.5"/>
     <use xlink:href="#m195f404c97" x="72.685974" y="63.873057" style="fill-opacity: 0.5; stroke: #000000; stroke-opacity: 0.5; stroke-width: 1.5"/>
     <use xlink:href="#m195f404c97" x="158.916881" y="216.610391" style="fill-opacity: 0.5; stroke: #000000; stroke-opacity: 0.5; stroke-width: 1.5"/>
     <use xlink:href="#m195f404c97" x="155.858266" y="176.007" style="fill-opacity: 0.5; stroke: #000000; stroke-opacity: 0.5; stroke-width: 1.5"/>
     <use xlink:href="#m195f404c97" x="231.177108" y="239.640376" style="fill-opacity: 0.5; stroke: #000000; stroke-opacity: 0.5; stroke-width: 1.5"/>
     <use xlink:href="#m195f404c97" x="120.336351" y="160.818334" style="fill-opacity: 0.5; stroke: #000000; stroke-opacity: 0.5; stroke-width: 1.5"/>
     <use xlink:href="#m195f404c97" x="166.359772" y="209.912282" style="fill-opacity: 0.5; stroke: #000000; stroke-opacity: 0.5; stroke-width: 1.5"/>
     <use xlink:href="#m195f404c97" x="131.354269" y="137.029199" style="fill-opacity: 0.5; stroke: #000000; stroke-opacity: 0.5; stroke-width: 1.5"/>
     <use xlink:href="#m195f404c97" x="177.010932" y="220.290265" style="fill-opacity: 0.5; stroke: #000000; stroke-opacity: 0.5; stroke-width: 1.5"/>
     <use xlink:href="#m195f404c97" x="203.837153" y="227.825695" style="fill-opacity: 0.5; stroke: #000000; stroke-opacity: 0.5; stroke-width: 1.5"/>
     <use xlink:href="#m195f404c97" x="120.30023" y="146.4618" style="fill-opacity: 0.5; stroke: #000000; stroke-opacity: 0.5; stroke-width: 1.5"/>
     <use xlink:href="#m195f404c97" x="231.720691" y="245.726069" style="fill-opacity: 0.5; stroke: #000000; stroke-opacity: 0.5; stroke-width: 1.5"/>
     <use xlink:href="#m195f404c97" x="219.655723" y="258.008836" style="fill-opacity: 0.5; stroke: #000000; stroke-opacity: 0.5; stroke-width: 1.5"/>
     <use xlink:href="#m195f404c97" x="199.851397" y="241.074037" style="fill-opacity: 0.5; stroke: #000000; stroke-opacity: 0.5; stroke-width: 1.5"/>
     <use xlink:href="#m195f404c97" x="219.619261" y="243.765556" style="fill-opacity: 0.5; stroke: #000000; stroke-opacity: 0.5; stroke-width: 1.5"/>
     <use xlink:href="#m195f404c97" x="140.987593" y="174.177495" style="fill-opacity: 0.5; stroke: #000000; stroke-opacity: 0.5; stroke-width: 1.5"/>
     <use xlink:href="#m195f404c97" x="168.817991" y="202.339894" style="fill-opacity: 0.5; stroke: #000000; stroke-opacity: 0.5; stroke-width: 1.5"/>
     <use xlink:href="#m195f404c97" x="128.480555" y="150.370545" style="fill-opacity: 0.5; stroke: #000000; stroke-opacity: 0.5; stroke-width: 1.5"/>
     <use xlink:href="#m195f404c97" x="161.622775" y="203.730728" style="fill-opacity: 0.5; stroke: #000000; stroke-opacity: 0.5; stroke-width: 1.5"/>
     <use xlink:href="#m195f404c97" x="201.233947" y="222.792769" style="fill-opacity: 0.5; stroke: #000000; stroke-opacity: 0.5; stroke-width: 1.5"/>
    </g>
   </g>
   <g id="PathCollection_4">
    <defs>
     <path id="m33a57c7012" d="M 0 -2.236068 
L -2.126627 -0.690983 
L -1.314328 1.809017 
L 1.314328 1.809017 
L 2.126627 -0.690983 
z
" style="stroke: #ff0000; stroke-opacity: 0.5"/>
    </defs>
    <g clip-path="url(#pfbbb79d2f5)">
     <use xlink:href="#m33a57c7012" x="361.699414" y="56.919546" style="fill: #ff0000; fill-opacity: 0.5; stroke: #ff0000; stroke-opacity: 0.5"/>
     <use xlink:href="#m33a57c7012" x="294.018961" y="215.815962" style="fill: #ff0000; fill-opacity: 0.5; stroke: #ff0000; stroke-opacity: 0.5"/>
     <use xlink:href="#m33a57c7012" x="322.729826" y="146.660255" style="fill: #ff0000; fill-opacity: 0.5; stroke: #ff0000; stroke-opacity: 0.5"/>
     <use xlink:href="#m33a57c7012" x="385.361648" y="29.480532" style="fill: #ff0000; fill-opacity: 0.5; stroke: #ff0000; stroke-opacity: 0.5"/>
    </g>
   </g>
   <g id="PathCollection_5">
    <defs>
     <path id="mbf3594138c" d="M 2.236068 0 
L -2.236068 -2.236068 
L -2.236068 2.236068 
z
" style="stroke: #bfbf00"/>
    </defs>
    <g clip-path="url(#pfbbb79d2f5)">
     <use xlink:href="#mbf3594138c" x="253.481254" y="261.216" style="fill: #bfbf00; stroke: #bfbf00"/>
     <use xlink:href="#mbf3594138c" x="271.36987" y="235.505425" style="fill: #bfbf00; stroke: #bfbf00"/>
     <use xlink:href="#mbf3594138c" x="168.157715" y="206.85506" style="fill: #bfbf00; stroke: #bfbf00"/>
     <use xlink:href="#mbf3594138c" x="355.557014" y="118.003531" style="fill: #bfbf00; stroke: #bfbf00"/>
    </g>
   </g>
   <g id="matplotlib.axis_1">
    <g id="xtick_1">
     <g id="line2d_1">
      <defs>
       <path id="m9ab5eeb9af" d="M 0 0 
L 0 3.5 
" style="stroke: #000000; stroke-width: 0.8"/>
      </defs>
      <g>
       <use xlink:href="#m9ab5eeb9af" x="75.670332" y="273.312" style="stroke: #000000; stroke-width: 0.8"/>
      </g>
     </g>
     <g id="text_1">
      <!-- −6 -->
      <g transform="translate(68.299238 287.910437) scale(0.1 -0.1)">
       <defs>
        <path id="DejaVuSans-2212" d="M 678 2272 
L 4684 2272 
L 4684 1741 
L 678 1741 
L 678 2272 
z
" transform="scale(0.015625)"/>
        <path id="DejaVuSans-36" d="M 2113 2584 
Q 1688 2584 1439 2293 
Q 1191 2003 1191 1497 
Q 1191 994 1439 701 
Q 1688 409 2113 409 
Q 2538 409 2786 701 
Q 3034 994 3034 1497 
Q 3034 2003 2786 2293 
Q 2538 2584 2113 2584 
z
M 3366 4563 
L 3366 3988 
Q 3128 4100 2886 4159 
Q 2644 4219 2406 4219 
Q 1781 4219 1451 3797 
Q 1122 3375 1075 2522 
Q 1259 2794 1537 2939 
Q 1816 3084 2150 3084 
Q 2853 3084 3261 2657 
Q 3669 2231 3669 1497 
Q 3669 778 3244 343 
Q 2819 -91 2113 -91 
Q 1303 -91 875 529 
Q 447 1150 447 2328 
Q 447 3434 972 4092 
Q 1497 4750 2381 4750 
Q 2619 4750 2861 4703 
Q 3103 4656 3366 4563 
z
" transform="scale(0.015625)"/>
       </defs>
       <use xlink:href="#DejaVuSans-2212"/>
       <use xlink:href="#DejaVuSans-36" x="83.789062"/>
      </g>
     </g>
    </g>
    <g id="xtick_2">
     <g id="line2d_2">
      <g>
       <use xlink:href="#m9ab5eeb9af" x="125.293247" y="273.312" style="stroke: #000000; stroke-width: 0.8"/>
      </g>
     </g>
     <g id="text_2">
      <!-- −4 -->
      <g transform="translate(117.922153 287.910437) scale(0.1 -0.1)">
       <defs>
        <path id="DejaVuSans-34" d="M 2419 4116 
L 825 1625 
L 2419 1625 
L 2419 4116 
z
M 2253 4666 
L 3047 4666 
L 3047 1625 
L 3713 1625 
L 3713 1100 
L 3047 1100 
L 3047 0 
L 2419 0 
L 2419 1100 
L 313 1100 
L 313 1709 
L 2253 4666 
z
" transform="scale(0.015625)"/>
       </defs>
       <use xlink:href="#DejaVuSans-2212"/>
       <use xlink:href="#DejaVuSans-34" x="83.789062"/>
      </g>
     </g>
    </g>
    <g id="xtick_3">
     <g id="line2d_3">
      <g>
       <use xlink:href="#m9ab5eeb9af" x="174.916163" y="273.312" style="stroke: #000000; stroke-width: 0.8"/>
      </g>
     </g>
     <g id="text_3">
      <!-- −2 -->
      <g transform="translate(167.545069 287.910437) scale(0.1 -0.1)">
       <defs>
        <path id="DejaVuSans-32" d="M 1228 531 
L 3431 531 
L 3431 0 
L 469 0 
L 469 531 
Q 828 903 1448 1529 
Q 2069 2156 2228 2338 
Q 2531 2678 2651 2914 
Q 2772 3150 2772 3378 
Q 2772 3750 2511 3984 
Q 2250 4219 1831 4219 
Q 1534 4219 1204 4116 
Q 875 4013 500 3803 
L 500 4441 
Q 881 4594 1212 4672 
Q 1544 4750 1819 4750 
Q 2544 4750 2975 4387 
Q 3406 4025 3406 3419 
Q 3406 3131 3298 2873 
Q 3191 2616 2906 2266 
Q 2828 2175 2409 1742 
Q 1991 1309 1228 531 
z
" transform="scale(0.015625)"/>
       </defs>
       <use xlink:href="#DejaVuSans-2212"/>
       <use xlink:href="#DejaVuSans-32" x="83.789062"/>
      </g>
     </g>
    </g>
    <g id="xtick_4">
     <g id="line2d_4">
      <g>
       <use xlink:href="#m9ab5eeb9af" x="224.539078" y="273.312" style="stroke: #000000; stroke-width: 0.8"/>
      </g>
     </g>
     <g id="text_4">
      <!-- 0 -->
      <g transform="translate(221.357828 287.910437) scale(0.1 -0.1)">
       <defs>
        <path id="DejaVuSans-30" d="M 2034 4250 
Q 1547 4250 1301 3770 
Q 1056 3291 1056 2328 
Q 1056 1369 1301 889 
Q 1547 409 2034 409 
Q 2525 409 2770 889 
Q 3016 1369 3016 2328 
Q 3016 3291 2770 3770 
Q 2525 4250 2034 4250 
z
M 2034 4750 
Q 2819 4750 3233 4129 
Q 3647 3509 3647 2328 
Q 3647 1150 3233 529 
Q 2819 -91 2034 -91 
Q 1250 -91 836 529 
Q 422 1150 422 2328 
Q 422 3509 836 4129 
Q 1250 4750 2034 4750 
z
" transform="scale(0.015625)"/>
       </defs>
       <use xlink:href="#DejaVuSans-30"/>
      </g>
     </g>
    </g>
    <g id="xtick_5">
     <g id="line2d_5">
      <g>
       <use xlink:href="#m9ab5eeb9af" x="274.161994" y="273.312" style="stroke: #000000; stroke-width: 0.8"/>
      </g>
     </g>
     <g id="text_5">
      <!-- 2 -->
      <g transform="translate(270.980744 287.910437) scale(0.1 -0.1)">
       <use xlink:href="#DejaVuSans-32"/>
      </g>
     </g>
    </g>
    <g id="xtick_6">
     <g id="line2d_6">
      <g>
       <use xlink:href="#m9ab5eeb9af" x="323.784909" y="273.312" style="stroke: #000000; stroke-width: 0.8"/>
      </g>
     </g>
     <g id="text_6">
      <!-- 4 -->
      <g transform="translate(320.603659 287.910437) scale(0.1 -0.1)">
       <use xlink:href="#DejaVuSans-34"/>
      </g>
     </g>
    </g>
    <g id="xtick_7">
     <g id="line2d_7">
      <g>
       <use xlink:href="#m9ab5eeb9af" x="373.407825" y="273.312" style="stroke: #000000; stroke-width: 0.8"/>
      </g>
     </g>
     <g id="text_7">
      <!-- 6 -->
      <g transform="translate(370.226575 287.910437) scale(0.1 -0.1)">
       <use xlink:href="#DejaVuSans-36"/>
      </g>
     </g>
    </g>
    <g id="text_8">
     <!-- x -->
     <g transform="translate(218.89125 304.627937) scale(0.14 -0.14)">
      <defs>
       <path id="DejaVuSans-78" d="M 3513 3500 
L 2247 1797 
L 3578 0 
L 2900 0 
L 1881 1375 
L 863 0 
L 184 0 
L 1544 1831 
L 300 3500 
L 978 3500 
L 1906 2253 
L 2834 3500 
L 3513 3500 
z
" transform="scale(0.015625)"/>
      </defs>
      <use xlink:href="#DejaVuSans-78"/>
     </g>
    </g>
   </g>
   <g id="matplotlib.axis_2">
    <g id="ytick_1">
     <g id="line2d_8">
      <defs>
       <path id="m36632e061e" d="M 0 0 
L -3.5 0 
" style="stroke: #000000; stroke-width: 0.8"/>
      </defs>
      <g>
       <use xlink:href="#m36632e061e" x="44.474375" y="266.200489" style="stroke: #000000; stroke-width: 0.8"/>
      </g>
     </g>
     <g id="text_9">
      <!-- 0 -->
      <g transform="translate(31.111875 269.999708) scale(0.1 -0.1)">
       <use xlink:href="#DejaVuSans-30"/>
      </g>
     </g>
    </g>
    <g id="ytick_2">
     <g id="line2d_9">
      <g>
       <use xlink:href="#m36632e061e" x="44.474375" y="215.35801" style="stroke: #000000; stroke-width: 0.8"/>
      </g>
     </g>
     <g id="text_10">
      <!-- 10 -->
      <g transform="translate(24.749375 219.157228) scale(0.1 -0.1)">
       <defs>
        <path id="DejaVuSans-31" d="M 794 531 
L 1825 531 
L 1825 4091 
L 703 3866 
L 703 4441 
L 1819 4666 
L 2450 4666 
L 2450 531 
L 3481 531 
L 3481 0 
L 794 0 
L 794 531 
z
" transform="scale(0.015625)"/>
       </defs>
       <use xlink:href="#DejaVuSans-31"/>
       <use xlink:href="#DejaVuSans-30" x="63.623047"/>
      </g>
     </g>
    </g>
    <g id="ytick_3">
     <g id="line2d_10">
      <g>
       <use xlink:href="#m36632e061e" x="44.474375" y="164.51553" style="stroke: #000000; stroke-width: 0.8"/>
      </g>
     </g>
     <g id="text_11">
      <!-- 20 -->
      <g transform="translate(24.749375 168.314749) scale(0.1 -0.1)">
       <use xlink:href="#DejaVuSans-32"/>
       <use xlink:href="#DejaVuSans-30" x="63.623047"/>
      </g>
     </g>
    </g>
    <g id="ytick_4">
     <g id="line2d_11">
      <g>
       <use xlink:href="#m36632e061e" x="44.474375" y="113.673051" style="stroke: #000000; stroke-width: 0.8"/>
      </g>
     </g>
     <g id="text_12">
      <!-- 30 -->
      <g transform="translate(24.749375 117.472269) scale(0.1 -0.1)">
       <defs>
        <path id="DejaVuSans-33" d="M 2597 2516 
Q 3050 2419 3304 2112 
Q 3559 1806 3559 1356 
Q 3559 666 3084 287 
Q 2609 -91 1734 -91 
Q 1441 -91 1130 -33 
Q 819 25 488 141 
L 488 750 
Q 750 597 1062 519 
Q 1375 441 1716 441 
Q 2309 441 2620 675 
Q 2931 909 2931 1356 
Q 2931 1769 2642 2001 
Q 2353 2234 1838 2234 
L 1294 2234 
L 1294 2753 
L 1863 2753 
Q 2328 2753 2575 2939 
Q 2822 3125 2822 3475 
Q 2822 3834 2567 4026 
Q 2313 4219 1838 4219 
Q 1578 4219 1281 4162 
Q 984 4106 628 3988 
L 628 4550 
Q 988 4650 1302 4700 
Q 1616 4750 1894 4750 
Q 2613 4750 3031 4423 
Q 3450 4097 3450 3541 
Q 3450 3153 3228 2886 
Q 3006 2619 2597 2516 
z
" transform="scale(0.015625)"/>
       </defs>
       <use xlink:href="#DejaVuSans-33"/>
       <use xlink:href="#DejaVuSans-30" x="63.623047"/>
      </g>
     </g>
    </g>
    <g id="ytick_5">
     <g id="line2d_12">
      <g>
       <use xlink:href="#m36632e061e" x="44.474375" y="62.830571" style="stroke: #000000; stroke-width: 0.8"/>
      </g>
     </g>
     <g id="text_13">
      <!-- 40 -->
      <g transform="translate(24.749375 66.62979) scale(0.1 -0.1)">
       <use xlink:href="#DejaVuSans-34"/>
       <use xlink:href="#DejaVuSans-30" x="63.623047"/>
      </g>
     </g>
    </g>
    <g id="ytick_6">
     <g id="line2d_13">
      <g>
       <use xlink:href="#m36632e061e" x="44.474375" y="11.988091" style="stroke: #000000; stroke-width: 0.8"/>
      </g>
     </g>
     <g id="text_14">
      <!-- 50 -->
      <g transform="translate(24.749375 15.78731) scale(0.1 -0.1)">
       <defs>
        <path id="DejaVuSans-35" d="M 691 4666 
L 3169 4666 
L 3169 4134 
L 1269 4134 
L 1269 2991 
Q 1406 3038 1543 3061 
Q 1681 3084 1819 3084 
Q 2600 3084 3056 2656 
Q 3513 2228 3513 1497 
Q 3513 744 3044 326 
Q 2575 -91 1722 -91 
Q 1428 -91 1123 -41 
Q 819 9 494 109 
L 494 744 
Q 775 591 1075 516 
Q 1375 441 1709 441 
Q 2250 441 2565 725 
Q 2881 1009 2881 1497 
Q 2881 1984 2565 2268 
Q 2250 2553 1709 2553 
Q 1456 2553 1204 2497 
Q 953 2441 691 2322 
L 691 4666 
z
" transform="scale(0.015625)"/>
       </defs>
       <use xlink:href="#DejaVuSans-35"/>
       <use xlink:href="#DejaVuSans-30" x="63.623047"/>
      </g>
     </g>
    </g>
    <g id="text_15">
     <!-- y -->
     <g transform="translate(17.837812 144.399125) rotate(-90) scale(0.14 -0.14)">
      <defs>
       <path id="DejaVuSans-79" d="M 2059 -325 
Q 1816 -950 1584 -1140 
Q 1353 -1331 966 -1331 
L 506 -1331 
L 506 -850 
L 844 -850 
Q 1081 -850 1212 -737 
Q 1344 -625 1503 -206 
L 1606 56 
L 191 3500 
L 800 3500 
L 1894 763 
L 2988 3500 
L 3597 3500 
L 2059 -325 
z
" transform="scale(0.015625)"/>
      </defs>
      <use xlink:href="#DejaVuSans-79"/>
     </g>
    </g>
   </g>
   <g id="line2d_14">
    <path d="M 60.707102 21.853598 
L 63.986441 29.604177 
L 67.26578 37.198049 
L 70.545119 44.635214 
L 73.824458 51.91567 
L 77.103796 59.039419 
L 80.383135 66.006461 
L 83.662474 72.816794 
L 86.941813 79.47042 
L 90.221152 85.967339 
L 93.500491 92.307549 
L 96.77983 98.491053 
L 100.059168 104.517848 
L 103.338507 110.387936 
L 106.617846 116.101316 
L 109.897185 121.657988 
L 113.176524 127.057953 
L 116.455863 132.30121 
L 119.735201 137.387759 
L 123.01454 142.317601 
L 126.293879 147.090735 
L 129.573218 151.707162 
L 132.852557 156.166881 
L 136.131896 160.469892 
L 139.411235 164.616195 
L 142.690573 168.605791 
L 145.969912 172.438679 
L 149.249251 176.11486 
L 152.52859 179.634332 
L 155.807929 182.997098 
L 159.087268 186.203155 
L 162.366606 189.252505 
L 165.645945 192.145147 
L 168.925284 194.881082 
L 172.204623 197.460309 
L 175.483962 199.882828 
L 178.763301 202.148639 
L 182.042639 204.257743 
L 185.321978 206.210139 
L 188.601317 208.005828 
L 191.880656 209.644809 
L 195.159995 211.127082 
L 198.439334 212.452648 
L 201.718673 213.621506 
L 204.998011 214.633656 
L 208.27735 215.489098 
L 211.556689 216.187833 
L 214.836028 216.729861 
L 218.115367 217.11518 
L 221.394706 217.343792 
L 224.674044 217.415696 
L 227.953383 217.330893 
L 231.232722 217.089382 
L 234.512061 216.691163 
L 237.7914 216.136237 
L 241.070739 215.424603 
L 244.350077 214.556261 
L 247.629416 213.531212 
L 250.908755 212.349455 
L 254.188094 211.01099 
L 257.467433 209.515818 
L 260.746772 207.863938 
L 264.026111 206.05535 
L 267.305449 204.090055 
L 270.584788 201.968052 
L 273.864127 199.689341 
L 277.143466 197.253923 
L 280.422805 194.661797 
L 283.702144 191.912964 
L 286.981482 189.007422 
L 290.260821 185.945173 
L 293.54016 182.726217 
L 296.819499 179.350553 
L 300.098838 175.818181 
L 303.378177 172.129101 
L 306.657515 168.283314 
L 309.936854 164.280819 
L 313.216193 160.121616 
L 316.495532 155.805706 
L 319.774871 151.333088 
L 323.05421 146.703763 
L 326.333549 141.91773 
L 329.612887 136.974989 
L 332.892226 131.87554 
L 336.171565 126.619384 
L 339.450904 121.20652 
L 342.730243 115.636949 
L 346.009582 109.910669 
L 349.28892 104.027683 
L 352.568259 97.987988 
L 355.847598 91.791586 
L 359.126937 85.438476 
L 362.406276 78.928659 
L 365.685615 72.262134 
L 368.964954 65.438901 
L 372.244292 58.45896 
L 375.523631 51.322312 
L 378.80297 44.028956 
L 382.082309 36.578893 
L 385.361648 28.972122 
" clip-path="url(#pfbbb79d2f5)" style="fill: none; stroke-dasharray: 5.55,2.4; stroke-dashoffset: 0; stroke: #000000; stroke-width: 1.5"/>
   </g>
   <g id="line2d_15">
    <path d="M 60.707102 21.89607 
L 63.986441 30.707535 
L 67.26578 39.340842 
L 70.545119 47.795992 
L 73.824458 56.072985 
L 77.103796 64.171819 
L 80.383135 72.092497 
L 83.662474 79.835017 
L 86.941813 87.399379 
L 90.221152 94.785584 
L 93.500491 101.993631 
L 96.77983 109.023521 
L 100.059168 115.875253 
L 103.338507 122.548828 
L 106.617846 129.044245 
L 109.897185 135.361505 
L 113.176524 141.500607 
L 116.455863 147.461552 
L 119.735201 153.244339 
L 123.01454 158.848968 
L 126.293879 164.27544 
L 129.573218 169.523755 
L 132.852557 174.593912 
L 136.131896 179.485911 
L 139.411235 184.199753 
L 142.690573 188.735438 
L 145.969912 193.092965 
L 149.249251 197.272334 
L 152.52859 201.273546 
L 155.807929 205.0966 
L 159.087268 208.741497 
L 162.366606 212.208237 
L 165.645945 215.496818 
L 168.925284 218.607243 
L 172.204623 221.539509 
L 175.483962 224.293619 
L 178.763301 226.86957 
L 182.042639 229.267365 
L 185.321978 231.487001 
L 188.601317 233.52848 
L 191.880656 235.391802 
L 195.159995 237.076966 
L 198.439334 238.583973 
L 201.718673 239.912822 
L 204.998011 241.063513 
L 208.27735 242.036047 
L 211.556689 242.830424 
L 214.836028 243.446643 
L 218.115367 243.884704 
L 221.394706 244.144608 
L 224.674044 244.226355 
L 227.953383 244.129944 
L 231.232722 243.855375 
L 234.512061 243.402649 
L 237.7914 242.771765 
L 241.070739 241.962724 
L 244.350077 240.975525 
L 247.629416 239.810169 
L 250.908755 238.466655 
L 254.188094 236.944984 
L 257.467433 235.245155 
L 260.746772 233.367169 
L 264.026111 231.311025 
L 267.305449 229.076724 
L 270.584788 226.664265 
L 273.864127 224.073648 
L 277.143466 221.304874 
L 280.422805 218.357943 
L 283.702144 215.232854 
L 286.981482 211.929607 
L 290.260821 208.448203 
L 293.54016 204.788642 
L 296.819499 200.950923 
L 300.098838 196.935046 
L 303.378177 192.741012 
L 306.657515 188.368821 
L 309.936854 183.818471 
L 313.216193 179.089965 
L 316.495532 174.1833 
L 319.774871 169.098479 
L 323.05421 163.8355 
L 326.333549 158.394363 
L 329.612887 152.775068 
L 332.892226 146.977617 
L 336.171565 141.002007 
L 339.450904 134.848241 
L 342.730243 128.516316 
L 346.009582 122.006234 
L 349.28892 115.317995 
L 352.568259 108.451598 
L 355.847598 101.407043 
L 359.126937 94.184331 
L 362.406276 86.783462 
L 365.685615 79.204435 
L 368.964954 71.44725 
L 372.244292 63.511908 
L 375.523631 55.398409 
L 378.80297 47.106752 
L 382.082309 38.636937 
L 385.361648 29.988965 
" clip-path="url(#pfbbb79d2f5)" style="fill: none; stroke: #000000; stroke-width: 1.5; stroke-linecap: square"/>
   </g>
   <g id="patch_3">
    <path d="M 44.474375 273.312 
L 44.474375 7.2 
" style="fill: none; stroke: #000000; stroke-width: 0.8; stroke-linejoin: miter; stroke-linecap: square"/>
   </g>
   <g id="patch_4">
    <path d="M 401.594375 273.312 
L 401.594375 7.2 
" style="fill: none; stroke: #000000; stroke-width: 0.8; stroke-linejoin: miter; stroke-linecap: square"/>
   </g>
   <g id="patch_5">
    <path d="M 44.474375 273.312 
L 401.594375 273.312 
" style="fill: none; stroke: #000000; stroke-width: 0.8; stroke-linejoin: miter; stroke-linecap: square"/>
   </g>
   <g id="patch_6">
    <path d="M 44.474375 7.2 
L 401.594375 7.2 
" style="fill: none; stroke: #000000; stroke-width: 0.8; stroke-linejoin: miter; stroke-linecap: square"/>
   </g>
   <g id="legend_1">
    <g id="patch_7">
     <path d="M 159.534688 122.4825 
L 286.534063 122.4825 
Q 288.934063 122.4825 288.934063 120.0825 
L 288.934063 15.6 
Q 288.934063 13.2 286.534063 13.2 
L 159.534688 13.2 
Q 157.134688 13.2 157.134688 15.6 
L 157.134688 120.0825 
Q 157.134688 122.4825 159.534688 122.4825 
z
" style="fill: #ffffff; opacity: 0.8; stroke: #cccccc; stroke-linejoin: miter"/>
    </g>
    <g id="PathCollection_6">
     <defs>
      <path id="m917b3c66c0" d="M 0 2.615224 
C 0.693566 2.615224 1.358818 2.339668 1.849243 1.849243 
C 2.339668 1.358818 2.615224 0.693566 2.615224 0 
C 2.615224 -0.693566 2.339668 -1.358818 1.849243 -1.849243 
C 1.358818 -2.339668 0.693566 -2.615224 0 -2.615224 
C -0.693566 -2.615224 -1.358818 -2.339668 -1.849243 -1.849243 
C -2.339668 -1.358818 -2.615224 -0.693566 -2.615224 0 
C -2.615224 0.693566 -2.339668 1.358818 -1.849243 1.849243 
C -1.358818 2.339668 -0.693566 2.615224 0 2.615224 
z
" style="stroke: #00ffff; stroke-opacity: 0.6"/>
     </defs>
     <g>
      <use xlink:href="#m917b3c66c0" x="173.934688" y="23.968125" style="fill: #00ffff; fill-opacity: 0.6; stroke: #00ffff; stroke-opacity: 0.6"/>
     </g>
    </g>
    <g id="text_16">
     <!-- weights -->
     <g transform="translate(195.534688 27.118125) scale(0.12 -0.12)">
      <defs>
       <path id="DejaVuSans-77" d="M 269 3500 
L 844 3500 
L 1563 769 
L 2278 3500 
L 2956 3500 
L 3675 769 
L 4391 3500 
L 4966 3500 
L 4050 0 
L 3372 0 
L 2619 2869 
L 1863 0 
L 1184 0 
L 269 3500 
z
" transform="scale(0.015625)"/>
       <path id="DejaVuSans-65" d="M 3597 1894 
L 3597 1613 
L 953 1613 
Q 991 1019 1311 708 
Q 1631 397 2203 397 
Q 2534 397 2845 478 
Q 3156 559 3463 722 
L 3463 178 
Q 3153 47 2828 -22 
Q 2503 -91 2169 -91 
Q 1331 -91 842 396 
Q 353 884 353 1716 
Q 353 2575 817 3079 
Q 1281 3584 2069 3584 
Q 2775 3584 3186 3129 
Q 3597 2675 3597 1894 
z
M 3022 2063 
Q 3016 2534 2758 2815 
Q 2500 3097 2075 3097 
Q 1594 3097 1305 2825 
Q 1016 2553 972 2059 
L 3022 2063 
z
" transform="scale(0.015625)"/>
       <path id="DejaVuSans-69" d="M 603 3500 
L 1178 3500 
L 1178 0 
L 603 0 
L 603 3500 
z
M 603 4863 
L 1178 4863 
L 1178 4134 
L 603 4134 
L 603 4863 
z
" transform="scale(0.015625)"/>
       <path id="DejaVuSans-67" d="M 2906 1791 
Q 2906 2416 2648 2759 
Q 2391 3103 1925 3103 
Q 1463 3103 1205 2759 
Q 947 2416 947 1791 
Q 947 1169 1205 825 
Q 1463 481 1925 481 
Q 2391 481 2648 825 
Q 2906 1169 2906 1791 
z
M 3481 434 
Q 3481 -459 3084 -895 
Q 2688 -1331 1869 -1331 
Q 1566 -1331 1297 -1286 
Q 1028 -1241 775 -1147 
L 775 -588 
Q 1028 -725 1275 -790 
Q 1522 -856 1778 -856 
Q 2344 -856 2625 -561 
Q 2906 -266 2906 331 
L 2906 616 
Q 2728 306 2450 153 
Q 2172 0 1784 0 
Q 1141 0 747 490 
Q 353 981 353 1791 
Q 353 2603 747 3093 
Q 1141 3584 1784 3584 
Q 2172 3584 2450 3431 
Q 2728 3278 2906 2969 
L 2906 3500 
L 3481 3500 
L 3481 434 
z
" transform="scale(0.015625)"/>
       <path id="DejaVuSans-68" d="M 3513 2113 
L 3513 0 
L 2938 0 
L 2938 2094 
Q 2938 2591 2744 2837 
Q 2550 3084 2163 3084 
Q 1697 3084 1428 2787 
Q 1159 2491 1159 1978 
L 1159 0 
L 581 0 
L 581 4863 
L 1159 4863 
L 1159 2956 
Q 1366 3272 1645 3428 
Q 1925 3584 2291 3584 
Q 2894 3584 3203 3211 
Q 3513 2838 3513 2113 
z
" transform="scale(0.015625)"/>
       <path id="DejaVuSans-74" d="M 1172 4494 
L 1172 3500 
L 2356 3500 
L 2356 3053 
L 1172 3053 
L 1172 1153 
Q 1172 725 1289 603 
Q 1406 481 1766 481 
L 2356 481 
L 2356 0 
L 1766 0 
Q 1100 0 847 248 
Q 594 497 594 1153 
L 594 3053 
L 172 3053 
L 172 3500 
L 594 3500 
L 594 4494 
L 1172 4494 
z
" transform="scale(0.015625)"/>
       <path id="DejaVuSans-73" d="M 2834 3397 
L 2834 2853 
Q 2591 2978 2328 3040 
Q 2066 3103 1784 3103 
Q 1356 3103 1142 2972 
Q 928 2841 928 2578 
Q 928 2378 1081 2264 
Q 1234 2150 1697 2047 
L 1894 2003 
Q 2506 1872 2764 1633 
Q 3022 1394 3022 966 
Q 3022 478 2636 193 
Q 2250 -91 1575 -91 
Q 1294 -91 989 -36 
Q 684 19 347 128 
L 347 722 
Q 666 556 975 473 
Q 1284 391 1588 391 
Q 1994 391 2212 530 
Q 2431 669 2431 922 
Q 2431 1156 2273 1281 
Q 2116 1406 1581 1522 
L 1381 1569 
Q 847 1681 609 1914 
Q 372 2147 372 2553 
Q 372 3047 722 3315 
Q 1072 3584 1716 3584 
Q 2034 3584 2315 3537 
Q 2597 3491 2834 3397 
z
" transform="scale(0.015625)"/>
      </defs>
      <use xlink:href="#DejaVuSans-77"/>
      <use xlink:href="#DejaVuSans-65" x="81.787109"/>
      <use xlink:href="#DejaVuSans-69" x="143.310547"/>
      <use xlink:href="#DejaVuSans-67" x="171.09375"/>
      <use xlink:href="#DejaVuSans-68" x="234.570312"/>
      <use xlink:href="#DejaVuSans-74" x="297.949219"/>
      <use xlink:href="#DejaVuSans-73" x="337.158203"/>
     </g>
    </g>
    <g id="PathCollection_7">
     <g>
      <use xlink:href="#m195f404c97" x="173.934688" y="41.581875" style="fill-opacity: 0.5; stroke: #000000; stroke-opacity: 0.5; stroke-width: 1.5"/>
     </g>
    </g>
    <g id="text_17">
     <!-- source domain -->
     <g transform="translate(195.534688 44.731875) scale(0.12 -0.12)">
      <defs>
       <path id="DejaVuSans-6f" d="M 1959 3097 
Q 1497 3097 1228 2736 
Q 959 2375 959 1747 
Q 959 1119 1226 758 
Q 1494 397 1959 397 
Q 2419 397 2687 759 
Q 2956 1122 2956 1747 
Q 2956 2369 2687 2733 
Q 2419 3097 1959 3097 
z
M 1959 3584 
Q 2709 3584 3137 3096 
Q 3566 2609 3566 1747 
Q 3566 888 3137 398 
Q 2709 -91 1959 -91 
Q 1206 -91 779 398 
Q 353 888 353 1747 
Q 353 2609 779 3096 
Q 1206 3584 1959 3584 
z
" transform="scale(0.015625)"/>
       <path id="DejaVuSans-75" d="M 544 1381 
L 544 3500 
L 1119 3500 
L 1119 1403 
Q 1119 906 1312 657 
Q 1506 409 1894 409 
Q 2359 409 2629 706 
Q 2900 1003 2900 1516 
L 2900 3500 
L 3475 3500 
L 3475 0 
L 2900 0 
L 2900 538 
Q 2691 219 2414 64 
Q 2138 -91 1772 -91 
Q 1169 -91 856 284 
Q 544 659 544 1381 
z
M 1991 3584 
L 1991 3584 
z
" transform="scale(0.015625)"/>
       <path id="DejaVuSans-72" d="M 2631 2963 
Q 2534 3019 2420 3045 
Q 2306 3072 2169 3072 
Q 1681 3072 1420 2755 
Q 1159 2438 1159 1844 
L 1159 0 
L 581 0 
L 581 3500 
L 1159 3500 
L 1159 2956 
Q 1341 3275 1631 3429 
Q 1922 3584 2338 3584 
Q 2397 3584 2469 3576 
Q 2541 3569 2628 3553 
L 2631 2963 
z
" transform="scale(0.015625)"/>
       <path id="DejaVuSans-63" d="M 3122 3366 
L 3122 2828 
Q 2878 2963 2633 3030 
Q 2388 3097 2138 3097 
Q 1578 3097 1268 2742 
Q 959 2388 959 1747 
Q 959 1106 1268 751 
Q 1578 397 2138 397 
Q 2388 397 2633 464 
Q 2878 531 3122 666 
L 3122 134 
Q 2881 22 2623 -34 
Q 2366 -91 2075 -91 
Q 1284 -91 818 406 
Q 353 903 353 1747 
Q 353 2603 823 3093 
Q 1294 3584 2113 3584 
Q 2378 3584 2631 3529 
Q 2884 3475 3122 3366 
z
" transform="scale(0.015625)"/>
       <path id="DejaVuSans-20" transform="scale(0.015625)"/>
       <path id="DejaVuSans-64" d="M 2906 2969 
L 2906 4863 
L 3481 4863 
L 3481 0 
L 2906 0 
L 2906 525 
Q 2725 213 2448 61 
Q 2172 -91 1784 -91 
Q 1150 -91 751 415 
Q 353 922 353 1747 
Q 353 2572 751 3078 
Q 1150 3584 1784 3584 
Q 2172 3584 2448 3432 
Q 2725 3281 2906 2969 
z
M 947 1747 
Q 947 1113 1208 752 
Q 1469 391 1925 391 
Q 2381 391 2643 752 
Q 2906 1113 2906 1747 
Q 2906 2381 2643 2742 
Q 2381 3103 1925 3103 
Q 1469 3103 1208 2742 
Q 947 2381 947 1747 
z
" transform="scale(0.015625)"/>
       <path id="DejaVuSans-6d" d="M 3328 2828 
Q 3544 3216 3844 3400 
Q 4144 3584 4550 3584 
Q 5097 3584 5394 3201 
Q 5691 2819 5691 2113 
L 5691 0 
L 5113 0 
L 5113 2094 
Q 5113 2597 4934 2840 
Q 4756 3084 4391 3084 
Q 3944 3084 3684 2787 
Q 3425 2491 3425 1978 
L 3425 0 
L 2847 0 
L 2847 2094 
Q 2847 2600 2669 2842 
Q 2491 3084 2119 3084 
Q 1678 3084 1418 2786 
Q 1159 2488 1159 1978 
L 1159 0 
L 581 0 
L 581 3500 
L 1159 3500 
L 1159 2956 
Q 1356 3278 1631 3431 
Q 1906 3584 2284 3584 
Q 2666 3584 2933 3390 
Q 3200 3197 3328 2828 
z
" transform="scale(0.015625)"/>
       <path id="DejaVuSans-61" d="M 2194 1759 
Q 1497 1759 1228 1600 
Q 959 1441 959 1056 
Q 959 750 1161 570 
Q 1363 391 1709 391 
Q 2188 391 2477 730 
Q 2766 1069 2766 1631 
L 2766 1759 
L 2194 1759 
z
M 3341 1997 
L 3341 0 
L 2766 0 
L 2766 531 
Q 2569 213 2275 61 
Q 1981 -91 1556 -91 
Q 1019 -91 701 211 
Q 384 513 384 1019 
Q 384 1609 779 1909 
Q 1175 2209 1959 2209 
L 2766 2209 
L 2766 2266 
Q 2766 2663 2505 2880 
Q 2244 3097 1772 3097 
Q 1472 3097 1187 3025 
Q 903 2953 641 2809 
L 641 3341 
Q 956 3463 1253 3523 
Q 1550 3584 1831 3584 
Q 2591 3584 2966 3190 
Q 3341 2797 3341 1997 
z
" transform="scale(0.015625)"/>
       <path id="DejaVuSans-6e" d="M 3513 2113 
L 3513 0 
L 2938 0 
L 2938 2094 
Q 2938 2591 2744 2837 
Q 2550 3084 2163 3084 
Q 1697 3084 1428 2787 
Q 1159 2491 1159 1978 
L 1159 0 
L 581 0 
L 581 3500 
L 1159 3500 
L 1159 2956 
Q 1366 3272 1645 3428 
Q 1925 3584 2291 3584 
Q 2894 3584 3203 3211 
Q 3513 2838 3513 2113 
z
" transform="scale(0.015625)"/>
      </defs>
      <use xlink:href="#DejaVuSans-73"/>
      <use xlink:href="#DejaVuSans-6f" x="52.099609"/>
      <use xlink:href="#DejaVuSans-75" x="113.28125"/>
      <use xlink:href="#DejaVuSans-72" x="176.660156"/>
      <use xlink:href="#DejaVuSans-63" x="215.523438"/>
      <use xlink:href="#DejaVuSans-65" x="270.503906"/>
      <use xlink:href="#DejaVuSans-20" x="332.027344"/>
      <use xlink:href="#DejaVuSans-64" x="363.814453"/>
      <use xlink:href="#DejaVuSans-6f" x="427.291016"/>
      <use xlink:href="#DejaVuSans-6d" x="488.472656"/>
      <use xlink:href="#DejaVuSans-61" x="585.884766"/>
      <use xlink:href="#DejaVuSans-69" x="647.164062"/>
      <use xlink:href="#DejaVuSans-6e" x="674.947266"/>
     </g>
    </g>
    <g id="PathCollection_8">
     <g>
      <use xlink:href="#m33a57c7012" x="173.934688" y="59.195625" style="fill: #ff0000; fill-opacity: 0.5; stroke: #ff0000; stroke-opacity: 0.5"/>
     </g>
    </g>
    <g id="text_18">
     <!-- target domain -->
     <g transform="translate(195.534688 62.345625) scale(0.12 -0.12)">
      <use xlink:href="#DejaVuSans-74"/>
      <use xlink:href="#DejaVuSans-61" x="39.208984"/>
      <use xlink:href="#DejaVuSans-72" x="100.488281"/>
      <use xlink:href="#DejaVuSans-67" x="139.851562"/>
      <use xlink:href="#DejaVuSans-65" x="203.328125"/>
      <use xlink:href="#DejaVuSans-74" x="264.851562"/>
      <use xlink:href="#DejaVuSans-20" x="304.060547"/>
      <use xlink:href="#DejaVuSans-64" x="335.847656"/>
      <use xlink:href="#DejaVuSans-6f" x="399.324219"/>
      <use xlink:href="#DejaVuSans-6d" x="460.505859"/>
      <use xlink:href="#DejaVuSans-61" x="557.917969"/>
      <use xlink:href="#DejaVuSans-69" x="619.197266"/>
      <use xlink:href="#DejaVuSans-6e" x="646.980469"/>
     </g>
    </g>
    <g id="PathCollection_9">
     <g>
      <use xlink:href="#mbf3594138c" x="173.934688" y="76.809375" style="fill: #bfbf00; stroke: #bfbf00"/>
     </g>
    </g>
    <g id="text_19">
     <!-- test data -->
     <g transform="translate(195.534688 79.959375) scale(0.12 -0.12)">
      <use xlink:href="#DejaVuSans-74"/>
      <use xlink:href="#DejaVuSans-65" x="39.208984"/>
      <use xlink:href="#DejaVuSans-73" x="100.732422"/>
      <use xlink:href="#DejaVuSans-74" x="152.832031"/>
      <use xlink:href="#DejaVuSans-20" x="192.041016"/>
      <use xlink:href="#DejaVuSans-64" x="223.828125"/>
      <use xlink:href="#DejaVuSans-61" x="287.304688"/>
      <use xlink:href="#DejaVuSans-74" x="348.583984"/>
      <use xlink:href="#DejaVuSans-61" x="387.792969"/>
     </g>
    </g>
    <g id="line2d_16">
     <path d="M 161.934688 93.373125 
L 173.934688 93.373125 
L 185.934688 93.373125 
" style="fill: none; stroke-dasharray: 5.55,2.4; stroke-dashoffset: 0; stroke: #000000; stroke-width: 1.5"/>
    </g>
    <g id="text_20">
     <!-- SVM -->
     <g transform="translate(195.534688 97.573125) scale(0.12 -0.12)">
      <defs>
       <path id="DejaVuSans-53" d="M 3425 4513 
L 3425 3897 
Q 3066 4069 2747 4153 
Q 2428 4238 2131 4238 
Q 1616 4238 1336 4038 
Q 1056 3838 1056 3469 
Q 1056 3159 1242 3001 
Q 1428 2844 1947 2747 
L 2328 2669 
Q 3034 2534 3370 2195 
Q 3706 1856 3706 1288 
Q 3706 609 3251 259 
Q 2797 -91 1919 -91 
Q 1588 -91 1214 -16 
Q 841 59 441 206 
L 441 856 
Q 825 641 1194 531 
Q 1563 422 1919 422 
Q 2459 422 2753 634 
Q 3047 847 3047 1241 
Q 3047 1584 2836 1778 
Q 2625 1972 2144 2069 
L 1759 2144 
Q 1053 2284 737 2584 
Q 422 2884 422 3419 
Q 422 4038 858 4394 
Q 1294 4750 2059 4750 
Q 2388 4750 2728 4690 
Q 3069 4631 3425 4513 
z
" transform="scale(0.015625)"/>
       <path id="DejaVuSans-56" d="M 1831 0 
L 50 4666 
L 709 4666 
L 2188 738 
L 3669 4666 
L 4325 4666 
L 2547 0 
L 1831 0 
z
" transform="scale(0.015625)"/>
       <path id="DejaVuSans-4d" d="M 628 4666 
L 1569 4666 
L 2759 1491 
L 3956 4666 
L 4897 4666 
L 4897 0 
L 4281 0 
L 4281 4097 
L 3078 897 
L 2444 897 
L 1241 4097 
L 1241 0 
L 628 0 
L 628 4666 
z
" transform="scale(0.015625)"/>
      </defs>
      <use xlink:href="#DejaVuSans-53"/>
      <use xlink:href="#DejaVuSans-56" x="63.476562"/>
      <use xlink:href="#DejaVuSans-4d" x="131.884766"/>
     </g>
    </g>
    <g id="line2d_17">
     <path d="M 161.934688 110.986875 
L 173.934688 110.986875 
L 185.934688 110.986875 
" style="fill: none; stroke: #000000; stroke-width: 1.5; stroke-linecap: square"/>
    </g>
    <g id="text_21">
     <!-- KMM+SVM -->
     <g transform="translate(195.534688 115.186875) scale(0.12 -0.12)">
      <defs>
       <path id="DejaVuSans-4b" d="M 628 4666 
L 1259 4666 
L 1259 2694 
L 3353 4666 
L 4166 4666 
L 1850 2491 
L 4331 0 
L 3500 0 
L 1259 2247 
L 1259 0 
L 628 0 
L 628 4666 
z
" transform="scale(0.015625)"/>
       <path id="DejaVuSans-2b" d="M 2944 4013 
L 2944 2272 
L 4684 2272 
L 4684 1741 
L 2944 1741 
L 2944 0 
L 2419 0 
L 2419 1741 
L 678 1741 
L 678 2272 
L 2419 2272 
L 2419 4013 
L 2944 4013 
z
" transform="scale(0.015625)"/>
      </defs>
      <use xlink:href="#DejaVuSans-4b"/>
      <use xlink:href="#DejaVuSans-4d" x="65.576172"/>
      <use xlink:href="#DejaVuSans-4d" x="151.855469"/>
      <use xlink:href="#DejaVuSans-2b" x="238.134766"/>
      <use xlink:href="#DejaVuSans-53" x="321.923828"/>
      <use xlink:href="#DejaVuSans-56" x="385.400391"/>
      <use xlink:href="#DejaVuSans-4d" x="453.808594"/>
     </g>
    </g>
   </g>
  </g>
 </g>
 <defs>
  <clipPath id="pfbbb79d2f5">
   <rect x="44.474375" y="7.2" width="357.12" height="266.112"/>
  </clipPath>
 </defs>
</svg>
