<?xml version="1.0" encoding="utf-8" standalone="no"?>
<!DOCTYPE svg PUBLIC "-//W3C//DTD SVG 1.1//EN"
  "http://www.w3.org/Graphics/SVG/1.1/DTD/svg11.dtd">
<svg xmlns:xlink="http://www.w3.org/1999/xlink" width="414.891875pt" height="314.667469pt" viewBox="0 0 414.891875 314.667469" xmlns="http://www.w3.org/2000/svg" version="1.1">
 <metadata>
  <rdf:RDF xmlns:dc="http://purl.org/dc/elements/1.1/" xmlns:cc="http://creativecommons.org/ns#" xmlns:rdf="http://www.w3.org/1999/02/22-rdf-syntax-ns#">
   <cc:Work>
    <dc:type rdf:resource="http://purl.org/dc/dcmitype/StillImage"/>
    <dc:date>2023-05-03T11:54:08.965608</dc:date>
    <dc:format>image/svg+xml</dc:format>
    <dc:creator>
     <cc:Agent>
      <dc:title>Matplotlib v3.7.1, https://matplotlib.org/</dc:title>
     </cc:Agent>
    </dc:creator>
   </cc:Work>
  </rdf:RDF>
 </metadata>
 <defs>
  <style type="text/css">*{stroke-linejoin: round; stroke-linecap: butt}</style>
 </defs>
 <g id="figure_1">
  <g id="patch_1">
   <path d="M 0 314.667469 
L 414.891875 314.667469 
L 414.891875 0 
L 0 0 
z
" style="fill: #ffffff"/>
  </g>
  <g id="axes_1">
   <g id="patch_2">
    <path d="M 42.620313 277.111219 
L 399.740313 277.111219 
L 399.740313 10.999219 
L 42.620313 10.999219 
z
" style="fill: #ffffff"/>
   </g>
   <g id="PolyCollection_1">
    <path d="M -424.382764 -191.245901 
L -424.382764 0.354739 
L -407.733813 13.100746 
L -391.084862 25.533968 
L -374.435911 37.654404 
L -357.78696 49.462055 
L -341.138009 60.956921 
L -324.489058 72.139001 
L -307.840107 83.008295 
L -291.191156 93.564804 
L -274.542205 103.808528 
L -257.893254 113.739466 
L -241.244303 123.357619 
L -224.595352 132.662986 
L -207.946401 141.655568 
L -191.29745 150.335364 
L -174.648499 158.702375 
L -157.999548 166.756601 
L -141.350597 174.498041 
L -124.701646 181.926695 
L -108.052694 189.042564 
L -91.403743 195.845648 
L -74.754792 202.335946 
L -58.105841 208.513459 
L -41.45689 214.378186 
L -24.807939 219.930128 
L -8.158988 225.169284 
L 8.489963 230.095655 
L 25.138914 234.709241 
L 41.787865 239.010041 
L 58.436816 242.998055 
L 75.085767 246.673284 
L 91.734718 250.035728 
L 108.383669 253.085386 
L 125.03262 255.822259 
L 141.681571 258.246346 
L 158.330522 260.357648 
L 174.979473 262.156164 
L 191.628424 263.641895 
L 208.277375 264.814841 
L 224.926326 265.675001 
L 241.575278 266.222375 
L 258.224229 266.456964 
L 274.87318 266.378768 
L 291.522131 265.987786 
L 308.171082 265.284019 
L 324.820033 264.267466 
L 341.468984 262.938128 
L 358.117935 261.296004 
L 374.766886 259.341095 
L 391.415837 257.073401 
L 408.064788 254.492921 
L 424.713739 251.599655 
L 441.36269 248.393604 
L 458.011641 244.874768 
L 474.660592 241.043146 
L 491.309543 236.898739 
L 507.958494 232.441546 
L 524.607445 227.671568 
L 541.256396 222.588804 
L 557.905347 217.193255 
L 574.554299 211.484921 
L 591.20325 205.463801 
L 607.852201 199.129895 
L 624.501152 192.483204 
L 641.150103 185.523728 
L 657.799054 178.251466 
L 674.448005 170.666419 
L 691.096956 162.768586 
L 707.745907 154.557968 
L 724.394858 146.034564 
L 741.043809 137.198375 
L 757.69276 128.049401 
L 774.341711 118.587641 
L 790.990662 108.813095 
L 807.639613 98.725764 
L 824.288564 88.325648 
L 840.937515 77.612746 
L 857.586466 66.587059 
L 874.235417 55.248586 
L 890.884368 43.597328 
L 907.533319 31.633284 
L 924.182271 19.356455 
L 940.831222 6.766841 
L 957.480173 -6.135559 
L 974.129124 -19.350745 
L 990.778075 -32.878716 
L 1007.427026 -46.719472 
L 1024.075977 -60.873014 
L 1040.724928 -75.339341 
L 1057.373879 -90.118454 
L 1074.02283 -105.210352 
L 1090.671781 -120.615036 
L 1107.320732 -136.332505 
L 1123.969683 -152.362759 
L 1140.618634 -168.705799 
L 1157.267585 -185.361625 
L 1173.916536 -202.330236 
L 1190.565487 -219.611632 
L 1207.214438 -237.205814 
L 1223.863389 -255.112781 
L 1223.863389 -446.713421 
L 1223.863389 -446.713421 
L 1207.214438 -428.806454 
L 1190.565487 -411.212272 
L 1173.916536 -393.930876 
L 1157.267585 -376.962265 
L 1140.618634 -360.306439 
L 1123.969683 -343.963399 
L 1107.320732 -327.933145 
L 1090.671781 -312.215676 
L 1074.02283 -296.810992 
L 1057.373879 -281.719094 
L 1040.724928 -266.939981 
L 1024.075977 -252.473654 
L 1007.427026 -238.320112 
L 990.778075 -224.479356 
L 974.129124 -210.951385 
L 957.480173 -197.736199 
L 940.831222 -184.833799 
L 924.182271 -172.244185 
L 907.533319 -159.967356 
L 890.884368 -148.003312 
L 874.235417 -136.352054 
L 857.586466 -125.013581 
L 840.937515 -113.987894 
L 824.288564 -103.274992 
L 807.639613 -92.874876 
L 790.990662 -82.787545 
L 774.341711 -73.012999 
L 757.69276 -63.551239 
L 741.043809 -54.402265 
L 724.394858 -45.566076 
L 707.745907 -37.042672 
L 691.096956 -28.832054 
L 674.448005 -20.934221 
L 657.799054 -13.349174 
L 641.150103 -6.076912 
L 624.501152 0.882564 
L 607.852201 7.529255 
L 591.20325 13.863161 
L 574.554299 19.884281 
L 557.905347 25.592615 
L 541.256396 30.988164 
L 524.607445 36.070928 
L 507.958494 40.840906 
L 491.309543 45.298099 
L 474.660592 49.442506 
L 458.011641 53.274128 
L 441.36269 56.792964 
L 424.713739 59.999015 
L 408.064788 62.892281 
L 391.415837 65.472761 
L 374.766886 67.740455 
L 358.117935 69.695364 
L 341.468984 71.337488 
L 324.820033 72.666826 
L 308.171082 73.683379 
L 291.522131 74.387146 
L 274.87318 74.778128 
L 258.224229 74.856324 
L 241.575278 74.621735 
L 224.926326 74.074361 
L 208.277375 73.214201 
L 191.628424 72.041255 
L 174.979473 70.555524 
L 158.330522 68.757008 
L 141.681571 66.645706 
L 125.03262 64.221619 
L 108.383669 61.484746 
L 91.734718 58.435088 
L 75.085767 55.072644 
L 58.436816 51.397415 
L 41.787865 47.409401 
L 25.138914 43.108601 
L 8.489963 38.495015 
L -8.158988 33.568644 
L -24.807939 28.329488 
L -41.45689 22.777546 
L -58.105841 16.912819 
L -74.754792 10.735306 
L -91.403743 4.245008 
L -108.052694 -2.558076 
L -124.701646 -9.673945 
L -141.350597 -17.102599 
L -157.999548 -24.844039 
L -174.648499 -32.898265 
L -191.29745 -41.265276 
L -207.946401 -49.945072 
L -224.595352 -58.937654 
L -241.244303 -68.243021 
L -257.893254 -77.861174 
L -274.542205 -87.792112 
L -291.191156 -98.035836 
L -307.840107 -108.592345 
L -324.489058 -119.461639 
L -341.138009 -130.643719 
L -357.78696 -142.138585 
L -374.435911 -153.946236 
L -391.084862 -166.066672 
L -407.733813 -178.499894 
L -424.382764 -191.245901 
z
" clip-path="url(#p4191677639)" style="fill: #00ffff; fill-opacity: 0.5; stroke: #00ffff; stroke-opacity: 0.5"/>
   </g>
   <g id="matplotlib.axis_1">
    <g id="xtick_1">
     <g id="line2d_1">
      <defs>
       <path id="mde5e415384" d="M 0 0 
L 0 3.5 
" style="stroke: #000000; stroke-width: 0.8"/>
      </defs>
      <g>
       <use xlink:href="#mde5e415384" x="56.355697" y="277.111219" style="stroke: #000000; stroke-width: 0.8"/>
      </g>
     </g>
     <g id="text_1">
      <!-- −1.5 -->
      <g transform="translate(44.214291 291.709656) scale(0.1 -0.1)">
       <defs>
        <path id="DejaVuSans-2212" d="M 678 2272 
L 4684 2272 
L 4684 1741 
L 678 1741 
L 678 2272 
z
" transform="scale(0.015625)"/>
        <path id="DejaVuSans-31" d="M 794 531 
L 1825 531 
L 1825 4091 
L 703 3866 
L 703 4441 
L 1819 4666 
L 2450 4666 
L 2450 531 
L 3481 531 
L 3481 0 
L 794 0 
L 794 531 
z
" transform="scale(0.015625)"/>
        <path id="DejaVuSans-2e" d="M 684 794 
L 1344 794 
L 1344 0 
L 684 0 
L 684 794 
z
" transform="scale(0.015625)"/>
        <path id="DejaVuSans-35" d="M 691 4666 
L 3169 4666 
L 3169 4134 
L 1269 4134 
L 1269 2991 
Q 1406 3038 1543 3061 
Q 1681 3084 1819 3084 
Q 2600 3084 3056 2656 
Q 3513 2228 3513 1497 
Q 3513 744 3044 326 
Q 2575 -91 1722 -91 
Q 1428 -91 1123 -41 
Q 819 9 494 109 
L 494 744 
Q 775 591 1075 516 
Q 1375 441 1709 441 
Q 2250 441 2565 725 
Q 2881 1009 2881 1497 
Q 2881 1984 2565 2268 
Q 2250 2553 1709 2553 
Q 1456 2553 1204 2497 
Q 953 2441 691 2322 
L 691 4666 
z
" transform="scale(0.015625)"/>
       </defs>
       <use xlink:href="#DejaVuSans-2212"/>
       <use xlink:href="#DejaVuSans-31" x="83.789062"/>
       <use xlink:href="#DejaVuSans-2e" x="147.412109"/>
       <use xlink:href="#DejaVuSans-35" x="179.199219"/>
      </g>
     </g>
    </g>
    <g id="xtick_2">
     <g id="line2d_2">
      <g>
       <use xlink:href="#mde5e415384" x="125.03262" y="277.111219" style="stroke: #000000; stroke-width: 0.8"/>
      </g>
     </g>
     <g id="text_2">
      <!-- −1.0 -->
      <g transform="translate(112.891214 291.709656) scale(0.1 -0.1)">
       <defs>
        <path id="DejaVuSans-30" d="M 2034 4250 
Q 1547 4250 1301 3770 
Q 1056 3291 1056 2328 
Q 1056 1369 1301 889 
Q 1547 409 2034 409 
Q 2525 409 2770 889 
Q 3016 1369 3016 2328 
Q 3016 3291 2770 3770 
Q 2525 4250 2034 4250 
z
M 2034 4750 
Q 2819 4750 3233 4129 
Q 3647 3509 3647 2328 
Q 3647 1150 3233 529 
Q 2819 -91 2034 -91 
Q 1250 -91 836 529 
Q 422 1150 422 2328 
Q 422 3509 836 4129 
Q 1250 4750 2034 4750 
z
" transform="scale(0.015625)"/>
       </defs>
       <use xlink:href="#DejaVuSans-2212"/>
       <use xlink:href="#DejaVuSans-31" x="83.789062"/>
       <use xlink:href="#DejaVuSans-2e" x="147.412109"/>
       <use xlink:href="#DejaVuSans-30" x="179.199219"/>
      </g>
     </g>
    </g>
    <g id="xtick_3">
     <g id="line2d_3">
      <g>
       <use xlink:href="#mde5e415384" x="193.709543" y="277.111219" style="stroke: #000000; stroke-width: 0.8"/>
      </g>
     </g>
     <g id="text_3">
      <!-- −0.5 -->
      <g transform="translate(181.568137 291.709656) scale(0.1 -0.1)">
       <use xlink:href="#DejaVuSans-2212"/>
       <use xlink:href="#DejaVuSans-30" x="83.789062"/>
       <use xlink:href="#DejaVuSans-2e" x="147.412109"/>
       <use xlink:href="#DejaVuSans-35" x="179.199219"/>
      </g>
     </g>
    </g>
    <g id="xtick_4">
     <g id="line2d_4">
      <g>
       <use xlink:href="#mde5e415384" x="262.386466" y="277.111219" style="stroke: #000000; stroke-width: 0.8"/>
      </g>
     </g>
     <g id="text_4">
      <!-- 0.0 -->
      <g transform="translate(254.434904 291.709656) scale(0.1 -0.1)">
       <use xlink:href="#DejaVuSans-30"/>
       <use xlink:href="#DejaVuSans-2e" x="63.623047"/>
       <use xlink:href="#DejaVuSans-30" x="95.410156"/>
      </g>
     </g>
    </g>
    <g id="xtick_5">
     <g id="line2d_5">
      <g>
       <use xlink:href="#mde5e415384" x="331.063389" y="277.111219" style="stroke: #000000; stroke-width: 0.8"/>
      </g>
     </g>
     <g id="text_5">
      <!-- 0.5 -->
      <g transform="translate(323.111827 291.709656) scale(0.1 -0.1)">
       <use xlink:href="#DejaVuSans-30"/>
       <use xlink:href="#DejaVuSans-2e" x="63.623047"/>
       <use xlink:href="#DejaVuSans-35" x="95.410156"/>
      </g>
     </g>
    </g>
    <g id="xtick_6">
     <g id="line2d_6">
      <g>
       <use xlink:href="#mde5e415384" x="399.740312" y="277.111219" style="stroke: #000000; stroke-width: 0.8"/>
      </g>
     </g>
     <g id="text_6">
      <!-- 1.0 -->
      <g transform="translate(391.78875 291.709656) scale(0.1 -0.1)">
       <use xlink:href="#DejaVuSans-31"/>
       <use xlink:href="#DejaVuSans-2e" x="63.623047"/>
       <use xlink:href="#DejaVuSans-30" x="95.410156"/>
      </g>
     </g>
    </g>
    <g id="text_7">
     <!-- x -->
     <g transform="translate(218.220938 305.387781) scale(0.1 -0.1)">
      <defs>
       <path id="DejaVuSans-78" d="M 3513 3500 
L 2247 1797 
L 3578 0 
L 2900 0 
L 1881 1375 
L 863 0 
L 184 0 
L 1544 1831 
L 300 3500 
L 978 3500 
L 1906 2253 
L 2834 3500 
L 3513 3500 
z
" transform="scale(0.015625)"/>
      </defs>
      <use xlink:href="#DejaVuSans-78"/>
     </g>
    </g>
   </g>
   <g id="matplotlib.axis_2">
    <g id="ytick_1">
     <g id="line2d_7">
      <defs>
       <path id="mc65a0f3f20" d="M 0 0 
L -3.5 0 
" style="stroke: #000000; stroke-width: 0.8"/>
      </defs>
      <g>
       <use xlink:href="#mc65a0f3f20" x="42.620313" y="277.111219" style="stroke: #000000; stroke-width: 0.8"/>
      </g>
     </g>
     <g id="text_8">
      <!-- −5 -->
      <g transform="translate(20.878125 280.910437) scale(0.1 -0.1)">
       <use xlink:href="#DejaVuSans-2212"/>
       <use xlink:href="#DejaVuSans-35" x="83.789062"/>
      </g>
     </g>
    </g>
    <g id="ytick_2">
     <g id="line2d_8">
      <g>
       <use xlink:href="#mc65a0f3f20" x="42.620313" y="223.888819" style="stroke: #000000; stroke-width: 0.8"/>
      </g>
     </g>
     <g id="text_9">
      <!-- 0 -->
      <g transform="translate(29.257813 227.688037) scale(0.1 -0.1)">
       <use xlink:href="#DejaVuSans-30"/>
      </g>
     </g>
    </g>
    <g id="ytick_3">
     <g id="line2d_9">
      <g>
       <use xlink:href="#mc65a0f3f20" x="42.620313" y="170.666419" style="stroke: #000000; stroke-width: 0.8"/>
      </g>
     </g>
     <g id="text_10">
      <!-- 5 -->
      <g transform="translate(29.257813 174.465637) scale(0.1 -0.1)">
       <use xlink:href="#DejaVuSans-35"/>
      </g>
     </g>
    </g>
    <g id="ytick_4">
     <g id="line2d_10">
      <g>
       <use xlink:href="#mc65a0f3f20" x="42.620313" y="117.444019" style="stroke: #000000; stroke-width: 0.8"/>
      </g>
     </g>
     <g id="text_11">
      <!-- 10 -->
      <g transform="translate(22.895313 121.243237) scale(0.1 -0.1)">
       <use xlink:href="#DejaVuSans-31"/>
       <use xlink:href="#DejaVuSans-30" x="63.623047"/>
      </g>
     </g>
    </g>
    <g id="ytick_5">
     <g id="line2d_11">
      <g>
       <use xlink:href="#mc65a0f3f20" x="42.620313" y="64.221619" style="stroke: #000000; stroke-width: 0.8"/>
      </g>
     </g>
     <g id="text_12">
      <!-- 15 -->
      <g transform="translate(22.895313 68.020837) scale(0.1 -0.1)">
       <use xlink:href="#DejaVuSans-31"/>
       <use xlink:href="#DejaVuSans-35" x="63.623047"/>
      </g>
     </g>
    </g>
    <g id="ytick_6">
     <g id="line2d_12">
      <g>
       <use xlink:href="#mc65a0f3f20" x="42.620313" y="10.999219" style="stroke: #000000; stroke-width: 0.8"/>
      </g>
     </g>
     <g id="text_13">
      <!-- 20 -->
      <g transform="translate(22.895313 14.798437) scale(0.1 -0.1)">
       <defs>
        <path id="DejaVuSans-32" d="M 1228 531 
L 3431 531 
L 3431 0 
L 469 0 
L 469 531 
Q 828 903 1448 1529 
Q 2069 2156 2228 2338 
Q 2531 2678 2651 2914 
Q 2772 3150 2772 3378 
Q 2772 3750 2511 3984 
Q 2250 4219 1831 4219 
Q 1534 4219 1204 4116 
Q 875 4013 500 3803 
L 500 4441 
Q 881 4594 1212 4672 
Q 1544 4750 1819 4750 
Q 2544 4750 2975 4387 
Q 3406 4025 3406 3419 
Q 3406 3131 3298 2873 
Q 3191 2616 2906 2266 
Q 2828 2175 2409 1742 
Q 1991 1309 1228 531 
z
" transform="scale(0.015625)"/>
       </defs>
       <use xlink:href="#DejaVuSans-32"/>
       <use xlink:href="#DejaVuSans-30" x="63.623047"/>
      </g>
     </g>
    </g>
    <g id="text_14">
     <!-- y -->
     <g transform="translate(14.798438 147.014594) rotate(-90) scale(0.1 -0.1)">
      <defs>
       <path id="DejaVuSans-79" d="M 2059 -325 
Q 1816 -950 1584 -1140 
Q 1353 -1331 966 -1331 
L 506 -1331 
L 506 -850 
L 844 -850 
Q 1081 -850 1212 -737 
Q 1344 -625 1503 -206 
L 1606 56 
L 191 3500 
L 800 3500 
L 1894 763 
L 2988 3500 
L 3597 3500 
L 2059 -325 
z
" transform="scale(0.015625)"/>
      </defs>
      <use xlink:href="#DejaVuSans-79"/>
     </g>
    </g>
   </g>
   <g id="line2d_13">
    <path d="M 73.505624 256.967331 
L 73.523194 254.816931 
L 73.544637 252.666531 
L 73.570678 250.516131 
L 73.602146 248.365731 
L 73.63998 246.215331 
L 73.685243 244.064931 
L 73.739118 241.914531 
L 73.80292 239.764131 
L 73.878094 237.613731 
L 73.966214 235.463331 
L 74.068978 233.312931 
L 74.188199 231.162531 
L 74.325792 229.012131 
L 74.483753 226.861731 
L 74.66414 224.711331 
L 74.869035 222.560931 
L 75.100518 220.410531 
L 75.360614 218.260131 
L 75.651256 216.109731 
L 75.974226 213.959331 
L 76.331099 211.808931 
L 76.723184 209.658531 
L 77.151459 207.508131 
L 77.616512 205.357731 
L 78.118472 203.207331 
L 78.656955 201.056931 
L 79.231008 198.906531 
L 79.839061 196.756131 
L 80.47889 194.605731 
L 81.14759 192.455331 
L 81.841565 190.304931 
L 82.556527 188.154531 
L 83.287515 186.004131 
L 84.028935 183.853731 
L 84.774609 181.703331 
L 85.517853 179.552931 
L 86.251562 177.402531 
L 86.968315 175.252131 
L 87.660496 173.101731 
L 88.320427 170.951331 
L 88.9405 168.800931 
L 89.513328 166.650531 
L 90.031885 164.500131 
L 90.489654 162.349731 
L 90.880758 160.199331 
L 91.20009 158.048931 
L 91.443418 155.898531 
L 91.607486 153.748131 
L 91.690079 151.597731 
L 91.690079 149.447331 
L 91.607486 147.296931 
L 91.443418 145.146531 
L 91.20009 142.996131 
L 90.880758 140.845731 
L 90.489654 138.695331 
L 90.031885 136.544931 
L 89.513328 134.394531 
L 88.9405 132.244131 
L 88.320427 130.093731 
L 87.660496 127.943331 
L 86.968315 125.792931 
L 86.251562 123.642531 
L 85.517853 121.492131 
L 84.774609 119.341731 
L 84.028935 117.191331 
L 83.287515 115.040931 
L 82.556527 112.890531 
L 81.841565 110.740131 
L 81.14759 108.589731 
L 80.47889 106.439331 
L 79.839061 104.288931 
L 79.231008 102.138531 
L 78.656955 99.988131 
L 78.118472 97.837731 
L 77.616512 95.687331 
L 77.151459 93.536931 
L 76.723184 91.386531 
L 76.331099 89.236131 
L 75.974226 87.085731 
L 75.651256 84.935331 
L 75.360614 82.784931 
L 75.100518 80.634531 
L 74.869035 78.484131 
L 74.66414 76.333731 
L 74.483753 74.183331 
L 74.325792 72.032931 
L 74.188199 69.882531 
L 74.068978 67.732131 
L 73.966214 65.581731 
L 73.878094 63.431331 
L 73.80292 61.280931 
L 73.739118 59.130531 
L 73.685243 56.980131 
L 73.63998 54.829731 
L 73.602146 52.679331 
L 73.570678 50.528931 
L 73.544637 48.378531 
L 73.523194 46.228131 
L 73.505624 44.077731 
" clip-path="url(#p4191677639)" style="fill: none; stroke: #0000ff; stroke-width: 1.5; stroke-linecap: square"/>
   </g>
   <g id="line2d_14">
    <path clip-path="url(#p4191677639)" style="fill: none; stroke: #0000ff; stroke-width: 1.5; stroke-linecap: square"/>
   </g>
   <g id="line2d_15">
    <path clip-path="url(#p4191677639)" style="fill: none; stroke: #0000ff; stroke-width: 1.5; stroke-linecap: square"/>
   </g>
   <g id="line2d_16">
    <path clip-path="url(#p4191677639)" style="fill: none; stroke: #0000ff; stroke-width: 1.5; stroke-linecap: square"/>
   </g>
   <g id="line2d_17">
    <path clip-path="url(#p4191677639)" style="fill: none; stroke: #0000ff; stroke-width: 1.5; stroke-linecap: square"/>
   </g>
   <g id="line2d_18">
    <path clip-path="url(#p4191677639)" style="fill: none; stroke: #0000ff; stroke-width: 1.5; stroke-linecap: square"/>
   </g>
   <g id="line2d_19">
    <path d="M 90.052147 260.340867 
L 90.069717 258.190467 
L 90.09116 256.040067 
L 90.117202 253.889667 
L 90.148669 251.739267 
L 90.186504 249.588867 
L 90.231766 247.438467 
L 90.285641 245.288067 
L 90.349443 243.137667 
L 90.424617 240.987267 
L 90.512737 238.836867 
L 90.615501 236.686467 
L 90.734722 234.536067 
L 90.872315 232.385667 
L 91.030277 230.235267 
L 91.210663 228.084867 
L 91.415559 225.934467 
L 91.647041 223.784067 
L 91.907138 221.633667 
L 92.19778 219.483267 
L 92.520749 217.332867 
L 92.877622 215.182467 
L 93.269707 213.032067 
L 93.697983 210.881667 
L 94.163035 208.731267 
L 94.664995 206.580867 
L 95.203479 204.430467 
L 95.777532 202.280067 
L 96.385584 200.129667 
L 97.025413 197.979267 
L 97.694114 195.828867 
L 98.388089 193.678467 
L 99.10305 191.528067 
L 99.834039 189.377667 
L 100.575458 187.227267 
L 101.321133 185.076867 
L 102.064377 182.926467 
L 102.798085 180.776067 
L 103.514838 178.625667 
L 104.20702 176.475267 
L 104.866951 174.324867 
L 105.487024 172.174467 
L 106.059851 170.024067 
L 106.578409 167.873667 
L 107.036178 165.723267 
L 107.427282 163.572867 
L 107.746613 161.422467 
L 107.989941 159.272067 
L 108.154009 157.121667 
L 108.236603 154.971267 
L 108.236603 152.820867 
L 108.154009 150.670467 
L 107.989941 148.520067 
L 107.746613 146.369667 
L 107.427282 144.219267 
L 107.036178 142.068867 
L 106.578409 139.918467 
L 106.059851 137.768067 
L 105.487024 135.617667 
L 104.866951 133.467267 
L 104.20702 131.316867 
L 103.514838 129.166467 
L 102.798085 127.016067 
L 102.064377 124.865667 
L 101.321133 122.715267 
L 100.575458 120.564867 
L 99.834039 118.414467 
L 99.10305 116.264067 
L 98.388089 114.113667 
L 97.694114 111.963267 
L 97.025413 109.812867 
L 96.385584 107.662467 
L 95.777532 105.512067 
L 95.203479 103.361667 
L 94.664995 101.211267 
L 94.163035 99.060867 
L 93.697983 96.910467 
L 93.269707 94.760067 
L 92.877622 92.609667 
L 92.520749 90.459267 
L 92.19778 88.308867 
L 91.907138 86.158467 
L 91.647041 84.008067 
L 91.415559 81.857667 
L 91.210663 79.707267 
L 91.030277 77.556867 
L 90.872315 75.406467 
L 90.734722 73.256067 
L 90.615501 71.105667 
L 90.512737 68.955267 
L 90.424617 66.804867 
L 90.349443 64.654467 
L 90.285641 62.504067 
L 90.231766 60.353667 
L 90.186504 58.203267 
L 90.148669 56.052867 
L 90.117202 53.902467 
L 90.09116 51.752067 
L 90.069717 49.601667 
L 90.052147 47.451267 
" clip-path="url(#p4191677639)" style="fill: none; stroke: #0000ff; stroke-width: 1.5; stroke-linecap: square"/>
   </g>
   <g id="line2d_20">
    <path clip-path="url(#p4191677639)" style="fill: none; stroke: #0000ff; stroke-width: 1.5; stroke-linecap: square"/>
   </g>
   <g id="line2d_21">
    <path clip-path="url(#p4191677639)" style="fill: none; stroke: #0000ff; stroke-width: 1.5; stroke-linecap: square"/>
   </g>
   <g id="line2d_22">
    <path clip-path="url(#p4191677639)" style="fill: none; stroke: #0000ff; stroke-width: 1.5; stroke-linecap: square"/>
   </g>
   <g id="line2d_23">
    <path d="M 51.221689 251.935831 
L 51.239259 249.785431 
L 51.260702 247.635031 
L 51.286744 245.484631 
L 51.318211 243.334231 
L 51.356046 241.183831 
L 51.401308 239.033431 
L 51.455183 236.883031 
L 51.518985 234.732631 
L 51.594159 232.582231 
L 51.682279 230.431831 
L 51.785043 228.281431 
L 51.904264 226.131031 
L 52.041857 223.980631 
L 52.199819 221.830231 
L 52.380205 219.679831 
L 52.585101 217.529431 
L 52.816583 215.379031 
L 53.07668 213.228631 
L 53.367322 211.078231 
L 53.690291 208.927831 
L 54.047164 206.777431 
L 54.439249 204.627031 
L 54.867525 202.476631 
L 55.332577 200.326231 
L 55.834537 198.175831 
L 56.373021 196.025431 
L 56.947074 193.875031 
L 57.555127 191.724631 
L 58.194955 189.574231 
L 58.863656 187.423831 
L 59.557631 185.273431 
L 60.272592 183.123031 
L 61.003581 180.972631 
L 61.745 178.822231 
L 62.490675 176.671831 
L 63.233919 174.521431 
L 63.967627 172.371031 
L 64.68438 170.220631 
L 65.376562 168.070231 
L 66.036493 165.919831 
L 66.656566 163.769431 
L 67.229393 161.619031 
L 67.747951 159.468631 
L 68.20572 157.318231 
L 68.596824 155.167831 
L 68.916155 153.017431 
L 69.159484 150.867031 
L 69.323551 148.716631 
L 69.406145 146.566231 
L 69.406145 144.415831 
L 69.323551 142.265431 
L 69.159484 140.115031 
L 68.916155 137.964631 
L 68.596824 135.814231 
L 68.20572 133.663831 
L 67.747951 131.513431 
L 67.229393 129.363031 
L 66.656566 127.212631 
L 66.036493 125.062231 
L 65.376562 122.911831 
L 64.68438 120.761431 
L 63.967627 118.611031 
L 63.233919 116.460631 
L 62.490675 114.310231 
L 61.745 112.159831 
L 61.003581 110.009431 
L 60.272592 107.859031 
L 59.557631 105.708631 
L 58.863656 103.558231 
L 58.194955 101.407831 
L 57.555127 99.257431 
L 56.947074 97.107031 
L 56.373021 94.956631 
L 55.834537 92.806231 
L 55.332577 90.655831 
L 54.867525 88.505431 
L 54.439249 86.355031 
L 54.047164 84.204631 
L 53.690291 82.054231 
L 53.367322 79.903831 
L 53.07668 77.753431 
L 52.816583 75.603031 
L 52.585101 73.452631 
L 52.380205 71.302231 
L 52.199819 69.151831 
L 52.041857 67.001431 
L 51.904264 64.851031 
L 51.785043 62.700631 
L 51.682279 60.550231 
L 51.594159 58.399831 
L 51.518985 56.249431 
L 51.455183 54.099031 
L 51.401308 51.948631 
L 51.356046 49.798231 
L 51.318211 47.647831 
L 51.286744 45.497431 
L 51.260702 43.347031 
L 51.239259 41.196631 
L 51.221689 39.046231 
" clip-path="url(#p4191677639)" style="fill: none; stroke: #0000ff; stroke-width: 1.5; stroke-linecap: square"/>
   </g>
   <g id="line2d_24">
    <path clip-path="url(#p4191677639)" style="fill: none; stroke: #0000ff; stroke-width: 1.5; stroke-linecap: square"/>
   </g>
   <g id="line2d_25">
    <path clip-path="url(#p4191677639)" style="fill: none; stroke: #0000ff; stroke-width: 1.5; stroke-linecap: square"/>
   </g>
   <g id="line2d_26">
    <path clip-path="url(#p4191677639)" style="fill: none; stroke: #0000ff; stroke-width: 1.5; stroke-linecap: square"/>
   </g>
   <g id="line2d_27">
    <path d="M 6.123134 240.038448 
L 6.140704 237.888048 
L 6.162147 235.737648 
L 6.188189 233.587248 
L 6.219656 231.436848 
L 6.257491 229.286448 
L 6.302753 227.136048 
L 6.356628 224.985648 
L 6.42043 222.835248 
L 6.495604 220.684848 
L 6.583724 218.534448 
L 6.686488 216.384048 
L 6.805709 214.233648 
L 6.943302 212.083248 
L 7.101264 209.932848 
L 7.28165 207.782448 
L 7.486546 205.632048 
L 7.718028 203.481648 
L 7.978124 201.331248 
L 8.268767 199.180848 
L 8.591736 197.030448 
L 8.948609 194.880048 
L 9.340694 192.729648 
L 9.76897 190.579248 
L 10.234022 188.428848 
L 10.735982 186.278448 
L 11.274466 184.128048 
L 11.848519 181.977648 
L 12.456571 179.827248 
L 13.0964 177.676848 
L 13.765101 175.526448 
L 14.459076 173.376048 
L 15.174037 171.225648 
L 15.905026 169.075248 
L 16.646445 166.924848 
L 17.39212 164.774448 
L 18.135364 162.624048 
L 18.869072 160.473648 
L 19.585825 158.323248 
L 20.278007 156.172848 
L 20.937938 154.022448 
L 21.558011 151.872048 
L 22.130838 149.721648 
L 22.649396 147.571248 
L 23.107165 145.420848 
L 23.498269 143.270448 
L 23.8176 141.120048 
L 24.060928 138.969648 
L 24.224996 136.819248 
L 24.30759 134.668848 
L 24.30759 132.518448 
L 24.224996 130.368048 
L 24.060928 128.217648 
L 23.8176 126.067248 
L 23.498269 123.916848 
L 23.107165 121.766448 
L 22.649396 119.616048 
L 22.130838 117.465648 
L 21.558011 115.315248 
L 20.937938 113.164848 
L 20.278007 111.014448 
L 19.585825 108.864048 
L 18.869072 106.713648 
L 18.135364 104.563248 
L 17.39212 102.412848 
L 16.646445 100.262448 
L 15.905026 98.112048 
L 15.174037 95.961648 
L 14.459076 93.811248 
L 13.765101 91.660848 
L 13.0964 89.510448 
L 12.456571 87.360048 
L 11.848519 85.209648 
L 11.274466 83.059248 
L 10.735982 80.908848 
L 10.234022 78.758448 
L 9.76897 76.608048 
L 9.340694 74.457648 
L 8.948609 72.307248 
L 8.591736 70.156848 
L 8.268767 68.006448 
L 7.978124 65.856048 
L 7.718028 63.705648 
L 7.486546 61.555248 
L 7.28165 59.404848 
L 7.101264 57.254448 
L 6.943302 55.104048 
L 6.805709 52.953648 
L 6.686488 50.803248 
L 6.583724 48.652848 
L 6.495604 46.502448 
L 6.42043 44.352048 
L 6.356628 42.201648 
L 6.302753 40.051248 
L 6.257491 37.900848 
L 6.219656 35.750448 
L 6.188189 33.600048 
L 6.162147 31.449648 
L 6.140704 29.299248 
L 6.123134 27.148848 
" clip-path="url(#p4191677639)" style="fill: none; stroke: #0000ff; stroke-width: 1.5; stroke-linecap: square"/>
   </g>
   <g id="line2d_28">
    <path clip-path="url(#p4191677639)" style="fill: none; stroke: #0000ff; stroke-width: 1.5; stroke-linecap: square"/>
   </g>
   <g id="line2d_29">
    <path clip-path="url(#p4191677639)" style="fill: none; stroke: #0000ff; stroke-width: 1.5; stroke-linecap: square"/>
   </g>
   <g id="line2d_30">
    <path clip-path="url(#p4191677639)" style="fill: none; stroke: #0000ff; stroke-width: 1.5; stroke-linecap: square"/>
   </g>
   <g id="line2d_31">
    <path clip-path="url(#p4191677639)" style="fill: none; stroke: #0000ff; stroke-width: 1.5; stroke-linecap: square"/>
   </g>
   <g id="line2d_32">
    <path clip-path="url(#p4191677639)" style="fill: none; stroke: #0000ff; stroke-width: 1.5; stroke-linecap: square"/>
   </g>
   <g id="line2d_33">
    <path clip-path="url(#p4191677639)" style="fill: none; stroke: #0000ff; stroke-width: 1.5; stroke-linecap: square"/>
   </g>
   <g id="line2d_34">
    <path d="M 7.627745 240.472385 
L 7.645315 238.321985 
L 7.666758 236.171585 
L 7.692799 234.021185 
L 7.724267 231.870785 
L 7.762102 229.720385 
L 7.807364 227.569985 
L 7.861239 225.419585 
L 7.925041 223.269185 
L 8.000215 221.118785 
L 8.088335 218.968385 
L 8.191099 216.817985 
L 8.31032 214.667585 
L 8.447913 212.517185 
L 8.605874 210.366785 
L 8.786261 208.216385 
L 8.991156 206.065985 
L 9.222639 203.915585 
L 9.482735 201.765185 
L 9.773377 199.614785 
L 10.096347 197.464385 
L 10.45322 195.313985 
L 10.845305 193.163585 
L 11.27358 191.013185 
L 11.738633 188.862785 
L 12.240593 186.712385 
L 12.779076 184.561985 
L 13.353129 182.411585 
L 13.961182 180.261185 
L 14.601011 178.110785 
L 15.269712 175.960385 
L 15.963687 173.809985 
L 16.678648 171.659585 
L 17.409636 169.509185 
L 18.151056 167.358785 
L 18.89673 165.208385 
L 19.639974 163.057985 
L 20.373683 160.907585 
L 21.090436 158.757185 
L 21.782618 156.606785 
L 22.442548 154.456385 
L 23.062622 152.305985 
L 23.635449 150.155585 
L 24.154006 148.005185 
L 24.611775 145.854785 
L 25.00288 143.704385 
L 25.322211 141.553985 
L 25.565539 139.403585 
L 25.729607 137.253185 
L 25.812201 135.102785 
L 25.812201 132.952385 
L 25.729607 130.801985 
L 25.565539 128.651585 
L 25.322211 126.501185 
L 25.00288 124.350785 
L 24.611775 122.200385 
L 24.154006 120.049985 
L 23.635449 117.899585 
L 23.062622 115.749185 
L 22.442548 113.598785 
L 21.782618 111.448385 
L 21.090436 109.297985 
L 20.373683 107.147585 
L 19.639974 104.997185 
L 18.89673 102.846785 
L 18.151056 100.696385 
L 17.409636 98.545985 
L 16.678648 96.395585 
L 15.963687 94.245185 
L 15.269712 92.094785 
L 14.601011 89.944385 
L 13.961182 87.793985 
L 13.353129 85.643585 
L 12.779076 83.493185 
L 12.240593 81.342785 
L 11.738633 79.192385 
L 11.27358 77.041985 
L 10.845305 74.891585 
L 10.45322 72.741185 
L 10.096347 70.590785 
L 9.773377 68.440385 
L 9.482735 66.289985 
L 9.222639 64.139585 
L 8.991156 61.989185 
L 8.786261 59.838785 
L 8.605874 57.688385 
L 8.447913 55.537985 
L 8.31032 53.387585 
L 8.191099 51.237185 
L 8.088335 49.086785 
L 8.000215 46.936385 
L 7.925041 44.785985 
L 7.861239 42.635585 
L 7.807364 40.485185 
L 7.762102 38.334785 
L 7.724267 36.184385 
L 7.692799 34.033985 
L 7.666758 31.883585 
L 7.645315 29.733185 
L 7.627745 27.582785 
" clip-path="url(#p4191677639)" style="fill: none; stroke: #0000ff; stroke-width: 1.5; stroke-linecap: square"/>
   </g>
   <g id="line2d_35">
    <path clip-path="url(#p4191677639)" style="fill: none; stroke: #0000ff; stroke-width: 1.5; stroke-linecap: square"/>
   </g>
   <g id="line2d_36">
    <path clip-path="url(#p4191677639)" style="fill: none; stroke: #0000ff; stroke-width: 1.5; stroke-linecap: square"/>
   </g>
   <g id="line2d_37">
    <path clip-path="url(#p4191677639)" style="fill: none; stroke: #0000ff; stroke-width: 1.5; stroke-linecap: square"/>
   </g>
   <g id="line2d_38">
    <path clip-path="url(#p4191677639)" style="fill: none; stroke: #0000ff; stroke-width: 1.5; stroke-linecap: square"/>
   </g>
   <g id="line2d_39">
    <path clip-path="url(#p4191677639)" style="fill: none; stroke: #0000ff; stroke-width: 1.5; stroke-linecap: square"/>
   </g>
   <g id="line2d_40">
    <path clip-path="url(#p4191677639)" style="fill: none; stroke: #0000ff; stroke-width: 1.5; stroke-linecap: square"/>
   </g>
   <g id="line2d_41">
    <path clip-path="url(#p4191677639)" style="fill: none; stroke: #0000ff; stroke-width: 1.5; stroke-linecap: square"/>
   </g>
   <g id="line2d_42">
    <path clip-path="url(#p4191677639)" style="fill: none; stroke: #0000ff; stroke-width: 1.5; stroke-linecap: square"/>
   </g>
   <g id="line2d_43">
    <path clip-path="url(#p4191677639)" style="fill: none; stroke: #ffa500; stroke-width: 1.5; stroke-linecap: square"/>
   </g>
   <g id="line2d_44">
    <path clip-path="url(#p4191677639)" style="fill: none; stroke: #ffa500; stroke-width: 1.5; stroke-linecap: square"/>
   </g>
   <g id="line2d_45">
    <path d="M 381.103868 269.168764 
L 381.121437 267.018364 
L 381.142881 264.867964 
L 381.168922 262.717564 
L 381.20039 260.567164 
L 381.238224 258.416764 
L 381.283486 256.266364 
L 381.337361 254.115964 
L 381.401164 251.965564 
L 381.476338 249.815164 
L 381.564458 247.664764 
L 381.667222 245.514364 
L 381.786443 243.363964 
L 381.924035 241.213564 
L 382.081997 239.063164 
L 382.262383 236.912764 
L 382.467279 234.762364 
L 382.698761 232.611964 
L 382.958858 230.461564 
L 383.2495 228.311164 
L 383.57247 226.160764 
L 383.929343 224.010364 
L 384.321427 221.859964 
L 384.749703 219.709564 
L 385.214756 217.559164 
L 385.716716 215.408764 
L 386.255199 213.258364 
L 386.829252 211.107964 
L 387.437305 208.957564 
L 388.077134 206.807164 
L 388.745834 204.656764 
L 389.439809 202.506364 
L 390.154771 200.355964 
L 390.885759 198.205564 
L 391.627179 196.055164 
L 392.372853 193.904764 
L 393.116097 191.754364 
L 393.849806 189.603964 
L 394.566558 187.453564 
L 395.25874 185.303164 
L 395.918671 183.152764 
L 396.538744 181.002364 
L 397.111572 178.851964 
L 397.630129 176.701564 
L 398.087898 174.551164 
L 398.479002 172.400764 
L 398.798333 170.250364 
L 399.041662 168.099964 
L 399.20573 165.949564 
L 399.288323 163.799164 
L 399.288323 161.648764 
L 399.20573 159.498364 
L 399.041662 157.347964 
L 398.798333 155.197564 
L 398.479002 153.047164 
L 398.087898 150.896764 
L 397.630129 148.746364 
L 397.111572 146.595964 
L 396.538744 144.445564 
L 395.918671 142.295164 
L 395.25874 140.144764 
L 394.566558 137.994364 
L 393.849806 135.843964 
L 393.116097 133.693564 
L 392.372853 131.543164 
L 391.627179 129.392764 
L 390.885759 127.242364 
L 390.154771 125.091964 
L 389.439809 122.941564 
L 388.745834 120.791164 
L 388.077134 118.640764 
L 387.437305 116.490364 
L 386.829252 114.339964 
L 386.255199 112.189564 
L 385.716716 110.039164 
L 385.214756 107.888764 
L 384.749703 105.738364 
L 384.321427 103.587964 
L 383.929343 101.437564 
L 383.57247 99.287164 
L 383.2495 97.136764 
L 382.958858 94.986364 
L 382.698761 92.835964 
L 382.467279 90.685564 
L 382.262383 88.535164 
L 382.081997 86.384764 
L 381.924035 84.234364 
L 381.786443 82.083964 
L 381.667222 79.933564 
L 381.564458 77.783164 
L 381.476338 75.632764 
L 381.401164 73.482364 
L 381.337361 71.331964 
L 381.283486 69.181564 
L 381.238224 67.031164 
L 381.20039 64.880764 
L 381.168922 62.730364 
L 381.142881 60.579964 
L 381.121437 58.429564 
L 381.103868 56.279164 
" clip-path="url(#p4191677639)" style="fill: none; stroke: #ffa500; stroke-width: 1.5; stroke-linecap: square"/>
   </g>
   <g id="line2d_46">
    <path clip-path="url(#p4191677639)" style="fill: none; stroke: #ffa500; stroke-width: 1.5; stroke-linecap: square"/>
   </g>
   <g id="line2d_47">
    <path clip-path="url(#p4191677639)" style="fill: none; stroke: #ffa500; stroke-width: 1.5; stroke-linecap: square"/>
   </g>
   <g id="line2d_48">
    <path clip-path="url(#p4191677639)" style="fill: none; stroke: #ffa500; stroke-width: 1.5; stroke-linecap: square"/>
   </g>
   <g id="line2d_49">
    <path clip-path="url(#p4191677639)" style="fill: none; stroke: #ffa500; stroke-width: 1.5; stroke-linecap: square"/>
   </g>
   <g id="line2d_50">
    <path clip-path="url(#p4191677639)" style="fill: none; stroke: #ffa500; stroke-width: 1.5; stroke-linecap: square"/>
   </g>
   <g id="line2d_51">
    <path clip-path="url(#p4191677639)" style="fill: none; stroke: #ffa500; stroke-width: 1.5; stroke-linecap: square"/>
   </g>
   <g id="line2d_52">
    <path clip-path="url(#p4191677639)" style="fill: none; stroke: #ffa500; stroke-width: 1.5; stroke-linecap: square"/>
   </g>
   <g id="patch_3">
    <path d="M 42.620313 277.111219 
L 42.620313 10.999219 
" style="fill: none; stroke: #000000; stroke-width: 0.8; stroke-linejoin: miter; stroke-linecap: square"/>
   </g>
   <g id="patch_4">
    <path d="M 399.740313 277.111219 
L 399.740313 10.999219 
" style="fill: none; stroke: #000000; stroke-width: 0.8; stroke-linejoin: miter; stroke-linecap: square"/>
   </g>
   <g id="patch_5">
    <path d="M 42.620312 277.111219 
L 399.740312 277.111219 
" style="fill: none; stroke: #000000; stroke-width: 0.8; stroke-linejoin: miter; stroke-linecap: square"/>
   </g>
   <g id="patch_6">
    <path d="M 42.620312 10.999219 
L 399.740312 10.999219 
" style="fill: none; stroke: #000000; stroke-width: 0.8; stroke-linejoin: miter; stroke-linecap: square"/>
   </g>
   <g id="line2d_53">
    <path d="M -1 131.487286 
L 8.489963 134.295335 
L 25.138914 138.908921 
L 41.787865 143.209721 
L 58.436816 147.197735 
L 75.085767 150.872964 
L 91.734718 154.235408 
L 108.383669 157.285066 
L 125.03262 160.021939 
L 141.681571 162.446026 
L 158.330522 164.557328 
L 174.979473 166.355844 
L 191.628424 167.841575 
L 208.277375 169.014521 
L 224.926326 169.874681 
L 241.575278 170.422055 
L 258.224229 170.656644 
L 274.87318 170.578448 
L 291.522131 170.187466 
L 308.171082 169.483699 
L 324.820033 168.467146 
L 341.468984 167.137808 
L 358.117935 165.495684 
L 374.766886 163.540775 
L 391.415837 161.273081 
L 408.064788 158.692601 
L 415.891875 157.332404 
" clip-path="url(#p4191677639)" style="fill: none; stroke: #000000; stroke-width: 3; stroke-linecap: square"/>
   </g>
   <g id="PathCollection_1">
    <defs>
     <path id="mb240208fcb" d="M 0 3.535534 
C 0.937635 3.535534 1.836992 3.163008 2.5 2.5 
C 3.163008 1.836992 3.535534 0.937635 3.535534 0 
C 3.535534 -0.937635 3.163008 -1.836992 2.5 -2.5 
C 1.836992 -3.163008 0.937635 -3.535534 0 -3.535534 
C -0.937635 -3.535534 -1.836992 -3.163008 -2.5 -2.5 
C -3.163008 -1.836992 -3.535534 -0.937635 -3.535534 0 
C -3.535534 0.937635 -3.163008 1.836992 -2.5 2.5 
C -1.836992 3.163008 -0.937635 3.535534 0 3.535534 
z
" style="stroke: #000000"/>
    </defs>
    <g clip-path="url(#p4191677639)">
     <use xlink:href="#mb240208fcb" x="73.435011" y="165.24727" style="fill: #0000ff; stroke: #000000"/>
     <use xlink:href="#mb240208fcb" x="-1" y="134.955978" style="fill: #0000ff; stroke: #000000"/>
     <use xlink:href="#mb240208fcb" x="-1" y="127.602737" style="fill: #0000ff; stroke: #000000"/>
     <use xlink:href="#mb240208fcb" x="89.981535" y="177.682442" style="fill: #0000ff; stroke: #000000"/>
     <use xlink:href="#mb240208fcb" x="-1" y="134.706705" style="fill: #0000ff; stroke: #000000"/>
     <use xlink:href="#mb240208fcb" x="-1" y="125.81651" style="fill: #0000ff; stroke: #000000"/>
     <use xlink:href="#mb240208fcb" x="51.151077" y="149.575011" style="fill: #0000ff; stroke: #000000"/>
     <use xlink:href="#mb240208fcb" x="-1" y="124.505547" style="fill: #0000ff; stroke: #000000"/>
     <use xlink:href="#mb240208fcb" x="-1" y="128.460204" style="fill: #0000ff; stroke: #000000"/>
     <use xlink:href="#mb240208fcb" x="6.052521" y="132.512004" style="fill: #0000ff; stroke: #000000"/>
     <use xlink:href="#mb240208fcb" x="-1" y="129.587827" style="fill: #0000ff; stroke: #000000"/>
     <use xlink:href="#mb240208fcb" x="-1" y="137.191587" style="fill: #0000ff; stroke: #000000"/>
     <use xlink:href="#mb240208fcb" x="7.557132" y="141.526618" style="fill: #0000ff; stroke: #000000"/>
     <use xlink:href="#mb240208fcb" x="-1" y="143.215677" style="fill: #0000ff; stroke: #000000"/>
    </g>
   </g>
   <g id="PathCollection_2">
    <defs>
     <path id="md72ed44cfe" d="M 0 3.535534 
C 0.937635 3.535534 1.836992 3.163008 2.5 2.5 
C 3.163008 1.836992 3.535534 0.937635 3.535534 0 
C 3.535534 -0.937635 3.163008 -1.836992 2.5 -2.5 
C 1.836992 -3.163008 0.937635 -3.535534 0 -3.535534 
C -0.937635 -3.535534 -1.836992 -3.163008 -2.5 -2.5 
C -3.163008 -1.836992 -3.535534 -0.937635 -3.535534 0 
C -3.535534 0.937635 -3.163008 1.836992 -2.5 2.5 
C -1.836992 3.163008 -0.937635 3.535534 0 3.535534 
z
" style="stroke: #000000"/>
    </defs>
    <g clip-path="url(#p4191677639)">
     <use xlink:href="#md72ed44cfe" x="617.204712" y="87.89443" style="fill: #ffa500; stroke: #000000"/>
     <use xlink:href="#md72ed44cfe" x="666.71954" y="29.627261" style="fill: #ffa500; stroke: #000000"/>
     <use xlink:href="#md72ed44cfe" x="381.033255" y="161.839633" style="fill: #ffa500; stroke: #000000"/>
     <use xlink:href="#md72ed44cfe" x="810.733107" y="-1" style="fill: #ffa500; stroke: #000000"/>
     <use xlink:href="#md72ed44cfe" x="810.581393" y="-1" style="fill: #ffa500; stroke: #000000"/>
     <use xlink:href="#md72ed44cfe" x="428.112729" y="143.694218" style="fill: #ffa500; stroke: #000000"/>
     <use xlink:href="#md72ed44cfe" x="558.830767" y="133.775471" style="fill: #ffa500; stroke: #000000"/>
     <use xlink:href="#md72ed44cfe" x="743.520702" y="40.46402" style="fill: #ffa500; stroke: #000000"/>
     <use xlink:href="#md72ed44cfe" x="503.402897" y="112.877363" style="fill: #ffa500; stroke: #000000"/>
     <use xlink:href="#md72ed44cfe" x="529.134198" y="146.441629" style="fill: #ffa500; stroke: #000000"/>
     <use xlink:href="#md72ed44cfe" x="549.592313" y="123.933962" style="fill: #ffa500; stroke: #000000"/>
    </g>
   </g>
  </g>
 </g>
 <defs>
  <clipPath id="p4191677639">
   <rect x="42.620313" y="10.999219" width="357.12" height="266.112"/>
  </clipPath>
 </defs>
</svg>
