<?xml version="1.0" encoding="utf-8" standalone="no"?>
<!DOCTYPE svg PUBLIC "-//W3C//DTD SVG 1.1//EN"
  "http://www.w3.org/Graphics/SVG/1.1/DTD/svg11.dtd">
<svg xmlns:xlink="http://www.w3.org/1999/xlink" width="414.60125pt" height="320.546375pt" viewBox="0 0 414.60125 320.546375" xmlns="http://www.w3.org/2000/svg" version="1.1">
 <metadata>
  <rdf:RDF xmlns:dc="http://purl.org/dc/elements/1.1/" xmlns:cc="http://creativecommons.org/ns#" xmlns:rdf="http://www.w3.org/1999/02/22-rdf-syntax-ns#">
   <cc:Work>
    <dc:type rdf:resource="http://purl.org/dc/dcmitype/StillImage"/>
    <dc:date>2023-05-23T09:32:43.504469</dc:date>
    <dc:format>image/svg+xml</dc:format>
    <dc:creator>
     <cc:Agent>
      <dc:title>Matplotlib v3.7.1, https://matplotlib.org/</dc:title>
     </cc:Agent>
    </dc:creator>
   </cc:Work>
  </rdf:RDF>
 </metadata>
 <defs>
  <style type="text/css">*{stroke-linejoin: round; stroke-linecap: butt}</style>
 </defs>
 <g id="figure_1">
  <g id="patch_1">
   <path d="M 0 320.546375 
L 414.60125 320.546375 
L 414.60125 0 
L 0 0 
z
" style="fill: #ffffff"/>
  </g>
  <g id="axes_1">
   <g id="patch_2">
    <path d="M 50.28125 273.312 
L 407.40125 273.312 
L 407.40125 7.2 
L 50.28125 7.2 
z
" style="fill: #ffffff"/>
   </g>
   <g id="PolyCollection_1">
    <defs>
     <path id="m30208038ab" d="M 66.513977 -128.450375 
L 66.513977 -59.330375 
L 69.793316 -61.07583 
L 73.072655 -62.821284 
L 76.351994 -64.566739 
L 79.631333 -66.312193 
L 82.910671 -68.057648 
L 86.19001 -69.803102 
L 89.469349 -71.548557 
L 92.748688 -73.294011 
L 96.028027 -75.039466 
L 99.307366 -76.78492 
L 102.586705 -78.530375 
L 105.866043 -80.27583 
L 109.145382 -82.021284 
L 112.424721 -83.766739 
L 115.70406 -85.512193 
L 118.983399 -87.257648 
L 122.262738 -89.003102 
L 125.542076 -90.748557 
L 128.821415 -92.494011 
L 132.100754 -94.239466 
L 135.380093 -95.98492 
L 138.659432 -97.730375 
L 141.938771 -99.47583 
L 145.21811 -101.221284 
L 148.497448 -102.966739 
L 151.776787 -104.712193 
L 155.056126 -106.457648 
L 158.335465 -108.203102 
L 161.614804 -109.948557 
L 164.894143 -111.694011 
L 168.173481 -113.439466 
L 171.45282 -115.18492 
L 174.732159 -116.930375 
L 178.011498 -118.67583 
L 181.290837 -120.421284 
L 184.570176 -122.166739 
L 187.849514 -123.912193 
L 191.128853 -125.657648 
L 194.408192 -127.403102 
L 197.687531 -129.148557 
L 200.96687 -130.894011 
L 204.246209 -132.639466 
L 207.525548 -134.38492 
L 210.804886 -136.130375 
L 214.084225 -137.87583 
L 217.363564 -139.621284 
L 220.642903 -141.366739 
L 223.922242 -143.112193 
L 227.201581 -144.857648 
L 230.480919 -146.603102 
L 233.760258 -148.348557 
L 237.039597 -150.094011 
L 240.318936 -151.839466 
L 243.598275 -153.58492 
L 246.877614 -155.330375 
L 250.156952 -157.07583 
L 253.436291 -158.821284 
L 256.71563 -160.566739 
L 259.994969 -162.312193 
L 263.274308 -164.057648 
L 266.553647 -165.803102 
L 269.832986 -167.548557 
L 273.112324 -169.294011 
L 276.391663 -171.039466 
L 279.671002 -172.78492 
L 282.950341 -174.530375 
L 286.22968 -176.27583 
L 289.509019 -178.021284 
L 292.788357 -179.766739 
L 296.067696 -181.512193 
L 299.347035 -183.257648 
L 302.626374 -185.003102 
L 305.905713 -186.748557 
L 309.185052 -188.494011 
L 312.46439 -190.239466 
L 315.743729 -191.98492 
L 319.023068 -193.730375 
L 322.302407 -195.47583 
L 325.581746 -197.221284 
L 328.861085 -198.966739 
L 332.140424 -200.712193 
L 335.419762 -202.457648 
L 338.699101 -204.203102 
L 341.97844 -205.948557 
L 345.257779 -207.694011 
L 348.537118 -209.439466 
L 351.816457 -211.18492 
L 355.095795 -212.930375 
L 358.375134 -214.67583 
L 361.654473 -216.421284 
L 364.933812 -218.166739 
L 368.213151 -219.912193 
L 371.49249 -221.657648 
L 374.771829 -223.403102 
L 378.051167 -225.148557 
L 381.330506 -226.894011 
L 384.609845 -228.639466 
L 387.889184 -230.38492 
L 391.168523 -232.130375 
L 391.168523 -301.250375 
L 391.168523 -301.250375 
L 387.889184 -299.50492 
L 384.609845 -297.759466 
L 381.330506 -296.014011 
L 378.051167 -294.268557 
L 374.771829 -292.523102 
L 371.49249 -290.777648 
L 368.213151 -289.032193 
L 364.933812 -287.286739 
L 361.654473 -285.541284 
L 358.375134 -283.79583 
L 355.095795 -282.050375 
L 351.816457 -280.30492 
L 348.537118 -278.559466 
L 345.257779 -276.814011 
L 341.97844 -275.068557 
L 338.699101 -273.323102 
L 335.419762 -271.577648 
L 332.140424 -269.832193 
L 328.861085 -268.086739 
L 325.581746 -266.341284 
L 322.302407 -264.59583 
L 319.023068 -262.850375 
L 315.743729 -261.10492 
L 312.46439 -259.359466 
L 309.185052 -257.614011 
L 305.905713 -255.868557 
L 302.626374 -254.123102 
L 299.347035 -252.377648 
L 296.067696 -250.632193 
L 292.788357 -248.886739 
L 289.509019 -247.141284 
L 286.22968 -245.39583 
L 282.950341 -243.650375 
L 279.671002 -241.90492 
L 276.391663 -240.159466 
L 273.112324 -238.414011 
L 269.832986 -236.668557 
L 266.553647 -234.923102 
L 263.274308 -233.177648 
L 259.994969 -231.432193 
L 256.71563 -229.686739 
L 253.436291 -227.941284 
L 250.156952 -226.19583 
L 246.877614 -224.450375 
L 243.598275 -222.70492 
L 240.318936 -220.959466 
L 237.039597 -219.214011 
L 233.760258 -217.468557 
L 230.480919 -215.723102 
L 227.201581 -213.977648 
L 223.922242 -212.232193 
L 220.642903 -210.486739 
L 217.363564 -208.741284 
L 214.084225 -206.99583 
L 210.804886 -205.250375 
L 207.525548 -203.50492 
L 204.246209 -201.759466 
L 200.96687 -200.014011 
L 197.687531 -198.268557 
L 194.408192 -196.523102 
L 191.128853 -194.777648 
L 187.849514 -193.032193 
L 184.570176 -191.286739 
L 181.290837 -189.541284 
L 178.011498 -187.79583 
L 174.732159 -186.050375 
L 171.45282 -184.30492 
L 168.173481 -182.559466 
L 164.894143 -180.814011 
L 161.614804 -179.068557 
L 158.335465 -177.323102 
L 155.056126 -175.577648 
L 151.776787 -173.832193 
L 148.497448 -172.086739 
L 145.21811 -170.341284 
L 141.938771 -168.59583 
L 138.659432 -166.850375 
L 135.380093 -165.10492 
L 132.100754 -163.359466 
L 128.821415 -161.614011 
L 125.542076 -159.868557 
L 122.262738 -158.123102 
L 118.983399 -156.377648 
L 115.70406 -154.632193 
L 112.424721 -152.886739 
L 109.145382 -151.141284 
L 105.866043 -149.39583 
L 102.586705 -147.650375 
L 99.307366 -145.90492 
L 96.028027 -144.159466 
L 92.748688 -142.414011 
L 89.469349 -140.668557 
L 86.19001 -138.923102 
L 82.910671 -137.177648 
L 79.631333 -135.432193 
L 76.351994 -133.686739 
L 73.072655 -131.941284 
L 69.793316 -130.19583 
L 66.513977 -128.450375 
z
" style="stroke: #00ffff; stroke-opacity: 0.5"/>
    </defs>
    <g clip-path="url(#pe4dc3982cc)">
     <use xlink:href="#m30208038ab" x="0" y="320.546375" style="fill: #00ffff; fill-opacity: 0.5; stroke: #00ffff; stroke-opacity: 0.5"/>
    </g>
   </g>
   <g id="matplotlib.axis_1">
    <g id="xtick_1">
     <g id="line2d_1">
      <defs>
       <path id="m57faf2a6e6" d="M 0 0 
L 0 3.5 
" style="stroke: #000000; stroke-width: 0.8"/>
      </defs>
      <g>
       <use xlink:href="#m57faf2a6e6" x="66.513977" y="273.312" style="stroke: #000000; stroke-width: 0.8"/>
      </g>
     </g>
     <g id="text_1">
      <!-- 0 -->
      <g transform="translate(63.332727 287.910437) scale(0.1 -0.1)">
       <defs>
        <path id="DejaVuSans-30" d="M 2034 4250 
Q 1547 4250 1301 3770 
Q 1056 3291 1056 2328 
Q 1056 1369 1301 889 
Q 1547 409 2034 409 
Q 2525 409 2770 889 
Q 3016 1369 3016 2328 
Q 3016 3291 2770 3770 
Q 2525 4250 2034 4250 
z
M 2034 4750 
Q 2819 4750 3233 4129 
Q 3647 3509 3647 2328 
Q 3647 1150 3233 529 
Q 2819 -91 2034 -91 
Q 1250 -91 836 529 
Q 422 1150 422 2328 
Q 422 3509 836 4129 
Q 1250 4750 2034 4750 
z
" transform="scale(0.015625)"/>
       </defs>
       <use xlink:href="#DejaVuSans-30"/>
      </g>
     </g>
    </g>
    <g id="xtick_2">
     <g id="line2d_2">
      <g>
       <use xlink:href="#m57faf2a6e6" x="138.659432" y="273.312" style="stroke: #000000; stroke-width: 0.8"/>
      </g>
     </g>
     <g id="text_2">
      <!-- 10 -->
      <g transform="translate(132.296932 287.910437) scale(0.1 -0.1)">
       <defs>
        <path id="DejaVuSans-31" d="M 794 531 
L 1825 531 
L 1825 4091 
L 703 3866 
L 703 4441 
L 1819 4666 
L 2450 4666 
L 2450 531 
L 3481 531 
L 3481 0 
L 794 0 
L 794 531 
z
" transform="scale(0.015625)"/>
       </defs>
       <use xlink:href="#DejaVuSans-31"/>
       <use xlink:href="#DejaVuSans-30" x="63.623047"/>
      </g>
     </g>
    </g>
    <g id="xtick_3">
     <g id="line2d_3">
      <g>
       <use xlink:href="#m57faf2a6e6" x="210.804886" y="273.312" style="stroke: #000000; stroke-width: 0.8"/>
      </g>
     </g>
     <g id="text_3">
      <!-- 20 -->
      <g transform="translate(204.442386 287.910437) scale(0.1 -0.1)">
       <defs>
        <path id="DejaVuSans-32" d="M 1228 531 
L 3431 531 
L 3431 0 
L 469 0 
L 469 531 
Q 828 903 1448 1529 
Q 2069 2156 2228 2338 
Q 2531 2678 2651 2914 
Q 2772 3150 2772 3378 
Q 2772 3750 2511 3984 
Q 2250 4219 1831 4219 
Q 1534 4219 1204 4116 
Q 875 4013 500 3803 
L 500 4441 
Q 881 4594 1212 4672 
Q 1544 4750 1819 4750 
Q 2544 4750 2975 4387 
Q 3406 4025 3406 3419 
Q 3406 3131 3298 2873 
Q 3191 2616 2906 2266 
Q 2828 2175 2409 1742 
Q 1991 1309 1228 531 
z
" transform="scale(0.015625)"/>
       </defs>
       <use xlink:href="#DejaVuSans-32"/>
       <use xlink:href="#DejaVuSans-30" x="63.623047"/>
      </g>
     </g>
    </g>
    <g id="xtick_4">
     <g id="line2d_4">
      <g>
       <use xlink:href="#m57faf2a6e6" x="282.950341" y="273.312" style="stroke: #000000; stroke-width: 0.8"/>
      </g>
     </g>
     <g id="text_4">
      <!-- 30 -->
      <g transform="translate(276.587841 287.910437) scale(0.1 -0.1)">
       <defs>
        <path id="DejaVuSans-33" d="M 2597 2516 
Q 3050 2419 3304 2112 
Q 3559 1806 3559 1356 
Q 3559 666 3084 287 
Q 2609 -91 1734 -91 
Q 1441 -91 1130 -33 
Q 819 25 488 141 
L 488 750 
Q 750 597 1062 519 
Q 1375 441 1716 441 
Q 2309 441 2620 675 
Q 2931 909 2931 1356 
Q 2931 1769 2642 2001 
Q 2353 2234 1838 2234 
L 1294 2234 
L 1294 2753 
L 1863 2753 
Q 2328 2753 2575 2939 
Q 2822 3125 2822 3475 
Q 2822 3834 2567 4026 
Q 2313 4219 1838 4219 
Q 1578 4219 1281 4162 
Q 984 4106 628 3988 
L 628 4550 
Q 988 4650 1302 4700 
Q 1616 4750 1894 4750 
Q 2613 4750 3031 4423 
Q 3450 4097 3450 3541 
Q 3450 3153 3228 2886 
Q 3006 2619 2597 2516 
z
" transform="scale(0.015625)"/>
       </defs>
       <use xlink:href="#DejaVuSans-33"/>
       <use xlink:href="#DejaVuSans-30" x="63.623047"/>
      </g>
     </g>
    </g>
    <g id="xtick_5">
     <g id="line2d_5">
      <g>
       <use xlink:href="#m57faf2a6e6" x="355.095795" y="273.312" style="stroke: #000000; stroke-width: 0.8"/>
      </g>
     </g>
     <g id="text_5">
      <!-- 40 -->
      <g transform="translate(348.733295 287.910437) scale(0.1 -0.1)">
       <defs>
        <path id="DejaVuSans-34" d="M 2419 4116 
L 825 1625 
L 2419 1625 
L 2419 4116 
z
M 2253 4666 
L 3047 4666 
L 3047 1625 
L 3713 1625 
L 3713 1100 
L 3047 1100 
L 3047 0 
L 2419 0 
L 2419 1100 
L 313 1100 
L 313 1709 
L 2253 4666 
z
" transform="scale(0.015625)"/>
       </defs>
       <use xlink:href="#DejaVuSans-34"/>
       <use xlink:href="#DejaVuSans-30" x="63.623047"/>
      </g>
     </g>
    </g>
    <g id="text_6">
     <!-- x2 -->
     <g transform="translate(216.56 309.187) scale(0.2 -0.2)">
      <defs>
       <path id="DejaVuSans-78" d="M 3513 3500 
L 2247 1797 
L 3578 0 
L 2900 0 
L 1881 1375 
L 863 0 
L 184 0 
L 1544 1831 
L 300 3500 
L 978 3500 
L 1906 2253 
L 2834 3500 
L 3513 3500 
z
" transform="scale(0.015625)"/>
      </defs>
      <use xlink:href="#DejaVuSans-78"/>
      <use xlink:href="#DejaVuSans-32" x="59.179688"/>
     </g>
    </g>
   </g>
   <g id="matplotlib.axis_2">
    <g id="ytick_1">
     <g id="line2d_6">
      <defs>
       <path id="m19aa6302d0" d="M 0 0 
L -3.5 0 
" style="stroke: #000000; stroke-width: 0.8"/>
      </defs>
      <g>
       <use xlink:href="#m19aa6302d0" x="50.28125" y="245.856" style="stroke: #000000; stroke-width: 0.8"/>
      </g>
     </g>
     <g id="text_7">
      <!-- 0 -->
      <g transform="translate(36.91875 249.655219) scale(0.1 -0.1)">
       <use xlink:href="#DejaVuSans-30"/>
      </g>
     </g>
    </g>
    <g id="ytick_2">
     <g id="line2d_7">
      <g>
       <use xlink:href="#m19aa6302d0" x="50.28125" y="207.456" style="stroke: #000000; stroke-width: 0.8"/>
      </g>
     </g>
     <g id="text_8">
      <!-- 10 -->
      <g transform="translate(30.55625 211.255219) scale(0.1 -0.1)">
       <use xlink:href="#DejaVuSans-31"/>
       <use xlink:href="#DejaVuSans-30" x="63.623047"/>
      </g>
     </g>
    </g>
    <g id="ytick_3">
     <g id="line2d_8">
      <g>
       <use xlink:href="#m19aa6302d0" x="50.28125" y="169.056" style="stroke: #000000; stroke-width: 0.8"/>
      </g>
     </g>
     <g id="text_9">
      <!-- 20 -->
      <g transform="translate(30.55625 172.855219) scale(0.1 -0.1)">
       <use xlink:href="#DejaVuSans-32"/>
       <use xlink:href="#DejaVuSans-30" x="63.623047"/>
      </g>
     </g>
    </g>
    <g id="ytick_4">
     <g id="line2d_9">
      <g>
       <use xlink:href="#m19aa6302d0" x="50.28125" y="130.656" style="stroke: #000000; stroke-width: 0.8"/>
      </g>
     </g>
     <g id="text_10">
      <!-- 30 -->
      <g transform="translate(30.55625 134.455219) scale(0.1 -0.1)">
       <use xlink:href="#DejaVuSans-33"/>
       <use xlink:href="#DejaVuSans-30" x="63.623047"/>
      </g>
     </g>
    </g>
    <g id="ytick_5">
     <g id="line2d_10">
      <g>
       <use xlink:href="#m19aa6302d0" x="50.28125" y="92.256" style="stroke: #000000; stroke-width: 0.8"/>
      </g>
     </g>
     <g id="text_11">
      <!-- 40 -->
      <g transform="translate(30.55625 96.055219) scale(0.1 -0.1)">
       <use xlink:href="#DejaVuSans-34"/>
       <use xlink:href="#DejaVuSans-30" x="63.623047"/>
      </g>
     </g>
    </g>
    <g id="ytick_6">
     <g id="line2d_11">
      <g>
       <use xlink:href="#m19aa6302d0" x="50.28125" y="53.856" style="stroke: #000000; stroke-width: 0.8"/>
      </g>
     </g>
     <g id="text_12">
      <!-- 50 -->
      <g transform="translate(30.55625 57.655219) scale(0.1 -0.1)">
       <defs>
        <path id="DejaVuSans-35" d="M 691 4666 
L 3169 4666 
L 3169 4134 
L 1269 4134 
L 1269 2991 
Q 1406 3038 1543 3061 
Q 1681 3084 1819 3084 
Q 2600 3084 3056 2656 
Q 3513 2228 3513 1497 
Q 3513 744 3044 326 
Q 2575 -91 1722 -91 
Q 1428 -91 1123 -41 
Q 819 9 494 109 
L 494 744 
Q 775 591 1075 516 
Q 1375 441 1709 441 
Q 2250 441 2565 725 
Q 2881 1009 2881 1497 
Q 2881 1984 2565 2268 
Q 2250 2553 1709 2553 
Q 1456 2553 1204 2497 
Q 953 2441 691 2322 
L 691 4666 
z
" transform="scale(0.015625)"/>
       </defs>
       <use xlink:href="#DejaVuSans-35"/>
       <use xlink:href="#DejaVuSans-30" x="63.623047"/>
      </g>
     </g>
    </g>
    <g id="ytick_7">
     <g id="line2d_12">
      <g>
       <use xlink:href="#m19aa6302d0" x="50.28125" y="15.456" style="stroke: #000000; stroke-width: 0.8"/>
      </g>
     </g>
     <g id="text_13">
      <!-- 60 -->
      <g transform="translate(30.55625 19.255219) scale(0.1 -0.1)">
       <defs>
        <path id="DejaVuSans-36" d="M 2113 2584 
Q 1688 2584 1439 2293 
Q 1191 2003 1191 1497 
Q 1191 994 1439 701 
Q 1688 409 2113 409 
Q 2538 409 2786 701 
Q 3034 994 3034 1497 
Q 3034 2003 2786 2293 
Q 2538 2584 2113 2584 
z
M 3366 4563 
L 3366 3988 
Q 3128 4100 2886 4159 
Q 2644 4219 2406 4219 
Q 1781 4219 1451 3797 
Q 1122 3375 1075 2522 
Q 1259 2794 1537 2939 
Q 1816 3084 2150 3084 
Q 2853 3084 3261 2657 
Q 3669 2231 3669 1497 
Q 3669 778 3244 343 
Q 2819 -91 2113 -91 
Q 1303 -91 875 529 
Q 447 1150 447 2328 
Q 447 3434 972 4092 
Q 1497 4750 2381 4750 
Q 2619 4750 2861 4703 
Q 3103 4656 3366 4563 
z
" transform="scale(0.015625)"/>
       </defs>
       <use xlink:href="#DejaVuSans-36"/>
       <use xlink:href="#DejaVuSans-30" x="63.623047"/>
      </g>
     </g>
    </g>
    <g id="text_14">
     <!-- y -->
     <g transform="translate(22.396875 146.17475) rotate(-90) scale(0.2 -0.2)">
      <defs>
       <path id="DejaVuSans-79" d="M 2059 -325 
Q 1816 -950 1584 -1140 
Q 1353 -1331 966 -1331 
L 506 -1331 
L 506 -850 
L 844 -850 
Q 1081 -850 1212 -737 
Q 1344 -625 1503 -206 
L 1606 56 
L 191 3500 
L 800 3500 
L 1894 763 
L 2988 3500 
L 3597 3500 
L 2059 -325 
z
" transform="scale(0.015625)"/>
      </defs>
      <use xlink:href="#DejaVuSans-79"/>
     </g>
    </g>
   </g>
   <g id="patch_3">
    <path d="M 50.28125 273.312 
L 50.28125 7.2 
" style="fill: none; stroke: #000000; stroke-width: 0.8; stroke-linejoin: miter; stroke-linecap: square"/>
   </g>
   <g id="patch_4">
    <path d="M 407.40125 273.312 
L 407.40125 7.2 
" style="fill: none; stroke: #000000; stroke-width: 0.8; stroke-linejoin: miter; stroke-linecap: square"/>
   </g>
   <g id="patch_5">
    <path d="M 50.28125 273.312 
L 407.40125 273.312 
" style="fill: none; stroke: #000000; stroke-width: 0.8; stroke-linejoin: miter; stroke-linecap: square"/>
   </g>
   <g id="patch_6">
    <path d="M 50.28125 7.2 
L 407.40125 7.2 
" style="fill: none; stroke: #000000; stroke-width: 0.8; stroke-linejoin: miter; stroke-linecap: square"/>
   </g>
   <g id="line2d_13">
    <path d="M 66.513977 226.656 
L 69.793316 224.910545 
L 73.072655 223.165091 
L 76.351994 221.419636 
L 79.631333 219.674182 
L 82.910671 217.928727 
L 86.19001 216.183273 
L 89.469349 214.437818 
L 92.748688 212.692364 
L 96.028027 210.946909 
L 99.307366 209.201455 
L 102.586705 207.456 
L 105.866043 205.710545 
L 109.145382 203.965091 
L 112.424721 202.219636 
L 115.70406 200.474182 
L 118.983399 198.728727 
L 122.262738 196.983273 
L 125.542076 195.237818 
L 128.821415 193.492364 
L 132.100754 191.746909 
L 135.380093 190.001455 
L 138.659432 188.256 
L 141.938771 186.510545 
L 145.21811 184.765091 
L 148.497448 183.019636 
L 151.776787 181.274182 
L 155.056126 179.528727 
L 158.335465 177.783273 
L 161.614804 176.037818 
L 164.894143 174.292364 
L 168.173481 172.546909 
L 171.45282 170.801455 
L 174.732159 169.056 
L 178.011498 167.310545 
L 181.290837 165.565091 
L 184.570176 163.819636 
L 187.849514 162.074182 
L 191.128853 160.328727 
L 194.408192 158.583273 
L 197.687531 156.837818 
L 200.96687 155.092364 
L 204.246209 153.346909 
L 207.525548 151.601455 
L 210.804886 149.856 
L 214.084225 148.110545 
L 217.363564 146.365091 
L 220.642903 144.619636 
L 223.922242 142.874182 
L 227.201581 141.128727 
L 230.480919 139.383273 
L 233.760258 137.637818 
L 237.039597 135.892364 
L 240.318936 134.146909 
L 243.598275 132.401455 
L 246.877614 130.656 
L 250.156952 128.910545 
L 253.436291 127.165091 
L 256.71563 125.419636 
L 259.994969 123.674182 
L 263.274308 121.928727 
L 266.553647 120.183273 
L 269.832986 118.437818 
L 273.112324 116.692364 
L 276.391663 114.946909 
L 279.671002 113.201455 
L 282.950341 111.456 
L 286.22968 109.710545 
L 289.509019 107.965091 
L 292.788357 106.219636 
L 296.067696 104.474182 
L 299.347035 102.728727 
L 302.626374 100.983273 
L 305.905713 99.237818 
L 309.185052 97.492364 
L 312.46439 95.746909 
L 315.743729 94.001455 
L 319.023068 92.256 
L 322.302407 90.510545 
L 325.581746 88.765091 
L 328.861085 87.019636 
L 332.140424 85.274182 
L 335.419762 83.528727 
L 338.699101 81.783273 
L 341.97844 80.037818 
L 345.257779 78.292364 
L 348.537118 76.546909 
L 351.816457 74.801455 
L 355.095795 73.056 
L 358.375134 71.310545 
L 361.654473 69.565091 
L 364.933812 67.819636 
L 368.213151 66.074182 
L 371.49249 64.328727 
L 374.771829 62.583273 
L 378.051167 60.837818 
L 381.330506 59.092364 
L 384.609845 57.346909 
L 387.889184 55.601455 
L 391.168523 53.856 
" clip-path="url(#pe4dc3982cc)" style="fill: none; stroke: #000000; stroke-width: 3; stroke-linecap: square"/>
   </g>
   <g id="PathCollection_1">
    <defs>
     <path id="mfaff19b26f" d="M 0 3.535534 
C 0.937635 3.535534 1.836992 3.163008 2.5 2.5 
C 3.163008 1.836992 3.535534 0.937635 3.535534 0 
C 3.535534 -0.937635 3.163008 -1.836992 2.5 -2.5 
C 1.836992 -3.163008 0.937635 -3.535534 0 -3.535534 
C -0.937635 -3.535534 -1.836992 -3.163008 -2.5 -2.5 
C -3.163008 -1.836992 -3.535534 -0.937635 -3.535534 0 
C -3.535534 0.937635 -3.163008 1.836992 -2.5 2.5 
C -1.836992 3.163008 -0.937635 3.535534 0 3.535534 
z
" style="stroke: #000000"/>
    </defs>
    <g clip-path="url(#pe4dc3982cc)">
     <use xlink:href="#mfaff19b26f" x="77.763102" y="228.636494" style="fill: #0000ff; stroke: #000000"/>
     <use xlink:href="#mfaff19b26f" x="141.480571" y="191.325026" style="fill: #0000ff; stroke: #000000"/>
     <use xlink:href="#mfaff19b26f" x="133.906746" y="198.701885" style="fill: #0000ff; stroke: #000000"/>
     <use xlink:href="#mfaff19b26f" x="190.523325" y="170.387794" style="fill: #0000ff; stroke: #000000"/>
     <use xlink:href="#mfaff19b26f" x="67.036746" y="234.110507" style="fill: #0000ff; stroke: #000000"/>
     <use xlink:href="#mfaff19b26f" x="381.072712" y="59.375473" style="fill: #0000ff; stroke: #000000"/>
     <use xlink:href="#mfaff19b26f" x="82.522897" y="231.006539" style="fill: #0000ff; stroke: #000000"/>
     <use xlink:href="#mfaff19b26f" x="156.027721" y="176.311119" style="fill: #0000ff; stroke: #000000"/>
     <use xlink:href="#mfaff19b26f" x="79.89574" y="200.412528" style="fill: #0000ff; stroke: #000000"/>
     <use xlink:href="#mfaff19b26f" x="111.559473" y="194.131823" style="fill: #0000ff; stroke: #000000"/>
     <use xlink:href="#mfaff19b26f" x="72.676462" y="225.585914" style="fill: #0000ff; stroke: #000000"/>
     <use xlink:href="#mfaff19b26f" x="336.7553" y="93.043362" style="fill: #0000ff; stroke: #000000"/>
     <use xlink:href="#mfaff19b26f" x="116.980798" y="208.401891" style="fill: #0000ff; stroke: #000000"/>
     <use xlink:href="#mfaff19b26f" x="121.794897" y="177.735208" style="fill: #0000ff; stroke: #000000"/>
     <use xlink:href="#mfaff19b26f" x="67.030373" y="225.795839" style="fill: #0000ff; stroke: #000000"/>
     <use xlink:href="#mfaff19b26f" x="193.765381" y="166.263604" style="fill: #0000ff; stroke: #000000"/>
     <use xlink:href="#mfaff19b26f" x="106.182085" y="203.342983" style="fill: #0000ff; stroke: #000000"/>
     <use xlink:href="#mfaff19b26f" x="168.278091" y="148.29629" style="fill: #0000ff; stroke: #000000"/>
     <use xlink:href="#mfaff19b26f" x="92.98716" y="211.181204" style="fill: #0000ff; stroke: #000000"/>
     <use xlink:href="#mfaff19b26f" x="71.536546" y="216.872517" style="fill: #0000ff; stroke: #000000"/>
     <use xlink:href="#mfaff19b26f" x="193.853617" y="155.420488" style="fill: #0000ff; stroke: #000000"/>
     <use xlink:href="#mfaff19b26f" x="67.118411" y="230.392204" style="fill: #0000ff; stroke: #000000"/>
     <use xlink:href="#mfaff19b26f" x="66.793451" y="239.669057" style="fill: #0000ff; stroke: #000000"/>
     <use xlink:href="#mfaff19b26f" x="73.65672" y="226.878646" style="fill: #0000ff; stroke: #000000"/>
     <use xlink:href="#mfaff19b26f" x="66.79764" y="228.91148" style="fill: #0000ff; stroke: #000000"/>
     <use xlink:href="#mfaff19b26f" x="148.325177" y="176.35343" style="fill: #0000ff; stroke: #000000"/>
     <use xlink:href="#mfaff19b26f" x="102.900753" y="197.623757" style="fill: #0000ff; stroke: #000000"/>
     <use xlink:href="#mfaff19b26f" x="174.651451" y="158.372661" style="fill: #0000ff; stroke: #000000"/>
     <use xlink:href="#mfaff19b26f" x="112.904664" y="198.674217" style="fill: #0000ff; stroke: #000000"/>
     <use xlink:href="#mfaff19b26f" x="72.879111" y="213.07128" style="fill: #0000ff; stroke: #000000"/>
    </g>
   </g>
   <g id="PathCollection_2">
    <defs>
     <path id="m846e612291" d="M 0 3.535534 
C 0.937635 3.535534 1.836992 3.163008 2.5 2.5 
C 3.163008 1.836992 3.535534 0.937635 3.535534 0 
C 3.535534 -0.937635 3.163008 -1.836992 2.5 -2.5 
C 1.836992 -3.163008 0.937635 -3.535534 0 -3.535534 
C -0.937635 -3.535534 -1.836992 -3.163008 -2.5 -2.5 
C -3.163008 -1.836992 -3.535534 -0.937635 -3.535534 0 
C -3.535534 0.937635 -3.163008 1.836992 -2.5 2.5 
C -1.836992 3.163008 -0.937635 3.535534 0 3.535534 
z
" style="stroke: #000000"/>
    </defs>
    <g clip-path="url(#pe4dc3982cc)">
     <use xlink:href="#m846e612291" x="286.990064" y="87.791557" style="fill: #ffa500; stroke: #000000"/>
     <use xlink:href="#m846e612291" x="123.088717" y="207.80188" style="fill: #ffa500; stroke: #000000"/>
     <use xlink:href="#m846e612291" x="179.505418" y="155.570376" style="fill: #ffa500; stroke: #000000"/>
     <use xlink:href="#m846e612291" x="369.622679" y="67.067584" style="fill: #ffa500; stroke: #000000"/>
    </g>
   </g>
  </g>
 </g>
 <defs>
  <clipPath id="pe4dc3982cc">
   <rect x="50.28125" y="7.2" width="357.12" height="266.112"/>
  </clipPath>
 </defs>
</svg>
