<?xml version="1.0" encoding="utf-8" standalone="no"?>
<!DOCTYPE svg PUBLIC "-//W3C//DTD SVG 1.1//EN"
  "http://www.w3.org/Graphics/SVG/1.1/DTD/svg11.dtd">
<svg height="316.614782pt" version="1.1" viewBox="0 0 410.811562 316.614782" width="410.811562pt" xmlns="http://www.w3.org/2000/svg" xmlns:xlink="http://www.w3.org/1999/xlink">
 <metadata>
  <rdf:RDF xmlns:cc="http://creativecommons.org/ns#" xmlns:dc="http://purl.org/dc/elements/1.1/" xmlns:rdf="http://www.w3.org/1999/02/22-rdf-syntax-ns#">
   <cc:Work>
    <dc:type rdf:resource="http://purl.org/dc/dcmitype/StillImage"/>
    <dc:date>2023-05-03T10:42:33.590255</dc:date>
    <dc:format>image/svg+xml</dc:format>
    <dc:creator>
     <cc:Agent>
      <dc:title>Matplotlib v3.4.3, https://matplotlib.org/</dc:title>
     </cc:Agent>
    </dc:creator>
   </cc:Work>
  </rdf:RDF>
 </metadata>
 <defs>
  <style type="text/css">*{stroke-linecap:butt;stroke-linejoin:round;}</style>
 </defs>
 <g id="figure_1">
  <g id="patch_1">
   <path d="M 0 316.614782 
L 410.811562 316.614782 
L 410.811562 0 
L 0 0 
z
" style="fill:#ffffff;"/>
  </g>
  <g id="axes_1">
   <g id="patch_2">
    <path d="M 46.491563 275.187282 
L 403.611563 275.187282 
L 403.611563 9.075282 
L 46.491563 9.075282 
z
" style="fill:#ffffff;"/>
   </g>
   <g id="PathCollection_1">
    <defs>
     <path d="M -2.236068 2.236068 
L 2.236068 -2.236068 
M -2.236068 -2.236068 
L 2.236068 2.236068 
" id="m6cacd49246" style="stroke:#000000;stroke-width:1.5;"/>
    </defs>
    <g clip-path="url(#pc29ee1df56)">
     <use style="stroke:#000000;stroke-width:1.5;" x="334.14593" xlink:href="#m6cacd49246" y="84.436764"/>
     <use style="stroke:#000000;stroke-width:1.5;" x="179.549818" xlink:href="#m6cacd49246" y="183.088284"/>
     <use style="stroke:#000000;stroke-width:1.5;" x="185.328564" xlink:href="#m6cacd49246" y="185.998966"/>
     <use style="stroke:#000000;stroke-width:1.5;" x="147.663249" xlink:href="#m6cacd49246" y="215.463064"/>
     <use style="stroke:#000000;stroke-width:1.5;" x="281.675678" xlink:href="#m6cacd49246" y="119.800975"/>
     <use style="stroke:#000000;stroke-width:1.5;" x="62.72429" xlink:href="#m6cacd49246" y="253.829788"/>
     <use style="stroke:#000000;stroke-width:1.5;" x="342.474548" xlink:href="#m6cacd49246" y="88.799057"/>
     <use style="stroke:#000000;stroke-width:1.5;" x="169.217344" xlink:href="#m6cacd49246" y="175.241398"/>
     <use style="stroke:#000000;stroke-width:1.5;" x="243.901704" xlink:href="#m6cacd49246" y="90.556871"/>
     <use style="stroke:#000000;stroke-width:1.5;" x="204.603898" xlink:href="#m6cacd49246" y="139.078001"/>
     <use style="stroke:#000000;stroke-width:1.5;" x="322.929412" xlink:href="#m6cacd49246" y="80.295669"/>
     <use style="stroke:#000000;stroke-width:1.5;" x="79.413687" xlink:href="#m6cacd49246" y="263.091282"/>
     <use style="stroke:#000000;stroke-width:1.5;" x="199.5537" xlink:href="#m6cacd49246" y="177.697346"/>
     <use style="stroke:#000000;stroke-width:1.5;" x="195.292327" xlink:href="#m6cacd49246" y="122.994422"/>
     <use style="stroke:#000000;stroke-width:1.5;" x="300.229258" xlink:href="#m6cacd49246" y="90.073537"/>
     <use style="stroke:#000000;stroke-width:1.5;" x="145.801913" xlink:href="#m6cacd49246" y="211.81757"/>
     <use style="stroke:#000000;stroke-width:1.5;" x="209.923405" xlink:href="#m6cacd49246" y="148.45937"/>
     <use style="stroke:#000000;stroke-width:1.5;" x="161.152473" xlink:href="#m6cacd49246" y="136.687226"/>
     <use style="stroke:#000000;stroke-width:1.5;" x="224.762985" xlink:href="#m6cacd49246" y="139.992346"/>
     <use style="stroke:#000000;stroke-width:1.5;" x="262.138245" xlink:href="#m6cacd49246" y="102.720277"/>
     <use style="stroke:#000000;stroke-width:1.5;" x="145.751588" xlink:href="#m6cacd49246" y="189.719729"/>
     <use style="stroke:#000000;stroke-width:1.5;" x="300.986597" xlink:href="#m6cacd49246" y="99.074798"/>
     <use style="stroke:#000000;stroke-width:1.5;" x="284.177248" xlink:href="#m6cacd49246" y="129.221583"/>
     <use style="stroke:#000000;stroke-width:1.5;" x="256.585146" xlink:href="#m6cacd49246" y="129.340072"/>
     <use style="stroke:#000000;stroke-width:1.5;" x="284.126449" xlink:href="#m6cacd49246" y="107.207715"/>
     <use style="stroke:#000000;stroke-width:1.5;" x="174.573969" xlink:href="#m6cacd49246" y="163.264116"/>
     <use style="stroke:#000000;stroke-width:1.5;" x="213.348285" xlink:href="#m6cacd49246" y="130.814733"/>
     <use style="stroke:#000000;stroke-width:1.5;" x="157.148712" xlink:href="#m6cacd49246" y="167.033349"/>
     <use style="stroke:#000000;stroke-width:1.5;" x="203.32365" xlink:href="#m6cacd49246" y="150.732372"/>
     <use style="stroke:#000000;stroke-width:1.5;" x="258.511365" xlink:href="#m6cacd49246" y="98.870412"/>
    </g>
   </g>
   <g id="PathCollection_2">
    <path clip-path="url(#pc29ee1df56)" d="M 334.14593 86.403244 
C 334.667447 86.403244 335.167674 86.196043 335.536442 85.827275 
C 335.90521 85.458507 336.11241 84.95828 336.11241 84.436764 
C 336.11241 83.915247 335.90521 83.41502 335.536442 83.046252 
C 335.167674 82.677484 334.667447 82.470283 334.14593 82.470283 
C 333.624413 82.470283 333.124186 82.677484 332.755418 83.046252 
C 332.38665 83.41502 332.179449 83.915247 332.179449 84.436764 
C 332.179449 84.95828 332.38665 85.458507 332.755418 85.827275 
C 333.124186 86.196043 333.624413 86.403244 334.14593 86.403244 
z
" style="fill:#00ffff;fill-opacity:0.5;stroke:#00ffff;stroke-opacity:0.5;"/>
    <path clip-path="url(#pc29ee1df56)" d="M 179.549818 185.054764 
C 180.071335 185.054764 180.571562 184.847563 180.94033 184.478795 
C 181.309098 184.110027 181.516298 183.6098 181.516298 183.088284 
C 181.516298 182.566767 181.309098 182.06654 180.94033 181.697772 
C 180.571562 181.329004 180.071335 181.121803 179.549818 181.121803 
C 179.028301 181.121803 178.528074 181.329004 178.159306 181.697772 
C 177.790538 182.06654 177.583337 182.566767 177.583337 183.088284 
C 177.583337 183.6098 177.790538 184.110027 178.159306 184.478795 
C 178.528074 184.847563 179.028301 185.054764 179.549818 185.054764 
z
" style="fill:#00ffff;fill-opacity:0.5;stroke:#00ffff;stroke-opacity:0.5;"/>
    <path clip-path="url(#pc29ee1df56)" d="M 185.328564 187.965447 
C 185.85008 187.965447 186.350307 187.758246 186.719075 187.389478 
C 187.087843 187.02071 187.295044 186.520483 187.295044 185.998966 
C 187.295044 185.47745 187.087843 184.977223 186.719075 184.608455 
C 186.350307 184.239687 185.85008 184.032486 185.328564 184.032486 
C 184.807047 184.032486 184.30682 184.239687 183.938052 184.608455 
C 183.569284 184.977223 183.362083 185.47745 183.362083 185.998966 
C 183.362083 186.520483 183.569284 187.02071 183.938052 187.389478 
C 184.30682 187.758246 184.807047 187.965447 185.328564 187.965447 
z
" style="fill:#00ffff;fill-opacity:0.5;stroke:#00ffff;stroke-opacity:0.5;"/>
    <path clip-path="url(#pc29ee1df56)" d="M 147.663249 217.429545 
C 148.184765 217.429545 148.684992 217.222344 149.05376 216.853576 
C 149.422528 216.484808 149.629729 215.984581 149.629729 215.463064 
C 149.629729 214.941548 149.422528 214.441321 149.05376 214.072553 
C 148.684992 213.703785 148.184765 213.496584 147.663249 213.496584 
C 147.141732 213.496584 146.641505 213.703785 146.272737 214.072553 
C 145.903969 214.441321 145.696768 214.941548 145.696768 215.463064 
C 145.696768 215.984581 145.903969 216.484808 146.272737 216.853576 
C 146.641505 217.222344 147.141732 217.429545 147.663249 217.429545 
z
" style="fill:#00ffff;fill-opacity:0.5;stroke:#00ffff;stroke-opacity:0.5;"/>
    <path clip-path="url(#pc29ee1df56)" d="M 281.675678 122.165988 
C 282.302887 122.165988 282.904492 121.916795 283.347995 121.473291 
C 283.791499 121.029788 284.040691 120.428183 284.040691 119.800975 
C 284.040691 119.173766 283.791499 118.572161 283.347995 118.128658 
C 282.904492 117.685154 282.302887 117.435961 281.675678 117.435961 
C 281.048469 117.435961 280.446865 117.685154 280.003361 118.128658 
C 279.559858 118.572161 279.310665 119.173766 279.310665 119.800975 
C 279.310665 120.428183 279.559858 121.029788 280.003361 121.473291 
C 280.446865 121.916795 281.048469 122.165988 281.675678 122.165988 
z
" style="fill:#00ffff;fill-opacity:0.5;stroke:#00ffff;stroke-opacity:0.5;"/>
    <path clip-path="url(#pc29ee1df56)" d="M 62.72429 255.796268 
C 63.245806 255.796268 63.746033 255.589067 64.114801 255.220299 
C 64.483569 254.851531 64.69077 254.351304 64.69077 253.829788 
C 64.69077 253.308271 64.483569 252.808044 64.114801 252.439276 
C 63.746033 252.070508 63.245806 251.863307 62.72429 251.863307 
C 62.202773 251.863307 61.702546 252.070508 61.333778 252.439276 
C 60.96501 252.808044 60.757809 253.308271 60.757809 253.829788 
C 60.757809 254.351304 60.96501 254.851531 61.333778 255.220299 
C 61.702546 255.589067 62.202773 255.796268 62.72429 255.796268 
z
" style="fill:#00ffff;fill-opacity:0.5;stroke:#00ffff;stroke-opacity:0.5;"/>
    <path clip-path="url(#pc29ee1df56)" d="M 342.474548 91.961335 
C 343.313194 91.961335 344.117604 91.628137 344.710616 91.035125 
C 345.303628 90.442113 345.636825 89.637703 345.636825 88.799057 
C 345.636825 87.960411 345.303628 87.156001 344.710616 86.562989 
C 344.117604 85.969977 343.313194 85.636779 342.474548 85.636779 
C 341.635902 85.636779 340.831492 85.969977 340.23848 86.562989 
C 339.645468 87.156001 339.31227 87.960411 339.31227 88.799057 
C 339.31227 89.637703 339.645468 90.442113 340.23848 91.035125 
C 340.831492 91.628137 341.635902 91.961335 342.474548 91.961335 
z
" style="fill:#00ffff;fill-opacity:0.5;stroke:#00ffff;stroke-opacity:0.5;"/>
    <path clip-path="url(#pc29ee1df56)" d="M 169.217344 177.207878 
C 169.73886 177.207878 170.239087 177.000677 170.607855 176.631909 
C 170.976623 176.263141 171.183824 175.762914 171.183824 175.241398 
C 171.183824 174.719881 170.976623 174.219654 170.607855 173.850886 
C 170.239087 173.482118 169.73886 173.274917 169.217344 173.274917 
C 168.695827 173.274917 168.1956 173.482118 167.826832 173.850886 
C 167.458064 174.219654 167.250863 174.719881 167.250863 175.241398 
C 167.250863 175.762914 167.458064 176.263141 167.826832 176.631909 
C 168.1956 177.000677 168.695827 177.207878 169.217344 177.207878 
z
" style="fill:#00ffff;fill-opacity:0.5;stroke:#00ffff;stroke-opacity:0.5;"/>
    <path clip-path="url(#pc29ee1df56)" d="M 243.901704 92.523352 
C 244.423221 92.523352 244.923448 92.316151 245.292216 91.947383 
C 245.660984 91.578615 245.868185 91.078388 245.868185 90.556871 
C 245.868185 90.035354 245.660984 89.535127 245.292216 89.166359 
C 244.923448 88.797591 244.423221 88.590391 243.901704 88.590391 
C 243.380187 88.590391 242.87996 88.797591 242.511192 89.166359 
C 242.142424 89.535127 241.935224 90.035354 241.935224 90.556871 
C 241.935224 91.078388 242.142424 91.578615 242.511192 91.947383 
C 242.87996 92.316151 243.380187 92.523352 243.901704 92.523352 
z
" style="fill:#00ffff;fill-opacity:0.5;stroke:#00ffff;stroke-opacity:0.5;"/>
    <path clip-path="url(#pc29ee1df56)" d="M 204.603898 141.043449 
C 205.125141 141.043449 205.625105 140.836357 205.993679 140.467783 
C 206.362254 140.099209 206.569346 139.599244 206.569346 139.078001 
C 206.569346 138.556759 206.362254 138.056794 205.993679 137.68822 
C 205.625105 137.319645 205.125141 137.112553 204.603898 137.112553 
C 204.082655 137.112553 203.582691 137.319645 203.214116 137.68822 
C 202.845542 138.056794 202.63845 138.556759 202.63845 139.078001 
C 202.63845 139.599244 202.845542 140.099209 203.214116 140.467783 
C 203.582691 140.836357 204.082655 141.043449 204.603898 141.043449 
z
" style="fill:#00ffff;fill-opacity:0.5;stroke:#00ffff;stroke-opacity:0.5;"/>
    <path clip-path="url(#pc29ee1df56)" d="M 322.929412 83.18243 
C 323.69499 83.18243 324.429315 82.878263 324.97066 82.336917 
C 325.512006 81.795572 325.816173 81.061247 325.816173 80.295669 
C 325.816173 79.530091 325.512006 78.795766 324.97066 78.254421 
C 324.429315 77.713076 323.69499 77.408908 322.929412 77.408908 
C 322.163834 77.408908 321.429509 77.713076 320.888164 78.254421 
C 320.346819 78.795766 320.042651 79.530091 320.042651 80.295669 
C 320.042651 81.061247 320.346819 81.795572 320.888164 82.336917 
C 321.429509 82.878263 322.163834 83.18243 322.929412 83.18243 
z
" style="fill:#00ffff;fill-opacity:0.5;stroke:#00ffff;stroke-opacity:0.5;"/>
    <path clip-path="url(#pc29ee1df56)" d="M 79.413687 265.057763 
C 79.935203 265.057763 80.43543 264.850562 80.804198 264.481794 
C 81.172966 264.113026 81.380167 263.612799 81.380167 263.091282 
C 81.380167 262.569765 81.172966 262.069539 80.804198 261.700771 
C 80.43543 261.332003 79.935203 261.124802 79.413687 261.124802 
C 78.89217 261.124802 78.391943 261.332003 78.023175 261.700771 
C 77.654407 262.069539 77.447206 262.569765 77.447206 263.091282 
C 77.447206 263.612799 77.654407 264.113026 78.023175 264.481794 
C 78.391943 264.850562 78.89217 265.057763 79.413687 265.057763 
z
" style="fill:#00ffff;fill-opacity:0.5;stroke:#00ffff;stroke-opacity:0.5;"/>
    <path clip-path="url(#pc29ee1df56)" d="M 199.5537 179.663827 
C 200.075217 179.663827 200.575444 179.456626 200.944212 179.087858 
C 201.31298 178.71909 201.520181 178.218863 201.520181 177.697346 
C 201.520181 177.175829 201.31298 176.675603 200.944212 176.306835 
C 200.575444 175.938066 200.075217 175.730866 199.5537 175.730866 
C 199.032184 175.730866 198.531957 175.938066 198.163189 176.306835 
C 197.794421 176.675603 197.58722 177.175829 197.58722 177.697346 
C 197.58722 178.218863 197.794421 178.71909 198.163189 179.087858 
C 198.531957 179.456626 199.032184 179.663827 199.5537 179.663827 
z
" style="fill:#00ffff;fill-opacity:0.5;stroke:#00ffff;stroke-opacity:0.5;"/>
    <path clip-path="url(#pc29ee1df56)" d="M 195.292327 124.960903 
C 195.813844 124.960903 196.314071 124.753702 196.682839 124.384934 
C 197.051607 124.016166 197.258808 123.515939 197.258808 122.994422 
C 197.258808 122.472906 197.051607 121.972679 196.682839 121.603911 
C 196.314071 121.235143 195.813844 121.027942 195.292327 121.027942 
C 194.77081 121.027942 194.270584 121.235143 193.901816 121.603911 
C 193.533048 121.972679 193.325847 122.472906 193.325847 122.994422 
C 193.325847 123.515939 193.533048 124.016166 193.901816 124.384934 
C 194.270584 124.753702 194.77081 124.960903 195.292327 124.960903 
z
" style="fill:#00ffff;fill-opacity:0.5;stroke:#00ffff;stroke-opacity:0.5;"/>
    <path clip-path="url(#pc29ee1df56)" d="M 300.229258 91.956458 
C 300.728614 91.956458 301.207586 91.758061 301.560684 91.404963 
C 301.913782 91.051865 302.112179 90.572894 302.112179 90.073537 
C 302.112179 89.574181 301.913782 89.09521 301.560684 88.742111 
C 301.207586 88.389013 300.728614 88.190617 300.229258 88.190617 
C 299.729902 88.190617 299.250931 88.389013 298.897832 88.742111 
C 298.544734 89.09521 298.346338 89.574181 298.346338 90.073537 
C 298.346338 90.572894 298.544734 91.051865 298.897832 91.404963 
C 299.250931 91.758061 299.729902 91.956458 300.229258 91.956458 
z
" style="fill:#00ffff;fill-opacity:0.5;stroke:#00ffff;stroke-opacity:0.5;"/>
    <path clip-path="url(#pc29ee1df56)" d="M 145.801913 213.211742 
C 146.171652 213.211742 146.526297 213.064843 146.787742 212.803398 
C 147.049186 212.541953 147.196085 212.187308 147.196085 211.81757 
C 147.196085 211.447831 147.049186 211.093186 146.787742 210.831741 
C 146.526297 210.570296 146.171652 210.423397 145.801913 210.423397 
C 145.432174 210.423397 145.077529 210.570296 144.816084 210.831741 
C 144.554639 211.093186 144.40774 211.447831 144.40774 211.81757 
C 144.40774 212.187308 144.554639 212.541953 144.816084 212.803398 
C 145.077529 213.064843 145.432174 213.211742 145.801913 213.211742 
z
" style="fill:#00ffff;fill-opacity:0.5;stroke:#00ffff;stroke-opacity:0.5;"/>
    <path clip-path="url(#pc29ee1df56)" d="M 209.923405 150.425851 
C 210.444922 150.425851 210.945149 150.21865 211.313917 149.849882 
C 211.682685 149.481114 211.889886 148.980887 211.889886 148.45937 
C 211.889886 147.937854 211.682685 147.437627 211.313917 147.068859 
C 210.945149 146.700091 210.444922 146.49289 209.923405 146.49289 
C 209.401889 146.49289 208.901662 146.700091 208.532894 147.068859 
C 208.164126 147.437627 207.956925 147.937854 207.956925 148.45937 
C 207.956925 148.980887 208.164126 149.481114 208.532894 149.849882 
C 208.901662 150.21865 209.401889 150.425851 209.923405 150.425851 
z
" style="fill:#00ffff;fill-opacity:0.5;stroke:#00ffff;stroke-opacity:0.5;"/>
    <path clip-path="url(#pc29ee1df56)" d="M 161.152473 138.653707 
C 161.67399 138.653707 162.174217 138.446506 162.542985 138.077738 
C 162.911753 137.70897 163.118954 137.208743 163.118954 136.687226 
C 163.118954 136.16571 162.911753 135.665483 162.542985 135.296715 
C 162.174217 134.927947 161.67399 134.720746 161.152473 134.720746 
C 160.630956 134.720746 160.13073 134.927947 159.761961 135.296715 
C 159.393193 135.665483 159.185993 136.16571 159.185993 136.687226 
C 159.185993 137.208743 159.393193 137.70897 159.761961 138.077738 
C 160.13073 138.446506 160.630956 138.653707 161.152473 138.653707 
z
" style="fill:#00ffff;fill-opacity:0.5;stroke:#00ffff;stroke-opacity:0.5;"/>
    <path clip-path="url(#pc29ee1df56)" d="M 224.762985 141.958826 
C 225.284502 141.958826 225.784729 141.751626 226.153497 141.382858 
C 226.522265 141.014089 226.729466 140.513863 226.729466 139.992346 
C 226.729466 139.470829 226.522265 138.970602 226.153497 138.601834 
C 225.784729 138.233066 225.284502 138.025865 224.762985 138.025865 
C 224.241469 138.025865 223.741242 138.233066 223.372474 138.601834 
C 223.003706 138.970602 222.796505 139.470829 222.796505 139.992346 
C 222.796505 140.513863 223.003706 141.014089 223.372474 141.382858 
C 223.741242 141.751626 224.241469 141.958826 224.762985 141.958826 
z
" style="fill:#00ffff;fill-opacity:0.5;stroke:#00ffff;stroke-opacity:0.5;"/>
    <path clip-path="url(#pc29ee1df56)" d="M 262.138245 104.688511 
C 262.660227 104.688511 263.1609 104.481125 263.529996 104.112028 
C 263.899093 103.742932 264.106478 103.242259 264.106478 102.720277 
C 264.106478 102.198296 263.899093 101.697623 263.529996 101.328526 
C 263.1609 100.95943 262.660227 100.752044 262.138245 100.752044 
C 261.616264 100.752044 261.115591 100.95943 260.746494 101.328526 
C 260.377398 101.697623 260.170012 102.198296 260.170012 102.720277 
C 260.170012 103.242259 260.377398 103.742932 260.746494 104.112028 
C 261.115591 104.481125 261.616264 104.688511 262.138245 104.688511 
z
" style="fill:#00ffff;fill-opacity:0.5;stroke:#00ffff;stroke-opacity:0.5;"/>
    <path clip-path="url(#pc29ee1df56)" d="M 145.751588 191.113938 
C 146.121336 191.113938 146.475991 190.967035 146.737442 190.705584 
C 146.998894 190.444132 147.145797 190.089477 147.145797 189.719729 
C 147.145797 189.34998 146.998894 188.995326 146.737442 188.733874 
C 146.475991 188.472423 146.121336 188.32552 145.751588 188.32552 
C 145.381839 188.32552 145.027185 188.472423 144.765733 188.733874 
C 144.504282 188.995326 144.357379 189.34998 144.357379 189.719729 
C 144.357379 190.089477 144.504282 190.444132 144.765733 190.705584 
C 145.027185 190.967035 145.381839 191.113938 145.751588 191.113938 
z
" style="fill:#00ffff;fill-opacity:0.5;stroke:#00ffff;stroke-opacity:0.5;"/>
    <path clip-path="url(#pc29ee1df56)" d="M 300.986597 100.957719 
C 301.485954 100.957719 301.964925 100.759322 302.318023 100.406224 
C 302.671121 100.053126 302.869518 99.574155 302.869518 99.074798 
C 302.869518 98.575442 302.671121 98.096471 302.318023 97.743372 
C 301.964925 97.390274 301.485954 97.191878 300.986597 97.191878 
C 300.487241 97.191878 300.00827 97.390274 299.655171 97.743372 
C 299.302073 98.096471 299.103677 98.575442 299.103677 99.074798 
C 299.103677 99.574155 299.302073 100.053126 299.655171 100.406224 
C 300.00827 100.759322 300.487241 100.957719 300.986597 100.957719 
z
" style="fill:#00ffff;fill-opacity:0.5;stroke:#00ffff;stroke-opacity:0.5;"/>
    <path clip-path="url(#pc29ee1df56)" d="M 284.177248 130.611877 
C 284.545959 130.611877 284.899617 130.465387 285.160335 130.204669 
C 285.421053 129.943952 285.567543 129.590293 285.567543 129.221583 
C 285.567543 128.852872 285.421053 128.499214 285.160335 128.238496 
C 284.899617 127.977778 284.545959 127.831288 284.177248 127.831288 
C 283.808538 127.831288 283.454879 127.977778 283.194162 128.238496 
C 282.933444 128.499214 282.786954 128.852872 282.786954 129.221583 
C 282.786954 129.590293 282.933444 129.943952 283.194162 130.204669 
C 283.454879 130.465387 283.808538 130.611877 284.177248 130.611877 
z
" style="fill:#00ffff;fill-opacity:0.5;stroke:#00ffff;stroke-opacity:0.5;"/>
    <path clip-path="url(#pc29ee1df56)" d="M 256.585146 131.306552 
C 257.106663 131.306552 257.60689 131.099351 257.975658 130.730583 
C 258.344426 130.361815 258.551626 129.861588 258.551626 129.340072 
C 258.551626 128.818555 258.344426 128.318328 257.975658 127.94956 
C 257.60689 127.580792 257.106663 127.373591 256.585146 127.373591 
C 256.063629 127.373591 255.563402 127.580792 255.194634 127.94956 
C 254.825866 128.318328 254.618666 128.818555 254.618666 129.340072 
C 254.618666 129.861588 254.825866 130.361815 255.194634 130.730583 
C 255.563402 131.099351 256.063629 131.306552 256.585146 131.306552 
z
" style="fill:#00ffff;fill-opacity:0.5;stroke:#00ffff;stroke-opacity:0.5;"/>
    <path clip-path="url(#pc29ee1df56)" d="M 284.126449 108.606059 
C 284.497294 108.606059 284.853 108.45872 285.115227 108.196493 
C 285.377455 107.934266 285.524793 107.57856 285.524793 107.207715 
C 285.524793 106.836869 285.377455 106.481163 285.115227 106.218936 
C 284.853 105.956709 284.497294 105.809371 284.126449 105.809371 
C 283.755604 105.809371 283.399897 105.956709 283.13767 106.218936 
C 282.875443 106.481163 282.728105 106.836869 282.728105 107.207715 
C 282.728105 107.57856 282.875443 107.934266 283.13767 108.196493 
C 283.399897 108.45872 283.755604 108.606059 284.126449 108.606059 
z
" style="fill:#00ffff;fill-opacity:0.5;stroke:#00ffff;stroke-opacity:0.5;"/>
    <path clip-path="url(#pc29ee1df56)" d="M 174.573969 165.230596 
C 175.095485 165.230596 175.595712 165.023396 175.96448 164.654628 
C 176.333248 164.28586 176.540449 163.785633 176.540449 163.264116 
C 176.540449 162.742599 176.333248 162.242372 175.96448 161.873604 
C 175.595712 161.504836 175.095485 161.297635 174.573969 161.297635 
C 174.052452 161.297635 173.552225 161.504836 173.183457 161.873604 
C 172.814689 162.242372 172.607488 162.742599 172.607488 163.264116 
C 172.607488 163.785633 172.814689 164.28586 173.183457 164.654628 
C 173.552225 165.023396 174.052452 165.230596 174.573969 165.230596 
z
" style="fill:#00ffff;fill-opacity:0.5;stroke:#00ffff;stroke-opacity:0.5;"/>
    <path clip-path="url(#pc29ee1df56)" d="M 213.348285 132.781213 
C 213.869802 132.781213 214.370029 132.574012 214.738797 132.205244 
C 215.107565 131.836476 215.314765 131.336249 215.314765 130.814733 
C 215.314765 130.293216 215.107565 129.792989 214.738797 129.424221 
C 214.370029 129.055453 213.869802 128.848252 213.348285 128.848252 
C 212.826768 128.848252 212.326541 129.055453 211.957773 129.424221 
C 211.589005 129.792989 211.381804 130.293216 211.381804 130.814733 
C 211.381804 131.336249 211.589005 131.836476 211.957773 132.205244 
C 212.326541 132.574012 212.826768 132.781213 213.348285 132.781213 
z
" style="fill:#00ffff;fill-opacity:0.5;stroke:#00ffff;stroke-opacity:0.5;"/>
    <path clip-path="url(#pc29ee1df56)" d="M 157.148712 168.999829 
C 157.670229 168.999829 158.170455 168.792628 158.539223 168.42386 
C 158.907992 168.055092 159.115192 167.554865 159.115192 167.033349 
C 159.115192 166.511832 158.907992 166.011605 158.539223 165.642837 
C 158.170455 165.274069 157.670229 165.066868 157.148712 165.066868 
C 156.627195 165.066868 156.126968 165.274069 155.7582 165.642837 
C 155.389432 166.011605 155.182231 166.511832 155.182231 167.033349 
C 155.182231 167.554865 155.389432 168.055092 155.7582 168.42386 
C 156.126968 168.792628 156.627195 168.999829 157.148712 168.999829 
z
" style="fill:#00ffff;fill-opacity:0.5;stroke:#00ffff;stroke-opacity:0.5;"/>
    <path clip-path="url(#pc29ee1df56)" d="M 203.32365 152.69782 
C 203.844893 152.69782 204.344857 152.490728 204.713431 152.122154 
C 205.082006 151.753579 205.289098 151.253615 205.289098 150.732372 
C 205.289098 150.211129 205.082006 149.711165 204.713431 149.342591 
C 204.344857 148.974016 203.844893 148.766924 203.32365 148.766924 
C 202.802407 148.766924 202.302442 148.974016 201.933868 149.342591 
C 201.565294 149.711165 201.358202 150.211129 201.358202 150.732372 
C 201.358202 151.253615 201.565294 151.753579 201.933868 152.122154 
C 202.302442 152.490728 202.802407 152.69782 203.32365 152.69782 
z
" style="fill:#00ffff;fill-opacity:0.5;stroke:#00ffff;stroke-opacity:0.5;"/>
    <path clip-path="url(#pc29ee1df56)" d="M 258.511365 100.836892 
C 259.032882 100.836892 259.533109 100.629692 259.901877 100.260924 
C 260.270645 99.892156 260.477846 99.391929 260.477846 98.870412 
C 260.477846 98.348895 260.270645 97.848668 259.901877 97.4799 
C 259.533109 97.111132 259.032882 96.903932 258.511365 96.903932 
C 257.989849 96.903932 257.489622 97.111132 257.120854 97.4799 
C 256.752086 97.848668 256.544885 98.348895 256.544885 98.870412 
C 256.544885 99.391929 256.752086 99.892156 257.120854 100.260924 
C 257.489622 100.629692 257.989849 100.836892 258.511365 100.836892 
z
" style="fill:#00ffff;fill-opacity:0.5;stroke:#00ffff;stroke-opacity:0.5;"/>
   </g>
   <g id="PathCollection_3">
    <defs>
     <path d="M -2.236068 2.236068 
L 2.236068 -2.236068 
M -2.236068 -2.236068 
L 2.236068 2.236068 
" id="m82ea2bfce1" style="stroke:#ff0000;stroke-width:1.5;"/>
    </defs>
    <g clip-path="url(#pc29ee1df56)">
     <use style="fill:#ff0000;stroke:#ff0000;stroke-width:1.5;" x="311.142558" xlink:href="#m82ea2bfce1" y="70.79453"/>
     <use style="fill:#ff0000;stroke:#ff0000;stroke-width:1.5;" x="323.60409" xlink:href="#m82ea2bfce1" y="21.171282"/>
     <use style="fill:#ff0000;stroke:#ff0000;stroke-width:1.5;" x="251.70464" xlink:href="#m82ea2bfce1" y="123.44319"/>
     <use style="fill:#ff0000;stroke:#ff0000;stroke-width:1.5;" x="382.250375" xlink:href="#m82ea2bfce1" y="61.639762"/>
     <use style="fill:#ff0000;stroke:#ff0000;stroke-width:1.5;" x="263.55326" xlink:href="#m82ea2bfce1" y="103.599052"/>
     <use style="fill:#ff0000;stroke:#ff0000;stroke-width:1.5;" x="296.451427" xlink:href="#m82ea2bfce1" y="107.933313"/>
     <use style="fill:#ff0000;stroke:#ff0000;stroke-width:1.5;" x="342.932849" xlink:href="#m82ea2bfce1" y="62.551213"/>
     <use style="fill:#ff0000;stroke:#ff0000;stroke-width:1.5;" x="282.501743" xlink:href="#m82ea2bfce1" y="75.635434"/>
     <use style="fill:#ff0000;stroke:#ff0000;stroke-width:1.5;" x="288.97761" xlink:href="#m82ea2bfce1" y="116.622063"/>
     <use style="fill:#ff0000;stroke:#ff0000;stroke-width:1.5;" x="294.12636" xlink:href="#m82ea2bfce1" y="95.229621"/>
    </g>
   </g>
   <g id="PathCollection_4">
    <defs>
     <path d="M 0 2.236068 
C 0.593012 2.236068 1.161816 2.000462 1.581139 1.581139 
C 2.000462 1.161816 2.236068 0.593012 2.236068 0 
C 2.236068 -0.593012 2.000462 -1.161816 1.581139 -1.581139 
C 1.161816 -2.000462 0.593012 -2.236068 0 -2.236068 
C -0.593012 -2.236068 -1.161816 -2.000462 -1.581139 -1.581139 
C -2.000462 -1.161816 -2.236068 -0.593012 -2.236068 0 
C -2.236068 0.593012 -2.000462 1.161816 -1.581139 1.581139 
C -1.161816 2.000462 -0.593012 2.236068 0 2.236068 
z
" id="me17e3884d3" style="stroke:#bfbf00;"/>
    </defs>
    <g clip-path="url(#pc29ee1df56)">
     <use style="fill:#bfbf00;stroke:#bfbf00;" x="387.378835" xlink:href="#me17e3884d3" y="40.113101"/>
     <use style="fill:#bfbf00;stroke:#bfbf00;" x="340.638503" xlink:href="#me17e3884d3" y="65.620896"/>
     <use style="fill:#bfbf00;stroke:#bfbf00;" x="328.88488" xlink:href="#me17e3884d3" y="86.503957"/>
     <use style="fill:#bfbf00;stroke:#bfbf00;" x="261.13151" xlink:href="#me17e3884d3" y="119.018809"/>
     <use style="fill:#bfbf00;stroke:#bfbf00;" x="315.960318" xlink:href="#me17e3884d3" y="91.796401"/>
    </g>
   </g>
   <g id="matplotlib.axis_1">
    <g id="xtick_1">
     <g id="line2d_1">
      <defs>
       <path d="M 0 0 
L 0 3.5 
" id="m40ba2665ca" style="stroke:#000000;stroke-width:0.8;"/>
      </defs>
      <g>
       <use style="stroke:#000000;stroke-width:0.8;" x="49.003382" xlink:href="#m40ba2665ca" y="275.187282"/>
      </g>
     </g>
     <g id="text_1">
      <!-- −4 -->
      <g transform="translate(41.632288 289.78572)scale(0.1 -0.1)">
       <defs>
        <path d="M 678 2272 
L 4684 2272 
L 4684 1741 
L 678 1741 
L 678 2272 
z
" id="DejaVuSans-2212" transform="scale(0.015625)"/>
        <path d="M 2419 4116 
L 825 1625 
L 2419 1625 
L 2419 4116 
z
M 2253 4666 
L 3047 4666 
L 3047 1625 
L 3713 1625 
L 3713 1100 
L 3047 1100 
L 3047 0 
L 2419 0 
L 2419 1100 
L 313 1100 
L 313 1709 
L 2253 4666 
z
" id="DejaVuSans-34" transform="scale(0.015625)"/>
       </defs>
       <use xlink:href="#DejaVuSans-2212"/>
       <use x="83.789062" xlink:href="#DejaVuSans-34"/>
      </g>
     </g>
    </g>
    <g id="xtick_2">
     <g id="line2d_2">
      <g>
       <use style="stroke:#000000;stroke-width:0.8;" x="118.13982" xlink:href="#m40ba2665ca" y="275.187282"/>
      </g>
     </g>
     <g id="text_2">
      <!-- −2 -->
      <g transform="translate(110.768726 289.78572)scale(0.1 -0.1)">
       <defs>
        <path d="M 1228 531 
L 3431 531 
L 3431 0 
L 469 0 
L 469 531 
Q 828 903 1448 1529 
Q 2069 2156 2228 2338 
Q 2531 2678 2651 2914 
Q 2772 3150 2772 3378 
Q 2772 3750 2511 3984 
Q 2250 4219 1831 4219 
Q 1534 4219 1204 4116 
Q 875 4013 500 3803 
L 500 4441 
Q 881 4594 1212 4672 
Q 1544 4750 1819 4750 
Q 2544 4750 2975 4387 
Q 3406 4025 3406 3419 
Q 3406 3131 3298 2873 
Q 3191 2616 2906 2266 
Q 2828 2175 2409 1742 
Q 1991 1309 1228 531 
z
" id="DejaVuSans-32" transform="scale(0.015625)"/>
       </defs>
       <use xlink:href="#DejaVuSans-2212"/>
       <use x="83.789062" xlink:href="#DejaVuSans-32"/>
      </g>
     </g>
    </g>
    <g id="xtick_3">
     <g id="line2d_3">
      <g>
       <use style="stroke:#000000;stroke-width:0.8;" x="187.276258" xlink:href="#m40ba2665ca" y="275.187282"/>
      </g>
     </g>
     <g id="text_3">
      <!-- 0 -->
      <g transform="translate(184.095008 289.78572)scale(0.1 -0.1)">
       <defs>
        <path d="M 2034 4250 
Q 1547 4250 1301 3770 
Q 1056 3291 1056 2328 
Q 1056 1369 1301 889 
Q 1547 409 2034 409 
Q 2525 409 2770 889 
Q 3016 1369 3016 2328 
Q 3016 3291 2770 3770 
Q 2525 4250 2034 4250 
z
M 2034 4750 
Q 2819 4750 3233 4129 
Q 3647 3509 3647 2328 
Q 3647 1150 3233 529 
Q 2819 -91 2034 -91 
Q 1250 -91 836 529 
Q 422 1150 422 2328 
Q 422 3509 836 4129 
Q 1250 4750 2034 4750 
z
" id="DejaVuSans-30" transform="scale(0.015625)"/>
       </defs>
       <use xlink:href="#DejaVuSans-30"/>
      </g>
     </g>
    </g>
    <g id="xtick_4">
     <g id="line2d_4">
      <g>
       <use style="stroke:#000000;stroke-width:0.8;" x="256.412696" xlink:href="#m40ba2665ca" y="275.187282"/>
      </g>
     </g>
     <g id="text_4">
      <!-- 2 -->
      <g transform="translate(253.231446 289.78572)scale(0.1 -0.1)">
       <use xlink:href="#DejaVuSans-32"/>
      </g>
     </g>
    </g>
    <g id="xtick_5">
     <g id="line2d_5">
      <g>
       <use style="stroke:#000000;stroke-width:0.8;" x="325.549134" xlink:href="#m40ba2665ca" y="275.187282"/>
      </g>
     </g>
     <g id="text_5">
      <!-- 4 -->
      <g transform="translate(322.367884 289.78572)scale(0.1 -0.1)">
       <use xlink:href="#DejaVuSans-34"/>
      </g>
     </g>
    </g>
    <g id="xtick_6">
     <g id="line2d_6">
      <g>
       <use style="stroke:#000000;stroke-width:0.8;" x="394.685572" xlink:href="#m40ba2665ca" y="275.187282"/>
      </g>
     </g>
     <g id="text_6">
      <!-- 6 -->
      <g transform="translate(391.504322 289.78572)scale(0.1 -0.1)">
       <defs>
        <path d="M 2113 2584 
Q 1688 2584 1439 2293 
Q 1191 2003 1191 1497 
Q 1191 994 1439 701 
Q 1688 409 2113 409 
Q 2538 409 2786 701 
Q 3034 994 3034 1497 
Q 3034 2003 2786 2293 
Q 2538 2584 2113 2584 
z
M 3366 4563 
L 3366 3988 
Q 3128 4100 2886 4159 
Q 2644 4219 2406 4219 
Q 1781 4219 1451 3797 
Q 1122 3375 1075 2522 
Q 1259 2794 1537 2939 
Q 1816 3084 2150 3084 
Q 2853 3084 3261 2657 
Q 3669 2231 3669 1497 
Q 3669 778 3244 343 
Q 2819 -91 2113 -91 
Q 1303 -91 875 529 
Q 447 1150 447 2328 
Q 447 3434 972 4092 
Q 1497 4750 2381 4750 
Q 2619 4750 2861 4703 
Q 3103 4656 3366 4563 
z
" id="DejaVuSans-36" transform="scale(0.015625)"/>
       </defs>
       <use xlink:href="#DejaVuSans-36"/>
      </g>
     </g>
    </g>
    <g id="text_7">
     <!-- x -->
     <g transform="translate(220.908438 306.50322)scale(0.14 -0.14)">
      <defs>
       <path d="M 3513 3500 
L 2247 1797 
L 3578 0 
L 2900 0 
L 1881 1375 
L 863 0 
L 184 0 
L 1544 1831 
L 300 3500 
L 978 3500 
L 1906 2253 
L 2834 3500 
L 3513 3500 
z
" id="DejaVuSans-78" transform="scale(0.015625)"/>
      </defs>
      <use xlink:href="#DejaVuSans-78"/>
     </g>
    </g>
   </g>
   <g id="matplotlib.axis_2">
    <g id="ytick_1">
     <g id="line2d_7">
      <defs>
       <path d="M 0 0 
L -3.5 0 
" id="m679cf21331" style="stroke:#000000;stroke-width:0.8;"/>
      </defs>
      <g>
       <use style="stroke:#000000;stroke-width:0.8;" x="46.491563" xlink:href="#m679cf21331" y="247.160392"/>
      </g>
     </g>
     <g id="text_8">
      <!-- −5 -->
      <g transform="translate(24.749375 250.95961)scale(0.1 -0.1)">
       <defs>
        <path d="M 691 4666 
L 3169 4666 
L 3169 4134 
L 1269 4134 
L 1269 2991 
Q 1406 3038 1543 3061 
Q 1681 3084 1819 3084 
Q 2600 3084 3056 2656 
Q 3513 2228 3513 1497 
Q 3513 744 3044 326 
Q 2575 -91 1722 -91 
Q 1428 -91 1123 -41 
Q 819 9 494 109 
L 494 744 
Q 775 591 1075 516 
Q 1375 441 1709 441 
Q 2250 441 2565 725 
Q 2881 1009 2881 1497 
Q 2881 1984 2565 2268 
Q 2250 2553 1709 2553 
Q 1456 2553 1204 2497 
Q 953 2441 691 2322 
L 691 4666 
z
" id="DejaVuSans-35" transform="scale(0.015625)"/>
       </defs>
       <use xlink:href="#DejaVuSans-2212"/>
       <use x="83.789062" xlink:href="#DejaVuSans-35"/>
      </g>
     </g>
    </g>
    <g id="ytick_2">
     <g id="line2d_8">
      <g>
       <use style="stroke:#000000;stroke-width:0.8;" x="46.491563" xlink:href="#m679cf21331" y="207.800196"/>
      </g>
     </g>
     <g id="text_9">
      <!-- 0 -->
      <g transform="translate(33.129063 211.599415)scale(0.1 -0.1)">
       <use xlink:href="#DejaVuSans-30"/>
      </g>
     </g>
    </g>
    <g id="ytick_3">
     <g id="line2d_9">
      <g>
       <use style="stroke:#000000;stroke-width:0.8;" x="46.491563" xlink:href="#m679cf21331" y="168.440001"/>
      </g>
     </g>
     <g id="text_10">
      <!-- 5 -->
      <g transform="translate(33.129063 172.239219)scale(0.1 -0.1)">
       <use xlink:href="#DejaVuSans-35"/>
      </g>
     </g>
    </g>
    <g id="ytick_4">
     <g id="line2d_10">
      <g>
       <use style="stroke:#000000;stroke-width:0.8;" x="46.491563" xlink:href="#m679cf21331" y="129.079805"/>
      </g>
     </g>
     <g id="text_11">
      <!-- 10 -->
      <g transform="translate(26.766562 132.879024)scale(0.1 -0.1)">
       <defs>
        <path d="M 794 531 
L 1825 531 
L 1825 4091 
L 703 3866 
L 703 4441 
L 1819 4666 
L 2450 4666 
L 2450 531 
L 3481 531 
L 3481 0 
L 794 0 
L 794 531 
z
" id="DejaVuSans-31" transform="scale(0.015625)"/>
       </defs>
       <use xlink:href="#DejaVuSans-31"/>
       <use x="63.623047" xlink:href="#DejaVuSans-30"/>
      </g>
     </g>
    </g>
    <g id="ytick_5">
     <g id="line2d_11">
      <g>
       <use style="stroke:#000000;stroke-width:0.8;" x="46.491563" xlink:href="#m679cf21331" y="89.71961"/>
      </g>
     </g>
     <g id="text_12">
      <!-- 15 -->
      <g transform="translate(26.766562 93.518828)scale(0.1 -0.1)">
       <use xlink:href="#DejaVuSans-31"/>
       <use x="63.623047" xlink:href="#DejaVuSans-35"/>
      </g>
     </g>
    </g>
    <g id="ytick_6">
     <g id="line2d_12">
      <g>
       <use style="stroke:#000000;stroke-width:0.8;" x="46.491563" xlink:href="#m679cf21331" y="50.359414"/>
      </g>
     </g>
     <g id="text_13">
      <!-- 20 -->
      <g transform="translate(26.766562 54.158633)scale(0.1 -0.1)">
       <use xlink:href="#DejaVuSans-32"/>
       <use x="63.623047" xlink:href="#DejaVuSans-30"/>
      </g>
     </g>
    </g>
    <g id="ytick_7">
     <g id="line2d_13">
      <g>
       <use style="stroke:#000000;stroke-width:0.8;" x="46.491563" xlink:href="#m679cf21331" y="10.999219"/>
      </g>
     </g>
     <g id="text_14">
      <!-- 25 -->
      <g transform="translate(26.766562 14.798438)scale(0.1 -0.1)">
       <use xlink:href="#DejaVuSans-32"/>
       <use x="63.623047" xlink:href="#DejaVuSans-35"/>
      </g>
     </g>
    </g>
    <g id="text_15">
     <!-- y -->
     <g transform="translate(17.837812 146.274407)rotate(-90)scale(0.14 -0.14)">
      <defs>
       <path d="M 2059 -325 
Q 1816 -950 1584 -1140 
Q 1353 -1331 966 -1331 
L 506 -1331 
L 506 -850 
L 844 -850 
Q 1081 -850 1212 -737 
Q 1344 -625 1503 -206 
L 1606 56 
L 191 3500 
L 800 3500 
L 1894 763 
L 2988 3500 
L 3597 3500 
L 2059 -325 
z
" id="DejaVuSans-79" transform="scale(0.015625)"/>
      </defs>
      <use xlink:href="#DejaVuSans-79"/>
     </g>
    </g>
   </g>
   <g id="patch_3">
    <path d="M 46.491563 275.187282 
L 46.491563 9.075282 
" style="fill:none;stroke:#000000;stroke-linecap:square;stroke-linejoin:miter;stroke-width:0.8;"/>
   </g>
   <g id="patch_4">
    <path d="M 403.611563 275.187282 
L 403.611563 9.075282 
" style="fill:none;stroke:#000000;stroke-linecap:square;stroke-linejoin:miter;stroke-width:0.8;"/>
   </g>
   <g id="patch_5">
    <path d="M 46.491563 275.187282 
L 403.611562 275.187282 
" style="fill:none;stroke:#000000;stroke-linecap:square;stroke-linejoin:miter;stroke-width:0.8;"/>
   </g>
   <g id="patch_6">
    <path d="M 46.491563 9.075282 
L 403.611562 9.075282 
" style="fill:none;stroke:#000000;stroke-linecap:square;stroke-linejoin:miter;stroke-width:0.8;"/>
   </g>
   <g id="legend_1">
    <g id="patch_7">
     <path d="M 54.891562 71.516532 
L 184.879687 71.516532 
Q 187.279687 71.516532 187.279687 69.116532 
L 187.279687 17.475282 
Q 187.279687 15.075282 184.879687 15.075282 
L 54.891562 15.075282 
Q 52.491563 15.075282 52.491563 17.475282 
L 52.491563 69.116532 
Q 52.491563 71.516532 54.891562 71.516532 
z
" style="fill:#ffffff;opacity:0.8;stroke:#cccccc;stroke-linejoin:miter;"/>
    </g>
    <g id="PathCollection_5">
     <g>
      <use style="stroke:#000000;stroke-width:1.5;" x="69.291562" xlink:href="#m6cacd49246" y="25.843407"/>
     </g>
    </g>
    <g id="text_16">
     <!-- Source Domain -->
     <g transform="translate(90.891562 28.993407)scale(0.12 -0.12)">
      <defs>
       <path d="M 3425 4513 
L 3425 3897 
Q 3066 4069 2747 4153 
Q 2428 4238 2131 4238 
Q 1616 4238 1336 4038 
Q 1056 3838 1056 3469 
Q 1056 3159 1242 3001 
Q 1428 2844 1947 2747 
L 2328 2669 
Q 3034 2534 3370 2195 
Q 3706 1856 3706 1288 
Q 3706 609 3251 259 
Q 2797 -91 1919 -91 
Q 1588 -91 1214 -16 
Q 841 59 441 206 
L 441 856 
Q 825 641 1194 531 
Q 1563 422 1919 422 
Q 2459 422 2753 634 
Q 3047 847 3047 1241 
Q 3047 1584 2836 1778 
Q 2625 1972 2144 2069 
L 1759 2144 
Q 1053 2284 737 2584 
Q 422 2884 422 3419 
Q 422 4038 858 4394 
Q 1294 4750 2059 4750 
Q 2388 4750 2728 4690 
Q 3069 4631 3425 4513 
z
" id="DejaVuSans-53" transform="scale(0.015625)"/>
       <path d="M 1959 3097 
Q 1497 3097 1228 2736 
Q 959 2375 959 1747 
Q 959 1119 1226 758 
Q 1494 397 1959 397 
Q 2419 397 2687 759 
Q 2956 1122 2956 1747 
Q 2956 2369 2687 2733 
Q 2419 3097 1959 3097 
z
M 1959 3584 
Q 2709 3584 3137 3096 
Q 3566 2609 3566 1747 
Q 3566 888 3137 398 
Q 2709 -91 1959 -91 
Q 1206 -91 779 398 
Q 353 888 353 1747 
Q 353 2609 779 3096 
Q 1206 3584 1959 3584 
z
" id="DejaVuSans-6f" transform="scale(0.015625)"/>
       <path d="M 544 1381 
L 544 3500 
L 1119 3500 
L 1119 1403 
Q 1119 906 1312 657 
Q 1506 409 1894 409 
Q 2359 409 2629 706 
Q 2900 1003 2900 1516 
L 2900 3500 
L 3475 3500 
L 3475 0 
L 2900 0 
L 2900 538 
Q 2691 219 2414 64 
Q 2138 -91 1772 -91 
Q 1169 -91 856 284 
Q 544 659 544 1381 
z
M 1991 3584 
L 1991 3584 
z
" id="DejaVuSans-75" transform="scale(0.015625)"/>
       <path d="M 2631 2963 
Q 2534 3019 2420 3045 
Q 2306 3072 2169 3072 
Q 1681 3072 1420 2755 
Q 1159 2438 1159 1844 
L 1159 0 
L 581 0 
L 581 3500 
L 1159 3500 
L 1159 2956 
Q 1341 3275 1631 3429 
Q 1922 3584 2338 3584 
Q 2397 3584 2469 3576 
Q 2541 3569 2628 3553 
L 2631 2963 
z
" id="DejaVuSans-72" transform="scale(0.015625)"/>
       <path d="M 3122 3366 
L 3122 2828 
Q 2878 2963 2633 3030 
Q 2388 3097 2138 3097 
Q 1578 3097 1268 2742 
Q 959 2388 959 1747 
Q 959 1106 1268 751 
Q 1578 397 2138 397 
Q 2388 397 2633 464 
Q 2878 531 3122 666 
L 3122 134 
Q 2881 22 2623 -34 
Q 2366 -91 2075 -91 
Q 1284 -91 818 406 
Q 353 903 353 1747 
Q 353 2603 823 3093 
Q 1294 3584 2113 3584 
Q 2378 3584 2631 3529 
Q 2884 3475 3122 3366 
z
" id="DejaVuSans-63" transform="scale(0.015625)"/>
       <path d="M 3597 1894 
L 3597 1613 
L 953 1613 
Q 991 1019 1311 708 
Q 1631 397 2203 397 
Q 2534 397 2845 478 
Q 3156 559 3463 722 
L 3463 178 
Q 3153 47 2828 -22 
Q 2503 -91 2169 -91 
Q 1331 -91 842 396 
Q 353 884 353 1716 
Q 353 2575 817 3079 
Q 1281 3584 2069 3584 
Q 2775 3584 3186 3129 
Q 3597 2675 3597 1894 
z
M 3022 2063 
Q 3016 2534 2758 2815 
Q 2500 3097 2075 3097 
Q 1594 3097 1305 2825 
Q 1016 2553 972 2059 
L 3022 2063 
z
" id="DejaVuSans-65" transform="scale(0.015625)"/>
       <path id="DejaVuSans-20" transform="scale(0.015625)"/>
       <path d="M 1259 4147 
L 1259 519 
L 2022 519 
Q 2988 519 3436 956 
Q 3884 1394 3884 2338 
Q 3884 3275 3436 3711 
Q 2988 4147 2022 4147 
L 1259 4147 
z
M 628 4666 
L 1925 4666 
Q 3281 4666 3915 4102 
Q 4550 3538 4550 2338 
Q 4550 1131 3912 565 
Q 3275 0 1925 0 
L 628 0 
L 628 4666 
z
" id="DejaVuSans-44" transform="scale(0.015625)"/>
       <path d="M 3328 2828 
Q 3544 3216 3844 3400 
Q 4144 3584 4550 3584 
Q 5097 3584 5394 3201 
Q 5691 2819 5691 2113 
L 5691 0 
L 5113 0 
L 5113 2094 
Q 5113 2597 4934 2840 
Q 4756 3084 4391 3084 
Q 3944 3084 3684 2787 
Q 3425 2491 3425 1978 
L 3425 0 
L 2847 0 
L 2847 2094 
Q 2847 2600 2669 2842 
Q 2491 3084 2119 3084 
Q 1678 3084 1418 2786 
Q 1159 2488 1159 1978 
L 1159 0 
L 581 0 
L 581 3500 
L 1159 3500 
L 1159 2956 
Q 1356 3278 1631 3431 
Q 1906 3584 2284 3584 
Q 2666 3584 2933 3390 
Q 3200 3197 3328 2828 
z
" id="DejaVuSans-6d" transform="scale(0.015625)"/>
       <path d="M 2194 1759 
Q 1497 1759 1228 1600 
Q 959 1441 959 1056 
Q 959 750 1161 570 
Q 1363 391 1709 391 
Q 2188 391 2477 730 
Q 2766 1069 2766 1631 
L 2766 1759 
L 2194 1759 
z
M 3341 1997 
L 3341 0 
L 2766 0 
L 2766 531 
Q 2569 213 2275 61 
Q 1981 -91 1556 -91 
Q 1019 -91 701 211 
Q 384 513 384 1019 
Q 384 1609 779 1909 
Q 1175 2209 1959 2209 
L 2766 2209 
L 2766 2266 
Q 2766 2663 2505 2880 
Q 2244 3097 1772 3097 
Q 1472 3097 1187 3025 
Q 903 2953 641 2809 
L 641 3341 
Q 956 3463 1253 3523 
Q 1550 3584 1831 3584 
Q 2591 3584 2966 3190 
Q 3341 2797 3341 1997 
z
" id="DejaVuSans-61" transform="scale(0.015625)"/>
       <path d="M 603 3500 
L 1178 3500 
L 1178 0 
L 603 0 
L 603 3500 
z
M 603 4863 
L 1178 4863 
L 1178 4134 
L 603 4134 
L 603 4863 
z
" id="DejaVuSans-69" transform="scale(0.015625)"/>
       <path d="M 3513 2113 
L 3513 0 
L 2938 0 
L 2938 2094 
Q 2938 2591 2744 2837 
Q 2550 3084 2163 3084 
Q 1697 3084 1428 2787 
Q 1159 2491 1159 1978 
L 1159 0 
L 581 0 
L 581 3500 
L 1159 3500 
L 1159 2956 
Q 1366 3272 1645 3428 
Q 1925 3584 2291 3584 
Q 2894 3584 3203 3211 
Q 3513 2838 3513 2113 
z
" id="DejaVuSans-6e" transform="scale(0.015625)"/>
      </defs>
      <use xlink:href="#DejaVuSans-53"/>
      <use x="63.476562" xlink:href="#DejaVuSans-6f"/>
      <use x="124.658203" xlink:href="#DejaVuSans-75"/>
      <use x="188.037109" xlink:href="#DejaVuSans-72"/>
      <use x="226.900391" xlink:href="#DejaVuSans-63"/>
      <use x="281.880859" xlink:href="#DejaVuSans-65"/>
      <use x="343.404297" xlink:href="#DejaVuSans-20"/>
      <use x="375.191406" xlink:href="#DejaVuSans-44"/>
      <use x="452.193359" xlink:href="#DejaVuSans-6f"/>
      <use x="513.375" xlink:href="#DejaVuSans-6d"/>
      <use x="610.787109" xlink:href="#DejaVuSans-61"/>
      <use x="672.066406" xlink:href="#DejaVuSans-69"/>
      <use x="699.849609" xlink:href="#DejaVuSans-6e"/>
     </g>
    </g>
    <g id="PathCollection_6">
     <g>
      <use style="fill:#ff0000;stroke:#ff0000;stroke-width:1.5;" x="69.291562" xlink:href="#m82ea2bfce1" y="43.457157"/>
     </g>
    </g>
    <g id="text_17">
     <!-- Target Domain -->
     <g transform="translate(90.891562 46.607157)scale(0.12 -0.12)">
      <defs>
       <path d="M -19 4666 
L 3928 4666 
L 3928 4134 
L 2272 4134 
L 2272 0 
L 1638 0 
L 1638 4134 
L -19 4134 
L -19 4666 
z
" id="DejaVuSans-54" transform="scale(0.015625)"/>
       <path d="M 2906 1791 
Q 2906 2416 2648 2759 
Q 2391 3103 1925 3103 
Q 1463 3103 1205 2759 
Q 947 2416 947 1791 
Q 947 1169 1205 825 
Q 1463 481 1925 481 
Q 2391 481 2648 825 
Q 2906 1169 2906 1791 
z
M 3481 434 
Q 3481 -459 3084 -895 
Q 2688 -1331 1869 -1331 
Q 1566 -1331 1297 -1286 
Q 1028 -1241 775 -1147 
L 775 -588 
Q 1028 -725 1275 -790 
Q 1522 -856 1778 -856 
Q 2344 -856 2625 -561 
Q 2906 -266 2906 331 
L 2906 616 
Q 2728 306 2450 153 
Q 2172 0 1784 0 
Q 1141 0 747 490 
Q 353 981 353 1791 
Q 353 2603 747 3093 
Q 1141 3584 1784 3584 
Q 2172 3584 2450 3431 
Q 2728 3278 2906 2969 
L 2906 3500 
L 3481 3500 
L 3481 434 
z
" id="DejaVuSans-67" transform="scale(0.015625)"/>
       <path d="M 1172 4494 
L 1172 3500 
L 2356 3500 
L 2356 3053 
L 1172 3053 
L 1172 1153 
Q 1172 725 1289 603 
Q 1406 481 1766 481 
L 2356 481 
L 2356 0 
L 1766 0 
Q 1100 0 847 248 
Q 594 497 594 1153 
L 594 3053 
L 172 3053 
L 172 3500 
L 594 3500 
L 594 4494 
L 1172 4494 
z
" id="DejaVuSans-74" transform="scale(0.015625)"/>
      </defs>
      <use xlink:href="#DejaVuSans-54"/>
      <use x="44.583984" xlink:href="#DejaVuSans-61"/>
      <use x="105.863281" xlink:href="#DejaVuSans-72"/>
      <use x="145.226562" xlink:href="#DejaVuSans-67"/>
      <use x="208.703125" xlink:href="#DejaVuSans-65"/>
      <use x="270.226562" xlink:href="#DejaVuSans-74"/>
      <use x="309.435547" xlink:href="#DejaVuSans-20"/>
      <use x="341.222656" xlink:href="#DejaVuSans-44"/>
      <use x="418.224609" xlink:href="#DejaVuSans-6f"/>
      <use x="479.40625" xlink:href="#DejaVuSans-6d"/>
      <use x="576.818359" xlink:href="#DejaVuSans-61"/>
      <use x="638.097656" xlink:href="#DejaVuSans-69"/>
      <use x="665.880859" xlink:href="#DejaVuSans-6e"/>
     </g>
    </g>
    <g id="PathCollection_7">
     <g>
      <use style="fill:#bfbf00;stroke:#bfbf00;" x="69.291562" xlink:href="#me17e3884d3" y="61.070907"/>
     </g>
    </g>
    <g id="text_18">
     <!-- Test Data -->
     <g transform="translate(90.891562 64.220907)scale(0.12 -0.12)">
      <defs>
       <path d="M 2834 3397 
L 2834 2853 
Q 2591 2978 2328 3040 
Q 2066 3103 1784 3103 
Q 1356 3103 1142 2972 
Q 928 2841 928 2578 
Q 928 2378 1081 2264 
Q 1234 2150 1697 2047 
L 1894 2003 
Q 2506 1872 2764 1633 
Q 3022 1394 3022 966 
Q 3022 478 2636 193 
Q 2250 -91 1575 -91 
Q 1294 -91 989 -36 
Q 684 19 347 128 
L 347 722 
Q 666 556 975 473 
Q 1284 391 1588 391 
Q 1994 391 2212 530 
Q 2431 669 2431 922 
Q 2431 1156 2273 1281 
Q 2116 1406 1581 1522 
L 1381 1569 
Q 847 1681 609 1914 
Q 372 2147 372 2553 
Q 372 3047 722 3315 
Q 1072 3584 1716 3584 
Q 2034 3584 2315 3537 
Q 2597 3491 2834 3397 
z
" id="DejaVuSans-73" transform="scale(0.015625)"/>
      </defs>
      <use xlink:href="#DejaVuSans-54"/>
      <use x="44.083984" xlink:href="#DejaVuSans-65"/>
      <use x="105.607422" xlink:href="#DejaVuSans-73"/>
      <use x="157.707031" xlink:href="#DejaVuSans-74"/>
      <use x="196.916016" xlink:href="#DejaVuSans-20"/>
      <use x="228.703125" xlink:href="#DejaVuSans-44"/>
      <use x="305.705078" xlink:href="#DejaVuSans-61"/>
      <use x="366.984375" xlink:href="#DejaVuSans-74"/>
      <use x="406.193359" xlink:href="#DejaVuSans-61"/>
     </g>
    </g>
   </g>
  </g>
 </g>
 <defs>
  <clipPath id="pc29ee1df56">
   <rect height="266.112" width="357.12" x="46.491563" y="9.075282"/>
  </clipPath>
 </defs>
</svg>
