<?xml version="1.0" encoding="utf-8" standalone="no"?>
<!DOCTYPE svg PUBLIC "-//W3C//DTD SVG 1.1//EN"
  "http://www.w3.org/Graphics/SVG/1.1/DTD/svg11.dtd">
<svg height="316.614782pt" version="1.1" viewBox="0 0 410.811562 316.614782" width="410.811562pt" xmlns="http://www.w3.org/2000/svg" xmlns:xlink="http://www.w3.org/1999/xlink">
 <metadata>
  <rdf:RDF xmlns:cc="http://creativecommons.org/ns#" xmlns:dc="http://purl.org/dc/elements/1.1/" xmlns:rdf="http://www.w3.org/1999/02/22-rdf-syntax-ns#">
   <cc:Work>
    <dc:type rdf:resource="http://purl.org/dc/dcmitype/StillImage"/>
    <dc:date>2023-05-07T21:34:47.601582</dc:date>
    <dc:format>image/svg+xml</dc:format>
    <dc:creator>
     <cc:Agent>
      <dc:title>Matplotlib v3.4.3, https://matplotlib.org/</dc:title>
     </cc:Agent>
    </dc:creator>
   </cc:Work>
  </rdf:RDF>
 </metadata>
 <defs>
  <style type="text/css">*{stroke-linecap:butt;stroke-linejoin:round;}</style>
 </defs>
 <g id="figure_1">
  <g id="patch_1">
   <path d="M 0 316.614782 
L 410.811562 316.614782 
L 410.811562 0 
L 0 0 
z
" style="fill:#ffffff;"/>
  </g>
  <g id="axes_1">
   <g id="patch_2">
    <path d="M 46.491563 275.187282 
L 403.611563 275.187282 
L 403.611563 9.075282 
L 46.491563 9.075282 
z
" style="fill:#ffffff;"/>
   </g>
   <g id="PathCollection_1">
    <defs>
     <path d="M -2.236068 2.236068 
L 2.236068 -2.236068 
M -2.236068 -2.236068 
L 2.236068 2.236068 
" id="m37d6cdab95" style="stroke:#000000;stroke-width:1.5;"/>
    </defs>
    <g clip-path="url(#pfdcf0d4fc2)">
     <use style="stroke:#000000;stroke-width:1.5;" x="334.14593" xlink:href="#m37d6cdab95" y="84.436764"/>
     <use style="stroke:#000000;stroke-width:1.5;" x="179.549818" xlink:href="#m37d6cdab95" y="183.088284"/>
     <use style="stroke:#000000;stroke-width:1.5;" x="185.328564" xlink:href="#m37d6cdab95" y="185.998966"/>
     <use style="stroke:#000000;stroke-width:1.5;" x="147.663249" xlink:href="#m37d6cdab95" y="215.463064"/>
     <use style="stroke:#000000;stroke-width:1.5;" x="281.675678" xlink:href="#m37d6cdab95" y="119.800975"/>
     <use style="stroke:#000000;stroke-width:1.5;" x="62.72429" xlink:href="#m37d6cdab95" y="253.829788"/>
     <use style="stroke:#000000;stroke-width:1.5;" x="342.474548" xlink:href="#m37d6cdab95" y="88.799057"/>
     <use style="stroke:#000000;stroke-width:1.5;" x="169.217344" xlink:href="#m37d6cdab95" y="175.241398"/>
     <use style="stroke:#000000;stroke-width:1.5;" x="243.901704" xlink:href="#m37d6cdab95" y="90.556871"/>
     <use style="stroke:#000000;stroke-width:1.5;" x="204.603898" xlink:href="#m37d6cdab95" y="139.078001"/>
     <use style="stroke:#000000;stroke-width:1.5;" x="322.929412" xlink:href="#m37d6cdab95" y="80.295669"/>
     <use style="stroke:#000000;stroke-width:1.5;" x="79.413687" xlink:href="#m37d6cdab95" y="263.091282"/>
     <use style="stroke:#000000;stroke-width:1.5;" x="199.5537" xlink:href="#m37d6cdab95" y="177.697346"/>
     <use style="stroke:#000000;stroke-width:1.5;" x="195.292327" xlink:href="#m37d6cdab95" y="122.994422"/>
     <use style="stroke:#000000;stroke-width:1.5;" x="300.229258" xlink:href="#m37d6cdab95" y="90.073537"/>
     <use style="stroke:#000000;stroke-width:1.5;" x="145.801913" xlink:href="#m37d6cdab95" y="211.81757"/>
     <use style="stroke:#000000;stroke-width:1.5;" x="209.923405" xlink:href="#m37d6cdab95" y="148.45937"/>
     <use style="stroke:#000000;stroke-width:1.5;" x="161.152473" xlink:href="#m37d6cdab95" y="136.687226"/>
     <use style="stroke:#000000;stroke-width:1.5;" x="224.762985" xlink:href="#m37d6cdab95" y="139.992346"/>
     <use style="stroke:#000000;stroke-width:1.5;" x="262.138245" xlink:href="#m37d6cdab95" y="102.720277"/>
     <use style="stroke:#000000;stroke-width:1.5;" x="145.751588" xlink:href="#m37d6cdab95" y="189.719729"/>
     <use style="stroke:#000000;stroke-width:1.5;" x="300.986597" xlink:href="#m37d6cdab95" y="99.074798"/>
     <use style="stroke:#000000;stroke-width:1.5;" x="284.177248" xlink:href="#m37d6cdab95" y="129.221583"/>
     <use style="stroke:#000000;stroke-width:1.5;" x="256.585146" xlink:href="#m37d6cdab95" y="129.340072"/>
     <use style="stroke:#000000;stroke-width:1.5;" x="284.126449" xlink:href="#m37d6cdab95" y="107.207715"/>
     <use style="stroke:#000000;stroke-width:1.5;" x="174.573969" xlink:href="#m37d6cdab95" y="163.264116"/>
     <use style="stroke:#000000;stroke-width:1.5;" x="213.348285" xlink:href="#m37d6cdab95" y="130.814733"/>
     <use style="stroke:#000000;stroke-width:1.5;" x="157.148712" xlink:href="#m37d6cdab95" y="167.033349"/>
     <use style="stroke:#000000;stroke-width:1.5;" x="203.32365" xlink:href="#m37d6cdab95" y="150.732372"/>
     <use style="stroke:#000000;stroke-width:1.5;" x="258.511365" xlink:href="#m37d6cdab95" y="98.870412"/>
    </g>
   </g>
   <g id="PathCollection_2">
    <path clip-path="url(#pfdcf0d4fc2)" d="M 334.14593 87.599033 
C 334.984574 87.599033 335.788981 87.265836 336.381992 86.672825 
C 336.975002 86.079815 337.308199 85.275407 337.308199 84.436764 
C 337.308199 83.59812 336.975002 82.793712 336.381992 82.200702 
C 335.788981 81.607691 334.984574 81.274494 334.14593 81.274494 
C 333.307286 81.274494 332.502879 81.607691 331.909868 82.200702 
C 331.316857 82.793712 330.983661 83.59812 330.983661 84.436764 
C 330.983661 85.275407 331.316857 86.079815 331.909868 86.672825 
C 332.502879 87.265836 333.307286 87.599033 334.14593 87.599033 
z
" style="fill:#00ffff;fill-opacity:0.5;stroke:#00ffff;stroke-opacity:0.5;"/>
    <path clip-path="url(#pfdcf0d4fc2)" d="M 179.549818 186.250548 
C 180.38846 186.250548 181.192867 185.917352 181.785877 185.324343 
C 182.378887 184.731333 182.712083 183.926926 182.712083 183.088284 
C 182.712083 182.249641 182.378887 181.445234 181.785877 180.852225 
C 181.192867 180.259215 180.38846 179.926019 179.549818 179.926019 
C 178.711175 179.926019 177.906769 180.259215 177.313759 180.852225 
C 176.720749 181.445234 176.387553 182.249641 176.387553 183.088284 
C 176.387553 183.926926 176.720749 184.731333 177.313759 185.324343 
C 177.906769 185.917352 178.711175 186.250548 179.549818 186.250548 
z
" style="fill:#00ffff;fill-opacity:0.5;stroke:#00ffff;stroke-opacity:0.5;"/>
    <path clip-path="url(#pfdcf0d4fc2)" d="M 185.328564 189.161232 
C 186.167206 189.161232 186.971613 188.828036 187.564623 188.235026 
C 188.157633 187.642016 188.490829 186.837609 188.490829 185.998966 
C 188.490829 185.160324 188.157633 184.355917 187.564623 183.762907 
C 186.971613 183.169897 186.167206 182.836701 185.328564 182.836701 
C 184.489921 182.836701 183.685514 183.169897 183.092504 183.762907 
C 182.499494 184.355917 182.166298 185.160324 182.166298 185.998966 
C 182.166298 186.837609 182.499494 187.642016 183.092504 188.235026 
C 183.685514 188.828036 184.489921 189.161232 185.328564 189.161232 
z
" style="fill:#00ffff;fill-opacity:0.5;stroke:#00ffff;stroke-opacity:0.5;"/>
    <path clip-path="url(#pfdcf0d4fc2)" d="M 147.663249 218.625319 
C 148.501888 218.625319 149.306293 218.292124 149.8993 217.699116 
C 150.492308 217.106108 150.825503 216.301704 150.825503 215.463064 
C 150.825503 214.624425 150.492308 213.820021 149.8993 213.227013 
C 149.306293 212.634005 148.501888 212.30081 147.663249 212.30081 
C 146.824609 212.30081 146.020205 212.634005 145.427197 213.227013 
C 144.834189 213.820021 144.500994 214.624425 144.500994 215.463064 
C 144.500994 216.301704 144.834189 217.106108 145.427197 217.699116 
C 146.020205 218.292124 146.824609 218.625319 147.663249 218.625319 
z
" style="fill:#00ffff;fill-opacity:0.5;stroke:#00ffff;stroke-opacity:0.5;"/>
    <path clip-path="url(#pfdcf0d4fc2)" d="M 281.675678 122.963243 
C 282.514322 122.963243 283.318729 122.630046 283.91174 122.037036 
C 284.50475 121.444025 284.837946 120.639618 284.837946 119.800975 
C 284.837946 118.962331 284.50475 118.157924 283.91174 117.564913 
C 283.318729 116.971903 282.514322 116.638706 281.675678 116.638706 
C 280.837035 116.638706 280.032627 116.971903 279.439617 117.564913 
C 278.846607 118.157924 278.51341 118.962331 278.51341 119.800975 
C 278.51341 120.639618 278.846607 121.444025 279.439617 122.037036 
C 280.032627 122.630046 280.837035 122.963243 281.675678 122.963243 
z
" style="fill:#00ffff;fill-opacity:0.5;stroke:#00ffff;stroke-opacity:0.5;"/>
    <path clip-path="url(#pfdcf0d4fc2)" d="M 62.72429 256.93132 
C 63.546826 256.93132 64.335784 256.604523 64.917405 256.022902 
C 65.499025 255.441281 65.825822 254.652324 65.825822 253.829788 
C 65.825822 253.007251 65.499025 252.218294 64.917405 251.636673 
C 64.335784 251.055052 63.546826 250.728255 62.72429 250.728255 
C 61.901754 250.728255 61.112796 251.055052 60.531175 251.636673 
C 59.949554 252.218294 59.622757 253.007251 59.622757 253.829788 
C 59.622757 254.652324 59.949554 255.441281 60.531175 256.022902 
C 61.112796 256.604523 61.901754 256.93132 62.72429 256.93132 
z
" style="fill:#00ffff;fill-opacity:0.5;stroke:#00ffff;stroke-opacity:0.5;"/>
    <path clip-path="url(#pfdcf0d4fc2)" d="M 342.474548 91.961326 
C 343.313191 91.961326 344.117599 91.62813 344.71061 91.035119 
C 345.30362 90.442108 345.636817 89.637701 345.636817 88.799057 
C 345.636817 87.960413 345.30362 87.156006 344.71061 86.562995 
C 344.117599 85.969984 343.313191 85.636788 342.474548 85.636788 
C 341.635904 85.636788 340.831496 85.969984 340.238486 86.562995 
C 339.645475 87.156006 339.312279 87.960413 339.312279 88.799057 
C 339.312279 89.637701 339.645475 90.442108 340.238486 91.035119 
C 340.831496 91.62813 341.635904 91.961326 342.474548 91.961326 
z
" style="fill:#00ffff;fill-opacity:0.5;stroke:#00ffff;stroke-opacity:0.5;"/>
    <path clip-path="url(#pfdcf0d4fc2)" d="M 169.217344 178.403661 
C 170.055986 178.403661 170.860392 178.070465 171.453401 177.477455 
C 172.046411 176.884446 172.379607 176.08004 172.379607 175.241398 
C 172.379607 174.402756 172.046411 173.598349 171.453401 173.00534 
C 170.860392 172.41233 170.055986 172.079134 169.217344 172.079134 
C 168.378702 172.079134 167.574295 172.41233 166.981286 173.00534 
C 166.388276 173.598349 166.05508 174.402756 166.05508 175.241398 
C 166.05508 176.08004 166.388276 176.884446 166.981286 177.477455 
C 167.574295 178.070465 168.378702 178.403661 169.217344 178.403661 
z
" style="fill:#00ffff;fill-opacity:0.5;stroke:#00ffff;stroke-opacity:0.5;"/>
    <path clip-path="url(#pfdcf0d4fc2)" d="M 243.901704 93.719139 
C 244.740347 93.719139 245.544755 93.385942 246.137765 92.792932 
C 246.730775 92.199922 247.063972 91.395514 247.063972 90.556871 
C 247.063972 89.718228 246.730775 88.91382 246.137765 88.32081 
C 245.544755 87.7278 244.740347 87.394603 243.901704 87.394603 
C 243.063061 87.394603 242.258653 87.7278 241.665643 88.32081 
C 241.072633 88.91382 240.739436 89.718228 240.739436 90.556871 
C 240.739436 91.395514 241.072633 92.199922 241.665643 92.792932 
C 242.258653 93.385942 243.063061 93.719139 243.901704 93.719139 
z
" style="fill:#00ffff;fill-opacity:0.5;stroke:#00ffff;stroke-opacity:0.5;"/>
    <path clip-path="url(#pfdcf0d4fc2)" d="M 204.603898 142.240268 
C 205.442541 142.240268 206.246948 141.907072 206.839958 141.314062 
C 207.432968 140.721052 207.766165 139.916644 207.766165 139.078001 
C 207.766165 138.239359 207.432968 137.434951 206.839958 136.841941 
C 206.246948 136.248931 205.442541 135.915735 204.603898 135.915735 
C 203.765255 135.915735 202.960848 136.248931 202.367838 136.841941 
C 201.774827 137.434951 201.441631 138.239359 201.441631 139.078001 
C 201.441631 139.916644 201.774827 140.721052 202.367838 141.314062 
C 202.960848 141.907072 203.765255 142.240268 204.603898 142.240268 
z
" style="fill:#00ffff;fill-opacity:0.5;stroke:#00ffff;stroke-opacity:0.5;"/>
    <path clip-path="url(#pfdcf0d4fc2)" d="M 322.929412 83.457938 
C 323.768056 83.457938 324.572463 83.124741 325.165474 82.531731 
C 325.758484 81.93872 326.091681 81.134313 326.091681 80.295669 
C 326.091681 79.457026 325.758484 78.652618 325.165474 78.059607 
C 324.572463 77.466597 323.768056 77.1334 322.929412 77.1334 
C 322.090769 77.1334 321.286361 77.466597 320.69335 78.059607 
C 320.10034 78.652618 319.767143 79.457026 319.767143 80.295669 
C 319.767143 81.134313 320.10034 81.93872 320.69335 82.531731 
C 321.286361 83.124741 322.090769 83.457938 322.929412 83.457938 
z
" style="fill:#00ffff;fill-opacity:0.5;stroke:#00ffff;stroke-opacity:0.5;"/>
    <path clip-path="url(#pfdcf0d4fc2)" d="M 79.413687 266.253467 
C 80.252308 266.253467 81.056694 265.92028 81.649689 265.327285 
C 82.242684 264.73429 82.575872 263.929904 82.575872 263.091282 
C 82.575872 262.252661 82.242684 261.448275 81.649689 260.85528 
C 81.056694 260.262285 80.252308 259.929097 79.413687 259.929097 
C 78.575065 259.929097 77.770679 260.262285 77.177684 260.85528 
C 76.584689 261.448275 76.251502 262.252661 76.251502 263.091282 
C 76.251502 263.929904 76.584689 264.73429 77.177684 265.327285 
C 77.770679 265.92028 78.575065 266.253467 79.413687 266.253467 
z
" style="fill:#00ffff;fill-opacity:0.5;stroke:#00ffff;stroke-opacity:0.5;"/>
    <path clip-path="url(#pfdcf0d4fc2)" d="M 199.5537 180.859613 
C 200.392343 180.859613 201.19675 180.526416 201.78976 179.933406 
C 202.38277 179.340396 202.715967 178.535989 202.715967 177.697346 
C 202.715967 176.858703 202.38277 176.054296 201.78976 175.461286 
C 201.19675 174.868276 200.392343 174.53508 199.5537 174.53508 
C 198.715057 174.53508 197.91065 174.868276 197.31764 175.461286 
C 196.72463 176.054296 196.391434 176.858703 196.391434 177.697346 
C 196.391434 178.535989 196.72463 179.340396 197.31764 179.933406 
C 197.91065 180.526416 198.715057 180.859613 199.5537 180.859613 
z
" style="fill:#00ffff;fill-opacity:0.5;stroke:#00ffff;stroke-opacity:0.5;"/>
    <path clip-path="url(#pfdcf0d4fc2)" d="M 195.292327 126.156689 
C 196.13097 126.156689 196.935377 125.823492 197.528387 125.230482 
C 198.121397 124.637472 198.454594 123.833065 198.454594 122.994422 
C 198.454594 122.155779 198.121397 121.351372 197.528387 120.758362 
C 196.935377 120.165352 196.13097 119.832156 195.292327 119.832156 
C 194.453684 119.832156 193.649277 120.165352 193.056267 120.758362 
C 192.463257 121.351372 192.130061 122.155779 192.130061 122.994422 
C 192.130061 123.833065 192.463257 124.637472 193.056267 125.230482 
C 193.649277 125.823492 194.453684 126.156689 195.292327 126.156689 
z
" style="fill:#00ffff;fill-opacity:0.5;stroke:#00ffff;stroke-opacity:0.5;"/>
    <path clip-path="url(#pfdcf0d4fc2)" d="M 300.229258 93.235806 
C 301.067902 93.235806 301.872309 92.902609 302.46532 92.309599 
C 303.05833 91.716588 303.391527 90.912181 303.391527 90.073537 
C 303.391527 89.234894 303.05833 88.430486 302.46532 87.837476 
C 301.872309 87.244465 301.067902 86.911269 300.229258 86.911269 
C 299.390615 86.911269 298.586207 87.244465 297.993197 87.837476 
C 297.400186 88.430486 297.06699 89.234894 297.06699 90.073537 
C 297.06699 90.912181 297.400186 91.716588 297.993197 92.309599 
C 298.586207 92.902609 299.390615 93.235806 300.229258 93.235806 
z
" style="fill:#00ffff;fill-opacity:0.5;stroke:#00ffff;stroke-opacity:0.5;"/>
    <path clip-path="url(#pfdcf0d4fc2)" d="M 145.801913 214.979823 
C 146.640552 214.979823 147.444956 214.646628 148.037964 214.05362 
C 148.630971 213.460613 148.964166 212.656209 148.964166 211.81757 
C 148.964166 210.97893 148.630971 210.174526 148.037964 209.581519 
C 147.444956 208.988511 146.640552 208.655316 145.801913 208.655316 
C 144.963273 208.655316 144.15887 208.988511 143.565862 209.581519 
C 142.972854 210.174526 142.639659 210.97893 142.639659 211.81757 
C 142.639659 212.656209 142.972854 213.460613 143.565862 214.05362 
C 144.15887 214.646628 144.963273 214.979823 145.801913 214.979823 
z
" style="fill:#00ffff;fill-opacity:0.5;stroke:#00ffff;stroke-opacity:0.5;"/>
    <path clip-path="url(#pfdcf0d4fc2)" d="M 209.923405 151.621637 
C 210.762048 151.621637 211.566455 151.288441 212.159466 150.695431 
C 212.752476 150.102421 213.085672 149.298013 213.085672 148.45937 
C 213.085672 147.620727 212.752476 146.81632 212.159466 146.22331 
C 211.566455 145.6303 210.762048 145.297103 209.923405 145.297103 
C 209.084762 145.297103 208.280355 145.6303 207.687345 146.22331 
C 207.094335 146.81632 206.761138 147.620727 206.761138 148.45937 
C 206.761138 149.298013 207.094335 150.102421 207.687345 150.695431 
C 208.280355 151.288441 209.084762 151.621637 209.923405 151.621637 
z
" style="fill:#00ffff;fill-opacity:0.5;stroke:#00ffff;stroke-opacity:0.5;"/>
    <path clip-path="url(#pfdcf0d4fc2)" d="M 161.152473 139.849487 
C 161.991115 139.849487 162.79552 139.516292 163.388529 138.923283 
C 163.981538 138.330274 164.314734 137.525868 164.314734 136.687226 
C 164.314734 135.848585 163.981538 135.044179 163.388529 134.45117 
C 162.79552 133.858161 161.991115 133.524965 161.152473 133.524965 
C 160.313832 133.524965 159.509426 133.858161 158.916417 134.45117 
C 158.323408 135.044179 157.990212 135.848585 157.990212 136.687226 
C 157.990212 137.525868 158.323408 138.330274 158.916417 138.923283 
C 159.509426 139.516292 160.313832 139.849487 161.152473 139.849487 
z
" style="fill:#00ffff;fill-opacity:0.5;stroke:#00ffff;stroke-opacity:0.5;"/>
    <path clip-path="url(#pfdcf0d4fc2)" d="M 224.762985 143.154613 
C 225.601629 143.154613 226.406036 142.821417 226.999046 142.228406 
C 227.592056 141.635396 227.925253 140.830989 227.925253 139.992346 
C 227.925253 139.153703 227.592056 138.349295 226.999046 137.756285 
C 226.406036 137.163275 225.601629 136.830078 224.762985 136.830078 
C 223.924342 136.830078 223.119935 137.163275 222.526925 137.756285 
C 221.933915 138.349295 221.600718 139.153703 221.600718 139.992346 
C 221.600718 140.830989 221.933915 141.635396 222.526925 142.228406 
C 223.119935 142.821417 223.924342 143.154613 224.762985 143.154613 
z
" style="fill:#00ffff;fill-opacity:0.5;stroke:#00ffff;stroke-opacity:0.5;"/>
    <path clip-path="url(#pfdcf0d4fc2)" d="M 262.138245 105.882545 
C 262.976888 105.882545 263.781296 105.549349 264.374306 104.956338 
C 264.967317 104.363328 265.300513 103.558921 265.300513 102.720277 
C 265.300513 101.881634 264.967317 101.077227 264.374306 100.484216 
C 263.781296 99.891206 262.976888 99.55801 262.138245 99.55801 
C 261.299602 99.55801 260.495194 99.891206 259.902184 100.484216 
C 259.309174 101.077227 258.975977 101.881634 258.975977 102.720277 
C 258.975977 103.558921 259.309174 104.363328 259.902184 104.956338 
C 260.495194 105.549349 261.299602 105.882545 262.138245 105.882545 
z
" style="fill:#00ffff;fill-opacity:0.5;stroke:#00ffff;stroke-opacity:0.5;"/>
    <path clip-path="url(#pfdcf0d4fc2)" d="M 145.751588 192.881982 
C 146.590227 192.881982 147.394631 192.548787 147.987639 191.95578 
C 148.580646 191.362772 148.913841 190.558368 148.913841 189.719729 
C 148.913841 188.88109 148.580646 188.076686 147.987639 187.483678 
C 147.394631 186.890671 146.590227 186.557476 145.751588 186.557476 
C 144.912948 186.557476 144.108545 186.890671 143.515537 187.483678 
C 142.922529 188.076686 142.589334 188.88109 142.589334 189.719729 
C 142.589334 190.558368 142.922529 191.362772 143.515537 191.95578 
C 144.108545 192.548787 144.912948 192.881982 145.751588 192.881982 
z
" style="fill:#00ffff;fill-opacity:0.5;stroke:#00ffff;stroke-opacity:0.5;"/>
    <path clip-path="url(#pfdcf0d4fc2)" d="M 300.986597 102.237067 
C 301.825241 102.237067 302.629648 101.90387 303.222659 101.31086 
C 303.815669 100.717849 304.148866 99.913442 304.148866 99.074798 
C 304.148866 98.236155 303.815669 97.431747 303.222659 96.838737 
C 302.629648 96.245726 301.825241 95.91253 300.986597 95.91253 
C 300.147954 95.91253 299.343546 96.245726 298.750536 96.838737 
C 298.157525 97.431747 297.824329 98.236155 297.824329 99.074798 
C 297.824329 99.913442 298.157525 100.717849 298.750536 101.31086 
C 299.343546 101.90387 300.147954 102.237067 300.986597 102.237067 
z
" style="fill:#00ffff;fill-opacity:0.5;stroke:#00ffff;stroke-opacity:0.5;"/>
    <path clip-path="url(#pfdcf0d4fc2)" d="M 284.177248 132.383851 
C 285.015892 132.383851 285.820299 132.050654 286.41331 131.457644 
C 287.00632 130.864634 287.339517 130.060226 287.339517 129.221583 
C 287.339517 128.382939 287.00632 127.578532 286.41331 126.985521 
C 285.820299 126.392511 285.015892 126.059314 284.177248 126.059314 
C 283.338605 126.059314 282.534197 126.392511 281.941187 126.985521 
C 281.348177 127.578532 281.01498 128.382939 281.01498 129.221583 
C 281.01498 130.060226 281.348177 130.864634 281.941187 131.457644 
C 282.534197 132.050654 283.338605 132.383851 284.177248 132.383851 
z
" style="fill:#00ffff;fill-opacity:0.5;stroke:#00ffff;stroke-opacity:0.5;"/>
    <path clip-path="url(#pfdcf0d4fc2)" d="M 256.585146 132.502339 
C 257.423789 132.502339 258.228197 132.169143 258.821207 131.576133 
C 259.414217 130.983122 259.747414 130.178715 259.747414 129.340072 
C 259.747414 128.501428 259.414217 127.697021 258.821207 127.104011 
C 258.228197 126.511 257.423789 126.177804 256.585146 126.177804 
C 255.746503 126.177804 254.942095 126.511 254.349085 127.104011 
C 253.756075 127.697021 253.422878 128.501428 253.422878 129.340072 
C 253.422878 130.178715 253.756075 130.983122 254.349085 131.576133 
C 254.942095 132.169143 255.746503 132.502339 256.585146 132.502339 
z
" style="fill:#00ffff;fill-opacity:0.5;stroke:#00ffff;stroke-opacity:0.5;"/>
    <path clip-path="url(#pfdcf0d4fc2)" d="M 284.126449 110.369983 
C 284.965092 110.369983 285.7695 110.036786 286.36251 109.443776 
C 286.955521 108.850765 287.288717 108.046358 287.288717 107.207715 
C 287.288717 106.369071 286.955521 105.564664 286.36251 104.971653 
C 285.7695 104.378643 284.965092 104.045446 284.126449 104.045446 
C 283.287806 104.045446 282.483398 104.378643 281.890388 104.971653 
C 281.297377 105.564664 280.964181 106.369071 280.964181 107.207715 
C 280.964181 108.046358 281.297377 108.850765 281.890388 109.443776 
C 282.483398 110.036786 283.287806 110.369983 284.126449 110.369983 
z
" style="fill:#00ffff;fill-opacity:0.5;stroke:#00ffff;stroke-opacity:0.5;"/>
    <path clip-path="url(#pfdcf0d4fc2)" d="M 174.573969 166.42638 
C 175.412611 166.42638 176.217017 166.093184 176.810027 165.500174 
C 177.403037 164.907165 177.736233 164.102758 177.736233 163.264116 
C 177.736233 162.425474 177.403037 161.621067 176.810027 161.028057 
C 176.217017 160.435048 175.412611 160.101852 174.573969 160.101852 
C 173.735326 160.101852 172.93092 160.435048 172.33791 161.028057 
C 171.7449 161.621067 171.411704 162.425474 171.411704 163.264116 
C 171.411704 164.102758 171.7449 164.907165 172.33791 165.500174 
C 172.93092 166.093184 173.735326 166.42638 174.573969 166.42638 
z
" style="fill:#00ffff;fill-opacity:0.5;stroke:#00ffff;stroke-opacity:0.5;"/>
    <path clip-path="url(#pfdcf0d4fc2)" d="M 213.348285 133.977 
C 214.186928 133.977 214.991335 133.643803 215.584345 133.050793 
C 216.177356 132.457783 216.510552 131.653376 216.510552 130.814733 
C 216.510552 129.97609 216.177356 129.171682 215.584345 128.578672 
C 214.991335 127.985662 214.186928 127.652465 213.348285 127.652465 
C 212.509642 127.652465 211.705235 127.985662 211.112224 128.578672 
C 210.519214 129.171682 210.186018 129.97609 210.186018 130.814733 
C 210.186018 131.653376 210.519214 132.457783 211.112224 133.050793 
C 211.705235 133.643803 212.509642 133.977 213.348285 133.977 
z
" style="fill:#00ffff;fill-opacity:0.5;stroke:#00ffff;stroke-opacity:0.5;"/>
    <path clip-path="url(#pfdcf0d4fc2)" d="M 157.148712 170.195608 
C 157.987353 170.195608 158.791758 169.862413 159.384767 169.269404 
C 159.977776 168.676395 160.310971 167.87199 160.310971 167.033349 
C 160.310971 166.194708 159.977776 165.390302 159.384767 164.797294 
C 158.791758 164.204285 157.987353 163.871089 157.148712 163.871089 
C 156.310071 163.871089 155.505665 164.204285 154.912657 164.797294 
C 154.319648 165.390302 153.986452 166.194708 153.986452 167.033349 
C 153.986452 167.87199 154.319648 168.676395 154.912657 169.269404 
C 155.505665 169.862413 156.310071 170.195608 157.148712 170.195608 
z
" style="fill:#00ffff;fill-opacity:0.5;stroke:#00ffff;stroke-opacity:0.5;"/>
    <path clip-path="url(#pfdcf0d4fc2)" d="M 203.32365 153.894639 
C 204.162293 153.894639 204.9667 153.561443 205.55971 152.968432 
C 206.15272 152.375422 206.485916 151.571015 206.485916 150.732372 
C 206.485916 149.893729 206.15272 149.089322 205.55971 148.496312 
C 204.9667 147.903302 204.162293 147.570105 203.32365 147.570105 
C 202.485007 147.570105 201.6806 147.903302 201.087589 148.496312 
C 200.494579 149.089322 200.161383 149.893729 200.161383 150.732372 
C 200.161383 151.571015 200.494579 152.375422 201.087589 152.968432 
C 201.6806 153.561443 202.485007 153.894639 203.32365 153.894639 
z
" style="fill:#00ffff;fill-opacity:0.5;stroke:#00ffff;stroke-opacity:0.5;"/>
    <path clip-path="url(#pfdcf0d4fc2)" d="M 258.511365 102.03268 
C 259.350008 102.03268 260.154416 101.699483 260.747426 101.106473 
C 261.340437 100.513463 261.673633 99.709055 261.673633 98.870412 
C 261.673633 98.031769 261.340437 97.227361 260.747426 96.634351 
C 260.154416 96.041341 259.350008 95.708144 258.511365 95.708144 
C 257.672722 95.708144 256.868314 96.041341 256.275304 96.634351 
C 255.682294 97.227361 255.349097 98.031769 255.349097 98.870412 
C 255.349097 99.709055 255.682294 100.513463 256.275304 101.106473 
C 256.868314 101.699483 257.672722 102.03268 258.511365 102.03268 
z
" style="fill:#00ffff;fill-opacity:0.5;stroke:#00ffff;stroke-opacity:0.5;"/>
   </g>
   <g id="PathCollection_3">
    <defs>
     <path d="M -2.236068 2.236068 
L 2.236068 -2.236068 
M -2.236068 -2.236068 
L 2.236068 2.236068 
" id="m8f0fcc8a70" style="stroke:#ff0000;stroke-width:1.5;"/>
    </defs>
    <g clip-path="url(#pfdcf0d4fc2)">
     <use style="fill:#ff0000;stroke:#ff0000;stroke-width:1.5;" x="311.142558" xlink:href="#m8f0fcc8a70" y="70.79453"/>
     <use style="fill:#ff0000;stroke:#ff0000;stroke-width:1.5;" x="323.60409" xlink:href="#m8f0fcc8a70" y="21.171282"/>
     <use style="fill:#ff0000;stroke:#ff0000;stroke-width:1.5;" x="251.70464" xlink:href="#m8f0fcc8a70" y="123.44319"/>
     <use style="fill:#ff0000;stroke:#ff0000;stroke-width:1.5;" x="382.250375" xlink:href="#m8f0fcc8a70" y="61.639762"/>
     <use style="fill:#ff0000;stroke:#ff0000;stroke-width:1.5;" x="263.55326" xlink:href="#m8f0fcc8a70" y="103.599052"/>
     <use style="fill:#ff0000;stroke:#ff0000;stroke-width:1.5;" x="296.451427" xlink:href="#m8f0fcc8a70" y="107.933313"/>
     <use style="fill:#ff0000;stroke:#ff0000;stroke-width:1.5;" x="342.932849" xlink:href="#m8f0fcc8a70" y="62.551213"/>
     <use style="fill:#ff0000;stroke:#ff0000;stroke-width:1.5;" x="282.501743" xlink:href="#m8f0fcc8a70" y="75.635434"/>
     <use style="fill:#ff0000;stroke:#ff0000;stroke-width:1.5;" x="288.97761" xlink:href="#m8f0fcc8a70" y="116.622063"/>
     <use style="fill:#ff0000;stroke:#ff0000;stroke-width:1.5;" x="294.12636" xlink:href="#m8f0fcc8a70" y="95.229621"/>
    </g>
   </g>
   <g id="PathCollection_4">
    <defs>
     <path d="M 0 2.236068 
C 0.593012 2.236068 1.161816 2.000462 1.581139 1.581139 
C 2.000462 1.161816 2.236068 0.593012 2.236068 0 
C 2.236068 -0.593012 2.000462 -1.161816 1.581139 -1.581139 
C 1.161816 -2.000462 0.593012 -2.236068 0 -2.236068 
C -0.593012 -2.236068 -1.161816 -2.000462 -1.581139 -1.581139 
C -2.000462 -1.161816 -2.236068 -0.593012 -2.236068 0 
C -2.236068 0.593012 -2.000462 1.161816 -1.581139 1.581139 
C -1.161816 2.000462 -0.593012 2.236068 0 2.236068 
z
" id="m1f4d62e5e2" style="stroke:#bfbf00;"/>
    </defs>
    <g clip-path="url(#pfdcf0d4fc2)">
     <use style="fill:#bfbf00;stroke:#bfbf00;" x="387.378835" xlink:href="#m1f4d62e5e2" y="40.113101"/>
     <use style="fill:#bfbf00;stroke:#bfbf00;" x="340.638503" xlink:href="#m1f4d62e5e2" y="65.620896"/>
     <use style="fill:#bfbf00;stroke:#bfbf00;" x="328.88488" xlink:href="#m1f4d62e5e2" y="86.503957"/>
     <use style="fill:#bfbf00;stroke:#bfbf00;" x="261.13151" xlink:href="#m1f4d62e5e2" y="119.018809"/>
     <use style="fill:#bfbf00;stroke:#bfbf00;" x="315.960318" xlink:href="#m1f4d62e5e2" y="91.796401"/>
    </g>
   </g>
   <g id="matplotlib.axis_1">
    <g id="xtick_1">
     <g id="line2d_1">
      <defs>
       <path d="M 0 0 
L 0 3.5 
" id="ma7d0d38a25" style="stroke:#000000;stroke-width:0.8;"/>
      </defs>
      <g>
       <use style="stroke:#000000;stroke-width:0.8;" x="49.003382" xlink:href="#ma7d0d38a25" y="275.187282"/>
      </g>
     </g>
     <g id="text_1">
      <!-- −4 -->
      <g transform="translate(41.632288 289.78572)scale(0.1 -0.1)">
       <defs>
        <path d="M 678 2272 
L 4684 2272 
L 4684 1741 
L 678 1741 
L 678 2272 
z
" id="DejaVuSans-2212" transform="scale(0.015625)"/>
        <path d="M 2419 4116 
L 825 1625 
L 2419 1625 
L 2419 4116 
z
M 2253 4666 
L 3047 4666 
L 3047 1625 
L 3713 1625 
L 3713 1100 
L 3047 1100 
L 3047 0 
L 2419 0 
L 2419 1100 
L 313 1100 
L 313 1709 
L 2253 4666 
z
" id="DejaVuSans-34" transform="scale(0.015625)"/>
       </defs>
       <use xlink:href="#DejaVuSans-2212"/>
       <use x="83.789062" xlink:href="#DejaVuSans-34"/>
      </g>
     </g>
    </g>
    <g id="xtick_2">
     <g id="line2d_2">
      <g>
       <use style="stroke:#000000;stroke-width:0.8;" x="118.13982" xlink:href="#ma7d0d38a25" y="275.187282"/>
      </g>
     </g>
     <g id="text_2">
      <!-- −2 -->
      <g transform="translate(110.768726 289.78572)scale(0.1 -0.1)">
       <defs>
        <path d="M 1228 531 
L 3431 531 
L 3431 0 
L 469 0 
L 469 531 
Q 828 903 1448 1529 
Q 2069 2156 2228 2338 
Q 2531 2678 2651 2914 
Q 2772 3150 2772 3378 
Q 2772 3750 2511 3984 
Q 2250 4219 1831 4219 
Q 1534 4219 1204 4116 
Q 875 4013 500 3803 
L 500 4441 
Q 881 4594 1212 4672 
Q 1544 4750 1819 4750 
Q 2544 4750 2975 4387 
Q 3406 4025 3406 3419 
Q 3406 3131 3298 2873 
Q 3191 2616 2906 2266 
Q 2828 2175 2409 1742 
Q 1991 1309 1228 531 
z
" id="DejaVuSans-32" transform="scale(0.015625)"/>
       </defs>
       <use xlink:href="#DejaVuSans-2212"/>
       <use x="83.789062" xlink:href="#DejaVuSans-32"/>
      </g>
     </g>
    </g>
    <g id="xtick_3">
     <g id="line2d_3">
      <g>
       <use style="stroke:#000000;stroke-width:0.8;" x="187.276258" xlink:href="#ma7d0d38a25" y="275.187282"/>
      </g>
     </g>
     <g id="text_3">
      <!-- 0 -->
      <g transform="translate(184.095008 289.78572)scale(0.1 -0.1)">
       <defs>
        <path d="M 2034 4250 
Q 1547 4250 1301 3770 
Q 1056 3291 1056 2328 
Q 1056 1369 1301 889 
Q 1547 409 2034 409 
Q 2525 409 2770 889 
Q 3016 1369 3016 2328 
Q 3016 3291 2770 3770 
Q 2525 4250 2034 4250 
z
M 2034 4750 
Q 2819 4750 3233 4129 
Q 3647 3509 3647 2328 
Q 3647 1150 3233 529 
Q 2819 -91 2034 -91 
Q 1250 -91 836 529 
Q 422 1150 422 2328 
Q 422 3509 836 4129 
Q 1250 4750 2034 4750 
z
" id="DejaVuSans-30" transform="scale(0.015625)"/>
       </defs>
       <use xlink:href="#DejaVuSans-30"/>
      </g>
     </g>
    </g>
    <g id="xtick_4">
     <g id="line2d_4">
      <g>
       <use style="stroke:#000000;stroke-width:0.8;" x="256.412696" xlink:href="#ma7d0d38a25" y="275.187282"/>
      </g>
     </g>
     <g id="text_4">
      <!-- 2 -->
      <g transform="translate(253.231446 289.78572)scale(0.1 -0.1)">
       <use xlink:href="#DejaVuSans-32"/>
      </g>
     </g>
    </g>
    <g id="xtick_5">
     <g id="line2d_5">
      <g>
       <use style="stroke:#000000;stroke-width:0.8;" x="325.549134" xlink:href="#ma7d0d38a25" y="275.187282"/>
      </g>
     </g>
     <g id="text_5">
      <!-- 4 -->
      <g transform="translate(322.367884 289.78572)scale(0.1 -0.1)">
       <use xlink:href="#DejaVuSans-34"/>
      </g>
     </g>
    </g>
    <g id="xtick_6">
     <g id="line2d_6">
      <g>
       <use style="stroke:#000000;stroke-width:0.8;" x="394.685572" xlink:href="#ma7d0d38a25" y="275.187282"/>
      </g>
     </g>
     <g id="text_6">
      <!-- 6 -->
      <g transform="translate(391.504322 289.78572)scale(0.1 -0.1)">
       <defs>
        <path d="M 2113 2584 
Q 1688 2584 1439 2293 
Q 1191 2003 1191 1497 
Q 1191 994 1439 701 
Q 1688 409 2113 409 
Q 2538 409 2786 701 
Q 3034 994 3034 1497 
Q 3034 2003 2786 2293 
Q 2538 2584 2113 2584 
z
M 3366 4563 
L 3366 3988 
Q 3128 4100 2886 4159 
Q 2644 4219 2406 4219 
Q 1781 4219 1451 3797 
Q 1122 3375 1075 2522 
Q 1259 2794 1537 2939 
Q 1816 3084 2150 3084 
Q 2853 3084 3261 2657 
Q 3669 2231 3669 1497 
Q 3669 778 3244 343 
Q 2819 -91 2113 -91 
Q 1303 -91 875 529 
Q 447 1150 447 2328 
Q 447 3434 972 4092 
Q 1497 4750 2381 4750 
Q 2619 4750 2861 4703 
Q 3103 4656 3366 4563 
z
" id="DejaVuSans-36" transform="scale(0.015625)"/>
       </defs>
       <use xlink:href="#DejaVuSans-36"/>
      </g>
     </g>
    </g>
    <g id="text_7">
     <!-- x -->
     <g transform="translate(220.908438 306.50322)scale(0.14 -0.14)">
      <defs>
       <path d="M 3513 3500 
L 2247 1797 
L 3578 0 
L 2900 0 
L 1881 1375 
L 863 0 
L 184 0 
L 1544 1831 
L 300 3500 
L 978 3500 
L 1906 2253 
L 2834 3500 
L 3513 3500 
z
" id="DejaVuSans-78" transform="scale(0.015625)"/>
      </defs>
      <use xlink:href="#DejaVuSans-78"/>
     </g>
    </g>
   </g>
   <g id="matplotlib.axis_2">
    <g id="ytick_1">
     <g id="line2d_7">
      <defs>
       <path d="M 0 0 
L -3.5 0 
" id="m2880fd4dbb" style="stroke:#000000;stroke-width:0.8;"/>
      </defs>
      <g>
       <use style="stroke:#000000;stroke-width:0.8;" x="46.491563" xlink:href="#m2880fd4dbb" y="247.160392"/>
      </g>
     </g>
     <g id="text_8">
      <!-- −5 -->
      <g transform="translate(24.749375 250.95961)scale(0.1 -0.1)">
       <defs>
        <path d="M 691 4666 
L 3169 4666 
L 3169 4134 
L 1269 4134 
L 1269 2991 
Q 1406 3038 1543 3061 
Q 1681 3084 1819 3084 
Q 2600 3084 3056 2656 
Q 3513 2228 3513 1497 
Q 3513 744 3044 326 
Q 2575 -91 1722 -91 
Q 1428 -91 1123 -41 
Q 819 9 494 109 
L 494 744 
Q 775 591 1075 516 
Q 1375 441 1709 441 
Q 2250 441 2565 725 
Q 2881 1009 2881 1497 
Q 2881 1984 2565 2268 
Q 2250 2553 1709 2553 
Q 1456 2553 1204 2497 
Q 953 2441 691 2322 
L 691 4666 
z
" id="DejaVuSans-35" transform="scale(0.015625)"/>
       </defs>
       <use xlink:href="#DejaVuSans-2212"/>
       <use x="83.789062" xlink:href="#DejaVuSans-35"/>
      </g>
     </g>
    </g>
    <g id="ytick_2">
     <g id="line2d_8">
      <g>
       <use style="stroke:#000000;stroke-width:0.8;" x="46.491563" xlink:href="#m2880fd4dbb" y="207.800196"/>
      </g>
     </g>
     <g id="text_9">
      <!-- 0 -->
      <g transform="translate(33.129063 211.599415)scale(0.1 -0.1)">
       <use xlink:href="#DejaVuSans-30"/>
      </g>
     </g>
    </g>
    <g id="ytick_3">
     <g id="line2d_9">
      <g>
       <use style="stroke:#000000;stroke-width:0.8;" x="46.491563" xlink:href="#m2880fd4dbb" y="168.440001"/>
      </g>
     </g>
     <g id="text_10">
      <!-- 5 -->
      <g transform="translate(33.129063 172.239219)scale(0.1 -0.1)">
       <use xlink:href="#DejaVuSans-35"/>
      </g>
     </g>
    </g>
    <g id="ytick_4">
     <g id="line2d_10">
      <g>
       <use style="stroke:#000000;stroke-width:0.8;" x="46.491563" xlink:href="#m2880fd4dbb" y="129.079805"/>
      </g>
     </g>
     <g id="text_11">
      <!-- 10 -->
      <g transform="translate(26.766562 132.879024)scale(0.1 -0.1)">
       <defs>
        <path d="M 794 531 
L 1825 531 
L 1825 4091 
L 703 3866 
L 703 4441 
L 1819 4666 
L 2450 4666 
L 2450 531 
L 3481 531 
L 3481 0 
L 794 0 
L 794 531 
z
" id="DejaVuSans-31" transform="scale(0.015625)"/>
       </defs>
       <use xlink:href="#DejaVuSans-31"/>
       <use x="63.623047" xlink:href="#DejaVuSans-30"/>
      </g>
     </g>
    </g>
    <g id="ytick_5">
     <g id="line2d_11">
      <g>
       <use style="stroke:#000000;stroke-width:0.8;" x="46.491563" xlink:href="#m2880fd4dbb" y="89.71961"/>
      </g>
     </g>
     <g id="text_12">
      <!-- 15 -->
      <g transform="translate(26.766562 93.518828)scale(0.1 -0.1)">
       <use xlink:href="#DejaVuSans-31"/>
       <use x="63.623047" xlink:href="#DejaVuSans-35"/>
      </g>
     </g>
    </g>
    <g id="ytick_6">
     <g id="line2d_12">
      <g>
       <use style="stroke:#000000;stroke-width:0.8;" x="46.491563" xlink:href="#m2880fd4dbb" y="50.359414"/>
      </g>
     </g>
     <g id="text_13">
      <!-- 20 -->
      <g transform="translate(26.766562 54.158633)scale(0.1 -0.1)">
       <use xlink:href="#DejaVuSans-32"/>
       <use x="63.623047" xlink:href="#DejaVuSans-30"/>
      </g>
     </g>
    </g>
    <g id="ytick_7">
     <g id="line2d_13">
      <g>
       <use style="stroke:#000000;stroke-width:0.8;" x="46.491563" xlink:href="#m2880fd4dbb" y="10.999219"/>
      </g>
     </g>
     <g id="text_14">
      <!-- 25 -->
      <g transform="translate(26.766562 14.798438)scale(0.1 -0.1)">
       <use xlink:href="#DejaVuSans-32"/>
       <use x="63.623047" xlink:href="#DejaVuSans-35"/>
      </g>
     </g>
    </g>
    <g id="text_15">
     <!-- y -->
     <g transform="translate(17.837812 146.274407)rotate(-90)scale(0.14 -0.14)">
      <defs>
       <path d="M 2059 -325 
Q 1816 -950 1584 -1140 
Q 1353 -1331 966 -1331 
L 506 -1331 
L 506 -850 
L 844 -850 
Q 1081 -850 1212 -737 
Q 1344 -625 1503 -206 
L 1606 56 
L 191 3500 
L 800 3500 
L 1894 763 
L 2988 3500 
L 3597 3500 
L 2059 -325 
z
" id="DejaVuSans-79" transform="scale(0.015625)"/>
      </defs>
      <use xlink:href="#DejaVuSans-79"/>
     </g>
    </g>
   </g>
   <g id="patch_3">
    <path d="M 46.491563 275.187282 
L 46.491563 9.075282 
" style="fill:none;stroke:#000000;stroke-linecap:square;stroke-linejoin:miter;stroke-width:0.8;"/>
   </g>
   <g id="patch_4">
    <path d="M 403.611563 275.187282 
L 403.611563 9.075282 
" style="fill:none;stroke:#000000;stroke-linecap:square;stroke-linejoin:miter;stroke-width:0.8;"/>
   </g>
   <g id="patch_5">
    <path d="M 46.491563 275.187282 
L 403.611562 275.187282 
" style="fill:none;stroke:#000000;stroke-linecap:square;stroke-linejoin:miter;stroke-width:0.8;"/>
   </g>
   <g id="patch_6">
    <path d="M 46.491563 9.075282 
L 403.611562 9.075282 
" style="fill:none;stroke:#000000;stroke-linecap:square;stroke-linejoin:miter;stroke-width:0.8;"/>
   </g>
   <g id="legend_1">
    <g id="patch_7">
     <path d="M 54.891562 71.516532 
L 184.879687 71.516532 
Q 187.279687 71.516532 187.279687 69.116532 
L 187.279687 17.475282 
Q 187.279687 15.075282 184.879687 15.075282 
L 54.891562 15.075282 
Q 52.491563 15.075282 52.491563 17.475282 
L 52.491563 69.116532 
Q 52.491563 71.516532 54.891562 71.516532 
z
" style="fill:#ffffff;opacity:0.8;stroke:#cccccc;stroke-linejoin:miter;"/>
    </g>
    <g id="PathCollection_5">
     <g>
      <use style="stroke:#000000;stroke-width:1.5;" x="69.291562" xlink:href="#m37d6cdab95" y="25.843407"/>
     </g>
    </g>
    <g id="text_16">
     <!-- Source Domain -->
     <g transform="translate(90.891562 28.993407)scale(0.12 -0.12)">
      <defs>
       <path d="M 3425 4513 
L 3425 3897 
Q 3066 4069 2747 4153 
Q 2428 4238 2131 4238 
Q 1616 4238 1336 4038 
Q 1056 3838 1056 3469 
Q 1056 3159 1242 3001 
Q 1428 2844 1947 2747 
L 2328 2669 
Q 3034 2534 3370 2195 
Q 3706 1856 3706 1288 
Q 3706 609 3251 259 
Q 2797 -91 1919 -91 
Q 1588 -91 1214 -16 
Q 841 59 441 206 
L 441 856 
Q 825 641 1194 531 
Q 1563 422 1919 422 
Q 2459 422 2753 634 
Q 3047 847 3047 1241 
Q 3047 1584 2836 1778 
Q 2625 1972 2144 2069 
L 1759 2144 
Q 1053 2284 737 2584 
Q 422 2884 422 3419 
Q 422 4038 858 4394 
Q 1294 4750 2059 4750 
Q 2388 4750 2728 4690 
Q 3069 4631 3425 4513 
z
" id="DejaVuSans-53" transform="scale(0.015625)"/>
       <path d="M 1959 3097 
Q 1497 3097 1228 2736 
Q 959 2375 959 1747 
Q 959 1119 1226 758 
Q 1494 397 1959 397 
Q 2419 397 2687 759 
Q 2956 1122 2956 1747 
Q 2956 2369 2687 2733 
Q 2419 3097 1959 3097 
z
M 1959 3584 
Q 2709 3584 3137 3096 
Q 3566 2609 3566 1747 
Q 3566 888 3137 398 
Q 2709 -91 1959 -91 
Q 1206 -91 779 398 
Q 353 888 353 1747 
Q 353 2609 779 3096 
Q 1206 3584 1959 3584 
z
" id="DejaVuSans-6f" transform="scale(0.015625)"/>
       <path d="M 544 1381 
L 544 3500 
L 1119 3500 
L 1119 1403 
Q 1119 906 1312 657 
Q 1506 409 1894 409 
Q 2359 409 2629 706 
Q 2900 1003 2900 1516 
L 2900 3500 
L 3475 3500 
L 3475 0 
L 2900 0 
L 2900 538 
Q 2691 219 2414 64 
Q 2138 -91 1772 -91 
Q 1169 -91 856 284 
Q 544 659 544 1381 
z
M 1991 3584 
L 1991 3584 
z
" id="DejaVuSans-75" transform="scale(0.015625)"/>
       <path d="M 2631 2963 
Q 2534 3019 2420 3045 
Q 2306 3072 2169 3072 
Q 1681 3072 1420 2755 
Q 1159 2438 1159 1844 
L 1159 0 
L 581 0 
L 581 3500 
L 1159 3500 
L 1159 2956 
Q 1341 3275 1631 3429 
Q 1922 3584 2338 3584 
Q 2397 3584 2469 3576 
Q 2541 3569 2628 3553 
L 2631 2963 
z
" id="DejaVuSans-72" transform="scale(0.015625)"/>
       <path d="M 3122 3366 
L 3122 2828 
Q 2878 2963 2633 3030 
Q 2388 3097 2138 3097 
Q 1578 3097 1268 2742 
Q 959 2388 959 1747 
Q 959 1106 1268 751 
Q 1578 397 2138 397 
Q 2388 397 2633 464 
Q 2878 531 3122 666 
L 3122 134 
Q 2881 22 2623 -34 
Q 2366 -91 2075 -91 
Q 1284 -91 818 406 
Q 353 903 353 1747 
Q 353 2603 823 3093 
Q 1294 3584 2113 3584 
Q 2378 3584 2631 3529 
Q 2884 3475 3122 3366 
z
" id="DejaVuSans-63" transform="scale(0.015625)"/>
       <path d="M 3597 1894 
L 3597 1613 
L 953 1613 
Q 991 1019 1311 708 
Q 1631 397 2203 397 
Q 2534 397 2845 478 
Q 3156 559 3463 722 
L 3463 178 
Q 3153 47 2828 -22 
Q 2503 -91 2169 -91 
Q 1331 -91 842 396 
Q 353 884 353 1716 
Q 353 2575 817 3079 
Q 1281 3584 2069 3584 
Q 2775 3584 3186 3129 
Q 3597 2675 3597 1894 
z
M 3022 2063 
Q 3016 2534 2758 2815 
Q 2500 3097 2075 3097 
Q 1594 3097 1305 2825 
Q 1016 2553 972 2059 
L 3022 2063 
z
" id="DejaVuSans-65" transform="scale(0.015625)"/>
       <path id="DejaVuSans-20" transform="scale(0.015625)"/>
       <path d="M 1259 4147 
L 1259 519 
L 2022 519 
Q 2988 519 3436 956 
Q 3884 1394 3884 2338 
Q 3884 3275 3436 3711 
Q 2988 4147 2022 4147 
L 1259 4147 
z
M 628 4666 
L 1925 4666 
Q 3281 4666 3915 4102 
Q 4550 3538 4550 2338 
Q 4550 1131 3912 565 
Q 3275 0 1925 0 
L 628 0 
L 628 4666 
z
" id="DejaVuSans-44" transform="scale(0.015625)"/>
       <path d="M 3328 2828 
Q 3544 3216 3844 3400 
Q 4144 3584 4550 3584 
Q 5097 3584 5394 3201 
Q 5691 2819 5691 2113 
L 5691 0 
L 5113 0 
L 5113 2094 
Q 5113 2597 4934 2840 
Q 4756 3084 4391 3084 
Q 3944 3084 3684 2787 
Q 3425 2491 3425 1978 
L 3425 0 
L 2847 0 
L 2847 2094 
Q 2847 2600 2669 2842 
Q 2491 3084 2119 3084 
Q 1678 3084 1418 2786 
Q 1159 2488 1159 1978 
L 1159 0 
L 581 0 
L 581 3500 
L 1159 3500 
L 1159 2956 
Q 1356 3278 1631 3431 
Q 1906 3584 2284 3584 
Q 2666 3584 2933 3390 
Q 3200 3197 3328 2828 
z
" id="DejaVuSans-6d" transform="scale(0.015625)"/>
       <path d="M 2194 1759 
Q 1497 1759 1228 1600 
Q 959 1441 959 1056 
Q 959 750 1161 570 
Q 1363 391 1709 391 
Q 2188 391 2477 730 
Q 2766 1069 2766 1631 
L 2766 1759 
L 2194 1759 
z
M 3341 1997 
L 3341 0 
L 2766 0 
L 2766 531 
Q 2569 213 2275 61 
Q 1981 -91 1556 -91 
Q 1019 -91 701 211 
Q 384 513 384 1019 
Q 384 1609 779 1909 
Q 1175 2209 1959 2209 
L 2766 2209 
L 2766 2266 
Q 2766 2663 2505 2880 
Q 2244 3097 1772 3097 
Q 1472 3097 1187 3025 
Q 903 2953 641 2809 
L 641 3341 
Q 956 3463 1253 3523 
Q 1550 3584 1831 3584 
Q 2591 3584 2966 3190 
Q 3341 2797 3341 1997 
z
" id="DejaVuSans-61" transform="scale(0.015625)"/>
       <path d="M 603 3500 
L 1178 3500 
L 1178 0 
L 603 0 
L 603 3500 
z
M 603 4863 
L 1178 4863 
L 1178 4134 
L 603 4134 
L 603 4863 
z
" id="DejaVuSans-69" transform="scale(0.015625)"/>
       <path d="M 3513 2113 
L 3513 0 
L 2938 0 
L 2938 2094 
Q 2938 2591 2744 2837 
Q 2550 3084 2163 3084 
Q 1697 3084 1428 2787 
Q 1159 2491 1159 1978 
L 1159 0 
L 581 0 
L 581 3500 
L 1159 3500 
L 1159 2956 
Q 1366 3272 1645 3428 
Q 1925 3584 2291 3584 
Q 2894 3584 3203 3211 
Q 3513 2838 3513 2113 
z
" id="DejaVuSans-6e" transform="scale(0.015625)"/>
      </defs>
      <use xlink:href="#DejaVuSans-53"/>
      <use x="63.476562" xlink:href="#DejaVuSans-6f"/>
      <use x="124.658203" xlink:href="#DejaVuSans-75"/>
      <use x="188.037109" xlink:href="#DejaVuSans-72"/>
      <use x="226.900391" xlink:href="#DejaVuSans-63"/>
      <use x="281.880859" xlink:href="#DejaVuSans-65"/>
      <use x="343.404297" xlink:href="#DejaVuSans-20"/>
      <use x="375.191406" xlink:href="#DejaVuSans-44"/>
      <use x="452.193359" xlink:href="#DejaVuSans-6f"/>
      <use x="513.375" xlink:href="#DejaVuSans-6d"/>
      <use x="610.787109" xlink:href="#DejaVuSans-61"/>
      <use x="672.066406" xlink:href="#DejaVuSans-69"/>
      <use x="699.849609" xlink:href="#DejaVuSans-6e"/>
     </g>
    </g>
    <g id="PathCollection_6">
     <g>
      <use style="fill:#ff0000;stroke:#ff0000;stroke-width:1.5;" x="69.291562" xlink:href="#m8f0fcc8a70" y="43.457157"/>
     </g>
    </g>
    <g id="text_17">
     <!-- Target Domain -->
     <g transform="translate(90.891562 46.607157)scale(0.12 -0.12)">
      <defs>
       <path d="M -19 4666 
L 3928 4666 
L 3928 4134 
L 2272 4134 
L 2272 0 
L 1638 0 
L 1638 4134 
L -19 4134 
L -19 4666 
z
" id="DejaVuSans-54" transform="scale(0.015625)"/>
       <path d="M 2906 1791 
Q 2906 2416 2648 2759 
Q 2391 3103 1925 3103 
Q 1463 3103 1205 2759 
Q 947 2416 947 1791 
Q 947 1169 1205 825 
Q 1463 481 1925 481 
Q 2391 481 2648 825 
Q 2906 1169 2906 1791 
z
M 3481 434 
Q 3481 -459 3084 -895 
Q 2688 -1331 1869 -1331 
Q 1566 -1331 1297 -1286 
Q 1028 -1241 775 -1147 
L 775 -588 
Q 1028 -725 1275 -790 
Q 1522 -856 1778 -856 
Q 2344 -856 2625 -561 
Q 2906 -266 2906 331 
L 2906 616 
Q 2728 306 2450 153 
Q 2172 0 1784 0 
Q 1141 0 747 490 
Q 353 981 353 1791 
Q 353 2603 747 3093 
Q 1141 3584 1784 3584 
Q 2172 3584 2450 3431 
Q 2728 3278 2906 2969 
L 2906 3500 
L 3481 3500 
L 3481 434 
z
" id="DejaVuSans-67" transform="scale(0.015625)"/>
       <path d="M 1172 4494 
L 1172 3500 
L 2356 3500 
L 2356 3053 
L 1172 3053 
L 1172 1153 
Q 1172 725 1289 603 
Q 1406 481 1766 481 
L 2356 481 
L 2356 0 
L 1766 0 
Q 1100 0 847 248 
Q 594 497 594 1153 
L 594 3053 
L 172 3053 
L 172 3500 
L 594 3500 
L 594 4494 
L 1172 4494 
z
" id="DejaVuSans-74" transform="scale(0.015625)"/>
      </defs>
      <use xlink:href="#DejaVuSans-54"/>
      <use x="44.583984" xlink:href="#DejaVuSans-61"/>
      <use x="105.863281" xlink:href="#DejaVuSans-72"/>
      <use x="145.226562" xlink:href="#DejaVuSans-67"/>
      <use x="208.703125" xlink:href="#DejaVuSans-65"/>
      <use x="270.226562" xlink:href="#DejaVuSans-74"/>
      <use x="309.435547" xlink:href="#DejaVuSans-20"/>
      <use x="341.222656" xlink:href="#DejaVuSans-44"/>
      <use x="418.224609" xlink:href="#DejaVuSans-6f"/>
      <use x="479.40625" xlink:href="#DejaVuSans-6d"/>
      <use x="576.818359" xlink:href="#DejaVuSans-61"/>
      <use x="638.097656" xlink:href="#DejaVuSans-69"/>
      <use x="665.880859" xlink:href="#DejaVuSans-6e"/>
     </g>
    </g>
    <g id="PathCollection_7">
     <g>
      <use style="fill:#bfbf00;stroke:#bfbf00;" x="69.291562" xlink:href="#m1f4d62e5e2" y="61.070907"/>
     </g>
    </g>
    <g id="text_18">
     <!-- Test Data -->
     <g transform="translate(90.891562 64.220907)scale(0.12 -0.12)">
      <defs>
       <path d="M 2834 3397 
L 2834 2853 
Q 2591 2978 2328 3040 
Q 2066 3103 1784 3103 
Q 1356 3103 1142 2972 
Q 928 2841 928 2578 
Q 928 2378 1081 2264 
Q 1234 2150 1697 2047 
L 1894 2003 
Q 2506 1872 2764 1633 
Q 3022 1394 3022 966 
Q 3022 478 2636 193 
Q 2250 -91 1575 -91 
Q 1294 -91 989 -36 
Q 684 19 347 128 
L 347 722 
Q 666 556 975 473 
Q 1284 391 1588 391 
Q 1994 391 2212 530 
Q 2431 669 2431 922 
Q 2431 1156 2273 1281 
Q 2116 1406 1581 1522 
L 1381 1569 
Q 847 1681 609 1914 
Q 372 2147 372 2553 
Q 372 3047 722 3315 
Q 1072 3584 1716 3584 
Q 2034 3584 2315 3537 
Q 2597 3491 2834 3397 
z
" id="DejaVuSans-73" transform="scale(0.015625)"/>
      </defs>
      <use xlink:href="#DejaVuSans-54"/>
      <use x="44.083984" xlink:href="#DejaVuSans-65"/>
      <use x="105.607422" xlink:href="#DejaVuSans-73"/>
      <use x="157.707031" xlink:href="#DejaVuSans-74"/>
      <use x="196.916016" xlink:href="#DejaVuSans-20"/>
      <use x="228.703125" xlink:href="#DejaVuSans-44"/>
      <use x="305.705078" xlink:href="#DejaVuSans-61"/>
      <use x="366.984375" xlink:href="#DejaVuSans-74"/>
      <use x="406.193359" xlink:href="#DejaVuSans-61"/>
     </g>
    </g>
   </g>
  </g>
 </g>
 <defs>
  <clipPath id="pfdcf0d4fc2">
   <rect height="266.112" width="357.12" x="46.491563" y="9.075282"/>
  </clipPath>
 </defs>
</svg>
