<?xml version="1.0" encoding="utf-8" standalone="no"?>
<!DOCTYPE svg PUBLIC "-//W3C//DTD SVG 1.1//EN"
  "http://www.w3.org/Graphics/SVG/1.1/DTD/svg11.dtd">
<svg height="316.614782pt" version="1.1" viewBox="0 0 410.811562 316.614782" width="410.811562pt" xmlns="http://www.w3.org/2000/svg" xmlns:xlink="http://www.w3.org/1999/xlink">
 <metadata>
  <rdf:RDF xmlns:cc="http://creativecommons.org/ns#" xmlns:dc="http://purl.org/dc/elements/1.1/" xmlns:rdf="http://www.w3.org/1999/02/22-rdf-syntax-ns#">
   <cc:Work>
    <dc:type rdf:resource="http://purl.org/dc/dcmitype/StillImage"/>
    <dc:date>2023-05-15T16:57:41.699034</dc:date>
    <dc:format>image/svg+xml</dc:format>
    <dc:creator>
     <cc:Agent>
      <dc:title>Matplotlib v3.4.3, https://matplotlib.org/</dc:title>
     </cc:Agent>
    </dc:creator>
   </cc:Work>
  </rdf:RDF>
 </metadata>
 <defs>
  <style type="text/css">*{stroke-linecap:butt;stroke-linejoin:round;}</style>
 </defs>
 <g id="figure_1">
  <g id="patch_1">
   <path d="M 0 316.614782 
L 410.811562 316.614782 
L 410.811562 0 
L 0 0 
z
" style="fill:#ffffff;"/>
  </g>
  <g id="axes_1">
   <g id="patch_2">
    <path d="M 46.491563 275.187282 
L 403.611563 275.187282 
L 403.611563 9.075282 
L 46.491563 9.075282 
z
" style="fill:#ffffff;"/>
   </g>
   <g id="PathCollection_1">
    <defs>
     <path d="M -2.236068 2.236068 
L 2.236068 -2.236068 
M -2.236068 -2.236068 
L 2.236068 2.236068 
" id="m3d6d8b8e71" style="stroke:#000000;stroke-width:1.5;"/>
    </defs>
    <g clip-path="url(#pe2e4bdba8f)">
     <use style="stroke:#000000;stroke-width:1.5;" x="334.14593" xlink:href="#m3d6d8b8e71" y="84.436764"/>
     <use style="stroke:#000000;stroke-width:1.5;" x="179.549818" xlink:href="#m3d6d8b8e71" y="183.088284"/>
     <use style="stroke:#000000;stroke-width:1.5;" x="185.328564" xlink:href="#m3d6d8b8e71" y="185.998966"/>
     <use style="stroke:#000000;stroke-width:1.5;" x="147.663249" xlink:href="#m3d6d8b8e71" y="215.463064"/>
     <use style="stroke:#000000;stroke-width:1.5;" x="281.675678" xlink:href="#m3d6d8b8e71" y="119.800975"/>
     <use style="stroke:#000000;stroke-width:1.5;" x="62.72429" xlink:href="#m3d6d8b8e71" y="253.829788"/>
     <use style="stroke:#000000;stroke-width:1.5;" x="342.474548" xlink:href="#m3d6d8b8e71" y="88.799057"/>
     <use style="stroke:#000000;stroke-width:1.5;" x="169.217344" xlink:href="#m3d6d8b8e71" y="175.241398"/>
     <use style="stroke:#000000;stroke-width:1.5;" x="243.901704" xlink:href="#m3d6d8b8e71" y="90.556871"/>
     <use style="stroke:#000000;stroke-width:1.5;" x="204.603898" xlink:href="#m3d6d8b8e71" y="139.078001"/>
     <use style="stroke:#000000;stroke-width:1.5;" x="322.929412" xlink:href="#m3d6d8b8e71" y="80.295669"/>
     <use style="stroke:#000000;stroke-width:1.5;" x="79.413687" xlink:href="#m3d6d8b8e71" y="263.091282"/>
     <use style="stroke:#000000;stroke-width:1.5;" x="199.5537" xlink:href="#m3d6d8b8e71" y="177.697346"/>
     <use style="stroke:#000000;stroke-width:1.5;" x="195.292327" xlink:href="#m3d6d8b8e71" y="122.994422"/>
     <use style="stroke:#000000;stroke-width:1.5;" x="300.229258" xlink:href="#m3d6d8b8e71" y="90.073537"/>
     <use style="stroke:#000000;stroke-width:1.5;" x="145.801913" xlink:href="#m3d6d8b8e71" y="211.81757"/>
     <use style="stroke:#000000;stroke-width:1.5;" x="209.923405" xlink:href="#m3d6d8b8e71" y="148.45937"/>
     <use style="stroke:#000000;stroke-width:1.5;" x="161.152473" xlink:href="#m3d6d8b8e71" y="136.687226"/>
     <use style="stroke:#000000;stroke-width:1.5;" x="224.762985" xlink:href="#m3d6d8b8e71" y="139.992346"/>
     <use style="stroke:#000000;stroke-width:1.5;" x="262.138245" xlink:href="#m3d6d8b8e71" y="102.720277"/>
     <use style="stroke:#000000;stroke-width:1.5;" x="145.751588" xlink:href="#m3d6d8b8e71" y="189.719729"/>
     <use style="stroke:#000000;stroke-width:1.5;" x="300.986597" xlink:href="#m3d6d8b8e71" y="99.074798"/>
     <use style="stroke:#000000;stroke-width:1.5;" x="284.177248" xlink:href="#m3d6d8b8e71" y="129.221583"/>
     <use style="stroke:#000000;stroke-width:1.5;" x="256.585146" xlink:href="#m3d6d8b8e71" y="129.340072"/>
     <use style="stroke:#000000;stroke-width:1.5;" x="284.126449" xlink:href="#m3d6d8b8e71" y="107.207715"/>
     <use style="stroke:#000000;stroke-width:1.5;" x="174.573969" xlink:href="#m3d6d8b8e71" y="163.264116"/>
     <use style="stroke:#000000;stroke-width:1.5;" x="213.348285" xlink:href="#m3d6d8b8e71" y="130.814733"/>
     <use style="stroke:#000000;stroke-width:1.5;" x="157.148712" xlink:href="#m3d6d8b8e71" y="167.033349"/>
     <use style="stroke:#000000;stroke-width:1.5;" x="203.32365" xlink:href="#m3d6d8b8e71" y="150.732372"/>
     <use style="stroke:#000000;stroke-width:1.5;" x="258.511365" xlink:href="#m3d6d8b8e71" y="98.870412"/>
    </g>
   </g>
   <g id="PathCollection_2">
    <defs>
     <path d="M -2.236068 2.236068 
L 2.236068 -2.236068 
M -2.236068 -2.236068 
L 2.236068 2.236068 
" id="m7bd7352a09" style="stroke:#ff0000;stroke-width:1.5;"/>
    </defs>
    <g clip-path="url(#pe2e4bdba8f)">
     <use style="fill:#ff0000;stroke:#ff0000;stroke-width:1.5;" x="311.142558" xlink:href="#m7bd7352a09" y="70.79453"/>
     <use style="fill:#ff0000;stroke:#ff0000;stroke-width:1.5;" x="323.60409" xlink:href="#m7bd7352a09" y="21.171282"/>
     <use style="fill:#ff0000;stroke:#ff0000;stroke-width:1.5;" x="251.70464" xlink:href="#m7bd7352a09" y="123.44319"/>
     <use style="fill:#ff0000;stroke:#ff0000;stroke-width:1.5;" x="382.250375" xlink:href="#m7bd7352a09" y="61.639762"/>
     <use style="fill:#ff0000;stroke:#ff0000;stroke-width:1.5;" x="263.55326" xlink:href="#m7bd7352a09" y="103.599052"/>
     <use style="fill:#ff0000;stroke:#ff0000;stroke-width:1.5;" x="296.451427" xlink:href="#m7bd7352a09" y="107.933313"/>
     <use style="fill:#ff0000;stroke:#ff0000;stroke-width:1.5;" x="342.932849" xlink:href="#m7bd7352a09" y="62.551213"/>
     <use style="fill:#ff0000;stroke:#ff0000;stroke-width:1.5;" x="282.501743" xlink:href="#m7bd7352a09" y="75.635434"/>
     <use style="fill:#ff0000;stroke:#ff0000;stroke-width:1.5;" x="288.97761" xlink:href="#m7bd7352a09" y="116.622063"/>
     <use style="fill:#ff0000;stroke:#ff0000;stroke-width:1.5;" x="294.12636" xlink:href="#m7bd7352a09" y="95.229621"/>
    </g>
   </g>
   <g id="PathCollection_3">
    <defs>
     <path d="M 0 2.236068 
C 0.593012 2.236068 1.161816 2.000462 1.581139 1.581139 
C 2.000462 1.161816 2.236068 0.593012 2.236068 0 
C 2.236068 -0.593012 2.000462 -1.161816 1.581139 -1.581139 
C 1.161816 -2.000462 0.593012 -2.236068 0 -2.236068 
C -0.593012 -2.236068 -1.161816 -2.000462 -1.581139 -1.581139 
C -2.000462 -1.161816 -2.236068 -0.593012 -2.236068 0 
C -2.236068 0.593012 -2.000462 1.161816 -1.581139 1.581139 
C -1.161816 2.000462 -0.593012 2.236068 0 2.236068 
z
" id="mdd263d5fa1" style="stroke:#bfbf00;"/>
    </defs>
    <g clip-path="url(#pe2e4bdba8f)">
     <use style="fill:#bfbf00;stroke:#bfbf00;" x="387.378835" xlink:href="#mdd263d5fa1" y="40.113101"/>
     <use style="fill:#bfbf00;stroke:#bfbf00;" x="340.638503" xlink:href="#mdd263d5fa1" y="65.620896"/>
     <use style="fill:#bfbf00;stroke:#bfbf00;" x="328.88488" xlink:href="#mdd263d5fa1" y="86.503957"/>
     <use style="fill:#bfbf00;stroke:#bfbf00;" x="261.13151" xlink:href="#mdd263d5fa1" y="119.018809"/>
     <use style="fill:#bfbf00;stroke:#bfbf00;" x="315.960318" xlink:href="#mdd263d5fa1" y="91.796401"/>
    </g>
   </g>
   <g id="matplotlib.axis_1">
    <g id="xtick_1">
     <g id="line2d_1">
      <defs>
       <path d="M 0 0 
L 0 3.5 
" id="mcfe5863449" style="stroke:#000000;stroke-width:0.8;"/>
      </defs>
      <g>
       <use style="stroke:#000000;stroke-width:0.8;" x="49.003382" xlink:href="#mcfe5863449" y="275.187282"/>
      </g>
     </g>
     <g id="text_1">
      <!-- −4 -->
      <g transform="translate(41.632288 289.78572)scale(0.1 -0.1)">
       <defs>
        <path d="M 678 2272 
L 4684 2272 
L 4684 1741 
L 678 1741 
L 678 2272 
z
" id="DejaVuSans-2212" transform="scale(0.015625)"/>
        <path d="M 2419 4116 
L 825 1625 
L 2419 1625 
L 2419 4116 
z
M 2253 4666 
L 3047 4666 
L 3047 1625 
L 3713 1625 
L 3713 1100 
L 3047 1100 
L 3047 0 
L 2419 0 
L 2419 1100 
L 313 1100 
L 313 1709 
L 2253 4666 
z
" id="DejaVuSans-34" transform="scale(0.015625)"/>
       </defs>
       <use xlink:href="#DejaVuSans-2212"/>
       <use x="83.789062" xlink:href="#DejaVuSans-34"/>
      </g>
     </g>
    </g>
    <g id="xtick_2">
     <g id="line2d_2">
      <g>
       <use style="stroke:#000000;stroke-width:0.8;" x="118.13982" xlink:href="#mcfe5863449" y="275.187282"/>
      </g>
     </g>
     <g id="text_2">
      <!-- −2 -->
      <g transform="translate(110.768726 289.78572)scale(0.1 -0.1)">
       <defs>
        <path d="M 1228 531 
L 3431 531 
L 3431 0 
L 469 0 
L 469 531 
Q 828 903 1448 1529 
Q 2069 2156 2228 2338 
Q 2531 2678 2651 2914 
Q 2772 3150 2772 3378 
Q 2772 3750 2511 3984 
Q 2250 4219 1831 4219 
Q 1534 4219 1204 4116 
Q 875 4013 500 3803 
L 500 4441 
Q 881 4594 1212 4672 
Q 1544 4750 1819 4750 
Q 2544 4750 2975 4387 
Q 3406 4025 3406 3419 
Q 3406 3131 3298 2873 
Q 3191 2616 2906 2266 
Q 2828 2175 2409 1742 
Q 1991 1309 1228 531 
z
" id="DejaVuSans-32" transform="scale(0.015625)"/>
       </defs>
       <use xlink:href="#DejaVuSans-2212"/>
       <use x="83.789062" xlink:href="#DejaVuSans-32"/>
      </g>
     </g>
    </g>
    <g id="xtick_3">
     <g id="line2d_3">
      <g>
       <use style="stroke:#000000;stroke-width:0.8;" x="187.276258" xlink:href="#mcfe5863449" y="275.187282"/>
      </g>
     </g>
     <g id="text_3">
      <!-- 0 -->
      <g transform="translate(184.095008 289.78572)scale(0.1 -0.1)">
       <defs>
        <path d="M 2034 4250 
Q 1547 4250 1301 3770 
Q 1056 3291 1056 2328 
Q 1056 1369 1301 889 
Q 1547 409 2034 409 
Q 2525 409 2770 889 
Q 3016 1369 3016 2328 
Q 3016 3291 2770 3770 
Q 2525 4250 2034 4250 
z
M 2034 4750 
Q 2819 4750 3233 4129 
Q 3647 3509 3647 2328 
Q 3647 1150 3233 529 
Q 2819 -91 2034 -91 
Q 1250 -91 836 529 
Q 422 1150 422 2328 
Q 422 3509 836 4129 
Q 1250 4750 2034 4750 
z
" id="DejaVuSans-30" transform="scale(0.015625)"/>
       </defs>
       <use xlink:href="#DejaVuSans-30"/>
      </g>
     </g>
    </g>
    <g id="xtick_4">
     <g id="line2d_4">
      <g>
       <use style="stroke:#000000;stroke-width:0.8;" x="256.412696" xlink:href="#mcfe5863449" y="275.187282"/>
      </g>
     </g>
     <g id="text_4">
      <!-- 2 -->
      <g transform="translate(253.231446 289.78572)scale(0.1 -0.1)">
       <use xlink:href="#DejaVuSans-32"/>
      </g>
     </g>
    </g>
    <g id="xtick_5">
     <g id="line2d_5">
      <g>
       <use style="stroke:#000000;stroke-width:0.8;" x="325.549134" xlink:href="#mcfe5863449" y="275.187282"/>
      </g>
     </g>
     <g id="text_5">
      <!-- 4 -->
      <g transform="translate(322.367884 289.78572)scale(0.1 -0.1)">
       <use xlink:href="#DejaVuSans-34"/>
      </g>
     </g>
    </g>
    <g id="xtick_6">
     <g id="line2d_6">
      <g>
       <use style="stroke:#000000;stroke-width:0.8;" x="394.685572" xlink:href="#mcfe5863449" y="275.187282"/>
      </g>
     </g>
     <g id="text_6">
      <!-- 6 -->
      <g transform="translate(391.504322 289.78572)scale(0.1 -0.1)">
       <defs>
        <path d="M 2113 2584 
Q 1688 2584 1439 2293 
Q 1191 2003 1191 1497 
Q 1191 994 1439 701 
Q 1688 409 2113 409 
Q 2538 409 2786 701 
Q 3034 994 3034 1497 
Q 3034 2003 2786 2293 
Q 2538 2584 2113 2584 
z
M 3366 4563 
L 3366 3988 
Q 3128 4100 2886 4159 
Q 2644 4219 2406 4219 
Q 1781 4219 1451 3797 
Q 1122 3375 1075 2522 
Q 1259 2794 1537 2939 
Q 1816 3084 2150 3084 
Q 2853 3084 3261 2657 
Q 3669 2231 3669 1497 
Q 3669 778 3244 343 
Q 2819 -91 2113 -91 
Q 1303 -91 875 529 
Q 447 1150 447 2328 
Q 447 3434 972 4092 
Q 1497 4750 2381 4750 
Q 2619 4750 2861 4703 
Q 3103 4656 3366 4563 
z
" id="DejaVuSans-36" transform="scale(0.015625)"/>
       </defs>
       <use xlink:href="#DejaVuSans-36"/>
      </g>
     </g>
    </g>
    <g id="text_7">
     <!-- x -->
     <g transform="translate(220.908438 306.50322)scale(0.14 -0.14)">
      <defs>
       <path d="M 3513 3500 
L 2247 1797 
L 3578 0 
L 2900 0 
L 1881 1375 
L 863 0 
L 184 0 
L 1544 1831 
L 300 3500 
L 978 3500 
L 1906 2253 
L 2834 3500 
L 3513 3500 
z
" id="DejaVuSans-78" transform="scale(0.015625)"/>
      </defs>
      <use xlink:href="#DejaVuSans-78"/>
     </g>
    </g>
   </g>
   <g id="matplotlib.axis_2">
    <g id="ytick_1">
     <g id="line2d_7">
      <defs>
       <path d="M 0 0 
L -3.5 0 
" id="m2a2c1ef953" style="stroke:#000000;stroke-width:0.8;"/>
      </defs>
      <g>
       <use style="stroke:#000000;stroke-width:0.8;" x="46.491563" xlink:href="#m2a2c1ef953" y="247.160392"/>
      </g>
     </g>
     <g id="text_8">
      <!-- −5 -->
      <g transform="translate(24.749375 250.95961)scale(0.1 -0.1)">
       <defs>
        <path d="M 691 4666 
L 3169 4666 
L 3169 4134 
L 1269 4134 
L 1269 2991 
Q 1406 3038 1543 3061 
Q 1681 3084 1819 3084 
Q 2600 3084 3056 2656 
Q 3513 2228 3513 1497 
Q 3513 744 3044 326 
Q 2575 -91 1722 -91 
Q 1428 -91 1123 -41 
Q 819 9 494 109 
L 494 744 
Q 775 591 1075 516 
Q 1375 441 1709 441 
Q 2250 441 2565 725 
Q 2881 1009 2881 1497 
Q 2881 1984 2565 2268 
Q 2250 2553 1709 2553 
Q 1456 2553 1204 2497 
Q 953 2441 691 2322 
L 691 4666 
z
" id="DejaVuSans-35" transform="scale(0.015625)"/>
       </defs>
       <use xlink:href="#DejaVuSans-2212"/>
       <use x="83.789062" xlink:href="#DejaVuSans-35"/>
      </g>
     </g>
    </g>
    <g id="ytick_2">
     <g id="line2d_8">
      <g>
       <use style="stroke:#000000;stroke-width:0.8;" x="46.491563" xlink:href="#m2a2c1ef953" y="207.800196"/>
      </g>
     </g>
     <g id="text_9">
      <!-- 0 -->
      <g transform="translate(33.129063 211.599415)scale(0.1 -0.1)">
       <use xlink:href="#DejaVuSans-30"/>
      </g>
     </g>
    </g>
    <g id="ytick_3">
     <g id="line2d_9">
      <g>
       <use style="stroke:#000000;stroke-width:0.8;" x="46.491563" xlink:href="#m2a2c1ef953" y="168.440001"/>
      </g>
     </g>
     <g id="text_10">
      <!-- 5 -->
      <g transform="translate(33.129063 172.239219)scale(0.1 -0.1)">
       <use xlink:href="#DejaVuSans-35"/>
      </g>
     </g>
    </g>
    <g id="ytick_4">
     <g id="line2d_10">
      <g>
       <use style="stroke:#000000;stroke-width:0.8;" x="46.491563" xlink:href="#m2a2c1ef953" y="129.079805"/>
      </g>
     </g>
     <g id="text_11">
      <!-- 10 -->
      <g transform="translate(26.766562 132.879024)scale(0.1 -0.1)">
       <defs>
        <path d="M 794 531 
L 1825 531 
L 1825 4091 
L 703 3866 
L 703 4441 
L 1819 4666 
L 2450 4666 
L 2450 531 
L 3481 531 
L 3481 0 
L 794 0 
L 794 531 
z
" id="DejaVuSans-31" transform="scale(0.015625)"/>
       </defs>
       <use xlink:href="#DejaVuSans-31"/>
       <use x="63.623047" xlink:href="#DejaVuSans-30"/>
      </g>
     </g>
    </g>
    <g id="ytick_5">
     <g id="line2d_11">
      <g>
       <use style="stroke:#000000;stroke-width:0.8;" x="46.491563" xlink:href="#m2a2c1ef953" y="89.71961"/>
      </g>
     </g>
     <g id="text_12">
      <!-- 15 -->
      <g transform="translate(26.766562 93.518828)scale(0.1 -0.1)">
       <use xlink:href="#DejaVuSans-31"/>
       <use x="63.623047" xlink:href="#DejaVuSans-35"/>
      </g>
     </g>
    </g>
    <g id="ytick_6">
     <g id="line2d_12">
      <g>
       <use style="stroke:#000000;stroke-width:0.8;" x="46.491563" xlink:href="#m2a2c1ef953" y="50.359414"/>
      </g>
     </g>
     <g id="text_13">
      <!-- 20 -->
      <g transform="translate(26.766562 54.158633)scale(0.1 -0.1)">
       <use xlink:href="#DejaVuSans-32"/>
       <use x="63.623047" xlink:href="#DejaVuSans-30"/>
      </g>
     </g>
    </g>
    <g id="ytick_7">
     <g id="line2d_13">
      <g>
       <use style="stroke:#000000;stroke-width:0.8;" x="46.491563" xlink:href="#m2a2c1ef953" y="10.999219"/>
      </g>
     </g>
     <g id="text_14">
      <!-- 25 -->
      <g transform="translate(26.766562 14.798438)scale(0.1 -0.1)">
       <use xlink:href="#DejaVuSans-32"/>
       <use x="63.623047" xlink:href="#DejaVuSans-35"/>
      </g>
     </g>
    </g>
    <g id="text_15">
     <!-- y -->
     <g transform="translate(17.837812 146.274407)rotate(-90)scale(0.14 -0.14)">
      <defs>
       <path d="M 2059 -325 
Q 1816 -950 1584 -1140 
Q 1353 -1331 966 -1331 
L 506 -1331 
L 506 -850 
L 844 -850 
Q 1081 -850 1212 -737 
Q 1344 -625 1503 -206 
L 1606 56 
L 191 3500 
L 800 3500 
L 1894 763 
L 2988 3500 
L 3597 3500 
L 2059 -325 
z
" id="DejaVuSans-79" transform="scale(0.015625)"/>
      </defs>
      <use xlink:href="#DejaVuSans-79"/>
     </g>
    </g>
   </g>
   <g id="patch_3">
    <path d="M 46.491563 275.187282 
L 46.491563 9.075282 
" style="fill:none;stroke:#000000;stroke-linecap:square;stroke-linejoin:miter;stroke-width:0.8;"/>
   </g>
   <g id="patch_4">
    <path d="M 403.611563 275.187282 
L 403.611563 9.075282 
" style="fill:none;stroke:#000000;stroke-linecap:square;stroke-linejoin:miter;stroke-width:0.8;"/>
   </g>
   <g id="patch_5">
    <path d="M 46.491563 275.187282 
L 403.611562 275.187282 
" style="fill:none;stroke:#000000;stroke-linecap:square;stroke-linejoin:miter;stroke-width:0.8;"/>
   </g>
   <g id="patch_6">
    <path d="M 46.491563 9.075282 
L 403.611562 9.075282 
" style="fill:none;stroke:#000000;stroke-linecap:square;stroke-linejoin:miter;stroke-width:0.8;"/>
   </g>
   <g id="legend_1">
    <g id="patch_7">
     <path d="M 56.291562 81.923407 
L 207.944375 81.923407 
Q 210.744375 81.923407 210.744375 79.123407 
L 210.744375 18.875282 
Q 210.744375 16.075282 207.944375 16.075282 
L 56.291562 16.075282 
Q 53.491563 16.075282 53.491563 18.875282 
L 53.491563 79.123407 
Q 53.491563 81.923407 56.291562 81.923407 
z
" style="fill:#ffffff;opacity:0.8;stroke:#cccccc;stroke-linejoin:miter;"/>
    </g>
    <g id="PathCollection_4">
     <g>
      <use style="stroke:#000000;stroke-width:1.5;" x="73.091563" xlink:href="#m3d6d8b8e71" y="28.638095"/>
     </g>
    </g>
    <g id="text_16">
     <!-- Source Domain -->
     <g transform="translate(98.291562 32.313095)scale(0.14 -0.14)">
      <defs>
       <path d="M 3425 4513 
L 3425 3897 
Q 3066 4069 2747 4153 
Q 2428 4238 2131 4238 
Q 1616 4238 1336 4038 
Q 1056 3838 1056 3469 
Q 1056 3159 1242 3001 
Q 1428 2844 1947 2747 
L 2328 2669 
Q 3034 2534 3370 2195 
Q 3706 1856 3706 1288 
Q 3706 609 3251 259 
Q 2797 -91 1919 -91 
Q 1588 -91 1214 -16 
Q 841 59 441 206 
L 441 856 
Q 825 641 1194 531 
Q 1563 422 1919 422 
Q 2459 422 2753 634 
Q 3047 847 3047 1241 
Q 3047 1584 2836 1778 
Q 2625 1972 2144 2069 
L 1759 2144 
Q 1053 2284 737 2584 
Q 422 2884 422 3419 
Q 422 4038 858 4394 
Q 1294 4750 2059 4750 
Q 2388 4750 2728 4690 
Q 3069 4631 3425 4513 
z
" id="DejaVuSans-53" transform="scale(0.015625)"/>
       <path d="M 1959 3097 
Q 1497 3097 1228 2736 
Q 959 2375 959 1747 
Q 959 1119 1226 758 
Q 1494 397 1959 397 
Q 2419 397 2687 759 
Q 2956 1122 2956 1747 
Q 2956 2369 2687 2733 
Q 2419 3097 1959 3097 
z
M 1959 3584 
Q 2709 3584 3137 3096 
Q 3566 2609 3566 1747 
Q 3566 888 3137 398 
Q 2709 -91 1959 -91 
Q 1206 -91 779 398 
Q 353 888 353 1747 
Q 353 2609 779 3096 
Q 1206 3584 1959 3584 
z
" id="DejaVuSans-6f" transform="scale(0.015625)"/>
       <path d="M 544 1381 
L 544 3500 
L 1119 3500 
L 1119 1403 
Q 1119 906 1312 657 
Q 1506 409 1894 409 
Q 2359 409 2629 706 
Q 2900 1003 2900 1516 
L 2900 3500 
L 3475 3500 
L 3475 0 
L 2900 0 
L 2900 538 
Q 2691 219 2414 64 
Q 2138 -91 1772 -91 
Q 1169 -91 856 284 
Q 544 659 544 1381 
z
M 1991 3584 
L 1991 3584 
z
" id="DejaVuSans-75" transform="scale(0.015625)"/>
       <path d="M 2631 2963 
Q 2534 3019 2420 3045 
Q 2306 3072 2169 3072 
Q 1681 3072 1420 2755 
Q 1159 2438 1159 1844 
L 1159 0 
L 581 0 
L 581 3500 
L 1159 3500 
L 1159 2956 
Q 1341 3275 1631 3429 
Q 1922 3584 2338 3584 
Q 2397 3584 2469 3576 
Q 2541 3569 2628 3553 
L 2631 2963 
z
" id="DejaVuSans-72" transform="scale(0.015625)"/>
       <path d="M 3122 3366 
L 3122 2828 
Q 2878 2963 2633 3030 
Q 2388 3097 2138 3097 
Q 1578 3097 1268 2742 
Q 959 2388 959 1747 
Q 959 1106 1268 751 
Q 1578 397 2138 397 
Q 2388 397 2633 464 
Q 2878 531 3122 666 
L 3122 134 
Q 2881 22 2623 -34 
Q 2366 -91 2075 -91 
Q 1284 -91 818 406 
Q 353 903 353 1747 
Q 353 2603 823 3093 
Q 1294 3584 2113 3584 
Q 2378 3584 2631 3529 
Q 2884 3475 3122 3366 
z
" id="DejaVuSans-63" transform="scale(0.015625)"/>
       <path d="M 3597 1894 
L 3597 1613 
L 953 1613 
Q 991 1019 1311 708 
Q 1631 397 2203 397 
Q 2534 397 2845 478 
Q 3156 559 3463 722 
L 3463 178 
Q 3153 47 2828 -22 
Q 2503 -91 2169 -91 
Q 1331 -91 842 396 
Q 353 884 353 1716 
Q 353 2575 817 3079 
Q 1281 3584 2069 3584 
Q 2775 3584 3186 3129 
Q 3597 2675 3597 1894 
z
M 3022 2063 
Q 3016 2534 2758 2815 
Q 2500 3097 2075 3097 
Q 1594 3097 1305 2825 
Q 1016 2553 972 2059 
L 3022 2063 
z
" id="DejaVuSans-65" transform="scale(0.015625)"/>
       <path id="DejaVuSans-20" transform="scale(0.015625)"/>
       <path d="M 1259 4147 
L 1259 519 
L 2022 519 
Q 2988 519 3436 956 
Q 3884 1394 3884 2338 
Q 3884 3275 3436 3711 
Q 2988 4147 2022 4147 
L 1259 4147 
z
M 628 4666 
L 1925 4666 
Q 3281 4666 3915 4102 
Q 4550 3538 4550 2338 
Q 4550 1131 3912 565 
Q 3275 0 1925 0 
L 628 0 
L 628 4666 
z
" id="DejaVuSans-44" transform="scale(0.015625)"/>
       <path d="M 3328 2828 
Q 3544 3216 3844 3400 
Q 4144 3584 4550 3584 
Q 5097 3584 5394 3201 
Q 5691 2819 5691 2113 
L 5691 0 
L 5113 0 
L 5113 2094 
Q 5113 2597 4934 2840 
Q 4756 3084 4391 3084 
Q 3944 3084 3684 2787 
Q 3425 2491 3425 1978 
L 3425 0 
L 2847 0 
L 2847 2094 
Q 2847 2600 2669 2842 
Q 2491 3084 2119 3084 
Q 1678 3084 1418 2786 
Q 1159 2488 1159 1978 
L 1159 0 
L 581 0 
L 581 3500 
L 1159 3500 
L 1159 2956 
Q 1356 3278 1631 3431 
Q 1906 3584 2284 3584 
Q 2666 3584 2933 3390 
Q 3200 3197 3328 2828 
z
" id="DejaVuSans-6d" transform="scale(0.015625)"/>
       <path d="M 2194 1759 
Q 1497 1759 1228 1600 
Q 959 1441 959 1056 
Q 959 750 1161 570 
Q 1363 391 1709 391 
Q 2188 391 2477 730 
Q 2766 1069 2766 1631 
L 2766 1759 
L 2194 1759 
z
M 3341 1997 
L 3341 0 
L 2766 0 
L 2766 531 
Q 2569 213 2275 61 
Q 1981 -91 1556 -91 
Q 1019 -91 701 211 
Q 384 513 384 1019 
Q 384 1609 779 1909 
Q 1175 2209 1959 2209 
L 2766 2209 
L 2766 2266 
Q 2766 2663 2505 2880 
Q 2244 3097 1772 3097 
Q 1472 3097 1187 3025 
Q 903 2953 641 2809 
L 641 3341 
Q 956 3463 1253 3523 
Q 1550 3584 1831 3584 
Q 2591 3584 2966 3190 
Q 3341 2797 3341 1997 
z
" id="DejaVuSans-61" transform="scale(0.015625)"/>
       <path d="M 603 3500 
L 1178 3500 
L 1178 0 
L 603 0 
L 603 3500 
z
M 603 4863 
L 1178 4863 
L 1178 4134 
L 603 4134 
L 603 4863 
z
" id="DejaVuSans-69" transform="scale(0.015625)"/>
       <path d="M 3513 2113 
L 3513 0 
L 2938 0 
L 2938 2094 
Q 2938 2591 2744 2837 
Q 2550 3084 2163 3084 
Q 1697 3084 1428 2787 
Q 1159 2491 1159 1978 
L 1159 0 
L 581 0 
L 581 3500 
L 1159 3500 
L 1159 2956 
Q 1366 3272 1645 3428 
Q 1925 3584 2291 3584 
Q 2894 3584 3203 3211 
Q 3513 2838 3513 2113 
z
" id="DejaVuSans-6e" transform="scale(0.015625)"/>
      </defs>
      <use xlink:href="#DejaVuSans-53"/>
      <use x="63.476562" xlink:href="#DejaVuSans-6f"/>
      <use x="124.658203" xlink:href="#DejaVuSans-75"/>
      <use x="188.037109" xlink:href="#DejaVuSans-72"/>
      <use x="226.900391" xlink:href="#DejaVuSans-63"/>
      <use x="281.880859" xlink:href="#DejaVuSans-65"/>
      <use x="343.404297" xlink:href="#DejaVuSans-20"/>
      <use x="375.191406" xlink:href="#DejaVuSans-44"/>
      <use x="452.193359" xlink:href="#DejaVuSans-6f"/>
      <use x="513.375" xlink:href="#DejaVuSans-6d"/>
      <use x="610.787109" xlink:href="#DejaVuSans-61"/>
      <use x="672.066406" xlink:href="#DejaVuSans-69"/>
      <use x="699.849609" xlink:href="#DejaVuSans-6e"/>
     </g>
    </g>
    <g id="PathCollection_5">
     <g>
      <use style="fill:#ff0000;stroke:#ff0000;stroke-width:1.5;" x="73.091563" xlink:href="#m7bd7352a09" y="49.18747"/>
     </g>
    </g>
    <g id="text_17">
     <!-- Target Domain -->
     <g transform="translate(98.291562 52.86247)scale(0.14 -0.14)">
      <defs>
       <path d="M -19 4666 
L 3928 4666 
L 3928 4134 
L 2272 4134 
L 2272 0 
L 1638 0 
L 1638 4134 
L -19 4134 
L -19 4666 
z
" id="DejaVuSans-54" transform="scale(0.015625)"/>
       <path d="M 2906 1791 
Q 2906 2416 2648 2759 
Q 2391 3103 1925 3103 
Q 1463 3103 1205 2759 
Q 947 2416 947 1791 
Q 947 1169 1205 825 
Q 1463 481 1925 481 
Q 2391 481 2648 825 
Q 2906 1169 2906 1791 
z
M 3481 434 
Q 3481 -459 3084 -895 
Q 2688 -1331 1869 -1331 
Q 1566 -1331 1297 -1286 
Q 1028 -1241 775 -1147 
L 775 -588 
Q 1028 -725 1275 -790 
Q 1522 -856 1778 -856 
Q 2344 -856 2625 -561 
Q 2906 -266 2906 331 
L 2906 616 
Q 2728 306 2450 153 
Q 2172 0 1784 0 
Q 1141 0 747 490 
Q 353 981 353 1791 
Q 353 2603 747 3093 
Q 1141 3584 1784 3584 
Q 2172 3584 2450 3431 
Q 2728 3278 2906 2969 
L 2906 3500 
L 3481 3500 
L 3481 434 
z
" id="DejaVuSans-67" transform="scale(0.015625)"/>
       <path d="M 1172 4494 
L 1172 3500 
L 2356 3500 
L 2356 3053 
L 1172 3053 
L 1172 1153 
Q 1172 725 1289 603 
Q 1406 481 1766 481 
L 2356 481 
L 2356 0 
L 1766 0 
Q 1100 0 847 248 
Q 594 497 594 1153 
L 594 3053 
L 172 3053 
L 172 3500 
L 594 3500 
L 594 4494 
L 1172 4494 
z
" id="DejaVuSans-74" transform="scale(0.015625)"/>
      </defs>
      <use xlink:href="#DejaVuSans-54"/>
      <use x="44.583984" xlink:href="#DejaVuSans-61"/>
      <use x="105.863281" xlink:href="#DejaVuSans-72"/>
      <use x="145.226562" xlink:href="#DejaVuSans-67"/>
      <use x="208.703125" xlink:href="#DejaVuSans-65"/>
      <use x="270.226562" xlink:href="#DejaVuSans-74"/>
      <use x="309.435547" xlink:href="#DejaVuSans-20"/>
      <use x="341.222656" xlink:href="#DejaVuSans-44"/>
      <use x="418.224609" xlink:href="#DejaVuSans-6f"/>
      <use x="479.40625" xlink:href="#DejaVuSans-6d"/>
      <use x="576.818359" xlink:href="#DejaVuSans-61"/>
      <use x="638.097656" xlink:href="#DejaVuSans-69"/>
      <use x="665.880859" xlink:href="#DejaVuSans-6e"/>
     </g>
    </g>
    <g id="PathCollection_6">
     <g>
      <use style="fill:#bfbf00;stroke:#bfbf00;" x="73.091563" xlink:href="#mdd263d5fa1" y="69.736845"/>
     </g>
    </g>
    <g id="text_18">
     <!-- Test Data -->
     <g transform="translate(98.291562 73.411845)scale(0.14 -0.14)">
      <defs>
       <path d="M 2834 3397 
L 2834 2853 
Q 2591 2978 2328 3040 
Q 2066 3103 1784 3103 
Q 1356 3103 1142 2972 
Q 928 2841 928 2578 
Q 928 2378 1081 2264 
Q 1234 2150 1697 2047 
L 1894 2003 
Q 2506 1872 2764 1633 
Q 3022 1394 3022 966 
Q 3022 478 2636 193 
Q 2250 -91 1575 -91 
Q 1294 -91 989 -36 
Q 684 19 347 128 
L 347 722 
Q 666 556 975 473 
Q 1284 391 1588 391 
Q 1994 391 2212 530 
Q 2431 669 2431 922 
Q 2431 1156 2273 1281 
Q 2116 1406 1581 1522 
L 1381 1569 
Q 847 1681 609 1914 
Q 372 2147 372 2553 
Q 372 3047 722 3315 
Q 1072 3584 1716 3584 
Q 2034 3584 2315 3537 
Q 2597 3491 2834 3397 
z
" id="DejaVuSans-73" transform="scale(0.015625)"/>
      </defs>
      <use xlink:href="#DejaVuSans-54"/>
      <use x="44.083984" xlink:href="#DejaVuSans-65"/>
      <use x="105.607422" xlink:href="#DejaVuSans-73"/>
      <use x="157.707031" xlink:href="#DejaVuSans-74"/>
      <use x="196.916016" xlink:href="#DejaVuSans-20"/>
      <use x="228.703125" xlink:href="#DejaVuSans-44"/>
      <use x="305.705078" xlink:href="#DejaVuSans-61"/>
      <use x="366.984375" xlink:href="#DejaVuSans-74"/>
      <use x="406.193359" xlink:href="#DejaVuSans-61"/>
     </g>
    </g>
   </g>
  </g>
 </g>
 <defs>
  <clipPath id="pe2e4bdba8f">
   <rect height="266.112" width="357.12" x="46.491563" y="9.075282"/>
  </clipPath>
 </defs>
</svg>
