<?xml version="1.0" encoding="utf-8" standalone="no"?>
<!DOCTYPE svg PUBLIC "-//W3C//DTD SVG 1.1//EN"
  "http://www.w3.org/Graphics/SVG/1.1/DTD/svg11.dtd">
<svg height="316.614782pt" version="1.1" viewBox="0 0 410.811562 316.614782" width="410.811562pt" xmlns="http://www.w3.org/2000/svg" xmlns:xlink="http://www.w3.org/1999/xlink">
 <metadata>
  <rdf:RDF xmlns:cc="http://creativecommons.org/ns#" xmlns:dc="http://purl.org/dc/elements/1.1/" xmlns:rdf="http://www.w3.org/1999/02/22-rdf-syntax-ns#">
   <cc:Work>
    <dc:type rdf:resource="http://purl.org/dc/dcmitype/StillImage"/>
    <dc:date>2023-05-15T16:57:51.120104</dc:date>
    <dc:format>image/svg+xml</dc:format>
    <dc:creator>
     <cc:Agent>
      <dc:title>Matplotlib v3.4.3, https://matplotlib.org/</dc:title>
     </cc:Agent>
    </dc:creator>
   </cc:Work>
  </rdf:RDF>
 </metadata>
 <defs>
  <style type="text/css">*{stroke-linecap:butt;stroke-linejoin:round;}</style>
 </defs>
 <g id="figure_1">
  <g id="patch_1">
   <path d="M 0 316.614782 
L 410.811562 316.614782 
L 410.811562 0 
L 0 0 
z
" style="fill:#ffffff;"/>
  </g>
  <g id="axes_1">
   <g id="patch_2">
    <path d="M 46.491563 275.187282 
L 403.611563 275.187282 
L 403.611563 9.075282 
L 46.491563 9.075282 
z
" style="fill:#ffffff;"/>
   </g>
   <g id="PathCollection_1">
    <defs>
     <path d="M -2.236068 2.236068 
L 2.236068 -2.236068 
M -2.236068 -2.236068 
L 2.236068 2.236068 
" id="mdb8709c3ce" style="stroke:#000000;stroke-width:1.5;"/>
    </defs>
    <g clip-path="url(#p2322057459)">
     <use style="stroke:#000000;stroke-width:1.5;" x="253.029876" xlink:href="#mdb8709c3ce" y="84.436764"/>
     <use style="stroke:#000000;stroke-width:1.5;" x="-1" xlink:href="#mdb8709c3ce" y="141.74249"/>
     <use style="stroke:#000000;stroke-width:1.5;" x="-1" xlink:href="#mdb8709c3ce" y="146.450499"/>
     <use style="stroke:#000000;stroke-width:1.5;" x="104.605532" xlink:href="#mdb8709c3ce" y="119.800975"/>
     <use style="stroke:#000000;stroke-width:1.5;" x="-1" xlink:href="#mdb8709c3ce" y="142.654076"/>
     <use style="stroke:#000000;stroke-width:1.5;" x="-1" xlink:href="#mdb8709c3ce" y="146.689261"/>
     <use style="stroke:#000000;stroke-width:1.5;" x="276.589313" xlink:href="#mdb8709c3ce" y="88.799057"/>
     <use style="stroke:#000000;stroke-width:1.5;" x="-1" xlink:href="#mdb8709c3ce" y="137.759571"/>
     <use style="stroke:#000000;stroke-width:1.5;" x="-1" xlink:href="#mdb8709c3ce" y="119.336451"/>
     <use style="stroke:#000000;stroke-width:1.5;" x="221.301339" xlink:href="#mdb8709c3ce" y="80.295669"/>
     <use style="stroke:#000000;stroke-width:1.5;" x="-1" xlink:href="#mdb8709c3ce" y="139.287089"/>
     <use style="stroke:#000000;stroke-width:1.5;" x="-1" xlink:href="#mdb8709c3ce" y="107.606361"/>
     <use style="stroke:#000000;stroke-width:1.5;" x="157.08866" xlink:href="#mdb8709c3ce" y="90.073537"/>
     <use style="stroke:#000000;stroke-width:1.5;" x="-1" xlink:href="#mdb8709c3ce" y="134.132291"/>
     <use style="stroke:#000000;stroke-width:1.5;" x="-1" xlink:href="#mdb8709c3ce" y="120.466865"/>
     <use style="stroke:#000000;stroke-width:1.5;" x="49.339347" xlink:href="#mdb8709c3ce" y="102.720277"/>
     <use style="stroke:#000000;stroke-width:1.5;" x="-1" xlink:href="#mdb8709c3ce" y="116.022644"/>
     <use style="stroke:#000000;stroke-width:1.5;" x="-1" xlink:href="#mdb8709c3ce" y="132.150443"/>
     <use style="stroke:#000000;stroke-width:1.5;" x="159.23097" xlink:href="#mdb8709c3ce" y="99.074798"/>
     <use style="stroke:#000000;stroke-width:1.5;" x="111.681806" xlink:href="#mdb8709c3ce" y="129.221583"/>
     <use style="stroke:#000000;stroke-width:1.5;" x="33.63111" xlink:href="#mdb8709c3ce" y="129.340072"/>
     <use style="stroke:#000000;stroke-width:1.5;" x="111.538108" xlink:href="#mdb8709c3ce" y="107.207715"/>
     <use style="stroke:#000000;stroke-width:1.5;" x="-1" xlink:href="#mdb8709c3ce" y="127.564567"/>
     <use style="stroke:#000000;stroke-width:1.5;" x="-1" xlink:href="#mdb8709c3ce" y="112.185402"/>
     <use style="stroke:#000000;stroke-width:1.5;" x="39.079871" xlink:href="#mdb8709c3ce" y="98.870412"/>
    </g>
   </g>
   <g id="PathCollection_2">
    <path clip-path="url(#p2322057459)" d="M 253.029876 87.599033 
C 253.868519 87.599033 254.672927 87.265836 255.265937 86.672825 
C 255.858948 86.079815 256.192145 85.275407 256.192145 84.436764 
C 256.192145 83.59812 255.858948 82.793712 255.265937 82.200702 
C 254.672927 81.607691 253.868519 81.274494 253.029876 81.274494 
C 252.191232 81.274494 251.386824 81.607691 250.793814 82.200702 
C 250.200803 82.793712 249.867606 83.59812 249.867606 84.436764 
C 249.867606 85.275407 250.200803 86.079815 250.793814 86.672825 
C 251.386824 87.265836 252.191232 87.599033 253.029876 87.599033 
z
" style="fill:#00ffff;fill-opacity:0.5;stroke:#00ffff;stroke-opacity:0.5;"/>
    <path clip-path="url(#p2322057459)" d="M -184.28128 186.250548 
C -183.442638 186.250548 -182.638231 185.917352 -182.045221 185.324343 
C -181.452212 184.731333 -181.119016 183.926926 -181.119016 183.088284 
C -181.119016 182.249641 -181.452212 181.445234 -182.045221 180.852225 
C -182.638231 180.259215 -183.442638 179.926019 -184.28128 179.926019 
C -185.119923 179.926019 -185.92433 180.259215 -186.517339 180.852225 
C -187.110349 181.445234 -187.443545 182.249641 -187.443545 183.088284 
C -187.443545 183.926926 -187.110349 184.731333 -186.517339 185.324343 
C -185.92433 185.917352 -185.119923 186.250548 -184.28128 186.250548 
z
" style="fill:#00ffff;fill-opacity:0.5;stroke:#00ffff;stroke-opacity:0.5;"/>
    <path clip-path="url(#p2322057459)" d="M -167.93475 189.161232 
C -167.096108 189.161232 -166.291701 188.828036 -165.698691 188.235026 
C -165.105681 187.642016 -164.772485 186.837609 -164.772485 185.998966 
C -164.772485 185.160324 -165.105681 184.355917 -165.698691 183.762907 
C -166.291701 183.169897 -167.096108 182.836701 -167.93475 182.836701 
C -168.773393 182.836701 -169.5778 183.169897 -170.17081 183.762907 
C -170.76382 184.355917 -171.097016 185.160324 -171.097016 185.998966 
C -171.097016 186.837609 -170.76382 187.642016 -170.17081 188.235026 
C -169.5778 188.828036 -168.773393 189.161232 -167.93475 189.161232 
z
" style="fill:#00ffff;fill-opacity:0.5;stroke:#00ffff;stroke-opacity:0.5;"/>
    <path clip-path="url(#p2322057459)" d="M -274.479878 218.625319 
C -273.641238 218.625319 -272.836834 218.292124 -272.243826 217.699116 
C -271.650818 217.106108 -271.317623 216.301704 -271.317623 215.463064 
C -271.317623 214.624425 -271.650818 213.820021 -272.243826 213.227013 
C -272.836834 212.634005 -273.641238 212.30081 -274.479878 212.30081 
C -275.318518 212.30081 -276.122922 212.634005 -276.71593 213.227013 
C -277.308937 213.820021 -277.642133 214.624425 -277.642133 215.463064 
C -277.642133 216.301704 -277.308937 217.106108 -276.71593 217.699116 
C -276.122922 218.292124 -275.318518 218.625319 -274.479878 218.625319 
z
" style="fill:#00ffff;fill-opacity:0.5;stroke:#00ffff;stroke-opacity:0.5;"/>
    <path clip-path="url(#p2322057459)" d="M 104.605532 122.963243 
C 105.444176 122.963243 106.248583 122.630046 106.841593 122.037036 
C 107.434604 121.444025 107.7678 120.639618 107.7678 119.800975 
C 107.7678 118.962331 107.434604 118.157924 106.841593 117.564913 
C 106.248583 116.971903 105.444176 116.638706 104.605532 116.638706 
C 103.766889 116.638706 102.962481 116.971903 102.369471 117.564913 
C 101.776461 118.157924 101.443264 118.962331 101.443264 119.800975 
C 101.443264 120.639618 101.776461 121.444025 102.369471 122.037036 
C 102.962481 122.630046 103.766889 122.963243 104.605532 122.963243 
z
" style="fill:#00ffff;fill-opacity:0.5;stroke:#00ffff;stroke-opacity:0.5;"/>
    <path clip-path="url(#p2322057459)" d="M -514.749531 256.93132 
C -513.926995 256.93132 -513.138038 256.604523 -512.556417 256.022902 
C -511.974796 255.441281 -511.647999 254.652324 -511.647999 253.829788 
C -511.647999 253.007251 -511.974796 252.218294 -512.556417 251.636673 
C -513.138038 251.055052 -513.926995 250.728255 -514.749531 250.728255 
C -515.572068 250.728255 -516.361025 251.055052 -516.942646 251.636673 
C -517.524267 252.218294 -517.851064 253.007251 -517.851064 253.829788 
C -517.851064 254.652324 -517.524267 255.441281 -516.942646 256.022902 
C -516.361025 256.604523 -515.572068 256.93132 -514.749531 256.93132 
z
" style="fill:#00ffff;fill-opacity:0.5;stroke:#00ffff;stroke-opacity:0.5;"/>
    <path clip-path="url(#p2322057459)" d="M 276.589313 91.961326 
C 277.427957 91.961326 278.232365 91.62813 278.825375 91.035119 
C 279.418386 90.442108 279.751583 89.637701 279.751583 88.799057 
C 279.751583 87.960413 279.418386 87.156006 278.825375 86.562995 
C 278.232365 85.969984 277.427957 85.636788 276.589313 85.636788 
C 275.75067 85.636788 274.946262 85.969984 274.353251 86.562995 
C 273.760241 87.156006 273.427044 87.960413 273.427044 88.799057 
C 273.427044 89.637701 273.760241 90.442108 274.353251 91.035119 
C 274.946262 91.62813 275.75067 91.961326 276.589313 91.961326 
z
" style="fill:#00ffff;fill-opacity:0.5;stroke:#00ffff;stroke-opacity:0.5;"/>
    <path clip-path="url(#p2322057459)" d="M -213.509094 178.403661 
C -212.670452 178.403661 -211.866045 178.070465 -211.273036 177.477455 
C -210.680027 176.884446 -210.346831 176.08004 -210.346831 175.241398 
C -210.346831 174.402756 -210.680027 173.598349 -211.273036 173.00534 
C -211.866045 172.41233 -212.670452 172.079134 -213.509094 172.079134 
C -214.347736 172.079134 -215.152142 172.41233 -215.745151 173.00534 
C -216.338161 173.598349 -216.671357 174.402756 -216.671357 175.241398 
C -216.671357 176.08004 -216.338161 176.884446 -215.745151 177.477455 
C -215.152142 178.070465 -214.347736 178.403661 -213.509094 178.403661 
z
" style="fill:#00ffff;fill-opacity:0.5;stroke:#00ffff;stroke-opacity:0.5;"/>
    <path clip-path="url(#p2322057459)" d="M -2.246963 93.719139 
C -1.40832 93.719139 -0.603913 93.385942 -0.010902 92.792932 
C 0.582108 92.199922 0.915304 91.395514 0.915304 90.556871 
C 0.915304 89.718228 0.582108 88.91382 -0.010902 88.32081 
C -0.603913 87.7278 -1.40832 87.394603 -2.246963 87.394603 
C -3.085606 87.394603 -3.890014 87.7278 -4.483024 88.32081 
C -5.076034 88.91382 -5.409231 89.718228 -5.409231 90.556871 
C -5.409231 91.395514 -5.076034 92.199922 -4.483024 92.792932 
C -3.890014 93.385942 -3.085606 93.719139 -2.246963 93.719139 
z
" style="fill:#00ffff;fill-opacity:0.5;stroke:#00ffff;stroke-opacity:0.5;"/>
    <path clip-path="url(#p2322057459)" d="M -113.409973 142.240268 
C -112.57133 142.240268 -111.766922 141.907072 -111.173912 141.314062 
C -110.580902 140.721052 -110.247706 139.916644 -110.247706 139.078001 
C -110.247706 138.239359 -110.580902 137.434951 -111.173912 136.841941 
C -111.766922 136.248931 -112.57133 135.915735 -113.409973 135.915735 
C -114.248616 135.915735 -115.053023 136.248931 -115.646033 136.841941 
C -116.239043 137.434951 -116.572239 138.239359 -116.572239 139.078001 
C -116.572239 139.916644 -116.239043 140.721052 -115.646033 141.314062 
C -115.053023 141.907072 -114.248616 142.240268 -113.409973 142.240268 
z
" style="fill:#00ffff;fill-opacity:0.5;stroke:#00ffff;stroke-opacity:0.5;"/>
    <path clip-path="url(#p2322057459)" d="M 221.301339 83.457938 
C 222.139983 83.457938 222.94439 83.124741 223.537401 82.531731 
C 224.130411 81.93872 224.463608 81.134313 224.463608 80.295669 
C 224.463608 79.457026 224.130411 78.652618 223.537401 78.059607 
C 222.94439 77.466597 222.139983 77.1334 221.301339 77.1334 
C 220.462696 77.1334 219.658288 77.466597 219.065277 78.059607 
C 218.472267 78.652618 218.13907 79.457026 218.13907 80.295669 
C 218.13907 81.134313 218.472267 81.93872 219.065277 82.531731 
C 219.658288 83.124741 220.462696 83.457938 221.301339 83.457938 
z
" style="fill:#00ffff;fill-opacity:0.5;stroke:#00ffff;stroke-opacity:0.5;"/>
    <path clip-path="url(#p2322057459)" d="M -467.53968 266.253467 
C -466.701059 266.253467 -465.896672 265.92028 -465.303677 265.327285 
C -464.710683 264.73429 -464.377495 263.929904 -464.377495 263.091282 
C -464.377495 262.252661 -464.710683 261.448275 -465.303677 260.85528 
C -465.896672 260.262285 -466.701059 259.929097 -467.53968 259.929097 
C -468.378301 259.929097 -469.182688 260.262285 -469.775682 260.85528 
C -470.368677 261.448275 -470.701865 262.252661 -470.701865 263.091282 
C -470.701865 263.929904 -470.368677 264.73429 -469.775682 265.327285 
C -469.182688 265.92028 -468.378301 266.253467 -467.53968 266.253467 
z
" style="fill:#00ffff;fill-opacity:0.5;stroke:#00ffff;stroke-opacity:0.5;"/>
    <path clip-path="url(#p2322057459)" d="M -127.695634 180.859613 
C -126.856991 180.859613 -126.052584 180.526416 -125.459574 179.933406 
C -124.866564 179.340396 -124.533368 178.535989 -124.533368 177.697346 
C -124.533368 176.858703 -124.866564 176.054296 -125.459574 175.461286 
C -126.052584 174.868276 -126.856991 174.53508 -127.695634 174.53508 
C -128.534277 174.53508 -129.338684 174.868276 -129.931694 175.461286 
C -130.524704 176.054296 -130.857901 176.858703 -130.857901 177.697346 
C -130.857901 178.535989 -130.524704 179.340396 -129.931694 179.933406 
C -129.338684 180.526416 -128.534277 180.859613 -127.695634 180.859613 
z
" style="fill:#00ffff;fill-opacity:0.5;stroke:#00ffff;stroke-opacity:0.5;"/>
    <path clip-path="url(#p2322057459)" d="M -139.749922 126.156689 
C -138.911279 126.156689 -138.106872 125.823492 -137.513862 125.230482 
C -136.920852 124.637472 -136.587655 123.833065 -136.587655 122.994422 
C -136.587655 122.155779 -136.920852 121.351372 -137.513862 120.758362 
C -138.106872 120.165352 -138.911279 119.832156 -139.749922 119.832156 
C -140.588564 119.832156 -141.392972 120.165352 -141.985982 120.758362 
C -142.578992 121.351372 -142.912188 122.155779 -142.912188 122.994422 
C -142.912188 123.833065 -142.578992 124.637472 -141.985982 125.230482 
C -141.392972 125.823492 -140.588564 126.156689 -139.749922 126.156689 
z
" style="fill:#00ffff;fill-opacity:0.5;stroke:#00ffff;stroke-opacity:0.5;"/>
    <path clip-path="url(#p2322057459)" d="M 157.08866 93.235806 
C 157.927303 93.235806 158.731711 92.902609 159.324721 92.309599 
C 159.917732 91.716588 160.250928 90.912181 160.250928 90.073537 
C 160.250928 89.234894 159.917732 88.430486 159.324721 87.837476 
C 158.731711 87.244465 157.927303 86.911269 157.08866 86.911269 
C 156.250016 86.911269 155.445609 87.244465 154.852598 87.837476 
C 154.259588 88.430486 153.926391 89.234894 153.926391 90.073537 
C 153.926391 90.912181 154.259588 91.716588 154.852598 92.309599 
C 155.445609 92.902609 156.250016 93.235806 157.08866 93.235806 
z
" style="fill:#00ffff;fill-opacity:0.5;stroke:#00ffff;stroke-opacity:0.5;"/>
    <path clip-path="url(#p2322057459)" d="M -279.7451 214.979823 
C -278.906461 214.979823 -278.102057 214.646628 -277.509049 214.05362 
C -276.916042 213.460613 -276.582847 212.656209 -276.582847 211.81757 
C -276.582847 210.97893 -276.916042 210.174526 -277.509049 209.581519 
C -278.102057 208.988511 -278.906461 208.655316 -279.7451 208.655316 
C -280.58374 208.655316 -281.388143 208.988511 -281.981151 209.581519 
C -282.574159 210.174526 -282.907354 210.97893 -282.907354 211.81757 
C -282.907354 212.656209 -282.574159 213.460613 -281.981151 214.05362 
C -281.388143 214.646628 -280.58374 214.979823 -279.7451 214.979823 
z
" style="fill:#00ffff;fill-opacity:0.5;stroke:#00ffff;stroke-opacity:0.5;"/>
    <path clip-path="url(#p2322057459)" d="M -98.362505 151.621637 
C -97.523862 151.621637 -96.719455 151.288441 -96.126445 150.695431 
C -95.533435 150.102421 -95.200238 149.298013 -95.200238 148.45937 
C -95.200238 147.620727 -95.533435 146.81632 -96.126445 146.22331 
C -96.719455 145.6303 -97.523862 145.297103 -98.362505 145.297103 
C -99.201148 145.297103 -100.005556 145.6303 -100.598566 146.22331 
C -101.191576 146.81632 -101.524772 147.620727 -101.524772 148.45937 
C -101.524772 149.298013 -101.191576 150.102421 -100.598566 150.695431 
C -100.005556 151.288441 -99.201148 151.621637 -98.362505 151.621637 
z
" style="fill:#00ffff;fill-opacity:0.5;stroke:#00ffff;stroke-opacity:0.5;"/>
    <path clip-path="url(#p2322057459)" d="M -236.32246 139.849487 
C -235.483819 139.849487 -234.679413 139.516292 -234.086404 138.923283 
C -233.493395 138.330274 -233.160199 137.525868 -233.160199 136.687226 
C -233.160199 135.848585 -233.493395 135.044179 -234.086404 134.45117 
C -234.679413 133.858161 -235.483819 133.524965 -236.32246 133.524965 
C -237.161102 133.524965 -237.965508 133.858161 -238.558517 134.45117 
C -239.151526 135.044179 -239.484721 135.848585 -239.484721 136.687226 
C -239.484721 137.525868 -239.151526 138.330274 -238.558517 138.923283 
C -237.965508 139.516292 -237.161102 139.849487 -236.32246 139.849487 
z
" style="fill:#00ffff;fill-opacity:0.5;stroke:#00ffff;stroke-opacity:0.5;"/>
    <path clip-path="url(#p2322057459)" d="M -56.385292 143.154613 
C -55.546649 143.154613 -54.742242 142.821417 -54.149231 142.228406 
C -53.556221 141.635396 -53.223025 140.830989 -53.223025 139.992346 
C -53.223025 139.153703 -53.556221 138.349295 -54.149231 137.756285 
C -54.742242 137.163275 -55.546649 136.830078 -56.385292 136.830078 
C -57.223935 136.830078 -58.028343 137.163275 -58.621353 137.756285 
C -59.214363 138.349295 -59.547559 139.153703 -59.547559 139.992346 
C -59.547559 140.830989 -59.214363 141.635396 -58.621353 142.228406 
C -58.028343 142.821417 -57.223935 143.154613 -56.385292 143.154613 
z
" style="fill:#00ffff;fill-opacity:0.5;stroke:#00ffff;stroke-opacity:0.5;"/>
    <path clip-path="url(#p2322057459)" d="M 49.339347 105.882545 
C 50.17799 105.882545 50.982397 105.549349 51.575408 104.956338 
C 52.168418 104.363328 52.501614 103.558921 52.501614 102.720277 
C 52.501614 101.881634 52.168418 101.077227 51.575408 100.484216 
C 50.982397 99.891206 50.17799 99.55801 49.339347 99.55801 
C 48.500703 99.55801 47.696296 99.891206 47.103285 100.484216 
C 46.510275 101.077227 46.177079 101.881634 46.177079 102.720277 
C 46.177079 103.558921 46.510275 104.363328 47.103285 104.956338 
C 47.696296 105.549349 48.500703 105.882545 49.339347 105.882545 
z
" style="fill:#00ffff;fill-opacity:0.5;stroke:#00ffff;stroke-opacity:0.5;"/>
    <path clip-path="url(#p2322057459)" d="M -279.887456 192.881982 
C -279.048817 192.881982 -278.244413 192.548787 -277.651406 191.95578 
C -277.058398 191.362772 -276.725203 190.558368 -276.725203 189.719729 
C -276.725203 188.88109 -277.058398 188.076686 -277.651406 187.483678 
C -278.244413 186.890671 -279.048817 186.557476 -279.887456 186.557476 
C -280.726096 186.557476 -281.5305 186.890671 -282.123507 187.483678 
C -282.716515 188.076686 -283.04971 188.88109 -283.04971 189.719729 
C -283.04971 190.558368 -282.716515 191.362772 -282.123507 191.95578 
C -281.5305 192.548787 -280.726096 192.881982 -279.887456 192.881982 
z
" style="fill:#00ffff;fill-opacity:0.5;stroke:#00ffff;stroke-opacity:0.5;"/>
    <path clip-path="url(#p2322057459)" d="M 159.23097 102.237067 
C 160.069613 102.237067 160.874021 101.90387 161.467031 101.31086 
C 162.060042 100.717849 162.393238 99.913442 162.393238 99.074798 
C 162.393238 98.236155 162.060042 97.431747 161.467031 96.838737 
C 160.874021 96.245726 160.069613 95.91253 159.23097 95.91253 
C 158.392326 95.91253 157.587919 96.245726 156.994908 96.838737 
C 156.401898 97.431747 156.068701 98.236155 156.068701 99.074798 
C 156.068701 99.913442 156.401898 100.717849 156.994908 101.31086 
C 157.587919 101.90387 158.392326 102.237067 159.23097 102.237067 
z
" style="fill:#00ffff;fill-opacity:0.5;stroke:#00ffff;stroke-opacity:0.5;"/>
    <path clip-path="url(#p2322057459)" d="M 111.681806 132.383851 
C 112.52045 132.383851 113.324857 132.050654 113.917868 131.457644 
C 114.510878 130.864634 114.844075 130.060226 114.844075 129.221583 
C 114.844075 128.382939 114.510878 127.578532 113.917868 126.985521 
C 113.324857 126.392511 112.52045 126.059314 111.681806 126.059314 
C 110.843163 126.059314 110.038756 126.392511 109.445745 126.985521 
C 108.852735 127.578532 108.519538 128.382939 108.519538 129.221583 
C 108.519538 130.060226 108.852735 130.864634 109.445745 131.457644 
C 110.038756 132.050654 110.843163 132.383851 111.681806 132.383851 
z
" style="fill:#00ffff;fill-opacity:0.5;stroke:#00ffff;stroke-opacity:0.5;"/>
    <path clip-path="url(#p2322057459)" d="M 33.63111 132.502339 
C 34.469754 132.502339 35.274161 132.169143 35.867171 131.576133 
C 36.460182 130.983122 36.793378 130.178715 36.793378 129.340072 
C 36.793378 128.501428 36.460182 127.697021 35.867171 127.104011 
C 35.274161 126.511 34.469754 126.177804 33.63111 126.177804 
C 32.792467 126.177804 31.98806 126.511 31.395049 127.104011 
C 30.802039 127.697021 30.468843 128.501428 30.468843 129.340072 
C 30.468843 130.178715 30.802039 130.983122 31.395049 131.576133 
C 31.98806 132.169143 32.792467 132.502339 33.63111 132.502339 
z
" style="fill:#00ffff;fill-opacity:0.5;stroke:#00ffff;stroke-opacity:0.5;"/>
    <path clip-path="url(#p2322057459)" d="M 111.538108 110.369983 
C 112.376752 110.369983 113.181159 110.036786 113.77417 109.443776 
C 114.36718 108.850765 114.700377 108.046358 114.700377 107.207715 
C 114.700377 106.369071 114.36718 105.564664 113.77417 104.971653 
C 113.181159 104.378643 112.376752 104.045446 111.538108 104.045446 
C 110.699465 104.045446 109.895057 104.378643 109.302047 104.971653 
C 108.709037 105.564664 108.37584 106.369071 108.37584 107.207715 
C 108.37584 108.046358 108.709037 108.850765 109.302047 109.443776 
C 109.895057 110.036786 110.699465 110.369983 111.538108 110.369983 
z
" style="fill:#00ffff;fill-opacity:0.5;stroke:#00ffff;stroke-opacity:0.5;"/>
    <path clip-path="url(#p2322057459)" d="M -198.356631 166.42638 
C -197.517989 166.42638 -196.713582 166.093184 -196.120572 165.500174 
C -195.527563 164.907165 -195.194367 164.102758 -195.194367 163.264116 
C -195.194367 162.425474 -195.527563 161.621067 -196.120572 161.028057 
C -196.713582 160.435048 -197.517989 160.101852 -198.356631 160.101852 
C -199.195273 160.101852 -199.99968 160.435048 -200.592689 161.028057 
C -201.185699 161.621067 -201.518895 162.425474 -201.518895 163.264116 
C -201.518895 164.102758 -201.185699 164.907165 -200.592689 165.500174 
C -199.99968 166.093184 -199.195273 166.42638 -198.356631 166.42638 
z
" style="fill:#00ffff;fill-opacity:0.5;stroke:#00ffff;stroke-opacity:0.5;"/>
    <path clip-path="url(#p2322057459)" d="M -88.674435 133.977 
C -87.835792 133.977 -87.031384 133.643803 -86.438374 133.050793 
C -85.845364 132.457783 -85.512168 131.653376 -85.512168 130.814733 
C -85.512168 129.97609 -85.845364 129.171682 -86.438374 128.578672 
C -87.031384 127.985662 -87.835792 127.652465 -88.674435 127.652465 
C -89.513078 127.652465 -90.317485 127.985662 -90.910495 128.578672 
C -91.503505 129.171682 -91.836702 129.97609 -91.836702 130.814733 
C -91.836702 131.653376 -91.503505 132.457783 -90.910495 133.050793 
C -90.317485 133.643803 -89.513078 133.977 -88.674435 133.977 
z
" style="fill:#00ffff;fill-opacity:0.5;stroke:#00ffff;stroke-opacity:0.5;"/>
    <path clip-path="url(#p2322057459)" d="M -247.648033 170.195608 
C -246.809392 170.195608 -246.004987 169.862413 -245.411978 169.269404 
C -244.818969 168.676395 -244.485774 167.87199 -244.485774 167.033349 
C -244.485774 166.194708 -244.818969 165.390302 -245.411978 164.797294 
C -246.004987 164.204285 -246.809392 163.871089 -247.648033 163.871089 
C -248.486674 163.871089 -249.29108 164.204285 -249.884088 164.797294 
C -250.477097 165.390302 -250.810293 166.194708 -250.810293 167.033349 
C -250.810293 167.87199 -250.477097 168.676395 -249.884088 169.269404 
C -249.29108 169.862413 -248.486674 170.195608 -247.648033 170.195608 
z
" style="fill:#00ffff;fill-opacity:0.5;stroke:#00ffff;stroke-opacity:0.5;"/>
    <path clip-path="url(#p2322057459)" d="M -117.031453 153.894639 
C -116.19281 153.894639 -115.388403 153.561443 -114.795393 152.968432 
C -114.202383 152.375422 -113.869186 151.571015 -113.869186 150.732372 
C -113.869186 149.893729 -114.202383 149.089322 -114.795393 148.496312 
C -115.388403 147.903302 -116.19281 147.570105 -117.031453 147.570105 
C -117.870096 147.570105 -118.674503 147.903302 -119.267513 148.496312 
C -119.860523 149.089322 -120.19372 149.893729 -120.19372 150.732372 
C -120.19372 151.571015 -119.860523 152.375422 -119.267513 152.968432 
C -118.674503 153.561443 -117.870096 153.894639 -117.031453 153.894639 
z
" style="fill:#00ffff;fill-opacity:0.5;stroke:#00ffff;stroke-opacity:0.5;"/>
    <path clip-path="url(#p2322057459)" d="M 39.079871 102.03268 
C 39.918514 102.03268 40.722921 101.699483 41.315932 101.106473 
C 41.908942 100.513463 42.242138 99.709055 42.242138 98.870412 
C 42.242138 98.031769 41.908942 97.227361 41.315932 96.634351 
C 40.722921 96.041341 39.918514 95.708144 39.079871 95.708144 
C 38.241227 95.708144 37.43682 96.041341 36.843809 96.634351 
C 36.250799 97.227361 35.917603 98.031769 35.917603 98.870412 
C 35.917603 99.709055 36.250799 100.513463 36.843809 101.106473 
C 37.43682 101.699483 38.241227 102.03268 39.079871 102.03268 
z
" style="fill:#00ffff;fill-opacity:0.5;stroke:#00ffff;stroke-opacity:0.5;"/>
   </g>
   <g id="PathCollection_3">
    <defs>
     <path d="M -2.236068 2.236068 
L 2.236068 -2.236068 
M -2.236068 -2.236068 
L 2.236068 2.236068 
" id="m1f8f279190" style="stroke:#ff0000;stroke-width:1.5;"/>
    </defs>
    <g clip-path="url(#p2322057459)">
     <use style="fill:#ff0000;stroke:#ff0000;stroke-width:1.5;" x="187.959473" xlink:href="#m1f8f279190" y="70.79453"/>
     <use style="fill:#ff0000;stroke:#ff0000;stroke-width:1.5;" x="223.209824" xlink:href="#m1f8f279190" y="21.171282"/>
     <use style="fill:#ff0000;stroke:#ff0000;stroke-width:1.5;" x="19.825461" xlink:href="#m1f8f279190" y="123.44319"/>
     <use style="fill:#ff0000;stroke:#ff0000;stroke-width:1.5;" x="389.104517" xlink:href="#m1f8f279190" y="61.639762"/>
     <use style="fill:#ff0000;stroke:#ff0000;stroke-width:1.5;" x="53.342047" xlink:href="#m1f8f279190" y="103.599052"/>
     <use style="fill:#ff0000;stroke:#ff0000;stroke-width:1.5;" x="146.402184" xlink:href="#m1f8f279190" y="107.933313"/>
     <use style="fill:#ff0000;stroke:#ff0000;stroke-width:1.5;" x="277.885726" xlink:href="#m1f8f279190" y="62.551213"/>
     <use style="fill:#ff0000;stroke:#ff0000;stroke-width:1.5;" x="106.942249" xlink:href="#m1f8f279190" y="75.635434"/>
     <use style="fill:#ff0000;stroke:#ff0000;stroke-width:1.5;" x="125.26075" xlink:href="#m1f8f279190" y="116.622063"/>
     <use style="fill:#ff0000;stroke:#ff0000;stroke-width:1.5;" x="139.825189" xlink:href="#m1f8f279190" y="95.229621"/>
    </g>
   </g>
   <g id="PathCollection_4">
    <defs>
     <path d="M 0 2.236068 
C 0.593012 2.236068 1.161816 2.000462 1.581139 1.581139 
C 2.000462 1.161816 2.236068 0.593012 2.236068 0 
C 2.236068 -0.593012 2.000462 -1.161816 1.581139 -1.581139 
C 1.161816 -2.000462 0.593012 -2.236068 0 -2.236068 
C -0.593012 -2.236068 -1.161816 -2.000462 -1.581139 -1.581139 
C -2.000462 -1.161816 -2.236068 -0.593012 -2.236068 0 
C -2.236068 0.593012 -2.000462 1.161816 -1.581139 1.581139 
C -1.161816 2.000462 -0.593012 2.236068 0 2.236068 
z
" id="maa59ae6f29" style="stroke:#bfbf00;"/>
    </defs>
    <g clip-path="url(#p2322057459)">
     <use style="fill:#bfbf00;stroke:#bfbf00;" x="403.611563" xlink:href="#maa59ae6f29" y="40.113101"/>
     <use style="fill:#bfbf00;stroke:#bfbf00;" x="271.395631" xlink:href="#maa59ae6f29" y="65.620896"/>
     <use style="fill:#bfbf00;stroke:#bfbf00;" x="238.147769" xlink:href="#maa59ae6f29" y="86.503957"/>
     <use style="fill:#bfbf00;stroke:#bfbf00;" x="46.491563" xlink:href="#maa59ae6f29" y="119.018809"/>
     <use style="fill:#bfbf00;stroke:#bfbf00;" x="201.587632" xlink:href="#maa59ae6f29" y="91.796401"/>
    </g>
   </g>
   <g id="matplotlib.axis_1">
    <g id="xtick_1">
     <g id="line2d_1">
      <defs>
       <path d="M 0 0 
L 0 3.5 
" id="m25f9abab31" style="stroke:#000000;stroke-width:0.8;"/>
      </defs>
      <g>
       <use style="stroke:#000000;stroke-width:0.8;" x="82.035431" xlink:href="#m25f9abab31" y="275.187282"/>
      </g>
     </g>
     <g id="text_1">
      <!-- 2.5 -->
      <g transform="translate(74.083868 289.78572)scale(0.1 -0.1)">
       <defs>
        <path d="M 1228 531 
L 3431 531 
L 3431 0 
L 469 0 
L 469 531 
Q 828 903 1448 1529 
Q 2069 2156 2228 2338 
Q 2531 2678 2651 2914 
Q 2772 3150 2772 3378 
Q 2772 3750 2511 3984 
Q 2250 4219 1831 4219 
Q 1534 4219 1204 4116 
Q 875 4013 500 3803 
L 500 4441 
Q 881 4594 1212 4672 
Q 1544 4750 1819 4750 
Q 2544 4750 2975 4387 
Q 3406 4025 3406 3419 
Q 3406 3131 3298 2873 
Q 3191 2616 2906 2266 
Q 2828 2175 2409 1742 
Q 1991 1309 1228 531 
z
" id="DejaVuSans-32" transform="scale(0.015625)"/>
        <path d="M 684 794 
L 1344 794 
L 1344 0 
L 684 0 
L 684 794 
z
" id="DejaVuSans-2e" transform="scale(0.015625)"/>
        <path d="M 691 4666 
L 3169 4666 
L 3169 4134 
L 1269 4134 
L 1269 2991 
Q 1406 3038 1543 3061 
Q 1681 3084 1819 3084 
Q 2600 3084 3056 2656 
Q 3513 2228 3513 1497 
Q 3513 744 3044 326 
Q 2575 -91 1722 -91 
Q 1428 -91 1123 -41 
Q 819 9 494 109 
L 494 744 
Q 775 591 1075 516 
Q 1375 441 1709 441 
Q 2250 441 2565 725 
Q 2881 1009 2881 1497 
Q 2881 1984 2565 2268 
Q 2250 2553 1709 2553 
Q 1456 2553 1204 2497 
Q 953 2441 691 2322 
L 691 4666 
z
" id="DejaVuSans-35" transform="scale(0.015625)"/>
       </defs>
       <use xlink:href="#DejaVuSans-32"/>
       <use x="63.623047" xlink:href="#DejaVuSans-2e"/>
       <use x="95.410156" xlink:href="#DejaVuSans-35"/>
      </g>
     </g>
    </g>
    <g id="xtick_2">
     <g id="line2d_2">
      <g>
       <use style="stroke:#000000;stroke-width:0.8;" x="130.927565" xlink:href="#m25f9abab31" y="275.187282"/>
      </g>
     </g>
     <g id="text_2">
      <!-- 3.0 -->
      <g transform="translate(122.976003 289.78572)scale(0.1 -0.1)">
       <defs>
        <path d="M 2597 2516 
Q 3050 2419 3304 2112 
Q 3559 1806 3559 1356 
Q 3559 666 3084 287 
Q 2609 -91 1734 -91 
Q 1441 -91 1130 -33 
Q 819 25 488 141 
L 488 750 
Q 750 597 1062 519 
Q 1375 441 1716 441 
Q 2309 441 2620 675 
Q 2931 909 2931 1356 
Q 2931 1769 2642 2001 
Q 2353 2234 1838 2234 
L 1294 2234 
L 1294 2753 
L 1863 2753 
Q 2328 2753 2575 2939 
Q 2822 3125 2822 3475 
Q 2822 3834 2567 4026 
Q 2313 4219 1838 4219 
Q 1578 4219 1281 4162 
Q 984 4106 628 3988 
L 628 4550 
Q 988 4650 1302 4700 
Q 1616 4750 1894 4750 
Q 2613 4750 3031 4423 
Q 3450 4097 3450 3541 
Q 3450 3153 3228 2886 
Q 3006 2619 2597 2516 
z
" id="DejaVuSans-33" transform="scale(0.015625)"/>
        <path d="M 2034 4250 
Q 1547 4250 1301 3770 
Q 1056 3291 1056 2328 
Q 1056 1369 1301 889 
Q 1547 409 2034 409 
Q 2525 409 2770 889 
Q 3016 1369 3016 2328 
Q 3016 3291 2770 3770 
Q 2525 4250 2034 4250 
z
M 2034 4750 
Q 2819 4750 3233 4129 
Q 3647 3509 3647 2328 
Q 3647 1150 3233 529 
Q 2819 -91 2034 -91 
Q 1250 -91 836 529 
Q 422 1150 422 2328 
Q 422 3509 836 4129 
Q 1250 4750 2034 4750 
z
" id="DejaVuSans-30" transform="scale(0.015625)"/>
       </defs>
       <use xlink:href="#DejaVuSans-33"/>
       <use x="63.623047" xlink:href="#DejaVuSans-2e"/>
       <use x="95.410156" xlink:href="#DejaVuSans-30"/>
      </g>
     </g>
    </g>
    <g id="xtick_3">
     <g id="line2d_3">
      <g>
       <use style="stroke:#000000;stroke-width:0.8;" x="179.8197" xlink:href="#m25f9abab31" y="275.187282"/>
      </g>
     </g>
     <g id="text_3">
      <!-- 3.5 -->
      <g transform="translate(171.868137 289.78572)scale(0.1 -0.1)">
       <use xlink:href="#DejaVuSans-33"/>
       <use x="63.623047" xlink:href="#DejaVuSans-2e"/>
       <use x="95.410156" xlink:href="#DejaVuSans-35"/>
      </g>
     </g>
    </g>
    <g id="xtick_4">
     <g id="line2d_4">
      <g>
       <use style="stroke:#000000;stroke-width:0.8;" x="228.711835" xlink:href="#m25f9abab31" y="275.187282"/>
      </g>
     </g>
     <g id="text_4">
      <!-- 4.0 -->
      <g transform="translate(220.760272 289.78572)scale(0.1 -0.1)">
       <defs>
        <path d="M 2419 4116 
L 825 1625 
L 2419 1625 
L 2419 4116 
z
M 2253 4666 
L 3047 4666 
L 3047 1625 
L 3713 1625 
L 3713 1100 
L 3047 1100 
L 3047 0 
L 2419 0 
L 2419 1100 
L 313 1100 
L 313 1709 
L 2253 4666 
z
" id="DejaVuSans-34" transform="scale(0.015625)"/>
       </defs>
       <use xlink:href="#DejaVuSans-34"/>
       <use x="63.623047" xlink:href="#DejaVuSans-2e"/>
       <use x="95.410156" xlink:href="#DejaVuSans-30"/>
      </g>
     </g>
    </g>
    <g id="xtick_5">
     <g id="line2d_5">
      <g>
       <use style="stroke:#000000;stroke-width:0.8;" x="277.603969" xlink:href="#m25f9abab31" y="275.187282"/>
      </g>
     </g>
     <g id="text_5">
      <!-- 4.5 -->
      <g transform="translate(269.652407 289.78572)scale(0.1 -0.1)">
       <use xlink:href="#DejaVuSans-34"/>
       <use x="63.623047" xlink:href="#DejaVuSans-2e"/>
       <use x="95.410156" xlink:href="#DejaVuSans-35"/>
      </g>
     </g>
    </g>
    <g id="xtick_6">
     <g id="line2d_6">
      <g>
       <use style="stroke:#000000;stroke-width:0.8;" x="326.496104" xlink:href="#m25f9abab31" y="275.187282"/>
      </g>
     </g>
     <g id="text_6">
      <!-- 5.0 -->
      <g transform="translate(318.544541 289.78572)scale(0.1 -0.1)">
       <use xlink:href="#DejaVuSans-35"/>
       <use x="63.623047" xlink:href="#DejaVuSans-2e"/>
       <use x="95.410156" xlink:href="#DejaVuSans-30"/>
      </g>
     </g>
    </g>
    <g id="xtick_7">
     <g id="line2d_7">
      <g>
       <use style="stroke:#000000;stroke-width:0.8;" x="375.388238" xlink:href="#m25f9abab31" y="275.187282"/>
      </g>
     </g>
     <g id="text_7">
      <!-- 5.5 -->
      <g transform="translate(367.436676 289.78572)scale(0.1 -0.1)">
       <use xlink:href="#DejaVuSans-35"/>
       <use x="63.623047" xlink:href="#DejaVuSans-2e"/>
       <use x="95.410156" xlink:href="#DejaVuSans-35"/>
      </g>
     </g>
    </g>
    <g id="text_8">
     <!-- x -->
     <g transform="translate(220.908438 306.50322)scale(0.14 -0.14)">
      <defs>
       <path d="M 3513 3500 
L 2247 1797 
L 3578 0 
L 2900 0 
L 1881 1375 
L 863 0 
L 184 0 
L 1544 1831 
L 300 3500 
L 978 3500 
L 1906 2253 
L 2834 3500 
L 3513 3500 
z
" id="DejaVuSans-78" transform="scale(0.015625)"/>
      </defs>
      <use xlink:href="#DejaVuSans-78"/>
     </g>
    </g>
   </g>
   <g id="matplotlib.axis_2">
    <g id="ytick_1">
     <g id="line2d_8">
      <defs>
       <path d="M 0 0 
L -3.5 0 
" id="mf67b08d2cf" style="stroke:#000000;stroke-width:0.8;"/>
      </defs>
      <g>
       <use style="stroke:#000000;stroke-width:0.8;" x="46.491563" xlink:href="#mf67b08d2cf" y="247.160392"/>
      </g>
     </g>
     <g id="text_9">
      <!-- −5 -->
      <g transform="translate(24.749375 250.95961)scale(0.1 -0.1)">
       <defs>
        <path d="M 678 2272 
L 4684 2272 
L 4684 1741 
L 678 1741 
L 678 2272 
z
" id="DejaVuSans-2212" transform="scale(0.015625)"/>
       </defs>
       <use xlink:href="#DejaVuSans-2212"/>
       <use x="83.789062" xlink:href="#DejaVuSans-35"/>
      </g>
     </g>
    </g>
    <g id="ytick_2">
     <g id="line2d_9">
      <g>
       <use style="stroke:#000000;stroke-width:0.8;" x="46.491563" xlink:href="#mf67b08d2cf" y="207.800196"/>
      </g>
     </g>
     <g id="text_10">
      <!-- 0 -->
      <g transform="translate(33.129063 211.599415)scale(0.1 -0.1)">
       <use xlink:href="#DejaVuSans-30"/>
      </g>
     </g>
    </g>
    <g id="ytick_3">
     <g id="line2d_10">
      <g>
       <use style="stroke:#000000;stroke-width:0.8;" x="46.491563" xlink:href="#mf67b08d2cf" y="168.440001"/>
      </g>
     </g>
     <g id="text_11">
      <!-- 5 -->
      <g transform="translate(33.129063 172.239219)scale(0.1 -0.1)">
       <use xlink:href="#DejaVuSans-35"/>
      </g>
     </g>
    </g>
    <g id="ytick_4">
     <g id="line2d_11">
      <g>
       <use style="stroke:#000000;stroke-width:0.8;" x="46.491563" xlink:href="#mf67b08d2cf" y="129.079805"/>
      </g>
     </g>
     <g id="text_12">
      <!-- 10 -->
      <g transform="translate(26.766562 132.879024)scale(0.1 -0.1)">
       <defs>
        <path d="M 794 531 
L 1825 531 
L 1825 4091 
L 703 3866 
L 703 4441 
L 1819 4666 
L 2450 4666 
L 2450 531 
L 3481 531 
L 3481 0 
L 794 0 
L 794 531 
z
" id="DejaVuSans-31" transform="scale(0.015625)"/>
       </defs>
       <use xlink:href="#DejaVuSans-31"/>
       <use x="63.623047" xlink:href="#DejaVuSans-30"/>
      </g>
     </g>
    </g>
    <g id="ytick_5">
     <g id="line2d_12">
      <g>
       <use style="stroke:#000000;stroke-width:0.8;" x="46.491563" xlink:href="#mf67b08d2cf" y="89.71961"/>
      </g>
     </g>
     <g id="text_13">
      <!-- 15 -->
      <g transform="translate(26.766562 93.518828)scale(0.1 -0.1)">
       <use xlink:href="#DejaVuSans-31"/>
       <use x="63.623047" xlink:href="#DejaVuSans-35"/>
      </g>
     </g>
    </g>
    <g id="ytick_6">
     <g id="line2d_13">
      <g>
       <use style="stroke:#000000;stroke-width:0.8;" x="46.491563" xlink:href="#mf67b08d2cf" y="50.359414"/>
      </g>
     </g>
     <g id="text_14">
      <!-- 20 -->
      <g transform="translate(26.766562 54.158633)scale(0.1 -0.1)">
       <use xlink:href="#DejaVuSans-32"/>
       <use x="63.623047" xlink:href="#DejaVuSans-30"/>
      </g>
     </g>
    </g>
    <g id="ytick_7">
     <g id="line2d_14">
      <g>
       <use style="stroke:#000000;stroke-width:0.8;" x="46.491563" xlink:href="#mf67b08d2cf" y="10.999219"/>
      </g>
     </g>
     <g id="text_15">
      <!-- 25 -->
      <g transform="translate(26.766562 14.798438)scale(0.1 -0.1)">
       <use xlink:href="#DejaVuSans-32"/>
       <use x="63.623047" xlink:href="#DejaVuSans-35"/>
      </g>
     </g>
    </g>
    <g id="text_16">
     <!-- y -->
     <g transform="translate(17.837812 146.274407)rotate(-90)scale(0.14 -0.14)">
      <defs>
       <path d="M 2059 -325 
Q 1816 -950 1584 -1140 
Q 1353 -1331 966 -1331 
L 506 -1331 
L 506 -850 
L 844 -850 
Q 1081 -850 1212 -737 
Q 1344 -625 1503 -206 
L 1606 56 
L 191 3500 
L 800 3500 
L 1894 763 
L 2988 3500 
L 3597 3500 
L 2059 -325 
z
" id="DejaVuSans-79" transform="scale(0.015625)"/>
      </defs>
      <use xlink:href="#DejaVuSans-79"/>
     </g>
    </g>
   </g>
   <g id="line2d_15">
    <path clip-path="url(#p2322057459)" d="M 46.491563 107.482873 
L 403.611563 37.469487 
" style="fill:none;stroke:#000000;stroke-dasharray:5.55,2.4;stroke-dashoffset:0;stroke-width:1.5;"/>
   </g>
   <g id="line2d_16">
    <path clip-path="url(#p2322057459)" d="M 46.491563 116.087652 
L 403.611563 34.008209 
" style="fill:none;stroke:#000000;stroke-linecap:square;stroke-width:1.5;"/>
   </g>
   <g id="patch_3">
    <path d="M 46.491563 275.187282 
L 46.491563 9.075282 
" style="fill:none;stroke:#000000;stroke-linecap:square;stroke-linejoin:miter;stroke-width:0.8;"/>
   </g>
   <g id="patch_4">
    <path d="M 403.611563 275.187282 
L 403.611563 9.075282 
" style="fill:none;stroke:#000000;stroke-linecap:square;stroke-linejoin:miter;stroke-width:0.8;"/>
   </g>
   <g id="patch_5">
    <path d="M 46.491563 275.187282 
L 403.611563 275.187282 
" style="fill:none;stroke:#000000;stroke-linecap:square;stroke-linejoin:miter;stroke-width:0.8;"/>
   </g>
   <g id="patch_6">
    <path d="M 46.491563 9.075282 
L 403.611563 9.075282 
" style="fill:none;stroke:#000000;stroke-linecap:square;stroke-linejoin:miter;stroke-width:0.8;"/>
   </g>
   <g id="legend_1">
    <g id="patch_7">
     <path d="M 54.891562 269.187282 
L 204.122812 269.187282 
Q 206.522812 269.187282 206.522812 266.787282 
L 206.522812 179.918532 
Q 206.522812 177.518532 204.122812 177.518532 
L 54.891562 177.518532 
Q 52.491563 177.518532 52.491563 179.918532 
L 52.491563 266.787282 
Q 52.491563 269.187282 54.891562 269.187282 
z
" style="fill:#ffffff;opacity:0.8;stroke:#cccccc;stroke-linejoin:miter;"/>
    </g>
    <g id="line2d_17">
     <path d="M 57.291562 187.236657 
L 81.291562 187.236657 
" style="fill:none;stroke:#000000;stroke-dasharray:5.55,2.4;stroke-dashoffset:0;stroke-width:1.5;"/>
    </g>
    <g id="line2d_18"/>
    <g id="text_17">
     <!-- Without transfer -->
     <g transform="translate(90.891562 191.436657)scale(0.12 -0.12)">
      <defs>
       <path d="M 213 4666 
L 850 4666 
L 1831 722 
L 2809 4666 
L 3519 4666 
L 4500 722 
L 5478 4666 
L 6119 4666 
L 4947 0 
L 4153 0 
L 3169 4050 
L 2175 0 
L 1381 0 
L 213 4666 
z
" id="DejaVuSans-57" transform="scale(0.015625)"/>
       <path d="M 603 3500 
L 1178 3500 
L 1178 0 
L 603 0 
L 603 3500 
z
M 603 4863 
L 1178 4863 
L 1178 4134 
L 603 4134 
L 603 4863 
z
" id="DejaVuSans-69" transform="scale(0.015625)"/>
       <path d="M 1172 4494 
L 1172 3500 
L 2356 3500 
L 2356 3053 
L 1172 3053 
L 1172 1153 
Q 1172 725 1289 603 
Q 1406 481 1766 481 
L 2356 481 
L 2356 0 
L 1766 0 
Q 1100 0 847 248 
Q 594 497 594 1153 
L 594 3053 
L 172 3053 
L 172 3500 
L 594 3500 
L 594 4494 
L 1172 4494 
z
" id="DejaVuSans-74" transform="scale(0.015625)"/>
       <path d="M 3513 2113 
L 3513 0 
L 2938 0 
L 2938 2094 
Q 2938 2591 2744 2837 
Q 2550 3084 2163 3084 
Q 1697 3084 1428 2787 
Q 1159 2491 1159 1978 
L 1159 0 
L 581 0 
L 581 4863 
L 1159 4863 
L 1159 2956 
Q 1366 3272 1645 3428 
Q 1925 3584 2291 3584 
Q 2894 3584 3203 3211 
Q 3513 2838 3513 2113 
z
" id="DejaVuSans-68" transform="scale(0.015625)"/>
       <path d="M 1959 3097 
Q 1497 3097 1228 2736 
Q 959 2375 959 1747 
Q 959 1119 1226 758 
Q 1494 397 1959 397 
Q 2419 397 2687 759 
Q 2956 1122 2956 1747 
Q 2956 2369 2687 2733 
Q 2419 3097 1959 3097 
z
M 1959 3584 
Q 2709 3584 3137 3096 
Q 3566 2609 3566 1747 
Q 3566 888 3137 398 
Q 2709 -91 1959 -91 
Q 1206 -91 779 398 
Q 353 888 353 1747 
Q 353 2609 779 3096 
Q 1206 3584 1959 3584 
z
" id="DejaVuSans-6f" transform="scale(0.015625)"/>
       <path d="M 544 1381 
L 544 3500 
L 1119 3500 
L 1119 1403 
Q 1119 906 1312 657 
Q 1506 409 1894 409 
Q 2359 409 2629 706 
Q 2900 1003 2900 1516 
L 2900 3500 
L 3475 3500 
L 3475 0 
L 2900 0 
L 2900 538 
Q 2691 219 2414 64 
Q 2138 -91 1772 -91 
Q 1169 -91 856 284 
Q 544 659 544 1381 
z
M 1991 3584 
L 1991 3584 
z
" id="DejaVuSans-75" transform="scale(0.015625)"/>
       <path id="DejaVuSans-20" transform="scale(0.015625)"/>
       <path d="M 2631 2963 
Q 2534 3019 2420 3045 
Q 2306 3072 2169 3072 
Q 1681 3072 1420 2755 
Q 1159 2438 1159 1844 
L 1159 0 
L 581 0 
L 581 3500 
L 1159 3500 
L 1159 2956 
Q 1341 3275 1631 3429 
Q 1922 3584 2338 3584 
Q 2397 3584 2469 3576 
Q 2541 3569 2628 3553 
L 2631 2963 
z
" id="DejaVuSans-72" transform="scale(0.015625)"/>
       <path d="M 2194 1759 
Q 1497 1759 1228 1600 
Q 959 1441 959 1056 
Q 959 750 1161 570 
Q 1363 391 1709 391 
Q 2188 391 2477 730 
Q 2766 1069 2766 1631 
L 2766 1759 
L 2194 1759 
z
M 3341 1997 
L 3341 0 
L 2766 0 
L 2766 531 
Q 2569 213 2275 61 
Q 1981 -91 1556 -91 
Q 1019 -91 701 211 
Q 384 513 384 1019 
Q 384 1609 779 1909 
Q 1175 2209 1959 2209 
L 2766 2209 
L 2766 2266 
Q 2766 2663 2505 2880 
Q 2244 3097 1772 3097 
Q 1472 3097 1187 3025 
Q 903 2953 641 2809 
L 641 3341 
Q 956 3463 1253 3523 
Q 1550 3584 1831 3584 
Q 2591 3584 2966 3190 
Q 3341 2797 3341 1997 
z
" id="DejaVuSans-61" transform="scale(0.015625)"/>
       <path d="M 3513 2113 
L 3513 0 
L 2938 0 
L 2938 2094 
Q 2938 2591 2744 2837 
Q 2550 3084 2163 3084 
Q 1697 3084 1428 2787 
Q 1159 2491 1159 1978 
L 1159 0 
L 581 0 
L 581 3500 
L 1159 3500 
L 1159 2956 
Q 1366 3272 1645 3428 
Q 1925 3584 2291 3584 
Q 2894 3584 3203 3211 
Q 3513 2838 3513 2113 
z
" id="DejaVuSans-6e" transform="scale(0.015625)"/>
       <path d="M 2834 3397 
L 2834 2853 
Q 2591 2978 2328 3040 
Q 2066 3103 1784 3103 
Q 1356 3103 1142 2972 
Q 928 2841 928 2578 
Q 928 2378 1081 2264 
Q 1234 2150 1697 2047 
L 1894 2003 
Q 2506 1872 2764 1633 
Q 3022 1394 3022 966 
Q 3022 478 2636 193 
Q 2250 -91 1575 -91 
Q 1294 -91 989 -36 
Q 684 19 347 128 
L 347 722 
Q 666 556 975 473 
Q 1284 391 1588 391 
Q 1994 391 2212 530 
Q 2431 669 2431 922 
Q 2431 1156 2273 1281 
Q 2116 1406 1581 1522 
L 1381 1569 
Q 847 1681 609 1914 
Q 372 2147 372 2553 
Q 372 3047 722 3315 
Q 1072 3584 1716 3584 
Q 2034 3584 2315 3537 
Q 2597 3491 2834 3397 
z
" id="DejaVuSans-73" transform="scale(0.015625)"/>
       <path d="M 2375 4863 
L 2375 4384 
L 1825 4384 
Q 1516 4384 1395 4259 
Q 1275 4134 1275 3809 
L 1275 3500 
L 2222 3500 
L 2222 3053 
L 1275 3053 
L 1275 0 
L 697 0 
L 697 3053 
L 147 3053 
L 147 3500 
L 697 3500 
L 697 3744 
Q 697 4328 969 4595 
Q 1241 4863 1831 4863 
L 2375 4863 
z
" id="DejaVuSans-66" transform="scale(0.015625)"/>
       <path d="M 3597 1894 
L 3597 1613 
L 953 1613 
Q 991 1019 1311 708 
Q 1631 397 2203 397 
Q 2534 397 2845 478 
Q 3156 559 3463 722 
L 3463 178 
Q 3153 47 2828 -22 
Q 2503 -91 2169 -91 
Q 1331 -91 842 396 
Q 353 884 353 1716 
Q 353 2575 817 3079 
Q 1281 3584 2069 3584 
Q 2775 3584 3186 3129 
Q 3597 2675 3597 1894 
z
M 3022 2063 
Q 3016 2534 2758 2815 
Q 2500 3097 2075 3097 
Q 1594 3097 1305 2825 
Q 1016 2553 972 2059 
L 3022 2063 
z
" id="DejaVuSans-65" transform="scale(0.015625)"/>
      </defs>
      <use xlink:href="#DejaVuSans-57"/>
      <use x="96.626953" xlink:href="#DejaVuSans-69"/>
      <use x="124.410156" xlink:href="#DejaVuSans-74"/>
      <use x="163.619141" xlink:href="#DejaVuSans-68"/>
      <use x="226.998047" xlink:href="#DejaVuSans-6f"/>
      <use x="288.179688" xlink:href="#DejaVuSans-75"/>
      <use x="351.558594" xlink:href="#DejaVuSans-74"/>
      <use x="390.767578" xlink:href="#DejaVuSans-20"/>
      <use x="422.554688" xlink:href="#DejaVuSans-74"/>
      <use x="461.763672" xlink:href="#DejaVuSans-72"/>
      <use x="502.876953" xlink:href="#DejaVuSans-61"/>
      <use x="564.15625" xlink:href="#DejaVuSans-6e"/>
      <use x="627.535156" xlink:href="#DejaVuSans-73"/>
      <use x="679.634766" xlink:href="#DejaVuSans-66"/>
      <use x="714.839844" xlink:href="#DejaVuSans-65"/>
      <use x="776.363281" xlink:href="#DejaVuSans-72"/>
     </g>
    </g>
    <g id="line2d_19">
     <path d="M 57.291562 204.850407 
L 81.291562 204.850407 
" style="fill:none;stroke:#000000;stroke-linecap:square;stroke-width:1.5;"/>
    </g>
    <g id="line2d_20"/>
    <g id="text_18">
     <!-- With KMM transfer -->
     <g transform="translate(90.891562 209.050407)scale(0.12 -0.12)">
      <defs>
       <path d="M 628 4666 
L 1259 4666 
L 1259 2694 
L 3353 4666 
L 4166 4666 
L 1850 2491 
L 4331 0 
L 3500 0 
L 1259 2247 
L 1259 0 
L 628 0 
L 628 4666 
z
" id="DejaVuSans-4b" transform="scale(0.015625)"/>
       <path d="M 628 4666 
L 1569 4666 
L 2759 1491 
L 3956 4666 
L 4897 4666 
L 4897 0 
L 4281 0 
L 4281 4097 
L 3078 897 
L 2444 897 
L 1241 4097 
L 1241 0 
L 628 0 
L 628 4666 
z
" id="DejaVuSans-4d" transform="scale(0.015625)"/>
      </defs>
      <use xlink:href="#DejaVuSans-57"/>
      <use x="96.626953" xlink:href="#DejaVuSans-69"/>
      <use x="124.410156" xlink:href="#DejaVuSans-74"/>
      <use x="163.619141" xlink:href="#DejaVuSans-68"/>
      <use x="226.998047" xlink:href="#DejaVuSans-20"/>
      <use x="258.785156" xlink:href="#DejaVuSans-4b"/>
      <use x="324.361328" xlink:href="#DejaVuSans-4d"/>
      <use x="410.640625" xlink:href="#DejaVuSans-4d"/>
      <use x="496.919922" xlink:href="#DejaVuSans-20"/>
      <use x="528.707031" xlink:href="#DejaVuSans-74"/>
      <use x="567.916016" xlink:href="#DejaVuSans-72"/>
      <use x="609.029297" xlink:href="#DejaVuSans-61"/>
      <use x="670.308594" xlink:href="#DejaVuSans-6e"/>
      <use x="733.6875" xlink:href="#DejaVuSans-73"/>
      <use x="785.787109" xlink:href="#DejaVuSans-66"/>
      <use x="820.992188" xlink:href="#DejaVuSans-65"/>
      <use x="882.515625" xlink:href="#DejaVuSans-72"/>
     </g>
    </g>
    <g id="PathCollection_5">
     <g>
      <use style="stroke:#000000;stroke-width:1.5;" x="69.291562" xlink:href="#mdb8709c3ce" y="223.514157"/>
     </g>
    </g>
    <g id="text_19">
     <!-- Source Domain -->
     <g transform="translate(90.891562 226.664157)scale(0.12 -0.12)">
      <defs>
       <path d="M 3425 4513 
L 3425 3897 
Q 3066 4069 2747 4153 
Q 2428 4238 2131 4238 
Q 1616 4238 1336 4038 
Q 1056 3838 1056 3469 
Q 1056 3159 1242 3001 
Q 1428 2844 1947 2747 
L 2328 2669 
Q 3034 2534 3370 2195 
Q 3706 1856 3706 1288 
Q 3706 609 3251 259 
Q 2797 -91 1919 -91 
Q 1588 -91 1214 -16 
Q 841 59 441 206 
L 441 856 
Q 825 641 1194 531 
Q 1563 422 1919 422 
Q 2459 422 2753 634 
Q 3047 847 3047 1241 
Q 3047 1584 2836 1778 
Q 2625 1972 2144 2069 
L 1759 2144 
Q 1053 2284 737 2584 
Q 422 2884 422 3419 
Q 422 4038 858 4394 
Q 1294 4750 2059 4750 
Q 2388 4750 2728 4690 
Q 3069 4631 3425 4513 
z
" id="DejaVuSans-53" transform="scale(0.015625)"/>
       <path d="M 3122 3366 
L 3122 2828 
Q 2878 2963 2633 3030 
Q 2388 3097 2138 3097 
Q 1578 3097 1268 2742 
Q 959 2388 959 1747 
Q 959 1106 1268 751 
Q 1578 397 2138 397 
Q 2388 397 2633 464 
Q 2878 531 3122 666 
L 3122 134 
Q 2881 22 2623 -34 
Q 2366 -91 2075 -91 
Q 1284 -91 818 406 
Q 353 903 353 1747 
Q 353 2603 823 3093 
Q 1294 3584 2113 3584 
Q 2378 3584 2631 3529 
Q 2884 3475 3122 3366 
z
" id="DejaVuSans-63" transform="scale(0.015625)"/>
       <path d="M 1259 4147 
L 1259 519 
L 2022 519 
Q 2988 519 3436 956 
Q 3884 1394 3884 2338 
Q 3884 3275 3436 3711 
Q 2988 4147 2022 4147 
L 1259 4147 
z
M 628 4666 
L 1925 4666 
Q 3281 4666 3915 4102 
Q 4550 3538 4550 2338 
Q 4550 1131 3912 565 
Q 3275 0 1925 0 
L 628 0 
L 628 4666 
z
" id="DejaVuSans-44" transform="scale(0.015625)"/>
       <path d="M 3328 2828 
Q 3544 3216 3844 3400 
Q 4144 3584 4550 3584 
Q 5097 3584 5394 3201 
Q 5691 2819 5691 2113 
L 5691 0 
L 5113 0 
L 5113 2094 
Q 5113 2597 4934 2840 
Q 4756 3084 4391 3084 
Q 3944 3084 3684 2787 
Q 3425 2491 3425 1978 
L 3425 0 
L 2847 0 
L 2847 2094 
Q 2847 2600 2669 2842 
Q 2491 3084 2119 3084 
Q 1678 3084 1418 2786 
Q 1159 2488 1159 1978 
L 1159 0 
L 581 0 
L 581 3500 
L 1159 3500 
L 1159 2956 
Q 1356 3278 1631 3431 
Q 1906 3584 2284 3584 
Q 2666 3584 2933 3390 
Q 3200 3197 3328 2828 
z
" id="DejaVuSans-6d" transform="scale(0.015625)"/>
      </defs>
      <use xlink:href="#DejaVuSans-53"/>
      <use x="63.476562" xlink:href="#DejaVuSans-6f"/>
      <use x="124.658203" xlink:href="#DejaVuSans-75"/>
      <use x="188.037109" xlink:href="#DejaVuSans-72"/>
      <use x="226.900391" xlink:href="#DejaVuSans-63"/>
      <use x="281.880859" xlink:href="#DejaVuSans-65"/>
      <use x="343.404297" xlink:href="#DejaVuSans-20"/>
      <use x="375.191406" xlink:href="#DejaVuSans-44"/>
      <use x="452.193359" xlink:href="#DejaVuSans-6f"/>
      <use x="513.375" xlink:href="#DejaVuSans-6d"/>
      <use x="610.787109" xlink:href="#DejaVuSans-61"/>
      <use x="672.066406" xlink:href="#DejaVuSans-69"/>
      <use x="699.849609" xlink:href="#DejaVuSans-6e"/>
     </g>
    </g>
    <g id="PathCollection_6">
     <g>
      <use style="fill:#ff0000;stroke:#ff0000;stroke-width:1.5;" x="69.291562" xlink:href="#m1f8f279190" y="241.127907"/>
     </g>
    </g>
    <g id="text_20">
     <!-- Target Domain -->
     <g transform="translate(90.891562 244.277907)scale(0.12 -0.12)">
      <defs>
       <path d="M -19 4666 
L 3928 4666 
L 3928 4134 
L 2272 4134 
L 2272 0 
L 1638 0 
L 1638 4134 
L -19 4134 
L -19 4666 
z
" id="DejaVuSans-54" transform="scale(0.015625)"/>
       <path d="M 2906 1791 
Q 2906 2416 2648 2759 
Q 2391 3103 1925 3103 
Q 1463 3103 1205 2759 
Q 947 2416 947 1791 
Q 947 1169 1205 825 
Q 1463 481 1925 481 
Q 2391 481 2648 825 
Q 2906 1169 2906 1791 
z
M 3481 434 
Q 3481 -459 3084 -895 
Q 2688 -1331 1869 -1331 
Q 1566 -1331 1297 -1286 
Q 1028 -1241 775 -1147 
L 775 -588 
Q 1028 -725 1275 -790 
Q 1522 -856 1778 -856 
Q 2344 -856 2625 -561 
Q 2906 -266 2906 331 
L 2906 616 
Q 2728 306 2450 153 
Q 2172 0 1784 0 
Q 1141 0 747 490 
Q 353 981 353 1791 
Q 353 2603 747 3093 
Q 1141 3584 1784 3584 
Q 2172 3584 2450 3431 
Q 2728 3278 2906 2969 
L 2906 3500 
L 3481 3500 
L 3481 434 
z
" id="DejaVuSans-67" transform="scale(0.015625)"/>
      </defs>
      <use xlink:href="#DejaVuSans-54"/>
      <use x="44.583984" xlink:href="#DejaVuSans-61"/>
      <use x="105.863281" xlink:href="#DejaVuSans-72"/>
      <use x="145.226562" xlink:href="#DejaVuSans-67"/>
      <use x="208.703125" xlink:href="#DejaVuSans-65"/>
      <use x="270.226562" xlink:href="#DejaVuSans-74"/>
      <use x="309.435547" xlink:href="#DejaVuSans-20"/>
      <use x="341.222656" xlink:href="#DejaVuSans-44"/>
      <use x="418.224609" xlink:href="#DejaVuSans-6f"/>
      <use x="479.40625" xlink:href="#DejaVuSans-6d"/>
      <use x="576.818359" xlink:href="#DejaVuSans-61"/>
      <use x="638.097656" xlink:href="#DejaVuSans-69"/>
      <use x="665.880859" xlink:href="#DejaVuSans-6e"/>
     </g>
    </g>
    <g id="PathCollection_7">
     <g>
      <use style="fill:#bfbf00;stroke:#bfbf00;" x="69.291562" xlink:href="#maa59ae6f29" y="258.741657"/>
     </g>
    </g>
    <g id="text_21">
     <!-- Test Data -->
     <g transform="translate(90.891562 261.891657)scale(0.12 -0.12)">
      <use xlink:href="#DejaVuSans-54"/>
      <use x="44.083984" xlink:href="#DejaVuSans-65"/>
      <use x="105.607422" xlink:href="#DejaVuSans-73"/>
      <use x="157.707031" xlink:href="#DejaVuSans-74"/>
      <use x="196.916016" xlink:href="#DejaVuSans-20"/>
      <use x="228.703125" xlink:href="#DejaVuSans-44"/>
      <use x="305.705078" xlink:href="#DejaVuSans-61"/>
      <use x="366.984375" xlink:href="#DejaVuSans-74"/>
      <use x="406.193359" xlink:href="#DejaVuSans-61"/>
     </g>
    </g>
   </g>
  </g>
 </g>
 <defs>
  <clipPath id="p2322057459">
   <rect height="266.112" width="357.12" x="46.491563" y="9.075282"/>
  </clipPath>
 </defs>
</svg>
