<?xml version="1.0" encoding="utf-8" standalone="no"?>
<!DOCTYPE svg PUBLIC "-//W3C//DTD SVG 1.1//EN"
  "http://www.w3.org/Graphics/SVG/1.1/DTD/svg11.dtd">
<svg height="316.614782pt" version="1.1" viewBox="0 0 410.811562 316.614782" width="410.811562pt" xmlns="http://www.w3.org/2000/svg" xmlns:xlink="http://www.w3.org/1999/xlink">
 <metadata>
  <rdf:RDF xmlns:cc="http://creativecommons.org/ns#" xmlns:dc="http://purl.org/dc/elements/1.1/" xmlns:rdf="http://www.w3.org/1999/02/22-rdf-syntax-ns#">
   <cc:Work>
    <dc:type rdf:resource="http://purl.org/dc/dcmitype/StillImage"/>
    <dc:date>2023-05-03T10:42:34.477755</dc:date>
    <dc:format>image/svg+xml</dc:format>
    <dc:creator>
     <cc:Agent>
      <dc:title>Matplotlib v3.4.3, https://matplotlib.org/</dc:title>
     </cc:Agent>
    </dc:creator>
   </cc:Work>
  </rdf:RDF>
 </metadata>
 <defs>
  <style type="text/css">*{stroke-linecap:butt;stroke-linejoin:round;}</style>
 </defs>
 <g id="figure_1">
  <g id="patch_1">
   <path d="M 0 316.614782 
L 410.811562 316.614782 
L 410.811562 0 
L 0 0 
z
" style="fill:#ffffff;"/>
  </g>
  <g id="axes_1">
   <g id="patch_2">
    <path d="M 46.491563 275.187282 
L 403.611563 275.187282 
L 403.611563 9.075282 
L 46.491563 9.075282 
z
" style="fill:#ffffff;"/>
   </g>
   <g id="PathCollection_1">
    <defs>
     <path d="M -2.236068 2.236068 
L 2.236068 -2.236068 
M -2.236068 -2.236068 
L 2.236068 2.236068 
" id="mcfcab1b666" style="stroke:#000000;stroke-width:1.5;"/>
    </defs>
    <g clip-path="url(#p9a1a25ad2d)">
     <use style="stroke:#000000;stroke-width:1.5;" x="253.029876" xlink:href="#mcfcab1b666" y="84.436764"/>
     <use style="stroke:#000000;stroke-width:1.5;" x="-1" xlink:href="#mcfcab1b666" y="141.74249"/>
     <use style="stroke:#000000;stroke-width:1.5;" x="-1" xlink:href="#mcfcab1b666" y="146.450499"/>
     <use style="stroke:#000000;stroke-width:1.5;" x="104.605532" xlink:href="#mcfcab1b666" y="119.800975"/>
     <use style="stroke:#000000;stroke-width:1.5;" x="-1" xlink:href="#mcfcab1b666" y="142.654076"/>
     <use style="stroke:#000000;stroke-width:1.5;" x="-1" xlink:href="#mcfcab1b666" y="146.689261"/>
     <use style="stroke:#000000;stroke-width:1.5;" x="276.589313" xlink:href="#mcfcab1b666" y="88.799057"/>
     <use style="stroke:#000000;stroke-width:1.5;" x="-1" xlink:href="#mcfcab1b666" y="137.759571"/>
     <use style="stroke:#000000;stroke-width:1.5;" x="-1" xlink:href="#mcfcab1b666" y="119.336451"/>
     <use style="stroke:#000000;stroke-width:1.5;" x="221.301339" xlink:href="#mcfcab1b666" y="80.295669"/>
     <use style="stroke:#000000;stroke-width:1.5;" x="-1" xlink:href="#mcfcab1b666" y="139.287089"/>
     <use style="stroke:#000000;stroke-width:1.5;" x="-1" xlink:href="#mcfcab1b666" y="107.606361"/>
     <use style="stroke:#000000;stroke-width:1.5;" x="157.08866" xlink:href="#mcfcab1b666" y="90.073537"/>
     <use style="stroke:#000000;stroke-width:1.5;" x="-1" xlink:href="#mcfcab1b666" y="134.132291"/>
     <use style="stroke:#000000;stroke-width:1.5;" x="-1" xlink:href="#mcfcab1b666" y="120.466865"/>
     <use style="stroke:#000000;stroke-width:1.5;" x="49.339347" xlink:href="#mcfcab1b666" y="102.720277"/>
     <use style="stroke:#000000;stroke-width:1.5;" x="-1" xlink:href="#mcfcab1b666" y="116.022644"/>
     <use style="stroke:#000000;stroke-width:1.5;" x="-1" xlink:href="#mcfcab1b666" y="132.150443"/>
     <use style="stroke:#000000;stroke-width:1.5;" x="159.23097" xlink:href="#mcfcab1b666" y="99.074798"/>
     <use style="stroke:#000000;stroke-width:1.5;" x="111.681806" xlink:href="#mcfcab1b666" y="129.221583"/>
     <use style="stroke:#000000;stroke-width:1.5;" x="33.63111" xlink:href="#mcfcab1b666" y="129.340072"/>
     <use style="stroke:#000000;stroke-width:1.5;" x="111.538108" xlink:href="#mcfcab1b666" y="107.207715"/>
     <use style="stroke:#000000;stroke-width:1.5;" x="-1" xlink:href="#mcfcab1b666" y="127.564567"/>
     <use style="stroke:#000000;stroke-width:1.5;" x="-1" xlink:href="#mcfcab1b666" y="112.185402"/>
     <use style="stroke:#000000;stroke-width:1.5;" x="39.079871" xlink:href="#mcfcab1b666" y="98.870412"/>
    </g>
   </g>
   <g id="PathCollection_2">
    <path clip-path="url(#p9a1a25ad2d)" d="M 253.029876 86.403244 
C 253.551392 86.403244 254.051619 86.196043 254.420387 85.827275 
C 254.789155 85.458507 254.996356 84.95828 254.996356 84.436764 
C 254.996356 83.915247 254.789155 83.41502 254.420387 83.046252 
C 254.051619 82.677484 253.551392 82.470283 253.029876 82.470283 
C 252.508359 82.470283 252.008132 82.677484 251.639364 83.046252 
C 251.270596 83.41502 251.063395 83.915247 251.063395 84.436764 
C 251.063395 84.95828 251.270596 85.458507 251.639364 85.827275 
C 252.008132 86.196043 252.508359 86.403244 253.029876 86.403244 
z
" style="fill:#00ffff;fill-opacity:0.5;stroke:#00ffff;stroke-opacity:0.5;"/>
    <path clip-path="url(#p9a1a25ad2d)" d="M -184.28128 185.054764 
C -183.759764 185.054764 -183.259537 184.847563 -182.890769 184.478795 
C -182.522001 184.110027 -182.3148 183.6098 -182.3148 183.088284 
C -182.3148 182.566767 -182.522001 182.06654 -182.890769 181.697772 
C -183.259537 181.329004 -183.759764 181.121803 -184.28128 181.121803 
C -184.802797 181.121803 -185.303024 181.329004 -185.671792 181.697772 
C -186.04056 182.06654 -186.247761 182.566767 -186.247761 183.088284 
C -186.247761 183.6098 -186.04056 184.110027 -185.671792 184.478795 
C -185.303024 184.847563 -184.802797 185.054764 -184.28128 185.054764 
z
" style="fill:#00ffff;fill-opacity:0.5;stroke:#00ffff;stroke-opacity:0.5;"/>
    <path clip-path="url(#p9a1a25ad2d)" d="M -167.93475 187.965447 
C -167.413234 187.965447 -166.913007 187.758246 -166.544239 187.389478 
C -166.175471 187.02071 -165.96827 186.520483 -165.96827 185.998966 
C -165.96827 185.47745 -166.175471 184.977223 -166.544239 184.608455 
C -166.913007 184.239687 -167.413234 184.032486 -167.93475 184.032486 
C -168.456267 184.032486 -168.956494 184.239687 -169.325262 184.608455 
C -169.69403 184.977223 -169.901231 185.47745 -169.901231 185.998966 
C -169.901231 186.520483 -169.69403 187.02071 -169.325262 187.389478 
C -168.956494 187.758246 -168.456267 187.965447 -167.93475 187.965447 
z
" style="fill:#00ffff;fill-opacity:0.5;stroke:#00ffff;stroke-opacity:0.5;"/>
    <path clip-path="url(#p9a1a25ad2d)" d="M -274.479878 217.429545 
C -273.958361 217.429545 -273.458134 217.222344 -273.089366 216.853576 
C -272.720598 216.484808 -272.513398 215.984581 -272.513398 215.463064 
C -272.513398 214.941548 -272.720598 214.441321 -273.089366 214.072553 
C -273.458134 213.703785 -273.958361 213.496584 -274.479878 213.496584 
C -275.001394 213.496584 -275.501621 213.703785 -275.870389 214.072553 
C -276.239157 214.441321 -276.446358 214.941548 -276.446358 215.463064 
C -276.446358 215.984581 -276.239157 216.484808 -275.870389 216.853576 
C -275.501621 217.222344 -275.001394 217.429545 -274.479878 217.429545 
z
" style="fill:#00ffff;fill-opacity:0.5;stroke:#00ffff;stroke-opacity:0.5;"/>
    <path clip-path="url(#p9a1a25ad2d)" d="M 104.605532 122.165988 
C 105.232741 122.165988 105.834345 121.916795 106.277849 121.473291 
C 106.721353 121.029788 106.970545 120.428183 106.970545 119.800975 
C 106.970545 119.173766 106.721353 118.572161 106.277849 118.128658 
C 105.834345 117.685154 105.232741 117.435961 104.605532 117.435961 
C 103.978323 117.435961 103.376719 117.685154 102.933215 118.128658 
C 102.489712 118.572161 102.240519 119.173766 102.240519 119.800975 
C 102.240519 120.428183 102.489712 121.029788 102.933215 121.473291 
C 103.376719 121.916795 103.978323 122.165988 104.605532 122.165988 
z
" style="fill:#00ffff;fill-opacity:0.5;stroke:#00ffff;stroke-opacity:0.5;"/>
    <path clip-path="url(#p9a1a25ad2d)" d="M -514.749531 255.796268 
C -514.228015 255.796268 -513.727788 255.589067 -513.35902 255.220299 
C -512.990252 254.851531 -512.783051 254.351304 -512.783051 253.829788 
C -512.783051 253.308271 -512.990252 252.808044 -513.35902 252.439276 
C -513.727788 252.070508 -514.228015 251.863307 -514.749531 251.863307 
C -515.271048 251.863307 -515.771275 252.070508 -516.140043 252.439276 
C -516.508811 252.808044 -516.716012 253.308271 -516.716012 253.829788 
C -516.716012 254.351304 -516.508811 254.851531 -516.140043 255.220299 
C -515.771275 255.589067 -515.271048 255.796268 -514.749531 255.796268 
z
" style="fill:#00ffff;fill-opacity:0.5;stroke:#00ffff;stroke-opacity:0.5;"/>
    <path clip-path="url(#p9a1a25ad2d)" d="M 276.589313 91.961335 
C 277.427959 91.961335 278.232369 91.628137 278.825381 91.035125 
C 279.418393 90.442113 279.751591 89.637703 279.751591 88.799057 
C 279.751591 87.960411 279.418393 87.156001 278.825381 86.562989 
C 278.232369 85.969977 277.427959 85.636779 276.589313 85.636779 
C 275.750668 85.636779 274.946258 85.969977 274.353245 86.562989 
C 273.760233 87.156001 273.427036 87.960411 273.427036 88.799057 
C 273.427036 89.637703 273.760233 90.442113 274.353245 91.035125 
C 274.946258 91.628137 275.750668 91.961335 276.589313 91.961335 
z
" style="fill:#00ffff;fill-opacity:0.5;stroke:#00ffff;stroke-opacity:0.5;"/>
    <path clip-path="url(#p9a1a25ad2d)" d="M -213.509094 177.207878 
C -212.987577 177.207878 -212.48735 177.000677 -212.118582 176.631909 
C -211.749814 176.263141 -211.542613 175.762914 -211.542613 175.241398 
C -211.542613 174.719881 -211.749814 174.219654 -212.118582 173.850886 
C -212.48735 173.482118 -212.987577 173.274917 -213.509094 173.274917 
C -214.03061 173.274917 -214.530837 173.482118 -214.899605 173.850886 
C -215.268373 174.219654 -215.475574 174.719881 -215.475574 175.241398 
C -215.475574 175.762914 -215.268373 176.263141 -214.899605 176.631909 
C -214.530837 177.000677 -214.03061 177.207878 -213.509094 177.207878 
z
" style="fill:#00ffff;fill-opacity:0.5;stroke:#00ffff;stroke-opacity:0.5;"/>
    <path clip-path="url(#p9a1a25ad2d)" d="M -2.246963 92.523352 
C -1.725446 92.523352 -1.22522 92.316151 -0.856451 91.947383 
C -0.487683 91.578615 -0.280483 91.078388 -0.280483 90.556871 
C -0.280483 90.035354 -0.487683 89.535127 -0.856451 89.166359 
C -1.22522 88.797591 -1.725446 88.590391 -2.246963 88.590391 
C -2.76848 88.590391 -3.268707 88.797591 -3.637475 89.166359 
C -4.006243 89.535127 -4.213444 90.035354 -4.213444 90.556871 
C -4.213444 91.078388 -4.006243 91.578615 -3.637475 91.947383 
C -3.268707 92.316151 -2.76848 92.523352 -2.246963 92.523352 
z
" style="fill:#00ffff;fill-opacity:0.5;stroke:#00ffff;stroke-opacity:0.5;"/>
    <path clip-path="url(#p9a1a25ad2d)" d="M -113.409973 141.043449 
C -112.88873 141.043449 -112.388765 140.836357 -112.020191 140.467783 
C -111.651617 140.099209 -111.444525 139.599244 -111.444525 139.078001 
C -111.444525 138.556759 -111.651617 138.056794 -112.020191 137.68822 
C -112.388765 137.319645 -112.88873 137.112553 -113.409973 137.112553 
C -113.931216 137.112553 -114.43118 137.319645 -114.799754 137.68822 
C -115.168329 138.056794 -115.375421 138.556759 -115.375421 139.078001 
C -115.375421 139.599244 -115.168329 140.099209 -114.799754 140.467783 
C -114.43118 140.836357 -113.931216 141.043449 -113.409973 141.043449 
z
" style="fill:#00ffff;fill-opacity:0.5;stroke:#00ffff;stroke-opacity:0.5;"/>
    <path clip-path="url(#p9a1a25ad2d)" d="M 221.301339 83.18243 
C 222.066917 83.18243 222.801242 82.878263 223.342587 82.336917 
C 223.883933 81.795572 224.1881 81.061247 224.1881 80.295669 
C 224.1881 79.530091 223.883933 78.795766 223.342587 78.254421 
C 222.801242 77.713076 222.066917 77.408908 221.301339 77.408908 
C 220.535761 77.408908 219.801436 77.713076 219.260091 78.254421 
C 218.718746 78.795766 218.414578 79.530091 218.414578 80.295669 
C 218.414578 81.061247 218.718746 81.795572 219.260091 82.336917 
C 219.801436 82.878263 220.535761 83.18243 221.301339 83.18243 
z
" style="fill:#00ffff;fill-opacity:0.5;stroke:#00ffff;stroke-opacity:0.5;"/>
    <path clip-path="url(#p9a1a25ad2d)" d="M -467.53968 265.057763 
C -467.018163 265.057763 -466.517936 264.850562 -466.149168 264.481794 
C -465.7804 264.113026 -465.573199 263.612799 -465.573199 263.091282 
C -465.573199 262.569765 -465.7804 262.069539 -466.149168 261.700771 
C -466.517936 261.332003 -467.018163 261.124802 -467.53968 261.124802 
C -468.061197 261.124802 -468.561424 261.332003 -468.930192 261.700771 
C -469.29896 262.069539 -469.50616 262.569765 -469.50616 263.091282 
C -469.50616 263.612799 -469.29896 264.113026 -468.930192 264.481794 
C -468.561424 264.850562 -468.061197 265.057763 -467.53968 265.057763 
z
" style="fill:#00ffff;fill-opacity:0.5;stroke:#00ffff;stroke-opacity:0.5;"/>
    <path clip-path="url(#p9a1a25ad2d)" d="M -127.695634 179.663827 
C -127.174117 179.663827 -126.67389 179.456626 -126.305122 179.087858 
C -125.936354 178.71909 -125.729154 178.218863 -125.729154 177.697346 
C -125.729154 177.175829 -125.936354 176.675603 -126.305122 176.306835 
C -126.67389 175.938066 -127.174117 175.730866 -127.695634 175.730866 
C -128.217151 175.730866 -128.717378 175.938066 -129.086146 176.306835 
C -129.454914 176.675603 -129.662115 177.175829 -129.662115 177.697346 
C -129.662115 178.218863 -129.454914 178.71909 -129.086146 179.087858 
C -128.717378 179.456626 -128.217151 179.663827 -127.695634 179.663827 
z
" style="fill:#00ffff;fill-opacity:0.5;stroke:#00ffff;stroke-opacity:0.5;"/>
    <path clip-path="url(#p9a1a25ad2d)" d="M -139.749922 124.960903 
C -139.228405 124.960903 -138.728178 124.753702 -138.35941 124.384934 
C -137.990642 124.016166 -137.783441 123.515939 -137.783441 122.994422 
C -137.783441 122.472906 -137.990642 121.972679 -138.35941 121.603911 
C -138.728178 121.235143 -139.228405 121.027942 -139.749922 121.027942 
C -140.271438 121.027942 -140.771665 121.235143 -141.140433 121.603911 
C -141.509201 121.972679 -141.716402 122.472906 -141.716402 122.994422 
C -141.716402 123.515939 -141.509201 124.016166 -141.140433 124.384934 
C -140.771665 124.753702 -140.271438 124.960903 -139.749922 124.960903 
z
" style="fill:#00ffff;fill-opacity:0.5;stroke:#00ffff;stroke-opacity:0.5;"/>
    <path clip-path="url(#p9a1a25ad2d)" d="M 157.08866 91.956458 
C 157.588016 91.956458 158.066987 91.758061 158.420085 91.404963 
C 158.773184 91.051865 158.97158 90.572894 158.97158 90.073537 
C 158.97158 89.574181 158.773184 89.09521 158.420085 88.742111 
C 158.066987 88.389013 157.588016 88.190617 157.08866 88.190617 
C 156.589303 88.190617 156.110332 88.389013 155.757234 88.742111 
C 155.404136 89.09521 155.205739 89.574181 155.205739 90.073537 
C 155.205739 90.572894 155.404136 91.051865 155.757234 91.404963 
C 156.110332 91.758061 156.589303 91.956458 157.08866 91.956458 
z
" style="fill:#00ffff;fill-opacity:0.5;stroke:#00ffff;stroke-opacity:0.5;"/>
    <path clip-path="url(#p9a1a25ad2d)" d="M -279.7451 213.211742 
C -279.375361 213.211742 -279.020716 213.064843 -278.759271 212.803398 
C -278.497827 212.541953 -278.350928 212.187308 -278.350928 211.81757 
C -278.350928 211.447831 -278.497827 211.093186 -278.759271 210.831741 
C -279.020716 210.570296 -279.375361 210.423397 -279.7451 210.423397 
C -280.114839 210.423397 -280.469484 210.570296 -280.730929 210.831741 
C -280.992374 211.093186 -281.139273 211.447831 -281.139273 211.81757 
C -281.139273 212.187308 -280.992374 212.541953 -280.730929 212.803398 
C -280.469484 213.064843 -280.114839 213.211742 -279.7451 213.211742 
z
" style="fill:#00ffff;fill-opacity:0.5;stroke:#00ffff;stroke-opacity:0.5;"/>
    <path clip-path="url(#p9a1a25ad2d)" d="M -98.362505 150.425851 
C -97.840989 150.425851 -97.340762 150.21865 -96.971994 149.849882 
C -96.603226 149.481114 -96.396025 148.980887 -96.396025 148.45937 
C -96.396025 147.937854 -96.603226 147.437627 -96.971994 147.068859 
C -97.340762 146.700091 -97.840989 146.49289 -98.362505 146.49289 
C -98.884022 146.49289 -99.384249 146.700091 -99.753017 147.068859 
C -100.121785 147.437627 -100.328986 147.937854 -100.328986 148.45937 
C -100.328986 148.980887 -100.121785 149.481114 -99.753017 149.849882 
C -99.384249 150.21865 -98.884022 150.425851 -98.362505 150.425851 
z
" style="fill:#00ffff;fill-opacity:0.5;stroke:#00ffff;stroke-opacity:0.5;"/>
    <path clip-path="url(#p9a1a25ad2d)" d="M -236.32246 138.653707 
C -235.800944 138.653707 -235.300717 138.446506 -234.931949 138.077738 
C -234.563181 137.70897 -234.35598 137.208743 -234.35598 136.687226 
C -234.35598 136.16571 -234.563181 135.665483 -234.931949 135.296715 
C -235.300717 134.927947 -235.800944 134.720746 -236.32246 134.720746 
C -236.843977 134.720746 -237.344204 134.927947 -237.712972 135.296715 
C -238.08174 135.665483 -238.288941 136.16571 -238.288941 136.687226 
C -238.288941 137.208743 -238.08174 137.70897 -237.712972 138.077738 
C -237.344204 138.446506 -236.843977 138.653707 -236.32246 138.653707 
z
" style="fill:#00ffff;fill-opacity:0.5;stroke:#00ffff;stroke-opacity:0.5;"/>
    <path clip-path="url(#p9a1a25ad2d)" d="M -56.385292 141.958826 
C -55.863775 141.958826 -55.363548 141.751626 -54.99478 141.382858 
C -54.626012 141.014089 -54.418812 140.513863 -54.418812 139.992346 
C -54.418812 139.470829 -54.626012 138.970602 -54.99478 138.601834 
C -55.363548 138.233066 -55.863775 138.025865 -56.385292 138.025865 
C -56.906809 138.025865 -57.407036 138.233066 -57.775804 138.601834 
C -58.144572 138.970602 -58.351773 139.470829 -58.351773 139.992346 
C -58.351773 140.513863 -58.144572 141.014089 -57.775804 141.382858 
C -57.407036 141.751626 -56.906809 141.958826 -56.385292 141.958826 
z
" style="fill:#00ffff;fill-opacity:0.5;stroke:#00ffff;stroke-opacity:0.5;"/>
    <path clip-path="url(#p9a1a25ad2d)" d="M 49.339347 104.688511 
C 49.861328 104.688511 50.362001 104.481125 50.731098 104.112028 
C 51.100194 103.742932 51.30758 103.242259 51.30758 102.720277 
C 51.30758 102.198296 51.100194 101.697623 50.731098 101.328526 
C 50.362001 100.95943 49.861328 100.752044 49.339347 100.752044 
C 48.817365 100.752044 48.316692 100.95943 47.947596 101.328526 
C 47.578499 101.697623 47.371113 102.198296 47.371113 102.720277 
C 47.371113 103.242259 47.578499 103.742932 47.947596 104.112028 
C 48.316692 104.481125 48.817365 104.688511 49.339347 104.688511 
z
" style="fill:#00ffff;fill-opacity:0.5;stroke:#00ffff;stroke-opacity:0.5;"/>
    <path clip-path="url(#p9a1a25ad2d)" d="M -279.887456 191.113938 
C -279.517708 191.113938 -279.163054 190.967035 -278.901602 190.705584 
C -278.64015 190.444132 -278.493248 190.089477 -278.493248 189.719729 
C -278.493248 189.34998 -278.64015 188.995326 -278.901602 188.733874 
C -279.163054 188.472423 -279.517708 188.32552 -279.887456 188.32552 
C -280.257205 188.32552 -280.611859 188.472423 -280.873311 188.733874 
C -281.134763 188.995326 -281.281665 189.34998 -281.281665 189.719729 
C -281.281665 190.089477 -281.134763 190.444132 -280.873311 190.705584 
C -280.611859 190.967035 -280.257205 191.113938 -279.887456 191.113938 
z
" style="fill:#00ffff;fill-opacity:0.5;stroke:#00ffff;stroke-opacity:0.5;"/>
    <path clip-path="url(#p9a1a25ad2d)" d="M 159.23097 100.957719 
C 159.730326 100.957719 160.209297 100.759322 160.562396 100.406224 
C 160.915494 100.053126 161.11389 99.574155 161.11389 99.074798 
C 161.11389 98.575442 160.915494 98.096471 160.562396 97.743372 
C 160.209297 97.390274 159.730326 97.191878 159.23097 97.191878 
C 158.731613 97.191878 158.252642 97.390274 157.899544 97.743372 
C 157.546446 98.096471 157.348049 98.575442 157.348049 99.074798 
C 157.348049 99.574155 157.546446 100.053126 157.899544 100.406224 
C 158.252642 100.759322 158.731613 100.957719 159.23097 100.957719 
z
" style="fill:#00ffff;fill-opacity:0.5;stroke:#00ffff;stroke-opacity:0.5;"/>
    <path clip-path="url(#p9a1a25ad2d)" d="M 111.681806 130.611877 
C 112.050517 130.611877 112.404176 130.465387 112.664893 130.204669 
C 112.925611 129.943952 113.072101 129.590293 113.072101 129.221583 
C 113.072101 128.852872 112.925611 128.499214 112.664893 128.238496 
C 112.404176 127.977778 112.050517 127.831288 111.681806 127.831288 
C 111.313096 127.831288 110.959437 127.977778 110.69872 128.238496 
C 110.438002 128.499214 110.291512 128.852872 110.291512 129.221583 
C 110.291512 129.590293 110.438002 129.943952 110.69872 130.204669 
C 110.959437 130.465387 111.313096 130.611877 111.681806 130.611877 
z
" style="fill:#00ffff;fill-opacity:0.5;stroke:#00ffff;stroke-opacity:0.5;"/>
    <path clip-path="url(#p9a1a25ad2d)" d="M 33.63111 131.306552 
C 34.152627 131.306552 34.652854 131.099351 35.021622 130.730583 
C 35.39039 130.361815 35.597591 129.861588 35.597591 129.340072 
C 35.597591 128.818555 35.39039 128.318328 35.021622 127.94956 
C 34.652854 127.580792 34.152627 127.373591 33.63111 127.373591 
C 33.109594 127.373591 32.609367 127.580792 32.240599 127.94956 
C 31.871831 128.318328 31.66463 128.818555 31.66463 129.340072 
C 31.66463 129.861588 31.871831 130.361815 32.240599 130.730583 
C 32.609367 131.099351 33.109594 131.306552 33.63111 131.306552 
z
" style="fill:#00ffff;fill-opacity:0.5;stroke:#00ffff;stroke-opacity:0.5;"/>
    <path clip-path="url(#p9a1a25ad2d)" d="M 111.538108 108.606059 
C 111.908953 108.606059 112.26466 108.45872 112.526887 108.196493 
C 112.789114 107.934266 112.936452 107.57856 112.936452 107.207715 
C 112.936452 106.836869 112.789114 106.481163 112.526887 106.218936 
C 112.26466 105.956709 111.908953 105.809371 111.538108 105.809371 
C 111.167263 105.809371 110.811557 105.956709 110.54933 106.218936 
C 110.287103 106.481163 110.139764 106.836869 110.139764 107.207715 
C 110.139764 107.57856 110.287103 107.934266 110.54933 108.196493 
C 110.811557 108.45872 111.167263 108.606059 111.538108 108.606059 
z
" style="fill:#00ffff;fill-opacity:0.5;stroke:#00ffff;stroke-opacity:0.5;"/>
    <path clip-path="url(#p9a1a25ad2d)" d="M -198.356631 165.230596 
C -197.835114 165.230596 -197.334887 165.023396 -196.966119 164.654628 
C -196.597351 164.28586 -196.39015 163.785633 -196.39015 163.264116 
C -196.39015 162.742599 -196.597351 162.242372 -196.966119 161.873604 
C -197.334887 161.504836 -197.835114 161.297635 -198.356631 161.297635 
C -198.878148 161.297635 -199.378375 161.504836 -199.747143 161.873604 
C -200.115911 162.242372 -200.323111 162.742599 -200.323111 163.264116 
C -200.323111 163.785633 -200.115911 164.28586 -199.747143 164.654628 
C -199.378375 165.023396 -198.878148 165.230596 -198.356631 165.230596 
z
" style="fill:#00ffff;fill-opacity:0.5;stroke:#00ffff;stroke-opacity:0.5;"/>
    <path clip-path="url(#p9a1a25ad2d)" d="M -88.674435 132.781213 
C -88.152918 132.781213 -87.652691 132.574012 -87.283923 132.205244 
C -86.915155 131.836476 -86.707954 131.336249 -86.707954 130.814733 
C -86.707954 130.293216 -86.915155 129.792989 -87.283923 129.424221 
C -87.652691 129.055453 -88.152918 128.848252 -88.674435 128.848252 
C -89.195951 128.848252 -89.696178 129.055453 -90.064946 129.424221 
C -90.433714 129.792989 -90.640915 130.293216 -90.640915 130.814733 
C -90.640915 131.336249 -90.433714 131.836476 -90.064946 132.205244 
C -89.696178 132.574012 -89.195951 132.781213 -88.674435 132.781213 
z
" style="fill:#00ffff;fill-opacity:0.5;stroke:#00ffff;stroke-opacity:0.5;"/>
    <path clip-path="url(#p9a1a25ad2d)" d="M -247.648033 168.999829 
C -247.126517 168.999829 -246.62629 168.792628 -246.257522 168.42386 
C -245.888754 168.055092 -245.681553 167.554865 -245.681553 167.033349 
C -245.681553 166.511832 -245.888754 166.011605 -246.257522 165.642837 
C -246.62629 165.274069 -247.126517 165.066868 -247.648033 165.066868 
C -248.16955 165.066868 -248.669777 165.274069 -249.038545 165.642837 
C -249.407313 166.011605 -249.614514 166.511832 -249.614514 167.033349 
C -249.614514 167.554865 -249.407313 168.055092 -249.038545 168.42386 
C -248.669777 168.792628 -248.16955 168.999829 -247.648033 168.999829 
z
" style="fill:#00ffff;fill-opacity:0.5;stroke:#00ffff;stroke-opacity:0.5;"/>
    <path clip-path="url(#p9a1a25ad2d)" d="M -117.031453 152.69782 
C -116.51021 152.69782 -116.010246 152.490728 -115.641671 152.122154 
C -115.273097 151.753579 -115.066005 151.253615 -115.066005 150.732372 
C -115.066005 150.211129 -115.273097 149.711165 -115.641671 149.342591 
C -116.010246 148.974016 -116.51021 148.766924 -117.031453 148.766924 
C -117.552696 148.766924 -118.05266 148.974016 -118.421235 149.342591 
C -118.789809 149.711165 -118.996901 150.211129 -118.996901 150.732372 
C -118.996901 151.253615 -118.789809 151.753579 -118.421235 152.122154 
C -118.05266 152.490728 -117.552696 152.69782 -117.031453 152.69782 
z
" style="fill:#00ffff;fill-opacity:0.5;stroke:#00ffff;stroke-opacity:0.5;"/>
    <path clip-path="url(#p9a1a25ad2d)" d="M 39.079871 100.836892 
C 39.601387 100.836892 40.101614 100.629692 40.470382 100.260924 
C 40.83915 99.892156 41.046351 99.391929 41.046351 98.870412 
C 41.046351 98.348895 40.83915 97.848668 40.470382 97.4799 
C 40.101614 97.111132 39.601387 96.903932 39.079871 96.903932 
C 38.558354 96.903932 38.058127 97.111132 37.689359 97.4799 
C 37.320591 97.848668 37.11339 98.348895 37.11339 98.870412 
C 37.11339 99.391929 37.320591 99.892156 37.689359 100.260924 
C 38.058127 100.629692 38.558354 100.836892 39.079871 100.836892 
z
" style="fill:#00ffff;fill-opacity:0.5;stroke:#00ffff;stroke-opacity:0.5;"/>
   </g>
   <g id="PathCollection_3">
    <defs>
     <path d="M -2.236068 2.236068 
L 2.236068 -2.236068 
M -2.236068 -2.236068 
L 2.236068 2.236068 
" id="m86809121da" style="stroke:#ff0000;stroke-width:1.5;"/>
    </defs>
    <g clip-path="url(#p9a1a25ad2d)">
     <use style="fill:#ff0000;stroke:#ff0000;stroke-width:1.5;" x="187.959473" xlink:href="#m86809121da" y="70.79453"/>
     <use style="fill:#ff0000;stroke:#ff0000;stroke-width:1.5;" x="223.209824" xlink:href="#m86809121da" y="21.171282"/>
     <use style="fill:#ff0000;stroke:#ff0000;stroke-width:1.5;" x="19.825461" xlink:href="#m86809121da" y="123.44319"/>
     <use style="fill:#ff0000;stroke:#ff0000;stroke-width:1.5;" x="389.104517" xlink:href="#m86809121da" y="61.639762"/>
     <use style="fill:#ff0000;stroke:#ff0000;stroke-width:1.5;" x="53.342047" xlink:href="#m86809121da" y="103.599052"/>
     <use style="fill:#ff0000;stroke:#ff0000;stroke-width:1.5;" x="146.402184" xlink:href="#m86809121da" y="107.933313"/>
     <use style="fill:#ff0000;stroke:#ff0000;stroke-width:1.5;" x="277.885726" xlink:href="#m86809121da" y="62.551213"/>
     <use style="fill:#ff0000;stroke:#ff0000;stroke-width:1.5;" x="106.942249" xlink:href="#m86809121da" y="75.635434"/>
     <use style="fill:#ff0000;stroke:#ff0000;stroke-width:1.5;" x="125.26075" xlink:href="#m86809121da" y="116.622063"/>
     <use style="fill:#ff0000;stroke:#ff0000;stroke-width:1.5;" x="139.825189" xlink:href="#m86809121da" y="95.229621"/>
    </g>
   </g>
   <g id="PathCollection_4">
    <defs>
     <path d="M 0 2.236068 
C 0.593012 2.236068 1.161816 2.000462 1.581139 1.581139 
C 2.000462 1.161816 2.236068 0.593012 2.236068 0 
C 2.236068 -0.593012 2.000462 -1.161816 1.581139 -1.581139 
C 1.161816 -2.000462 0.593012 -2.236068 0 -2.236068 
C -0.593012 -2.236068 -1.161816 -2.000462 -1.581139 -1.581139 
C -2.000462 -1.161816 -2.236068 -0.593012 -2.236068 0 
C -2.236068 0.593012 -2.000462 1.161816 -1.581139 1.581139 
C -1.161816 2.000462 -0.593012 2.236068 0 2.236068 
z
" id="m46e8b738b6" style="stroke:#bfbf00;"/>
    </defs>
    <g clip-path="url(#p9a1a25ad2d)">
     <use style="fill:#bfbf00;stroke:#bfbf00;" x="403.611563" xlink:href="#m46e8b738b6" y="40.113101"/>
     <use style="fill:#bfbf00;stroke:#bfbf00;" x="271.395631" xlink:href="#m46e8b738b6" y="65.620896"/>
     <use style="fill:#bfbf00;stroke:#bfbf00;" x="238.147769" xlink:href="#m46e8b738b6" y="86.503957"/>
     <use style="fill:#bfbf00;stroke:#bfbf00;" x="46.491563" xlink:href="#m46e8b738b6" y="119.018809"/>
     <use style="fill:#bfbf00;stroke:#bfbf00;" x="201.587632" xlink:href="#m46e8b738b6" y="91.796401"/>
    </g>
   </g>
   <g id="matplotlib.axis_1">
    <g id="xtick_1">
     <g id="line2d_1">
      <defs>
       <path d="M 0 0 
L 0 3.5 
" id="md375251627" style="stroke:#000000;stroke-width:0.8;"/>
      </defs>
      <g>
       <use style="stroke:#000000;stroke-width:0.8;" x="82.035431" xlink:href="#md375251627" y="275.187282"/>
      </g>
     </g>
     <g id="text_1">
      <!-- 2.5 -->
      <g transform="translate(74.083868 289.78572)scale(0.1 -0.1)">
       <defs>
        <path d="M 1228 531 
L 3431 531 
L 3431 0 
L 469 0 
L 469 531 
Q 828 903 1448 1529 
Q 2069 2156 2228 2338 
Q 2531 2678 2651 2914 
Q 2772 3150 2772 3378 
Q 2772 3750 2511 3984 
Q 2250 4219 1831 4219 
Q 1534 4219 1204 4116 
Q 875 4013 500 3803 
L 500 4441 
Q 881 4594 1212 4672 
Q 1544 4750 1819 4750 
Q 2544 4750 2975 4387 
Q 3406 4025 3406 3419 
Q 3406 3131 3298 2873 
Q 3191 2616 2906 2266 
Q 2828 2175 2409 1742 
Q 1991 1309 1228 531 
z
" id="DejaVuSans-32" transform="scale(0.015625)"/>
        <path d="M 684 794 
L 1344 794 
L 1344 0 
L 684 0 
L 684 794 
z
" id="DejaVuSans-2e" transform="scale(0.015625)"/>
        <path d="M 691 4666 
L 3169 4666 
L 3169 4134 
L 1269 4134 
L 1269 2991 
Q 1406 3038 1543 3061 
Q 1681 3084 1819 3084 
Q 2600 3084 3056 2656 
Q 3513 2228 3513 1497 
Q 3513 744 3044 326 
Q 2575 -91 1722 -91 
Q 1428 -91 1123 -41 
Q 819 9 494 109 
L 494 744 
Q 775 591 1075 516 
Q 1375 441 1709 441 
Q 2250 441 2565 725 
Q 2881 1009 2881 1497 
Q 2881 1984 2565 2268 
Q 2250 2553 1709 2553 
Q 1456 2553 1204 2497 
Q 953 2441 691 2322 
L 691 4666 
z
" id="DejaVuSans-35" transform="scale(0.015625)"/>
       </defs>
       <use xlink:href="#DejaVuSans-32"/>
       <use x="63.623047" xlink:href="#DejaVuSans-2e"/>
       <use x="95.410156" xlink:href="#DejaVuSans-35"/>
      </g>
     </g>
    </g>
    <g id="xtick_2">
     <g id="line2d_2">
      <g>
       <use style="stroke:#000000;stroke-width:0.8;" x="130.927565" xlink:href="#md375251627" y="275.187282"/>
      </g>
     </g>
     <g id="text_2">
      <!-- 3.0 -->
      <g transform="translate(122.976003 289.78572)scale(0.1 -0.1)">
       <defs>
        <path d="M 2597 2516 
Q 3050 2419 3304 2112 
Q 3559 1806 3559 1356 
Q 3559 666 3084 287 
Q 2609 -91 1734 -91 
Q 1441 -91 1130 -33 
Q 819 25 488 141 
L 488 750 
Q 750 597 1062 519 
Q 1375 441 1716 441 
Q 2309 441 2620 675 
Q 2931 909 2931 1356 
Q 2931 1769 2642 2001 
Q 2353 2234 1838 2234 
L 1294 2234 
L 1294 2753 
L 1863 2753 
Q 2328 2753 2575 2939 
Q 2822 3125 2822 3475 
Q 2822 3834 2567 4026 
Q 2313 4219 1838 4219 
Q 1578 4219 1281 4162 
Q 984 4106 628 3988 
L 628 4550 
Q 988 4650 1302 4700 
Q 1616 4750 1894 4750 
Q 2613 4750 3031 4423 
Q 3450 4097 3450 3541 
Q 3450 3153 3228 2886 
Q 3006 2619 2597 2516 
z
" id="DejaVuSans-33" transform="scale(0.015625)"/>
        <path d="M 2034 4250 
Q 1547 4250 1301 3770 
Q 1056 3291 1056 2328 
Q 1056 1369 1301 889 
Q 1547 409 2034 409 
Q 2525 409 2770 889 
Q 3016 1369 3016 2328 
Q 3016 3291 2770 3770 
Q 2525 4250 2034 4250 
z
M 2034 4750 
Q 2819 4750 3233 4129 
Q 3647 3509 3647 2328 
Q 3647 1150 3233 529 
Q 2819 -91 2034 -91 
Q 1250 -91 836 529 
Q 422 1150 422 2328 
Q 422 3509 836 4129 
Q 1250 4750 2034 4750 
z
" id="DejaVuSans-30" transform="scale(0.015625)"/>
       </defs>
       <use xlink:href="#DejaVuSans-33"/>
       <use x="63.623047" xlink:href="#DejaVuSans-2e"/>
       <use x="95.410156" xlink:href="#DejaVuSans-30"/>
      </g>
     </g>
    </g>
    <g id="xtick_3">
     <g id="line2d_3">
      <g>
       <use style="stroke:#000000;stroke-width:0.8;" x="179.8197" xlink:href="#md375251627" y="275.187282"/>
      </g>
     </g>
     <g id="text_3">
      <!-- 3.5 -->
      <g transform="translate(171.868137 289.78572)scale(0.1 -0.1)">
       <use xlink:href="#DejaVuSans-33"/>
       <use x="63.623047" xlink:href="#DejaVuSans-2e"/>
       <use x="95.410156" xlink:href="#DejaVuSans-35"/>
      </g>
     </g>
    </g>
    <g id="xtick_4">
     <g id="line2d_4">
      <g>
       <use style="stroke:#000000;stroke-width:0.8;" x="228.711835" xlink:href="#md375251627" y="275.187282"/>
      </g>
     </g>
     <g id="text_4">
      <!-- 4.0 -->
      <g transform="translate(220.760272 289.78572)scale(0.1 -0.1)">
       <defs>
        <path d="M 2419 4116 
L 825 1625 
L 2419 1625 
L 2419 4116 
z
M 2253 4666 
L 3047 4666 
L 3047 1625 
L 3713 1625 
L 3713 1100 
L 3047 1100 
L 3047 0 
L 2419 0 
L 2419 1100 
L 313 1100 
L 313 1709 
L 2253 4666 
z
" id="DejaVuSans-34" transform="scale(0.015625)"/>
       </defs>
       <use xlink:href="#DejaVuSans-34"/>
       <use x="63.623047" xlink:href="#DejaVuSans-2e"/>
       <use x="95.410156" xlink:href="#DejaVuSans-30"/>
      </g>
     </g>
    </g>
    <g id="xtick_5">
     <g id="line2d_5">
      <g>
       <use style="stroke:#000000;stroke-width:0.8;" x="277.603969" xlink:href="#md375251627" y="275.187282"/>
      </g>
     </g>
     <g id="text_5">
      <!-- 4.5 -->
      <g transform="translate(269.652407 289.78572)scale(0.1 -0.1)">
       <use xlink:href="#DejaVuSans-34"/>
       <use x="63.623047" xlink:href="#DejaVuSans-2e"/>
       <use x="95.410156" xlink:href="#DejaVuSans-35"/>
      </g>
     </g>
    </g>
    <g id="xtick_6">
     <g id="line2d_6">
      <g>
       <use style="stroke:#000000;stroke-width:0.8;" x="326.496104" xlink:href="#md375251627" y="275.187282"/>
      </g>
     </g>
     <g id="text_6">
      <!-- 5.0 -->
      <g transform="translate(318.544541 289.78572)scale(0.1 -0.1)">
       <use xlink:href="#DejaVuSans-35"/>
       <use x="63.623047" xlink:href="#DejaVuSans-2e"/>
       <use x="95.410156" xlink:href="#DejaVuSans-30"/>
      </g>
     </g>
    </g>
    <g id="xtick_7">
     <g id="line2d_7">
      <g>
       <use style="stroke:#000000;stroke-width:0.8;" x="375.388238" xlink:href="#md375251627" y="275.187282"/>
      </g>
     </g>
     <g id="text_7">
      <!-- 5.5 -->
      <g transform="translate(367.436676 289.78572)scale(0.1 -0.1)">
       <use xlink:href="#DejaVuSans-35"/>
       <use x="63.623047" xlink:href="#DejaVuSans-2e"/>
       <use x="95.410156" xlink:href="#DejaVuSans-35"/>
      </g>
     </g>
    </g>
    <g id="text_8">
     <!-- x -->
     <g transform="translate(220.908438 306.50322)scale(0.14 -0.14)">
      <defs>
       <path d="M 3513 3500 
L 2247 1797 
L 3578 0 
L 2900 0 
L 1881 1375 
L 863 0 
L 184 0 
L 1544 1831 
L 300 3500 
L 978 3500 
L 1906 2253 
L 2834 3500 
L 3513 3500 
z
" id="DejaVuSans-78" transform="scale(0.015625)"/>
      </defs>
      <use xlink:href="#DejaVuSans-78"/>
     </g>
    </g>
   </g>
   <g id="matplotlib.axis_2">
    <g id="ytick_1">
     <g id="line2d_8">
      <defs>
       <path d="M 0 0 
L -3.5 0 
" id="m72ac406f5a" style="stroke:#000000;stroke-width:0.8;"/>
      </defs>
      <g>
       <use style="stroke:#000000;stroke-width:0.8;" x="46.491563" xlink:href="#m72ac406f5a" y="247.160392"/>
      </g>
     </g>
     <g id="text_9">
      <!-- −5 -->
      <g transform="translate(24.749375 250.95961)scale(0.1 -0.1)">
       <defs>
        <path d="M 678 2272 
L 4684 2272 
L 4684 1741 
L 678 1741 
L 678 2272 
z
" id="DejaVuSans-2212" transform="scale(0.015625)"/>
       </defs>
       <use xlink:href="#DejaVuSans-2212"/>
       <use x="83.789062" xlink:href="#DejaVuSans-35"/>
      </g>
     </g>
    </g>
    <g id="ytick_2">
     <g id="line2d_9">
      <g>
       <use style="stroke:#000000;stroke-width:0.8;" x="46.491563" xlink:href="#m72ac406f5a" y="207.800196"/>
      </g>
     </g>
     <g id="text_10">
      <!-- 0 -->
      <g transform="translate(33.129063 211.599415)scale(0.1 -0.1)">
       <use xlink:href="#DejaVuSans-30"/>
      </g>
     </g>
    </g>
    <g id="ytick_3">
     <g id="line2d_10">
      <g>
       <use style="stroke:#000000;stroke-width:0.8;" x="46.491563" xlink:href="#m72ac406f5a" y="168.440001"/>
      </g>
     </g>
     <g id="text_11">
      <!-- 5 -->
      <g transform="translate(33.129063 172.239219)scale(0.1 -0.1)">
       <use xlink:href="#DejaVuSans-35"/>
      </g>
     </g>
    </g>
    <g id="ytick_4">
     <g id="line2d_11">
      <g>
       <use style="stroke:#000000;stroke-width:0.8;" x="46.491563" xlink:href="#m72ac406f5a" y="129.079805"/>
      </g>
     </g>
     <g id="text_12">
      <!-- 10 -->
      <g transform="translate(26.766562 132.879024)scale(0.1 -0.1)">
       <defs>
        <path d="M 794 531 
L 1825 531 
L 1825 4091 
L 703 3866 
L 703 4441 
L 1819 4666 
L 2450 4666 
L 2450 531 
L 3481 531 
L 3481 0 
L 794 0 
L 794 531 
z
" id="DejaVuSans-31" transform="scale(0.015625)"/>
       </defs>
       <use xlink:href="#DejaVuSans-31"/>
       <use x="63.623047" xlink:href="#DejaVuSans-30"/>
      </g>
     </g>
    </g>
    <g id="ytick_5">
     <g id="line2d_12">
      <g>
       <use style="stroke:#000000;stroke-width:0.8;" x="46.491563" xlink:href="#m72ac406f5a" y="89.71961"/>
      </g>
     </g>
     <g id="text_13">
      <!-- 15 -->
      <g transform="translate(26.766562 93.518828)scale(0.1 -0.1)">
       <use xlink:href="#DejaVuSans-31"/>
       <use x="63.623047" xlink:href="#DejaVuSans-35"/>
      </g>
     </g>
    </g>
    <g id="ytick_6">
     <g id="line2d_13">
      <g>
       <use style="stroke:#000000;stroke-width:0.8;" x="46.491563" xlink:href="#m72ac406f5a" y="50.359414"/>
      </g>
     </g>
     <g id="text_14">
      <!-- 20 -->
      <g transform="translate(26.766562 54.158633)scale(0.1 -0.1)">
       <use xlink:href="#DejaVuSans-32"/>
       <use x="63.623047" xlink:href="#DejaVuSans-30"/>
      </g>
     </g>
    </g>
    <g id="ytick_7">
     <g id="line2d_14">
      <g>
       <use style="stroke:#000000;stroke-width:0.8;" x="46.491563" xlink:href="#m72ac406f5a" y="10.999219"/>
      </g>
     </g>
     <g id="text_15">
      <!-- 25 -->
      <g transform="translate(26.766562 14.798438)scale(0.1 -0.1)">
       <use xlink:href="#DejaVuSans-32"/>
       <use x="63.623047" xlink:href="#DejaVuSans-35"/>
      </g>
     </g>
    </g>
    <g id="text_16">
     <!-- y -->
     <g transform="translate(17.837812 146.274407)rotate(-90)scale(0.14 -0.14)">
      <defs>
       <path d="M 2059 -325 
Q 1816 -950 1584 -1140 
Q 1353 -1331 966 -1331 
L 506 -1331 
L 506 -850 
L 844 -850 
Q 1081 -850 1212 -737 
Q 1344 -625 1503 -206 
L 1606 56 
L 191 3500 
L 800 3500 
L 1894 763 
L 2988 3500 
L 3597 3500 
L 2059 -325 
z
" id="DejaVuSans-79" transform="scale(0.015625)"/>
      </defs>
      <use xlink:href="#DejaVuSans-79"/>
     </g>
    </g>
   </g>
   <g id="line2d_15">
    <path clip-path="url(#p9a1a25ad2d)" d="M 46.491563 107.482873 
L 403.611563 37.469487 
" style="fill:none;stroke:#000000;stroke-dasharray:5.55,2.4;stroke-dashoffset:0;stroke-width:1.5;"/>
   </g>
   <g id="line2d_16">
    <path clip-path="url(#p9a1a25ad2d)" d="M 46.491563 115.264917 
L 403.611563 34.701914 
" style="fill:none;stroke:#000000;stroke-linecap:square;stroke-width:1.5;"/>
   </g>
   <g id="patch_3">
    <path d="M 46.491563 275.187282 
L 46.491563 9.075282 
" style="fill:none;stroke:#000000;stroke-linecap:square;stroke-linejoin:miter;stroke-width:0.8;"/>
   </g>
   <g id="patch_4">
    <path d="M 403.611563 275.187282 
L 403.611563 9.075282 
" style="fill:none;stroke:#000000;stroke-linecap:square;stroke-linejoin:miter;stroke-width:0.8;"/>
   </g>
   <g id="patch_5">
    <path d="M 46.491563 275.187282 
L 403.611563 275.187282 
" style="fill:none;stroke:#000000;stroke-linecap:square;stroke-linejoin:miter;stroke-width:0.8;"/>
   </g>
   <g id="patch_6">
    <path d="M 46.491563 9.075282 
L 403.611563 9.075282 
" style="fill:none;stroke:#000000;stroke-linecap:square;stroke-linejoin:miter;stroke-width:0.8;"/>
   </g>
   <g id="legend_1">
    <g id="patch_7">
     <path d="M 54.891562 269.187282 
L 204.122812 269.187282 
Q 206.522812 269.187282 206.522812 266.787282 
L 206.522812 179.918532 
Q 206.522812 177.518532 204.122812 177.518532 
L 54.891562 177.518532 
Q 52.491563 177.518532 52.491563 179.918532 
L 52.491563 266.787282 
Q 52.491563 269.187282 54.891562 269.187282 
z
" style="fill:#ffffff;opacity:0.8;stroke:#cccccc;stroke-linejoin:miter;"/>
    </g>
    <g id="line2d_17">
     <path d="M 57.291562 187.236657 
L 81.291562 187.236657 
" style="fill:none;stroke:#000000;stroke-dasharray:5.55,2.4;stroke-dashoffset:0;stroke-width:1.5;"/>
    </g>
    <g id="line2d_18"/>
    <g id="text_17">
     <!-- Without transfer -->
     <g transform="translate(90.891562 191.436657)scale(0.12 -0.12)">
      <defs>
       <path d="M 213 4666 
L 850 4666 
L 1831 722 
L 2809 4666 
L 3519 4666 
L 4500 722 
L 5478 4666 
L 6119 4666 
L 4947 0 
L 4153 0 
L 3169 4050 
L 2175 0 
L 1381 0 
L 213 4666 
z
" id="DejaVuSans-57" transform="scale(0.015625)"/>
       <path d="M 603 3500 
L 1178 3500 
L 1178 0 
L 603 0 
L 603 3500 
z
M 603 4863 
L 1178 4863 
L 1178 4134 
L 603 4134 
L 603 4863 
z
" id="DejaVuSans-69" transform="scale(0.015625)"/>
       <path d="M 1172 4494 
L 1172 3500 
L 2356 3500 
L 2356 3053 
L 1172 3053 
L 1172 1153 
Q 1172 725 1289 603 
Q 1406 481 1766 481 
L 2356 481 
L 2356 0 
L 1766 0 
Q 1100 0 847 248 
Q 594 497 594 1153 
L 594 3053 
L 172 3053 
L 172 3500 
L 594 3500 
L 594 4494 
L 1172 4494 
z
" id="DejaVuSans-74" transform="scale(0.015625)"/>
       <path d="M 3513 2113 
L 3513 0 
L 2938 0 
L 2938 2094 
Q 2938 2591 2744 2837 
Q 2550 3084 2163 3084 
Q 1697 3084 1428 2787 
Q 1159 2491 1159 1978 
L 1159 0 
L 581 0 
L 581 4863 
L 1159 4863 
L 1159 2956 
Q 1366 3272 1645 3428 
Q 1925 3584 2291 3584 
Q 2894 3584 3203 3211 
Q 3513 2838 3513 2113 
z
" id="DejaVuSans-68" transform="scale(0.015625)"/>
       <path d="M 1959 3097 
Q 1497 3097 1228 2736 
Q 959 2375 959 1747 
Q 959 1119 1226 758 
Q 1494 397 1959 397 
Q 2419 397 2687 759 
Q 2956 1122 2956 1747 
Q 2956 2369 2687 2733 
Q 2419 3097 1959 3097 
z
M 1959 3584 
Q 2709 3584 3137 3096 
Q 3566 2609 3566 1747 
Q 3566 888 3137 398 
Q 2709 -91 1959 -91 
Q 1206 -91 779 398 
Q 353 888 353 1747 
Q 353 2609 779 3096 
Q 1206 3584 1959 3584 
z
" id="DejaVuSans-6f" transform="scale(0.015625)"/>
       <path d="M 544 1381 
L 544 3500 
L 1119 3500 
L 1119 1403 
Q 1119 906 1312 657 
Q 1506 409 1894 409 
Q 2359 409 2629 706 
Q 2900 1003 2900 1516 
L 2900 3500 
L 3475 3500 
L 3475 0 
L 2900 0 
L 2900 538 
Q 2691 219 2414 64 
Q 2138 -91 1772 -91 
Q 1169 -91 856 284 
Q 544 659 544 1381 
z
M 1991 3584 
L 1991 3584 
z
" id="DejaVuSans-75" transform="scale(0.015625)"/>
       <path id="DejaVuSans-20" transform="scale(0.015625)"/>
       <path d="M 2631 2963 
Q 2534 3019 2420 3045 
Q 2306 3072 2169 3072 
Q 1681 3072 1420 2755 
Q 1159 2438 1159 1844 
L 1159 0 
L 581 0 
L 581 3500 
L 1159 3500 
L 1159 2956 
Q 1341 3275 1631 3429 
Q 1922 3584 2338 3584 
Q 2397 3584 2469 3576 
Q 2541 3569 2628 3553 
L 2631 2963 
z
" id="DejaVuSans-72" transform="scale(0.015625)"/>
       <path d="M 2194 1759 
Q 1497 1759 1228 1600 
Q 959 1441 959 1056 
Q 959 750 1161 570 
Q 1363 391 1709 391 
Q 2188 391 2477 730 
Q 2766 1069 2766 1631 
L 2766 1759 
L 2194 1759 
z
M 3341 1997 
L 3341 0 
L 2766 0 
L 2766 531 
Q 2569 213 2275 61 
Q 1981 -91 1556 -91 
Q 1019 -91 701 211 
Q 384 513 384 1019 
Q 384 1609 779 1909 
Q 1175 2209 1959 2209 
L 2766 2209 
L 2766 2266 
Q 2766 2663 2505 2880 
Q 2244 3097 1772 3097 
Q 1472 3097 1187 3025 
Q 903 2953 641 2809 
L 641 3341 
Q 956 3463 1253 3523 
Q 1550 3584 1831 3584 
Q 2591 3584 2966 3190 
Q 3341 2797 3341 1997 
z
" id="DejaVuSans-61" transform="scale(0.015625)"/>
       <path d="M 3513 2113 
L 3513 0 
L 2938 0 
L 2938 2094 
Q 2938 2591 2744 2837 
Q 2550 3084 2163 3084 
Q 1697 3084 1428 2787 
Q 1159 2491 1159 1978 
L 1159 0 
L 581 0 
L 581 3500 
L 1159 3500 
L 1159 2956 
Q 1366 3272 1645 3428 
Q 1925 3584 2291 3584 
Q 2894 3584 3203 3211 
Q 3513 2838 3513 2113 
z
" id="DejaVuSans-6e" transform="scale(0.015625)"/>
       <path d="M 2834 3397 
L 2834 2853 
Q 2591 2978 2328 3040 
Q 2066 3103 1784 3103 
Q 1356 3103 1142 2972 
Q 928 2841 928 2578 
Q 928 2378 1081 2264 
Q 1234 2150 1697 2047 
L 1894 2003 
Q 2506 1872 2764 1633 
Q 3022 1394 3022 966 
Q 3022 478 2636 193 
Q 2250 -91 1575 -91 
Q 1294 -91 989 -36 
Q 684 19 347 128 
L 347 722 
Q 666 556 975 473 
Q 1284 391 1588 391 
Q 1994 391 2212 530 
Q 2431 669 2431 922 
Q 2431 1156 2273 1281 
Q 2116 1406 1581 1522 
L 1381 1569 
Q 847 1681 609 1914 
Q 372 2147 372 2553 
Q 372 3047 722 3315 
Q 1072 3584 1716 3584 
Q 2034 3584 2315 3537 
Q 2597 3491 2834 3397 
z
" id="DejaVuSans-73" transform="scale(0.015625)"/>
       <path d="M 2375 4863 
L 2375 4384 
L 1825 4384 
Q 1516 4384 1395 4259 
Q 1275 4134 1275 3809 
L 1275 3500 
L 2222 3500 
L 2222 3053 
L 1275 3053 
L 1275 0 
L 697 0 
L 697 3053 
L 147 3053 
L 147 3500 
L 697 3500 
L 697 3744 
Q 697 4328 969 4595 
Q 1241 4863 1831 4863 
L 2375 4863 
z
" id="DejaVuSans-66" transform="scale(0.015625)"/>
       <path d="M 3597 1894 
L 3597 1613 
L 953 1613 
Q 991 1019 1311 708 
Q 1631 397 2203 397 
Q 2534 397 2845 478 
Q 3156 559 3463 722 
L 3463 178 
Q 3153 47 2828 -22 
Q 2503 -91 2169 -91 
Q 1331 -91 842 396 
Q 353 884 353 1716 
Q 353 2575 817 3079 
Q 1281 3584 2069 3584 
Q 2775 3584 3186 3129 
Q 3597 2675 3597 1894 
z
M 3022 2063 
Q 3016 2534 2758 2815 
Q 2500 3097 2075 3097 
Q 1594 3097 1305 2825 
Q 1016 2553 972 2059 
L 3022 2063 
z
" id="DejaVuSans-65" transform="scale(0.015625)"/>
      </defs>
      <use xlink:href="#DejaVuSans-57"/>
      <use x="96.626953" xlink:href="#DejaVuSans-69"/>
      <use x="124.410156" xlink:href="#DejaVuSans-74"/>
      <use x="163.619141" xlink:href="#DejaVuSans-68"/>
      <use x="226.998047" xlink:href="#DejaVuSans-6f"/>
      <use x="288.179688" xlink:href="#DejaVuSans-75"/>
      <use x="351.558594" xlink:href="#DejaVuSans-74"/>
      <use x="390.767578" xlink:href="#DejaVuSans-20"/>
      <use x="422.554688" xlink:href="#DejaVuSans-74"/>
      <use x="461.763672" xlink:href="#DejaVuSans-72"/>
      <use x="502.876953" xlink:href="#DejaVuSans-61"/>
      <use x="564.15625" xlink:href="#DejaVuSans-6e"/>
      <use x="627.535156" xlink:href="#DejaVuSans-73"/>
      <use x="679.634766" xlink:href="#DejaVuSans-66"/>
      <use x="714.839844" xlink:href="#DejaVuSans-65"/>
      <use x="776.363281" xlink:href="#DejaVuSans-72"/>
     </g>
    </g>
    <g id="line2d_19">
     <path d="M 57.291562 204.850407 
L 81.291562 204.850407 
" style="fill:none;stroke:#000000;stroke-linecap:square;stroke-width:1.5;"/>
    </g>
    <g id="line2d_20"/>
    <g id="text_18">
     <!-- With KMM transfer -->
     <g transform="translate(90.891562 209.050407)scale(0.12 -0.12)">
      <defs>
       <path d="M 628 4666 
L 1259 4666 
L 1259 2694 
L 3353 4666 
L 4166 4666 
L 1850 2491 
L 4331 0 
L 3500 0 
L 1259 2247 
L 1259 0 
L 628 0 
L 628 4666 
z
" id="DejaVuSans-4b" transform="scale(0.015625)"/>
       <path d="M 628 4666 
L 1569 4666 
L 2759 1491 
L 3956 4666 
L 4897 4666 
L 4897 0 
L 4281 0 
L 4281 4097 
L 3078 897 
L 2444 897 
L 1241 4097 
L 1241 0 
L 628 0 
L 628 4666 
z
" id="DejaVuSans-4d" transform="scale(0.015625)"/>
      </defs>
      <use xlink:href="#DejaVuSans-57"/>
      <use x="96.626953" xlink:href="#DejaVuSans-69"/>
      <use x="124.410156" xlink:href="#DejaVuSans-74"/>
      <use x="163.619141" xlink:href="#DejaVuSans-68"/>
      <use x="226.998047" xlink:href="#DejaVuSans-20"/>
      <use x="258.785156" xlink:href="#DejaVuSans-4b"/>
      <use x="324.361328" xlink:href="#DejaVuSans-4d"/>
      <use x="410.640625" xlink:href="#DejaVuSans-4d"/>
      <use x="496.919922" xlink:href="#DejaVuSans-20"/>
      <use x="528.707031" xlink:href="#DejaVuSans-74"/>
      <use x="567.916016" xlink:href="#DejaVuSans-72"/>
      <use x="609.029297" xlink:href="#DejaVuSans-61"/>
      <use x="670.308594" xlink:href="#DejaVuSans-6e"/>
      <use x="733.6875" xlink:href="#DejaVuSans-73"/>
      <use x="785.787109" xlink:href="#DejaVuSans-66"/>
      <use x="820.992188" xlink:href="#DejaVuSans-65"/>
      <use x="882.515625" xlink:href="#DejaVuSans-72"/>
     </g>
    </g>
    <g id="PathCollection_5">
     <g>
      <use style="stroke:#000000;stroke-width:1.5;" x="69.291562" xlink:href="#mcfcab1b666" y="223.514157"/>
     </g>
    </g>
    <g id="text_19">
     <!-- Source Domain -->
     <g transform="translate(90.891562 226.664157)scale(0.12 -0.12)">
      <defs>
       <path d="M 3425 4513 
L 3425 3897 
Q 3066 4069 2747 4153 
Q 2428 4238 2131 4238 
Q 1616 4238 1336 4038 
Q 1056 3838 1056 3469 
Q 1056 3159 1242 3001 
Q 1428 2844 1947 2747 
L 2328 2669 
Q 3034 2534 3370 2195 
Q 3706 1856 3706 1288 
Q 3706 609 3251 259 
Q 2797 -91 1919 -91 
Q 1588 -91 1214 -16 
Q 841 59 441 206 
L 441 856 
Q 825 641 1194 531 
Q 1563 422 1919 422 
Q 2459 422 2753 634 
Q 3047 847 3047 1241 
Q 3047 1584 2836 1778 
Q 2625 1972 2144 2069 
L 1759 2144 
Q 1053 2284 737 2584 
Q 422 2884 422 3419 
Q 422 4038 858 4394 
Q 1294 4750 2059 4750 
Q 2388 4750 2728 4690 
Q 3069 4631 3425 4513 
z
" id="DejaVuSans-53" transform="scale(0.015625)"/>
       <path d="M 3122 3366 
L 3122 2828 
Q 2878 2963 2633 3030 
Q 2388 3097 2138 3097 
Q 1578 3097 1268 2742 
Q 959 2388 959 1747 
Q 959 1106 1268 751 
Q 1578 397 2138 397 
Q 2388 397 2633 464 
Q 2878 531 3122 666 
L 3122 134 
Q 2881 22 2623 -34 
Q 2366 -91 2075 -91 
Q 1284 -91 818 406 
Q 353 903 353 1747 
Q 353 2603 823 3093 
Q 1294 3584 2113 3584 
Q 2378 3584 2631 3529 
Q 2884 3475 3122 3366 
z
" id="DejaVuSans-63" transform="scale(0.015625)"/>
       <path d="M 1259 4147 
L 1259 519 
L 2022 519 
Q 2988 519 3436 956 
Q 3884 1394 3884 2338 
Q 3884 3275 3436 3711 
Q 2988 4147 2022 4147 
L 1259 4147 
z
M 628 4666 
L 1925 4666 
Q 3281 4666 3915 4102 
Q 4550 3538 4550 2338 
Q 4550 1131 3912 565 
Q 3275 0 1925 0 
L 628 0 
L 628 4666 
z
" id="DejaVuSans-44" transform="scale(0.015625)"/>
       <path d="M 3328 2828 
Q 3544 3216 3844 3400 
Q 4144 3584 4550 3584 
Q 5097 3584 5394 3201 
Q 5691 2819 5691 2113 
L 5691 0 
L 5113 0 
L 5113 2094 
Q 5113 2597 4934 2840 
Q 4756 3084 4391 3084 
Q 3944 3084 3684 2787 
Q 3425 2491 3425 1978 
L 3425 0 
L 2847 0 
L 2847 2094 
Q 2847 2600 2669 2842 
Q 2491 3084 2119 3084 
Q 1678 3084 1418 2786 
Q 1159 2488 1159 1978 
L 1159 0 
L 581 0 
L 581 3500 
L 1159 3500 
L 1159 2956 
Q 1356 3278 1631 3431 
Q 1906 3584 2284 3584 
Q 2666 3584 2933 3390 
Q 3200 3197 3328 2828 
z
" id="DejaVuSans-6d" transform="scale(0.015625)"/>
      </defs>
      <use xlink:href="#DejaVuSans-53"/>
      <use x="63.476562" xlink:href="#DejaVuSans-6f"/>
      <use x="124.658203" xlink:href="#DejaVuSans-75"/>
      <use x="188.037109" xlink:href="#DejaVuSans-72"/>
      <use x="226.900391" xlink:href="#DejaVuSans-63"/>
      <use x="281.880859" xlink:href="#DejaVuSans-65"/>
      <use x="343.404297" xlink:href="#DejaVuSans-20"/>
      <use x="375.191406" xlink:href="#DejaVuSans-44"/>
      <use x="452.193359" xlink:href="#DejaVuSans-6f"/>
      <use x="513.375" xlink:href="#DejaVuSans-6d"/>
      <use x="610.787109" xlink:href="#DejaVuSans-61"/>
      <use x="672.066406" xlink:href="#DejaVuSans-69"/>
      <use x="699.849609" xlink:href="#DejaVuSans-6e"/>
     </g>
    </g>
    <g id="PathCollection_6">
     <g>
      <use style="fill:#ff0000;stroke:#ff0000;stroke-width:1.5;" x="69.291562" xlink:href="#m86809121da" y="241.127907"/>
     </g>
    </g>
    <g id="text_20">
     <!-- Target Domain -->
     <g transform="translate(90.891562 244.277907)scale(0.12 -0.12)">
      <defs>
       <path d="M -19 4666 
L 3928 4666 
L 3928 4134 
L 2272 4134 
L 2272 0 
L 1638 0 
L 1638 4134 
L -19 4134 
L -19 4666 
z
" id="DejaVuSans-54" transform="scale(0.015625)"/>
       <path d="M 2906 1791 
Q 2906 2416 2648 2759 
Q 2391 3103 1925 3103 
Q 1463 3103 1205 2759 
Q 947 2416 947 1791 
Q 947 1169 1205 825 
Q 1463 481 1925 481 
Q 2391 481 2648 825 
Q 2906 1169 2906 1791 
z
M 3481 434 
Q 3481 -459 3084 -895 
Q 2688 -1331 1869 -1331 
Q 1566 -1331 1297 -1286 
Q 1028 -1241 775 -1147 
L 775 -588 
Q 1028 -725 1275 -790 
Q 1522 -856 1778 -856 
Q 2344 -856 2625 -561 
Q 2906 -266 2906 331 
L 2906 616 
Q 2728 306 2450 153 
Q 2172 0 1784 0 
Q 1141 0 747 490 
Q 353 981 353 1791 
Q 353 2603 747 3093 
Q 1141 3584 1784 3584 
Q 2172 3584 2450 3431 
Q 2728 3278 2906 2969 
L 2906 3500 
L 3481 3500 
L 3481 434 
z
" id="DejaVuSans-67" transform="scale(0.015625)"/>
      </defs>
      <use xlink:href="#DejaVuSans-54"/>
      <use x="44.583984" xlink:href="#DejaVuSans-61"/>
      <use x="105.863281" xlink:href="#DejaVuSans-72"/>
      <use x="145.226562" xlink:href="#DejaVuSans-67"/>
      <use x="208.703125" xlink:href="#DejaVuSans-65"/>
      <use x="270.226562" xlink:href="#DejaVuSans-74"/>
      <use x="309.435547" xlink:href="#DejaVuSans-20"/>
      <use x="341.222656" xlink:href="#DejaVuSans-44"/>
      <use x="418.224609" xlink:href="#DejaVuSans-6f"/>
      <use x="479.40625" xlink:href="#DejaVuSans-6d"/>
      <use x="576.818359" xlink:href="#DejaVuSans-61"/>
      <use x="638.097656" xlink:href="#DejaVuSans-69"/>
      <use x="665.880859" xlink:href="#DejaVuSans-6e"/>
     </g>
    </g>
    <g id="PathCollection_7">
     <g>
      <use style="fill:#bfbf00;stroke:#bfbf00;" x="69.291562" xlink:href="#m46e8b738b6" y="258.741657"/>
     </g>
    </g>
    <g id="text_21">
     <!-- Test Data -->
     <g transform="translate(90.891562 261.891657)scale(0.12 -0.12)">
      <use xlink:href="#DejaVuSans-54"/>
      <use x="44.083984" xlink:href="#DejaVuSans-65"/>
      <use x="105.607422" xlink:href="#DejaVuSans-73"/>
      <use x="157.707031" xlink:href="#DejaVuSans-74"/>
      <use x="196.916016" xlink:href="#DejaVuSans-20"/>
      <use x="228.703125" xlink:href="#DejaVuSans-44"/>
      <use x="305.705078" xlink:href="#DejaVuSans-61"/>
      <use x="366.984375" xlink:href="#DejaVuSans-74"/>
      <use x="406.193359" xlink:href="#DejaVuSans-61"/>
     </g>
    </g>
   </g>
  </g>
 </g>
 <defs>
  <clipPath id="p9a1a25ad2d">
   <rect height="266.112" width="357.12" x="46.491563" y="9.075282"/>
  </clipPath>
 </defs>
</svg>
