<?xml version="1.0" encoding="utf-8" standalone="no"?>
<!DOCTYPE svg PUBLIC "-//W3C//DTD SVG 1.1//EN"
  "http://www.w3.org/Graphics/SVG/1.1/DTD/svg11.dtd">
<svg xmlns:xlink="http://www.w3.org/1999/xlink" width="425.596563pt" height="310.86825pt" viewBox="0 0 425.596563 310.86825" xmlns="http://www.w3.org/2000/svg" version="1.1">
 <metadata>
  <rdf:RDF xmlns:dc="http://purl.org/dc/elements/1.1/" xmlns:cc="http://creativecommons.org/ns#" xmlns:rdf="http://www.w3.org/1999/02/22-rdf-syntax-ns#">
   <cc:Work>
    <dc:type rdf:resource="http://purl.org/dc/dcmitype/StillImage"/>
    <dc:date>2023-05-01T14:49:22.344200</dc:date>
    <dc:format>image/svg+xml</dc:format>
    <dc:creator>
     <cc:Agent>
      <dc:title>Matplotlib v3.7.1, https://matplotlib.org/</dc:title>
     </cc:Agent>
    </dc:creator>
   </cc:Work>
  </rdf:RDF>
 </metadata>
 <defs>
  <style type="text/css">*{stroke-linejoin: round; stroke-linecap: butt}</style>
 </defs>
 <g id="figure_1">
  <g id="patch_1">
   <path d="M 0 310.86825 
L 425.596563 310.86825 
L 425.596563 0 
L 0 0 
z
" style="fill: #ffffff"/>
  </g>
  <g id="axes_1">
   <g id="patch_2">
    <path d="M 50.14375 273.312 
L 407.26375 273.312 
L 407.26375 7.2 
L 50.14375 7.2 
z
" style="fill: #ffffff"/>
   </g>
   <g id="PolyCollection_1">
    <path d="M -6199.45625 285.408 
L -6199.45625 503.136 
L -6091.238068 498.737455 
L -5983.019886 494.338909 
L -5874.801705 489.940364 
L -5766.583523 485.541818 
L -5658.365341 481.143273 
L -5550.147159 476.744727 
L -5441.928977 472.346182 
L -5333.710795 467.947636 
L -5225.492614 463.549091 
L -5117.274432 459.150545 
L -5009.05625 454.752 
L -4900.838068 450.353455 
L -4792.619886 445.954909 
L -4684.401705 441.556364 
L -4576.183523 437.157818 
L -4467.965341 432.759273 
L -4359.747159 428.360727 
L -4251.528977 423.962182 
L -4143.310795 419.563636 
L -4035.092614 415.165091 
L -3926.874432 410.766545 
L -3818.65625 406.368 
L -3710.438068 401.969455 
L -3602.219886 397.570909 
L -3494.001705 393.172364 
L -3385.783523 388.773818 
L -3277.565341 384.375273 
L -3169.347159 379.976727 
L -3061.128977 375.578182 
L -2952.910795 371.179636 
L -2844.692614 366.781091 
L -2736.474432 362.382545 
L -2628.25625 357.984 
L -2520.038068 353.585455 
L -2411.819886 349.186909 
L -2303.601705 344.788364 
L -2195.383523 340.389818 
L -2087.165341 335.991273 
L -1978.947159 331.592727 
L -1870.728977 327.194182 
L -1762.510795 322.795636 
L -1654.292614 318.397091 
L -1546.074432 313.998545 
L -1437.85625 309.6 
L -1329.638068 305.201455 
L -1221.419886 300.802909 
L -1113.201705 296.404364 
L -1004.983523 292.005818 
L -896.765341 287.607273 
L -788.547159 283.208727 
L -680.328977 278.810182 
L -572.110795 274.411636 
L -463.892614 270.013091 
L -355.674432 265.614545 
L -247.45625 261.216 
L -139.238068 256.817455 
L -31.019886 252.418909 
L 77.198295 248.020364 
L 185.416477 243.621818 
L 293.634659 239.223273 
L 401.852841 234.824727 
L 510.071023 230.426182 
L 618.289205 226.027636 
L 726.507386 221.629091 
L 834.725568 217.230545 
L 942.94375 212.832 
L 1051.161932 208.433455 
L 1159.380114 204.034909 
L 1267.598295 199.636364 
L 1375.816477 195.237818 
L 1484.034659 190.839273 
L 1592.252841 186.440727 
L 1700.471023 182.042182 
L 1808.689205 177.643636 
L 1916.907386 173.245091 
L 2025.125568 168.846545 
L 2133.34375 164.448 
L 2241.561932 160.049455 
L 2349.780114 155.650909 
L 2457.998295 151.252364 
L 2566.216477 146.853818 
L 2674.434659 142.455273 
L 2782.652841 138.056727 
L 2890.871023 133.658182 
L 2999.089205 129.259636 
L 3107.307386 124.861091 
L 3215.525568 120.462545 
L 3323.74375 116.064 
L 3431.961932 111.665455 
L 3540.180114 107.266909 
L 3648.398295 102.868364 
L 3756.616477 98.469818 
L 3864.834659 94.071273 
L 3973.052841 89.672727 
L 4081.271023 85.274182 
L 4189.489205 80.875636 
L 4297.707386 76.477091 
L 4405.925568 72.078545 
L 4514.14375 67.68 
L 4514.14375 -150.048 
L 4514.14375 -150.048 
L 4405.925568 -145.649455 
L 4297.707386 -141.250909 
L 4189.489205 -136.852364 
L 4081.271023 -132.453818 
L 3973.052841 -128.055273 
L 3864.834659 -123.656727 
L 3756.616477 -119.258182 
L 3648.398295 -114.859636 
L 3540.180114 -110.461091 
L 3431.961932 -106.062545 
L 3323.74375 -101.664 
L 3215.525568 -97.265455 
L 3107.307386 -92.866909 
L 2999.089205 -88.468364 
L 2890.871023 -84.069818 
L 2782.652841 -79.671273 
L 2674.434659 -75.272727 
L 2566.216477 -70.874182 
L 2457.998295 -66.475636 
L 2349.780114 -62.077091 
L 2241.561932 -57.678545 
L 2133.34375 -53.28 
L 2025.125568 -48.881455 
L 1916.907386 -44.482909 
L 1808.689205 -40.084364 
L 1700.471023 -35.685818 
L 1592.252841 -31.287273 
L 1484.034659 -26.888727 
L 1375.816477 -22.490182 
L 1267.598295 -18.091636 
L 1159.380114 -13.693091 
L 1051.161932 -9.294545 
L 942.94375 -4.896 
L 834.725568 -0.497455 
L 726.507386 3.901091 
L 618.289205 8.299636 
L 510.071023 12.698182 
L 401.852841 17.096727 
L 293.634659 21.495273 
L 185.416477 25.893818 
L 77.198295 30.292364 
L -31.019886 34.690909 
L -139.238068 39.089455 
L -247.45625 43.488 
L -355.674432 47.886545 
L -463.892614 52.285091 
L -572.110795 56.683636 
L -680.328977 61.082182 
L -788.547159 65.480727 
L -896.765341 69.879273 
L -1004.983523 74.277818 
L -1113.201705 78.676364 
L -1221.419886 83.074909 
L -1329.638068 87.473455 
L -1437.85625 91.872 
L -1546.074432 96.270545 
L -1654.292614 100.669091 
L -1762.510795 105.067636 
L -1870.728977 109.466182 
L -1978.947159 113.864727 
L -2087.165341 118.263273 
L -2195.383523 122.661818 
L -2303.601705 127.060364 
L -2411.819886 131.458909 
L -2520.038068 135.857455 
L -2628.25625 140.256 
L -2736.474432 144.654545 
L -2844.692614 149.053091 
L -2952.910795 153.451636 
L -3061.128977 157.850182 
L -3169.347159 162.248727 
L -3277.565341 166.647273 
L -3385.783523 171.045818 
L -3494.001705 175.444364 
L -3602.219886 179.842909 
L -3710.438068 184.241455 
L -3818.65625 188.64 
L -3926.874432 193.038545 
L -4035.092614 197.437091 
L -4143.310795 201.835636 
L -4251.528977 206.234182 
L -4359.747159 210.632727 
L -4467.965341 215.031273 
L -4576.183523 219.429818 
L -4684.401705 223.828364 
L -4792.619886 228.226909 
L -4900.838068 232.625455 
L -5009.05625 237.024 
L -5117.274432 241.422545 
L -5225.492614 245.821091 
L -5333.710795 250.219636 
L -5441.928977 254.618182 
L -5550.147159 259.016727 
L -5658.365341 263.415273 
L -5766.583523 267.813818 
L -5874.801705 272.212364 
L -5983.019886 276.610909 
L -6091.238068 281.009455 
L -6199.45625 285.408 
z
" clip-path="url(#p2c4c9d4a6b)" style="fill: #00ffff; fill-opacity: 0.5; stroke: #00ffff; stroke-opacity: 0.5"/>
   </g>
   <g id="matplotlib.axis_1">
    <g id="xtick_1">
     <g id="line2d_1">
      <defs>
       <path id="m1a454b0ac1" d="M 0 0 
L 0 3.5 
" style="stroke: #000000; stroke-width: 0.8"/>
      </defs>
      <g>
       <use xlink:href="#m1a454b0ac1" x="50.14375" y="273.312" style="stroke: #000000; stroke-width: 0.8"/>
      </g>
     </g>
     <g id="text_1">
      <!-- 2.00 -->
      <g transform="translate(39.010937 287.910437) scale(0.1 -0.1)">
       <defs>
        <path id="DejaVuSans-32" d="M 1228 531 
L 3431 531 
L 3431 0 
L 469 0 
L 469 531 
Q 828 903 1448 1529 
Q 2069 2156 2228 2338 
Q 2531 2678 2651 2914 
Q 2772 3150 2772 3378 
Q 2772 3750 2511 3984 
Q 2250 4219 1831 4219 
Q 1534 4219 1204 4116 
Q 875 4013 500 3803 
L 500 4441 
Q 881 4594 1212 4672 
Q 1544 4750 1819 4750 
Q 2544 4750 2975 4387 
Q 3406 4025 3406 3419 
Q 3406 3131 3298 2873 
Q 3191 2616 2906 2266 
Q 2828 2175 2409 1742 
Q 1991 1309 1228 531 
z
" transform="scale(0.015625)"/>
        <path id="DejaVuSans-2e" d="M 684 794 
L 1344 794 
L 1344 0 
L 684 0 
L 684 794 
z
" transform="scale(0.015625)"/>
        <path id="DejaVuSans-30" d="M 2034 4250 
Q 1547 4250 1301 3770 
Q 1056 3291 1056 2328 
Q 1056 1369 1301 889 
Q 1547 409 2034 409 
Q 2525 409 2770 889 
Q 3016 1369 3016 2328 
Q 3016 3291 2770 3770 
Q 2525 4250 2034 4250 
z
M 2034 4750 
Q 2819 4750 3233 4129 
Q 3647 3509 3647 2328 
Q 3647 1150 3233 529 
Q 2819 -91 2034 -91 
Q 1250 -91 836 529 
Q 422 1150 422 2328 
Q 422 3509 836 4129 
Q 1250 4750 2034 4750 
z
" transform="scale(0.015625)"/>
       </defs>
       <use xlink:href="#DejaVuSans-32"/>
       <use xlink:href="#DejaVuSans-2e" x="63.623047"/>
       <use xlink:href="#DejaVuSans-30" x="95.410156"/>
       <use xlink:href="#DejaVuSans-30" x="159.033203"/>
      </g>
     </g>
    </g>
    <g id="xtick_2">
     <g id="line2d_2">
      <g>
       <use xlink:href="#m1a454b0ac1" x="94.78375" y="273.312" style="stroke: #000000; stroke-width: 0.8"/>
      </g>
     </g>
     <g id="text_2">
      <!-- 2.05 -->
      <g transform="translate(83.650938 287.910437) scale(0.1 -0.1)">
       <defs>
        <path id="DejaVuSans-35" d="M 691 4666 
L 3169 4666 
L 3169 4134 
L 1269 4134 
L 1269 2991 
Q 1406 3038 1543 3061 
Q 1681 3084 1819 3084 
Q 2600 3084 3056 2656 
Q 3513 2228 3513 1497 
Q 3513 744 3044 326 
Q 2575 -91 1722 -91 
Q 1428 -91 1123 -41 
Q 819 9 494 109 
L 494 744 
Q 775 591 1075 516 
Q 1375 441 1709 441 
Q 2250 441 2565 725 
Q 2881 1009 2881 1497 
Q 2881 1984 2565 2268 
Q 2250 2553 1709 2553 
Q 1456 2553 1204 2497 
Q 953 2441 691 2322 
L 691 4666 
z
" transform="scale(0.015625)"/>
       </defs>
       <use xlink:href="#DejaVuSans-32"/>
       <use xlink:href="#DejaVuSans-2e" x="63.623047"/>
       <use xlink:href="#DejaVuSans-30" x="95.410156"/>
       <use xlink:href="#DejaVuSans-35" x="159.033203"/>
      </g>
     </g>
    </g>
    <g id="xtick_3">
     <g id="line2d_3">
      <g>
       <use xlink:href="#m1a454b0ac1" x="139.42375" y="273.312" style="stroke: #000000; stroke-width: 0.8"/>
      </g>
     </g>
     <g id="text_3">
      <!-- 2.10 -->
      <g transform="translate(128.290938 287.910437) scale(0.1 -0.1)">
       <defs>
        <path id="DejaVuSans-31" d="M 794 531 
L 1825 531 
L 1825 4091 
L 703 3866 
L 703 4441 
L 1819 4666 
L 2450 4666 
L 2450 531 
L 3481 531 
L 3481 0 
L 794 0 
L 794 531 
z
" transform="scale(0.015625)"/>
       </defs>
       <use xlink:href="#DejaVuSans-32"/>
       <use xlink:href="#DejaVuSans-2e" x="63.623047"/>
       <use xlink:href="#DejaVuSans-31" x="95.410156"/>
       <use xlink:href="#DejaVuSans-30" x="159.033203"/>
      </g>
     </g>
    </g>
    <g id="xtick_4">
     <g id="line2d_4">
      <g>
       <use xlink:href="#m1a454b0ac1" x="184.06375" y="273.312" style="stroke: #000000; stroke-width: 0.8"/>
      </g>
     </g>
     <g id="text_4">
      <!-- 2.15 -->
      <g transform="translate(172.930938 287.910437) scale(0.1 -0.1)">
       <use xlink:href="#DejaVuSans-32"/>
       <use xlink:href="#DejaVuSans-2e" x="63.623047"/>
       <use xlink:href="#DejaVuSans-31" x="95.410156"/>
       <use xlink:href="#DejaVuSans-35" x="159.033203"/>
      </g>
     </g>
    </g>
    <g id="xtick_5">
     <g id="line2d_5">
      <g>
       <use xlink:href="#m1a454b0ac1" x="228.70375" y="273.312" style="stroke: #000000; stroke-width: 0.8"/>
      </g>
     </g>
     <g id="text_5">
      <!-- 2.20 -->
      <g transform="translate(217.570938 287.910437) scale(0.1 -0.1)">
       <use xlink:href="#DejaVuSans-32"/>
       <use xlink:href="#DejaVuSans-2e" x="63.623047"/>
       <use xlink:href="#DejaVuSans-32" x="95.410156"/>
       <use xlink:href="#DejaVuSans-30" x="159.033203"/>
      </g>
     </g>
    </g>
    <g id="xtick_6">
     <g id="line2d_6">
      <g>
       <use xlink:href="#m1a454b0ac1" x="273.34375" y="273.312" style="stroke: #000000; stroke-width: 0.8"/>
      </g>
     </g>
     <g id="text_6">
      <!-- 2.25 -->
      <g transform="translate(262.210938 287.910437) scale(0.1 -0.1)">
       <use xlink:href="#DejaVuSans-32"/>
       <use xlink:href="#DejaVuSans-2e" x="63.623047"/>
       <use xlink:href="#DejaVuSans-32" x="95.410156"/>
       <use xlink:href="#DejaVuSans-35" x="159.033203"/>
      </g>
     </g>
    </g>
    <g id="xtick_7">
     <g id="line2d_7">
      <g>
       <use xlink:href="#m1a454b0ac1" x="317.98375" y="273.312" style="stroke: #000000; stroke-width: 0.8"/>
      </g>
     </g>
     <g id="text_7">
      <!-- 2.30 -->
      <g transform="translate(306.850938 287.910437) scale(0.1 -0.1)">
       <defs>
        <path id="DejaVuSans-33" d="M 2597 2516 
Q 3050 2419 3304 2112 
Q 3559 1806 3559 1356 
Q 3559 666 3084 287 
Q 2609 -91 1734 -91 
Q 1441 -91 1130 -33 
Q 819 25 488 141 
L 488 750 
Q 750 597 1062 519 
Q 1375 441 1716 441 
Q 2309 441 2620 675 
Q 2931 909 2931 1356 
Q 2931 1769 2642 2001 
Q 2353 2234 1838 2234 
L 1294 2234 
L 1294 2753 
L 1863 2753 
Q 2328 2753 2575 2939 
Q 2822 3125 2822 3475 
Q 2822 3834 2567 4026 
Q 2313 4219 1838 4219 
Q 1578 4219 1281 4162 
Q 984 4106 628 3988 
L 628 4550 
Q 988 4650 1302 4700 
Q 1616 4750 1894 4750 
Q 2613 4750 3031 4423 
Q 3450 4097 3450 3541 
Q 3450 3153 3228 2886 
Q 3006 2619 2597 2516 
z
" transform="scale(0.015625)"/>
       </defs>
       <use xlink:href="#DejaVuSans-32"/>
       <use xlink:href="#DejaVuSans-2e" x="63.623047"/>
       <use xlink:href="#DejaVuSans-33" x="95.410156"/>
       <use xlink:href="#DejaVuSans-30" x="159.033203"/>
      </g>
     </g>
    </g>
    <g id="xtick_8">
     <g id="line2d_8">
      <g>
       <use xlink:href="#m1a454b0ac1" x="362.62375" y="273.312" style="stroke: #000000; stroke-width: 0.8"/>
      </g>
     </g>
     <g id="text_8">
      <!-- 2.35 -->
      <g transform="translate(351.490937 287.910437) scale(0.1 -0.1)">
       <use xlink:href="#DejaVuSans-32"/>
       <use xlink:href="#DejaVuSans-2e" x="63.623047"/>
       <use xlink:href="#DejaVuSans-33" x="95.410156"/>
       <use xlink:href="#DejaVuSans-35" x="159.033203"/>
      </g>
     </g>
    </g>
    <g id="xtick_9">
     <g id="line2d_9">
      <g>
       <use xlink:href="#m1a454b0ac1" x="407.26375" y="273.312" style="stroke: #000000; stroke-width: 0.8"/>
      </g>
     </g>
     <g id="text_9">
      <!-- 2.40 -->
      <g transform="translate(396.130938 287.910437) scale(0.1 -0.1)">
       <defs>
        <path id="DejaVuSans-34" d="M 2419 4116 
L 825 1625 
L 2419 1625 
L 2419 4116 
z
M 2253 4666 
L 3047 4666 
L 3047 1625 
L 3713 1625 
L 3713 1100 
L 3047 1100 
L 3047 0 
L 2419 0 
L 2419 1100 
L 313 1100 
L 313 1709 
L 2253 4666 
z
" transform="scale(0.015625)"/>
       </defs>
       <use xlink:href="#DejaVuSans-32"/>
       <use xlink:href="#DejaVuSans-2e" x="63.623047"/>
       <use xlink:href="#DejaVuSans-34" x="95.410156"/>
       <use xlink:href="#DejaVuSans-30" x="159.033203"/>
      </g>
     </g>
    </g>
    <g id="text_10">
     <!-- x -->
     <g transform="translate(225.744375 301.588562) scale(0.1 -0.1)">
      <defs>
       <path id="DejaVuSans-78" d="M 3513 3500 
L 2247 1797 
L 3578 0 
L 2900 0 
L 1881 1375 
L 863 0 
L 184 0 
L 1544 1831 
L 300 3500 
L 978 3500 
L 1906 2253 
L 2834 3500 
L 3513 3500 
z
" transform="scale(0.015625)"/>
      </defs>
      <use xlink:href="#DejaVuSans-78"/>
     </g>
    </g>
   </g>
   <g id="matplotlib.axis_2">
    <g id="ytick_1">
     <g id="line2d_10">
      <defs>
       <path id="m04f2526dc8" d="M 0 0 
L -3.5 0 
" style="stroke: #000000; stroke-width: 0.8"/>
      </defs>
      <g>
       <use xlink:href="#m04f2526dc8" x="50.14375" y="273.312" style="stroke: #000000; stroke-width: 0.8"/>
      </g>
     </g>
     <g id="text_11">
      <!-- 0.0 -->
      <g transform="translate(27.240625 277.111219) scale(0.1 -0.1)">
       <use xlink:href="#DejaVuSans-30"/>
       <use xlink:href="#DejaVuSans-2e" x="63.623047"/>
       <use xlink:href="#DejaVuSans-30" x="95.410156"/>
      </g>
     </g>
    </g>
    <g id="ytick_2">
     <g id="line2d_11">
      <g>
       <use xlink:href="#m04f2526dc8" x="50.14375" y="243.072" style="stroke: #000000; stroke-width: 0.8"/>
      </g>
     </g>
     <g id="text_12">
      <!-- 2.5 -->
      <g transform="translate(27.240625 246.871219) scale(0.1 -0.1)">
       <use xlink:href="#DejaVuSans-32"/>
       <use xlink:href="#DejaVuSans-2e" x="63.623047"/>
       <use xlink:href="#DejaVuSans-35" x="95.410156"/>
      </g>
     </g>
    </g>
    <g id="ytick_3">
     <g id="line2d_12">
      <g>
       <use xlink:href="#m04f2526dc8" x="50.14375" y="212.832" style="stroke: #000000; stroke-width: 0.8"/>
      </g>
     </g>
     <g id="text_13">
      <!-- 5.0 -->
      <g transform="translate(27.240625 216.631219) scale(0.1 -0.1)">
       <use xlink:href="#DejaVuSans-35"/>
       <use xlink:href="#DejaVuSans-2e" x="63.623047"/>
       <use xlink:href="#DejaVuSans-30" x="95.410156"/>
      </g>
     </g>
    </g>
    <g id="ytick_4">
     <g id="line2d_13">
      <g>
       <use xlink:href="#m04f2526dc8" x="50.14375" y="182.592" style="stroke: #000000; stroke-width: 0.8"/>
      </g>
     </g>
     <g id="text_14">
      <!-- 7.5 -->
      <g transform="translate(27.240625 186.391219) scale(0.1 -0.1)">
       <defs>
        <path id="DejaVuSans-37" d="M 525 4666 
L 3525 4666 
L 3525 4397 
L 1831 0 
L 1172 0 
L 2766 4134 
L 525 4134 
L 525 4666 
z
" transform="scale(0.015625)"/>
       </defs>
       <use xlink:href="#DejaVuSans-37"/>
       <use xlink:href="#DejaVuSans-2e" x="63.623047"/>
       <use xlink:href="#DejaVuSans-35" x="95.410156"/>
      </g>
     </g>
    </g>
    <g id="ytick_5">
     <g id="line2d_14">
      <g>
       <use xlink:href="#m04f2526dc8" x="50.14375" y="152.352" style="stroke: #000000; stroke-width: 0.8"/>
      </g>
     </g>
     <g id="text_15">
      <!-- 10.0 -->
      <g transform="translate(20.878125 156.151219) scale(0.1 -0.1)">
       <use xlink:href="#DejaVuSans-31"/>
       <use xlink:href="#DejaVuSans-30" x="63.623047"/>
       <use xlink:href="#DejaVuSans-2e" x="127.246094"/>
       <use xlink:href="#DejaVuSans-30" x="159.033203"/>
      </g>
     </g>
    </g>
    <g id="ytick_6">
     <g id="line2d_15">
      <g>
       <use xlink:href="#m04f2526dc8" x="50.14375" y="122.112" style="stroke: #000000; stroke-width: 0.8"/>
      </g>
     </g>
     <g id="text_16">
      <!-- 12.5 -->
      <g transform="translate(20.878125 125.911219) scale(0.1 -0.1)">
       <use xlink:href="#DejaVuSans-31"/>
       <use xlink:href="#DejaVuSans-32" x="63.623047"/>
       <use xlink:href="#DejaVuSans-2e" x="127.246094"/>
       <use xlink:href="#DejaVuSans-35" x="159.033203"/>
      </g>
     </g>
    </g>
    <g id="ytick_7">
     <g id="line2d_16">
      <g>
       <use xlink:href="#m04f2526dc8" x="50.14375" y="91.872" style="stroke: #000000; stroke-width: 0.8"/>
      </g>
     </g>
     <g id="text_17">
      <!-- 15.0 -->
      <g transform="translate(20.878125 95.671219) scale(0.1 -0.1)">
       <use xlink:href="#DejaVuSans-31"/>
       <use xlink:href="#DejaVuSans-35" x="63.623047"/>
       <use xlink:href="#DejaVuSans-2e" x="127.246094"/>
       <use xlink:href="#DejaVuSans-30" x="159.033203"/>
      </g>
     </g>
    </g>
    <g id="ytick_8">
     <g id="line2d_17">
      <g>
       <use xlink:href="#m04f2526dc8" x="50.14375" y="61.632" style="stroke: #000000; stroke-width: 0.8"/>
      </g>
     </g>
     <g id="text_18">
      <!-- 17.5 -->
      <g transform="translate(20.878125 65.431219) scale(0.1 -0.1)">
       <use xlink:href="#DejaVuSans-31"/>
       <use xlink:href="#DejaVuSans-37" x="63.623047"/>
       <use xlink:href="#DejaVuSans-2e" x="127.246094"/>
       <use xlink:href="#DejaVuSans-35" x="159.033203"/>
      </g>
     </g>
    </g>
    <g id="ytick_9">
     <g id="line2d_18">
      <g>
       <use xlink:href="#m04f2526dc8" x="50.14375" y="31.392" style="stroke: #000000; stroke-width: 0.8"/>
      </g>
     </g>
     <g id="text_19">
      <!-- 20.0 -->
      <g transform="translate(20.878125 35.191219) scale(0.1 -0.1)">
       <use xlink:href="#DejaVuSans-32"/>
       <use xlink:href="#DejaVuSans-30" x="63.623047"/>
       <use xlink:href="#DejaVuSans-2e" x="127.246094"/>
       <use xlink:href="#DejaVuSans-30" x="159.033203"/>
      </g>
     </g>
    </g>
    <g id="text_20">
     <!-- y -->
     <g transform="translate(14.798438 143.215375) rotate(-90) scale(0.1 -0.1)">
      <defs>
       <path id="DejaVuSans-79" d="M 2059 -325 
Q 1816 -950 1584 -1140 
Q 1353 -1331 966 -1331 
L 506 -1331 
L 506 -850 
L 844 -850 
Q 1081 -850 1212 -737 
Q 1344 -625 1503 -206 
L 1606 56 
L 191 3500 
L 800 3500 
L 1894 763 
L 2988 3500 
L 3597 3500 
L 2059 -325 
z
" transform="scale(0.015625)"/>
      </defs>
      <use xlink:href="#DejaVuSans-79"/>
     </g>
    </g>
   </g>
   <g id="line2d_19">
    <path clip-path="url(#p2c4c9d4a6b)" style="fill: none; stroke: #0000ff; stroke-width: 1.5; stroke-linecap: square"/>
   </g>
   <g id="line2d_20">
    <path clip-path="url(#p2c4c9d4a6b)" style="fill: none; stroke: #0000ff; stroke-width: 1.5; stroke-linecap: square"/>
   </g>
   <g id="line2d_21">
    <path clip-path="url(#p2c4c9d4a6b)" style="fill: none; stroke: #0000ff; stroke-width: 1.5; stroke-linecap: square"/>
   </g>
   <g id="line2d_22">
    <path clip-path="url(#p2c4c9d4a6b)" style="fill: none; stroke: #0000ff; stroke-width: 1.5; stroke-linecap: square"/>
   </g>
   <g id="line2d_23">
    <path clip-path="url(#p2c4c9d4a6b)" style="fill: none; stroke: #0000ff; stroke-width: 1.5; stroke-linecap: square"/>
   </g>
   <g id="line2d_24">
    <path clip-path="url(#p2c4c9d4a6b)" style="fill: none; stroke: #0000ff; stroke-width: 1.5; stroke-linecap: square"/>
   </g>
   <g id="line2d_25">
    <path clip-path="url(#p2c4c9d4a6b)" style="fill: none; stroke: #0000ff; stroke-width: 1.5; stroke-linecap: square"/>
   </g>
   <g id="line2d_26">
    <path clip-path="url(#p2c4c9d4a6b)" style="fill: none; stroke: #0000ff; stroke-width: 1.5; stroke-linecap: square"/>
   </g>
   <g id="line2d_27">
    <path clip-path="url(#p2c4c9d4a6b)" style="fill: none; stroke: #0000ff; stroke-width: 1.5; stroke-linecap: square"/>
   </g>
   <g id="line2d_28">
    <path clip-path="url(#p2c4c9d4a6b)" style="fill: none; stroke: #0000ff; stroke-width: 1.5; stroke-linecap: square"/>
   </g>
   <g id="line2d_29">
    <path clip-path="url(#p2c4c9d4a6b)" style="fill: none; stroke: #0000ff; stroke-width: 1.5; stroke-linecap: square"/>
   </g>
   <g id="line2d_30">
    <path clip-path="url(#p2c4c9d4a6b)" style="fill: none; stroke: #0000ff; stroke-width: 1.5; stroke-linecap: square"/>
   </g>
   <g id="line2d_31">
    <path clip-path="url(#p2c4c9d4a6b)" style="fill: none; stroke: #0000ff; stroke-width: 1.5; stroke-linecap: square"/>
   </g>
   <g id="line2d_32">
    <path clip-path="url(#p2c4c9d4a6b)" style="fill: none; stroke: #0000ff; stroke-width: 1.5; stroke-linecap: square"/>
   </g>
   <g id="line2d_33">
    <path clip-path="url(#p2c4c9d4a6b)" style="fill: none; stroke: #0000ff; stroke-width: 1.5; stroke-linecap: square"/>
   </g>
   <g id="line2d_34">
    <path clip-path="url(#p2c4c9d4a6b)" style="fill: none; stroke: #0000ff; stroke-width: 1.5; stroke-linecap: square"/>
   </g>
   <g id="line2d_35">
    <path clip-path="url(#p2c4c9d4a6b)" style="fill: none; stroke: #0000ff; stroke-width: 1.5; stroke-linecap: square"/>
   </g>
   <g id="line2d_36">
    <path clip-path="url(#p2c4c9d4a6b)" style="fill: none; stroke: #0000ff; stroke-width: 1.5; stroke-linecap: square"/>
   </g>
   <g id="line2d_37">
    <path clip-path="url(#p2c4c9d4a6b)" style="fill: none; stroke: #0000ff; stroke-width: 1.5; stroke-linecap: square"/>
   </g>
   <g id="line2d_38">
    <path d="M 198.477578 255.205603 
L 198.591782 252.761967 
L 198.731164 250.31833 
L 198.900432 247.874694 
L 199.10497 245.431058 
L 199.350896 242.987421 
L 199.6451 240.543785 
L 199.995287 238.100149 
L 200.410002 235.656512 
L 200.898634 233.212876 
L 201.471414 230.769239 
L 202.13938 228.325603 
L 202.914317 225.881967 
L 203.808669 223.43833 
L 204.835419 220.994694 
L 206.007931 218.551058 
L 207.339753 216.107421 
L 208.844388 213.663785 
L 210.535015 211.220149 
L 212.424189 208.776512 
L 214.523492 206.332876 
L 216.843166 203.889239 
L 219.391717 201.445603 
L 222.175509 199.001967 
L 225.198351 196.55833 
L 228.461092 194.114694 
L 231.961233 191.671058 
L 235.692577 189.227421 
L 239.64492 186.783785 
L 243.803807 184.340149 
L 248.150361 181.896512 
L 252.661199 179.452876 
L 257.308449 177.009239 
L 262.059872 174.565603 
L 266.879099 172.121967 
L 271.725984 169.67833 
L 276.55707 167.234694 
L 281.326175 164.791058 
L 285.985068 162.347421 
L 290.484251 159.903785 
L 294.7738 157.460149 
L 298.804276 155.016512 
L 302.527655 152.572876 
L 305.898278 150.129239 
L 308.873776 147.685603 
L 311.415953 145.241967 
L 313.491606 142.79833 
L 315.073241 140.354694 
L 316.139681 137.911058 
L 316.67654 135.467421 
L 316.67654 133.023785 
L 316.139681 130.580149 
L 315.073241 128.136512 
L 313.491606 125.692876 
L 311.415953 123.249239 
L 308.873776 120.805603 
L 305.898278 118.361967 
L 302.527655 115.91833 
L 298.804276 113.474694 
L 294.7738 111.031058 
L 290.484251 108.587421 
L 285.985068 106.143785 
L 281.326175 103.700149 
L 276.55707 101.256512 
L 271.725984 98.812876 
L 266.879099 96.369239 
L 262.059872 93.925603 
L 257.308449 91.481967 
L 252.661199 89.03833 
L 248.150361 86.594694 
L 243.803807 84.151058 
L 239.64492 81.707421 
L 235.692577 79.263785 
L 231.961233 76.820149 
L 228.461092 74.376512 
L 225.198351 71.932876 
L 222.175509 69.489239 
L 219.391717 67.045603 
L 216.843166 64.601967 
L 214.523492 62.15833 
L 212.424189 59.714694 
L 210.535015 57.271058 
L 208.844388 54.827421 
L 207.339753 52.383785 
L 206.007931 49.940149 
L 204.835419 47.496512 
L 203.808669 45.052876 
L 202.914317 42.609239 
L 202.13938 40.165603 
L 201.471414 37.721967 
L 200.898634 35.27833 
L 200.410002 32.834694 
L 199.995287 30.391058 
L 199.6451 27.947421 
L 199.350896 25.503785 
L 199.10497 23.060149 
L 198.900432 20.616512 
L 198.731164 18.172876 
L 198.591782 15.729239 
L 198.477578 13.285603 
" clip-path="url(#p2c4c9d4a6b)" style="fill: none; stroke: #0000ff; stroke-width: 1.5; stroke-linecap: square"/>
   </g>
   <g id="line2d_39">
    <path clip-path="url(#p2c4c9d4a6b)" style="fill: none; stroke: #0000ff; stroke-width: 1.5; stroke-linecap: square"/>
   </g>
   <g id="line2d_40">
    <path clip-path="url(#p2c4c9d4a6b)" style="fill: none; stroke: #0000ff; stroke-width: 1.5; stroke-linecap: square"/>
   </g>
   <g id="line2d_41">
    <path clip-path="url(#p2c4c9d4a6b)" style="fill: none; stroke: #0000ff; stroke-width: 1.5; stroke-linecap: square"/>
   </g>
   <g id="line2d_42">
    <path d="M 55.056624 261.034971 
L 55.170828 258.591334 
L 55.31021 256.147698 
L 55.479478 253.704062 
L 55.684016 251.260425 
L 55.929942 248.816789 
L 56.224146 246.373153 
L 56.574333 243.929516 
L 56.989047 241.48588 
L 57.47768 239.042244 
L 58.05046 236.598607 
L 58.718426 234.154971 
L 59.493363 231.711334 
L 60.387715 229.267698 
L 61.414465 226.824062 
L 62.586977 224.380425 
L 63.918799 221.936789 
L 65.423433 219.493153 
L 67.114061 217.049516 
L 69.003235 214.60588 
L 71.102538 212.162244 
L 73.422212 209.718607 
L 75.970763 207.274971 
L 78.754555 204.831334 
L 81.777397 202.387698 
L 85.040138 199.944062 
L 88.540279 197.500425 
L 92.271623 195.056789 
L 96.223966 192.613153 
L 100.382853 190.169516 
L 104.729407 187.72588 
L 109.240245 185.282244 
L 113.887495 182.838607 
L 118.638918 180.394971 
L 123.458145 177.951334 
L 128.30503 175.507698 
L 133.136116 173.064062 
L 137.905221 170.620425 
L 142.564114 168.176789 
L 147.063296 165.733153 
L 151.352846 163.289516 
L 155.383322 160.84588 
L 159.106701 158.402244 
L 162.477324 155.958607 
L 165.452821 153.514971 
L 167.994999 151.071334 
L 170.070652 148.627698 
L 171.652287 146.184062 
L 172.718727 143.740425 
L 173.255586 141.296789 
L 173.255586 138.853153 
L 172.718727 136.409516 
L 171.652287 133.96588 
L 170.070652 131.522244 
L 167.994999 129.078607 
L 165.452821 126.634971 
L 162.477324 124.191334 
L 159.106701 121.747698 
L 155.383322 119.304062 
L 151.352846 116.860425 
L 147.063296 114.416789 
L 142.564114 111.973153 
L 137.905221 109.529516 
L 133.136116 107.08588 
L 128.30503 104.642244 
L 123.458145 102.198607 
L 118.638918 99.754971 
L 113.887495 97.311334 
L 109.240245 94.867698 
L 104.729407 92.424062 
L 100.382853 89.980425 
L 96.223966 87.536789 
L 92.271623 85.093153 
L 88.540279 82.649516 
L 85.040138 80.20588 
L 81.777397 77.762244 
L 78.754555 75.318607 
L 75.970763 72.874971 
L 73.422212 70.431334 
L 71.102538 67.987698 
L 69.003235 65.544062 
L 67.114061 63.100425 
L 65.423433 60.656789 
L 63.918799 58.213153 
L 62.586977 55.769516 
L 61.414465 53.32588 
L 60.387715 50.882244 
L 59.493363 48.438607 
L 58.718426 45.994971 
L 58.05046 43.551334 
L 57.47768 41.107698 
L 56.989047 38.664062 
L 56.574333 36.220425 
L 56.224146 33.776789 
L 55.929942 31.333153 
L 55.684016 28.889516 
L 55.479478 26.44588 
L 55.31021 24.002244 
L 55.170828 21.558607 
L 55.056624 19.114971 
" clip-path="url(#p2c4c9d4a6b)" style="fill: none; stroke: #0000ff; stroke-width: 1.5; stroke-linecap: square"/>
   </g>
   <g id="line2d_43">
    <path clip-path="url(#p2c4c9d4a6b)" style="fill: none; stroke: #0000ff; stroke-width: 1.5; stroke-linecap: square"/>
   </g>
   <g id="line2d_44">
    <path clip-path="url(#p2c4c9d4a6b)" style="fill: none; stroke: #0000ff; stroke-width: 1.5; stroke-linecap: square"/>
   </g>
   <g id="line2d_45">
    <path clip-path="url(#p2c4c9d4a6b)" style="fill: none; stroke: #0000ff; stroke-width: 1.5; stroke-linecap: square"/>
   </g>
   <g id="line2d_46">
    <path clip-path="url(#p2c4c9d4a6b)" style="fill: none; stroke: #0000ff; stroke-width: 1.5; stroke-linecap: square"/>
   </g>
   <g id="line2d_47">
    <path clip-path="url(#p2c4c9d4a6b)" style="fill: none; stroke: #0000ff; stroke-width: 1.5; stroke-linecap: square"/>
   </g>
   <g id="line2d_48">
    <path d="M 104.805454 259.012922 
L 104.919658 256.569285 
L 105.05904 254.125649 
L 105.228307 251.682013 
L 105.432846 249.238376 
L 105.678772 246.79474 
L 105.972976 244.351103 
L 106.323163 241.907467 
L 106.737877 239.463831 
L 107.226509 237.020194 
L 107.79929 234.576558 
L 108.467256 232.132922 
L 109.242193 229.689285 
L 110.136545 227.245649 
L 111.163295 224.802013 
L 112.335807 222.358376 
L 113.667629 219.91474 
L 115.172263 217.471103 
L 116.862891 215.027467 
L 118.752065 212.583831 
L 120.851368 210.140194 
L 123.171042 207.696558 
L 125.719593 205.252922 
L 128.503385 202.809285 
L 131.526227 200.365649 
L 134.788968 197.922013 
L 138.289109 195.478376 
L 142.020453 193.03474 
L 145.972796 190.591103 
L 150.131683 188.147467 
L 154.478237 185.703831 
L 158.989075 183.260194 
L 163.636324 180.816558 
L 168.387748 178.372922 
L 173.206975 175.929285 
L 178.05386 173.485649 
L 182.884946 171.042013 
L 187.65405 168.598376 
L 192.312944 166.15474 
L 196.812126 163.711103 
L 201.101676 161.267467 
L 205.132152 158.823831 
L 208.855531 156.380194 
L 212.226154 153.936558 
L 215.201651 151.492922 
L 217.743829 149.049285 
L 219.819482 146.605649 
L 221.401117 144.162013 
L 222.467557 141.718376 
L 223.004415 139.27474 
L 223.004415 136.831103 
L 222.467557 134.387467 
L 221.401117 131.943831 
L 219.819482 129.500194 
L 217.743829 127.056558 
L 215.201651 124.612922 
L 212.226154 122.169285 
L 208.855531 119.725649 
L 205.132152 117.282013 
L 201.101676 114.838376 
L 196.812126 112.39474 
L 192.312944 109.951103 
L 187.65405 107.507467 
L 182.884946 105.063831 
L 178.05386 102.620194 
L 173.206975 100.176558 
L 168.387748 97.732922 
L 163.636324 95.289285 
L 158.989075 92.845649 
L 154.478237 90.402013 
L 150.131683 87.958376 
L 145.972796 85.51474 
L 142.020453 83.071103 
L 138.289109 80.627467 
L 134.788968 78.183831 
L 131.526227 75.740194 
L 128.503385 73.296558 
L 125.719593 70.852922 
L 123.171042 68.409285 
L 120.851368 65.965649 
L 118.752065 63.522013 
L 116.862891 61.078376 
L 115.172263 58.63474 
L 113.667629 56.191103 
L 112.335807 53.747467 
L 111.163295 51.303831 
L 110.136545 48.860194 
L 109.242193 46.416558 
L 108.467256 43.972922 
L 107.79929 41.529285 
L 107.226509 39.085649 
L 106.737877 36.642013 
L 106.323163 34.198376 
L 105.972976 31.75474 
L 105.678772 29.311103 
L 105.432846 26.867467 
L 105.228307 24.423831 
L 105.05904 21.980194 
L 104.919658 19.536558 
L 104.805454 17.092922 
" clip-path="url(#p2c4c9d4a6b)" style="fill: none; stroke: #0000ff; stroke-width: 1.5; stroke-linecap: square"/>
   </g>
   <g id="line2d_49">
    <path clip-path="url(#p2c4c9d4a6b)" style="fill: none; stroke: #ffa500; stroke-width: 1.5; stroke-linecap: square"/>
   </g>
   <g id="line2d_50">
    <path clip-path="url(#p2c4c9d4a6b)" style="fill: none; stroke: #ffa500; stroke-width: 1.5; stroke-linecap: square"/>
   </g>
   <g id="line2d_51">
    <path d="M -1 182.272206 
L 2.255264 180.631011 
L 7.086351 178.187375 
L 11.855455 175.743738 
L 16.514348 173.300102 
L 21.013531 170.856466 
L 25.30308 168.412829 
L 29.333556 165.969193 
L 33.056935 163.525557 
L 36.427558 161.08192 
L 39.403056 158.638284 
L 41.945233 156.194648 
L 44.020886 153.751011 
L 45.602521 151.307375 
L 46.668962 148.863738 
L 47.20582 146.420102 
L 47.20582 143.976466 
L 46.668962 141.532829 
L 45.602521 139.089193 
L 44.020886 136.645557 
L 41.945233 134.20192 
L 39.403056 131.758284 
L 36.427558 129.314648 
L 33.056935 126.871011 
L 29.333556 124.427375 
L 25.30308 121.983738 
L 21.013531 119.540102 
L 16.514348 117.096466 
L 11.855455 114.652829 
L 7.086351 112.209193 
L 2.255264 109.765557 
L -1 108.124362 
" clip-path="url(#p2c4c9d4a6b)" style="fill: none; stroke: #ffa500; stroke-width: 1.5; stroke-linecap: square"/>
   </g>
   <g id="line2d_52">
    <path clip-path="url(#p2c4c9d4a6b)" style="fill: none; stroke: #ffa500; stroke-width: 1.5; stroke-linecap: square"/>
   </g>
   <g id="line2d_53">
    <path d="M 235.023442 253.720191 
L 235.137646 251.276554 
L 235.277028 248.832918 
L 235.446296 246.389281 
L 235.650834 243.945645 
L 235.89676 241.502009 
L 236.190964 239.058372 
L 236.541151 236.614736 
L 236.955865 234.1711 
L 237.444498 231.727463 
L 238.017278 229.283827 
L 238.685244 226.840191 
L 239.460181 224.396554 
L 240.354533 221.952918 
L 241.381283 219.509281 
L 242.553795 217.065645 
L 243.885617 214.622009 
L 245.390251 212.178372 
L 247.080879 209.734736 
L 248.970053 207.2911 
L 251.069356 204.847463 
L 253.38903 202.403827 
L 255.937581 199.960191 
L 258.721373 197.516554 
L 261.744215 195.072918 
L 265.006956 192.629281 
L 268.507097 190.185645 
L 272.238441 187.742009 
L 276.190784 185.298372 
L 280.349671 182.854736 
L 284.696225 180.4111 
L 289.207063 177.967463 
L 293.854313 175.523827 
L 298.605736 173.080191 
L 303.424963 170.636554 
L 308.271848 168.192918 
L 313.102934 165.749281 
L 317.872039 163.305645 
L 322.530932 160.862009 
L 327.030114 158.418372 
L 331.319664 155.974736 
L 335.35014 153.5311 
L 339.073519 151.087463 
L 342.444142 148.643827 
L 345.419639 146.200191 
L 347.961817 143.756554 
L 350.03747 141.312918 
L 351.619105 138.869281 
L 352.685545 136.425645 
L 353.222404 133.982009 
L 353.222404 131.538372 
L 352.685545 129.094736 
L 351.619105 126.6511 
L 350.03747 124.207463 
L 347.961817 121.763827 
L 345.419639 119.320191 
L 342.444142 116.876554 
L 339.073519 114.432918 
L 335.35014 111.989281 
L 331.319664 109.545645 
L 327.030114 107.102009 
L 322.530932 104.658372 
L 317.872039 102.214736 
L 313.102934 99.7711 
L 308.271848 97.327463 
L 303.424963 94.883827 
L 298.605736 92.440191 
L 293.854313 89.996554 
L 289.207063 87.552918 
L 284.696225 85.109281 
L 280.349671 82.665645 
L 276.190784 80.222009 
L 272.238441 77.778372 
L 268.507097 75.334736 
L 265.006956 72.8911 
L 261.744215 70.447463 
L 258.721373 68.003827 
L 255.937581 65.560191 
L 253.38903 63.116554 
L 251.069356 60.672918 
L 248.970053 58.229281 
L 247.080879 55.785645 
L 245.390251 53.342009 
L 243.885617 50.898372 
L 242.553795 48.454736 
L 241.381283 46.0111 
L 240.354533 43.567463 
L 239.460181 41.123827 
L 238.685244 38.680191 
L 238.017278 36.236554 
L 237.444498 33.792918 
L 236.955865 31.349281 
L 236.541151 28.905645 
L 236.190964 26.462009 
L 235.89676 24.018372 
L 235.650834 21.574736 
L 235.446296 19.1311 
L 235.277028 16.687463 
L 235.137646 14.243827 
L 235.023442 11.800191 
" clip-path="url(#p2c4c9d4a6b)" style="fill: none; stroke: #ffa500; stroke-width: 1.5; stroke-linecap: square"/>
   </g>
   <g id="line2d_54">
    <path clip-path="url(#p2c4c9d4a6b)" style="fill: none; stroke: #ffa500; stroke-width: 1.5; stroke-linecap: square"/>
   </g>
   <g id="line2d_55">
    <path clip-path="url(#p2c4c9d4a6b)" style="fill: none; stroke: #ffa500; stroke-width: 1.5; stroke-linecap: square"/>
   </g>
   <g id="line2d_56">
    <path clip-path="url(#p2c4c9d4a6b)" style="fill: none; stroke: #ffa500; stroke-width: 1.5; stroke-linecap: square"/>
   </g>
   <g id="line2d_57">
    <path clip-path="url(#p2c4c9d4a6b)" style="fill: none; stroke: #ffa500; stroke-width: 1.5; stroke-linecap: square"/>
   </g>
   <g id="line2d_58">
    <path clip-path="url(#p2c4c9d4a6b)" style="fill: none; stroke: #ffa500; stroke-width: 1.5; stroke-linecap: square"/>
   </g>
   <g id="patch_3">
    <path d="M 50.14375 273.312 
L 50.14375 7.2 
" style="fill: none; stroke: #000000; stroke-width: 0.8; stroke-linejoin: miter; stroke-linecap: square"/>
   </g>
   <g id="patch_4">
    <path d="M 407.26375 273.312 
L 407.26375 7.2 
" style="fill: none; stroke: #000000; stroke-width: 0.8; stroke-linejoin: miter; stroke-linecap: square"/>
   </g>
   <g id="patch_5">
    <path d="M 50.14375 273.312 
L 407.26375 273.312 
" style="fill: none; stroke: #000000; stroke-width: 0.8; stroke-linejoin: miter; stroke-linecap: square"/>
   </g>
   <g id="patch_6">
    <path d="M 50.14375 7.2 
L 407.26375 7.2 
" style="fill: none; stroke: #000000; stroke-width: 0.8; stroke-linejoin: miter; stroke-linecap: square"/>
   </g>
   <g id="line2d_59">
    <path d="M -1 142.334746 
L 77.198295 139.156364 
L 185.416477 134.757818 
L 293.634659 130.359273 
L 401.852841 125.960727 
L 426.596563 124.955015 
" clip-path="url(#p2c4c9d4a6b)" style="fill: none; stroke: #000000; stroke-width: 3; stroke-linecap: square"/>
   </g>
   <g id="PathCollection_1">
    <defs>
     <path id="m67d7d94669" d="M 0 3.535534 
C 0.937635 3.535534 1.836992 3.163008 2.5 2.5 
C 3.163008 1.836992 3.535534 0.937635 3.535534 0 
C 3.535534 -0.937635 3.163008 -1.836992 2.5 -2.5 
C 1.836992 -3.163008 0.937635 -3.535534 0 -3.535534 
C -0.937635 -3.535534 -1.836992 -3.163008 -2.5 -2.5 
C -3.163008 -1.836992 -3.535534 -0.937635 -3.535534 0 
C -3.535534 0.937635 -3.163008 1.836992 -2.5 2.5 
C -1.836992 3.163008 -0.937635 3.535534 0 3.535534 
z
" style="stroke: #000000"/>
    </defs>
    <g clip-path="url(#p2c4c9d4a6b)">
     <use xlink:href="#m67d7d94669" x="2057.774831" y="83.754496" style="fill: #0000ff; stroke: #000000"/>
     <use xlink:href="#m67d7d94669" x="-1" y="161.915733" style="fill: #0000ff; stroke: #000000"/>
     <use xlink:href="#m67d7d94669" x="-1" y="167.976214" style="fill: #0000ff; stroke: #000000"/>
     <use xlink:href="#m67d7d94669" x="702.615613" y="138.094355" style="fill: #0000ff; stroke: #000000"/>
     <use xlink:href="#m67d7d94669" x="-1" y="163.719321" style="fill: #0000ff; stroke: #000000"/>
     <use xlink:href="#m67d7d94669" x="-1" y="170.264163" style="fill: #0000ff; stroke: #000000"/>
     <use xlink:href="#m67d7d94669" x="2272.879636" y="90.457499" style="fill: #0000ff; stroke: #000000"/>
     <use xlink:href="#m67d7d94669" x="-1" y="157.953812" style="fill: #0000ff; stroke: #000000"/>
     <use xlink:href="#m67d7d94669" x="-1" y="129.678434" style="fill: #0000ff; stroke: #000000"/>
     <use xlink:href="#m67d7d94669" x="1768.083682" y="77.391383" style="fill: #0000ff; stroke: #000000"/>
     <use xlink:href="#m67d7d94669" x="-1" y="156.398187" style="fill: #0000ff; stroke: #000000"/>
     <use xlink:href="#m67d7d94669" x="-1" y="114.492464" style="fill: #0000ff; stroke: #000000"/>
     <use xlink:href="#m67d7d94669" x="1181.802466" y="92.415837" style="fill: #0000ff; stroke: #000000"/>
     <use xlink:href="#m67d7d94669" x="-1" y="147.892849" style="fill: #0000ff; stroke: #000000"/>
     <use xlink:href="#m67d7d94669" x="-1" y="123.656372" style="fill: #0000ff; stroke: #000000"/>
     <use xlink:href="#m67d7d94669" x="198.018596" y="111.848537" style="fill: #0000ff; stroke: #000000"/>
     <use xlink:href="#m67d7d94669" x="-1" y="120.699373" style="fill: #0000ff; stroke: #000000"/>
     <use xlink:href="#m67d7d94669" x="-1" y="148.017179" style="fill: #0000ff; stroke: #000000"/>
     <use xlink:href="#m67d7d94669" x="1201.362406" y="106.246974" style="fill: #0000ff; stroke: #000000"/>
     <use xlink:href="#m67d7d94669" x="767.224141" y="152.569852" style="fill: #0000ff; stroke: #000000"/>
     <use xlink:href="#m67d7d94669" x="54.597642" y="152.75192" style="fill: #0000ff; stroke: #000000"/>
     <use xlink:href="#m67d7d94669" x="765.912133" y="118.743833" style="fill: #0000ff; stroke: #000000"/>
     <use xlink:href="#m67d7d94669" x="-1" y="142.090558" style="fill: #0000ff; stroke: #000000"/>
     <use xlink:href="#m67d7d94669" x="-1" y="111.822764" style="fill: #0000ff; stroke: #000000"/>
     <use xlink:href="#m67d7d94669" x="104.346471" y="105.932919" style="fill: #0000ff; stroke: #000000"/>
    </g>
   </g>
   <g id="PathCollection_2">
    <defs>
     <path id="m023fb089b3" d="M 0 3.535534 
C 0.937635 3.535534 1.836992 3.163008 2.5 2.5 
C 3.163008 1.836992 3.535534 0.937635 3.535534 0 
C 3.535534 -0.937635 3.163008 -1.836992 2.5 -2.5 
C 1.836992 -3.163008 0.937635 -3.535534 0 -3.535534 
C -0.937635 -3.535534 -1.836992 -3.163008 -2.5 -2.5 
C -3.163008 -1.836992 -3.535534 -0.937635 -3.535534 0 
C -3.535534 0.937635 -3.163008 1.836992 -2.5 2.5 
C -1.836992 3.163008 -0.937635 3.535534 0 3.535534 
z
" style="stroke: #000000"/>
    </defs>
    <g clip-path="url(#p2c4c9d4a6b)">
     <use xlink:href="#m023fb089b3" x="1463.662344" y="62.792144" style="fill: #ffa500; stroke: #000000"/>
     <use xlink:href="#m023fb089b3" x="1732.924991" y="-1" style="fill: #ffa500; stroke: #000000"/>
     <use xlink:href="#m023fb089b3" x="1638.299719" y="-1" style="fill: #ffa500; stroke: #000000"/>
     <use xlink:href="#m023fb089b3" x="-1" y="137.728762" style="fill: #ffa500; stroke: #000000"/>
     <use xlink:href="#m023fb089b3" x="-1" y="141.706538" style="fill: #ffa500; stroke: #000000"/>
     <use xlink:href="#m023fb089b3" x="3300.177528" y="48.725131" style="fill: #ffa500; stroke: #000000"/>
     <use xlink:href="#m023fb089b3" x="234.56446" y="113.198842" style="fill: #ffa500; stroke: #000000"/>
     <use xlink:href="#m023fb089b3" x="1084.231702" y="119.858772" style="fill: #ffa500; stroke: #000000"/>
     <use xlink:href="#m023fb089b3" x="2284.716279" y="50.125647" style="fill: #ffa500; stroke: #000000"/>
     <use xlink:href="#m023fb089b3" x="723.950546" y="70.23057" style="fill: #ffa500; stroke: #000000"/>
     <use xlink:href="#m023fb089b3" x="891.204009" y="133.209711" style="fill: #ffa500; stroke: #000000"/>
     <use xlink:href="#m023fb089b3" x="1024.181751" y="100.33856" style="fill: #ffa500; stroke: #000000"/>
    </g>
   </g>
  </g>
 </g>
 <defs>
  <clipPath id="p2c4c9d4a6b">
   <rect x="50.14375" y="7.2" width="357.12" height="266.112"/>
  </clipPath>
 </defs>
</svg>
