<?xml version="1.0" encoding="utf-8" standalone="no"?>
<!DOCTYPE svg PUBLIC "-//W3C//DTD SVG 1.1//EN"
  "http://www.w3.org/Graphics/SVG/1.1/DTD/svg11.dtd">
<svg xmlns:xlink="http://www.w3.org/1999/xlink" width="414.46375pt" height="310.86825pt" viewBox="0 0 414.46375 310.86825" xmlns="http://www.w3.org/2000/svg" version="1.1">
 <metadata>
  <rdf:RDF xmlns:dc="http://purl.org/dc/elements/1.1/" xmlns:cc="http://creativecommons.org/ns#" xmlns:rdf="http://www.w3.org/1999/02/22-rdf-syntax-ns#">
   <cc:Work>
    <dc:type rdf:resource="http://purl.org/dc/dcmitype/StillImage"/>
    <dc:date>2023-05-03T11:51:09.753617</dc:date>
    <dc:format>image/svg+xml</dc:format>
    <dc:creator>
     <cc:Agent>
      <dc:title>Matplotlib v3.7.1, https://matplotlib.org/</dc:title>
     </cc:Agent>
    </dc:creator>
   </cc:Work>
  </rdf:RDF>
 </metadata>
 <defs>
  <style type="text/css">*{stroke-linejoin: round; stroke-linecap: butt}</style>
 </defs>
 <g id="figure_1">
  <g id="patch_1">
   <path d="M 0 310.86825 
L 414.46375 310.86825 
L 414.46375 0 
L 0 0 
z
" style="fill: #ffffff"/>
  </g>
  <g id="axes_1">
   <g id="patch_2">
    <path d="M 50.14375 273.312 
L 407.26375 273.312 
L 407.26375 7.2 
L 50.14375 7.2 
z
" style="fill: #ffffff"/>
   </g>
   <g id="patch_3">
    <path d="M 87.019873 273.312 
L 106.641109 273.312 
L 106.641109 214.177986 
L 87.019873 214.177986 
z
" clip-path="url(#p5ac0276a8a)" style="fill: #1f77b4; opacity: 0.6"/>
   </g>
   <g id="patch_4">
    <path d="M 106.641109 273.312 
L 126.262346 273.312 
L 126.262346 184.61098 
L 106.641109 184.61098 
z
" clip-path="url(#p5ac0276a8a)" style="fill: #1f77b4; opacity: 0.6"/>
   </g>
   <g id="patch_5">
    <path d="M 126.262346 273.312 
L 145.883582 273.312 
L 145.883582 36.775946 
L 126.262346 36.775946 
z
" clip-path="url(#p5ac0276a8a)" style="fill: #1f77b4; opacity: 0.6"/>
   </g>
   <g id="patch_6">
    <path d="M 145.883582 273.312 
L 165.504818 273.312 
L 165.504818 95.909959 
L 145.883582 95.909959 
z
" clip-path="url(#p5ac0276a8a)" style="fill: #1f77b4; opacity: 0.6"/>
   </g>
   <g id="patch_7">
    <path d="M 165.504818 273.312 
L 185.126055 273.312 
L 185.126055 95.909959 
L 165.504818 95.909959 
z
" clip-path="url(#p5ac0276a8a)" style="fill: #1f77b4; opacity: 0.6"/>
   </g>
   <g id="patch_8">
    <path d="M 185.126055 273.312 
L 204.747291 273.312 
L 204.747291 125.476966 
L 185.126055 125.476966 
z
" clip-path="url(#p5ac0276a8a)" style="fill: #1f77b4; opacity: 0.6"/>
   </g>
   <g id="patch_9">
    <path d="M 266.398766 273.312 
L 293.867574 273.312 
L 293.867574 83.232 
L 266.398766 83.232 
z
" clip-path="url(#p5ac0276a8a)" style="fill: #ff7f0e; opacity: 0.6"/>
   </g>
   <g id="patch_10">
    <path d="M 293.867574 273.312 
L 321.336382 273.312 
L 321.336382 19.872 
L 293.867574 19.872 
z
" clip-path="url(#p5ac0276a8a)" style="fill: #ff7f0e; opacity: 0.6"/>
   </g>
   <g id="patch_11">
    <path d="M 321.336382 273.312 
L 348.80519 273.312 
L 348.80519 146.592 
L 321.336382 146.592 
z
" clip-path="url(#p5ac0276a8a)" style="fill: #ff7f0e; opacity: 0.6"/>
   </g>
   <g id="patch_12">
    <path d="M 348.80519 273.312 
L 376.273998 273.312 
L 376.273998 209.952 
L 348.80519 209.952 
z
" clip-path="url(#p5ac0276a8a)" style="fill: #ff7f0e; opacity: 0.6"/>
   </g>
   <g id="matplotlib.axis_1">
    <g id="xtick_1">
     <g id="line2d_1">
      <defs>
       <path id="m73ee87ed5f" d="M 0 0 
L 0 3.5 
" style="stroke: #000000; stroke-width: 0.8"/>
      </defs>
      <g>
       <use xlink:href="#m73ee87ed5f" x="66.69834" y="273.312" style="stroke: #000000; stroke-width: 0.8"/>
      </g>
     </g>
     <g id="text_1">
      <!-- −6 -->
      <g transform="translate(59.327246 287.910437) scale(0.1 -0.1)">
       <defs>
        <path id="DejaVuSans-2212" d="M 678 2272 
L 4684 2272 
L 4684 1741 
L 678 1741 
L 678 2272 
z
" transform="scale(0.015625)"/>
        <path id="DejaVuSans-36" d="M 2113 2584 
Q 1688 2584 1439 2293 
Q 1191 2003 1191 1497 
Q 1191 994 1439 701 
Q 1688 409 2113 409 
Q 2538 409 2786 701 
Q 3034 994 3034 1497 
Q 3034 2003 2786 2293 
Q 2538 2584 2113 2584 
z
M 3366 4563 
L 3366 3988 
Q 3128 4100 2886 4159 
Q 2644 4219 2406 4219 
Q 1781 4219 1451 3797 
Q 1122 3375 1075 2522 
Q 1259 2794 1537 2939 
Q 1816 3084 2150 3084 
Q 2853 3084 3261 2657 
Q 3669 2231 3669 1497 
Q 3669 778 3244 343 
Q 2819 -91 2113 -91 
Q 1303 -91 875 529 
Q 447 1150 447 2328 
Q 447 3434 972 4092 
Q 1497 4750 2381 4750 
Q 2619 4750 2861 4703 
Q 3103 4656 3366 4563 
z
" transform="scale(0.015625)"/>
       </defs>
       <use xlink:href="#DejaVuSans-2212"/>
       <use xlink:href="#DejaVuSans-36" x="83.789062"/>
      </g>
     </g>
    </g>
    <g id="xtick_2">
     <g id="line2d_2">
      <g>
       <use xlink:href="#m73ee87ed5f" x="124.887772" y="273.312" style="stroke: #000000; stroke-width: 0.8"/>
      </g>
     </g>
     <g id="text_2">
      <!-- −4 -->
      <g transform="translate(117.516678 287.910437) scale(0.1 -0.1)">
       <defs>
        <path id="DejaVuSans-34" d="M 2419 4116 
L 825 1625 
L 2419 1625 
L 2419 4116 
z
M 2253 4666 
L 3047 4666 
L 3047 1625 
L 3713 1625 
L 3713 1100 
L 3047 1100 
L 3047 0 
L 2419 0 
L 2419 1100 
L 313 1100 
L 313 1709 
L 2253 4666 
z
" transform="scale(0.015625)"/>
       </defs>
       <use xlink:href="#DejaVuSans-2212"/>
       <use xlink:href="#DejaVuSans-34" x="83.789062"/>
      </g>
     </g>
    </g>
    <g id="xtick_3">
     <g id="line2d_3">
      <g>
       <use xlink:href="#m73ee87ed5f" x="183.077204" y="273.312" style="stroke: #000000; stroke-width: 0.8"/>
      </g>
     </g>
     <g id="text_3">
      <!-- −2 -->
      <g transform="translate(175.70611 287.910437) scale(0.1 -0.1)">
       <defs>
        <path id="DejaVuSans-32" d="M 1228 531 
L 3431 531 
L 3431 0 
L 469 0 
L 469 531 
Q 828 903 1448 1529 
Q 2069 2156 2228 2338 
Q 2531 2678 2651 2914 
Q 2772 3150 2772 3378 
Q 2772 3750 2511 3984 
Q 2250 4219 1831 4219 
Q 1534 4219 1204 4116 
Q 875 4013 500 3803 
L 500 4441 
Q 881 4594 1212 4672 
Q 1544 4750 1819 4750 
Q 2544 4750 2975 4387 
Q 3406 4025 3406 3419 
Q 3406 3131 3298 2873 
Q 3191 2616 2906 2266 
Q 2828 2175 2409 1742 
Q 1991 1309 1228 531 
z
" transform="scale(0.015625)"/>
       </defs>
       <use xlink:href="#DejaVuSans-2212"/>
       <use xlink:href="#DejaVuSans-32" x="83.789062"/>
      </g>
     </g>
    </g>
    <g id="xtick_4">
     <g id="line2d_4">
      <g>
       <use xlink:href="#m73ee87ed5f" x="241.266636" y="273.312" style="stroke: #000000; stroke-width: 0.8"/>
      </g>
     </g>
     <g id="text_4">
      <!-- 0 -->
      <g transform="translate(238.085386 287.910437) scale(0.1 -0.1)">
       <defs>
        <path id="DejaVuSans-30" d="M 2034 4250 
Q 1547 4250 1301 3770 
Q 1056 3291 1056 2328 
Q 1056 1369 1301 889 
Q 1547 409 2034 409 
Q 2525 409 2770 889 
Q 3016 1369 3016 2328 
Q 3016 3291 2770 3770 
Q 2525 4250 2034 4250 
z
M 2034 4750 
Q 2819 4750 3233 4129 
Q 3647 3509 3647 2328 
Q 3647 1150 3233 529 
Q 2819 -91 2034 -91 
Q 1250 -91 836 529 
Q 422 1150 422 2328 
Q 422 3509 836 4129 
Q 1250 4750 2034 4750 
z
" transform="scale(0.015625)"/>
       </defs>
       <use xlink:href="#DejaVuSans-30"/>
      </g>
     </g>
    </g>
    <g id="xtick_5">
     <g id="line2d_5">
      <g>
       <use xlink:href="#m73ee87ed5f" x="299.456068" y="273.312" style="stroke: #000000; stroke-width: 0.8"/>
      </g>
     </g>
     <g id="text_5">
      <!-- 2 -->
      <g transform="translate(296.274818 287.910437) scale(0.1 -0.1)">
       <use xlink:href="#DejaVuSans-32"/>
      </g>
     </g>
    </g>
    <g id="xtick_6">
     <g id="line2d_6">
      <g>
       <use xlink:href="#m73ee87ed5f" x="357.645501" y="273.312" style="stroke: #000000; stroke-width: 0.8"/>
      </g>
     </g>
     <g id="text_6">
      <!-- 4 -->
      <g transform="translate(354.464251 287.910437) scale(0.1 -0.1)">
       <use xlink:href="#DejaVuSans-34"/>
      </g>
     </g>
    </g>
    <g id="text_7">
     <!-- x -->
     <g transform="translate(225.744375 301.588562) scale(0.1 -0.1)">
      <defs>
       <path id="DejaVuSans-78" d="M 3513 3500 
L 2247 1797 
L 3578 0 
L 2900 0 
L 1881 1375 
L 863 0 
L 184 0 
L 1544 1831 
L 300 3500 
L 978 3500 
L 1906 2253 
L 2834 3500 
L 3513 3500 
z
" transform="scale(0.015625)"/>
      </defs>
      <use xlink:href="#DejaVuSans-78"/>
     </g>
    </g>
   </g>
   <g id="matplotlib.axis_2">
    <g id="ytick_1">
     <g id="line2d_7">
      <defs>
       <path id="mb8ba939bf9" d="M 0 0 
L -3.5 0 
" style="stroke: #000000; stroke-width: 0.8"/>
      </defs>
      <g>
       <use xlink:href="#mb8ba939bf9" x="50.14375" y="273.312" style="stroke: #000000; stroke-width: 0.8"/>
      </g>
     </g>
     <g id="text_8">
      <!-- 0.00 -->
      <g transform="translate(20.878125 277.111219) scale(0.1 -0.1)">
       <defs>
        <path id="DejaVuSans-2e" d="M 684 794 
L 1344 794 
L 1344 0 
L 684 0 
L 684 794 
z
" transform="scale(0.015625)"/>
       </defs>
       <use xlink:href="#DejaVuSans-30"/>
       <use xlink:href="#DejaVuSans-2e" x="63.623047"/>
       <use xlink:href="#DejaVuSans-30" x="95.410156"/>
       <use xlink:href="#DejaVuSans-30" x="159.033203"/>
      </g>
     </g>
    </g>
    <g id="ytick_2">
     <g id="line2d_8">
      <g>
       <use xlink:href="#mb8ba939bf9" x="50.14375" y="243.402382" style="stroke: #000000; stroke-width: 0.8"/>
      </g>
     </g>
     <g id="text_9">
      <!-- 0.05 -->
      <g transform="translate(20.878125 247.201601) scale(0.1 -0.1)">
       <defs>
        <path id="DejaVuSans-35" d="M 691 4666 
L 3169 4666 
L 3169 4134 
L 1269 4134 
L 1269 2991 
Q 1406 3038 1543 3061 
Q 1681 3084 1819 3084 
Q 2600 3084 3056 2656 
Q 3513 2228 3513 1497 
Q 3513 744 3044 326 
Q 2575 -91 1722 -91 
Q 1428 -91 1123 -41 
Q 819 9 494 109 
L 494 744 
Q 775 591 1075 516 
Q 1375 441 1709 441 
Q 2250 441 2565 725 
Q 2881 1009 2881 1497 
Q 2881 1984 2565 2268 
Q 2250 2553 1709 2553 
Q 1456 2553 1204 2497 
Q 953 2441 691 2322 
L 691 4666 
z
" transform="scale(0.015625)"/>
       </defs>
       <use xlink:href="#DejaVuSans-30"/>
       <use xlink:href="#DejaVuSans-2e" x="63.623047"/>
       <use xlink:href="#DejaVuSans-30" x="95.410156"/>
       <use xlink:href="#DejaVuSans-35" x="159.033203"/>
      </g>
     </g>
    </g>
    <g id="ytick_3">
     <g id="line2d_9">
      <g>
       <use xlink:href="#mb8ba939bf9" x="50.14375" y="213.492764" style="stroke: #000000; stroke-width: 0.8"/>
      </g>
     </g>
     <g id="text_10">
      <!-- 0.10 -->
      <g transform="translate(20.878125 217.291983) scale(0.1 -0.1)">
       <defs>
        <path id="DejaVuSans-31" d="M 794 531 
L 1825 531 
L 1825 4091 
L 703 3866 
L 703 4441 
L 1819 4666 
L 2450 4666 
L 2450 531 
L 3481 531 
L 3481 0 
L 794 0 
L 794 531 
z
" transform="scale(0.015625)"/>
       </defs>
       <use xlink:href="#DejaVuSans-30"/>
       <use xlink:href="#DejaVuSans-2e" x="63.623047"/>
       <use xlink:href="#DejaVuSans-31" x="95.410156"/>
       <use xlink:href="#DejaVuSans-30" x="159.033203"/>
      </g>
     </g>
    </g>
    <g id="ytick_4">
     <g id="line2d_10">
      <g>
       <use xlink:href="#mb8ba939bf9" x="50.14375" y="183.583146" style="stroke: #000000; stroke-width: 0.8"/>
      </g>
     </g>
     <g id="text_11">
      <!-- 0.15 -->
      <g transform="translate(20.878125 187.382365) scale(0.1 -0.1)">
       <use xlink:href="#DejaVuSans-30"/>
       <use xlink:href="#DejaVuSans-2e" x="63.623047"/>
       <use xlink:href="#DejaVuSans-31" x="95.410156"/>
       <use xlink:href="#DejaVuSans-35" x="159.033203"/>
      </g>
     </g>
    </g>
    <g id="ytick_5">
     <g id="line2d_11">
      <g>
       <use xlink:href="#mb8ba939bf9" x="50.14375" y="153.673528" style="stroke: #000000; stroke-width: 0.8"/>
      </g>
     </g>
     <g id="text_12">
      <!-- 0.20 -->
      <g transform="translate(20.878125 157.472747) scale(0.1 -0.1)">
       <use xlink:href="#DejaVuSans-30"/>
       <use xlink:href="#DejaVuSans-2e" x="63.623047"/>
       <use xlink:href="#DejaVuSans-32" x="95.410156"/>
       <use xlink:href="#DejaVuSans-30" x="159.033203"/>
      </g>
     </g>
    </g>
    <g id="ytick_6">
     <g id="line2d_12">
      <g>
       <use xlink:href="#mb8ba939bf9" x="50.14375" y="123.763911" style="stroke: #000000; stroke-width: 0.8"/>
      </g>
     </g>
     <g id="text_13">
      <!-- 0.25 -->
      <g transform="translate(20.878125 127.563129) scale(0.1 -0.1)">
       <use xlink:href="#DejaVuSans-30"/>
       <use xlink:href="#DejaVuSans-2e" x="63.623047"/>
       <use xlink:href="#DejaVuSans-32" x="95.410156"/>
       <use xlink:href="#DejaVuSans-35" x="159.033203"/>
      </g>
     </g>
    </g>
    <g id="ytick_7">
     <g id="line2d_13">
      <g>
       <use xlink:href="#mb8ba939bf9" x="50.14375" y="93.854293" style="stroke: #000000; stroke-width: 0.8"/>
      </g>
     </g>
     <g id="text_14">
      <!-- 0.30 -->
      <g transform="translate(20.878125 97.653511) scale(0.1 -0.1)">
       <defs>
        <path id="DejaVuSans-33" d="M 2597 2516 
Q 3050 2419 3304 2112 
Q 3559 1806 3559 1356 
Q 3559 666 3084 287 
Q 2609 -91 1734 -91 
Q 1441 -91 1130 -33 
Q 819 25 488 141 
L 488 750 
Q 750 597 1062 519 
Q 1375 441 1716 441 
Q 2309 441 2620 675 
Q 2931 909 2931 1356 
Q 2931 1769 2642 2001 
Q 2353 2234 1838 2234 
L 1294 2234 
L 1294 2753 
L 1863 2753 
Q 2328 2753 2575 2939 
Q 2822 3125 2822 3475 
Q 2822 3834 2567 4026 
Q 2313 4219 1838 4219 
Q 1578 4219 1281 4162 
Q 984 4106 628 3988 
L 628 4550 
Q 988 4650 1302 4700 
Q 1616 4750 1894 4750 
Q 2613 4750 3031 4423 
Q 3450 4097 3450 3541 
Q 3450 3153 3228 2886 
Q 3006 2619 2597 2516 
z
" transform="scale(0.015625)"/>
       </defs>
       <use xlink:href="#DejaVuSans-30"/>
       <use xlink:href="#DejaVuSans-2e" x="63.623047"/>
       <use xlink:href="#DejaVuSans-33" x="95.410156"/>
       <use xlink:href="#DejaVuSans-30" x="159.033203"/>
      </g>
     </g>
    </g>
    <g id="ytick_8">
     <g id="line2d_14">
      <g>
       <use xlink:href="#mb8ba939bf9" x="50.14375" y="63.944675" style="stroke: #000000; stroke-width: 0.8"/>
      </g>
     </g>
     <g id="text_15">
      <!-- 0.35 -->
      <g transform="translate(20.878125 67.743894) scale(0.1 -0.1)">
       <use xlink:href="#DejaVuSans-30"/>
       <use xlink:href="#DejaVuSans-2e" x="63.623047"/>
       <use xlink:href="#DejaVuSans-33" x="95.410156"/>
       <use xlink:href="#DejaVuSans-35" x="159.033203"/>
      </g>
     </g>
    </g>
    <g id="ytick_9">
     <g id="line2d_15">
      <g>
       <use xlink:href="#mb8ba939bf9" x="50.14375" y="34.035057" style="stroke: #000000; stroke-width: 0.8"/>
      </g>
     </g>
     <g id="text_16">
      <!-- 0.40 -->
      <g transform="translate(20.878125 37.834276) scale(0.1 -0.1)">
       <use xlink:href="#DejaVuSans-30"/>
       <use xlink:href="#DejaVuSans-2e" x="63.623047"/>
       <use xlink:href="#DejaVuSans-34" x="95.410156"/>
       <use xlink:href="#DejaVuSans-30" x="159.033203"/>
      </g>
     </g>
    </g>
    <g id="text_17">
     <!-- P(x) -->
     <g transform="translate(14.798438 150.131781) rotate(-90) scale(0.1 -0.1)">
      <defs>
       <path id="DejaVuSans-50" d="M 1259 4147 
L 1259 2394 
L 2053 2394 
Q 2494 2394 2734 2622 
Q 2975 2850 2975 3272 
Q 2975 3691 2734 3919 
Q 2494 4147 2053 4147 
L 1259 4147 
z
M 628 4666 
L 2053 4666 
Q 2838 4666 3239 4311 
Q 3641 3956 3641 3272 
Q 3641 2581 3239 2228 
Q 2838 1875 2053 1875 
L 1259 1875 
L 1259 0 
L 628 0 
L 628 4666 
z
" transform="scale(0.015625)"/>
       <path id="DejaVuSans-28" d="M 1984 4856 
Q 1566 4138 1362 3434 
Q 1159 2731 1159 2009 
Q 1159 1288 1364 580 
Q 1569 -128 1984 -844 
L 1484 -844 
Q 1016 -109 783 600 
Q 550 1309 550 2009 
Q 550 2706 781 3412 
Q 1013 4119 1484 4856 
L 1984 4856 
z
" transform="scale(0.015625)"/>
       <path id="DejaVuSans-29" d="M 513 4856 
L 1013 4856 
Q 1481 4119 1714 3412 
Q 1947 2706 1947 2009 
Q 1947 1309 1714 600 
Q 1481 -109 1013 -844 
L 513 -844 
Q 928 -128 1133 580 
Q 1338 1288 1338 2009 
Q 1338 2731 1133 3434 
Q 928 4138 513 4856 
z
" transform="scale(0.015625)"/>
      </defs>
      <use xlink:href="#DejaVuSans-50"/>
      <use xlink:href="#DejaVuSans-28" x="60.302734"/>
      <use xlink:href="#DejaVuSans-78" x="99.316406"/>
      <use xlink:href="#DejaVuSans-29" x="158.496094"/>
     </g>
    </g>
   </g>
   <g id="line2d_16">
    <path d="M 81.133502 260.717807 
L 82.441584 259.296768 
L 83.749667 257.746318 
L 85.057749 256.058631 
L 86.365832 254.225881 
L 87.673914 252.240316 
L 88.981997 250.094321 
L 90.290079 247.780504 
L 91.598161 245.291772 
L 92.906244 242.621428 
L 94.214326 239.763259 
L 95.522409 236.711637 
L 96.830491 233.461618 
L 98.138574 230.009048 
L 99.446656 226.350664 
L 100.754738 222.484201 
L 102.062821 218.408493 
L 103.370903 214.123573 
L 104.678986 209.630772 
L 105.987068 204.932805 
L 107.29515 200.033855 
L 108.603233 194.93965 
L 109.911315 189.657522 
L 111.219398 184.196459 
L 112.52748 178.567148 
L 113.835563 172.781992 
L 115.143645 166.855118 
L 116.451727 160.802373 
L 117.75981 154.641286 
L 119.067892 148.39103 
L 120.375975 142.07235 
L 121.684057 135.707479 
L 122.99214 129.320033 
L 124.300222 122.934884 
L 125.608304 116.57802 
L 126.916387 110.276381 
L 128.224469 104.057683 
L 129.532552 97.950224 
L 130.840634 91.982677 
L 132.148716 86.183873 
L 133.456799 80.582577 
L 134.764881 75.207246 
L 136.072964 70.0858 
L 137.381046 65.245376 
L 138.689129 60.712095 
L 139.997211 56.510822 
L 141.305293 52.664947 
L 142.613376 49.196162 
L 143.921458 46.12426 
L 145.229541 43.46695 
L 146.537623 41.23968 
L 147.845706 39.455494 
L 149.153788 38.124903 
L 150.46187 37.255779 
L 151.769953 36.85328 
L 153.078035 36.919801 
L 154.386118 37.454945 
L 155.6942 38.455532 
L 157.002282 39.915627 
L 158.310365 41.826601 
L 159.618447 44.177213 
L 160.92653 46.953725 
L 162.234612 50.140029 
L 163.542695 53.717811 
L 164.850777 57.666717 
L 166.158859 61.964553 
L 167.466942 66.587489 
L 168.775024 71.51028 
L 170.083107 76.706494 
L 171.391189 82.148746 
L 172.699272 87.808941 
L 174.007354 93.65851 
L 175.315436 99.668645 
L 176.623519 105.810539 
L 177.931601 112.055602 
L 179.239684 118.375681 
L 180.547766 124.743261 
L 181.855848 131.131655 
L 183.163931 137.515176 
L 184.472013 143.869293 
L 185.780096 150.170771 
L 187.088178 156.397789 
L 188.396261 162.530039 
L 189.704343 168.548809 
L 191.012425 174.437043 
L 192.320508 180.179379 
L 193.62859 185.762179 
L 194.936673 191.173527 
L 196.244755 196.403222 
L 197.552838 201.442749 
L 198.86092 206.285236 
L 200.169002 210.925401 
L 201.477085 215.359484 
L 202.785167 219.585172 
L 204.09325 223.601512 
L 205.401332 227.40882 
L 206.709414 231.008583 
L 208.017497 234.40336 
L 209.325579 237.596678 
L 210.633662 240.592925 
" clip-path="url(#p5ac0276a8a)" style="fill: none; stroke: #0000ff; stroke-width: 2; stroke-linecap: square"/>
   </g>
   <g id="line2d_17">
    <path d="M 152.238582 273.312 
L 152.238582 7.2 
" clip-path="url(#p5ac0276a8a)" style="fill: none; stroke-dasharray: 7.4,3.2; stroke-dashoffset: 0; stroke: #0000ff; stroke-width: 2"/>
   </g>
   <g id="line2d_18">
    <path d="M 66.376477 273.312 
L 69.655816 273.312 
L 72.935155 273.312 
L 76.214494 273.312 
L 79.493833 273.312 
L 82.773171 273.312 
L 86.05251 273.312 
L 89.331849 273.312 
L 92.611188 273.312 
L 95.890527 273.312 
L 99.169866 273.312 
L 102.449205 273.312 
L 105.728543 273.312 
L 109.007882 273.312 
L 112.287221 273.312 
L 115.56656 273.312 
L 118.845899 273.311999 
L 122.125238 273.311998 
L 125.404576 273.311997 
L 128.683915 273.311994 
L 131.963254 273.311989 
L 135.242593 273.31198 
L 138.521932 273.311964 
L 141.801271 273.311935 
L 145.08061 273.311884 
L 148.359948 273.311794 
L 151.639287 273.311641 
L 154.918626 273.311379 
L 158.197965 273.31094 
L 161.477304 273.310209 
L 164.756643 273.309011 
L 168.035981 273.307067 
L 171.31532 273.303952 
L 174.594659 273.299018 
L 177.873998 273.291297 
L 181.153337 273.279359 
L 184.432676 273.261123 
L 187.712014 273.2336 
L 190.991353 273.192559 
L 194.270692 273.132102 
L 197.550031 273.044122 
L 200.82937 272.917646 
L 204.108709 272.738051 
L 207.388048 272.486156 
L 210.667386 272.13721 
L 213.946725 271.659808 
L 217.226064 271.014801 
L 220.505403 270.154273 
L 223.784742 269.020706 
L 227.064081 267.546462 
L 230.343419 265.653755 
L 233.622758 263.255277 
L 236.902097 260.255657 
L 240.181436 256.553912 
L 243.460775 252.047009 
L 246.740114 246.634582 
L 250.019452 240.224786 
L 253.298791 232.741118 
L 256.57813 224.129961 
L 259.857469 214.368428 
L 263.136808 203.472005 
L 266.416147 191.50136 
L 269.695486 178.567674 
L 272.974824 164.835799 
L 276.254163 150.524669 
L 279.533502 135.904485 
L 282.812841 121.290419 
L 286.09218 107.032833 
L 289.371519 93.504306 
L 292.650857 81.08405 
L 295.930196 70.140571 
L 299.209535 61.013674 
L 302.488874 53.996999 
L 305.768213 49.322355 
L 309.047552 47.147009 
L 312.32689 47.544901 
L 315.606229 50.502471 
L 318.885568 55.919427 
L 322.164907 63.61439 
L 325.444246 73.33498 
L 328.723585 84.77155 
L 332.002924 97.573538 
L 335.282262 111.367226 
L 338.561601 125.773662 
L 341.84094 140.425558 
L 345.120279 154.982155 
L 348.399618 169.14126 
L 351.678957 182.647966 
L 354.958295 195.299865 
L 358.237634 206.94883 
L 361.516973 217.4997 
L 364.796312 226.906384 
L 368.075651 235.166 
L 371.35499 242.311742 
L 374.634329 248.405114 
L 377.913667 253.528123 
L 381.193006 257.775929 
L 384.472345 261.250291 
L 387.751684 264.054061 
L 391.031023 266.286817 
" clip-path="url(#p5ac0276a8a)" style="fill: none; stroke: #ffa500; stroke-width: 2; stroke-linecap: square"/>
   </g>
   <g id="line2d_19">
    <path d="M 310.181837 273.312 
L 310.181837 7.2 
" clip-path="url(#p5ac0276a8a)" style="fill: none; stroke-dasharray: 7.4,3.2; stroke-dashoffset: 0; stroke: #ffa500; stroke-width: 2"/>
   </g>
   <g id="patch_13">
    <path d="M 50.14375 273.312 
L 50.14375 7.2 
" style="fill: none; stroke: #000000; stroke-width: 0.8; stroke-linejoin: miter; stroke-linecap: square"/>
   </g>
   <g id="patch_14">
    <path d="M 407.26375 273.312 
L 407.26375 7.2 
" style="fill: none; stroke: #000000; stroke-width: 0.8; stroke-linejoin: miter; stroke-linecap: square"/>
   </g>
   <g id="patch_15">
    <path d="M 50.14375 273.312 
L 407.26375 273.312 
" style="fill: none; stroke: #000000; stroke-width: 0.8; stroke-linejoin: miter; stroke-linecap: square"/>
   </g>
   <g id="patch_16">
    <path d="M 50.14375 7.2 
L 407.26375 7.2 
" style="fill: none; stroke: #000000; stroke-width: 0.8; stroke-linejoin: miter; stroke-linecap: square"/>
   </g>
  </g>
 </g>
 <defs>
  <clipPath id="p5ac0276a8a">
   <rect x="50.14375" y="7.2" width="357.12" height="266.112"/>
  </clipPath>
 </defs>
</svg>
