<?xml version="1.0" encoding="utf-8" standalone="no"?>
<!DOCTYPE svg PUBLIC "-//W3C//DTD SVG 1.1//EN"
  "http://www.w3.org/Graphics/SVG/1.1/DTD/svg11.dtd">
<svg height="314.7395pt" version="1.1" viewBox="0 0 408.794375 314.7395" width="408.794375pt" xmlns="http://www.w3.org/2000/svg" xmlns:xlink="http://www.w3.org/1999/xlink">
 <metadata>
  <rdf:RDF xmlns:cc="http://creativecommons.org/ns#" xmlns:dc="http://purl.org/dc/elements/1.1/" xmlns:rdf="http://www.w3.org/1999/02/22-rdf-syntax-ns#">
   <cc:Work>
    <dc:type rdf:resource="http://purl.org/dc/dcmitype/StillImage"/>
    <dc:date>2023-05-03T20:44:44.420818</dc:date>
    <dc:format>image/svg+xml</dc:format>
    <dc:creator>
     <cc:Agent>
      <dc:title>Matplotlib v3.4.3, https://matplotlib.org/</dc:title>
     </cc:Agent>
    </dc:creator>
   </cc:Work>
  </rdf:RDF>
 </metadata>
 <defs>
  <style type="text/css">*{stroke-linecap:butt;stroke-linejoin:round;}</style>
 </defs>
 <g id="figure_1">
  <g id="patch_1">
   <path d="M 0 314.7395 
L 408.794375 314.7395 
L 408.794375 0 
L 0 0 
z
" style="fill:#ffffff;"/>
  </g>
  <g id="axes_1">
   <g id="patch_2">
    <path d="M 44.474375 273.312 
L 401.594375 273.312 
L 401.594375 7.2 
L 44.474375 7.2 
z
" style="fill:#ffffff;"/>
   </g>
   <g id="PathCollection_1">
    <defs>
     <path d="M -2.236068 2.236068 
L 2.236068 -2.236068 
M -2.236068 -2.236068 
L 2.236068 2.236068 
" id="mdee58ac6a1" style="stroke:#000000;stroke-width:1.5;"/>
    </defs>
    <g clip-path="url(#pa90c6a443e)">
     <use style="stroke:#000000;stroke-width:1.5;" x="188.908724" xlink:href="#mdee58ac6a1" y="251.38244"/>
     <use style="stroke:#000000;stroke-width:1.5;" x="115.887751" xlink:href="#mdee58ac6a1" y="152.542635"/>
     <use style="stroke:#000000;stroke-width:1.5;" x="118.617248" xlink:href="#mdee58ac6a1" y="162.455315"/>
     <use style="stroke:#000000;stroke-width:1.5;" x="100.826646" xlink:href="#mdee58ac6a1" y="130.258259"/>
     <use style="stroke:#000000;stroke-width:1.5;" x="164.12525" xlink:href="#mdee58ac6a1" y="228.614029"/>
     <use style="stroke:#000000;stroke-width:1.5;" x="60.707102" xlink:href="#mdee58ac6a1" y="19.296"/>
     <use style="stroke:#000000;stroke-width:1.5;" x="192.842612" xlink:href="#mdee58ac6a1" y="261.216"/>
     <use style="stroke:#000000;stroke-width:1.5;" x="111.007374" xlink:href="#mdee58ac6a1" y="132.641704"/>
     <use style="stroke:#000000;stroke-width:1.5;" x="146.283324" xlink:href="#mdee58ac6a1" y="167.223788"/>
     <use style="stroke:#000000;stroke-width:1.5;" x="127.721641" xlink:href="#mdee58ac6a1" y="154.300051"/>
     <use style="stroke:#000000;stroke-width:1.5;" x="183.610784" xlink:href="#mdee58ac6a1" y="238.989038"/>
     <use style="stroke:#000000;stroke-width:1.5;" x="68.590069" xlink:href="#mdee58ac6a1" y="55.080644"/>
     <use style="stroke:#000000;stroke-width:1.5;" x="125.336261" xlink:href="#mdee58ac6a1" y="175.329982"/>
     <use style="stroke:#000000;stroke-width:1.5;" x="123.323471" xlink:href="#mdee58ac6a1" y="130.779547"/>
     <use style="stroke:#000000;stroke-width:1.5;" x="172.888733" xlink:href="#mdee58ac6a1" y="225.495852"/>
     <use style="stroke:#000000;stroke-width:1.5;" x="99.947474" xlink:href="#mdee58ac6a1" y="124.900896"/>
     <use style="stroke:#000000;stroke-width:1.5;" x="130.234224" xlink:href="#mdee58ac6a1" y="167.737458"/>
     <use style="stroke:#000000;stroke-width:1.5;" x="107.198063" xlink:href="#mdee58ac6a1" y="93.729366"/>
     <use style="stroke:#000000;stroke-width:1.5;" x="137.24346" xlink:href="#mdee58ac6a1" y="180.004408"/>
     <use style="stroke:#000000;stroke-width:1.5;" x="154.897059" xlink:href="#mdee58ac6a1" y="196.095555"/>
     <use style="stroke:#000000;stroke-width:1.5;" x="99.923704" xlink:href="#mdee58ac6a1" y="109.073451"/>
     <use style="stroke:#000000;stroke-width:1.5;" x="173.24645" xlink:href="#mdee58ac6a1" y="232.624482"/>
     <use style="stroke:#000000;stroke-width:1.5;" x="165.306826" xlink:href="#mdee58ac6a1" y="237.837151"/>
     <use style="stroke:#000000;stroke-width:1.5;" x="152.274142" xlink:href="#mdee58ac6a1" y="209.044535"/>
     <use style="stroke:#000000;stroke-width:1.5;" x="165.282831" xlink:href="#mdee58ac6a1" y="222.09362"/>
     <use style="stroke:#000000;stroke-width:1.5;" x="113.537489" xlink:href="#mdee58ac6a1" y="131.567727"/>
     <use style="stroke:#000000;stroke-width:1.5;" x="131.85191" xlink:href="#mdee58ac6a1" y="159.452288"/>
     <use style="stroke:#000000;stroke-width:1.5;" x="105.306951" xlink:href="#mdee58ac6a1" y="109.60319"/>
     <use style="stroke:#000000;stroke-width:1.5;" x="127.116936" xlink:href="#mdee58ac6a1" y="160.968643"/>
     <use style="stroke:#000000;stroke-width:1.5;" x="153.183961" xlink:href="#mdee58ac6a1" y="189.426888"/>
    </g>
   </g>
   <g id="PathCollection_2">
    <path clip-path="url(#pa90c6a443e)" d="M 188.908724 254.369345 
C 189.700861 254.369345 190.46066 254.054626 191.020785 253.494501 
C 191.58091 252.934376 191.895629 252.174576 191.895629 251.38244 
C 191.895629 250.590303 191.58091 249.830504 191.020785 249.270379 
C 190.46066 248.710254 189.700861 248.395535 188.908724 248.395535 
C 188.116588 248.395535 187.356789 248.710254 186.796664 249.270379 
C 186.236539 249.830504 185.921819 250.590303 185.921819 251.38244 
C 185.921819 252.174576 186.236539 252.934376 186.796664 253.494501 
C 187.356789 254.054626 188.116588 254.369345 188.908724 254.369345 
z
" style="fill:#00ffff;fill-opacity:0.5;stroke:#00ffff;stroke-opacity:0.5;"/>
    <path clip-path="url(#pa90c6a443e)" d="M 115.887751 155.52954 
C 116.679888 155.52954 117.439687 155.214821 117.999812 154.654695 
C 118.559937 154.09457 118.874656 153.334771 118.874656 152.542635 
C 118.874656 151.750498 118.559937 150.990699 117.999812 150.430574 
C 117.439687 149.870449 116.679888 149.55573 115.887751 149.55573 
C 115.095615 149.55573 114.335815 149.870449 113.77569 150.430574 
C 113.215565 150.990699 112.900846 151.750498 112.900846 152.542635 
C 112.900846 153.334771 113.215565 154.09457 113.77569 154.654695 
C 114.335815 155.214821 115.095615 155.52954 115.887751 155.52954 
z
" style="fill:#00ffff;fill-opacity:0.5;stroke:#00ffff;stroke-opacity:0.5;"/>
    <path clip-path="url(#pa90c6a443e)" d="M 118.617248 165.44222 
C 119.409385 165.44222 120.169184 165.127501 120.729309 164.567376 
C 121.289434 164.007251 121.604153 163.247451 121.604153 162.455315 
C 121.604153 161.663178 121.289434 160.903379 120.729309 160.343254 
C 120.169184 159.783129 119.409385 159.46841 118.617248 159.46841 
C 117.825112 159.46841 117.065313 159.783129 116.505187 160.343254 
C 115.945062 160.903379 115.630343 161.663178 115.630343 162.455315 
C 115.630343 163.247451 115.945062 164.007251 116.505187 164.567376 
C 117.065313 165.127501 117.825112 165.44222 118.617248 165.44222 
z
" style="fill:#00ffff;fill-opacity:0.5;stroke:#00ffff;stroke-opacity:0.5;"/>
    <path clip-path="url(#pa90c6a443e)" d="M 100.826646 133.213033 
C 101.610261 133.213033 102.361886 132.901699 102.915986 132.347599 
C 103.470085 131.7935 103.781419 131.041874 103.781419 130.258259 
C 103.781419 129.474644 103.470085 128.723019 102.915986 128.168919 
C 102.361886 127.61482 101.610261 127.303486 100.826646 127.303486 
C 100.043031 127.303486 99.291405 127.61482 98.737306 128.168919 
C 98.183206 128.723019 97.871873 129.474644 97.871873 130.258259 
C 97.871873 131.041874 98.183206 131.7935 98.737306 132.347599 
C 99.291405 132.901699 100.043031 133.213033 100.826646 133.213033 
z
" style="fill:#00ffff;fill-opacity:0.5;stroke:#00ffff;stroke-opacity:0.5;"/>
    <path clip-path="url(#pa90c6a443e)" d="M 164.12525 231.598519 
C 164.916745 231.598519 165.67593 231.284054 166.235602 230.724382 
C 166.795274 230.16471 167.109739 229.405525 167.109739 228.614029 
C 167.109739 227.822534 166.795274 227.063349 166.235602 226.503677 
C 165.67593 225.944005 164.916745 225.62954 164.12525 225.62954 
C 163.333754 225.62954 162.574569 225.944005 162.014897 226.503677 
C 161.455225 227.063349 161.14076 227.822534 161.14076 228.614029 
C 161.14076 229.405525 161.455225 230.16471 162.014897 230.724382 
C 162.574569 231.284054 163.333754 231.598519 164.12525 231.598519 
z
" style="fill:#00ffff;fill-opacity:0.5;stroke:#00ffff;stroke-opacity:0.5;"/>
    <path clip-path="url(#pa90c6a443e)" d="M 60.707102 22.282905 
C 61.499239 22.282905 62.259038 21.968186 62.819163 21.408061 
C 63.379288 20.847936 63.694007 20.088136 63.694007 19.296 
C 63.694007 18.503864 63.379288 17.744064 62.819163 17.183939 
C 62.259038 16.623814 61.499239 16.309095 60.707102 16.309095 
C 59.914966 16.309095 59.155167 16.623814 58.595042 17.183939 
C 58.034917 17.744064 57.720197 18.503864 57.720197 19.296 
C 57.720197 20.088136 58.034917 20.847936 58.595042 21.408061 
C 59.155167 21.968186 59.914966 22.282905 60.707102 22.282905 
z
" style="fill:#00ffff;fill-opacity:0.5;stroke:#00ffff;stroke-opacity:0.5;"/>
    <path clip-path="url(#pa90c6a443e)" d="M 192.842612 264.202905 
C 193.634749 264.202905 194.394548 263.888186 194.954673 263.328061 
C 195.514798 262.767936 195.829517 262.008136 195.829517 261.216 
C 195.829517 260.423864 195.514798 259.664064 194.954673 259.103939 
C 194.394548 258.543814 193.634749 258.229095 192.842612 258.229095 
C 192.050476 258.229095 191.290677 258.543814 190.730552 259.103939 
C 190.170427 259.664064 189.855707 260.423864 189.855707 261.216 
C 189.855707 262.008136 190.170427 262.767936 190.730552 263.328061 
C 191.290677 263.888186 192.050476 264.202905 192.842612 264.202905 
z
" style="fill:#00ffff;fill-opacity:0.5;stroke:#00ffff;stroke-opacity:0.5;"/>
    <path clip-path="url(#pa90c6a443e)" d="M 111.007374 135.628609 
C 111.79951 135.628609 112.55931 135.31389 113.119435 134.753765 
C 113.67956 134.19364 113.994279 133.433841 113.994279 132.641704 
C 113.994279 131.849568 113.67956 131.089769 113.119435 130.529644 
C 112.55931 129.969519 111.79951 129.654799 111.007374 129.654799 
C 110.215238 129.654799 109.455438 129.969519 108.895313 130.529644 
C 108.335188 131.089769 108.020469 131.849568 108.020469 132.641704 
C 108.020469 133.433841 108.335188 134.19364 108.895313 134.753765 
C 109.455438 135.31389 110.215238 135.628609 111.007374 135.628609 
z
" style="fill:#00ffff;fill-opacity:0.5;stroke:#00ffff;stroke-opacity:0.5;"/>
    <path clip-path="url(#pa90c6a443e)" d="M 146.283324 170.210693 
C 147.07546 170.210693 147.835259 169.895974 148.395384 169.335848 
C 148.95551 168.775723 149.270229 168.015924 149.270229 167.223788 
C 149.270229 166.431651 148.95551 165.671852 148.395384 165.111727 
C 147.835259 164.551602 147.07546 164.236883 146.283324 164.236883 
C 145.491187 164.236883 144.731388 164.551602 144.171263 165.111727 
C 143.611138 165.671852 143.296419 166.431651 143.296419 167.223788 
C 143.296419 168.015924 143.611138 168.775723 144.171263 169.335848 
C 144.731388 169.895974 145.491187 170.210693 146.283324 170.210693 
z
" style="fill:#00ffff;fill-opacity:0.5;stroke:#00ffff;stroke-opacity:0.5;"/>
    <path clip-path="url(#pa90c6a443e)" d="M 127.721641 157.049663 
C 128.450846 157.049663 129.150284 156.759947 129.66591 156.244321 
C 130.181536 155.728695 130.471253 155.029257 130.471253 154.300051 
C 130.471253 153.570846 130.181536 152.871408 129.66591 152.355782 
C 129.150284 151.840156 128.450846 151.550439 127.721641 151.550439 
C 126.992435 151.550439 126.292997 151.840156 125.777371 152.355782 
C 125.261745 152.871408 124.972029 153.570846 124.972029 154.300051 
C 124.972029 155.029257 125.261745 155.728695 125.777371 156.244321 
C 126.292997 156.759947 126.992435 157.049663 127.721641 157.049663 
z
" style="fill:#00ffff;fill-opacity:0.5;stroke:#00ffff;stroke-opacity:0.5;"/>
    <path clip-path="url(#pa90c6a443e)" d="M 183.610784 241.975943 
C 184.40292 241.975943 185.162719 241.661224 185.722844 241.101098 
C 186.282969 240.540973 186.597689 239.781174 186.597689 238.989038 
C 186.597689 238.196901 186.282969 237.437102 185.722844 236.876977 
C 185.162719 236.316852 184.40292 236.002133 183.610784 236.002133 
C 182.818647 236.002133 182.058848 236.316852 181.498723 236.876977 
C 180.938598 237.437102 180.623879 238.196901 180.623879 238.989038 
C 180.623879 239.781174 180.938598 240.540973 181.498723 241.101098 
C 182.058848 241.661224 182.818647 241.975943 183.610784 241.975943 
z
" style="fill:#00ffff;fill-opacity:0.5;stroke:#00ffff;stroke-opacity:0.5;"/>
    <path clip-path="url(#pa90c6a443e)" d="M 68.590069 58.067549 
C 69.382205 58.067549 70.142005 57.75283 70.70213 57.192705 
C 71.262255 56.63258 71.576974 55.872781 71.576974 55.080644 
C 71.576974 54.288508 71.262255 53.528708 70.70213 52.968583 
C 70.142005 52.408458 69.382205 52.093739 68.590069 52.093739 
C 67.797933 52.093739 67.038133 52.408458 66.478008 52.968583 
C 65.917883 53.528708 65.603164 54.288508 65.603164 55.080644 
C 65.603164 55.872781 65.917883 56.63258 66.478008 57.192705 
C 67.038133 57.75283 67.797933 58.067549 68.590069 58.067549 
z
" style="fill:#00ffff;fill-opacity:0.5;stroke:#00ffff;stroke-opacity:0.5;"/>
    <path clip-path="url(#pa90c6a443e)" d="M 125.336261 178.316886 
C 126.128398 178.316886 126.888197 178.002167 127.448322 177.442042 
C 128.008447 176.881917 128.323166 176.122118 128.323166 175.329982 
C 128.323166 174.537846 128.008447 173.778047 127.448322 173.217922 
C 126.888197 172.657797 126.128398 172.343078 125.336261 172.343078 
C 124.544125 172.343078 123.784326 172.657797 123.224201 173.217922 
C 122.664076 173.778047 122.349357 174.537846 122.349357 175.329982 
C 122.349357 176.122118 122.664076 176.881917 123.224201 177.442042 
C 123.784326 178.002167 124.544125 178.316886 125.336261 178.316886 
z
" style="fill:#00ffff;fill-opacity:0.5;stroke:#00ffff;stroke-opacity:0.5;"/>
    <path clip-path="url(#pa90c6a443e)" d="M 123.323471 133.766452 
C 124.115607 133.766452 124.875406 133.451733 125.435531 132.891608 
C 125.995657 132.331483 126.310376 131.571684 126.310376 130.779547 
C 126.310376 129.987411 125.995657 129.227612 125.435531 128.667487 
C 124.875406 128.107362 124.115607 127.792642 123.323471 127.792642 
C 122.531334 127.792642 121.771535 128.107362 121.21141 128.667487 
C 120.651285 129.227612 120.336566 129.987411 120.336566 130.779547 
C 120.336566 131.571684 120.651285 132.331483 121.21141 132.891608 
C 121.771535 133.451733 122.531334 133.766452 123.323471 133.766452 
z
" style="fill:#00ffff;fill-opacity:0.5;stroke:#00ffff;stroke-opacity:0.5;"/>
    <path clip-path="url(#pa90c6a443e)" d="M 172.888733 227.895903 
C 173.525234 227.895903 174.135751 227.643018 174.585826 227.192944 
C 175.0359 226.74287 175.288784 226.132353 175.288784 225.495852 
C 175.288784 224.85935 175.0359 224.248833 174.585826 223.798759 
C 174.135751 223.348685 173.525234 223.0958 172.888733 223.0958 
C 172.252232 223.0958 171.641715 223.348685 171.19164 223.798759 
C 170.741566 224.248833 170.488682 224.85935 170.488682 225.495852 
C 170.488682 226.132353 170.741566 226.74287 171.19164 227.192944 
C 171.641715 227.643018 172.252232 227.895903 172.888733 227.895903 
z
" style="fill:#00ffff;fill-opacity:0.5;stroke:#00ffff;stroke-opacity:0.5;"/>
    <path clip-path="url(#pa90c6a443e)" d="M 99.947474 124.909127 
C 99.949657 124.909127 99.951751 124.90826 99.953294 124.906716 
C 99.954838 124.905173 99.955705 124.903079 99.955705 124.900896 
C 99.955705 124.898713 99.954838 124.896619 99.953294 124.895075 
C 99.951751 124.893532 99.949657 124.892665 99.947474 124.892665 
C 99.945291 124.892665 99.943197 124.893532 99.941653 124.895075 
C 99.94011 124.896619 99.939243 124.898713 99.939243 124.900896 
C 99.939243 124.903079 99.94011 124.905173 99.941653 124.906716 
C 99.943197 124.90826 99.945291 124.909127 99.947474 124.909127 
z
" style="fill:#00ffff;fill-opacity:0.5;stroke:#00ffff;stroke-opacity:0.5;"/>
    <path clip-path="url(#pa90c6a443e)" d="M 130.234224 170.724356 
C 131.026358 170.724356 131.786156 170.409637 132.34628 169.849514 
C 132.906403 169.28939 133.221122 168.529592 133.221122 167.737458 
C 133.221122 166.945323 132.906403 166.185526 132.34628 165.625402 
C 131.786156 165.065278 131.026358 164.75056 130.234224 164.75056 
C 129.442089 164.75056 128.682292 165.065278 128.122168 165.625402 
C 127.562044 166.185526 127.247326 166.945323 127.247326 167.737458 
C 127.247326 168.529592 127.562044 169.28939 128.122168 169.849514 
C 128.682292 170.409637 129.442089 170.724356 130.234224 170.724356 
z
" style="fill:#00ffff;fill-opacity:0.5;stroke:#00ffff;stroke-opacity:0.5;"/>
    <path clip-path="url(#pa90c6a443e)" d="M 107.198063 96.716271 
C 107.990199 96.716271 108.749998 96.401552 109.310124 95.841427 
C 109.870249 95.281302 110.184968 94.521503 110.184968 93.729366 
C 110.184968 92.93723 109.870249 92.177431 109.310124 91.617306 
C 108.749998 91.057181 107.990199 90.742462 107.198063 90.742462 
C 106.405926 90.742462 105.646127 91.057181 105.086002 91.617306 
C 104.525877 92.177431 104.211158 92.93723 104.211158 93.729366 
C 104.211158 94.521503 104.525877 95.281302 105.086002 95.841427 
C 105.646127 96.401552 106.405926 96.716271 107.198063 96.716271 
z
" style="fill:#00ffff;fill-opacity:0.5;stroke:#00ffff;stroke-opacity:0.5;"/>
    <path clip-path="url(#pa90c6a443e)" d="M 137.24346 182.991313 
C 138.035596 182.991313 138.795395 182.676594 139.35552 182.116469 
C 139.915645 181.556344 140.230364 180.796545 140.230364 180.004408 
C 140.230364 179.212272 139.915645 178.452473 139.35552 177.892348 
C 138.795395 177.332223 138.035596 177.017504 137.24346 177.017504 
C 136.451323 177.017504 135.691524 177.332223 135.131399 177.892348 
C 134.571274 178.452473 134.256555 179.212272 134.256555 180.004408 
C 134.256555 180.796545 134.571274 181.556344 135.131399 182.116469 
C 135.691524 182.676594 136.451323 182.991313 137.24346 182.991313 
z
" style="fill:#00ffff;fill-opacity:0.5;stroke:#00ffff;stroke-opacity:0.5;"/>
    <path clip-path="url(#pa90c6a443e)" d="M 154.897059 199.082458 
C 155.689195 199.082458 156.448994 198.767739 157.009119 198.207615 
C 157.569243 197.64749 157.883962 196.887691 157.883962 196.095555 
C 157.883962 195.303419 157.569243 194.54362 157.009119 193.983495 
C 156.448994 193.423371 155.689195 193.108652 154.897059 193.108652 
C 154.104923 193.108652 153.345124 193.423371 152.784999 193.983495 
C 152.224875 194.54362 151.910156 195.303419 151.910156 196.095555 
C 151.910156 196.887691 152.224875 197.64749 152.784999 198.207615 
C 153.345124 198.767739 154.104923 199.082458 154.897059 199.082458 
z
" style="fill:#00ffff;fill-opacity:0.5;stroke:#00ffff;stroke-opacity:0.5;"/>
    <path clip-path="url(#pa90c6a443e)" d="M 99.923704 112.028213 
C 100.707316 112.028213 101.458938 111.71688 102.013036 111.162783 
C 102.567133 110.608686 102.878465 109.857063 102.878465 109.073451 
C 102.878465 108.289839 102.567133 107.538216 102.013036 106.984119 
C 101.458938 106.430021 100.707316 106.118689 99.923704 106.118689 
C 99.140092 106.118689 98.388469 106.430021 97.834372 106.984119 
C 97.280274 107.538216 96.968942 108.289839 96.968942 109.073451 
C 96.968942 109.857063 97.280274 110.608686 97.834372 111.162783 
C 98.388469 111.71688 99.140092 112.028213 99.923704 112.028213 
z
" style="fill:#00ffff;fill-opacity:0.5;stroke:#00ffff;stroke-opacity:0.5;"/>
    <path clip-path="url(#pa90c6a443e)" d="M 173.24645 235.024533 
C 173.882951 235.024533 174.493468 234.771649 174.943542 234.321574 
C 175.393617 233.8715 175.646501 233.260983 175.646501 232.624482 
C 175.646501 231.987981 175.393617 231.377463 174.943542 230.927389 
C 174.493468 230.477315 173.882951 230.22443 173.24645 230.22443 
C 172.609949 230.22443 171.999431 230.477315 171.549357 230.927389 
C 171.099283 231.377463 170.846398 231.987981 170.846398 232.624482 
C 170.846398 233.260983 171.099283 233.8715 171.549357 234.321574 
C 171.999431 234.771649 172.609949 235.024533 173.24645 235.024533 
z
" style="fill:#00ffff;fill-opacity:0.5;stroke:#00ffff;stroke-opacity:0.5;"/>
    <path clip-path="url(#pa90c6a443e)" d="M 165.306826 240.111677 
C 165.910037 240.111677 166.488624 239.872019 166.915159 239.445484 
C 167.341693 239.018949 167.581352 238.440362 167.581352 237.837151 
C 167.581352 237.233939 167.341693 236.655353 166.915159 236.228818 
C 166.488624 235.802283 165.910037 235.562625 165.306826 235.562625 
C 164.703614 235.562625 164.125028 235.802283 163.698493 236.228818 
C 163.271958 236.655353 163.0323 237.233939 163.0323 237.837151 
C 163.0323 238.440362 163.271958 239.018949 163.698493 239.445484 
C 164.125028 239.872019 164.703614 240.111677 165.306826 240.111677 
z
" style="fill:#00ffff;fill-opacity:0.5;stroke:#00ffff;stroke-opacity:0.5;"/>
    <path clip-path="url(#pa90c6a443e)" d="M 152.274142 212.001105 
C 153.058234 212.001105 153.810317 211.689582 154.364753 211.135146 
C 154.919189 210.58071 155.230712 209.828627 155.230712 209.044535 
C 155.230712 208.260444 154.919189 207.508361 154.364753 206.953925 
C 153.810317 206.399488 153.058234 206.087966 152.274142 206.087966 
C 151.490051 206.087966 150.737968 206.399488 150.183532 206.953925 
C 149.629096 207.508361 149.317573 208.260444 149.317573 209.044535 
C 149.317573 209.828627 149.629096 210.58071 150.183532 211.135146 
C 150.737968 211.689582 151.490051 212.001105 152.274142 212.001105 
z
" style="fill:#00ffff;fill-opacity:0.5;stroke:#00ffff;stroke-opacity:0.5;"/>
    <path clip-path="url(#pa90c6a443e)" d="M 165.282831 224.028934 
C 165.796083 224.028934 166.288382 223.825017 166.651305 223.462094 
C 167.014229 223.09917 167.218146 222.606871 167.218146 222.09362 
C 167.218146 221.580369 167.014229 221.08807 166.651305 220.725146 
C 166.288382 220.362223 165.796083 220.158306 165.282831 220.158306 
C 164.76958 220.158306 164.277281 220.362223 163.914358 220.725146 
C 163.551434 221.08807 163.347517 221.580369 163.347517 222.09362 
C 163.347517 222.606871 163.551434 223.09917 163.914358 223.462094 
C 164.277281 223.825017 164.76958 224.028934 165.282831 224.028934 
z
" style="fill:#00ffff;fill-opacity:0.5;stroke:#00ffff;stroke-opacity:0.5;"/>
    <path clip-path="url(#pa90c6a443e)" d="M 113.537489 134.554632 
C 114.329626 134.554632 115.089425 134.239913 115.64955 133.679787 
C 116.209675 133.119662 116.524394 132.359863 116.524394 131.567727 
C 116.524394 130.77559 116.209675 130.015791 115.64955 129.455666 
C 115.089425 128.895541 114.329626 128.580822 113.537489 128.580822 
C 112.745353 128.580822 111.985553 128.895541 111.425428 129.455666 
C 110.865303 130.015791 110.550584 130.77559 110.550584 131.567727 
C 110.550584 132.359863 110.865303 133.119662 111.425428 133.679787 
C 111.985553 134.239913 112.745353 134.554632 113.537489 134.554632 
z
" style="fill:#00ffff;fill-opacity:0.5;stroke:#00ffff;stroke-opacity:0.5;"/>
    <path clip-path="url(#pa90c6a443e)" d="M 131.85191 162.439186 
C 132.644045 162.439186 133.403842 162.124468 133.963966 161.564344 
C 134.52409 161.00422 134.838808 160.244423 134.838808 159.452288 
C 134.838808 158.660154 134.52409 157.900356 133.963966 157.340233 
C 133.403842 156.780109 132.644045 156.46539 131.85191 156.46539 
C 131.059776 156.46539 130.299978 156.780109 129.739855 157.340233 
C 129.179731 157.900356 128.865012 158.660154 128.865012 159.452288 
C 128.865012 160.244423 129.179731 161.00422 129.739855 161.564344 
C 130.299978 162.124468 131.059776 162.439186 131.85191 162.439186 
z
" style="fill:#00ffff;fill-opacity:0.5;stroke:#00ffff;stroke-opacity:0.5;"/>
    <path clip-path="url(#pa90c6a443e)" d="M 105.306951 112.590095 
C 106.099087 112.590095 106.858887 112.275376 107.419012 111.715251 
C 107.979137 111.155126 108.293856 110.395327 108.293856 109.60319 
C 108.293856 108.811054 107.979137 108.051255 107.419012 107.49113 
C 106.858887 106.931005 106.099087 106.616286 105.306951 106.616286 
C 104.514814 106.616286 103.755015 106.931005 103.19489 107.49113 
C 102.634765 108.051255 102.320046 108.811054 102.320046 109.60319 
C 102.320046 110.395327 102.634765 111.155126 103.19489 111.715251 
C 103.755015 112.275376 104.514814 112.590095 105.306951 112.590095 
z
" style="fill:#00ffff;fill-opacity:0.5;stroke:#00ffff;stroke-opacity:0.5;"/>
    <path clip-path="url(#pa90c6a443e)" d="M 127.116936 163.718255 
C 127.846142 163.718255 128.545579 163.428538 129.061205 162.912912 
C 129.576831 162.397286 129.866547 161.697849 129.866547 160.968643 
C 129.866547 160.239438 129.576831 159.540001 129.061205 159.024375 
C 128.545579 158.508748 127.846142 158.219032 127.116936 158.219032 
C 126.387731 158.219032 125.688293 158.508748 125.172667 159.024375 
C 124.657041 159.540001 124.367325 160.239438 124.367325 160.968643 
C 124.367325 161.697849 124.657041 162.397286 125.172667 162.912912 
C 125.688293 163.428538 126.387731 163.718255 127.116936 163.718255 
z
" style="fill:#00ffff;fill-opacity:0.5;stroke:#00ffff;stroke-opacity:0.5;"/>
    <path clip-path="url(#pa90c6a443e)" d="M 153.183961 192.383456 
C 153.968052 192.383456 154.720134 192.071933 155.27457 191.517497 
C 155.829006 190.963061 156.140529 190.210979 156.140529 189.426888 
C 156.140529 188.642797 155.829006 187.890715 155.27457 187.336279 
C 154.720134 186.781843 153.968052 186.47032 153.183961 186.47032 
C 152.39987 186.47032 151.647788 186.781843 151.093352 187.336279 
C 150.538915 187.890715 150.227393 188.642797 150.227393 189.426888 
C 150.227393 190.210979 150.538915 190.963061 151.093352 191.517497 
C 151.647788 192.071933 152.39987 192.383456 153.183961 192.383456 
z
" style="fill:#00ffff;fill-opacity:0.5;stroke:#00ffff;stroke-opacity:0.5;"/>
   </g>
   <g id="PathCollection_3">
    <defs>
     <path d="M -2.236068 2.236068 
L 2.236068 -2.236068 
M -2.236068 -2.236068 
L 2.236068 2.236068 
" id="med0847b383" style="stroke:#ff0000;stroke-width:1.5;"/>
    </defs>
    <g clip-path="url(#pa90c6a443e)">
     <use style="fill:#ff0000;stroke:#ff0000;stroke-width:1.5;" x="318.188393" xlink:href="#med0847b383" y="190.212901"/>
     <use style="fill:#ff0000;stroke:#ff0000;stroke-width:1.5;" x="329.9604" xlink:href="#med0847b383" y="144.136041"/>
     <use style="fill:#ff0000;stroke:#ff0000;stroke-width:1.5;" x="262.039314" xlink:href="#med0847b383" y="248.687729"/>
     <use style="fill:#ff0000;stroke:#ff0000;stroke-width:1.5;" x="385.361648" xlink:href="#med0847b383" y="93.241436"/>
     <use style="fill:#ff0000;stroke:#ff0000;stroke-width:1.5;" x="273.232323" xlink:href="#med0847b383" y="234.33859"/>
     <use style="fill:#ff0000;stroke:#ff0000;stroke-width:1.5;" x="304.310157" xlink:href="#med0847b383" y="226.494984"/>
     <use style="fill:#ff0000;stroke:#ff0000;stroke-width:1.5;" x="348.219653" xlink:href="#med0847b383" y="152.705599"/>
     <use style="fill:#ff0000;stroke:#ff0000;stroke-width:1.5;" x="291.132342" xlink:href="#med0847b383" y="209.969053"/>
     <use style="fill:#ff0000;stroke:#ff0000;stroke-width:1.5;" x="297.249884" xlink:href="#med0847b383" y="236.511204"/>
     <use style="fill:#ff0000;stroke:#ff0000;stroke-width:1.5;" x="302.113741" xlink:href="#med0847b383" y="218.712456"/>
    </g>
   </g>
   <g id="PathCollection_4">
    <defs>
     <path d="M 0 2.236068 
C 0.593012 2.236068 1.161816 2.000462 1.581139 1.581139 
C 2.000462 1.161816 2.236068 0.593012 2.236068 0 
C 2.236068 -0.593012 2.000462 -1.161816 1.581139 -1.581139 
C 1.161816 -2.000462 0.593012 -2.236068 0 -2.236068 
C -0.593012 -2.236068 -1.161816 -2.000462 -1.581139 -1.581139 
C -2.000462 -1.161816 -2.236068 -0.593012 -2.236068 0 
C -2.236068 0.593012 -2.000462 1.161816 -1.581139 1.581139 
C -1.161816 2.000462 -0.593012 2.236068 0 2.236068 
z
" id="m651084814e" style="stroke:#bfbf00;"/>
    </defs>
    <g clip-path="url(#pa90c6a443e)">
     <use style="fill:#bfbf00;stroke:#bfbf00;" x="217.980714" xlink:href="#m651084814e" y="253.684627"/>
     <use style="fill:#bfbf00;stroke:#bfbf00;" x="171.617674" xlink:href="#m651084814e" y="225.115556"/>
     <use style="fill:#bfbf00;stroke:#bfbf00;" x="216.64736" xlink:href="#m651084814e" y="253.336941"/>
     <use style="fill:#bfbf00;stroke:#bfbf00;" x="223.592389" xlink:href="#m651084814e" y="254.840293"/>
     <use style="fill:#bfbf00;stroke:#bfbf00;" x="244.630763" xlink:href="#m651084814e" y="254.747232"/>
    </g>
   </g>
   <g id="matplotlib.axis_1">
    <g id="xtick_1">
     <g id="line2d_1">
      <defs>
       <path d="M 0 0 
L 0 3.5 
" id="m7fd3044a70" style="stroke:#000000;stroke-width:0.8;"/>
      </defs>
      <g>
       <use style="stroke:#000000;stroke-width:0.8;" x="103.209471" xlink:href="#m7fd3044a70" y="273.312"/>
      </g>
     </g>
     <g id="text_1">
      <!-- −4 -->
      <g transform="translate(95.838377 287.910437)scale(0.1 -0.1)">
       <defs>
        <path d="M 678 2272 
L 4684 2272 
L 4684 1741 
L 678 1741 
L 678 2272 
z
" id="DejaVuSans-2212" transform="scale(0.015625)"/>
        <path d="M 2419 4116 
L 825 1625 
L 2419 1625 
L 2419 4116 
z
M 2253 4666 
L 3047 4666 
L 3047 1625 
L 3713 1625 
L 3713 1100 
L 3047 1100 
L 3047 0 
L 2419 0 
L 2419 1100 
L 313 1100 
L 313 1709 
L 2253 4666 
z
" id="DejaVuSans-34" transform="scale(0.015625)"/>
       </defs>
       <use xlink:href="#DejaVuSans-2212"/>
       <use x="83.789062" xlink:href="#DejaVuSans-34"/>
      </g>
     </g>
    </g>
    <g id="xtick_2">
     <g id="line2d_2">
      <g>
       <use style="stroke:#000000;stroke-width:0.8;" x="168.520428" xlink:href="#m7fd3044a70" y="273.312"/>
      </g>
     </g>
     <g id="text_2">
      <!-- −2 -->
      <g transform="translate(161.149334 287.910437)scale(0.1 -0.1)">
       <defs>
        <path d="M 1228 531 
L 3431 531 
L 3431 0 
L 469 0 
L 469 531 
Q 828 903 1448 1529 
Q 2069 2156 2228 2338 
Q 2531 2678 2651 2914 
Q 2772 3150 2772 3378 
Q 2772 3750 2511 3984 
Q 2250 4219 1831 4219 
Q 1534 4219 1204 4116 
Q 875 4013 500 3803 
L 500 4441 
Q 881 4594 1212 4672 
Q 1544 4750 1819 4750 
Q 2544 4750 2975 4387 
Q 3406 4025 3406 3419 
Q 3406 3131 3298 2873 
Q 3191 2616 2906 2266 
Q 2828 2175 2409 1742 
Q 1991 1309 1228 531 
z
" id="DejaVuSans-32" transform="scale(0.015625)"/>
       </defs>
       <use xlink:href="#DejaVuSans-2212"/>
       <use x="83.789062" xlink:href="#DejaVuSans-32"/>
      </g>
     </g>
    </g>
    <g id="xtick_3">
     <g id="line2d_3">
      <g>
       <use style="stroke:#000000;stroke-width:0.8;" x="233.831385" xlink:href="#m7fd3044a70" y="273.312"/>
      </g>
     </g>
     <g id="text_3">
      <!-- 0 -->
      <g transform="translate(230.650135 287.910437)scale(0.1 -0.1)">
       <defs>
        <path d="M 2034 4250 
Q 1547 4250 1301 3770 
Q 1056 3291 1056 2328 
Q 1056 1369 1301 889 
Q 1547 409 2034 409 
Q 2525 409 2770 889 
Q 3016 1369 3016 2328 
Q 3016 3291 2770 3770 
Q 2525 4250 2034 4250 
z
M 2034 4750 
Q 2819 4750 3233 4129 
Q 3647 3509 3647 2328 
Q 3647 1150 3233 529 
Q 2819 -91 2034 -91 
Q 1250 -91 836 529 
Q 422 1150 422 2328 
Q 422 3509 836 4129 
Q 1250 4750 2034 4750 
z
" id="DejaVuSans-30" transform="scale(0.015625)"/>
       </defs>
       <use xlink:href="#DejaVuSans-30"/>
      </g>
     </g>
    </g>
    <g id="xtick_4">
     <g id="line2d_4">
      <g>
       <use style="stroke:#000000;stroke-width:0.8;" x="299.142341" xlink:href="#m7fd3044a70" y="273.312"/>
      </g>
     </g>
     <g id="text_4">
      <!-- 2 -->
      <g transform="translate(295.961091 287.910437)scale(0.1 -0.1)">
       <use xlink:href="#DejaVuSans-32"/>
      </g>
     </g>
    </g>
    <g id="xtick_5">
     <g id="line2d_5">
      <g>
       <use style="stroke:#000000;stroke-width:0.8;" x="364.453298" xlink:href="#m7fd3044a70" y="273.312"/>
      </g>
     </g>
     <g id="text_5">
      <!-- 4 -->
      <g transform="translate(361.272048 287.910437)scale(0.1 -0.1)">
       <use xlink:href="#DejaVuSans-34"/>
      </g>
     </g>
    </g>
    <g id="text_6">
     <!-- x -->
     <g transform="translate(218.89125 304.627937)scale(0.14 -0.14)">
      <defs>
       <path d="M 3513 3500 
L 2247 1797 
L 3578 0 
L 2900 0 
L 1881 1375 
L 863 0 
L 184 0 
L 1544 1831 
L 300 3500 
L 978 3500 
L 1906 2253 
L 2834 3500 
L 3513 3500 
z
" id="DejaVuSans-78" transform="scale(0.015625)"/>
      </defs>
      <use xlink:href="#DejaVuSans-78"/>
     </g>
    </g>
   </g>
   <g id="matplotlib.axis_2">
    <g id="ytick_1">
     <g id="line2d_6">
      <defs>
       <path d="M 0 0 
L -3.5 0 
" id="ma3cd12eb56" style="stroke:#000000;stroke-width:0.8;"/>
      </defs>
      <g>
       <use style="stroke:#000000;stroke-width:0.8;" x="44.474375" xlink:href="#ma3cd12eb56" y="255.667827"/>
      </g>
     </g>
     <g id="text_7">
      <!-- 5 -->
      <g transform="translate(31.111875 259.467046)scale(0.1 -0.1)">
       <defs>
        <path d="M 691 4666 
L 3169 4666 
L 3169 4134 
L 1269 4134 
L 1269 2991 
Q 1406 3038 1543 3061 
Q 1681 3084 1819 3084 
Q 2600 3084 3056 2656 
Q 3513 2228 3513 1497 
Q 3513 744 3044 326 
Q 2575 -91 1722 -91 
Q 1428 -91 1123 -41 
Q 819 9 494 109 
L 494 744 
Q 775 591 1075 516 
Q 1375 441 1709 441 
Q 2250 441 2565 725 
Q 2881 1009 2881 1497 
Q 2881 1984 2565 2268 
Q 2250 2553 1709 2553 
Q 1456 2553 1204 2497 
Q 953 2441 691 2322 
L 691 4666 
z
" id="DejaVuSans-35" transform="scale(0.015625)"/>
       </defs>
       <use xlink:href="#DejaVuSans-35"/>
      </g>
     </g>
    </g>
    <g id="ytick_2">
     <g id="line2d_7">
      <g>
       <use style="stroke:#000000;stroke-width:0.8;" x="44.474375" xlink:href="#ma3cd12eb56" y="213.5803"/>
      </g>
     </g>
     <g id="text_8">
      <!-- 10 -->
      <g transform="translate(24.749375 217.379519)scale(0.1 -0.1)">
       <defs>
        <path d="M 794 531 
L 1825 531 
L 1825 4091 
L 703 3866 
L 703 4441 
L 1819 4666 
L 2450 4666 
L 2450 531 
L 3481 531 
L 3481 0 
L 794 0 
L 794 531 
z
" id="DejaVuSans-31" transform="scale(0.015625)"/>
       </defs>
       <use xlink:href="#DejaVuSans-31"/>
       <use x="63.623047" xlink:href="#DejaVuSans-30"/>
      </g>
     </g>
    </g>
    <g id="ytick_3">
     <g id="line2d_8">
      <g>
       <use style="stroke:#000000;stroke-width:0.8;" x="44.474375" xlink:href="#ma3cd12eb56" y="171.492774"/>
      </g>
     </g>
     <g id="text_9">
      <!-- 15 -->
      <g transform="translate(24.749375 175.291993)scale(0.1 -0.1)">
       <use xlink:href="#DejaVuSans-31"/>
       <use x="63.623047" xlink:href="#DejaVuSans-35"/>
      </g>
     </g>
    </g>
    <g id="ytick_4">
     <g id="line2d_9">
      <g>
       <use style="stroke:#000000;stroke-width:0.8;" x="44.474375" xlink:href="#ma3cd12eb56" y="129.405247"/>
      </g>
     </g>
     <g id="text_10">
      <!-- 20 -->
      <g transform="translate(24.749375 133.204466)scale(0.1 -0.1)">
       <use xlink:href="#DejaVuSans-32"/>
       <use x="63.623047" xlink:href="#DejaVuSans-30"/>
      </g>
     </g>
    </g>
    <g id="ytick_5">
     <g id="line2d_10">
      <g>
       <use style="stroke:#000000;stroke-width:0.8;" x="44.474375" xlink:href="#ma3cd12eb56" y="87.31772"/>
      </g>
     </g>
     <g id="text_11">
      <!-- 25 -->
      <g transform="translate(24.749375 91.116939)scale(0.1 -0.1)">
       <use xlink:href="#DejaVuSans-32"/>
       <use x="63.623047" xlink:href="#DejaVuSans-35"/>
      </g>
     </g>
    </g>
    <g id="ytick_6">
     <g id="line2d_11">
      <g>
       <use style="stroke:#000000;stroke-width:0.8;" x="44.474375" xlink:href="#ma3cd12eb56" y="45.230194"/>
      </g>
     </g>
     <g id="text_12">
      <!-- 30 -->
      <g transform="translate(24.749375 49.029413)scale(0.1 -0.1)">
       <defs>
        <path d="M 2597 2516 
Q 3050 2419 3304 2112 
Q 3559 1806 3559 1356 
Q 3559 666 3084 287 
Q 2609 -91 1734 -91 
Q 1441 -91 1130 -33 
Q 819 25 488 141 
L 488 750 
Q 750 597 1062 519 
Q 1375 441 1716 441 
Q 2309 441 2620 675 
Q 2931 909 2931 1356 
Q 2931 1769 2642 2001 
Q 2353 2234 1838 2234 
L 1294 2234 
L 1294 2753 
L 1863 2753 
Q 2328 2753 2575 2939 
Q 2822 3125 2822 3475 
Q 2822 3834 2567 4026 
Q 2313 4219 1838 4219 
Q 1578 4219 1281 4162 
Q 984 4106 628 3988 
L 628 4550 
Q 988 4650 1302 4700 
Q 1616 4750 1894 4750 
Q 2613 4750 3031 4423 
Q 3450 4097 3450 3541 
Q 3450 3153 3228 2886 
Q 3006 2619 2597 2516 
z
" id="DejaVuSans-33" transform="scale(0.015625)"/>
       </defs>
       <use xlink:href="#DejaVuSans-33"/>
       <use x="63.623047" xlink:href="#DejaVuSans-30"/>
      </g>
     </g>
    </g>
    <g id="text_13">
     <!-- y -->
     <g transform="translate(17.837812 144.399125)rotate(-90)scale(0.14 -0.14)">
      <defs>
       <path d="M 2059 -325 
Q 1816 -950 1584 -1140 
Q 1353 -1331 966 -1331 
L 506 -1331 
L 506 -850 
L 844 -850 
Q 1081 -850 1212 -737 
Q 1344 -625 1503 -206 
L 1606 56 
L 191 3500 
L 800 3500 
L 1894 763 
L 2988 3500 
L 3597 3500 
L 2059 -325 
z
" id="DejaVuSans-79" transform="scale(0.015625)"/>
      </defs>
      <use xlink:href="#DejaVuSans-79"/>
     </g>
    </g>
   </g>
   <g id="patch_3">
    <path d="M 44.474375 273.312 
L 44.474375 7.2 
" style="fill:none;stroke:#000000;stroke-linecap:square;stroke-linejoin:miter;stroke-width:0.8;"/>
   </g>
   <g id="patch_4">
    <path d="M 401.594375 273.312 
L 401.594375 7.2 
" style="fill:none;stroke:#000000;stroke-linecap:square;stroke-linejoin:miter;stroke-width:0.8;"/>
   </g>
   <g id="patch_5">
    <path d="M 44.474375 273.312 
L 401.594375 273.312 
" style="fill:none;stroke:#000000;stroke-linecap:square;stroke-linejoin:miter;stroke-width:0.8;"/>
   </g>
   <g id="patch_6">
    <path d="M 44.474375 7.2 
L 401.594375 7.2 
" style="fill:none;stroke:#000000;stroke-linecap:square;stroke-linejoin:miter;stroke-width:0.8;"/>
   </g>
   <g id="legend_1">
    <g id="patch_7">
     <path d="M 263.20625 69.64125 
L 393.194375 69.64125 
Q 395.594375 69.64125 395.594375 67.24125 
L 395.594375 15.6 
Q 395.594375 13.2 393.194375 13.2 
L 263.20625 13.2 
Q 260.80625 13.2 260.80625 15.6 
L 260.80625 67.24125 
Q 260.80625 69.64125 263.20625 69.64125 
z
" style="fill:#ffffff;opacity:0.8;stroke:#cccccc;stroke-linejoin:miter;"/>
    </g>
    <g id="PathCollection_5">
     <g>
      <use style="stroke:#000000;stroke-width:1.5;" x="277.60625" xlink:href="#mdee58ac6a1" y="23.968125"/>
     </g>
    </g>
    <g id="text_14">
     <!-- Source Domain -->
     <g transform="translate(299.20625 27.118125)scale(0.12 -0.12)">
      <defs>
       <path d="M 3425 4513 
L 3425 3897 
Q 3066 4069 2747 4153 
Q 2428 4238 2131 4238 
Q 1616 4238 1336 4038 
Q 1056 3838 1056 3469 
Q 1056 3159 1242 3001 
Q 1428 2844 1947 2747 
L 2328 2669 
Q 3034 2534 3370 2195 
Q 3706 1856 3706 1288 
Q 3706 609 3251 259 
Q 2797 -91 1919 -91 
Q 1588 -91 1214 -16 
Q 841 59 441 206 
L 441 856 
Q 825 641 1194 531 
Q 1563 422 1919 422 
Q 2459 422 2753 634 
Q 3047 847 3047 1241 
Q 3047 1584 2836 1778 
Q 2625 1972 2144 2069 
L 1759 2144 
Q 1053 2284 737 2584 
Q 422 2884 422 3419 
Q 422 4038 858 4394 
Q 1294 4750 2059 4750 
Q 2388 4750 2728 4690 
Q 3069 4631 3425 4513 
z
" id="DejaVuSans-53" transform="scale(0.015625)"/>
       <path d="M 1959 3097 
Q 1497 3097 1228 2736 
Q 959 2375 959 1747 
Q 959 1119 1226 758 
Q 1494 397 1959 397 
Q 2419 397 2687 759 
Q 2956 1122 2956 1747 
Q 2956 2369 2687 2733 
Q 2419 3097 1959 3097 
z
M 1959 3584 
Q 2709 3584 3137 3096 
Q 3566 2609 3566 1747 
Q 3566 888 3137 398 
Q 2709 -91 1959 -91 
Q 1206 -91 779 398 
Q 353 888 353 1747 
Q 353 2609 779 3096 
Q 1206 3584 1959 3584 
z
" id="DejaVuSans-6f" transform="scale(0.015625)"/>
       <path d="M 544 1381 
L 544 3500 
L 1119 3500 
L 1119 1403 
Q 1119 906 1312 657 
Q 1506 409 1894 409 
Q 2359 409 2629 706 
Q 2900 1003 2900 1516 
L 2900 3500 
L 3475 3500 
L 3475 0 
L 2900 0 
L 2900 538 
Q 2691 219 2414 64 
Q 2138 -91 1772 -91 
Q 1169 -91 856 284 
Q 544 659 544 1381 
z
M 1991 3584 
L 1991 3584 
z
" id="DejaVuSans-75" transform="scale(0.015625)"/>
       <path d="M 2631 2963 
Q 2534 3019 2420 3045 
Q 2306 3072 2169 3072 
Q 1681 3072 1420 2755 
Q 1159 2438 1159 1844 
L 1159 0 
L 581 0 
L 581 3500 
L 1159 3500 
L 1159 2956 
Q 1341 3275 1631 3429 
Q 1922 3584 2338 3584 
Q 2397 3584 2469 3576 
Q 2541 3569 2628 3553 
L 2631 2963 
z
" id="DejaVuSans-72" transform="scale(0.015625)"/>
       <path d="M 3122 3366 
L 3122 2828 
Q 2878 2963 2633 3030 
Q 2388 3097 2138 3097 
Q 1578 3097 1268 2742 
Q 959 2388 959 1747 
Q 959 1106 1268 751 
Q 1578 397 2138 397 
Q 2388 397 2633 464 
Q 2878 531 3122 666 
L 3122 134 
Q 2881 22 2623 -34 
Q 2366 -91 2075 -91 
Q 1284 -91 818 406 
Q 353 903 353 1747 
Q 353 2603 823 3093 
Q 1294 3584 2113 3584 
Q 2378 3584 2631 3529 
Q 2884 3475 3122 3366 
z
" id="DejaVuSans-63" transform="scale(0.015625)"/>
       <path d="M 3597 1894 
L 3597 1613 
L 953 1613 
Q 991 1019 1311 708 
Q 1631 397 2203 397 
Q 2534 397 2845 478 
Q 3156 559 3463 722 
L 3463 178 
Q 3153 47 2828 -22 
Q 2503 -91 2169 -91 
Q 1331 -91 842 396 
Q 353 884 353 1716 
Q 353 2575 817 3079 
Q 1281 3584 2069 3584 
Q 2775 3584 3186 3129 
Q 3597 2675 3597 1894 
z
M 3022 2063 
Q 3016 2534 2758 2815 
Q 2500 3097 2075 3097 
Q 1594 3097 1305 2825 
Q 1016 2553 972 2059 
L 3022 2063 
z
" id="DejaVuSans-65" transform="scale(0.015625)"/>
       <path id="DejaVuSans-20" transform="scale(0.015625)"/>
       <path d="M 1259 4147 
L 1259 519 
L 2022 519 
Q 2988 519 3436 956 
Q 3884 1394 3884 2338 
Q 3884 3275 3436 3711 
Q 2988 4147 2022 4147 
L 1259 4147 
z
M 628 4666 
L 1925 4666 
Q 3281 4666 3915 4102 
Q 4550 3538 4550 2338 
Q 4550 1131 3912 565 
Q 3275 0 1925 0 
L 628 0 
L 628 4666 
z
" id="DejaVuSans-44" transform="scale(0.015625)"/>
       <path d="M 3328 2828 
Q 3544 3216 3844 3400 
Q 4144 3584 4550 3584 
Q 5097 3584 5394 3201 
Q 5691 2819 5691 2113 
L 5691 0 
L 5113 0 
L 5113 2094 
Q 5113 2597 4934 2840 
Q 4756 3084 4391 3084 
Q 3944 3084 3684 2787 
Q 3425 2491 3425 1978 
L 3425 0 
L 2847 0 
L 2847 2094 
Q 2847 2600 2669 2842 
Q 2491 3084 2119 3084 
Q 1678 3084 1418 2786 
Q 1159 2488 1159 1978 
L 1159 0 
L 581 0 
L 581 3500 
L 1159 3500 
L 1159 2956 
Q 1356 3278 1631 3431 
Q 1906 3584 2284 3584 
Q 2666 3584 2933 3390 
Q 3200 3197 3328 2828 
z
" id="DejaVuSans-6d" transform="scale(0.015625)"/>
       <path d="M 2194 1759 
Q 1497 1759 1228 1600 
Q 959 1441 959 1056 
Q 959 750 1161 570 
Q 1363 391 1709 391 
Q 2188 391 2477 730 
Q 2766 1069 2766 1631 
L 2766 1759 
L 2194 1759 
z
M 3341 1997 
L 3341 0 
L 2766 0 
L 2766 531 
Q 2569 213 2275 61 
Q 1981 -91 1556 -91 
Q 1019 -91 701 211 
Q 384 513 384 1019 
Q 384 1609 779 1909 
Q 1175 2209 1959 2209 
L 2766 2209 
L 2766 2266 
Q 2766 2663 2505 2880 
Q 2244 3097 1772 3097 
Q 1472 3097 1187 3025 
Q 903 2953 641 2809 
L 641 3341 
Q 956 3463 1253 3523 
Q 1550 3584 1831 3584 
Q 2591 3584 2966 3190 
Q 3341 2797 3341 1997 
z
" id="DejaVuSans-61" transform="scale(0.015625)"/>
       <path d="M 603 3500 
L 1178 3500 
L 1178 0 
L 603 0 
L 603 3500 
z
M 603 4863 
L 1178 4863 
L 1178 4134 
L 603 4134 
L 603 4863 
z
" id="DejaVuSans-69" transform="scale(0.015625)"/>
       <path d="M 3513 2113 
L 3513 0 
L 2938 0 
L 2938 2094 
Q 2938 2591 2744 2837 
Q 2550 3084 2163 3084 
Q 1697 3084 1428 2787 
Q 1159 2491 1159 1978 
L 1159 0 
L 581 0 
L 581 3500 
L 1159 3500 
L 1159 2956 
Q 1366 3272 1645 3428 
Q 1925 3584 2291 3584 
Q 2894 3584 3203 3211 
Q 3513 2838 3513 2113 
z
" id="DejaVuSans-6e" transform="scale(0.015625)"/>
      </defs>
      <use xlink:href="#DejaVuSans-53"/>
      <use x="63.476562" xlink:href="#DejaVuSans-6f"/>
      <use x="124.658203" xlink:href="#DejaVuSans-75"/>
      <use x="188.037109" xlink:href="#DejaVuSans-72"/>
      <use x="226.900391" xlink:href="#DejaVuSans-63"/>
      <use x="281.880859" xlink:href="#DejaVuSans-65"/>
      <use x="343.404297" xlink:href="#DejaVuSans-20"/>
      <use x="375.191406" xlink:href="#DejaVuSans-44"/>
      <use x="452.193359" xlink:href="#DejaVuSans-6f"/>
      <use x="513.375" xlink:href="#DejaVuSans-6d"/>
      <use x="610.787109" xlink:href="#DejaVuSans-61"/>
      <use x="672.066406" xlink:href="#DejaVuSans-69"/>
      <use x="699.849609" xlink:href="#DejaVuSans-6e"/>
     </g>
    </g>
    <g id="PathCollection_6">
     <g>
      <use style="fill:#ff0000;stroke:#ff0000;stroke-width:1.5;" x="277.60625" xlink:href="#med0847b383" y="41.581875"/>
     </g>
    </g>
    <g id="text_15">
     <!-- Target Domain -->
     <g transform="translate(299.20625 44.731875)scale(0.12 -0.12)">
      <defs>
       <path d="M -19 4666 
L 3928 4666 
L 3928 4134 
L 2272 4134 
L 2272 0 
L 1638 0 
L 1638 4134 
L -19 4134 
L -19 4666 
z
" id="DejaVuSans-54" transform="scale(0.015625)"/>
       <path d="M 2906 1791 
Q 2906 2416 2648 2759 
Q 2391 3103 1925 3103 
Q 1463 3103 1205 2759 
Q 947 2416 947 1791 
Q 947 1169 1205 825 
Q 1463 481 1925 481 
Q 2391 481 2648 825 
Q 2906 1169 2906 1791 
z
M 3481 434 
Q 3481 -459 3084 -895 
Q 2688 -1331 1869 -1331 
Q 1566 -1331 1297 -1286 
Q 1028 -1241 775 -1147 
L 775 -588 
Q 1028 -725 1275 -790 
Q 1522 -856 1778 -856 
Q 2344 -856 2625 -561 
Q 2906 -266 2906 331 
L 2906 616 
Q 2728 306 2450 153 
Q 2172 0 1784 0 
Q 1141 0 747 490 
Q 353 981 353 1791 
Q 353 2603 747 3093 
Q 1141 3584 1784 3584 
Q 2172 3584 2450 3431 
Q 2728 3278 2906 2969 
L 2906 3500 
L 3481 3500 
L 3481 434 
z
" id="DejaVuSans-67" transform="scale(0.015625)"/>
       <path d="M 1172 4494 
L 1172 3500 
L 2356 3500 
L 2356 3053 
L 1172 3053 
L 1172 1153 
Q 1172 725 1289 603 
Q 1406 481 1766 481 
L 2356 481 
L 2356 0 
L 1766 0 
Q 1100 0 847 248 
Q 594 497 594 1153 
L 594 3053 
L 172 3053 
L 172 3500 
L 594 3500 
L 594 4494 
L 1172 4494 
z
" id="DejaVuSans-74" transform="scale(0.015625)"/>
      </defs>
      <use xlink:href="#DejaVuSans-54"/>
      <use x="44.583984" xlink:href="#DejaVuSans-61"/>
      <use x="105.863281" xlink:href="#DejaVuSans-72"/>
      <use x="145.226562" xlink:href="#DejaVuSans-67"/>
      <use x="208.703125" xlink:href="#DejaVuSans-65"/>
      <use x="270.226562" xlink:href="#DejaVuSans-74"/>
      <use x="309.435547" xlink:href="#DejaVuSans-20"/>
      <use x="341.222656" xlink:href="#DejaVuSans-44"/>
      <use x="418.224609" xlink:href="#DejaVuSans-6f"/>
      <use x="479.40625" xlink:href="#DejaVuSans-6d"/>
      <use x="576.818359" xlink:href="#DejaVuSans-61"/>
      <use x="638.097656" xlink:href="#DejaVuSans-69"/>
      <use x="665.880859" xlink:href="#DejaVuSans-6e"/>
     </g>
    </g>
    <g id="PathCollection_7">
     <g>
      <use style="fill:#bfbf00;stroke:#bfbf00;" x="277.60625" xlink:href="#m651084814e" y="59.195625"/>
     </g>
    </g>
    <g id="text_16">
     <!-- Test Data -->
     <g transform="translate(299.20625 62.345625)scale(0.12 -0.12)">
      <defs>
       <path d="M 2834 3397 
L 2834 2853 
Q 2591 2978 2328 3040 
Q 2066 3103 1784 3103 
Q 1356 3103 1142 2972 
Q 928 2841 928 2578 
Q 928 2378 1081 2264 
Q 1234 2150 1697 2047 
L 1894 2003 
Q 2506 1872 2764 1633 
Q 3022 1394 3022 966 
Q 3022 478 2636 193 
Q 2250 -91 1575 -91 
Q 1294 -91 989 -36 
Q 684 19 347 128 
L 347 722 
Q 666 556 975 473 
Q 1284 391 1588 391 
Q 1994 391 2212 530 
Q 2431 669 2431 922 
Q 2431 1156 2273 1281 
Q 2116 1406 1581 1522 
L 1381 1569 
Q 847 1681 609 1914 
Q 372 2147 372 2553 
Q 372 3047 722 3315 
Q 1072 3584 1716 3584 
Q 2034 3584 2315 3537 
Q 2597 3491 2834 3397 
z
" id="DejaVuSans-73" transform="scale(0.015625)"/>
      </defs>
      <use xlink:href="#DejaVuSans-54"/>
      <use x="44.083984" xlink:href="#DejaVuSans-65"/>
      <use x="105.607422" xlink:href="#DejaVuSans-73"/>
      <use x="157.707031" xlink:href="#DejaVuSans-74"/>
      <use x="196.916016" xlink:href="#DejaVuSans-20"/>
      <use x="228.703125" xlink:href="#DejaVuSans-44"/>
      <use x="305.705078" xlink:href="#DejaVuSans-61"/>
      <use x="366.984375" xlink:href="#DejaVuSans-74"/>
      <use x="406.193359" xlink:href="#DejaVuSans-61"/>
     </g>
    </g>
   </g>
  </g>
 </g>
 <defs>
  <clipPath id="pa90c6a443e">
   <rect height="266.112" width="357.12" x="44.474375" y="7.2"/>
  </clipPath>
 </defs>
</svg>
