<?xml version="1.0" encoding="utf-8" standalone="no"?>
<!DOCTYPE svg PUBLIC "-//W3C//DTD SVG 1.1//EN"
  "http://www.w3.org/Graphics/SVG/1.1/DTD/svg11.dtd">
<svg xmlns:xlink="http://www.w3.org/1999/xlink" width="408.794375pt" height="314.7395pt" viewBox="0 0 408.794375 314.7395" xmlns="http://www.w3.org/2000/svg" version="1.1">
 <metadata>
  <rdf:RDF xmlns:dc="http://purl.org/dc/elements/1.1/" xmlns:cc="http://creativecommons.org/ns#" xmlns:rdf="http://www.w3.org/1999/02/22-rdf-syntax-ns#">
   <cc:Work>
    <dc:type rdf:resource="http://purl.org/dc/dcmitype/StillImage"/>
    <dc:date>2023-05-15T17:48:14.016693</dc:date>
    <dc:format>image/svg+xml</dc:format>
    <dc:creator>
     <cc:Agent>
      <dc:title>Matplotlib v3.7.1, https://matplotlib.org/</dc:title>
     </cc:Agent>
    </dc:creator>
   </cc:Work>
  </rdf:RDF>
 </metadata>
 <defs>
  <style type="text/css">*{stroke-linejoin: round; stroke-linecap: butt}</style>
 </defs>
 <g id="figure_1">
  <g id="patch_1">
   <path d="M 0 314.7395 
L 408.794375 314.7395 
L 408.794375 0 
L 0 0 
z
" style="fill: #ffffff"/>
  </g>
  <g id="axes_1">
   <g id="patch_2">
    <path d="M 44.474375 273.312 
L 401.594375 273.312 
L 401.594375 7.2 
L 44.474375 7.2 
z
" style="fill: #ffffff"/>
   </g>
   <g id="PathCollection_1">
    <defs>
     <path id="mf4107564c5" d="M -2.236068 2.236068 
L 2.236068 -2.236068 
M -2.236068 -2.236068 
L 2.236068 2.236068 
" style="stroke: #000000; stroke-width: 1.5"/>
    </defs>
    <g clip-path="url(#p09e93a2311)">
     <use xlink:href="#mf4107564c5" x="188.908724" y="251.38244" style="stroke: #000000; stroke-width: 1.5"/>
     <use xlink:href="#mf4107564c5" x="115.887751" y="152.542635" style="stroke: #000000; stroke-width: 1.5"/>
     <use xlink:href="#mf4107564c5" x="118.617248" y="162.455315" style="stroke: #000000; stroke-width: 1.5"/>
     <use xlink:href="#mf4107564c5" x="100.826646" y="130.258259" style="stroke: #000000; stroke-width: 1.5"/>
     <use xlink:href="#mf4107564c5" x="164.12525" y="228.614029" style="stroke: #000000; stroke-width: 1.5"/>
     <use xlink:href="#mf4107564c5" x="60.707102" y="19.296" style="stroke: #000000; stroke-width: 1.5"/>
     <use xlink:href="#mf4107564c5" x="192.842612" y="261.216" style="stroke: #000000; stroke-width: 1.5"/>
     <use xlink:href="#mf4107564c5" x="111.007374" y="132.641704" style="stroke: #000000; stroke-width: 1.5"/>
     <use xlink:href="#mf4107564c5" x="146.283324" y="167.223788" style="stroke: #000000; stroke-width: 1.5"/>
     <use xlink:href="#mf4107564c5" x="127.721641" y="154.300051" style="stroke: #000000; stroke-width: 1.5"/>
     <use xlink:href="#mf4107564c5" x="183.610784" y="238.989038" style="stroke: #000000; stroke-width: 1.5"/>
     <use xlink:href="#mf4107564c5" x="68.590069" y="55.080644" style="stroke: #000000; stroke-width: 1.5"/>
     <use xlink:href="#mf4107564c5" x="125.336261" y="175.329982" style="stroke: #000000; stroke-width: 1.5"/>
     <use xlink:href="#mf4107564c5" x="123.323471" y="130.779547" style="stroke: #000000; stroke-width: 1.5"/>
     <use xlink:href="#mf4107564c5" x="172.888733" y="225.495852" style="stroke: #000000; stroke-width: 1.5"/>
     <use xlink:href="#mf4107564c5" x="99.947474" y="124.900896" style="stroke: #000000; stroke-width: 1.5"/>
     <use xlink:href="#mf4107564c5" x="130.234224" y="167.737458" style="stroke: #000000; stroke-width: 1.5"/>
     <use xlink:href="#mf4107564c5" x="107.198063" y="93.729366" style="stroke: #000000; stroke-width: 1.5"/>
     <use xlink:href="#mf4107564c5" x="137.24346" y="180.004408" style="stroke: #000000; stroke-width: 1.5"/>
     <use xlink:href="#mf4107564c5" x="154.897059" y="196.095555" style="stroke: #000000; stroke-width: 1.5"/>
     <use xlink:href="#mf4107564c5" x="99.923704" y="109.073451" style="stroke: #000000; stroke-width: 1.5"/>
     <use xlink:href="#mf4107564c5" x="173.24645" y="232.624482" style="stroke: #000000; stroke-width: 1.5"/>
     <use xlink:href="#mf4107564c5" x="165.306826" y="237.837151" style="stroke: #000000; stroke-width: 1.5"/>
     <use xlink:href="#mf4107564c5" x="152.274142" y="209.044535" style="stroke: #000000; stroke-width: 1.5"/>
     <use xlink:href="#mf4107564c5" x="165.282831" y="222.09362" style="stroke: #000000; stroke-width: 1.5"/>
     <use xlink:href="#mf4107564c5" x="113.537489" y="131.567727" style="stroke: #000000; stroke-width: 1.5"/>
     <use xlink:href="#mf4107564c5" x="131.85191" y="159.452288" style="stroke: #000000; stroke-width: 1.5"/>
     <use xlink:href="#mf4107564c5" x="105.306951" y="109.60319" style="stroke: #000000; stroke-width: 1.5"/>
     <use xlink:href="#mf4107564c5" x="127.116936" y="160.968643" style="stroke: #000000; stroke-width: 1.5"/>
     <use xlink:href="#mf4107564c5" x="153.183961" y="189.426888" style="stroke: #000000; stroke-width: 1.5"/>
    </g>
   </g>
   <g id="PathCollection_2">
    <path d="M 188.908724 254.544718 
C 189.74737 254.544718 190.55178 254.21152 191.144792 253.618508 
C 191.737804 253.025496 192.071002 252.221086 192.071002 251.38244 
C 192.071002 250.543794 191.737804 249.739384 191.144792 249.146372 
C 190.55178 248.55336 189.74737 248.220162 188.908724 248.220162 
C 188.070079 248.220162 187.265669 248.55336 186.672656 249.146372 
C 186.079644 249.739384 185.746447 250.543794 185.746447 251.38244 
C 185.746447 252.221086 186.079644 253.025496 186.672656 253.618508 
C 187.265669 254.21152 188.070079 254.544718 188.908724 254.544718 
z
" clip-path="url(#p09e93a2311)" style="fill: #00ffff; fill-opacity: 0.5; stroke: #00ffff; stroke-opacity: 0.5"/>
    <path d="M 115.887751 152.543163 
C 115.887891 152.543163 115.888026 152.543108 115.888125 152.543008 
C 115.888224 152.542909 115.88828 152.542775 115.88828 152.542635 
C 115.88828 152.542495 115.888224 152.54236 115.888125 152.542261 
C 115.888026 152.542162 115.887891 152.542106 115.887751 152.542106 
C 115.887611 152.542106 115.887477 152.542162 115.887377 152.542261 
C 115.887278 152.54236 115.887223 152.542495 115.887223 152.542635 
C 115.887223 152.542775 115.887278 152.542909 115.887377 152.543008 
C 115.887477 152.543108 115.887611 152.543163 115.887751 152.543163 
z
" clip-path="url(#p09e93a2311)" style="fill: #00ffff; fill-opacity: 0.5; stroke: #00ffff; stroke-opacity: 0.5"/>
    <path d="M 118.617248 162.455849 
C 118.61739 162.455849 118.617526 162.455793 118.617626 162.455693 
C 118.617726 162.455593 118.617783 162.455457 118.617783 162.455315 
C 118.617783 162.455173 118.617726 162.455037 118.617626 162.454937 
C 118.617526 162.454837 118.61739 162.45478 118.617248 162.45478 
C 118.617106 162.45478 118.61697 162.454837 118.61687 162.454937 
C 118.61677 162.455037 118.616714 162.455173 118.616714 162.455315 
C 118.616714 162.455457 118.61677 162.455593 118.61687 162.455693 
C 118.61697 162.455793 118.617106 162.455849 118.617248 162.455849 
z
" clip-path="url(#p09e93a2311)" style="fill: #00ffff; fill-opacity: 0.5; stroke: #00ffff; stroke-opacity: 0.5"/>
    <path d="M 100.826646 130.258786 
C 100.826786 130.258786 100.82692 130.258731 100.827019 130.258632 
C 100.827117 130.258533 100.827173 130.258399 100.827173 130.258259 
C 100.827173 130.25812 100.827117 130.257985 100.827019 130.257887 
C 100.82692 130.257788 100.826786 130.257732 100.826646 130.257732 
C 100.826506 130.257732 100.826372 130.257788 100.826273 130.257887 
C 100.826174 130.257985 100.826119 130.25812 100.826119 130.258259 
C 100.826119 130.258399 100.826174 130.258533 100.826273 130.258632 
C 100.826372 130.258731 100.826506 130.258786 100.826646 130.258786 
z
" clip-path="url(#p09e93a2311)" style="fill: #00ffff; fill-opacity: 0.5; stroke: #00ffff; stroke-opacity: 0.5"/>
    <path d="M 164.12525 231.776307 
C 164.963895 231.776307 165.768305 231.44311 166.361318 230.850097 
C 166.95433 230.257085 167.287527 229.452675 167.287527 228.614029 
C 167.287527 227.775384 166.95433 226.970974 166.361318 226.377962 
C 165.768305 225.784949 164.963895 225.451752 164.12525 225.451752 
C 163.286604 225.451752 162.482194 225.784949 161.889182 226.377962 
C 161.296169 226.970974 160.962972 227.775384 160.962972 228.614029 
C 160.962972 229.452675 161.296169 230.257085 161.889182 230.850097 
C 162.482194 231.44311 163.286604 231.776307 164.12525 231.776307 
z
" clip-path="url(#p09e93a2311)" style="fill: #00ffff; fill-opacity: 0.5; stroke: #00ffff; stroke-opacity: 0.5"/>
    <path d="M 60.707102 22.458277 
C 61.545748 22.458277 62.350158 22.125079 62.943169 21.532067 
C 63.536181 20.939055 63.869379 20.134646 63.869379 19.296 
C 63.869379 18.457354 63.536181 17.652945 62.943169 17.059933 
C 62.350158 16.466921 61.545748 16.133723 60.707102 16.133723 
C 59.868457 16.133723 59.064047 16.466921 58.471035 17.059933 
C 57.878023 17.652945 57.544826 18.457354 57.544826 19.296 
C 57.544826 20.134646 57.878023 20.939055 58.471035 21.532067 
C 59.064047 22.125079 59.868457 22.458277 60.707102 22.458277 
z
" clip-path="url(#p09e93a2311)" style="fill: #00ffff; fill-opacity: 0.5; stroke: #00ffff; stroke-opacity: 0.5"/>
    <path d="M 192.842612 264.378278 
C 193.681258 264.378278 194.485668 264.04508 195.07868 263.452068 
C 195.671692 262.859056 196.00489 262.054646 196.00489 261.216 
C 196.00489 260.377354 195.671692 259.572944 195.07868 258.979932 
C 194.485668 258.38692 193.681258 258.053722 192.842612 258.053722 
C 192.003966 258.053722 191.199557 258.38692 190.606544 258.979932 
C 190.013532 259.572944 189.680335 260.377354 189.680335 261.216 
C 189.680335 262.054646 190.013532 262.859056 190.606544 263.452068 
C 191.199557 264.04508 192.003966 264.378278 192.842612 264.378278 
z
" clip-path="url(#p09e93a2311)" style="fill: #00ffff; fill-opacity: 0.5; stroke: #00ffff; stroke-opacity: 0.5"/>
    <path d="M 111.007374 132.642227 
C 111.007512 132.642227 111.007645 132.642172 111.007743 132.642074 
C 111.007841 132.641976 111.007896 132.641843 111.007896 132.641704 
C 111.007896 132.641566 111.007841 132.641433 111.007743 132.641335 
C 111.007645 132.641237 111.007512 132.641182 111.007374 132.641182 
C 111.007235 132.641182 111.007103 132.641237 111.007005 132.641335 
C 111.006907 132.641433 111.006852 132.641566 111.006852 132.641704 
C 111.006852 132.641843 111.006907 132.641976 111.007005 132.642074 
C 111.007103 132.642172 111.007235 132.642227 111.007374 132.642227 
z
" clip-path="url(#p09e93a2311)" style="fill: #00ffff; fill-opacity: 0.5; stroke: #00ffff; stroke-opacity: 0.5"/>
    <path d="M 146.283324 167.225736 
C 146.28384 167.225736 146.284336 167.225531 146.284701 167.225165 
C 146.285067 167.2248 146.285272 167.224304 146.285272 167.223788 
C 146.285272 167.223271 146.285067 167.222776 146.284701 167.22241 
C 146.284336 167.222045 146.28384 167.22184 146.283324 167.22184 
C 146.282807 167.22184 146.282312 167.222045 146.281946 167.22241 
C 146.281581 167.222776 146.281376 167.223271 146.281376 167.223788 
C 146.281376 167.224304 146.281581 167.2248 146.281946 167.225165 
C 146.282312 167.225531 146.282807 167.225736 146.283324 167.225736 
z
" clip-path="url(#p09e93a2311)" style="fill: #00ffff; fill-opacity: 0.5; stroke: #00ffff; stroke-opacity: 0.5"/>
    <path d="M 127.721641 154.300625 
C 127.721793 154.300625 127.721939 154.300565 127.722046 154.300457 
C 127.722154 154.300349 127.722214 154.300204 127.722214 154.300051 
C 127.722214 154.299899 127.722154 154.299753 127.722046 154.299646 
C 127.721939 154.299538 127.721793 154.299478 127.721641 154.299478 
C 127.721488 154.299478 127.721343 154.299538 127.721235 154.299646 
C 127.721127 154.299753 127.721067 154.299899 127.721067 154.300051 
C 127.721067 154.300204 127.721127 154.300349 127.721235 154.300457 
C 127.721343 154.300565 127.721488 154.300625 127.721641 154.300625 
z
" clip-path="url(#p09e93a2311)" style="fill: #00ffff; fill-opacity: 0.5; stroke: #00ffff; stroke-opacity: 0.5"/>
    <path d="M 183.610784 242.151315 
C 184.449429 242.151315 185.253839 241.818118 185.846852 241.225106 
C 186.439864 240.632094 186.773061 239.827684 186.773061 238.989038 
C 186.773061 238.150392 186.439864 237.345982 185.846852 236.75297 
C 185.253839 236.159958 184.449429 235.82676 183.610784 235.82676 
C 182.772138 235.82676 181.967728 236.159958 181.374716 236.75297 
C 180.781703 237.345982 180.448506 238.150392 180.448506 238.989038 
C 180.448506 239.827684 180.781703 240.632094 181.374716 241.225106 
C 181.967728 241.818118 182.772138 242.151315 183.610784 242.151315 
z
" clip-path="url(#p09e93a2311)" style="fill: #00ffff; fill-opacity: 0.5; stroke: #00ffff; stroke-opacity: 0.5"/>
    <path d="M 68.590069 55.082228 
C 68.590489 55.082228 68.590892 55.082061 68.591189 55.081764 
C 68.591486 55.081467 68.591653 55.081064 68.591653 55.080644 
C 68.591653 55.080224 68.591486 55.079821 68.591189 55.079524 
C 68.590892 55.079227 68.590489 55.07906 68.590069 55.07906 
C 68.589649 55.07906 68.589246 55.079227 68.588949 55.079524 
C 68.588652 55.079821 68.588485 55.080224 68.588485 55.080644 
C 68.588485 55.081064 68.588652 55.081467 68.588949 55.081764 
C 68.589246 55.082061 68.589649 55.082228 68.590069 55.082228 
z
" clip-path="url(#p09e93a2311)" style="fill: #00ffff; fill-opacity: 0.5; stroke: #00ffff; stroke-opacity: 0.5"/>
    <path d="M 125.336261 175.330542 
C 125.33641 175.330542 125.336552 175.330483 125.336657 175.330378 
C 125.336762 175.330273 125.336821 175.330131 125.336821 175.329982 
C 125.336821 175.329833 125.336762 175.329691 125.336657 175.329586 
C 125.336552 175.329481 125.33641 175.329422 125.336261 175.329422 
C 125.336113 175.329422 125.33597 175.329481 125.335865 175.329586 
C 125.33576 175.329691 125.335701 175.329833 125.335701 175.329982 
C 125.335701 175.330131 125.33576 175.330273 125.335865 175.330378 
C 125.33597 175.330483 125.336113 175.330542 125.336261 175.330542 
z
" clip-path="url(#p09e93a2311)" style="fill: #00ffff; fill-opacity: 0.5; stroke: #00ffff; stroke-opacity: 0.5"/>
    <path d="M 123.323471 130.780098 
C 123.323617 130.780098 123.323757 130.78004 123.32386 130.779937 
C 123.323963 130.779833 123.324021 130.779693 123.324021 130.779547 
C 123.324021 130.779401 123.323963 130.779261 123.32386 130.779158 
C 123.323757 130.779055 123.323617 130.778997 123.323471 130.778997 
C 123.323325 130.778997 123.323185 130.779055 123.323081 130.779158 
C 123.322978 130.779261 123.32292 130.779401 123.32292 130.779547 
C 123.32292 130.779693 123.322978 130.779833 123.323081 130.779937 
C 123.323185 130.78004 123.323325 130.780098 123.323471 130.780098 
z
" clip-path="url(#p09e93a2311)" style="fill: #00ffff; fill-opacity: 0.5; stroke: #00ffff; stroke-opacity: 0.5"/>
    <path d="M 172.888733 228.658129 
C 173.727379 228.658129 174.531789 228.324932 175.124801 227.73192 
C 175.717813 227.138907 176.051011 226.334497 176.051011 225.495852 
C 176.051011 224.657206 175.717813 223.852796 175.124801 223.259784 
C 174.531789 222.666771 173.727379 222.333574 172.888733 222.333574 
C 172.050087 222.333574 171.245677 222.666771 170.652665 223.259784 
C 170.059653 223.852796 169.726455 224.657206 169.726455 225.495852 
C 169.726455 226.334497 170.059653 227.138907 170.652665 227.73192 
C 171.245677 228.324932 172.050087 228.658129 172.888733 228.658129 
z
" clip-path="url(#p09e93a2311)" style="fill: #00ffff; fill-opacity: 0.5; stroke: #00ffff; stroke-opacity: 0.5"/>
    <path d="M 99.947474 124.901425 
C 99.947614 124.901425 99.947749 124.901369 99.947848 124.90127 
C 99.947947 124.901171 99.948002 124.901036 99.948002 124.900896 
C 99.948002 124.900756 99.947947 124.900621 99.947848 124.900522 
C 99.947749 124.900423 99.947614 124.900367 99.947474 124.900367 
C 99.947334 124.900367 99.947199 124.900423 99.9471 124.900522 
C 99.947001 124.900621 99.946945 124.900756 99.946945 124.900896 
C 99.946945 124.901036 99.947001 124.901171 99.9471 124.90127 
C 99.947199 124.901369 99.947334 124.901425 99.947474 124.901425 
z
" clip-path="url(#p09e93a2311)" style="fill: #00ffff; fill-opacity: 0.5; stroke: #00ffff; stroke-opacity: 0.5"/>
    <path d="M 130.234224 167.738049 
C 130.234381 167.738049 130.234531 167.737987 130.234642 167.737876 
C 130.234753 167.737765 130.234815 167.737615 130.234815 167.737458 
C 130.234815 167.737301 130.234753 167.737151 130.234642 167.73704 
C 130.234531 167.736929 130.234381 167.736867 130.234224 167.736867 
C 130.234067 167.736867 130.233917 167.736929 130.233806 167.73704 
C 130.233695 167.737151 130.233633 167.737301 130.233633 167.737458 
C 130.233633 167.737615 130.233695 167.737765 130.233806 167.737876 
C 130.233917 167.737987 130.234067 167.738049 130.234224 167.738049 
z
" clip-path="url(#p09e93a2311)" style="fill: #00ffff; fill-opacity: 0.5; stroke: #00ffff; stroke-opacity: 0.5"/>
    <path d="M 107.198063 93.729888 
C 107.198201 93.729888 107.198334 93.729833 107.198432 93.729735 
C 107.198529 93.729637 107.198584 93.729505 107.198584 93.729366 
C 107.198584 93.729228 107.198529 93.729095 107.198432 93.728998 
C 107.198334 93.7289 107.198201 93.728845 107.198063 93.728845 
C 107.197925 93.728845 107.197792 93.7289 107.197694 93.728998 
C 107.197596 93.729095 107.197541 93.729228 107.197541 93.729366 
C 107.197541 93.729505 107.197596 93.729637 107.197694 93.729735 
C 107.197792 93.729833 107.197925 93.729888 107.198063 93.729888 
z
" clip-path="url(#p09e93a2311)" style="fill: #00ffff; fill-opacity: 0.5; stroke: #00ffff; stroke-opacity: 0.5"/>
    <path d="M 137.24346 180.005075 
C 137.243636 180.005075 137.243806 180.005005 137.243931 180.00488 
C 137.244056 180.004755 137.244126 180.004585 137.244126 180.004408 
C 137.244126 180.004232 137.244056 180.004062 137.243931 180.003937 
C 137.243806 180.003812 137.243636 180.003742 137.24346 180.003742 
C 137.243283 180.003742 137.243113 180.003812 137.242988 180.003937 
C 137.242863 180.004062 137.242793 180.004232 137.242793 180.004408 
C 137.242793 180.004585 137.242863 180.004755 137.242988 180.00488 
C 137.243113 180.005005 137.243283 180.005075 137.24346 180.005075 
z
" clip-path="url(#p09e93a2311)" style="fill: #00ffff; fill-opacity: 0.5; stroke: #00ffff; stroke-opacity: 0.5"/>
    <path d="M 154.897059 199.257833 
C 155.735705 199.257833 156.540115 198.924635 157.133127 198.331623 
C 157.726139 197.738611 158.059337 196.934201 158.059337 196.095555 
C 158.059337 195.256909 157.726139 194.452499 157.133127 193.859487 
C 156.540115 193.266475 155.735705 192.933277 154.897059 192.933277 
C 154.058413 192.933277 153.254003 193.266475 152.660991 193.859487 
C 152.067979 194.452499 151.734782 195.256909 151.734782 196.095555 
C 151.734782 196.934201 152.067979 197.738611 152.660991 198.331623 
C 153.254003 198.924635 154.058413 199.257833 154.897059 199.257833 
z
" clip-path="url(#p09e93a2311)" style="fill: #00ffff; fill-opacity: 0.5; stroke: #00ffff; stroke-opacity: 0.5"/>
    <path d="M 99.923704 109.073979 
C 99.923844 109.073979 99.923978 109.073924 99.924077 109.073825 
C 99.924177 109.073726 99.924232 109.073591 99.924232 109.073451 
C 99.924232 109.073311 99.924177 109.073176 99.924077 109.073077 
C 99.923978 109.072978 99.923844 109.072922 99.923704 109.072922 
C 99.923564 109.072922 99.923429 109.072978 99.92333 109.073077 
C 99.923231 109.073176 99.923175 109.073311 99.923175 109.073451 
C 99.923175 109.073591 99.923231 109.073726 99.92333 109.073825 
C 99.923429 109.073924 99.923564 109.073979 99.923704 109.073979 
z
" clip-path="url(#p09e93a2311)" style="fill: #00ffff; fill-opacity: 0.5; stroke: #00ffff; stroke-opacity: 0.5"/>
    <path d="M 173.24645 235.786759 
C 174.085096 235.786759 174.889506 235.453562 175.482518 234.86055 
C 176.07553 234.267538 176.408727 233.463128 176.408727 232.624482 
C 176.408727 231.785836 176.07553 230.981426 175.482518 230.388414 
C 174.889506 229.795402 174.085096 229.462204 173.24645 229.462204 
C 172.407804 229.462204 171.603394 229.795402 171.010382 230.388414 
C 170.41737 230.981426 170.084172 231.785836 170.084172 232.624482 
C 170.084172 233.463128 170.41737 234.267538 171.010382 234.86055 
C 171.603394 235.453562 172.407804 235.786759 173.24645 235.786759 
z
" clip-path="url(#p09e93a2311)" style="fill: #00ffff; fill-opacity: 0.5; stroke: #00ffff; stroke-opacity: 0.5"/>
    <path d="M 165.306826 240.999428 
C 166.145472 240.999428 166.949882 240.666231 167.542894 240.073219 
C 168.135906 239.480207 168.469103 238.675797 168.469103 237.837151 
C 168.469103 236.998505 168.135906 236.194095 167.542894 235.601083 
C 166.949882 235.008071 166.145472 234.674873 165.306826 234.674873 
C 164.46818 234.674873 163.66377 235.008071 163.070758 235.601083 
C 162.477746 236.194095 162.144548 236.998505 162.144548 237.837151 
C 162.144548 238.675797 162.477746 239.480207 163.070758 240.073219 
C 163.66377 240.666231 164.46818 240.999428 165.306826 240.999428 
z
" clip-path="url(#p09e93a2311)" style="fill: #00ffff; fill-opacity: 0.5; stroke: #00ffff; stroke-opacity: 0.5"/>
    <path d="M 152.274142 212.206813 
C 153.112788 212.206813 153.917198 211.873615 154.51021 211.280603 
C 155.103222 210.687591 155.43642 209.883181 155.43642 209.044535 
C 155.43642 208.20589 155.103222 207.40148 154.51021 206.808468 
C 153.917198 206.215455 153.112788 205.882258 152.274142 205.882258 
C 151.435497 205.882258 150.631087 206.215455 150.038075 206.808468 
C 149.445062 207.40148 149.111865 208.20589 149.111865 209.044535 
C 149.111865 209.883181 149.445062 210.687591 150.038075 211.280603 
C 150.631087 211.873615 151.435497 212.206813 152.274142 212.206813 
z
" clip-path="url(#p09e93a2311)" style="fill: #00ffff; fill-opacity: 0.5; stroke: #00ffff; stroke-opacity: 0.5"/>
    <path d="M 165.282831 225.255897 
C 166.121477 225.255897 166.925887 224.9227 167.518899 224.329688 
C 168.111912 223.736676 168.445109 222.932266 168.445109 222.09362 
C 168.445109 221.254974 168.111912 220.450564 167.518899 219.857552 
C 166.925887 219.26454 166.121477 218.931342 165.282831 218.931342 
C 164.444186 218.931342 163.639776 219.26454 163.046763 219.857552 
C 162.453751 220.450564 162.120554 221.254974 162.120554 222.09362 
C 162.120554 222.932266 162.453751 223.736676 163.046763 224.329688 
C 163.639776 224.9227 164.444186 225.255897 165.282831 225.255897 
z
" clip-path="url(#p09e93a2311)" style="fill: #00ffff; fill-opacity: 0.5; stroke: #00ffff; stroke-opacity: 0.5"/>
    <path d="M 113.537489 131.568252 
C 113.537628 131.568252 113.537762 131.568196 113.53786 131.568098 
C 113.537959 131.567999 113.538014 131.567866 113.538014 131.567727 
C 113.538014 131.567588 113.537959 131.567454 113.53786 131.567356 
C 113.537762 131.567257 113.537628 131.567202 113.537489 131.567202 
C 113.53735 131.567202 113.537216 131.567257 113.537118 131.567356 
C 113.53702 131.567454 113.536964 131.567588 113.536964 131.567727 
C 113.536964 131.567866 113.53702 131.567999 113.537118 131.568098 
C 113.537216 131.568196 113.53735 131.568252 113.537489 131.568252 
z
" clip-path="url(#p09e93a2311)" style="fill: #00ffff; fill-opacity: 0.5; stroke: #00ffff; stroke-opacity: 0.5"/>
    <path d="M 131.85191 159.452893 
C 131.852071 159.452893 131.852224 159.452829 131.852338 159.452716 
C 131.852451 159.452603 131.852515 159.452449 131.852515 159.452288 
C 131.852515 159.452128 131.852451 159.451974 131.852338 159.451861 
C 131.852224 159.451747 131.852071 159.451684 131.85191 159.451684 
C 131.85175 159.451684 131.851596 159.451747 131.851483 159.451861 
C 131.851369 159.451974 131.851306 159.452128 131.851306 159.452288 
C 131.851306 159.452449 131.851369 159.452603 131.851483 159.452716 
C 131.851596 159.452829 131.85175 159.452893 131.85191 159.452893 
z
" clip-path="url(#p09e93a2311)" style="fill: #00ffff; fill-opacity: 0.5; stroke: #00ffff; stroke-opacity: 0.5"/>
    <path d="M 105.306951 109.603713 
C 105.307089 109.603713 105.307222 109.603658 105.30732 109.60356 
C 105.307418 109.603462 105.307473 109.603329 105.307473 109.60319 
C 105.307473 109.603052 105.307418 109.602919 105.30732 109.602821 
C 105.307222 109.602723 105.307089 109.602668 105.306951 109.602668 
C 105.306812 109.602668 105.30668 109.602723 105.306582 109.602821 
C 105.306484 109.602919 105.306429 109.603052 105.306429 109.60319 
C 105.306429 109.603329 105.306484 109.603462 105.306582 109.60356 
C 105.30668 109.603658 105.306812 109.603713 105.306951 109.603713 
z
" clip-path="url(#p09e93a2311)" style="fill: #00ffff; fill-opacity: 0.5; stroke: #00ffff; stroke-opacity: 0.5"/>
    <path d="M 127.116936 160.969213 
C 127.117087 160.969213 127.117232 160.969153 127.117339 160.969046 
C 127.117446 160.968939 127.117506 160.968794 127.117506 160.968643 
C 127.117506 160.968492 127.117446 160.968347 127.117339 160.96824 
C 127.117232 160.968134 127.117087 160.968073 127.116936 160.968073 
C 127.116785 160.968073 127.11664 160.968134 127.116533 160.96824 
C 127.116426 160.968347 127.116366 160.968492 127.116366 160.968643 
C 127.116366 160.968794 127.116426 160.968939 127.116533 160.969046 
C 127.11664 160.969153 127.116785 160.969213 127.116936 160.969213 
z
" clip-path="url(#p09e93a2311)" style="fill: #00ffff; fill-opacity: 0.5; stroke: #00ffff; stroke-opacity: 0.5"/>
    <path d="M 153.183961 192.589165 
C 154.022607 192.589165 154.827017 192.255968 155.420029 191.662956 
C 156.013041 191.069944 156.346238 190.265534 156.346238 189.426888 
C 156.346238 188.588242 156.013041 187.783832 155.420029 187.19082 
C 154.827017 186.597808 154.022607 186.26461 153.183961 186.26461 
C 152.345315 186.26461 151.540905 186.597808 150.947893 187.19082 
C 150.354881 187.783832 150.021683 188.588242 150.021683 189.426888 
C 150.021683 190.265534 150.354881 191.069944 150.947893 191.662956 
C 151.540905 192.255968 152.345315 192.589165 153.183961 192.589165 
z
" clip-path="url(#p09e93a2311)" style="fill: #00ffff; fill-opacity: 0.5; stroke: #00ffff; stroke-opacity: 0.5"/>
   </g>
   <g id="PathCollection_3">
    <defs>
     <path id="m6390ecb5bc" d="M -2.236068 2.236068 
L 2.236068 -2.236068 
M -2.236068 -2.236068 
L 2.236068 2.236068 
" style="stroke: #ff0000; stroke-width: 1.5"/>
    </defs>
    <g clip-path="url(#p09e93a2311)">
     <use xlink:href="#m6390ecb5bc" x="318.188393" y="190.212901" style="fill: #ff0000; stroke: #ff0000; stroke-width: 1.5"/>
     <use xlink:href="#m6390ecb5bc" x="329.9604" y="144.136041" style="fill: #ff0000; stroke: #ff0000; stroke-width: 1.5"/>
     <use xlink:href="#m6390ecb5bc" x="262.039314" y="248.687729" style="fill: #ff0000; stroke: #ff0000; stroke-width: 1.5"/>
     <use xlink:href="#m6390ecb5bc" x="385.361648" y="93.241436" style="fill: #ff0000; stroke: #ff0000; stroke-width: 1.5"/>
     <use xlink:href="#m6390ecb5bc" x="273.232323" y="234.33859" style="fill: #ff0000; stroke: #ff0000; stroke-width: 1.5"/>
     <use xlink:href="#m6390ecb5bc" x="304.310157" y="226.494984" style="fill: #ff0000; stroke: #ff0000; stroke-width: 1.5"/>
     <use xlink:href="#m6390ecb5bc" x="348.219653" y="152.705599" style="fill: #ff0000; stroke: #ff0000; stroke-width: 1.5"/>
     <use xlink:href="#m6390ecb5bc" x="291.132342" y="209.969053" style="fill: #ff0000; stroke: #ff0000; stroke-width: 1.5"/>
     <use xlink:href="#m6390ecb5bc" x="297.249884" y="236.511204" style="fill: #ff0000; stroke: #ff0000; stroke-width: 1.5"/>
     <use xlink:href="#m6390ecb5bc" x="302.113741" y="218.712456" style="fill: #ff0000; stroke: #ff0000; stroke-width: 1.5"/>
    </g>
   </g>
   <g id="PathCollection_4">
    <defs>
     <path id="m3f18f1d879" d="M 0 2.236068 
C 0.593012 2.236068 1.161816 2.000462 1.581139 1.581139 
C 2.000462 1.161816 2.236068 0.593012 2.236068 0 
C 2.236068 -0.593012 2.000462 -1.161816 1.581139 -1.581139 
C 1.161816 -2.000462 0.593012 -2.236068 0 -2.236068 
C -0.593012 -2.236068 -1.161816 -2.000462 -1.581139 -1.581139 
C -2.000462 -1.161816 -2.236068 -0.593012 -2.236068 0 
C -2.236068 0.593012 -2.000462 1.161816 -1.581139 1.581139 
C -1.161816 2.000462 -0.593012 2.236068 0 2.236068 
z
" style="stroke: #bfbf00"/>
    </defs>
    <g clip-path="url(#p09e93a2311)">
     <use xlink:href="#m3f18f1d879" x="217.980714" y="253.684627" style="fill: #bfbf00; stroke: #bfbf00"/>
     <use xlink:href="#m3f18f1d879" x="171.617674" y="225.115556" style="fill: #bfbf00; stroke: #bfbf00"/>
     <use xlink:href="#m3f18f1d879" x="216.64736" y="253.336941" style="fill: #bfbf00; stroke: #bfbf00"/>
     <use xlink:href="#m3f18f1d879" x="223.592389" y="254.840293" style="fill: #bfbf00; stroke: #bfbf00"/>
     <use xlink:href="#m3f18f1d879" x="244.630763" y="254.747232" style="fill: #bfbf00; stroke: #bfbf00"/>
    </g>
   </g>
   <g id="matplotlib.axis_1">
    <g id="xtick_1">
     <g id="line2d_1">
      <defs>
       <path id="m7ee6b65a8b" d="M 0 0 
L 0 3.5 
" style="stroke: #000000; stroke-width: 0.8"/>
      </defs>
      <g>
       <use xlink:href="#m7ee6b65a8b" x="103.209471" y="273.312" style="stroke: #000000; stroke-width: 0.8"/>
      </g>
     </g>
     <g id="text_1">
      <!-- −4 -->
      <g transform="translate(95.838377 287.910437) scale(0.1 -0.1)">
       <defs>
        <path id="DejaVuSans-2212" d="M 678 2272 
L 4684 2272 
L 4684 1741 
L 678 1741 
L 678 2272 
z
" transform="scale(0.015625)"/>
        <path id="DejaVuSans-34" d="M 2419 4116 
L 825 1625 
L 2419 1625 
L 2419 4116 
z
M 2253 4666 
L 3047 4666 
L 3047 1625 
L 3713 1625 
L 3713 1100 
L 3047 1100 
L 3047 0 
L 2419 0 
L 2419 1100 
L 313 1100 
L 313 1709 
L 2253 4666 
z
" transform="scale(0.015625)"/>
       </defs>
       <use xlink:href="#DejaVuSans-2212"/>
       <use xlink:href="#DejaVuSans-34" x="83.789062"/>
      </g>
     </g>
    </g>
    <g id="xtick_2">
     <g id="line2d_2">
      <g>
       <use xlink:href="#m7ee6b65a8b" x="168.520428" y="273.312" style="stroke: #000000; stroke-width: 0.8"/>
      </g>
     </g>
     <g id="text_2">
      <!-- −2 -->
      <g transform="translate(161.149334 287.910437) scale(0.1 -0.1)">
       <defs>
        <path id="DejaVuSans-32" d="M 1228 531 
L 3431 531 
L 3431 0 
L 469 0 
L 469 531 
Q 828 903 1448 1529 
Q 2069 2156 2228 2338 
Q 2531 2678 2651 2914 
Q 2772 3150 2772 3378 
Q 2772 3750 2511 3984 
Q 2250 4219 1831 4219 
Q 1534 4219 1204 4116 
Q 875 4013 500 3803 
L 500 4441 
Q 881 4594 1212 4672 
Q 1544 4750 1819 4750 
Q 2544 4750 2975 4387 
Q 3406 4025 3406 3419 
Q 3406 3131 3298 2873 
Q 3191 2616 2906 2266 
Q 2828 2175 2409 1742 
Q 1991 1309 1228 531 
z
" transform="scale(0.015625)"/>
       </defs>
       <use xlink:href="#DejaVuSans-2212"/>
       <use xlink:href="#DejaVuSans-32" x="83.789062"/>
      </g>
     </g>
    </g>
    <g id="xtick_3">
     <g id="line2d_3">
      <g>
       <use xlink:href="#m7ee6b65a8b" x="233.831385" y="273.312" style="stroke: #000000; stroke-width: 0.8"/>
      </g>
     </g>
     <g id="text_3">
      <!-- 0 -->
      <g transform="translate(230.650135 287.910437) scale(0.1 -0.1)">
       <defs>
        <path id="DejaVuSans-30" d="M 2034 4250 
Q 1547 4250 1301 3770 
Q 1056 3291 1056 2328 
Q 1056 1369 1301 889 
Q 1547 409 2034 409 
Q 2525 409 2770 889 
Q 3016 1369 3016 2328 
Q 3016 3291 2770 3770 
Q 2525 4250 2034 4250 
z
M 2034 4750 
Q 2819 4750 3233 4129 
Q 3647 3509 3647 2328 
Q 3647 1150 3233 529 
Q 2819 -91 2034 -91 
Q 1250 -91 836 529 
Q 422 1150 422 2328 
Q 422 3509 836 4129 
Q 1250 4750 2034 4750 
z
" transform="scale(0.015625)"/>
       </defs>
       <use xlink:href="#DejaVuSans-30"/>
      </g>
     </g>
    </g>
    <g id="xtick_4">
     <g id="line2d_4">
      <g>
       <use xlink:href="#m7ee6b65a8b" x="299.142341" y="273.312" style="stroke: #000000; stroke-width: 0.8"/>
      </g>
     </g>
     <g id="text_4">
      <!-- 2 -->
      <g transform="translate(295.961091 287.910437) scale(0.1 -0.1)">
       <use xlink:href="#DejaVuSans-32"/>
      </g>
     </g>
    </g>
    <g id="xtick_5">
     <g id="line2d_5">
      <g>
       <use xlink:href="#m7ee6b65a8b" x="364.453298" y="273.312" style="stroke: #000000; stroke-width: 0.8"/>
      </g>
     </g>
     <g id="text_5">
      <!-- 4 -->
      <g transform="translate(361.272048 287.910437) scale(0.1 -0.1)">
       <use xlink:href="#DejaVuSans-34"/>
      </g>
     </g>
    </g>
    <g id="text_6">
     <!-- x -->
     <g transform="translate(218.89125 304.627937) scale(0.14 -0.14)">
      <defs>
       <path id="DejaVuSans-78" d="M 3513 3500 
L 2247 1797 
L 3578 0 
L 2900 0 
L 1881 1375 
L 863 0 
L 184 0 
L 1544 1831 
L 300 3500 
L 978 3500 
L 1906 2253 
L 2834 3500 
L 3513 3500 
z
" transform="scale(0.015625)"/>
      </defs>
      <use xlink:href="#DejaVuSans-78"/>
     </g>
    </g>
   </g>
   <g id="matplotlib.axis_2">
    <g id="ytick_1">
     <g id="line2d_6">
      <defs>
       <path id="m8c4f7d4086" d="M 0 0 
L -3.5 0 
" style="stroke: #000000; stroke-width: 0.8"/>
      </defs>
      <g>
       <use xlink:href="#m8c4f7d4086" x="44.474375" y="255.667827" style="stroke: #000000; stroke-width: 0.8"/>
      </g>
     </g>
     <g id="text_7">
      <!-- 5 -->
      <g transform="translate(31.111875 259.467046) scale(0.1 -0.1)">
       <defs>
        <path id="DejaVuSans-35" d="M 691 4666 
L 3169 4666 
L 3169 4134 
L 1269 4134 
L 1269 2991 
Q 1406 3038 1543 3061 
Q 1681 3084 1819 3084 
Q 2600 3084 3056 2656 
Q 3513 2228 3513 1497 
Q 3513 744 3044 326 
Q 2575 -91 1722 -91 
Q 1428 -91 1123 -41 
Q 819 9 494 109 
L 494 744 
Q 775 591 1075 516 
Q 1375 441 1709 441 
Q 2250 441 2565 725 
Q 2881 1009 2881 1497 
Q 2881 1984 2565 2268 
Q 2250 2553 1709 2553 
Q 1456 2553 1204 2497 
Q 953 2441 691 2322 
L 691 4666 
z
" transform="scale(0.015625)"/>
       </defs>
       <use xlink:href="#DejaVuSans-35"/>
      </g>
     </g>
    </g>
    <g id="ytick_2">
     <g id="line2d_7">
      <g>
       <use xlink:href="#m8c4f7d4086" x="44.474375" y="213.5803" style="stroke: #000000; stroke-width: 0.8"/>
      </g>
     </g>
     <g id="text_8">
      <!-- 10 -->
      <g transform="translate(24.749375 217.379519) scale(0.1 -0.1)">
       <defs>
        <path id="DejaVuSans-31" d="M 794 531 
L 1825 531 
L 1825 4091 
L 703 3866 
L 703 4441 
L 1819 4666 
L 2450 4666 
L 2450 531 
L 3481 531 
L 3481 0 
L 794 0 
L 794 531 
z
" transform="scale(0.015625)"/>
       </defs>
       <use xlink:href="#DejaVuSans-31"/>
       <use xlink:href="#DejaVuSans-30" x="63.623047"/>
      </g>
     </g>
    </g>
    <g id="ytick_3">
     <g id="line2d_8">
      <g>
       <use xlink:href="#m8c4f7d4086" x="44.474375" y="171.492774" style="stroke: #000000; stroke-width: 0.8"/>
      </g>
     </g>
     <g id="text_9">
      <!-- 15 -->
      <g transform="translate(24.749375 175.291993) scale(0.1 -0.1)">
       <use xlink:href="#DejaVuSans-31"/>
       <use xlink:href="#DejaVuSans-35" x="63.623047"/>
      </g>
     </g>
    </g>
    <g id="ytick_4">
     <g id="line2d_9">
      <g>
       <use xlink:href="#m8c4f7d4086" x="44.474375" y="129.405247" style="stroke: #000000; stroke-width: 0.8"/>
      </g>
     </g>
     <g id="text_10">
      <!-- 20 -->
      <g transform="translate(24.749375 133.204466) scale(0.1 -0.1)">
       <use xlink:href="#DejaVuSans-32"/>
       <use xlink:href="#DejaVuSans-30" x="63.623047"/>
      </g>
     </g>
    </g>
    <g id="ytick_5">
     <g id="line2d_10">
      <g>
       <use xlink:href="#m8c4f7d4086" x="44.474375" y="87.31772" style="stroke: #000000; stroke-width: 0.8"/>
      </g>
     </g>
     <g id="text_11">
      <!-- 25 -->
      <g transform="translate(24.749375 91.116939) scale(0.1 -0.1)">
       <use xlink:href="#DejaVuSans-32"/>
       <use xlink:href="#DejaVuSans-35" x="63.623047"/>
      </g>
     </g>
    </g>
    <g id="ytick_6">
     <g id="line2d_11">
      <g>
       <use xlink:href="#m8c4f7d4086" x="44.474375" y="45.230194" style="stroke: #000000; stroke-width: 0.8"/>
      </g>
     </g>
     <g id="text_12">
      <!-- 30 -->
      <g transform="translate(24.749375 49.029413) scale(0.1 -0.1)">
       <defs>
        <path id="DejaVuSans-33" d="M 2597 2516 
Q 3050 2419 3304 2112 
Q 3559 1806 3559 1356 
Q 3559 666 3084 287 
Q 2609 -91 1734 -91 
Q 1441 -91 1130 -33 
Q 819 25 488 141 
L 488 750 
Q 750 597 1062 519 
Q 1375 441 1716 441 
Q 2309 441 2620 675 
Q 2931 909 2931 1356 
Q 2931 1769 2642 2001 
Q 2353 2234 1838 2234 
L 1294 2234 
L 1294 2753 
L 1863 2753 
Q 2328 2753 2575 2939 
Q 2822 3125 2822 3475 
Q 2822 3834 2567 4026 
Q 2313 4219 1838 4219 
Q 1578 4219 1281 4162 
Q 984 4106 628 3988 
L 628 4550 
Q 988 4650 1302 4700 
Q 1616 4750 1894 4750 
Q 2613 4750 3031 4423 
Q 3450 4097 3450 3541 
Q 3450 3153 3228 2886 
Q 3006 2619 2597 2516 
z
" transform="scale(0.015625)"/>
       </defs>
       <use xlink:href="#DejaVuSans-33"/>
       <use xlink:href="#DejaVuSans-30" x="63.623047"/>
      </g>
     </g>
    </g>
    <g id="text_13">
     <!-- y -->
     <g transform="translate(17.837812 144.399125) rotate(-90) scale(0.14 -0.14)">
      <defs>
       <path id="DejaVuSans-79" d="M 2059 -325 
Q 1816 -950 1584 -1140 
Q 1353 -1331 966 -1331 
L 506 -1331 
L 506 -850 
L 844 -850 
Q 1081 -850 1212 -737 
Q 1344 -625 1503 -206 
L 1606 56 
L 191 3500 
L 800 3500 
L 1894 763 
L 2988 3500 
L 3597 3500 
L 2059 -325 
z
" transform="scale(0.015625)"/>
      </defs>
      <use xlink:href="#DejaVuSans-79"/>
     </g>
    </g>
   </g>
   <g id="patch_3">
    <path d="M 44.474375 273.312 
L 44.474375 7.2 
" style="fill: none; stroke: #000000; stroke-width: 0.8; stroke-linejoin: miter; stroke-linecap: square"/>
   </g>
   <g id="patch_4">
    <path d="M 401.594375 273.312 
L 401.594375 7.2 
" style="fill: none; stroke: #000000; stroke-width: 0.8; stroke-linejoin: miter; stroke-linecap: square"/>
   </g>
   <g id="patch_5">
    <path d="M 44.474375 273.312 
L 401.594375 273.312 
" style="fill: none; stroke: #000000; stroke-width: 0.8; stroke-linejoin: miter; stroke-linecap: square"/>
   </g>
   <g id="patch_6">
    <path d="M 44.474375 7.2 
L 401.594375 7.2 
" style="fill: none; stroke: #000000; stroke-width: 0.8; stroke-linejoin: miter; stroke-linecap: square"/>
   </g>
   <g id="legend_1">
    <g id="patch_7">
     <path d="M 263.20625 69.64125 
L 393.194375 69.64125 
Q 395.594375 69.64125 395.594375 67.24125 
L 395.594375 15.6 
Q 395.594375 13.2 393.194375 13.2 
L 263.20625 13.2 
Q 260.80625 13.2 260.80625 15.6 
L 260.80625 67.24125 
Q 260.80625 69.64125 263.20625 69.64125 
z
" style="fill: #ffffff; opacity: 0.8; stroke: #cccccc; stroke-linejoin: miter"/>
    </g>
    <g id="PathCollection_5">
     <g>
      <use xlink:href="#mf4107564c5" x="277.60625" y="23.968125" style="stroke: #000000; stroke-width: 1.5"/>
     </g>
    </g>
    <g id="text_14">
     <!-- Source Domain -->
     <g transform="translate(299.20625 27.118125) scale(0.12 -0.12)">
      <defs>
       <path id="DejaVuSans-53" d="M 3425 4513 
L 3425 3897 
Q 3066 4069 2747 4153 
Q 2428 4238 2131 4238 
Q 1616 4238 1336 4038 
Q 1056 3838 1056 3469 
Q 1056 3159 1242 3001 
Q 1428 2844 1947 2747 
L 2328 2669 
Q 3034 2534 3370 2195 
Q 3706 1856 3706 1288 
Q 3706 609 3251 259 
Q 2797 -91 1919 -91 
Q 1588 -91 1214 -16 
Q 841 59 441 206 
L 441 856 
Q 825 641 1194 531 
Q 1563 422 1919 422 
Q 2459 422 2753 634 
Q 3047 847 3047 1241 
Q 3047 1584 2836 1778 
Q 2625 1972 2144 2069 
L 1759 2144 
Q 1053 2284 737 2584 
Q 422 2884 422 3419 
Q 422 4038 858 4394 
Q 1294 4750 2059 4750 
Q 2388 4750 2728 4690 
Q 3069 4631 3425 4513 
z
" transform="scale(0.015625)"/>
       <path id="DejaVuSans-6f" d="M 1959 3097 
Q 1497 3097 1228 2736 
Q 959 2375 959 1747 
Q 959 1119 1226 758 
Q 1494 397 1959 397 
Q 2419 397 2687 759 
Q 2956 1122 2956 1747 
Q 2956 2369 2687 2733 
Q 2419 3097 1959 3097 
z
M 1959 3584 
Q 2709 3584 3137 3096 
Q 3566 2609 3566 1747 
Q 3566 888 3137 398 
Q 2709 -91 1959 -91 
Q 1206 -91 779 398 
Q 353 888 353 1747 
Q 353 2609 779 3096 
Q 1206 3584 1959 3584 
z
" transform="scale(0.015625)"/>
       <path id="DejaVuSans-75" d="M 544 1381 
L 544 3500 
L 1119 3500 
L 1119 1403 
Q 1119 906 1312 657 
Q 1506 409 1894 409 
Q 2359 409 2629 706 
Q 2900 1003 2900 1516 
L 2900 3500 
L 3475 3500 
L 3475 0 
L 2900 0 
L 2900 538 
Q 2691 219 2414 64 
Q 2138 -91 1772 -91 
Q 1169 -91 856 284 
Q 544 659 544 1381 
z
M 1991 3584 
L 1991 3584 
z
" transform="scale(0.015625)"/>
       <path id="DejaVuSans-72" d="M 2631 2963 
Q 2534 3019 2420 3045 
Q 2306 3072 2169 3072 
Q 1681 3072 1420 2755 
Q 1159 2438 1159 1844 
L 1159 0 
L 581 0 
L 581 3500 
L 1159 3500 
L 1159 2956 
Q 1341 3275 1631 3429 
Q 1922 3584 2338 3584 
Q 2397 3584 2469 3576 
Q 2541 3569 2628 3553 
L 2631 2963 
z
" transform="scale(0.015625)"/>
       <path id="DejaVuSans-63" d="M 3122 3366 
L 3122 2828 
Q 2878 2963 2633 3030 
Q 2388 3097 2138 3097 
Q 1578 3097 1268 2742 
Q 959 2388 959 1747 
Q 959 1106 1268 751 
Q 1578 397 2138 397 
Q 2388 397 2633 464 
Q 2878 531 3122 666 
L 3122 134 
Q 2881 22 2623 -34 
Q 2366 -91 2075 -91 
Q 1284 -91 818 406 
Q 353 903 353 1747 
Q 353 2603 823 3093 
Q 1294 3584 2113 3584 
Q 2378 3584 2631 3529 
Q 2884 3475 3122 3366 
z
" transform="scale(0.015625)"/>
       <path id="DejaVuSans-65" d="M 3597 1894 
L 3597 1613 
L 953 1613 
Q 991 1019 1311 708 
Q 1631 397 2203 397 
Q 2534 397 2845 478 
Q 3156 559 3463 722 
L 3463 178 
Q 3153 47 2828 -22 
Q 2503 -91 2169 -91 
Q 1331 -91 842 396 
Q 353 884 353 1716 
Q 353 2575 817 3079 
Q 1281 3584 2069 3584 
Q 2775 3584 3186 3129 
Q 3597 2675 3597 1894 
z
M 3022 2063 
Q 3016 2534 2758 2815 
Q 2500 3097 2075 3097 
Q 1594 3097 1305 2825 
Q 1016 2553 972 2059 
L 3022 2063 
z
" transform="scale(0.015625)"/>
       <path id="DejaVuSans-20" transform="scale(0.015625)"/>
       <path id="DejaVuSans-44" d="M 1259 4147 
L 1259 519 
L 2022 519 
Q 2988 519 3436 956 
Q 3884 1394 3884 2338 
Q 3884 3275 3436 3711 
Q 2988 4147 2022 4147 
L 1259 4147 
z
M 628 4666 
L 1925 4666 
Q 3281 4666 3915 4102 
Q 4550 3538 4550 2338 
Q 4550 1131 3912 565 
Q 3275 0 1925 0 
L 628 0 
L 628 4666 
z
" transform="scale(0.015625)"/>
       <path id="DejaVuSans-6d" d="M 3328 2828 
Q 3544 3216 3844 3400 
Q 4144 3584 4550 3584 
Q 5097 3584 5394 3201 
Q 5691 2819 5691 2113 
L 5691 0 
L 5113 0 
L 5113 2094 
Q 5113 2597 4934 2840 
Q 4756 3084 4391 3084 
Q 3944 3084 3684 2787 
Q 3425 2491 3425 1978 
L 3425 0 
L 2847 0 
L 2847 2094 
Q 2847 2600 2669 2842 
Q 2491 3084 2119 3084 
Q 1678 3084 1418 2786 
Q 1159 2488 1159 1978 
L 1159 0 
L 581 0 
L 581 3500 
L 1159 3500 
L 1159 2956 
Q 1356 3278 1631 3431 
Q 1906 3584 2284 3584 
Q 2666 3584 2933 3390 
Q 3200 3197 3328 2828 
z
" transform="scale(0.015625)"/>
       <path id="DejaVuSans-61" d="M 2194 1759 
Q 1497 1759 1228 1600 
Q 959 1441 959 1056 
Q 959 750 1161 570 
Q 1363 391 1709 391 
Q 2188 391 2477 730 
Q 2766 1069 2766 1631 
L 2766 1759 
L 2194 1759 
z
M 3341 1997 
L 3341 0 
L 2766 0 
L 2766 531 
Q 2569 213 2275 61 
Q 1981 -91 1556 -91 
Q 1019 -91 701 211 
Q 384 513 384 1019 
Q 384 1609 779 1909 
Q 1175 2209 1959 2209 
L 2766 2209 
L 2766 2266 
Q 2766 2663 2505 2880 
Q 2244 3097 1772 3097 
Q 1472 3097 1187 3025 
Q 903 2953 641 2809 
L 641 3341 
Q 956 3463 1253 3523 
Q 1550 3584 1831 3584 
Q 2591 3584 2966 3190 
Q 3341 2797 3341 1997 
z
" transform="scale(0.015625)"/>
       <path id="DejaVuSans-69" d="M 603 3500 
L 1178 3500 
L 1178 0 
L 603 0 
L 603 3500 
z
M 603 4863 
L 1178 4863 
L 1178 4134 
L 603 4134 
L 603 4863 
z
" transform="scale(0.015625)"/>
       <path id="DejaVuSans-6e" d="M 3513 2113 
L 3513 0 
L 2938 0 
L 2938 2094 
Q 2938 2591 2744 2837 
Q 2550 3084 2163 3084 
Q 1697 3084 1428 2787 
Q 1159 2491 1159 1978 
L 1159 0 
L 581 0 
L 581 3500 
L 1159 3500 
L 1159 2956 
Q 1366 3272 1645 3428 
Q 1925 3584 2291 3584 
Q 2894 3584 3203 3211 
Q 3513 2838 3513 2113 
z
" transform="scale(0.015625)"/>
      </defs>
      <use xlink:href="#DejaVuSans-53"/>
      <use xlink:href="#DejaVuSans-6f" x="63.476562"/>
      <use xlink:href="#DejaVuSans-75" x="124.658203"/>
      <use xlink:href="#DejaVuSans-72" x="188.037109"/>
      <use xlink:href="#DejaVuSans-63" x="226.900391"/>
      <use xlink:href="#DejaVuSans-65" x="281.880859"/>
      <use xlink:href="#DejaVuSans-20" x="343.404297"/>
      <use xlink:href="#DejaVuSans-44" x="375.191406"/>
      <use xlink:href="#DejaVuSans-6f" x="452.193359"/>
      <use xlink:href="#DejaVuSans-6d" x="513.375"/>
      <use xlink:href="#DejaVuSans-61" x="610.787109"/>
      <use xlink:href="#DejaVuSans-69" x="672.066406"/>
      <use xlink:href="#DejaVuSans-6e" x="699.849609"/>
     </g>
    </g>
    <g id="PathCollection_6">
     <g>
      <use xlink:href="#m6390ecb5bc" x="277.60625" y="41.581875" style="fill: #ff0000; stroke: #ff0000; stroke-width: 1.5"/>
     </g>
    </g>
    <g id="text_15">
     <!-- Target Domain -->
     <g transform="translate(299.20625 44.731875) scale(0.12 -0.12)">
      <defs>
       <path id="DejaVuSans-54" d="M -19 4666 
L 3928 4666 
L 3928 4134 
L 2272 4134 
L 2272 0 
L 1638 0 
L 1638 4134 
L -19 4134 
L -19 4666 
z
" transform="scale(0.015625)"/>
       <path id="DejaVuSans-67" d="M 2906 1791 
Q 2906 2416 2648 2759 
Q 2391 3103 1925 3103 
Q 1463 3103 1205 2759 
Q 947 2416 947 1791 
Q 947 1169 1205 825 
Q 1463 481 1925 481 
Q 2391 481 2648 825 
Q 2906 1169 2906 1791 
z
M 3481 434 
Q 3481 -459 3084 -895 
Q 2688 -1331 1869 -1331 
Q 1566 -1331 1297 -1286 
Q 1028 -1241 775 -1147 
L 775 -588 
Q 1028 -725 1275 -790 
Q 1522 -856 1778 -856 
Q 2344 -856 2625 -561 
Q 2906 -266 2906 331 
L 2906 616 
Q 2728 306 2450 153 
Q 2172 0 1784 0 
Q 1141 0 747 490 
Q 353 981 353 1791 
Q 353 2603 747 3093 
Q 1141 3584 1784 3584 
Q 2172 3584 2450 3431 
Q 2728 3278 2906 2969 
L 2906 3500 
L 3481 3500 
L 3481 434 
z
" transform="scale(0.015625)"/>
       <path id="DejaVuSans-74" d="M 1172 4494 
L 1172 3500 
L 2356 3500 
L 2356 3053 
L 1172 3053 
L 1172 1153 
Q 1172 725 1289 603 
Q 1406 481 1766 481 
L 2356 481 
L 2356 0 
L 1766 0 
Q 1100 0 847 248 
Q 594 497 594 1153 
L 594 3053 
L 172 3053 
L 172 3500 
L 594 3500 
L 594 4494 
L 1172 4494 
z
" transform="scale(0.015625)"/>
      </defs>
      <use xlink:href="#DejaVuSans-54"/>
      <use xlink:href="#DejaVuSans-61" x="44.583984"/>
      <use xlink:href="#DejaVuSans-72" x="105.863281"/>
      <use xlink:href="#DejaVuSans-67" x="145.226562"/>
      <use xlink:href="#DejaVuSans-65" x="208.703125"/>
      <use xlink:href="#DejaVuSans-74" x="270.226562"/>
      <use xlink:href="#DejaVuSans-20" x="309.435547"/>
      <use xlink:href="#DejaVuSans-44" x="341.222656"/>
      <use xlink:href="#DejaVuSans-6f" x="418.224609"/>
      <use xlink:href="#DejaVuSans-6d" x="479.40625"/>
      <use xlink:href="#DejaVuSans-61" x="576.818359"/>
      <use xlink:href="#DejaVuSans-69" x="638.097656"/>
      <use xlink:href="#DejaVuSans-6e" x="665.880859"/>
     </g>
    </g>
    <g id="PathCollection_7">
     <g>
      <use xlink:href="#m3f18f1d879" x="277.60625" y="59.195625" style="fill: #bfbf00; stroke: #bfbf00"/>
     </g>
    </g>
    <g id="text_16">
     <!-- Test Data -->
     <g transform="translate(299.20625 62.345625) scale(0.12 -0.12)">
      <defs>
       <path id="DejaVuSans-73" d="M 2834 3397 
L 2834 2853 
Q 2591 2978 2328 3040 
Q 2066 3103 1784 3103 
Q 1356 3103 1142 2972 
Q 928 2841 928 2578 
Q 928 2378 1081 2264 
Q 1234 2150 1697 2047 
L 1894 2003 
Q 2506 1872 2764 1633 
Q 3022 1394 3022 966 
Q 3022 478 2636 193 
Q 2250 -91 1575 -91 
Q 1294 -91 989 -36 
Q 684 19 347 128 
L 347 722 
Q 666 556 975 473 
Q 1284 391 1588 391 
Q 1994 391 2212 530 
Q 2431 669 2431 922 
Q 2431 1156 2273 1281 
Q 2116 1406 1581 1522 
L 1381 1569 
Q 847 1681 609 1914 
Q 372 2147 372 2553 
Q 372 3047 722 3315 
Q 1072 3584 1716 3584 
Q 2034 3584 2315 3537 
Q 2597 3491 2834 3397 
z
" transform="scale(0.015625)"/>
      </defs>
      <use xlink:href="#DejaVuSans-54"/>
      <use xlink:href="#DejaVuSans-65" x="44.083984"/>
      <use xlink:href="#DejaVuSans-73" x="105.607422"/>
      <use xlink:href="#DejaVuSans-74" x="157.707031"/>
      <use xlink:href="#DejaVuSans-20" x="196.916016"/>
      <use xlink:href="#DejaVuSans-44" x="228.703125"/>
      <use xlink:href="#DejaVuSans-61" x="305.705078"/>
      <use xlink:href="#DejaVuSans-74" x="366.984375"/>
      <use xlink:href="#DejaVuSans-61" x="406.193359"/>
     </g>
    </g>
   </g>
  </g>
 </g>
 <defs>
  <clipPath id="p09e93a2311">
   <rect x="44.474375" y="7.2" width="357.12" height="266.112"/>
  </clipPath>
 </defs>
</svg>
