<?xml version="1.0" encoding="utf-8" standalone="no"?>
<!DOCTYPE svg PUBLIC "-//W3C//DTD SVG 1.1//EN"
  "http://www.w3.org/Graphics/SVG/1.1/DTD/svg11.dtd">
<svg height="314.7395pt" version="1.1" viewBox="0 0 408.794375 314.7395" width="408.794375pt" xmlns="http://www.w3.org/2000/svg" xmlns:xlink="http://www.w3.org/1999/xlink">
 <metadata>
  <rdf:RDF xmlns:cc="http://creativecommons.org/ns#" xmlns:dc="http://purl.org/dc/elements/1.1/" xmlns:rdf="http://www.w3.org/1999/02/22-rdf-syntax-ns#">
   <cc:Work>
    <dc:type rdf:resource="http://purl.org/dc/dcmitype/StillImage"/>
    <dc:date>2023-05-03T10:57:12.132326</dc:date>
    <dc:format>image/svg+xml</dc:format>
    <dc:creator>
     <cc:Agent>
      <dc:title>Matplotlib v3.4.3, https://matplotlib.org/</dc:title>
     </cc:Agent>
    </dc:creator>
   </cc:Work>
  </rdf:RDF>
 </metadata>
 <defs>
  <style type="text/css">*{stroke-linecap:butt;stroke-linejoin:round;}</style>
 </defs>
 <g id="figure_1">
  <g id="patch_1">
   <path d="M 0 314.7395 
L 408.794375 314.7395 
L 408.794375 0 
L 0 0 
z
" style="fill:#ffffff;"/>
  </g>
  <g id="axes_1">
   <g id="patch_2">
    <path d="M 44.474375 273.312 
L 401.594375 273.312 
L 401.594375 7.2 
L 44.474375 7.2 
z
" style="fill:#ffffff;"/>
   </g>
   <g id="PathCollection_1">
    <defs>
     <path d="M -2.236068 2.236068 
L 2.236068 -2.236068 
M -2.236068 -2.236068 
L 2.236068 2.236068 
" id="me00379a83f" style="stroke:#000000;stroke-width:1.5;"/>
    </defs>
    <g clip-path="url(#p4782a87b6e)">
     <use style="stroke:#000000;stroke-width:1.5;" x="218.250955" xlink:href="#me00379a83f" y="255.006132"/>
     <use style="stroke:#000000;stroke-width:1.5;" x="128.517258" xlink:href="#me00379a83f" y="168.661773"/>
     <use style="stroke:#000000;stroke-width:1.5;" x="131.871471" xlink:href="#me00379a83f" y="177.575133"/>
     <use style="stroke:#000000;stroke-width:1.5;" x="110.009033" xlink:href="#me00379a83f" y="141.75708"/>
     <use style="stroke:#000000;stroke-width:1.5;" x="187.795146" xlink:href="#me00379a83f" y="240.564805"/>
     <use style="stroke:#000000;stroke-width:1.5;" x="60.707102" xlink:href="#me00379a83f" y="19.296"/>
     <use style="stroke:#000000;stroke-width:1.5;" x="223.085214" xlink:href="#me00379a83f" y="261.216"/>
     <use style="stroke:#000000;stroke-width:1.5;" x="122.519882" xlink:href="#me00379a83f" y="150.908278"/>
     <use style="stroke:#000000;stroke-width:1.5;" x="165.869638" xlink:href="#me00379a83f" y="192.665739"/>
     <use style="stroke:#000000;stroke-width:1.5;" x="143.059637" xlink:href="#me00379a83f" y="176.371503"/>
     <use style="stroke:#000000;stroke-width:1.5;" x="211.740445" xlink:href="#me00379a83f" y="246.984081"/>
     <use style="stroke:#000000;stroke-width:1.5;" x="70.394288" xlink:href="#me00379a83f" y="55.11413"/>
     <use style="stroke:#000000;stroke-width:1.5;" x="140.128303" xlink:href="#me00379a83f" y="190.672327"/>
     <use style="stroke:#000000;stroke-width:1.5;" x="137.654833" xlink:href="#me00379a83f" y="156.881267"/>
     <use style="stroke:#000000;stroke-width:1.5;" x="198.564378" xlink:href="#me00379a83f" y="238.273333"/>
     <use style="stroke:#000000;stroke-width:1.5;" x="108.92864" xlink:href="#me00379a83f" y="137.122383"/>
     <use style="stroke:#000000;stroke-width:1.5;" x="146.14729" xlink:href="#me00379a83f" y="187.405551"/>
     <use style="stroke:#000000;stroke-width:1.5;" x="117.838712" xlink:href="#me00379a83f" y="119.668054"/>
     <use style="stroke:#000000;stroke-width:1.5;" x="154.760769" xlink:href="#me00379a83f" y="199.255652"/>
     <use style="stroke:#000000;stroke-width:1.5;" x="176.454847" xlink:href="#me00379a83f" y="215.688417"/>
     <use style="stroke:#000000;stroke-width:1.5;" x="108.899429" xlink:href="#me00379a83f" y="125.465325"/>
     <use style="stroke:#000000;stroke-width:1.5;" x="199.003967" xlink:href="#me00379a83f" y="243.496229"/>
     <use style="stroke:#000000;stroke-width:1.5;" x="189.247156" xlink:href="#me00379a83f" y="247.398871"/>
     <use style="stroke:#000000;stroke-width:1.5;" x="173.231609" xlink:href="#me00379a83f" y="224.755241"/>
     <use style="stroke:#000000;stroke-width:1.5;" x="189.21767" xlink:href="#me00379a83f" y="235.821543"/>
     <use style="stroke:#000000;stroke-width:1.5;" x="125.629079" xlink:href="#me00379a83f" y="151.77061"/>
     <use style="stroke:#000000;stroke-width:1.5;" x="148.135225" xlink:href="#me00379a83f" y="182.017135"/>
     <use style="stroke:#000000;stroke-width:1.5;" x="115.514771" xlink:href="#me00379a83f" y="129.973331"/>
     <use style="stroke:#000000;stroke-width:1.5;" x="142.31653" xlink:href="#me00379a83f" y="180.986492"/>
     <use style="stroke:#000000;stroke-width:1.5;" x="174.349663" xlink:href="#me00379a83f" y="210.496904"/>
    </g>
   </g>
   <g id="PathCollection_2">
    <path clip-path="url(#p4782a87b6e)" d="M 218.250955 258.16841 
C 219.089601 258.16841 219.894011 257.835212 220.487023 257.2422 
C 221.080035 256.649188 221.413233 255.844778 221.413233 255.006132 
C 221.413233 254.167487 221.080035 253.363077 220.487023 252.770065 
C 219.894011 252.177052 219.089601 251.843855 218.250955 251.843855 
C 217.412309 251.843855 216.607899 252.177052 216.014887 252.770065 
C 215.421875 253.363077 215.088677 254.167487 215.088677 255.006132 
C 215.088677 255.844778 215.421875 256.649188 216.014887 257.2422 
C 216.607899 257.835212 217.412309 258.16841 218.250955 258.16841 
z
" style="fill:#00ffff;fill-opacity:0.5;stroke:#00ffff;stroke-opacity:0.5;"/>
    <path clip-path="url(#p4782a87b6e)" d="M 128.517258 171.82405 
C 129.355904 171.82405 130.160314 171.490853 130.753326 170.89784 
C 131.346338 170.304828 131.679536 169.500418 131.679536 168.661773 
C 131.679536 167.823127 131.346338 167.018717 130.753326 166.425705 
C 130.160314 165.832693 129.355904 165.499495 128.517258 165.499495 
C 127.678613 165.499495 126.874203 165.832693 126.281191 166.425705 
C 125.688178 167.018717 125.354981 167.823127 125.354981 168.661773 
C 125.354981 169.500418 125.688178 170.304828 126.281191 170.89784 
C 126.874203 171.490853 127.678613 171.82405 128.517258 171.82405 
z
" style="fill:#00ffff;fill-opacity:0.5;stroke:#00ffff;stroke-opacity:0.5;"/>
    <path clip-path="url(#p4782a87b6e)" d="M 131.871471 180.737411 
C 132.710117 180.737411 133.514527 180.404214 134.107539 179.811201 
C 134.700551 179.218189 135.033748 178.413779 135.033748 177.575133 
C 135.033748 176.736488 134.700551 175.932078 134.107539 175.339066 
C 133.514527 174.746053 132.710117 174.412856 131.871471 174.412856 
C 131.032825 174.412856 130.228415 174.746053 129.635403 175.339066 
C 129.042391 175.932078 128.709193 176.736488 128.709193 177.575133 
C 128.709193 178.413779 129.042391 179.218189 129.635403 179.811201 
C 130.228415 180.404214 131.032825 180.737411 131.871471 180.737411 
z
" style="fill:#00ffff;fill-opacity:0.5;stroke:#00ffff;stroke-opacity:0.5;"/>
    <path clip-path="url(#p4782a87b6e)" d="M 110.009033 144.919357 
C 110.847678 144.919357 111.652088 144.58616 112.2451 143.993148 
C 112.838113 143.400136 113.17131 142.595726 113.17131 141.75708 
C 113.17131 140.918434 112.838113 140.114024 112.2451 139.521012 
C 111.652088 138.928 110.847678 138.594803 110.009033 138.594803 
C 109.170387 138.594803 108.365977 138.928 107.772965 139.521012 
C 107.179953 140.114024 106.846755 140.918434 106.846755 141.75708 
C 106.846755 142.595726 107.179953 143.400136 107.772965 143.993148 
C 108.365977 144.58616 109.170387 144.919357 110.009033 144.919357 
z
" style="fill:#00ffff;fill-opacity:0.5;stroke:#00ffff;stroke-opacity:0.5;"/>
    <path clip-path="url(#p4782a87b6e)" d="M 187.795146 243.727082 
C 188.633792 243.727082 189.438202 243.393885 190.031214 242.800872 
C 190.624226 242.20786 190.957424 241.40345 190.957424 240.564805 
C 190.957424 239.726159 190.624226 238.921749 190.031214 238.328737 
C 189.438202 237.735725 188.633792 237.402527 187.795146 237.402527 
C 186.9565 237.402527 186.15209 237.735725 185.559078 238.328737 
C 184.966066 238.921749 184.632869 239.726159 184.632869 240.564805 
C 184.632869 241.40345 184.966066 242.20786 185.559078 242.800872 
C 186.15209 243.393885 186.9565 243.727082 187.795146 243.727082 
z
" style="fill:#00ffff;fill-opacity:0.5;stroke:#00ffff;stroke-opacity:0.5;"/>
    <path clip-path="url(#p4782a87b6e)" d="M 60.707102 22.458278 
C 61.545748 22.458278 62.350158 22.12508 62.94317 21.532068 
C 63.536182 20.939056 63.86938 20.134646 63.86938 19.296 
C 63.86938 18.457354 63.536182 17.652944 62.94317 17.059932 
C 62.350158 16.46692 61.545748 16.133722 60.707102 16.133722 
C 59.868456 16.133722 59.064047 16.46692 58.471034 17.059932 
C 57.878022 17.652944 57.544825 18.457354 57.544825 19.296 
C 57.544825 20.134646 57.878022 20.939056 58.471034 21.532068 
C 59.064047 22.12508 59.868456 22.458278 60.707102 22.458278 
z
" style="fill:#00ffff;fill-opacity:0.5;stroke:#00ffff;stroke-opacity:0.5;"/>
    <path clip-path="url(#p4782a87b6e)" d="M 223.085214 264.378278 
C 223.92386 264.378278 224.72827 264.04508 225.321282 263.452068 
C 225.914294 262.859056 226.247492 262.054646 226.247492 261.216 
C 226.247492 260.377354 225.914294 259.572944 225.321282 258.979932 
C 224.72827 258.38692 223.92386 258.053722 223.085214 258.053722 
C 222.246568 258.053722 221.442158 258.38692 220.849146 258.979932 
C 220.256134 259.572944 219.922937 260.377354 219.922937 261.216 
C 219.922937 262.054646 220.256134 262.859056 220.849146 263.452068 
C 221.442158 264.04508 222.246568 264.378278 223.085214 264.378278 
z
" style="fill:#00ffff;fill-opacity:0.5;stroke:#00ffff;stroke-opacity:0.5;"/>
    <path clip-path="url(#p4782a87b6e)" d="M 122.519882 154.070556 
C 123.358528 154.070556 124.162937 153.737358 124.75595 153.144346 
C 125.348962 152.551334 125.682159 151.746924 125.682159 150.908278 
C 125.682159 150.069632 125.348962 149.265222 124.75595 148.67221 
C 124.162937 148.079198 123.358528 147.746001 122.519882 147.746001 
C 121.681236 147.746001 120.876826 148.079198 120.283814 148.67221 
C 119.690802 149.265222 119.357604 150.069632 119.357604 150.908278 
C 119.357604 151.746924 119.690802 152.551334 120.283814 153.144346 
C 120.876826 153.737358 121.681236 154.070556 122.519882 154.070556 
z
" style="fill:#00ffff;fill-opacity:0.5;stroke:#00ffff;stroke-opacity:0.5;"/>
    <path clip-path="url(#p4782a87b6e)" d="M 165.869638 195.828017 
C 166.708284 195.828017 167.512694 195.494819 168.105706 194.901807 
C 168.698718 194.308795 169.031915 193.504385 169.031915 192.665739 
C 169.031915 191.827093 168.698718 191.022684 168.105706 190.429671 
C 167.512694 189.836659 166.708284 189.503462 165.869638 189.503462 
C 165.030992 189.503462 164.226582 189.836659 163.63357 190.429671 
C 163.040558 191.022684 162.70736 191.827093 162.70736 192.665739 
C 162.70736 193.504385 163.040558 194.308795 163.63357 194.901807 
C 164.226582 195.494819 165.030992 195.828017 165.869638 195.828017 
z
" style="fill:#00ffff;fill-opacity:0.5;stroke:#00ffff;stroke-opacity:0.5;"/>
    <path clip-path="url(#p4782a87b6e)" d="M 143.059637 179.368706 
C 143.854504 179.368706 144.616923 179.052902 145.178979 178.490846 
C 145.741035 177.92879 146.05684 177.166371 146.05684 176.371503 
C 146.05684 175.576636 145.741035 174.814217 145.178979 174.252161 
C 144.616923 173.690105 143.854504 173.374301 143.059637 173.374301 
C 142.26477 173.374301 141.502351 173.690105 140.940295 174.252161 
C 140.378239 174.814217 140.062435 175.576636 140.062435 176.371503 
C 140.062435 177.166371 140.378239 177.92879 140.940295 178.490846 
C 141.502351 179.052902 142.26477 179.368706 143.059637 179.368706 
z
" style="fill:#00ffff;fill-opacity:0.5;stroke:#00ffff;stroke-opacity:0.5;"/>
    <path clip-path="url(#p4782a87b6e)" d="M 211.740445 250.146358 
C 212.57909 250.146358 213.3835 249.813161 213.976512 249.220149 
C 214.569525 248.627136 214.902722 247.822727 214.902722 246.984081 
C 214.902722 246.145435 214.569525 245.341025 213.976512 244.748013 
C 213.3835 244.155001 212.57909 243.821803 211.740445 243.821803 
C 210.901799 243.821803 210.097389 244.155001 209.504377 244.748013 
C 208.911365 245.341025 208.578167 246.145435 208.578167 246.984081 
C 208.578167 247.822727 208.911365 248.627136 209.504377 249.220149 
C 210.097389 249.813161 210.901799 250.146358 211.740445 250.146358 
z
" style="fill:#00ffff;fill-opacity:0.5;stroke:#00ffff;stroke-opacity:0.5;"/>
    <path clip-path="url(#p4782a87b6e)" d="M 70.394288 58.276407 
C 71.232934 58.276407 72.037344 57.94321 72.630356 57.350197 
C 73.223368 56.757185 73.556566 55.952775 73.556566 55.11413 
C 73.556566 54.275484 73.223368 53.471074 72.630356 52.878062 
C 72.037344 52.285049 71.232934 51.951852 70.394288 51.951852 
C 69.555642 51.951852 68.751232 52.285049 68.15822 52.878062 
C 67.565208 53.471074 67.232011 54.275484 67.232011 55.11413 
C 67.232011 55.952775 67.565208 56.757185 68.15822 57.350197 
C 68.751232 57.94321 69.555642 58.276407 70.394288 58.276407 
z
" style="fill:#00ffff;fill-opacity:0.5;stroke:#00ffff;stroke-opacity:0.5;"/>
    <path clip-path="url(#p4782a87b6e)" d="M 140.128303 193.834605 
C 140.966949 193.834605 141.771358 193.501407 142.364371 192.908395 
C 142.957383 192.315383 143.29058 191.510973 143.29058 190.672327 
C 143.29058 189.833681 142.957383 189.029271 142.364371 188.436259 
C 141.771358 187.843247 140.966949 187.51005 140.128303 187.51005 
C 139.289657 187.51005 138.485247 187.843247 137.892235 188.436259 
C 137.299223 189.029271 136.966025 189.833681 136.966025 190.672327 
C 136.966025 191.510973 137.299223 192.315383 137.892235 192.908395 
C 138.485247 193.501407 139.289657 193.834605 140.128303 193.834605 
z
" style="fill:#00ffff;fill-opacity:0.5;stroke:#00ffff;stroke-opacity:0.5;"/>
    <path clip-path="url(#p4782a87b6e)" d="M 137.654833 160.043545 
C 138.493479 160.043545 139.297889 159.710347 139.890901 159.117335 
C 140.483913 158.524323 140.817111 157.719913 140.817111 156.881267 
C 140.817111 156.042621 140.483913 155.238212 139.890901 154.645199 
C 139.297889 154.052187 138.493479 153.71899 137.654833 153.71899 
C 136.816188 153.71899 136.011778 154.052187 135.418765 154.645199 
C 134.825753 155.238212 134.492556 156.042621 134.492556 156.881267 
C 134.492556 157.719913 134.825753 158.524323 135.418765 159.117335 
C 136.011778 159.710347 136.816188 160.043545 137.654833 160.043545 
z
" style="fill:#00ffff;fill-opacity:0.5;stroke:#00ffff;stroke-opacity:0.5;"/>
    <path clip-path="url(#p4782a87b6e)" d="M 198.564378 240.889499 
C 199.258193 240.889499 199.923685 240.613843 200.414286 240.123242 
C 200.904887 239.63264 201.180543 238.967149 201.180543 238.273333 
C 201.180543 237.579518 200.904887 236.914026 200.414286 236.423425 
C 199.923685 235.932824 199.258193 235.657168 198.564378 235.657168 
C 197.870562 235.657168 197.205071 235.932824 196.714469 236.423425 
C 196.223868 236.914026 195.948212 237.579518 195.948212 238.273333 
C 195.948212 238.967149 196.223868 239.63264 196.714469 240.123242 
C 197.205071 240.613843 197.870562 240.889499 198.564378 240.889499 
z
" style="fill:#00ffff;fill-opacity:0.5;stroke:#00ffff;stroke-opacity:0.5;"/>
    <path clip-path="url(#p4782a87b6e)" d="M 108.92864 137.722903 
C 109.0879 137.722903 109.240658 137.659628 109.353272 137.547015 
C 109.465886 137.434401 109.52916 137.281643 109.52916 137.122383 
C 109.52916 136.963123 109.465886 136.810364 109.353272 136.697751 
C 109.240658 136.585137 109.0879 136.521862 108.92864 136.521862 
C 108.76938 136.521862 108.616622 136.585137 108.504008 136.697751 
C 108.391394 136.810364 108.328119 136.963123 108.328119 137.122383 
C 108.328119 137.281643 108.391394 137.434401 108.504008 137.547015 
C 108.616622 137.659628 108.76938 137.722903 108.92864 137.722903 
z
" style="fill:#00ffff;fill-opacity:0.5;stroke:#00ffff;stroke-opacity:0.5;"/>
    <path clip-path="url(#p4782a87b6e)" d="M 146.14729 190.567828 
C 146.985935 190.567828 147.790345 190.234631 148.383357 189.641619 
C 148.97637 189.048607 149.309567 188.244197 149.309567 187.405551 
C 149.309567 186.566905 148.97637 185.762495 148.383357 185.169483 
C 147.790345 184.576471 146.985935 184.243273 146.14729 184.243273 
C 145.308644 184.243273 144.504234 184.576471 143.911222 185.169483 
C 143.31821 185.762495 142.985012 186.566905 142.985012 187.405551 
C 142.985012 188.244197 143.31821 189.048607 143.911222 189.641619 
C 144.504234 190.234631 145.308644 190.567828 146.14729 190.567828 
z
" style="fill:#00ffff;fill-opacity:0.5;stroke:#00ffff;stroke-opacity:0.5;"/>
    <path clip-path="url(#p4782a87b6e)" d="M 117.838712 122.830332 
C 118.677358 122.830332 119.481768 122.497134 120.07478 121.904122 
C 120.667792 121.31111 121.00099 120.5067 121.00099 119.668054 
C 121.00099 118.829409 120.667792 118.024999 120.07478 117.431987 
C 119.481768 116.838974 118.677358 116.505777 117.838712 116.505777 
C 117.000066 116.505777 116.195656 116.838974 115.602644 117.431987 
C 115.009632 118.024999 114.676435 118.829409 114.676435 119.668054 
C 114.676435 120.5067 115.009632 121.31111 115.602644 121.904122 
C 116.195656 122.497134 117.000066 122.830332 117.838712 122.830332 
z
" style="fill:#00ffff;fill-opacity:0.5;stroke:#00ffff;stroke-opacity:0.5;"/>
    <path clip-path="url(#p4782a87b6e)" d="M 154.760769 202.41793 
C 155.599414 202.41793 156.403824 202.084732 156.996837 201.49172 
C 157.589849 200.898708 157.923046 200.094298 157.923046 199.255652 
C 157.923046 198.417007 157.589849 197.612597 156.996837 197.019584 
C 156.403824 196.426572 155.599414 196.093375 154.760769 196.093375 
C 153.922123 196.093375 153.117713 196.426572 152.524701 197.019584 
C 151.931689 197.612597 151.598491 198.417007 151.598491 199.255652 
C 151.598491 200.094298 151.931689 200.898708 152.524701 201.49172 
C 153.117713 202.084732 153.922123 202.41793 154.760769 202.41793 
z
" style="fill:#00ffff;fill-opacity:0.5;stroke:#00ffff;stroke-opacity:0.5;"/>
    <path clip-path="url(#p4782a87b6e)" d="M 176.454847 218.850695 
C 177.293493 218.850695 178.097903 218.517497 178.690915 217.924485 
C 179.283927 217.331473 179.617125 216.527063 179.617125 215.688417 
C 179.617125 214.849771 179.283927 214.045361 178.690915 213.452349 
C 178.097903 212.859337 177.293493 212.52614 176.454847 212.52614 
C 175.616202 212.52614 174.811792 212.859337 174.21878 213.452349 
C 173.625767 214.045361 173.29257 214.849771 173.29257 215.688417 
C 173.29257 216.527063 173.625767 217.331473 174.21878 217.924485 
C 174.811792 218.517497 175.616202 218.850695 176.454847 218.850695 
z
" style="fill:#00ffff;fill-opacity:0.5;stroke:#00ffff;stroke-opacity:0.5;"/>
    <path clip-path="url(#p4782a87b6e)" d="M 108.899429 128.627567 
C 109.738066 128.627567 110.542466 128.294373 111.135472 127.701368 
C 111.728477 127.108362 112.061671 126.303962 112.061671 125.465325 
C 112.061671 124.626689 111.728477 123.822288 111.135472 123.229282 
C 110.542466 122.636277 109.738066 122.303083 108.899429 122.303083 
C 108.060793 122.303083 107.256392 122.636277 106.663386 123.229282 
C 106.070381 123.822288 105.737187 124.626689 105.737187 125.465325 
C 105.737187 126.303962 106.070381 127.108362 106.663386 127.701368 
C 107.256392 128.294373 108.060793 128.627567 108.899429 128.627567 
z
" style="fill:#00ffff;fill-opacity:0.5;stroke:#00ffff;stroke-opacity:0.5;"/>
    <path clip-path="url(#p4782a87b6e)" d="M 199.003967 246.112394 
C 199.697782 246.112394 200.363274 245.836738 200.853875 245.346137 
C 201.344477 244.855536 201.620133 244.190044 201.620133 243.496229 
C 201.620133 242.802413 201.344477 242.136922 200.853875 241.64632 
C 200.363274 241.155719 199.697782 240.880063 199.003967 240.880063 
C 198.310152 240.880063 197.64466 241.155719 197.154059 241.64632 
C 196.663457 242.136922 196.387801 242.802413 196.387801 243.496229 
C 196.387801 244.190044 196.663457 244.855536 197.154059 245.346137 
C 197.64466 245.836738 198.310152 246.112394 199.003967 246.112394 
z
" style="fill:#00ffff;fill-opacity:0.5;stroke:#00ffff;stroke-opacity:0.5;"/>
    <path clip-path="url(#p4782a87b6e)" d="M 189.247156 249.868844 
C 189.902201 249.868844 190.530504 249.608592 190.99369 249.145405 
C 191.456877 248.682219 191.717129 248.053916 191.717129 247.398871 
C 191.717129 246.743827 191.456877 246.115523 190.99369 245.652337 
C 190.530504 245.189151 189.902201 244.928899 189.247156 244.928899 
C 188.592112 244.928899 187.963808 245.189151 187.500622 245.652337 
C 187.037436 246.115523 186.777184 246.743827 186.777184 247.398871 
C 186.777184 248.053916 187.037436 248.682219 187.500622 249.145405 
C 187.963808 249.608592 188.592112 249.868844 189.247156 249.868844 
z
" style="fill:#00ffff;fill-opacity:0.5;stroke:#00ffff;stroke-opacity:0.5;"/>
    <path clip-path="url(#p4782a87b6e)" d="M 173.231609 227.917518 
C 174.070255 227.917518 174.874665 227.584321 175.467677 226.991309 
C 176.060689 226.398296 176.393886 225.593887 176.393886 224.755241 
C 176.393886 223.916595 176.060689 223.112185 175.467677 222.519173 
C 174.874665 221.926161 174.070255 221.592964 173.231609 221.592964 
C 172.392963 221.592964 171.588553 221.926161 170.995541 222.519173 
C 170.402529 223.112185 170.069332 223.916595 170.069332 224.755241 
C 170.069332 225.593887 170.402529 226.398296 170.995541 226.991309 
C 171.588553 227.584321 172.392963 227.917518 173.231609 227.917518 
z
" style="fill:#00ffff;fill-opacity:0.5;stroke:#00ffff;stroke-opacity:0.5;"/>
    <path clip-path="url(#p4782a87b6e)" d="M 189.21767 237.942309 
C 189.780104 237.942309 190.319577 237.718852 190.717278 237.321151 
C 191.114978 236.92345 191.338436 236.383977 191.338436 235.821543 
C 191.338436 235.25911 191.114978 234.719637 190.717278 234.321936 
C 190.319577 233.924235 189.780104 233.700778 189.21767 233.700778 
C 188.655237 233.700778 188.115763 233.924235 187.718063 234.321936 
C 187.320362 234.719637 187.096905 235.25911 187.096905 235.821543 
C 187.096905 236.383977 187.320362 236.92345 187.718063 237.321151 
C 188.115763 237.718852 188.655237 237.942309 189.21767 237.942309 
z
" style="fill:#00ffff;fill-opacity:0.5;stroke:#00ffff;stroke-opacity:0.5;"/>
    <path clip-path="url(#p4782a87b6e)" d="M 125.629079 154.932888 
C 126.467724 154.932888 127.272134 154.59969 127.865147 154.006678 
C 128.458159 153.413666 128.791356 152.609256 128.791356 151.77061 
C 128.791356 150.931964 128.458159 150.127554 127.865147 149.534542 
C 127.272134 148.94153 126.467724 148.608333 125.629079 148.608333 
C 124.790433 148.608333 123.986023 148.94153 123.393011 149.534542 
C 122.799999 150.127554 122.466801 150.931964 122.466801 151.77061 
C 122.466801 152.609256 122.799999 153.413666 123.393011 154.006678 
C 123.986023 154.59969 124.790433 154.932888 125.629079 154.932888 
z
" style="fill:#00ffff;fill-opacity:0.5;stroke:#00ffff;stroke-opacity:0.5;"/>
    <path clip-path="url(#p4782a87b6e)" d="M 148.135225 185.179413 
C 148.973871 185.179413 149.778281 184.846215 150.371293 184.253203 
C 150.964305 183.660191 151.297503 182.855781 151.297503 182.017135 
C 151.297503 181.178489 150.964305 180.374079 150.371293 179.781067 
C 149.778281 179.188055 148.973871 178.854858 148.135225 178.854858 
C 147.296579 178.854858 146.492169 179.188055 145.899157 179.781067 
C 145.306145 180.374079 144.972948 181.178489 144.972948 182.017135 
C 144.972948 182.855781 145.306145 183.660191 145.899157 184.253203 
C 146.492169 184.846215 147.296579 185.179413 148.135225 185.179413 
z
" style="fill:#00ffff;fill-opacity:0.5;stroke:#00ffff;stroke-opacity:0.5;"/>
    <path clip-path="url(#p4782a87b6e)" d="M 115.514771 133.135609 
C 116.353416 133.135609 117.157826 132.802411 117.750839 132.209399 
C 118.343851 131.616387 118.677048 130.811977 118.677048 129.973331 
C 118.677048 129.134685 118.343851 128.330276 117.750839 127.737263 
C 117.157826 127.144251 116.353416 126.811054 115.514771 126.811054 
C 114.676125 126.811054 113.871715 127.144251 113.278703 127.737263 
C 112.685691 128.330276 112.352493 129.134685 112.352493 129.973331 
C 112.352493 130.811977 112.685691 131.616387 113.278703 132.209399 
C 113.871715 132.802411 114.676125 133.135609 115.514771 133.135609 
z
" style="fill:#00ffff;fill-opacity:0.5;stroke:#00ffff;stroke-opacity:0.5;"/>
    <path clip-path="url(#p4782a87b6e)" d="M 142.31653 183.983694 
C 143.111398 183.983694 143.873816 183.66789 144.435872 183.105834 
C 144.997928 182.543778 145.313732 181.781359 145.313732 180.986492 
C 145.313732 180.191625 144.997928 179.429206 144.435872 178.86715 
C 143.873816 178.305094 143.111398 177.98929 142.31653 177.98929 
C 141.521663 177.98929 140.759245 178.305094 140.197189 178.86715 
C 139.635133 179.429206 139.319329 180.191625 139.319329 180.986492 
C 139.319329 181.781359 139.635133 182.543778 140.197189 183.105834 
C 140.759245 183.66789 141.521663 183.983694 142.31653 183.983694 
z
" style="fill:#00ffff;fill-opacity:0.5;stroke:#00ffff;stroke-opacity:0.5;"/>
    <path clip-path="url(#p4782a87b6e)" d="M 174.349663 213.659181 
C 175.188309 213.659181 175.992718 213.325983 176.585731 212.732971 
C 177.178743 212.139959 177.51194 211.335549 177.51194 210.496904 
C 177.51194 209.658258 177.178743 208.853848 176.585731 208.260836 
C 175.992718 207.667824 175.188309 207.334626 174.349663 207.334626 
C 173.511017 207.334626 172.706607 207.667824 172.113595 208.260836 
C 171.520583 208.853848 171.187385 209.658258 171.187385 210.496904 
C 171.187385 211.335549 171.520583 212.139959 172.113595 212.732971 
C 172.706607 213.325983 173.511017 213.659181 174.349663 213.659181 
z
" style="fill:#00ffff;fill-opacity:0.5;stroke:#00ffff;stroke-opacity:0.5;"/>
   </g>
   <g id="PathCollection_3">
    <defs>
     <path d="M -2.236068 2.236068 
L 2.236068 -2.236068 
M -2.236068 -2.236068 
L 2.236068 2.236068 
" id="m94a6bc280f" style="stroke:#ff0000;stroke-width:1.5;"/>
    </defs>
    <g clip-path="url(#p4782a87b6e)">
     <use style="fill:#ff0000;stroke:#ff0000;stroke-width:1.5;" x="296.860548" xlink:href="#m94a6bc280f" y="210.334571"/>
     <use style="fill:#ff0000;stroke:#ff0000;stroke-width:1.5;" x="311.32688" xlink:href="#m94a6bc280f" y="173.046558"/>
     <use style="fill:#ff0000;stroke:#ff0000;stroke-width:1.5;" x="227.860312" xlink:href="#m94a6bc280f" y="247.4471"/>
     <use style="fill:#ff0000;stroke:#ff0000;stroke-width:1.5;" x="379.408125" xlink:href="#m94a6bc280f" y="97.988425"/>
     <use style="fill:#ff0000;stroke:#ff0000;stroke-width:1.5;" x="241.615128" xlink:href="#m94a6bc280f" y="240.989733"/>
     <use style="fill:#ff0000;stroke:#ff0000;stroke-width:1.5;" x="279.805921" xlink:href="#m94a6bc280f" y="238.963756"/>
     <use style="fill:#ff0000;stroke:#ff0000;stroke-width:1.5;" x="333.765232" xlink:href="#m94a6bc280f" y="170.880501"/>
     <use style="fill:#ff0000;stroke:#ff0000;stroke-width:1.5;" x="263.612025" xlink:href="#m94a6bc280f" y="226.594628"/>
     <use style="fill:#ff0000;stroke:#ff0000;stroke-width:1.5;" x="271.129724" xlink:href="#m94a6bc280f" y="246.463039"/>
     <use style="fill:#ff0000;stroke:#ff0000;stroke-width:1.5;" x="277.1068" xlink:href="#m94a6bc280f" y="233.344922"/>
    </g>
   </g>
   <g id="PathCollection_4">
    <defs>
     <path d="M 0 2.236068 
C 0.593012 2.236068 1.161816 2.000462 1.581139 1.581139 
C 2.000462 1.161816 2.236068 0.593012 2.236068 0 
C 2.236068 -0.593012 2.000462 -1.161816 1.581139 -1.581139 
C 1.161816 -2.000462 0.593012 -2.236068 0 -2.236068 
C -0.593012 -2.236068 -1.161816 -2.000462 -1.581139 -1.581139 
C -2.000462 -1.161816 -2.236068 -0.593012 -2.236068 0 
C -2.236068 0.593012 -2.000462 1.161816 -1.581139 1.581139 
C -1.161816 2.000462 -0.593012 2.236068 0 2.236068 
z
" id="mb948dbe579" style="stroke:#bfbf00;"/>
    </defs>
    <g clip-path="url(#p4782a87b6e)">
     <use style="fill:#bfbf00;stroke:#bfbf00;" x="385.361648" xlink:href="#mb948dbe579" y="74.897852"/>
     <use style="fill:#bfbf00;stroke:#bfbf00;" x="331.101773" xlink:href="#mb948dbe579" y="175.726216"/>
     <use style="fill:#bfbf00;stroke:#bfbf00;" x="317.457238" xlink:href="#mb948dbe579" y="201.543108"/>
     <use style="fill:#bfbf00;stroke:#bfbf00;" x="238.803769" xlink:href="#mb948dbe579" y="248.502691"/>
     <use style="fill:#bfbf00;stroke:#bfbf00;" x="302.453385" xlink:href="#mb948dbe579" y="217.36506"/>
    </g>
   </g>
   <g id="matplotlib.axis_1">
    <g id="xtick_1">
     <g id="line2d_1">
      <defs>
       <path d="M 0 0 
L 0 3.5 
" id="maf00ff2bbe" style="stroke:#000000;stroke-width:0.8;"/>
      </defs>
      <g>
       <use style="stroke:#000000;stroke-width:0.8;" x="72.807706" xlink:href="#maf00ff2bbe" y="273.312"/>
      </g>
     </g>
     <g id="text_1">
      <!-- −2 -->
      <g transform="translate(65.436612 287.910437)scale(0.1 -0.1)">
       <defs>
        <path d="M 678 2272 
L 4684 2272 
L 4684 1741 
L 678 1741 
L 678 2272 
z
" id="DejaVuSans-2212" transform="scale(0.015625)"/>
        <path d="M 1228 531 
L 3431 531 
L 3431 0 
L 469 0 
L 469 531 
Q 828 903 1448 1529 
Q 2069 2156 2228 2338 
Q 2531 2678 2651 2914 
Q 2772 3150 2772 3378 
Q 2772 3750 2511 3984 
Q 2250 4219 1831 4219 
Q 1534 4219 1204 4116 
Q 875 4013 500 3803 
L 500 4441 
Q 881 4594 1212 4672 
Q 1544 4750 1819 4750 
Q 2544 4750 2975 4387 
Q 3406 4025 3406 3419 
Q 3406 3131 3298 2873 
Q 3191 2616 2906 2266 
Q 2828 2175 2409 1742 
Q 1991 1309 1228 531 
z
" id="DejaVuSans-32" transform="scale(0.015625)"/>
       </defs>
       <use xlink:href="#DejaVuSans-2212"/>
       <use x="83.789062" xlink:href="#DejaVuSans-32"/>
      </g>
     </g>
    </g>
    <g id="xtick_2">
     <g id="line2d_2">
      <g>
       <use style="stroke:#000000;stroke-width:0.8;" x="112.937229" xlink:href="#maf00ff2bbe" y="273.312"/>
      </g>
     </g>
     <g id="text_2">
      <!-- −1 -->
      <g transform="translate(105.566135 287.910437)scale(0.1 -0.1)">
       <defs>
        <path d="M 794 531 
L 1825 531 
L 1825 4091 
L 703 3866 
L 703 4441 
L 1819 4666 
L 2450 4666 
L 2450 531 
L 3481 531 
L 3481 0 
L 794 0 
L 794 531 
z
" id="DejaVuSans-31" transform="scale(0.015625)"/>
       </defs>
       <use xlink:href="#DejaVuSans-2212"/>
       <use x="83.789062" xlink:href="#DejaVuSans-31"/>
      </g>
     </g>
    </g>
    <g id="xtick_3">
     <g id="line2d_3">
      <g>
       <use style="stroke:#000000;stroke-width:0.8;" x="153.066751" xlink:href="#maf00ff2bbe" y="273.312"/>
      </g>
     </g>
     <g id="text_3">
      <!-- 0 -->
      <g transform="translate(149.885501 287.910437)scale(0.1 -0.1)">
       <defs>
        <path d="M 2034 4250 
Q 1547 4250 1301 3770 
Q 1056 3291 1056 2328 
Q 1056 1369 1301 889 
Q 1547 409 2034 409 
Q 2525 409 2770 889 
Q 3016 1369 3016 2328 
Q 3016 3291 2770 3770 
Q 2525 4250 2034 4250 
z
M 2034 4750 
Q 2819 4750 3233 4129 
Q 3647 3509 3647 2328 
Q 3647 1150 3233 529 
Q 2819 -91 2034 -91 
Q 1250 -91 836 529 
Q 422 1150 422 2328 
Q 422 3509 836 4129 
Q 1250 4750 2034 4750 
z
" id="DejaVuSans-30" transform="scale(0.015625)"/>
       </defs>
       <use xlink:href="#DejaVuSans-30"/>
      </g>
     </g>
    </g>
    <g id="xtick_4">
     <g id="line2d_4">
      <g>
       <use style="stroke:#000000;stroke-width:0.8;" x="193.196274" xlink:href="#maf00ff2bbe" y="273.312"/>
      </g>
     </g>
     <g id="text_4">
      <!-- 1 -->
      <g transform="translate(190.015024 287.910437)scale(0.1 -0.1)">
       <use xlink:href="#DejaVuSans-31"/>
      </g>
     </g>
    </g>
    <g id="xtick_5">
     <g id="line2d_5">
      <g>
       <use style="stroke:#000000;stroke-width:0.8;" x="233.325796" xlink:href="#maf00ff2bbe" y="273.312"/>
      </g>
     </g>
     <g id="text_5">
      <!-- 2 -->
      <g transform="translate(230.144546 287.910437)scale(0.1 -0.1)">
       <use xlink:href="#DejaVuSans-32"/>
      </g>
     </g>
    </g>
    <g id="xtick_6">
     <g id="line2d_6">
      <g>
       <use style="stroke:#000000;stroke-width:0.8;" x="273.455319" xlink:href="#maf00ff2bbe" y="273.312"/>
      </g>
     </g>
     <g id="text_6">
      <!-- 3 -->
      <g transform="translate(270.274069 287.910437)scale(0.1 -0.1)">
       <defs>
        <path d="M 2597 2516 
Q 3050 2419 3304 2112 
Q 3559 1806 3559 1356 
Q 3559 666 3084 287 
Q 2609 -91 1734 -91 
Q 1441 -91 1130 -33 
Q 819 25 488 141 
L 488 750 
Q 750 597 1062 519 
Q 1375 441 1716 441 
Q 2309 441 2620 675 
Q 2931 909 2931 1356 
Q 2931 1769 2642 2001 
Q 2353 2234 1838 2234 
L 1294 2234 
L 1294 2753 
L 1863 2753 
Q 2328 2753 2575 2939 
Q 2822 3125 2822 3475 
Q 2822 3834 2567 4026 
Q 2313 4219 1838 4219 
Q 1578 4219 1281 4162 
Q 984 4106 628 3988 
L 628 4550 
Q 988 4650 1302 4700 
Q 1616 4750 1894 4750 
Q 2613 4750 3031 4423 
Q 3450 4097 3450 3541 
Q 3450 3153 3228 2886 
Q 3006 2619 2597 2516 
z
" id="DejaVuSans-33" transform="scale(0.015625)"/>
       </defs>
       <use xlink:href="#DejaVuSans-33"/>
      </g>
     </g>
    </g>
    <g id="xtick_7">
     <g id="line2d_7">
      <g>
       <use style="stroke:#000000;stroke-width:0.8;" x="313.584841" xlink:href="#maf00ff2bbe" y="273.312"/>
      </g>
     </g>
     <g id="text_7">
      <!-- 4 -->
      <g transform="translate(310.403591 287.910437)scale(0.1 -0.1)">
       <defs>
        <path d="M 2419 4116 
L 825 1625 
L 2419 1625 
L 2419 4116 
z
M 2253 4666 
L 3047 4666 
L 3047 1625 
L 3713 1625 
L 3713 1100 
L 3047 1100 
L 3047 0 
L 2419 0 
L 2419 1100 
L 313 1100 
L 313 1709 
L 2253 4666 
z
" id="DejaVuSans-34" transform="scale(0.015625)"/>
       </defs>
       <use xlink:href="#DejaVuSans-34"/>
      </g>
     </g>
    </g>
    <g id="xtick_8">
     <g id="line2d_8">
      <g>
       <use style="stroke:#000000;stroke-width:0.8;" x="353.714364" xlink:href="#maf00ff2bbe" y="273.312"/>
      </g>
     </g>
     <g id="text_8">
      <!-- 5 -->
      <g transform="translate(350.533114 287.910437)scale(0.1 -0.1)">
       <defs>
        <path d="M 691 4666 
L 3169 4666 
L 3169 4134 
L 1269 4134 
L 1269 2991 
Q 1406 3038 1543 3061 
Q 1681 3084 1819 3084 
Q 2600 3084 3056 2656 
Q 3513 2228 3513 1497 
Q 3513 744 3044 326 
Q 2575 -91 1722 -91 
Q 1428 -91 1123 -41 
Q 819 9 494 109 
L 494 744 
Q 775 591 1075 516 
Q 1375 441 1709 441 
Q 2250 441 2565 725 
Q 2881 1009 2881 1497 
Q 2881 1984 2565 2268 
Q 2250 2553 1709 2553 
Q 1456 2553 1204 2497 
Q 953 2441 691 2322 
L 691 4666 
z
" id="DejaVuSans-35" transform="scale(0.015625)"/>
       </defs>
       <use xlink:href="#DejaVuSans-35"/>
      </g>
     </g>
    </g>
    <g id="xtick_9">
     <g id="line2d_9">
      <g>
       <use style="stroke:#000000;stroke-width:0.8;" x="393.843886" xlink:href="#maf00ff2bbe" y="273.312"/>
      </g>
     </g>
     <g id="text_9">
      <!-- 6 -->
      <g transform="translate(390.662636 287.910437)scale(0.1 -0.1)">
       <defs>
        <path d="M 2113 2584 
Q 1688 2584 1439 2293 
Q 1191 2003 1191 1497 
Q 1191 994 1439 701 
Q 1688 409 2113 409 
Q 2538 409 2786 701 
Q 3034 994 3034 1497 
Q 3034 2003 2786 2293 
Q 2538 2584 2113 2584 
z
M 3366 4563 
L 3366 3988 
Q 3128 4100 2886 4159 
Q 2644 4219 2406 4219 
Q 1781 4219 1451 3797 
Q 1122 3375 1075 2522 
Q 1259 2794 1537 2939 
Q 1816 3084 2150 3084 
Q 2853 3084 3261 2657 
Q 3669 2231 3669 1497 
Q 3669 778 3244 343 
Q 2819 -91 2113 -91 
Q 1303 -91 875 529 
Q 447 1150 447 2328 
Q 447 3434 972 4092 
Q 1497 4750 2381 4750 
Q 2619 4750 2861 4703 
Q 3103 4656 3366 4563 
z
" id="DejaVuSans-36" transform="scale(0.015625)"/>
       </defs>
       <use xlink:href="#DejaVuSans-36"/>
      </g>
     </g>
    </g>
    <g id="text_10">
     <!-- x -->
     <g transform="translate(218.89125 304.627937)scale(0.14 -0.14)">
      <defs>
       <path d="M 3513 3500 
L 2247 1797 
L 3578 0 
L 2900 0 
L 1881 1375 
L 863 0 
L 184 0 
L 1544 1831 
L 300 3500 
L 978 3500 
L 1906 2253 
L 2834 3500 
L 3513 3500 
z
" id="DejaVuSans-78" transform="scale(0.015625)"/>
      </defs>
      <use xlink:href="#DejaVuSans-78"/>
     </g>
    </g>
   </g>
   <g id="matplotlib.axis_2">
    <g id="ytick_1">
     <g id="line2d_10">
      <defs>
       <path d="M 0 0 
L -3.5 0 
" id="m20fd6334fb" style="stroke:#000000;stroke-width:0.8;"/>
      </defs>
      <g>
       <use style="stroke:#000000;stroke-width:0.8;" x="44.474375" xlink:href="#m20fd6334fb" y="268.822621"/>
      </g>
     </g>
     <g id="text_11">
      <!-- 0 -->
      <g transform="translate(31.111875 272.621839)scale(0.1 -0.1)">
       <use xlink:href="#DejaVuSans-30"/>
      </g>
     </g>
    </g>
    <g id="ytick_2">
     <g id="line2d_11">
      <g>
       <use style="stroke:#000000;stroke-width:0.8;" x="44.474375" xlink:href="#m20fd6334fb" y="227.559257"/>
      </g>
     </g>
     <g id="text_12">
      <!-- 10 -->
      <g transform="translate(24.749375 231.358476)scale(0.1 -0.1)">
       <use xlink:href="#DejaVuSans-31"/>
       <use x="63.623047" xlink:href="#DejaVuSans-30"/>
      </g>
     </g>
    </g>
    <g id="ytick_3">
     <g id="line2d_12">
      <g>
       <use style="stroke:#000000;stroke-width:0.8;" x="44.474375" xlink:href="#m20fd6334fb" y="186.295894"/>
      </g>
     </g>
     <g id="text_13">
      <!-- 20 -->
      <g transform="translate(24.749375 190.095113)scale(0.1 -0.1)">
       <use xlink:href="#DejaVuSans-32"/>
       <use x="63.623047" xlink:href="#DejaVuSans-30"/>
      </g>
     </g>
    </g>
    <g id="ytick_4">
     <g id="line2d_13">
      <g>
       <use style="stroke:#000000;stroke-width:0.8;" x="44.474375" xlink:href="#m20fd6334fb" y="145.032531"/>
      </g>
     </g>
     <g id="text_14">
      <!-- 30 -->
      <g transform="translate(24.749375 148.83175)scale(0.1 -0.1)">
       <use xlink:href="#DejaVuSans-33"/>
       <use x="63.623047" xlink:href="#DejaVuSans-30"/>
      </g>
     </g>
    </g>
    <g id="ytick_5">
     <g id="line2d_14">
      <g>
       <use style="stroke:#000000;stroke-width:0.8;" x="44.474375" xlink:href="#m20fd6334fb" y="103.769168"/>
      </g>
     </g>
     <g id="text_15">
      <!-- 40 -->
      <g transform="translate(24.749375 107.568386)scale(0.1 -0.1)">
       <use xlink:href="#DejaVuSans-34"/>
       <use x="63.623047" xlink:href="#DejaVuSans-30"/>
      </g>
     </g>
    </g>
    <g id="ytick_6">
     <g id="line2d_15">
      <g>
       <use style="stroke:#000000;stroke-width:0.8;" x="44.474375" xlink:href="#m20fd6334fb" y="62.505804"/>
      </g>
     </g>
     <g id="text_16">
      <!-- 50 -->
      <g transform="translate(24.749375 66.305023)scale(0.1 -0.1)">
       <use xlink:href="#DejaVuSans-35"/>
       <use x="63.623047" xlink:href="#DejaVuSans-30"/>
      </g>
     </g>
    </g>
    <g id="ytick_7">
     <g id="line2d_16">
      <g>
       <use style="stroke:#000000;stroke-width:0.8;" x="44.474375" xlink:href="#m20fd6334fb" y="21.242441"/>
      </g>
     </g>
     <g id="text_17">
      <!-- 60 -->
      <g transform="translate(24.749375 25.04166)scale(0.1 -0.1)">
       <use xlink:href="#DejaVuSans-36"/>
       <use x="63.623047" xlink:href="#DejaVuSans-30"/>
      </g>
     </g>
    </g>
    <g id="text_18">
     <!-- y -->
     <g transform="translate(17.837812 144.399125)rotate(-90)scale(0.14 -0.14)">
      <defs>
       <path d="M 2059 -325 
Q 1816 -950 1584 -1140 
Q 1353 -1331 966 -1331 
L 506 -1331 
L 506 -850 
L 844 -850 
Q 1081 -850 1212 -737 
Q 1344 -625 1503 -206 
L 1606 56 
L 191 3500 
L 800 3500 
L 1894 763 
L 2988 3500 
L 3597 3500 
L 2059 -325 
z
" id="DejaVuSans-79" transform="scale(0.015625)"/>
      </defs>
      <use xlink:href="#DejaVuSans-79"/>
     </g>
    </g>
   </g>
   <g id="line2d_17">
    <path clip-path="url(#p4782a87b6e)" d="M 60.707102 222.87886 
L 379.408125 217.093554 
" style="fill:none;stroke:#000000;stroke-dasharray:5.55,2.4;stroke-dashoffset:0;stroke-width:1.5;"/>
   </g>
   <g id="line2d_18">
    <path clip-path="url(#p4782a87b6e)" d="M 60.707102 173.554473 
L 379.408125 190.298199 
" style="fill:none;stroke:#000000;stroke-linecap:square;stroke-width:1.5;"/>
   </g>
   <g id="patch_3">
    <path d="M 44.474375 273.312 
L 44.474375 7.2 
" style="fill:none;stroke:#000000;stroke-linecap:square;stroke-linejoin:miter;stroke-width:0.8;"/>
   </g>
   <g id="patch_4">
    <path d="M 401.594375 273.312 
L 401.594375 7.2 
" style="fill:none;stroke:#000000;stroke-linecap:square;stroke-linejoin:miter;stroke-width:0.8;"/>
   </g>
   <g id="patch_5">
    <path d="M 44.474375 273.312 
L 401.594375 273.312 
" style="fill:none;stroke:#000000;stroke-linecap:square;stroke-linejoin:miter;stroke-width:0.8;"/>
   </g>
   <g id="patch_6">
    <path d="M 44.474375 7.2 
L 401.594375 7.2 
" style="fill:none;stroke:#000000;stroke-linecap:square;stroke-linejoin:miter;stroke-width:0.8;"/>
   </g>
   <g id="legend_1">
    <g id="patch_7">
     <path d="M 148.41875 104.86875 
L 297.65 104.86875 
Q 300.05 104.86875 300.05 102.46875 
L 300.05 15.6 
Q 300.05 13.2 297.65 13.2 
L 148.41875 13.2 
Q 146.01875 13.2 146.01875 15.6 
L 146.01875 102.46875 
Q 146.01875 104.86875 148.41875 104.86875 
z
" style="fill:#ffffff;opacity:0.8;stroke:#cccccc;stroke-linejoin:miter;"/>
    </g>
    <g id="line2d_19">
     <path d="M 150.81875 22.918125 
L 174.81875 22.918125 
" style="fill:none;stroke:#000000;stroke-dasharray:5.55,2.4;stroke-dashoffset:0;stroke-width:1.5;"/>
    </g>
    <g id="line2d_20"/>
    <g id="text_19">
     <!-- Without transfer -->
     <g transform="translate(184.41875 27.118125)scale(0.12 -0.12)">
      <defs>
       <path d="M 213 4666 
L 850 4666 
L 1831 722 
L 2809 4666 
L 3519 4666 
L 4500 722 
L 5478 4666 
L 6119 4666 
L 4947 0 
L 4153 0 
L 3169 4050 
L 2175 0 
L 1381 0 
L 213 4666 
z
" id="DejaVuSans-57" transform="scale(0.015625)"/>
       <path d="M 603 3500 
L 1178 3500 
L 1178 0 
L 603 0 
L 603 3500 
z
M 603 4863 
L 1178 4863 
L 1178 4134 
L 603 4134 
L 603 4863 
z
" id="DejaVuSans-69" transform="scale(0.015625)"/>
       <path d="M 1172 4494 
L 1172 3500 
L 2356 3500 
L 2356 3053 
L 1172 3053 
L 1172 1153 
Q 1172 725 1289 603 
Q 1406 481 1766 481 
L 2356 481 
L 2356 0 
L 1766 0 
Q 1100 0 847 248 
Q 594 497 594 1153 
L 594 3053 
L 172 3053 
L 172 3500 
L 594 3500 
L 594 4494 
L 1172 4494 
z
" id="DejaVuSans-74" transform="scale(0.015625)"/>
       <path d="M 3513 2113 
L 3513 0 
L 2938 0 
L 2938 2094 
Q 2938 2591 2744 2837 
Q 2550 3084 2163 3084 
Q 1697 3084 1428 2787 
Q 1159 2491 1159 1978 
L 1159 0 
L 581 0 
L 581 4863 
L 1159 4863 
L 1159 2956 
Q 1366 3272 1645 3428 
Q 1925 3584 2291 3584 
Q 2894 3584 3203 3211 
Q 3513 2838 3513 2113 
z
" id="DejaVuSans-68" transform="scale(0.015625)"/>
       <path d="M 1959 3097 
Q 1497 3097 1228 2736 
Q 959 2375 959 1747 
Q 959 1119 1226 758 
Q 1494 397 1959 397 
Q 2419 397 2687 759 
Q 2956 1122 2956 1747 
Q 2956 2369 2687 2733 
Q 2419 3097 1959 3097 
z
M 1959 3584 
Q 2709 3584 3137 3096 
Q 3566 2609 3566 1747 
Q 3566 888 3137 398 
Q 2709 -91 1959 -91 
Q 1206 -91 779 398 
Q 353 888 353 1747 
Q 353 2609 779 3096 
Q 1206 3584 1959 3584 
z
" id="DejaVuSans-6f" transform="scale(0.015625)"/>
       <path d="M 544 1381 
L 544 3500 
L 1119 3500 
L 1119 1403 
Q 1119 906 1312 657 
Q 1506 409 1894 409 
Q 2359 409 2629 706 
Q 2900 1003 2900 1516 
L 2900 3500 
L 3475 3500 
L 3475 0 
L 2900 0 
L 2900 538 
Q 2691 219 2414 64 
Q 2138 -91 1772 -91 
Q 1169 -91 856 284 
Q 544 659 544 1381 
z
M 1991 3584 
L 1991 3584 
z
" id="DejaVuSans-75" transform="scale(0.015625)"/>
       <path id="DejaVuSans-20" transform="scale(0.015625)"/>
       <path d="M 2631 2963 
Q 2534 3019 2420 3045 
Q 2306 3072 2169 3072 
Q 1681 3072 1420 2755 
Q 1159 2438 1159 1844 
L 1159 0 
L 581 0 
L 581 3500 
L 1159 3500 
L 1159 2956 
Q 1341 3275 1631 3429 
Q 1922 3584 2338 3584 
Q 2397 3584 2469 3576 
Q 2541 3569 2628 3553 
L 2631 2963 
z
" id="DejaVuSans-72" transform="scale(0.015625)"/>
       <path d="M 2194 1759 
Q 1497 1759 1228 1600 
Q 959 1441 959 1056 
Q 959 750 1161 570 
Q 1363 391 1709 391 
Q 2188 391 2477 730 
Q 2766 1069 2766 1631 
L 2766 1759 
L 2194 1759 
z
M 3341 1997 
L 3341 0 
L 2766 0 
L 2766 531 
Q 2569 213 2275 61 
Q 1981 -91 1556 -91 
Q 1019 -91 701 211 
Q 384 513 384 1019 
Q 384 1609 779 1909 
Q 1175 2209 1959 2209 
L 2766 2209 
L 2766 2266 
Q 2766 2663 2505 2880 
Q 2244 3097 1772 3097 
Q 1472 3097 1187 3025 
Q 903 2953 641 2809 
L 641 3341 
Q 956 3463 1253 3523 
Q 1550 3584 1831 3584 
Q 2591 3584 2966 3190 
Q 3341 2797 3341 1997 
z
" id="DejaVuSans-61" transform="scale(0.015625)"/>
       <path d="M 3513 2113 
L 3513 0 
L 2938 0 
L 2938 2094 
Q 2938 2591 2744 2837 
Q 2550 3084 2163 3084 
Q 1697 3084 1428 2787 
Q 1159 2491 1159 1978 
L 1159 0 
L 581 0 
L 581 3500 
L 1159 3500 
L 1159 2956 
Q 1366 3272 1645 3428 
Q 1925 3584 2291 3584 
Q 2894 3584 3203 3211 
Q 3513 2838 3513 2113 
z
" id="DejaVuSans-6e" transform="scale(0.015625)"/>
       <path d="M 2834 3397 
L 2834 2853 
Q 2591 2978 2328 3040 
Q 2066 3103 1784 3103 
Q 1356 3103 1142 2972 
Q 928 2841 928 2578 
Q 928 2378 1081 2264 
Q 1234 2150 1697 2047 
L 1894 2003 
Q 2506 1872 2764 1633 
Q 3022 1394 3022 966 
Q 3022 478 2636 193 
Q 2250 -91 1575 -91 
Q 1294 -91 989 -36 
Q 684 19 347 128 
L 347 722 
Q 666 556 975 473 
Q 1284 391 1588 391 
Q 1994 391 2212 530 
Q 2431 669 2431 922 
Q 2431 1156 2273 1281 
Q 2116 1406 1581 1522 
L 1381 1569 
Q 847 1681 609 1914 
Q 372 2147 372 2553 
Q 372 3047 722 3315 
Q 1072 3584 1716 3584 
Q 2034 3584 2315 3537 
Q 2597 3491 2834 3397 
z
" id="DejaVuSans-73" transform="scale(0.015625)"/>
       <path d="M 2375 4863 
L 2375 4384 
L 1825 4384 
Q 1516 4384 1395 4259 
Q 1275 4134 1275 3809 
L 1275 3500 
L 2222 3500 
L 2222 3053 
L 1275 3053 
L 1275 0 
L 697 0 
L 697 3053 
L 147 3053 
L 147 3500 
L 697 3500 
L 697 3744 
Q 697 4328 969 4595 
Q 1241 4863 1831 4863 
L 2375 4863 
z
" id="DejaVuSans-66" transform="scale(0.015625)"/>
       <path d="M 3597 1894 
L 3597 1613 
L 953 1613 
Q 991 1019 1311 708 
Q 1631 397 2203 397 
Q 2534 397 2845 478 
Q 3156 559 3463 722 
L 3463 178 
Q 3153 47 2828 -22 
Q 2503 -91 2169 -91 
Q 1331 -91 842 396 
Q 353 884 353 1716 
Q 353 2575 817 3079 
Q 1281 3584 2069 3584 
Q 2775 3584 3186 3129 
Q 3597 2675 3597 1894 
z
M 3022 2063 
Q 3016 2534 2758 2815 
Q 2500 3097 2075 3097 
Q 1594 3097 1305 2825 
Q 1016 2553 972 2059 
L 3022 2063 
z
" id="DejaVuSans-65" transform="scale(0.015625)"/>
      </defs>
      <use xlink:href="#DejaVuSans-57"/>
      <use x="96.626953" xlink:href="#DejaVuSans-69"/>
      <use x="124.410156" xlink:href="#DejaVuSans-74"/>
      <use x="163.619141" xlink:href="#DejaVuSans-68"/>
      <use x="226.998047" xlink:href="#DejaVuSans-6f"/>
      <use x="288.179688" xlink:href="#DejaVuSans-75"/>
      <use x="351.558594" xlink:href="#DejaVuSans-74"/>
      <use x="390.767578" xlink:href="#DejaVuSans-20"/>
      <use x="422.554688" xlink:href="#DejaVuSans-74"/>
      <use x="461.763672" xlink:href="#DejaVuSans-72"/>
      <use x="502.876953" xlink:href="#DejaVuSans-61"/>
      <use x="564.15625" xlink:href="#DejaVuSans-6e"/>
      <use x="627.535156" xlink:href="#DejaVuSans-73"/>
      <use x="679.634766" xlink:href="#DejaVuSans-66"/>
      <use x="714.839844" xlink:href="#DejaVuSans-65"/>
      <use x="776.363281" xlink:href="#DejaVuSans-72"/>
     </g>
    </g>
    <g id="line2d_21">
     <path d="M 150.81875 40.531875 
L 174.81875 40.531875 
" style="fill:none;stroke:#000000;stroke-linecap:square;stroke-width:1.5;"/>
    </g>
    <g id="line2d_22"/>
    <g id="text_20">
     <!-- With KMM transfer -->
     <g transform="translate(184.41875 44.731875)scale(0.12 -0.12)">
      <defs>
       <path d="M 628 4666 
L 1259 4666 
L 1259 2694 
L 3353 4666 
L 4166 4666 
L 1850 2491 
L 4331 0 
L 3500 0 
L 1259 2247 
L 1259 0 
L 628 0 
L 628 4666 
z
" id="DejaVuSans-4b" transform="scale(0.015625)"/>
       <path d="M 628 4666 
L 1569 4666 
L 2759 1491 
L 3956 4666 
L 4897 4666 
L 4897 0 
L 4281 0 
L 4281 4097 
L 3078 897 
L 2444 897 
L 1241 4097 
L 1241 0 
L 628 0 
L 628 4666 
z
" id="DejaVuSans-4d" transform="scale(0.015625)"/>
      </defs>
      <use xlink:href="#DejaVuSans-57"/>
      <use x="96.626953" xlink:href="#DejaVuSans-69"/>
      <use x="124.410156" xlink:href="#DejaVuSans-74"/>
      <use x="163.619141" xlink:href="#DejaVuSans-68"/>
      <use x="226.998047" xlink:href="#DejaVuSans-20"/>
      <use x="258.785156" xlink:href="#DejaVuSans-4b"/>
      <use x="324.361328" xlink:href="#DejaVuSans-4d"/>
      <use x="410.640625" xlink:href="#DejaVuSans-4d"/>
      <use x="496.919922" xlink:href="#DejaVuSans-20"/>
      <use x="528.707031" xlink:href="#DejaVuSans-74"/>
      <use x="567.916016" xlink:href="#DejaVuSans-72"/>
      <use x="609.029297" xlink:href="#DejaVuSans-61"/>
      <use x="670.308594" xlink:href="#DejaVuSans-6e"/>
      <use x="733.6875" xlink:href="#DejaVuSans-73"/>
      <use x="785.787109" xlink:href="#DejaVuSans-66"/>
      <use x="820.992188" xlink:href="#DejaVuSans-65"/>
      <use x="882.515625" xlink:href="#DejaVuSans-72"/>
     </g>
    </g>
    <g id="PathCollection_5">
     <g>
      <use style="stroke:#000000;stroke-width:1.5;" x="162.81875" xlink:href="#me00379a83f" y="59.195625"/>
     </g>
    </g>
    <g id="text_21">
     <!-- Source Domain -->
     <g transform="translate(184.41875 62.345625)scale(0.12 -0.12)">
      <defs>
       <path d="M 3425 4513 
L 3425 3897 
Q 3066 4069 2747 4153 
Q 2428 4238 2131 4238 
Q 1616 4238 1336 4038 
Q 1056 3838 1056 3469 
Q 1056 3159 1242 3001 
Q 1428 2844 1947 2747 
L 2328 2669 
Q 3034 2534 3370 2195 
Q 3706 1856 3706 1288 
Q 3706 609 3251 259 
Q 2797 -91 1919 -91 
Q 1588 -91 1214 -16 
Q 841 59 441 206 
L 441 856 
Q 825 641 1194 531 
Q 1563 422 1919 422 
Q 2459 422 2753 634 
Q 3047 847 3047 1241 
Q 3047 1584 2836 1778 
Q 2625 1972 2144 2069 
L 1759 2144 
Q 1053 2284 737 2584 
Q 422 2884 422 3419 
Q 422 4038 858 4394 
Q 1294 4750 2059 4750 
Q 2388 4750 2728 4690 
Q 3069 4631 3425 4513 
z
" id="DejaVuSans-53" transform="scale(0.015625)"/>
       <path d="M 3122 3366 
L 3122 2828 
Q 2878 2963 2633 3030 
Q 2388 3097 2138 3097 
Q 1578 3097 1268 2742 
Q 959 2388 959 1747 
Q 959 1106 1268 751 
Q 1578 397 2138 397 
Q 2388 397 2633 464 
Q 2878 531 3122 666 
L 3122 134 
Q 2881 22 2623 -34 
Q 2366 -91 2075 -91 
Q 1284 -91 818 406 
Q 353 903 353 1747 
Q 353 2603 823 3093 
Q 1294 3584 2113 3584 
Q 2378 3584 2631 3529 
Q 2884 3475 3122 3366 
z
" id="DejaVuSans-63" transform="scale(0.015625)"/>
       <path d="M 1259 4147 
L 1259 519 
L 2022 519 
Q 2988 519 3436 956 
Q 3884 1394 3884 2338 
Q 3884 3275 3436 3711 
Q 2988 4147 2022 4147 
L 1259 4147 
z
M 628 4666 
L 1925 4666 
Q 3281 4666 3915 4102 
Q 4550 3538 4550 2338 
Q 4550 1131 3912 565 
Q 3275 0 1925 0 
L 628 0 
L 628 4666 
z
" id="DejaVuSans-44" transform="scale(0.015625)"/>
       <path d="M 3328 2828 
Q 3544 3216 3844 3400 
Q 4144 3584 4550 3584 
Q 5097 3584 5394 3201 
Q 5691 2819 5691 2113 
L 5691 0 
L 5113 0 
L 5113 2094 
Q 5113 2597 4934 2840 
Q 4756 3084 4391 3084 
Q 3944 3084 3684 2787 
Q 3425 2491 3425 1978 
L 3425 0 
L 2847 0 
L 2847 2094 
Q 2847 2600 2669 2842 
Q 2491 3084 2119 3084 
Q 1678 3084 1418 2786 
Q 1159 2488 1159 1978 
L 1159 0 
L 581 0 
L 581 3500 
L 1159 3500 
L 1159 2956 
Q 1356 3278 1631 3431 
Q 1906 3584 2284 3584 
Q 2666 3584 2933 3390 
Q 3200 3197 3328 2828 
z
" id="DejaVuSans-6d" transform="scale(0.015625)"/>
      </defs>
      <use xlink:href="#DejaVuSans-53"/>
      <use x="63.476562" xlink:href="#DejaVuSans-6f"/>
      <use x="124.658203" xlink:href="#DejaVuSans-75"/>
      <use x="188.037109" xlink:href="#DejaVuSans-72"/>
      <use x="226.900391" xlink:href="#DejaVuSans-63"/>
      <use x="281.880859" xlink:href="#DejaVuSans-65"/>
      <use x="343.404297" xlink:href="#DejaVuSans-20"/>
      <use x="375.191406" xlink:href="#DejaVuSans-44"/>
      <use x="452.193359" xlink:href="#DejaVuSans-6f"/>
      <use x="513.375" xlink:href="#DejaVuSans-6d"/>
      <use x="610.787109" xlink:href="#DejaVuSans-61"/>
      <use x="672.066406" xlink:href="#DejaVuSans-69"/>
      <use x="699.849609" xlink:href="#DejaVuSans-6e"/>
     </g>
    </g>
    <g id="PathCollection_6">
     <g>
      <use style="fill:#ff0000;stroke:#ff0000;stroke-width:1.5;" x="162.81875" xlink:href="#m94a6bc280f" y="76.809375"/>
     </g>
    </g>
    <g id="text_22">
     <!-- Target Domain -->
     <g transform="translate(184.41875 79.959375)scale(0.12 -0.12)">
      <defs>
       <path d="M -19 4666 
L 3928 4666 
L 3928 4134 
L 2272 4134 
L 2272 0 
L 1638 0 
L 1638 4134 
L -19 4134 
L -19 4666 
z
" id="DejaVuSans-54" transform="scale(0.015625)"/>
       <path d="M 2906 1791 
Q 2906 2416 2648 2759 
Q 2391 3103 1925 3103 
Q 1463 3103 1205 2759 
Q 947 2416 947 1791 
Q 947 1169 1205 825 
Q 1463 481 1925 481 
Q 2391 481 2648 825 
Q 2906 1169 2906 1791 
z
M 3481 434 
Q 3481 -459 3084 -895 
Q 2688 -1331 1869 -1331 
Q 1566 -1331 1297 -1286 
Q 1028 -1241 775 -1147 
L 775 -588 
Q 1028 -725 1275 -790 
Q 1522 -856 1778 -856 
Q 2344 -856 2625 -561 
Q 2906 -266 2906 331 
L 2906 616 
Q 2728 306 2450 153 
Q 2172 0 1784 0 
Q 1141 0 747 490 
Q 353 981 353 1791 
Q 353 2603 747 3093 
Q 1141 3584 1784 3584 
Q 2172 3584 2450 3431 
Q 2728 3278 2906 2969 
L 2906 3500 
L 3481 3500 
L 3481 434 
z
" id="DejaVuSans-67" transform="scale(0.015625)"/>
      </defs>
      <use xlink:href="#DejaVuSans-54"/>
      <use x="44.583984" xlink:href="#DejaVuSans-61"/>
      <use x="105.863281" xlink:href="#DejaVuSans-72"/>
      <use x="145.226562" xlink:href="#DejaVuSans-67"/>
      <use x="208.703125" xlink:href="#DejaVuSans-65"/>
      <use x="270.226562" xlink:href="#DejaVuSans-74"/>
      <use x="309.435547" xlink:href="#DejaVuSans-20"/>
      <use x="341.222656" xlink:href="#DejaVuSans-44"/>
      <use x="418.224609" xlink:href="#DejaVuSans-6f"/>
      <use x="479.40625" xlink:href="#DejaVuSans-6d"/>
      <use x="576.818359" xlink:href="#DejaVuSans-61"/>
      <use x="638.097656" xlink:href="#DejaVuSans-69"/>
      <use x="665.880859" xlink:href="#DejaVuSans-6e"/>
     </g>
    </g>
    <g id="PathCollection_7">
     <g>
      <use style="fill:#bfbf00;stroke:#bfbf00;" x="162.81875" xlink:href="#mb948dbe579" y="94.423125"/>
     </g>
    </g>
    <g id="text_23">
     <!-- Test Data -->
     <g transform="translate(184.41875 97.573125)scale(0.12 -0.12)">
      <use xlink:href="#DejaVuSans-54"/>
      <use x="44.083984" xlink:href="#DejaVuSans-65"/>
      <use x="105.607422" xlink:href="#DejaVuSans-73"/>
      <use x="157.707031" xlink:href="#DejaVuSans-74"/>
      <use x="196.916016" xlink:href="#DejaVuSans-20"/>
      <use x="228.703125" xlink:href="#DejaVuSans-44"/>
      <use x="305.705078" xlink:href="#DejaVuSans-61"/>
      <use x="366.984375" xlink:href="#DejaVuSans-74"/>
      <use x="406.193359" xlink:href="#DejaVuSans-61"/>
     </g>
    </g>
   </g>
  </g>
 </g>
 <defs>
  <clipPath id="p4782a87b6e">
   <rect height="266.112" width="357.12" x="44.474375" y="7.2"/>
  </clipPath>
 </defs>
</svg>
