<?xml version="1.0" encoding="utf-8" standalone="no"?>
<!DOCTYPE svg PUBLIC "-//W3C//DTD SVG 1.1//EN"
  "http://www.w3.org/Graphics/SVG/1.1/DTD/svg11.dtd">
<svg xmlns:xlink="http://www.w3.org/1999/xlink" width="414.60125pt" height="320.546375pt" viewBox="0 0 414.60125 320.546375" xmlns="http://www.w3.org/2000/svg" version="1.1">
 <metadata>
  <rdf:RDF xmlns:dc="http://purl.org/dc/elements/1.1/" xmlns:cc="http://creativecommons.org/ns#" xmlns:rdf="http://www.w3.org/1999/02/22-rdf-syntax-ns#">
   <cc:Work>
    <dc:type rdf:resource="http://purl.org/dc/dcmitype/StillImage"/>
    <dc:date>2023-05-03T20:25:27.002978</dc:date>
    <dc:format>image/svg+xml</dc:format>
    <dc:creator>
     <cc:Agent>
      <dc:title>Matplotlib v3.7.1, https://matplotlib.org/</dc:title>
     </cc:Agent>
    </dc:creator>
   </cc:Work>
  </rdf:RDF>
 </metadata>
 <defs>
  <style type="text/css">*{stroke-linejoin: round; stroke-linecap: butt}</style>
 </defs>
 <g id="figure_1">
  <g id="patch_1">
   <path d="M 0 320.546375 
L 414.60125 320.546375 
L 414.60125 0 
L 0 0 
z
" style="fill: #ffffff"/>
  </g>
  <g id="axes_1">
   <g id="patch_2">
    <path d="M 50.28125 273.312 
L 407.40125 273.312 
L 407.40125 7.2 
L 50.28125 7.2 
z
" style="fill: #ffffff"/>
   </g>
   <g id="PolyCollection_1">
    <defs>
     <path id="m1504f65c44" d="M 66.513977 -134.408996 
L 66.513977 -59.330375 
L 69.793316 -61.015641 
L 73.072655 -62.700908 
L 76.351994 -64.386174 
L 79.631333 -66.071441 
L 82.910671 -67.756707 
L 86.19001 -69.441974 
L 89.469349 -71.12724 
L 92.748688 -72.812507 
L 96.028027 -74.497773 
L 99.307366 -76.18304 
L 102.586705 -77.868306 
L 105.866043 -79.553572 
L 109.145382 -81.238839 
L 112.424721 -82.924105 
L 115.70406 -84.609372 
L 118.983399 -86.294638 
L 122.262738 -87.979905 
L 125.542076 -89.665171 
L 128.821415 -91.350438 
L 132.100754 -93.035704 
L 135.380093 -94.720971 
L 138.659432 -96.406237 
L 141.938771 -98.091504 
L 145.21811 -99.77677 
L 148.497448 -101.462036 
L 151.776787 -103.147303 
L 155.056126 -104.832569 
L 158.335465 -106.517836 
L 161.614804 -108.203102 
L 164.894143 -109.888369 
L 168.173481 -111.573635 
L 171.45282 -113.258902 
L 174.732159 -114.944168 
L 178.011498 -116.629435 
L 181.290837 -118.314701 
L 184.570176 -119.999967 
L 187.849514 -121.685234 
L 191.128853 -123.3705 
L 194.408192 -125.055767 
L 197.687531 -126.741033 
L 200.96687 -128.4263 
L 204.246209 -130.111566 
L 207.525548 -131.796833 
L 210.804886 -133.482099 
L 214.084225 -135.167366 
L 217.363564 -136.852632 
L 220.642903 -138.537899 
L 223.922242 -140.223165 
L 227.201581 -141.908431 
L 230.480919 -143.593698 
L 233.760258 -145.278964 
L 237.039597 -146.964231 
L 240.318936 -148.649497 
L 243.598275 -150.334764 
L 246.877614 -152.02003 
L 250.156952 -153.705297 
L 253.436291 -155.390563 
L 256.71563 -157.07583 
L 259.994969 -158.761096 
L 263.274308 -160.446362 
L 266.553647 -162.131629 
L 269.832986 -163.816895 
L 273.112324 -165.502162 
L 276.391663 -167.187428 
L 279.671002 -168.872695 
L 282.950341 -170.557961 
L 286.22968 -172.243228 
L 289.509019 -173.928494 
L 292.788357 -175.613761 
L 296.067696 -177.299027 
L 299.347035 -178.984293 
L 302.626374 -180.66956 
L 305.905713 -182.354826 
L 309.185052 -184.040093 
L 312.46439 -185.725359 
L 315.743729 -187.410626 
L 319.023068 -189.095892 
L 322.302407 -190.781159 
L 325.581746 -192.466425 
L 328.861085 -194.151692 
L 332.140424 -195.836958 
L 335.419762 -197.522225 
L 338.699101 -199.207491 
L 341.97844 -200.892757 
L 345.257779 -202.578024 
L 348.537118 -204.26329 
L 351.816457 -205.948557 
L 355.095795 -207.633823 
L 358.375134 -209.31909 
L 361.654473 -211.004356 
L 364.933812 -212.689623 
L 368.213151 -214.374889 
L 371.49249 -216.060156 
L 374.771829 -217.745422 
L 378.051167 -219.430688 
L 381.330506 -221.115955 
L 384.609845 -222.801221 
L 387.889184 -224.486488 
L 391.168523 -226.171754 
L 391.168523 -301.250375 
L 391.168523 -301.250375 
L 387.889184 -299.565109 
L 384.609845 -297.879842 
L 381.330506 -296.194576 
L 378.051167 -294.509309 
L 374.771829 -292.824043 
L 371.49249 -291.138776 
L 368.213151 -289.45351 
L 364.933812 -287.768243 
L 361.654473 -286.082977 
L 358.375134 -284.39771 
L 355.095795 -282.712444 
L 351.816457 -281.027178 
L 348.537118 -279.341911 
L 345.257779 -277.656645 
L 341.97844 -275.971378 
L 338.699101 -274.286112 
L 335.419762 -272.600845 
L 332.140424 -270.915579 
L 328.861085 -269.230312 
L 325.581746 -267.545046 
L 322.302407 -265.859779 
L 319.023068 -264.174513 
L 315.743729 -262.489246 
L 312.46439 -260.80398 
L 309.185052 -259.118714 
L 305.905713 -257.433447 
L 302.626374 -255.748181 
L 299.347035 -254.062914 
L 296.067696 -252.377648 
L 292.788357 -250.692381 
L 289.509019 -249.007115 
L 286.22968 -247.321848 
L 282.950341 -245.636582 
L 279.671002 -243.951315 
L 276.391663 -242.266049 
L 273.112324 -240.580783 
L 269.832986 -238.895516 
L 266.553647 -237.21025 
L 263.274308 -235.524983 
L 259.994969 -233.839717 
L 256.71563 -232.15445 
L 253.436291 -230.469184 
L 250.156952 -228.783917 
L 246.877614 -227.098651 
L 243.598275 -225.413384 
L 240.318936 -223.728118 
L 237.039597 -222.042851 
L 233.760258 -220.357585 
L 230.480919 -218.672319 
L 227.201581 -216.987052 
L 223.922242 -215.301786 
L 220.642903 -213.616519 
L 217.363564 -211.931253 
L 214.084225 -210.245986 
L 210.804886 -208.56072 
L 207.525548 -206.875453 
L 204.246209 -205.190187 
L 200.96687 -203.50492 
L 197.687531 -201.819654 
L 194.408192 -200.134388 
L 191.128853 -198.449121 
L 187.849514 -196.763855 
L 184.570176 -195.078588 
L 181.290837 -193.393322 
L 178.011498 -191.708055 
L 174.732159 -190.022789 
L 171.45282 -188.337522 
L 168.173481 -186.652256 
L 164.894143 -184.966989 
L 161.614804 -183.281723 
L 158.335465 -181.596457 
L 155.056126 -179.91119 
L 151.776787 -178.225924 
L 148.497448 -176.540657 
L 145.21811 -174.855391 
L 141.938771 -173.170124 
L 138.659432 -171.484858 
L 135.380093 -169.799591 
L 132.100754 -168.114325 
L 128.821415 -166.429058 
L 125.542076 -164.743792 
L 122.262738 -163.058525 
L 118.983399 -161.373259 
L 115.70406 -159.687993 
L 112.424721 -158.002726 
L 109.145382 -156.31746 
L 105.866043 -154.632193 
L 102.586705 -152.946927 
L 99.307366 -151.26166 
L 96.028027 -149.576394 
L 92.748688 -147.891127 
L 89.469349 -146.205861 
L 86.19001 -144.520594 
L 82.910671 -142.835328 
L 79.631333 -141.150062 
L 76.351994 -139.464795 
L 73.072655 -137.779529 
L 69.793316 -136.094262 
L 66.513977 -134.408996 
z
" style="stroke: #00ffff; stroke-opacity: 0.5"/>
    </defs>
    <g clip-path="url(#paf29bf6720)">
     <use xlink:href="#m1504f65c44" x="0" y="320.546375" style="fill: #00ffff; fill-opacity: 0.5; stroke: #00ffff; stroke-opacity: 0.5"/>
    </g>
   </g>
   <g id="matplotlib.axis_1">
    <g id="xtick_1">
     <g id="line2d_1">
      <defs>
       <path id="m94ead7ae35" d="M 0 0 
L 0 3.5 
" style="stroke: #000000; stroke-width: 0.8"/>
      </defs>
      <g>
       <use xlink:href="#m94ead7ae35" x="66.513977" y="273.312" style="stroke: #000000; stroke-width: 0.8"/>
      </g>
     </g>
     <g id="text_1">
      <!-- 0 -->
      <g transform="translate(63.332727 287.910437) scale(0.1 -0.1)">
       <defs>
        <path id="DejaVuSans-30" d="M 2034 4250 
Q 1547 4250 1301 3770 
Q 1056 3291 1056 2328 
Q 1056 1369 1301 889 
Q 1547 409 2034 409 
Q 2525 409 2770 889 
Q 3016 1369 3016 2328 
Q 3016 3291 2770 3770 
Q 2525 4250 2034 4250 
z
M 2034 4750 
Q 2819 4750 3233 4129 
Q 3647 3509 3647 2328 
Q 3647 1150 3233 529 
Q 2819 -91 2034 -91 
Q 1250 -91 836 529 
Q 422 1150 422 2328 
Q 422 3509 836 4129 
Q 1250 4750 2034 4750 
z
" transform="scale(0.015625)"/>
       </defs>
       <use xlink:href="#DejaVuSans-30"/>
      </g>
     </g>
    </g>
    <g id="xtick_2">
     <g id="line2d_2">
      <g>
       <use xlink:href="#m94ead7ae35" x="107.095795" y="273.312" style="stroke: #000000; stroke-width: 0.8"/>
      </g>
     </g>
     <g id="text_2">
      <!-- 5 -->
      <g transform="translate(103.914545 287.910437) scale(0.1 -0.1)">
       <defs>
        <path id="DejaVuSans-35" d="M 691 4666 
L 3169 4666 
L 3169 4134 
L 1269 4134 
L 1269 2991 
Q 1406 3038 1543 3061 
Q 1681 3084 1819 3084 
Q 2600 3084 3056 2656 
Q 3513 2228 3513 1497 
Q 3513 744 3044 326 
Q 2575 -91 1722 -91 
Q 1428 -91 1123 -41 
Q 819 9 494 109 
L 494 744 
Q 775 591 1075 516 
Q 1375 441 1709 441 
Q 2250 441 2565 725 
Q 2881 1009 2881 1497 
Q 2881 1984 2565 2268 
Q 2250 2553 1709 2553 
Q 1456 2553 1204 2497 
Q 953 2441 691 2322 
L 691 4666 
z
" transform="scale(0.015625)"/>
       </defs>
       <use xlink:href="#DejaVuSans-35"/>
      </g>
     </g>
    </g>
    <g id="xtick_3">
     <g id="line2d_3">
      <g>
       <use xlink:href="#m94ead7ae35" x="147.677614" y="273.312" style="stroke: #000000; stroke-width: 0.8"/>
      </g>
     </g>
     <g id="text_3">
      <!-- 10 -->
      <g transform="translate(141.315114 287.910437) scale(0.1 -0.1)">
       <defs>
        <path id="DejaVuSans-31" d="M 794 531 
L 1825 531 
L 1825 4091 
L 703 3866 
L 703 4441 
L 1819 4666 
L 2450 4666 
L 2450 531 
L 3481 531 
L 3481 0 
L 794 0 
L 794 531 
z
" transform="scale(0.015625)"/>
       </defs>
       <use xlink:href="#DejaVuSans-31"/>
       <use xlink:href="#DejaVuSans-30" x="63.623047"/>
      </g>
     </g>
    </g>
    <g id="xtick_4">
     <g id="line2d_4">
      <g>
       <use xlink:href="#m94ead7ae35" x="188.259432" y="273.312" style="stroke: #000000; stroke-width: 0.8"/>
      </g>
     </g>
     <g id="text_4">
      <!-- 15 -->
      <g transform="translate(181.896932 287.910437) scale(0.1 -0.1)">
       <use xlink:href="#DejaVuSans-31"/>
       <use xlink:href="#DejaVuSans-35" x="63.623047"/>
      </g>
     </g>
    </g>
    <g id="xtick_5">
     <g id="line2d_5">
      <g>
       <use xlink:href="#m94ead7ae35" x="228.84125" y="273.312" style="stroke: #000000; stroke-width: 0.8"/>
      </g>
     </g>
     <g id="text_5">
      <!-- 20 -->
      <g transform="translate(222.47875 287.910437) scale(0.1 -0.1)">
       <defs>
        <path id="DejaVuSans-32" d="M 1228 531 
L 3431 531 
L 3431 0 
L 469 0 
L 469 531 
Q 828 903 1448 1529 
Q 2069 2156 2228 2338 
Q 2531 2678 2651 2914 
Q 2772 3150 2772 3378 
Q 2772 3750 2511 3984 
Q 2250 4219 1831 4219 
Q 1534 4219 1204 4116 
Q 875 4013 500 3803 
L 500 4441 
Q 881 4594 1212 4672 
Q 1544 4750 1819 4750 
Q 2544 4750 2975 4387 
Q 3406 4025 3406 3419 
Q 3406 3131 3298 2873 
Q 3191 2616 2906 2266 
Q 2828 2175 2409 1742 
Q 1991 1309 1228 531 
z
" transform="scale(0.015625)"/>
       </defs>
       <use xlink:href="#DejaVuSans-32"/>
       <use xlink:href="#DejaVuSans-30" x="63.623047"/>
      </g>
     </g>
    </g>
    <g id="xtick_6">
     <g id="line2d_6">
      <g>
       <use xlink:href="#m94ead7ae35" x="269.423068" y="273.312" style="stroke: #000000; stroke-width: 0.8"/>
      </g>
     </g>
     <g id="text_6">
      <!-- 25 -->
      <g transform="translate(263.060568 287.910437) scale(0.1 -0.1)">
       <use xlink:href="#DejaVuSans-32"/>
       <use xlink:href="#DejaVuSans-35" x="63.623047"/>
      </g>
     </g>
    </g>
    <g id="xtick_7">
     <g id="line2d_7">
      <g>
       <use xlink:href="#m94ead7ae35" x="310.004886" y="273.312" style="stroke: #000000; stroke-width: 0.8"/>
      </g>
     </g>
     <g id="text_7">
      <!-- 30 -->
      <g transform="translate(303.642386 287.910437) scale(0.1 -0.1)">
       <defs>
        <path id="DejaVuSans-33" d="M 2597 2516 
Q 3050 2419 3304 2112 
Q 3559 1806 3559 1356 
Q 3559 666 3084 287 
Q 2609 -91 1734 -91 
Q 1441 -91 1130 -33 
Q 819 25 488 141 
L 488 750 
Q 750 597 1062 519 
Q 1375 441 1716 441 
Q 2309 441 2620 675 
Q 2931 909 2931 1356 
Q 2931 1769 2642 2001 
Q 2353 2234 1838 2234 
L 1294 2234 
L 1294 2753 
L 1863 2753 
Q 2328 2753 2575 2939 
Q 2822 3125 2822 3475 
Q 2822 3834 2567 4026 
Q 2313 4219 1838 4219 
Q 1578 4219 1281 4162 
Q 984 4106 628 3988 
L 628 4550 
Q 988 4650 1302 4700 
Q 1616 4750 1894 4750 
Q 2613 4750 3031 4423 
Q 3450 4097 3450 3541 
Q 3450 3153 3228 2886 
Q 3006 2619 2597 2516 
z
" transform="scale(0.015625)"/>
       </defs>
       <use xlink:href="#DejaVuSans-33"/>
       <use xlink:href="#DejaVuSans-30" x="63.623047"/>
      </g>
     </g>
    </g>
    <g id="xtick_8">
     <g id="line2d_8">
      <g>
       <use xlink:href="#m94ead7ae35" x="350.586705" y="273.312" style="stroke: #000000; stroke-width: 0.8"/>
      </g>
     </g>
     <g id="text_8">
      <!-- 35 -->
      <g transform="translate(344.224205 287.910437) scale(0.1 -0.1)">
       <use xlink:href="#DejaVuSans-33"/>
       <use xlink:href="#DejaVuSans-35" x="63.623047"/>
      </g>
     </g>
    </g>
    <g id="xtick_9">
     <g id="line2d_9">
      <g>
       <use xlink:href="#m94ead7ae35" x="391.168523" y="273.312" style="stroke: #000000; stroke-width: 0.8"/>
      </g>
     </g>
     <g id="text_9">
      <!-- 40 -->
      <g transform="translate(384.806023 287.910437) scale(0.1 -0.1)">
       <defs>
        <path id="DejaVuSans-34" d="M 2419 4116 
L 825 1625 
L 2419 1625 
L 2419 4116 
z
M 2253 4666 
L 3047 4666 
L 3047 1625 
L 3713 1625 
L 3713 1100 
L 3047 1100 
L 3047 0 
L 2419 0 
L 2419 1100 
L 313 1100 
L 313 1709 
L 2253 4666 
z
" transform="scale(0.015625)"/>
       </defs>
       <use xlink:href="#DejaVuSans-34"/>
       <use xlink:href="#DejaVuSans-30" x="63.623047"/>
      </g>
     </g>
    </g>
    <g id="text_10">
     <!-- x2 -->
     <g transform="translate(216.56 309.187) scale(0.2 -0.2)">
      <defs>
       <path id="DejaVuSans-78" d="M 3513 3500 
L 2247 1797 
L 3578 0 
L 2900 0 
L 1881 1375 
L 863 0 
L 184 0 
L 1544 1831 
L 300 3500 
L 978 3500 
L 1906 2253 
L 2834 3500 
L 3513 3500 
z
" transform="scale(0.015625)"/>
      </defs>
      <use xlink:href="#DejaVuSans-78"/>
      <use xlink:href="#DejaVuSans-32" x="59.179688"/>
     </g>
    </g>
   </g>
   <g id="matplotlib.axis_2">
    <g id="ytick_1">
     <g id="line2d_10">
      <defs>
       <path id="m983a2370c5" d="M 0 0 
L -3.5 0 
" style="stroke: #000000; stroke-width: 0.8"/>
      </defs>
      <g>
       <use xlink:href="#m983a2370c5" x="50.28125" y="244.531862" style="stroke: #000000; stroke-width: 0.8"/>
      </g>
     </g>
     <g id="text_11">
      <!-- 0 -->
      <g transform="translate(36.91875 248.331081) scale(0.1 -0.1)">
       <use xlink:href="#DejaVuSans-30"/>
      </g>
     </g>
    </g>
    <g id="ytick_2">
     <g id="line2d_11">
      <g>
       <use xlink:href="#m983a2370c5" x="50.28125" y="202.821517" style="stroke: #000000; stroke-width: 0.8"/>
      </g>
     </g>
     <g id="text_12">
      <!-- 10 -->
      <g transform="translate(30.55625 206.620736) scale(0.1 -0.1)">
       <use xlink:href="#DejaVuSans-31"/>
       <use xlink:href="#DejaVuSans-30" x="63.623047"/>
      </g>
     </g>
    </g>
    <g id="ytick_3">
     <g id="line2d_12">
      <g>
       <use xlink:href="#m983a2370c5" x="50.28125" y="161.111172" style="stroke: #000000; stroke-width: 0.8"/>
      </g>
     </g>
     <g id="text_13">
      <!-- 20 -->
      <g transform="translate(30.55625 164.910391) scale(0.1 -0.1)">
       <use xlink:href="#DejaVuSans-32"/>
       <use xlink:href="#DejaVuSans-30" x="63.623047"/>
      </g>
     </g>
    </g>
    <g id="ytick_4">
     <g id="line2d_13">
      <g>
       <use xlink:href="#m983a2370c5" x="50.28125" y="119.400828" style="stroke: #000000; stroke-width: 0.8"/>
      </g>
     </g>
     <g id="text_14">
      <!-- 30 -->
      <g transform="translate(30.55625 123.200046) scale(0.1 -0.1)">
       <use xlink:href="#DejaVuSans-33"/>
       <use xlink:href="#DejaVuSans-30" x="63.623047"/>
      </g>
     </g>
    </g>
    <g id="ytick_5">
     <g id="line2d_14">
      <g>
       <use xlink:href="#m983a2370c5" x="50.28125" y="77.690483" style="stroke: #000000; stroke-width: 0.8"/>
      </g>
     </g>
     <g id="text_15">
      <!-- 40 -->
      <g transform="translate(30.55625 81.489702) scale(0.1 -0.1)">
       <use xlink:href="#DejaVuSans-34"/>
       <use xlink:href="#DejaVuSans-30" x="63.623047"/>
      </g>
     </g>
    </g>
    <g id="ytick_6">
     <g id="line2d_15">
      <g>
       <use xlink:href="#m983a2370c5" x="50.28125" y="35.980138" style="stroke: #000000; stroke-width: 0.8"/>
      </g>
     </g>
     <g id="text_16">
      <!-- 50 -->
      <g transform="translate(30.55625 39.779357) scale(0.1 -0.1)">
       <use xlink:href="#DejaVuSans-35"/>
       <use xlink:href="#DejaVuSans-30" x="63.623047"/>
      </g>
     </g>
    </g>
    <g id="text_17">
     <!-- y -->
     <g transform="translate(22.396875 146.17475) rotate(-90) scale(0.2 -0.2)">
      <defs>
       <path id="DejaVuSans-79" d="M 2059 -325 
Q 1816 -950 1584 -1140 
Q 1353 -1331 966 -1331 
L 506 -1331 
L 506 -850 
L 844 -850 
Q 1081 -850 1212 -737 
Q 1344 -625 1503 -206 
L 1606 56 
L 191 3500 
L 800 3500 
L 1894 763 
L 2988 3500 
L 3597 3500 
L 2059 -325 
z
" transform="scale(0.015625)"/>
      </defs>
      <use xlink:href="#DejaVuSans-79"/>
     </g>
    </g>
   </g>
   <g id="patch_3">
    <path d="M 50.28125 273.312 
L 50.28125 7.2 
" style="fill: none; stroke: #000000; stroke-width: 0.8; stroke-linejoin: miter; stroke-linecap: square"/>
   </g>
   <g id="patch_4">
    <path d="M 407.40125 273.312 
L 407.40125 7.2 
" style="fill: none; stroke: #000000; stroke-width: 0.8; stroke-linejoin: miter; stroke-linecap: square"/>
   </g>
   <g id="patch_5">
    <path d="M 50.28125 273.312 
L 407.40125 273.312 
" style="fill: none; stroke: #000000; stroke-width: 0.8; stroke-linejoin: miter; stroke-linecap: square"/>
   </g>
   <g id="patch_6">
    <path d="M 50.28125 7.2 
L 407.40125 7.2 
" style="fill: none; stroke: #000000; stroke-width: 0.8; stroke-linejoin: miter; stroke-linecap: square"/>
   </g>
   <g id="line2d_16">
    <path d="M 66.513977 223.67669 
L 69.793316 221.991423 
L 73.072655 220.306157 
L 76.351994 218.62089 
L 79.631333 216.935624 
L 82.910671 215.250357 
L 86.19001 213.565091 
L 89.469349 211.879824 
L 92.748688 210.194558 
L 96.028027 208.509292 
L 99.307366 206.824025 
L 102.586705 205.138759 
L 105.866043 203.453492 
L 109.145382 201.768226 
L 112.424721 200.082959 
L 115.70406 198.397693 
L 118.983399 196.712426 
L 122.262738 195.02716 
L 125.542076 193.341893 
L 128.821415 191.656627 
L 132.100754 189.971361 
L 135.380093 188.286094 
L 138.659432 186.600828 
L 141.938771 184.915561 
L 145.21811 183.230295 
L 148.497448 181.545028 
L 151.776787 179.859762 
L 155.056126 178.174495 
L 158.335465 176.489229 
L 161.614804 174.803962 
L 164.894143 173.118696 
L 168.173481 171.433429 
L 171.45282 169.748163 
L 174.732159 168.062897 
L 178.011498 166.37763 
L 181.290837 164.692364 
L 184.570176 163.007097 
L 187.849514 161.321831 
L 191.128853 159.636564 
L 194.408192 157.951298 
L 197.687531 156.266031 
L 200.96687 154.580765 
L 204.246209 152.895498 
L 207.525548 151.210232 
L 210.804886 149.524966 
L 214.084225 147.839699 
L 217.363564 146.154433 
L 220.642903 144.469166 
L 223.922242 142.7839 
L 227.201581 141.098633 
L 230.480919 139.413367 
L 233.760258 137.7281 
L 237.039597 136.042834 
L 240.318936 134.357567 
L 243.598275 132.672301 
L 246.877614 130.987034 
L 250.156952 129.301768 
L 253.436291 127.616502 
L 256.71563 125.931235 
L 259.994969 124.245969 
L 263.274308 122.560702 
L 266.553647 120.875436 
L 269.832986 119.190169 
L 273.112324 117.504903 
L 276.391663 115.819636 
L 279.671002 114.13437 
L 282.950341 112.449103 
L 286.22968 110.763837 
L 289.509019 109.078571 
L 292.788357 107.393304 
L 296.067696 105.708038 
L 299.347035 104.022771 
L 302.626374 102.337505 
L 305.905713 100.652238 
L 309.185052 98.966972 
L 312.46439 97.281705 
L 315.743729 95.596439 
L 319.023068 93.911172 
L 322.302407 92.225906 
L 325.581746 90.540639 
L 328.861085 88.855373 
L 332.140424 87.170107 
L 335.419762 85.48484 
L 338.699101 83.799574 
L 341.97844 82.114307 
L 345.257779 80.429041 
L 348.537118 78.743774 
L 351.816457 77.058508 
L 355.095795 75.373241 
L 358.375134 73.687975 
L 361.654473 72.002708 
L 364.933812 70.317442 
L 368.213151 68.632176 
L 371.49249 66.946909 
L 374.771829 65.261643 
L 378.051167 63.576376 
L 381.330506 61.89111 
L 384.609845 60.205843 
L 387.889184 58.520577 
L 391.168523 56.83531 
" clip-path="url(#paf29bf6720)" style="fill: none; stroke: #000000; stroke-width: 3; stroke-linecap: square"/>
   </g>
   <g id="PathCollection_1">
    <defs>
     <path id="m3806405a2a" d="M 0 3.535534 
C 0.937635 3.535534 1.836992 3.163008 2.5 2.5 
C 3.163008 1.836992 3.535534 0.937635 3.535534 0 
C 3.535534 -0.937635 3.163008 -1.836992 2.5 -2.5 
C 1.836992 -3.163008 0.937635 -3.535534 0 -3.535534 
C -0.937635 -3.535534 -1.836992 -3.163008 -2.5 -2.5 
C -3.163008 -1.836992 -3.535534 -0.937635 -3.535534 0 
C -3.535534 0.937635 -3.163008 1.836992 -2.5 2.5 
C -1.836992 3.163008 -0.937635 3.535534 0 3.535534 
z
" style="stroke: #000000"/>
    </defs>
    <g clip-path="url(#paf29bf6720)">
     <use xlink:href="#m3806405a2a" x="81.873592" y="221.553199" style="fill: #0000ff; stroke: #000000"/>
     <use xlink:href="#m3806405a2a" x="172.390191" y="172.576189" style="fill: #0000ff; stroke: #000000"/>
     <use xlink:href="#m3806405a2a" x="167.546439" y="177.488112" style="fill: #0000ff; stroke: #000000"/>
     <use xlink:href="#m3806405a2a" x="201.156929" y="161.533856" style="fill: #0000ff; stroke: #000000"/>
     <use xlink:href="#m3806405a2a" x="103.496063" y="210.271017" style="fill: #0000ff; stroke: #000000"/>
     <use xlink:href="#m3806405a2a" x="294.63503" y="106.54994" style="fill: #0000ff; stroke: #000000"/>
     <use xlink:href="#m3806405a2a" x="79.301288" y="226.425915" style="fill: #0000ff; stroke: #000000"/>
     <use xlink:href="#m3806405a2a" x="181.333555" y="162.714899" style="fill: #0000ff; stroke: #000000"/>
     <use xlink:href="#m3806405a2a" x="124.850758" y="179.850981" style="fill: #0000ff; stroke: #000000"/>
     <use xlink:href="#m3806405a2a" x="152.209855" y="173.447023" style="fill: #0000ff; stroke: #000000"/>
     <use xlink:href="#m3806405a2a" x="85.710086" y="215.412031" style="fill: #0000ff; stroke: #000000"/>
     <use xlink:href="#m3806405a2a" x="274.333663" y="124.281914" style="fill: #0000ff; stroke: #000000"/>
     <use xlink:href="#m3806405a2a" x="156.106101" y="183.867755" style="fill: #0000ff; stroke: #000000"/>
     <use xlink:href="#m3806405a2a" x="159.461144" y="161.792164" style="fill: #0000ff; stroke: #000000"/>
     <use xlink:href="#m3806405a2a" x="94.781782" y="208.7259" style="fill: #0000ff; stroke: #000000"/>
     <use xlink:href="#m3806405a2a" x="202.942813" y="158.87918" style="fill: #0000ff; stroke: #000000"/>
     <use xlink:href="#m3806405a2a" x="148.199502" y="180.105514" style="fill: #0000ff; stroke: #000000"/>
     <use xlink:href="#m3806405a2a" x="188.566116" y="143.433093" style="fill: #0000ff; stroke: #000000"/>
     <use xlink:href="#m3806405a2a" x="137.519981" y="186.184022" style="fill: #0000ff; stroke: #000000"/>
     <use xlink:href="#m3806405a2a" x="113.936123" y="194.157492" style="fill: #0000ff; stroke: #000000"/>
     <use xlink:href="#m3806405a2a" x="202.991262" y="151.036379" style="fill: #0000ff; stroke: #000000"/>
     <use xlink:href="#m3806405a2a" x="94.450908" y="212.258272" style="fill: #0000ff; stroke: #000000"/>
     <use xlink:href="#m3806405a2a" x="102.252936" y="214.841249" style="fill: #0000ff; stroke: #000000"/>
     <use xlink:href="#m3806405a2a" x="117.140076" y="200.573959" style="fill: #0000ff; stroke: #000000"/>
     <use xlink:href="#m3806405a2a" x="102.277969" y="207.040029" style="fill: #0000ff; stroke: #000000"/>
     <use xlink:href="#m3806405a2a" x="176.651822" y="162.182722" style="fill: #0000ff; stroke: #000000"/>
     <use xlink:href="#m3806405a2a" x="145.668354" y="176.000055" style="fill: #0000ff; stroke: #000000"/>
     <use xlink:href="#m3806405a2a" x="192.238731" y="151.298876" style="fill: #0000ff; stroke: #000000"/>
     <use xlink:href="#m3806405a2a" x="153.189375" y="176.751437" style="fill: #0000ff; stroke: #000000"/>
     <use xlink:href="#m3806405a2a" x="116.016849" y="190.853041" style="fill: #0000ff; stroke: #000000"/>
    </g>
   </g>
   <g id="PathCollection_2">
    <defs>
     <path id="m0fdfabe5df" d="M 0 3.535534 
C 0.937635 3.535534 1.836992 3.163008 2.5 2.5 
C 3.163008 1.836992 3.535534 0.937635 3.535534 0 
C 3.535534 -0.937635 3.163008 -1.836992 2.5 -2.5 
C 1.836992 -3.163008 0.937635 -3.535534 0 -3.535534 
C -0.937635 -3.535534 -1.836992 -3.163008 -2.5 -2.5 
C -3.163008 -1.836992 -3.535534 -0.937635 -3.535534 0 
C -3.535534 0.937635 -3.163008 1.836992 -2.5 2.5 
C -1.836992 3.163008 -0.937635 3.535534 0 3.535534 
z
" style="stroke: #000000"/>
    </defs>
    <g clip-path="url(#paf29bf6720)">
     <use xlink:href="#m0fdfabe5df" x="120.675608" y="191.242525" style="fill: #ffa500; stroke: #000000"/>
     <use xlink:href="#m0fdfabe5df" x="136.846854" y="168.410562" style="fill: #ffa500; stroke: #000000"/>
     <use xlink:href="#m0fdfabe5df" x="72.57006" y="220.217918" style="fill: #ffa500; stroke: #000000"/>
     <use xlink:href="#m0fdfabe5df" x="241.276438" y="143.191314" style="fill: #ffa500; stroke: #000000"/>
     <use xlink:href="#m0fdfabe5df" x="78.329761" y="213.107646" style="fill: #ffa500; stroke: #000000"/>
     <use xlink:href="#m0fdfabe5df" x="104.320441" y="209.220989" style="fill: #ffa500; stroke: #000000"/>
     <use xlink:href="#m0fdfabe5df" x="166.103206" y="172.656941" style="fill: #ffa500; stroke: #000000"/>
     <use xlink:href="#m0fdfabe5df" x="91.504374" y="201.032075" style="fill: #ffa500; stroke: #000000"/>
     <use xlink:href="#m0fdfabe5df" x="97.125245" y="214.184217" style="fill: #ffa500; stroke: #000000"/>
     <use xlink:href="#m0fdfabe5df" x="102.000741" y="205.364598" style="fill: #ffa500; stroke: #000000"/>
    </g>
   </g>
  </g>
 </g>
 <defs>
  <clipPath id="paf29bf6720">
   <rect x="50.28125" y="7.2" width="357.12" height="266.112"/>
  </clipPath>
 </defs>
</svg>
